G04*
G04 #@! TF.GenerationSoftware,Altium Limited,Altium Designer,23.3.1 (30)*
G04*
G04 Layer_Color=8388736*
%FSLAX44Y44*%
%MOMM*%
G71*
G04*
G04 #@! TF.SameCoordinates,DEEDA602-8963-42E2-A134-3CDC50A55A7F*
G04*
G04*
G04 #@! TF.FilePolarity,Negative*
G04*
G01*
G75*
G04:AMPARAMS|DCode=21|XSize=0.95mm|YSize=0.95mm|CornerRadius=0.2625mm|HoleSize=0mm|Usage=FLASHONLY|Rotation=270.000|XOffset=0mm|YOffset=0mm|HoleType=Round|Shape=RoundedRectangle|*
%AMROUNDEDRECTD21*
21,1,0.9500,0.4250,0,0,270.0*
21,1,0.4250,0.9500,0,0,270.0*
1,1,0.5250,-0.2125,-0.2125*
1,1,0.5250,-0.2125,0.2125*
1,1,0.5250,0.2125,0.2125*
1,1,0.5250,0.2125,-0.2125*
%
%ADD21ROUNDEDRECTD21*%
G04:AMPARAMS|DCode=22|XSize=1.6mm|YSize=0.35mm|CornerRadius=0.1125mm|HoleSize=0mm|Usage=FLASHONLY|Rotation=90.000|XOffset=0mm|YOffset=0mm|HoleType=Round|Shape=RoundedRectangle|*
%AMROUNDEDRECTD22*
21,1,1.6000,0.1250,0,0,90.0*
21,1,1.3750,0.3500,0,0,90.0*
1,1,0.2250,0.0625,0.6875*
1,1,0.2250,0.0625,-0.6875*
1,1,0.2250,-0.0625,-0.6875*
1,1,0.2250,-0.0625,0.6875*
%
%ADD22ROUNDEDRECTD22*%
G04:AMPARAMS|DCode=23|XSize=0.35mm|YSize=1.6mm|CornerRadius=0.1125mm|HoleSize=0mm|Usage=FLASHONLY|Rotation=90.000|XOffset=0mm|YOffset=0mm|HoleType=Round|Shape=RoundedRectangle|*
%AMROUNDEDRECTD23*
21,1,0.3500,1.3750,0,0,90.0*
21,1,0.1250,1.6000,0,0,90.0*
1,1,0.2250,0.6875,0.0625*
1,1,0.2250,0.6875,-0.0625*
1,1,0.2250,-0.6875,-0.0625*
1,1,0.2250,-0.6875,0.0625*
%
%ADD23ROUNDEDRECTD23*%
%ADD24C,2.0000*%
%ADD25R,1.1500X1.4000*%
G04:AMPARAMS|DCode=26|XSize=0.95mm|YSize=0.95mm|CornerRadius=0.2625mm|HoleSize=0mm|Usage=FLASHONLY|Rotation=0.000|XOffset=0mm|YOffset=0mm|HoleType=Round|Shape=RoundedRectangle|*
%AMROUNDEDRECTD26*
21,1,0.9500,0.4250,0,0,0.0*
21,1,0.4250,0.9500,0,0,0.0*
1,1,0.5250,0.2125,-0.2125*
1,1,0.5250,-0.2125,-0.2125*
1,1,0.5250,-0.2125,0.2125*
1,1,0.5250,0.2125,0.2125*
%
%ADD26ROUNDEDRECTD26*%
%ADD27O,2.1000X1.8000*%
%ADD28R,2.1000X1.8000*%
%ADD29C,1.7000*%
%ADD30C,0.1000*%
%ADD31C,1.4000*%
G04:AMPARAMS|DCode=32|XSize=1.4mm|YSize=1.4mm|CornerRadius=0.375mm|HoleSize=0mm|Usage=FLASHONLY|Rotation=90.000|XOffset=0mm|YOffset=0mm|HoleType=Round|Shape=RoundedRectangle|*
%AMROUNDEDRECTD32*
21,1,1.4000,0.6500,0,0,90.0*
21,1,0.6500,1.4000,0,0,90.0*
1,1,0.7500,0.3250,0.3250*
1,1,0.7500,0.3250,-0.3250*
1,1,0.7500,-0.3250,-0.3250*
1,1,0.7500,-0.3250,0.3250*
%
%ADD32ROUNDEDRECTD32*%
G04:AMPARAMS|DCode=33|XSize=1.7mm|YSize=1.7mm|CornerRadius=0.45mm|HoleSize=0mm|Usage=FLASHONLY|Rotation=90.000|XOffset=0mm|YOffset=0mm|HoleType=Round|Shape=RoundedRectangle|*
%AMROUNDEDRECTD33*
21,1,1.7000,0.8000,0,0,90.0*
21,1,0.8000,1.7000,0,0,90.0*
1,1,0.9000,0.4000,0.4000*
1,1,0.9000,0.4000,-0.4000*
1,1,0.9000,-0.4000,-0.4000*
1,1,0.9000,-0.4000,0.4000*
%
%ADD33ROUNDEDRECTD33*%
G36*
X142069Y680497D02*
X143566Y698167D01*
X149377Y694717D01*
X149153Y691880D01*
X148052D01*
X148291Y694438D01*
X145943Y694658D01*
X145513Y690078D01*
X147862Y689858D01*
X148049Y691856D01*
X149152D01*
X148465Y683119D01*
X142069Y680497D01*
D02*
G37*
G36*
X165120Y679162D02*
X166226Y694635D01*
X172664Y699302D01*
X172171Y693059D01*
X171296D01*
X171525Y695504D01*
X169177Y695724D01*
X168748Y691145D01*
X171096Y690925D01*
X171294Y693034D01*
X172169D01*
X171319Y682278D01*
X165120Y679162D01*
D02*
G37*
G36*
X154738Y690922D02*
X152581Y693474D01*
X156692Y696949D01*
X158849Y694398D01*
X154738Y690922D01*
D02*
G37*
G36*
X121104Y736678D02*
X120075Y743991D01*
X124295Y744585D01*
X125324Y737272D01*
X121104Y736678D01*
D02*
G37*
G36*
X149258Y751458D02*
X148784Y758153D01*
X152451Y758412D01*
X152924Y751717D01*
X149258Y751458D01*
D02*
G37*
G36*
X166521Y749637D02*
X165139Y755704D01*
X169424Y756680D01*
X170807Y750613D01*
X166521Y749637D01*
D02*
G37*
G36*
X193391Y753806D02*
X190851Y755976D01*
X194591Y760354D01*
X197131Y758185D01*
X193391Y753806D01*
D02*
G37*
D21*
X130750Y398250D02*
D03*
X116750D02*
D03*
X117250Y342000D02*
D03*
X131250D02*
D03*
X104500Y463750D02*
D03*
X118500D02*
D03*
Y545250D02*
D03*
X104500D02*
D03*
X271750Y415750D02*
D03*
X257750D02*
D03*
D22*
X174000Y582750D02*
D03*
X179000D02*
D03*
X184000D02*
D03*
X189000D02*
D03*
X194000D02*
D03*
X199000D02*
D03*
X204000D02*
D03*
X209000D02*
D03*
X214000D02*
D03*
X219000D02*
D03*
X224000D02*
D03*
X229000D02*
D03*
X234000D02*
D03*
X239000D02*
D03*
X244000D02*
D03*
X249000D02*
D03*
Y467750D02*
D03*
X244000D02*
D03*
X239000D02*
D03*
X234000D02*
D03*
X229000D02*
D03*
X224000D02*
D03*
X219000D02*
D03*
X214000D02*
D03*
X209000D02*
D03*
X204000D02*
D03*
X199000D02*
D03*
X194000D02*
D03*
X189000D02*
D03*
X184000D02*
D03*
X179000D02*
D03*
X174000D02*
D03*
D23*
X154000Y487750D02*
D03*
Y492750D02*
D03*
Y497750D02*
D03*
Y502750D02*
D03*
Y507750D02*
D03*
Y512750D02*
D03*
Y517750D02*
D03*
Y522750D02*
D03*
Y527750D02*
D03*
Y532750D02*
D03*
Y537750D02*
D03*
Y542750D02*
D03*
Y547750D02*
D03*
Y552750D02*
D03*
Y557750D02*
D03*
Y562750D02*
D03*
X269000D02*
D03*
Y557750D02*
D03*
Y552750D02*
D03*
Y547750D02*
D03*
Y542750D02*
D03*
Y537750D02*
D03*
Y532750D02*
D03*
Y527750D02*
D03*
Y522750D02*
D03*
Y517750D02*
D03*
Y512750D02*
D03*
Y507750D02*
D03*
Y502750D02*
D03*
Y497750D02*
D03*
Y492750D02*
D03*
Y487750D02*
D03*
D24*
X269750Y436500D02*
D03*
X28250Y670500D02*
D03*
X210000Y20000D02*
D03*
D25*
X120750Y493750D02*
D03*
X102250D02*
D03*
Y516750D02*
D03*
X120750D02*
D03*
D26*
X119250Y580250D02*
D03*
Y566250D02*
D03*
X101750Y566000D02*
D03*
Y580000D02*
D03*
D27*
X264750Y213100D02*
D03*
Y187700D02*
D03*
Y136900D02*
D03*
Y162300D02*
D03*
Y238500D02*
D03*
Y263900D02*
D03*
Y289300D02*
D03*
Y314700D02*
D03*
Y340100D02*
D03*
D28*
Y111500D02*
D03*
X135750Y175750D02*
D03*
Y235750D02*
D03*
Y115750D02*
D03*
D29*
X49000Y388600D02*
D03*
X74400Y160000D02*
D03*
X49000Y185400D02*
D03*
X74400D02*
D03*
X49000Y210800D02*
D03*
X74400D02*
D03*
X49000Y236200D02*
D03*
X74400D02*
D03*
X49000Y261600D02*
D03*
X74400D02*
D03*
X49000Y287000D02*
D03*
X74400D02*
D03*
X49000Y312400D02*
D03*
X74400D02*
D03*
X49000Y337800D02*
D03*
X74400D02*
D03*
X49000Y363200D02*
D03*
X74400D02*
D03*
Y388600D02*
D03*
D30*
X260000Y40000D02*
D03*
X47500Y730000D02*
D03*
Y40000D02*
D03*
X260000Y730000D02*
D03*
D31*
X57800Y611650D02*
D03*
X37800D02*
D03*
X57800Y591650D02*
D03*
X37800D02*
D03*
X57800Y571650D02*
D03*
X37800D02*
D03*
X57800Y551650D02*
D03*
X37800D02*
D03*
X57800Y531650D02*
D03*
X37800D02*
D03*
X57800Y511650D02*
D03*
X37800D02*
D03*
X57800Y491650D02*
D03*
X37800D02*
D03*
X57800Y471650D02*
D03*
X37800D02*
D03*
X57800Y451650D02*
D03*
X37800D02*
D03*
X57800Y431650D02*
D03*
D32*
X37800D02*
D03*
D33*
X49000Y160000D02*
D03*
M02*
