M48
;Layer_Color=9474304
;FILE_FORMAT=4:4
METRIC,LZ
;TYPE=PLATED
T1F00S00C0.3000
T2F00S00C0.9000
T3F00S00C1.0000
T4F00S00C1.1000
T5F00S00C3.5000
%
T01
X0022925Y002325
X0022825Y0029275
X00138Y0026225
X0021325Y0041275
X002455Y0041525
X00263375Y00454244
X00279Y0047025
X0025525Y0049275
X00249Y004995
X00233Y0051125
X00213682Y00526428
X001765Y0052275
X0016875Y0051575
Y005325
X00177Y00546182
X0016862Y00559182
X0020625Y0056825
X0024975Y0053425
X0028135Y00534721
X0028075Y0052325
X0027325Y0060175
X0021275Y0048425
X001935Y00485
X00171594Y0048775
X00176993Y00503507
X0021725Y0045075
X002785Y0038925
X001065Y0043625
X001135Y004485
X001035Y0047675
X0011975Y0053275
X001195Y0059
X00102Y0058975
T02
X000378Y0043165
Y0045165
Y0047165
Y0049165
Y0051165
Y0053165
Y0055165
Y0057165
Y0059165
Y0061165
X000578
Y0059165
Y0057165
Y0055165
Y0053165
Y0051165
Y0049165
Y0047165
Y0045165
Y0043165
T03
X00049Y0016
X000744
Y001854
X00049
Y002108
X000744
Y002362
X00049
Y002616
X000744
Y00287
X00049
Y003124
X000744
Y003378
X00049
Y003632
Y003886
X000744
Y003632
T04
X0013575Y0011575
Y0017575
Y0023575
X0026475Y002385
Y002131
Y001877
Y001623
Y001369
Y001115
Y002639
Y002893
Y003147
Y003401
T05
X000475Y0004
X0026
X000475Y0073
X0026
M30
