G04*
G04 #@! TF.GenerationSoftware,Altium Limited,Altium Designer,23.3.1 (30)*
G04*
G04 Layer_Physical_Order=1*
G04 Layer_Color=255*
%FSLAX44Y44*%
%MOMM*%
G71*
G04*
G04 #@! TF.SameCoordinates,ECDC02AA-1032-42BF-8C78-3195C1E34F5D*
G04*
G04*
G04 #@! TF.FilePolarity,Positive*
G04*
G01*
G75*
%ADD12C,0.2000*%
%ADD13C,0.1656*%
G04:AMPARAMS|DCode=14|XSize=0.85mm|YSize=0.85mm|CornerRadius=0.2125mm|HoleSize=0mm|Usage=FLASHONLY|Rotation=90.000|XOffset=0mm|YOffset=0mm|HoleType=Round|Shape=RoundedRectangle|*
%AMROUNDEDRECTD14*
21,1,0.8500,0.4250,0,0,90.0*
21,1,0.4250,0.8500,0,0,90.0*
1,1,0.4250,0.2125,0.2125*
1,1,0.4250,0.2125,-0.2125*
1,1,0.4250,-0.2125,-0.2125*
1,1,0.4250,-0.2125,0.2125*
%
%ADD14ROUNDEDRECTD14*%
G04:AMPARAMS|DCode=15|XSize=0.85mm|YSize=0.85mm|CornerRadius=0.2125mm|HoleSize=0mm|Usage=FLASHONLY|Rotation=0.000|XOffset=0mm|YOffset=0mm|HoleType=Round|Shape=RoundedRectangle|*
%AMROUNDEDRECTD15*
21,1,0.8500,0.4250,0,0,0.0*
21,1,0.4250,0.8500,0,0,0.0*
1,1,0.4250,0.2125,-0.2125*
1,1,0.4250,-0.2125,-0.2125*
1,1,0.4250,-0.2125,0.2125*
1,1,0.4250,0.2125,0.2125*
%
%ADD15ROUNDEDRECTD15*%
%ADD16O,1.4500X0.2500*%
%ADD17O,0.2500X1.4500*%
%ADD32C,1.0000*%
%ADD33C,0.3000*%
%ADD34C,0.5000*%
%ADD35R,2.0000X1.7000*%
%ADD36C,1.6000*%
G04:AMPARAMS|DCode=37|XSize=1.6mm|YSize=1.6mm|CornerRadius=0.4mm|HoleSize=0mm|Usage=FLASHONLY|Rotation=90.000|XOffset=0mm|YOffset=0mm|HoleType=Round|Shape=RoundedRectangle|*
%AMROUNDEDRECTD37*
21,1,1.6000,0.8000,0,0,90.0*
21,1,0.8000,1.6000,0,0,90.0*
1,1,0.8000,0.4000,0.4000*
1,1,0.8000,0.4000,-0.4000*
1,1,0.8000,-0.4000,-0.4000*
1,1,0.8000,-0.4000,0.4000*
%
%ADD37ROUNDEDRECTD37*%
%ADD38C,1.3000*%
G04:AMPARAMS|DCode=39|XSize=1.3mm|YSize=1.3mm|CornerRadius=0.325mm|HoleSize=0mm|Usage=FLASHONLY|Rotation=90.000|XOffset=0mm|YOffset=0mm|HoleType=Round|Shape=RoundedRectangle|*
%AMROUNDEDRECTD39*
21,1,1.3000,0.6500,0,0,90.0*
21,1,0.6500,1.3000,0,0,90.0*
1,1,0.6500,0.3250,0.3250*
1,1,0.6500,0.3250,-0.3250*
1,1,0.6500,-0.3250,-0.3250*
1,1,0.6500,-0.3250,0.3250*
%
%ADD39ROUNDEDRECTD39*%
%ADD40O,1.7000X2.0000*%
%ADD41R,1.7000X2.0000*%
G04:AMPARAMS|DCode=42|XSize=1.7mm|YSize=2mm|CornerRadius=0.425mm|HoleSize=0mm|Usage=FLASHONLY|Rotation=90.000|XOffset=0mm|YOffset=0mm|HoleType=Round|Shape=RoundedRectangle|*
%AMROUNDEDRECTD42*
21,1,1.7000,1.1500,0,0,90.0*
21,1,0.8500,2.0000,0,0,90.0*
1,1,0.8500,0.5750,0.4250*
1,1,0.8500,0.5750,-0.4250*
1,1,0.8500,-0.5750,-0.4250*
1,1,0.8500,-0.5750,0.4250*
%
%ADD42ROUNDEDRECTD42*%
%ADD43C,0.7000*%
G36*
X193881Y755435D02*
X190141Y751056D01*
X187601Y753226D01*
X191341Y757604D01*
X193881Y755435D01*
D02*
G37*
G36*
X149674Y748967D02*
X146008Y748708D01*
X145534Y755403D01*
X149200Y755662D01*
X149674Y748967D01*
D02*
G37*
G36*
X167557Y747863D02*
X163271Y746887D01*
X161889Y752954D01*
X166175Y753930D01*
X167557Y747863D01*
D02*
G37*
G36*
X122074Y734522D02*
X117854Y733928D01*
X116825Y741241D01*
X121045Y741835D01*
X122074Y734522D01*
D02*
G37*
G36*
X148816Y707338D02*
X151471Y709359D01*
X155686Y704452D01*
X159670Y711264D01*
X171303Y708926D01*
X191655Y688315D01*
X192521Y673246D01*
X173371Y652554D01*
X127569Y658091D01*
X113799Y681214D01*
X131221Y710055D01*
X133227Y706126D01*
X146391Y713747D01*
X148816Y707338D01*
D02*
G37*
G36*
X183941Y610733D02*
Y561565D01*
X183941Y561565D01*
X184174Y560395D01*
X184351Y560130D01*
X184238Y558883D01*
X183903Y558592D01*
X183157Y558093D01*
X182843D01*
X181768Y558811D01*
X180500Y559064D01*
X179232Y558811D01*
X178157Y558093D01*
X177843D01*
X176768Y558811D01*
X175500Y559064D01*
X174232Y558811D01*
X173157Y558093D01*
X172843D01*
X171768Y558811D01*
X170500Y559064D01*
X169829Y558930D01*
X168559Y559773D01*
Y562233D01*
X175288Y568962D01*
X175951Y569954D01*
X176184Y571125D01*
Y572524D01*
X176859Y572659D01*
X178224Y573570D01*
X179136Y574935D01*
X179456Y576544D01*
Y580794D01*
X179136Y582404D01*
X178224Y583768D01*
X176859Y584680D01*
X175250Y585000D01*
X171000D01*
X169391Y584680D01*
X168026Y583768D01*
X167114Y582404D01*
X166794Y580794D01*
Y576544D01*
X167114Y574935D01*
X168026Y573570D01*
X168879Y573000D01*
X169154Y571628D01*
X169109Y571435D01*
X163337Y565663D01*
X162674Y564670D01*
X162441Y563500D01*
X162441Y563500D01*
Y559773D01*
X161171Y558930D01*
X160500Y559064D01*
X159829Y558930D01*
X158559Y559773D01*
Y572425D01*
X159734Y572659D01*
X161099Y573570D01*
X162011Y574935D01*
X162331Y576544D01*
Y580794D01*
X162011Y582404D01*
X161099Y583768D01*
X159734Y584680D01*
X158125Y585000D01*
X153875D01*
X152266Y584680D01*
X150901Y583768D01*
X149989Y582404D01*
X149669Y580794D01*
Y576544D01*
X149989Y574935D01*
X150901Y573570D01*
X152266Y572659D01*
X152441Y572623D01*
Y565493D01*
Y559773D01*
X151500Y559148D01*
Y549750D01*
X149500D01*
Y559148D01*
X148559Y559773D01*
Y563500D01*
X148326Y564670D01*
X147663Y565663D01*
X147663Y565663D01*
X142059Y571267D01*
Y572524D01*
X142734Y572659D01*
X144099Y573570D01*
X145011Y574935D01*
X145331Y576544D01*
Y580794D01*
X145011Y582404D01*
X144099Y583768D01*
X142734Y584680D01*
X141125Y585000D01*
X136875D01*
X135266Y584680D01*
X134112Y585030D01*
X133663Y586115D01*
X133402Y586376D01*
X134211Y587363D01*
X134606Y587099D01*
X135266Y586659D01*
X136875Y586338D01*
X138000D01*
Y591669D01*
X132669D01*
Y590544D01*
X132989Y588935D01*
X133430Y588276D01*
X133694Y587881D01*
X132707Y587071D01*
X132115Y587663D01*
X130094Y588500D01*
X127906D01*
X125885Y587663D01*
X124337Y586115D01*
X123500Y584094D01*
Y581906D01*
X124337Y579884D01*
X125885Y578337D01*
X127906Y577500D01*
X130094D01*
X130209Y577548D01*
X130234Y577522D01*
X131392Y576749D01*
X132679Y576493D01*
X132989Y574935D01*
X133901Y573570D01*
X135266Y572659D01*
X135941Y572524D01*
Y570000D01*
X135941Y570000D01*
X136174Y568829D01*
X136837Y567837D01*
X142441Y562233D01*
Y557022D01*
X142439Y557018D01*
X142186Y555750D01*
Y543750D01*
X142439Y542482D01*
X143157Y541407D01*
X144232Y540689D01*
X145500Y540436D01*
X146768Y540689D01*
X147843Y541407D01*
X148157D01*
X149232Y540689D01*
X149847Y539702D01*
X149862Y539268D01*
X149611Y539059D01*
X108569D01*
Y566500D01*
X114000D01*
Y587500D01*
X90000D01*
Y566500D01*
X101431D01*
Y537478D01*
X94453Y530500D01*
X92906D01*
X90885Y529663D01*
X89337Y528116D01*
X88500Y526094D01*
Y523906D01*
X89337Y521884D01*
X90885Y520337D01*
X92906Y519500D01*
X95094D01*
X97115Y520337D01*
X98663Y521884D01*
X99500Y523906D01*
Y525453D01*
X106988Y532941D01*
X116279D01*
X116958Y531671D01*
X116689Y531268D01*
X116436Y530000D01*
X116689Y528732D01*
X117407Y527657D01*
Y527343D01*
X116689Y526268D01*
X116436Y525000D01*
X116689Y523732D01*
X116846Y523496D01*
X117331Y522500D01*
X116846Y521504D01*
X116689Y521268D01*
X116436Y520000D01*
X116689Y518732D01*
X117407Y517657D01*
Y517343D01*
X116689Y516268D01*
X116436Y515000D01*
X116689Y513732D01*
X116846Y513496D01*
X117331Y512500D01*
X116846Y511504D01*
X116689Y511268D01*
X116436Y510000D01*
X116689Y508732D01*
X117407Y507657D01*
Y507343D01*
X116689Y506268D01*
X116436Y505000D01*
X116689Y503732D01*
X117407Y502657D01*
Y502343D01*
X116689Y501268D01*
X116436Y500000D01*
X116689Y498732D01*
X116846Y498496D01*
X117331Y497500D01*
X116846Y496504D01*
X116689Y496268D01*
X116436Y495000D01*
X116689Y493732D01*
X117407Y492657D01*
Y492343D01*
X116689Y491268D01*
X116436Y490000D01*
X116689Y488732D01*
X116846Y488496D01*
X117331Y487500D01*
X116846Y486504D01*
X116689Y486268D01*
X116436Y485000D01*
X116689Y483732D01*
X117407Y482657D01*
Y482343D01*
X116689Y481268D01*
X116436Y480000D01*
X116689Y478732D01*
X117407Y477657D01*
Y477343D01*
X116689Y476268D01*
X116436Y475000D01*
X116689Y473732D01*
X116846Y473496D01*
X117331Y472500D01*
X116846Y471504D01*
X116689Y471268D01*
X116436Y470000D01*
X116570Y469329D01*
X115727Y468059D01*
X94740D01*
X79986Y482813D01*
X78993Y483476D01*
X77823Y483709D01*
X77823Y483709D01*
X63585D01*
X63230Y484423D01*
X63150Y484979D01*
X64602Y486431D01*
X65721Y488369D01*
X66300Y490531D01*
Y490650D01*
X57800D01*
X49300D01*
Y490531D01*
X49879Y488369D01*
X50998Y486431D01*
X52450Y484979D01*
X52370Y484423D01*
X52015Y483709D01*
X50067D01*
X45606Y488170D01*
X45721Y488369D01*
X46300Y490531D01*
Y492769D01*
X45721Y494931D01*
X44602Y496869D01*
X43113Y498358D01*
X43021Y498582D01*
X43041Y499828D01*
X43084Y499881D01*
X49793Y506590D01*
X49807Y506588D01*
X51214Y506215D01*
X52581Y504848D01*
X54519Y503729D01*
X56681Y503150D01*
X58919D01*
X61081Y503729D01*
X63019Y504848D01*
X64602Y506431D01*
X65721Y508369D01*
X66300Y510531D01*
Y512769D01*
X65721Y514931D01*
X64602Y516869D01*
X63183Y518288D01*
X63029Y518663D01*
X63084Y519881D01*
X68963Y525759D01*
X69626Y526752D01*
X69859Y527922D01*
X69859Y527922D01*
Y542650D01*
X69859Y542650D01*
X69626Y543820D01*
X68963Y544813D01*
X68963Y544813D01*
X65606Y548170D01*
X65721Y548369D01*
X66300Y550531D01*
Y552769D01*
X65902Y554253D01*
X66967Y555187D01*
X67056Y555150D01*
X69244D01*
X71266Y555987D01*
X72813Y557534D01*
X73650Y559556D01*
Y561744D01*
X72813Y563765D01*
X71266Y565313D01*
X69244Y566150D01*
X67056D01*
X65854Y565652D01*
X64710Y566403D01*
X64660Y566532D01*
X65721Y568369D01*
X66300Y570531D01*
Y572769D01*
X65721Y574931D01*
X64602Y576869D01*
X63019Y578452D01*
X61081Y579571D01*
X58919Y580150D01*
X56681D01*
X54519Y579571D01*
X52581Y578452D01*
X50998Y576869D01*
X49879Y574931D01*
X49300Y572769D01*
Y570531D01*
X49879Y568369D01*
X50998Y566431D01*
X52581Y564848D01*
X52763Y564743D01*
X52820Y564225D01*
X52677Y563326D01*
X51909Y562813D01*
X51909Y562813D01*
X45910Y556814D01*
X44634D01*
X44602Y556869D01*
X43019Y558452D01*
X41081Y559571D01*
X38919Y560150D01*
X36681D01*
X34519Y559571D01*
X32581Y558452D01*
X30998Y556869D01*
X29879Y554931D01*
X29300Y552769D01*
Y550531D01*
X29879Y548369D01*
X30998Y546431D01*
X32581Y544848D01*
X34519Y543729D01*
X35798Y543387D01*
Y543322D01*
X35798Y543322D01*
X36030Y542151D01*
X36554Y541367D01*
X36559Y541317D01*
X36388Y540584D01*
X36070Y539986D01*
X34519Y539571D01*
X32581Y538452D01*
X30998Y536869D01*
X29879Y534931D01*
X29300Y532769D01*
Y530531D01*
X29879Y528369D01*
X29994Y528170D01*
X21732Y519908D01*
X20559Y520394D01*
Y563483D01*
X28127Y571051D01*
X28727Y570802D01*
X29322Y570450D01*
X29879Y568369D01*
X30998Y566431D01*
X32581Y564848D01*
X34519Y563729D01*
X36681Y563150D01*
X38919D01*
X41081Y563729D01*
X43019Y564848D01*
X44602Y566431D01*
X45721Y568369D01*
X46300Y570531D01*
Y572769D01*
X45721Y574931D01*
X44602Y576869D01*
X43771Y577700D01*
X44024Y578941D01*
X44149Y579118D01*
X45038Y579712D01*
X48963Y583637D01*
X49626Y584630D01*
X49859Y585800D01*
Y585865D01*
X50574Y586220D01*
X51129Y586300D01*
X52581Y584848D01*
X54519Y583729D01*
X56681Y583150D01*
X56800D01*
Y591650D01*
Y600150D01*
X56681D01*
X54519Y599571D01*
X52581Y598452D01*
X51129Y597000D01*
X50574Y597080D01*
X49859Y597435D01*
Y602650D01*
X49859Y602650D01*
X49626Y603820D01*
X48963Y604813D01*
X48963Y604813D01*
X45606Y608170D01*
X45721Y608369D01*
X46300Y610531D01*
Y612769D01*
X45721Y614931D01*
X45606Y615130D01*
X48417Y617941D01*
X50468D01*
X50884Y616671D01*
X49879Y614931D01*
X49300Y612769D01*
Y610531D01*
X49879Y608369D01*
X50998Y606431D01*
X52581Y604848D01*
X54519Y603729D01*
X56681Y603150D01*
X58919D01*
X61081Y603729D01*
X63019Y604848D01*
X64602Y606431D01*
X65721Y608369D01*
X66300Y610531D01*
Y612769D01*
X65721Y614931D01*
X64716Y616671D01*
X65132Y617941D01*
X176733D01*
X183941Y610733D01*
D02*
G37*
G36*
X297451Y502824D02*
X296181Y502571D01*
X296163Y502616D01*
X294615Y504163D01*
X292594Y505000D01*
X290406D01*
X288384Y504163D01*
X286837Y502616D01*
X286814Y502559D01*
X285245D01*
X285011Y503735D01*
X284099Y505099D01*
X282735Y506011D01*
X281125Y506331D01*
X276875D01*
X275266Y506011D01*
X273901Y505099D01*
X272989Y503735D01*
X272669Y502125D01*
Y497875D01*
X272989Y496265D01*
X273901Y494901D01*
X275266Y493989D01*
X276875Y493669D01*
X281125D01*
X282735Y493989D01*
X284099Y494901D01*
X285011Y496265D01*
X285046Y496441D01*
X286814D01*
X286837Y496385D01*
X288384Y494837D01*
X290406Y494000D01*
X292594D01*
X294615Y494837D01*
X296163Y496385D01*
X296181Y496429D01*
X297451Y496176D01*
Y460534D01*
X296278Y460048D01*
X287163Y469163D01*
X286171Y469826D01*
X285000Y470059D01*
X285000Y470059D01*
X271267D01*
X268059Y473267D01*
Y478855D01*
X268734Y478989D01*
X270099Y479901D01*
X271011Y481265D01*
X271331Y482875D01*
Y487125D01*
X271011Y488735D01*
X270099Y490099D01*
X268734Y491011D01*
X268059Y491145D01*
Y493855D01*
X268734Y493989D01*
X270099Y494901D01*
X271011Y496265D01*
X271331Y497875D01*
Y502125D01*
X271011Y503735D01*
X270099Y505099D01*
X268734Y506011D01*
X267125Y506331D01*
X262875D01*
X261266Y506011D01*
X259901Y505099D01*
X258989Y503735D01*
X258669Y502125D01*
Y497875D01*
X258989Y496265D01*
X259901Y494901D01*
X261266Y493989D01*
X261941Y493855D01*
Y491145D01*
X261266Y491011D01*
X259901Y490099D01*
X258989Y488735D01*
X258855Y488059D01*
X250273D01*
X249430Y489329D01*
X249564Y490000D01*
X249311Y491268D01*
X249154Y491504D01*
X248669Y492500D01*
X249154Y493496D01*
X249311Y493732D01*
X249564Y495000D01*
X249311Y496268D01*
X248593Y497343D01*
Y497657D01*
X249311Y498732D01*
X249564Y500000D01*
X249311Y501268D01*
X249154Y501504D01*
X248669Y502500D01*
X249154Y503496D01*
X249311Y503732D01*
X249564Y505000D01*
X249311Y506268D01*
X249154Y506504D01*
X248669Y507500D01*
X249154Y508496D01*
X249311Y508732D01*
X249365Y509000D01*
X240250D01*
X231135D01*
X231189Y508732D01*
X231346Y508496D01*
X231831Y507500D01*
X231346Y506504D01*
X231189Y506268D01*
X230936Y505000D01*
X231189Y503732D01*
X231346Y503496D01*
X231831Y502500D01*
X231346Y501504D01*
X231189Y501268D01*
X230936Y500000D01*
X231189Y498732D01*
X231907Y497657D01*
Y497343D01*
X231189Y496268D01*
X230936Y495000D01*
X231189Y493732D01*
X231346Y493496D01*
X231831Y492500D01*
X231346Y491504D01*
X231189Y491268D01*
X230936Y490000D01*
X231189Y488732D01*
X231907Y487657D01*
Y487343D01*
X231189Y486268D01*
X230936Y485000D01*
X231070Y484329D01*
X230298Y483165D01*
X229061Y483211D01*
X228547Y484453D01*
X227000Y486000D01*
X224979Y486837D01*
X222791D01*
X220769Y486000D01*
X219222Y484453D01*
X218384Y482431D01*
Y480243D01*
X219222Y478222D01*
X220769Y476675D01*
X221688Y476294D01*
Y474920D01*
X220675Y474500D01*
X219128Y472953D01*
X218291Y470931D01*
Y468743D01*
X219128Y466722D01*
X220675Y465175D01*
X222696Y464337D01*
X224884D01*
X226906Y465175D01*
X228453Y466722D01*
X229291Y468743D01*
Y469977D01*
X229693Y470259D01*
X230082Y470178D01*
X231010Y469632D01*
X231189Y468732D01*
X231346Y468496D01*
X231831Y467500D01*
X231346Y466504D01*
X231189Y466268D01*
X230936Y465000D01*
X231189Y463732D01*
X231907Y462657D01*
Y462343D01*
X231189Y461268D01*
X230936Y460000D01*
X231189Y458732D01*
X231346Y458496D01*
X231831Y457500D01*
X231346Y456504D01*
X231189Y456268D01*
X230936Y455000D01*
X231189Y453732D01*
X231907Y452657D01*
X232982Y451939D01*
X234250Y451686D01*
X246250D01*
X247518Y451939D01*
X247522Y451941D01*
X258855D01*
X258989Y451265D01*
X259901Y449901D01*
X261266Y448989D01*
X262875Y448669D01*
X267125D01*
X268734Y448989D01*
X270099Y449901D01*
X271011Y451265D01*
X271331Y452875D01*
Y457125D01*
X271011Y458735D01*
X270099Y460099D01*
X268734Y461011D01*
X267125Y461331D01*
X262875D01*
X261266Y461011D01*
X259901Y460099D01*
X258989Y458735D01*
X258855Y458059D01*
X250273D01*
X249430Y459329D01*
X249564Y460000D01*
X249311Y461268D01*
X248593Y462343D01*
Y462657D01*
X249311Y463732D01*
X249564Y465000D01*
X249311Y466268D01*
X249154Y466504D01*
X248669Y467500D01*
X249154Y468496D01*
X249311Y468732D01*
X249564Y470000D01*
X249311Y471268D01*
X248593Y472343D01*
Y472657D01*
X249311Y473732D01*
X249564Y475000D01*
X249311Y476268D01*
X249154Y476504D01*
X248669Y477500D01*
X249154Y478496D01*
X249311Y478732D01*
X249564Y480000D01*
X249430Y480671D01*
X250273Y481941D01*
X258855D01*
X258989Y481265D01*
X259901Y479901D01*
X261266Y478989D01*
X261941Y478855D01*
Y472000D01*
X261941Y472000D01*
X262174Y470830D01*
X262837Y469837D01*
X267837Y464837D01*
X268829Y464174D01*
X270000Y463941D01*
X270000Y463941D01*
X283733D01*
X293441Y454233D01*
Y366252D01*
X263065Y335877D01*
X262402Y334884D01*
X262169Y333714D01*
X262170Y333713D01*
Y299495D01*
X234151Y271476D01*
X234094Y271500D01*
X231906D01*
X229884Y270663D01*
X228337Y269116D01*
X227500Y267094D01*
Y264906D01*
X228337Y262885D01*
X229884Y261337D01*
X231906Y260500D01*
X234094D01*
X236115Y261337D01*
X237663Y262885D01*
X238500Y264906D01*
Y267094D01*
X238477Y267151D01*
X267391Y296065D01*
X267391Y296065D01*
X268054Y297058D01*
X268287Y298228D01*
Y332447D01*
X296278Y360437D01*
X297451Y359951D01*
Y101583D01*
X296181Y100500D01*
X286000D01*
Y90000D01*
Y79500D01*
X296181D01*
X297000Y79500D01*
X297451Y78417D01*
Y35000D01*
X297451Y35000D01*
Y34720D01*
X297090Y30128D01*
X297049Y29818D01*
X295884Y24965D01*
X293934Y20257D01*
X291326Y16001D01*
X291136Y15755D01*
X288144Y12251D01*
X287749Y11856D01*
X284245Y8863D01*
X283999Y8675D01*
X279743Y6066D01*
X275035Y4116D01*
X270180Y2951D01*
X269874Y2910D01*
X266258Y2626D01*
X265000Y2549D01*
X265000Y2549D01*
X263764Y2549D01*
X156921D01*
X156395Y3819D01*
X160447Y7871D01*
X161155Y7328D01*
X163709Y6270D01*
X166450Y5909D01*
X169191Y6270D01*
X171745Y7328D01*
X173939Y9011D01*
X175622Y11205D01*
X176680Y13759D01*
X177041Y16500D01*
Y19500D01*
X176680Y22241D01*
X175622Y24795D01*
X173939Y26989D01*
X171745Y28672D01*
X169191Y29730D01*
X166450Y30091D01*
X163709Y29730D01*
X161155Y28672D01*
X158961Y26989D01*
X157278Y24795D01*
X156220Y22241D01*
X155859Y19500D01*
Y16500D01*
X156220Y13759D01*
X156649Y12724D01*
X152483Y8559D01*
X149792D01*
X149166Y9829D01*
X150222Y11205D01*
X151280Y13759D01*
X151641Y16500D01*
Y19500D01*
X151280Y22241D01*
X150222Y24795D01*
X148539Y26989D01*
X146345Y28672D01*
X144109Y29598D01*
Y40033D01*
X174413Y70337D01*
X174413Y70337D01*
X175076Y71329D01*
X175309Y72500D01*
X175309Y72500D01*
Y210656D01*
X176482Y211142D01*
X188791Y198833D01*
Y29598D01*
X186555Y28672D01*
X184361Y26989D01*
X182678Y24795D01*
X181620Y22241D01*
X181259Y19500D01*
Y16500D01*
X181620Y13759D01*
X182678Y11205D01*
X184361Y9011D01*
X186555Y7328D01*
X189109Y6270D01*
X191850Y5909D01*
X194591Y6270D01*
X197145Y7328D01*
X199339Y9011D01*
X201022Y11205D01*
X202080Y13759D01*
X202441Y16500D01*
Y19500D01*
X202080Y22241D01*
X201022Y24795D01*
X199339Y26989D01*
X197145Y28672D01*
X194909Y29598D01*
Y200100D01*
X194676Y201270D01*
X194013Y202263D01*
X117613Y278663D01*
X116620Y279326D01*
X115450Y279559D01*
X115450Y279559D01*
X82760D01*
X82274Y280732D01*
X82402Y280860D01*
X83719Y283140D01*
X84400Y285683D01*
Y288316D01*
X83719Y290860D01*
X82402Y293140D01*
X80540Y295002D01*
X78260Y296318D01*
X75717Y297000D01*
X73084D01*
X70540Y296318D01*
X68260Y295002D01*
X66398Y293140D01*
X65082Y290860D01*
X64400Y288316D01*
Y285683D01*
X65082Y283140D01*
X66398Y280860D01*
X66526Y280732D01*
X66040Y279559D01*
X57360D01*
X56874Y280732D01*
X57002Y280860D01*
X58319Y283140D01*
X59000Y285683D01*
Y288316D01*
X58319Y290860D01*
X57002Y293140D01*
X55140Y295002D01*
X52860Y296318D01*
X50317Y297000D01*
X47684D01*
X45140Y296318D01*
X42860Y295002D01*
X40998Y293140D01*
X39681Y290860D01*
X39000Y288316D01*
Y285683D01*
X39681Y283140D01*
X40637Y281484D01*
X39621Y280704D01*
X28359Y291967D01*
Y300193D01*
X29629Y300717D01*
X29781Y300563D01*
X29784Y300561D01*
X29786Y300558D01*
X30115Y300338D01*
X30441Y300119D01*
X30445Y300118D01*
X30448Y300116D01*
X30834Y300039D01*
X31221Y299961D01*
X31225Y299961D01*
X31228Y299961D01*
X44473D01*
X44605Y299987D01*
X44739Y299978D01*
X44992Y300064D01*
X45254Y300116D01*
X45366Y300191D01*
X45493Y300234D01*
X45693Y300410D01*
X45915Y300558D01*
X45990Y300670D01*
X46091Y300759D01*
X46209Y300998D01*
X46357Y301220D01*
X46384Y301352D01*
X46443Y301472D01*
X46526Y301780D01*
X47625Y302416D01*
X47684Y302400D01*
X50317D01*
X50374Y302416D01*
X51474Y301780D01*
X51557Y301472D01*
X51617Y301352D01*
X51643Y301220D01*
X51791Y300998D01*
X51909Y300759D01*
X52010Y300670D01*
X52085Y300558D01*
X52307Y300410D01*
X52507Y300234D01*
X52634Y300191D01*
X52746Y300116D01*
X53008Y300064D01*
X53260Y299978D01*
X53395Y299987D01*
X53527Y299961D01*
X69873D01*
X70005Y299987D01*
X70139Y299978D01*
X70392Y300064D01*
X70654Y300116D01*
X70766Y300191D01*
X70893Y300234D01*
X71094Y300410D01*
X71315Y300558D01*
X71390Y300670D01*
X71491Y300759D01*
X71609Y300998D01*
X71757Y301220D01*
X71783Y301352D01*
X71843Y301472D01*
X71926Y301780D01*
X73025Y302416D01*
X73084Y302400D01*
X75717D01*
X75774Y302416D01*
X76874Y301780D01*
X76957Y301472D01*
X77017Y301352D01*
X77043Y301220D01*
X77191Y300998D01*
X77309Y300759D01*
X77410Y300670D01*
X77485Y300558D01*
X77707Y300410D01*
X77907Y300234D01*
X78034Y300191D01*
X78146Y300116D01*
X78408Y300064D01*
X78660Y299978D01*
X78795Y299987D01*
X78927Y299961D01*
X229000D01*
X229780Y300116D01*
X230442Y300558D01*
X230671Y300901D01*
X231941Y300521D01*
Y288252D01*
X213337Y269648D01*
X212674Y268656D01*
X212441Y267485D01*
X212441Y267485D01*
Y220767D01*
X208651Y216977D01*
X208594Y217000D01*
X206406D01*
X204384Y216163D01*
X202837Y214615D01*
X202000Y212594D01*
Y210406D01*
X202837Y208384D01*
X204384Y206837D01*
X206406Y206000D01*
X208594D01*
X210616Y206837D01*
X212163Y208384D01*
X213000Y210406D01*
Y212594D01*
X212976Y212651D01*
X217663Y217337D01*
X218326Y218330D01*
X218559Y219500D01*
Y266218D01*
X237163Y284822D01*
X237163Y284822D01*
X237826Y285815D01*
X238059Y286985D01*
X238059Y286985D01*
Y326000D01*
X237826Y327170D01*
X237163Y328163D01*
X237163Y328163D01*
X221589Y343737D01*
X244745Y366894D01*
X263026D01*
X263049Y366837D01*
X264597Y365290D01*
X266618Y364453D01*
X268806D01*
X270828Y365290D01*
X272375Y366837D01*
X273212Y368858D01*
Y371046D01*
X272375Y373068D01*
X270828Y374615D01*
X268806Y375452D01*
X266618D01*
X264597Y374615D01*
X263049Y373068D01*
X263026Y373011D01*
X243478D01*
X242308Y372778D01*
X241315Y372115D01*
X241315Y372115D01*
X217263Y348063D01*
X212864Y352462D01*
Y370195D01*
X212864Y370195D01*
X212631Y371366D01*
X211968Y372358D01*
X204059Y380267D01*
Y387855D01*
X204734Y387989D01*
X206099Y388901D01*
X207011Y390266D01*
X207331Y391875D01*
Y396125D01*
X207011Y397734D01*
X206099Y399099D01*
X204734Y400011D01*
X203125Y400331D01*
X198875D01*
X197265Y400011D01*
X195901Y399099D01*
X194989Y397734D01*
X194669Y396125D01*
Y391875D01*
X194989Y390266D01*
X195901Y388901D01*
X197265Y387989D01*
X197941Y387855D01*
Y379000D01*
X197941Y379000D01*
X198174Y377830D01*
X198837Y376837D01*
X206746Y368928D01*
Y351195D01*
X206746Y351195D01*
X206979Y350024D01*
X207642Y349032D01*
X215100Y341574D01*
X215100Y341574D01*
X226712Y329963D01*
X226226Y328789D01*
X144569D01*
Y395000D01*
X144297Y396366D01*
X143523Y397523D01*
X107569Y433478D01*
Y442000D01*
X107569Y442000D01*
Y448956D01*
X107734Y448989D01*
X109099Y449901D01*
X110011Y451265D01*
X110145Y451941D01*
X118478D01*
X118482Y451939D01*
X119750Y451686D01*
X131750D01*
X133018Y451939D01*
X134093Y452657D01*
X134811Y453732D01*
X135064Y455000D01*
X134811Y456268D01*
X134654Y456504D01*
X134169Y457500D01*
X134654Y458496D01*
X134811Y458732D01*
X134865Y459000D01*
X125750D01*
Y461000D01*
X134865D01*
X134811Y461268D01*
X134654Y461504D01*
X134169Y462500D01*
X134654Y463496D01*
X134811Y463732D01*
X135064Y465000D01*
X134811Y466268D01*
X134093Y467343D01*
Y467657D01*
X134811Y468732D01*
X135064Y470000D01*
X134811Y471268D01*
X134654Y471504D01*
X134169Y472500D01*
X134654Y473496D01*
X134811Y473732D01*
X135064Y475000D01*
X134811Y476268D01*
X134093Y477343D01*
Y477657D01*
X134811Y478732D01*
X135064Y480000D01*
X134811Y481268D01*
X134093Y482343D01*
Y482657D01*
X134811Y483732D01*
X135064Y485000D01*
X134811Y486268D01*
X134654Y486504D01*
X134169Y487500D01*
X134654Y488496D01*
X134811Y488732D01*
X135064Y490000D01*
X134811Y491268D01*
X134093Y492343D01*
Y492657D01*
X134811Y493732D01*
X135064Y495000D01*
X134811Y496268D01*
X134654Y496504D01*
X134169Y497500D01*
X134654Y498496D01*
X134811Y498732D01*
X135064Y500000D01*
X134811Y501268D01*
X134093Y502343D01*
Y502657D01*
X134811Y503732D01*
X135064Y505000D01*
X134811Y506268D01*
X134093Y507343D01*
Y507657D01*
X134811Y508732D01*
X135064Y510000D01*
X134811Y511268D01*
X134654Y511504D01*
X134169Y512500D01*
X134654Y513496D01*
X134811Y513732D01*
X135064Y515000D01*
X134811Y516268D01*
X134093Y517343D01*
Y517657D01*
X134811Y518732D01*
X135064Y520000D01*
X134811Y521268D01*
X134654Y521504D01*
X134169Y522500D01*
X134654Y523496D01*
X134811Y523732D01*
X135064Y525000D01*
X134811Y526268D01*
X134093Y527343D01*
Y527657D01*
X134811Y528732D01*
X135064Y530000D01*
X134811Y531268D01*
X134542Y531671D01*
X135221Y532941D01*
X152000D01*
X152000Y532941D01*
X153170Y533174D01*
X154163Y533837D01*
X157663Y537337D01*
X157663Y537337D01*
X158326Y538330D01*
X158559Y539500D01*
X158559Y539500D01*
Y539727D01*
X159829Y540570D01*
X160500Y540436D01*
X161768Y540689D01*
X162843Y541407D01*
X163157D01*
X164232Y540689D01*
X165500Y540436D01*
X166768Y540689D01*
X167843Y541407D01*
X168157D01*
X169232Y540689D01*
X170500Y540436D01*
X171768Y540689D01*
X172843Y541407D01*
X173157D01*
X174232Y540689D01*
X175500Y540436D01*
X176768Y540689D01*
X177843Y541407D01*
X178157D01*
X179232Y540689D01*
X180500Y540436D01*
X181768Y540689D01*
X182843Y541407D01*
X183157D01*
X184232Y540689D01*
X185500Y540436D01*
X186768Y540689D01*
X187843Y541407D01*
X188157D01*
X189232Y540689D01*
X190500Y540436D01*
X191768Y540689D01*
X192843Y541407D01*
X193157D01*
X194232Y540689D01*
X195500Y540436D01*
X196768Y540689D01*
X197843Y541407D01*
X198157D01*
X199232Y540689D01*
X200500Y540436D01*
X201171Y540570D01*
X202441Y539727D01*
Y536767D01*
X200907Y535233D01*
X172516D01*
X172492Y535290D01*
X170945Y536837D01*
X168923Y537674D01*
X166735D01*
X164714Y536837D01*
X163167Y535290D01*
X162330Y533268D01*
Y531080D01*
X163167Y529059D01*
X164714Y527511D01*
X166735Y526674D01*
X168923D01*
X170945Y527511D01*
X172492Y529059D01*
X172516Y529115D01*
X202174D01*
X202174Y529115D01*
X203345Y529348D01*
X204337Y530011D01*
X207663Y533337D01*
X208326Y534329D01*
X208559Y535500D01*
X208559Y535500D01*
Y539727D01*
X209829Y540570D01*
X210500Y540436D01*
X211768Y540689D01*
X212843Y541407D01*
X213157D01*
X214232Y540689D01*
X214500Y540635D01*
Y549750D01*
Y559148D01*
X213559Y559773D01*
Y563726D01*
X214163Y564330D01*
X214163Y564330D01*
X214826Y565322D01*
X215059Y566493D01*
X215059Y566493D01*
Y573543D01*
X215099Y573570D01*
X216011Y574935D01*
X216077Y575266D01*
X217956D01*
X218885Y574337D01*
X220906Y573500D01*
X223094D01*
X225116Y574337D01*
X226663Y575885D01*
X227500Y577906D01*
Y580094D01*
X226663Y582116D01*
X225116Y583663D01*
X223094Y584500D01*
X220906D01*
X218885Y583663D01*
X217625Y582403D01*
X216011D01*
X216011Y582404D01*
X215099Y583768D01*
X213734Y584680D01*
X212125Y585000D01*
X207875D01*
X206266Y584680D01*
X204901Y583768D01*
X203989Y582404D01*
X203669Y580794D01*
Y576544D01*
X203839Y575691D01*
X202726Y574777D01*
X202188Y575000D01*
X200000D01*
X197978Y574163D01*
X196431Y572616D01*
X195594Y570594D01*
Y568500D01*
X193906D01*
X191884Y567663D01*
X191329Y567107D01*
X190059Y567633D01*
Y612000D01*
X190059Y612000D01*
X189826Y613171D01*
X189163Y614163D01*
X189163Y614163D01*
X180163Y623163D01*
X179170Y623826D01*
X178000Y624059D01*
X178000Y624059D01*
X47150D01*
X47150Y624059D01*
X45979Y623826D01*
X44987Y623163D01*
X44987Y623163D01*
X41280Y619456D01*
X41081Y619571D01*
X38919Y620150D01*
X36681D01*
X34519Y619571D01*
X32581Y618452D01*
X30998Y616869D01*
X29879Y614931D01*
X29300Y612769D01*
Y610531D01*
X29879Y608369D01*
X30998Y606431D01*
X32581Y604848D01*
X34519Y603729D01*
X36681Y603150D01*
X38919D01*
X41081Y603729D01*
X41280Y603844D01*
X43741Y601383D01*
Y599438D01*
X42471Y598768D01*
X41081Y599571D01*
X38919Y600150D01*
X36681D01*
X34519Y599571D01*
X32581Y598452D01*
X30998Y596869D01*
X29879Y594931D01*
X29300Y592769D01*
Y590531D01*
X29879Y588369D01*
X29994Y588170D01*
X11319Y569495D01*
X10049Y570021D01*
Y645500D01*
X297451D01*
Y502824D01*
D02*
G37*
G36*
X34519Y483729D02*
X36681Y483150D01*
X38919D01*
X41081Y483729D01*
X41280Y483844D01*
X46637Y478487D01*
X47629Y477824D01*
X48800Y477591D01*
X48800Y477591D01*
X50012D01*
X50682Y476321D01*
X49879Y474931D01*
X49300Y472769D01*
Y470531D01*
X49879Y468369D01*
X50998Y466431D01*
X52581Y464848D01*
X54519Y463729D01*
X56681Y463150D01*
X58919D01*
X61081Y463729D01*
X63019Y464848D01*
X64602Y466431D01*
X65721Y468369D01*
X66300Y470531D01*
Y472769D01*
X65721Y474931D01*
X64918Y476321D01*
X65588Y477591D01*
X76556D01*
X91310Y462837D01*
X91664Y462601D01*
X91278Y461331D01*
X91000D01*
Y456000D01*
X96331D01*
Y457125D01*
X96011Y458735D01*
X95099Y460099D01*
X94242Y460671D01*
X94628Y461941D01*
X99372D01*
X99757Y460671D01*
X98901Y460099D01*
X97989Y458735D01*
X97669Y457125D01*
Y452875D01*
X97989Y451265D01*
X98901Y449901D01*
X100266Y448989D01*
X100431Y448956D01*
Y442000D01*
X100431Y442000D01*
Y432000D01*
X100703Y430634D01*
X101477Y429477D01*
X137431Y393522D01*
Y328789D01*
X120811D01*
X120614Y328750D01*
X120413D01*
X120227Y328673D01*
X120030Y328634D01*
X119863Y328522D01*
X119678Y328446D01*
X119536Y328303D01*
X119369Y328192D01*
X118176Y328602D01*
X117865Y328913D01*
X115844Y329750D01*
X113656D01*
X113599Y329726D01*
X89913Y353413D01*
X88920Y354076D01*
X87750Y354309D01*
X87750Y354309D01*
X81447D01*
X80921Y355579D01*
X82402Y357060D01*
X83719Y359340D01*
X84400Y361884D01*
Y364516D01*
X83719Y367060D01*
X82402Y369340D01*
X80540Y371202D01*
X78260Y372519D01*
X75717Y373200D01*
X73084D01*
X70540Y372519D01*
X68260Y371202D01*
X66398Y369340D01*
X65082Y367060D01*
X64400Y364516D01*
Y361884D01*
X65082Y359340D01*
X66398Y357060D01*
X67879Y355579D01*
X67353Y354309D01*
X56047D01*
X55521Y355579D01*
X57002Y357060D01*
X58319Y359340D01*
X59000Y361884D01*
Y364516D01*
X58319Y367060D01*
X57002Y369340D01*
X55140Y371202D01*
X52860Y372519D01*
X50317Y373200D01*
X47684D01*
X45140Y372519D01*
X42860Y371202D01*
X40998Y369340D01*
X39681Y367060D01*
X39000Y364516D01*
Y362422D01*
X37730Y361896D01*
X31859Y367767D01*
Y422473D01*
X33129Y423330D01*
X34550Y423047D01*
X36800D01*
Y431650D01*
Y440253D01*
X34550D01*
X33129Y439970D01*
X31859Y440827D01*
Y443862D01*
X33129Y444532D01*
X34519Y443729D01*
X36681Y443150D01*
X38919D01*
X41081Y443729D01*
X43019Y444848D01*
X44602Y446431D01*
X45721Y448369D01*
X46300Y450531D01*
Y452769D01*
X45721Y454931D01*
X44602Y456869D01*
X43019Y458452D01*
X41081Y459571D01*
X38919Y460150D01*
X36681D01*
X34519Y459571D01*
X33129Y458768D01*
X31859Y459438D01*
Y463862D01*
X33129Y464532D01*
X34519Y463729D01*
X36681Y463150D01*
X36800D01*
Y471650D01*
Y480150D01*
X36681D01*
X34519Y479571D01*
X33129Y478768D01*
X31859Y479438D01*
Y483862D01*
X33129Y484532D01*
X34519Y483729D01*
D02*
G37*
G36*
X104712Y329963D02*
X104226Y328789D01*
X81171D01*
X80801Y330059D01*
X82402Y331660D01*
X83719Y333940D01*
X84400Y336483D01*
Y336800D01*
X74400D01*
X64400D01*
Y336483D01*
X65082Y333940D01*
X66398Y331660D01*
X67999Y330059D01*
X67629Y328789D01*
X55771D01*
X55401Y330059D01*
X57002Y331660D01*
X58319Y333940D01*
X59000Y336483D01*
Y339117D01*
X58319Y341660D01*
X57002Y343940D01*
X55140Y345802D01*
X53201Y346921D01*
X53542Y348191D01*
X69858D01*
X70198Y346921D01*
X68260Y345802D01*
X66398Y343940D01*
X65082Y341660D01*
X64400Y339117D01*
Y338800D01*
X74400D01*
X84400D01*
Y339117D01*
X83719Y341660D01*
X82402Y343940D01*
X80540Y345802D01*
X78601Y346921D01*
X78942Y348191D01*
X86483D01*
X104712Y329963D01*
D02*
G37*
G36*
X229000Y302000D02*
X78927D01*
X78586Y303270D01*
X80540Y304398D01*
X82402Y306260D01*
X83719Y308540D01*
X84400Y311084D01*
Y313717D01*
X83719Y316260D01*
X82402Y318540D01*
X80540Y320402D01*
X78260Y321718D01*
X75717Y322400D01*
X73084D01*
X70540Y321718D01*
X68260Y320402D01*
X66398Y318540D01*
X65082Y316260D01*
X64400Y313717D01*
Y311084D01*
X65082Y308540D01*
X66398Y306260D01*
X68260Y304398D01*
X70214Y303270D01*
X69873Y302000D01*
X53527D01*
X53186Y303270D01*
X55140Y304398D01*
X57002Y306260D01*
X58319Y308540D01*
X59000Y311084D01*
Y311400D01*
X49000D01*
X39000D01*
Y311084D01*
X39681Y308540D01*
X40998Y306260D01*
X42860Y304398D01*
X44814Y303270D01*
X44473Y302000D01*
X31228D01*
X30333Y302901D01*
X30500Y326750D01*
X107924D01*
X109274Y325401D01*
X109250Y325344D01*
Y323156D01*
X110087Y321134D01*
X111635Y319587D01*
X113656Y318750D01*
X115844D01*
X117865Y319587D01*
X119413Y321134D01*
X120250Y323156D01*
Y325344D01*
X120105Y325694D01*
X120811Y326750D01*
X229000D01*
Y302000D01*
D02*
G37*
G36*
X37587Y247587D02*
X38579Y246924D01*
X39750Y246691D01*
X39750Y246691D01*
X44081D01*
X44250Y246471D01*
X43919Y244814D01*
X42860Y244202D01*
X40998Y242340D01*
X39681Y240060D01*
X39000Y237516D01*
Y234883D01*
X39681Y232340D01*
X40998Y230060D01*
X42860Y228198D01*
X45140Y226882D01*
X47684Y226200D01*
X50317D01*
X52860Y226882D01*
X55140Y228198D01*
X57002Y230060D01*
X58319Y232340D01*
X59000Y234883D01*
Y237516D01*
X58319Y240060D01*
X57002Y242340D01*
X55140Y244202D01*
X54081Y244814D01*
X53750Y246471D01*
X53919Y246691D01*
X69481D01*
X69650Y246471D01*
X69319Y244814D01*
X68260Y244202D01*
X66398Y242340D01*
X65082Y240060D01*
X64400Y237516D01*
Y234883D01*
X65082Y232340D01*
X66398Y230060D01*
X68260Y228198D01*
X70540Y226882D01*
X73084Y226200D01*
X75717D01*
X78260Y226882D01*
X80540Y228198D01*
X82402Y230060D01*
X83719Y232340D01*
X84400Y234883D01*
Y237516D01*
X83719Y240060D01*
X82402Y242340D01*
X80540Y244202D01*
X79481Y244814D01*
X79150Y246471D01*
X79319Y246691D01*
X118233D01*
X149691Y215233D01*
Y84767D01*
X113487Y48563D01*
X112824Y47571D01*
X112591Y46400D01*
X112591Y46400D01*
Y29598D01*
X110355Y28672D01*
X108329Y27117D01*
X107059Y27426D01*
Y63500D01*
X107059Y63500D01*
X106826Y64671D01*
X106163Y65663D01*
X106163Y65663D01*
X50683Y121143D01*
X51169Y122316D01*
X78625D01*
X78625Y122316D01*
X79795Y122549D01*
X80788Y123212D01*
X135913Y178337D01*
X135913Y178337D01*
X136576Y179329D01*
X136809Y180500D01*
Y186578D01*
X136809Y186578D01*
X136576Y187749D01*
X135913Y188741D01*
X132491Y192163D01*
X131499Y192826D01*
X130328Y193059D01*
X130328Y193059D01*
X128145D01*
X128011Y193734D01*
X127099Y195099D01*
X125735Y196011D01*
X124125Y196331D01*
X119875D01*
X118265Y196011D01*
X116901Y195099D01*
X115989Y193734D01*
X115669Y192125D01*
Y187875D01*
X115989Y186266D01*
X116901Y184901D01*
X118265Y183989D01*
X119875Y183669D01*
X124125D01*
X125735Y183989D01*
X127099Y184901D01*
X128011Y186266D01*
X128030Y186364D01*
X129377Y186625D01*
X130691Y185311D01*
Y181767D01*
X77358Y128434D01*
X43392D01*
X15809Y156017D01*
Y267706D01*
X16982Y268192D01*
X37587Y247587D01*
D02*
G37*
G36*
X39962Y123212D02*
X44837Y118337D01*
X44837Y118337D01*
X100941Y62233D01*
Y24446D01*
X99671Y24193D01*
X99422Y24795D01*
X97739Y26989D01*
X95545Y28672D01*
X92991Y29730D01*
X91250Y29959D01*
Y18000D01*
Y6041D01*
X92991Y6270D01*
X95545Y7328D01*
X97739Y9011D01*
X99162Y10866D01*
X100334Y11160D01*
X100769Y11138D01*
X100941Y11000D01*
X101174Y9829D01*
X101837Y8837D01*
X106855Y3819D01*
X106329Y2549D01*
X42500D01*
X42500Y2549D01*
X42499Y2549D01*
X42221D01*
X37626Y2910D01*
X37320Y2951D01*
X32465Y4116D01*
X27757Y6066D01*
X23501Y8675D01*
X23256Y8863D01*
X19751Y11856D01*
X19356Y12251D01*
X16362Y15756D01*
X16175Y16001D01*
X13566Y20257D01*
X11616Y24965D01*
X10451Y29820D01*
X10410Y30126D01*
X10125Y33750D01*
X10049Y35000D01*
X10049Y35000D01*
X10049Y36248D01*
Y151329D01*
X11319Y151855D01*
X39962Y123212D01*
D02*
G37*
G36*
X169191Y213483D02*
Y73767D01*
X138887Y43463D01*
X138224Y42471D01*
X137991Y41300D01*
X137991Y41300D01*
Y29598D01*
X135755Y28672D01*
X133561Y26989D01*
X131878Y24795D01*
X130820Y22241D01*
X130459Y19500D01*
Y16500D01*
X130820Y13759D01*
X131878Y11205D01*
X132934Y9829D01*
X132308Y8559D01*
X124392D01*
X123766Y9829D01*
X124822Y11205D01*
X125880Y13759D01*
X126241Y16500D01*
Y19500D01*
X125880Y22241D01*
X124822Y24795D01*
X123139Y26989D01*
X120945Y28672D01*
X118709Y29598D01*
Y45133D01*
X154913Y81337D01*
X154913Y81337D01*
X155576Y82330D01*
X155809Y83500D01*
X155809Y83500D01*
Y216500D01*
X155809Y216500D01*
X155576Y217670D01*
X154913Y218663D01*
X154913Y218663D01*
X121663Y251913D01*
X120670Y252576D01*
X119500Y252809D01*
X119500Y252809D01*
X81547D01*
X81021Y254079D01*
X82402Y255460D01*
X83719Y257740D01*
X84400Y260284D01*
Y260600D01*
X74400D01*
Y262600D01*
X84400D01*
Y262917D01*
X83719Y265460D01*
X82402Y267740D01*
X81471Y268671D01*
X81997Y269941D01*
X112733D01*
X169191Y213483D01*
D02*
G37*
%LPC*%
G36*
X158125Y599000D02*
X157000D01*
Y593669D01*
X162331D01*
Y594794D01*
X162011Y596404D01*
X161099Y597768D01*
X159734Y598680D01*
X158125Y599000D01*
D02*
G37*
G36*
X155000D02*
X153875D01*
X152266Y598680D01*
X150901Y597768D01*
X149989Y596404D01*
X149669Y594794D01*
Y593669D01*
X155000D01*
Y599000D01*
D02*
G37*
G36*
X175250D02*
X174125D01*
Y593669D01*
X179456D01*
Y594794D01*
X179136Y596404D01*
X178224Y597768D01*
X176859Y598680D01*
X175250Y599000D01*
D02*
G37*
G36*
X141125D02*
X140000D01*
Y593669D01*
X145331D01*
Y594794D01*
X145011Y596404D01*
X144099Y597768D01*
X142734Y598680D01*
X141125Y599000D01*
D02*
G37*
G36*
X172125D02*
X171000D01*
X169391Y598680D01*
X168026Y597768D01*
X167114Y596404D01*
X166794Y594794D01*
Y593669D01*
X172125D01*
Y599000D01*
D02*
G37*
G36*
X138000D02*
X136875D01*
X135266Y598680D01*
X133901Y597768D01*
X132989Y596404D01*
X132669Y594794D01*
Y593669D01*
X138000D01*
Y599000D01*
D02*
G37*
G36*
X58919Y600150D02*
X58800D01*
Y592650D01*
X66300D01*
Y592769D01*
X65721Y594931D01*
X64602Y596869D01*
X63019Y598452D01*
X61081Y599571D01*
X58919Y600150D01*
D02*
G37*
G36*
X179456Y591669D02*
X174125D01*
Y586338D01*
X175250D01*
X176859Y586659D01*
X178224Y587570D01*
X179136Y588935D01*
X179456Y590544D01*
Y591669D01*
D02*
G37*
G36*
X172125D02*
X166794D01*
Y590544D01*
X167114Y588935D01*
X168026Y587570D01*
X169391Y586659D01*
X171000Y586338D01*
X172125D01*
Y591669D01*
D02*
G37*
G36*
X162331Y591669D02*
X157000D01*
Y586338D01*
X158125D01*
X159734Y586659D01*
X161099Y587570D01*
X162011Y588935D01*
X162331Y590544D01*
Y591669D01*
D02*
G37*
G36*
X155000D02*
X149669D01*
Y590544D01*
X149989Y588935D01*
X150901Y587570D01*
X152266Y586659D01*
X153875Y586338D01*
X155000D01*
Y591669D01*
D02*
G37*
G36*
X145331Y591669D02*
X140000D01*
Y586338D01*
X141125D01*
X142734Y586659D01*
X144099Y587570D01*
X145011Y588935D01*
X145331Y590544D01*
Y591669D01*
D02*
G37*
G36*
X66300Y590650D02*
X58800D01*
Y583150D01*
X58919D01*
X61081Y583729D01*
X63019Y584848D01*
X64602Y586431D01*
X65721Y588369D01*
X66300Y590531D01*
Y590650D01*
D02*
G37*
G36*
X58919Y500150D02*
X58800D01*
Y492650D01*
X66300D01*
Y492769D01*
X65721Y494931D01*
X64602Y496869D01*
X63019Y498452D01*
X61081Y499571D01*
X58919Y500150D01*
D02*
G37*
G36*
X56800D02*
X56681D01*
X54519Y499571D01*
X52581Y498452D01*
X50998Y496869D01*
X49879Y494931D01*
X49300Y492769D01*
Y492650D01*
X56800D01*
Y500150D01*
D02*
G37*
G36*
X212125Y599000D02*
X211000D01*
Y593669D01*
X216331D01*
Y594794D01*
X216011Y596404D01*
X215099Y597768D01*
X213734Y598680D01*
X212125Y599000D01*
D02*
G37*
G36*
X209000D02*
X207875D01*
X206266Y598680D01*
X204901Y597768D01*
X203989Y596404D01*
X203669Y594794D01*
Y593669D01*
X209000D01*
Y599000D01*
D02*
G37*
G36*
X216331Y591669D02*
X211000D01*
Y586338D01*
X212125D01*
X213734Y586659D01*
X215099Y587570D01*
X216011Y588935D01*
X216331Y590544D01*
Y591669D01*
D02*
G37*
G36*
X209000D02*
X203669D01*
Y590544D01*
X203989Y588935D01*
X204901Y587570D01*
X206266Y586659D01*
X207875Y586338D01*
X209000D01*
Y591669D01*
D02*
G37*
G36*
X220500Y559064D02*
X219232Y558811D01*
X218157Y558093D01*
X217843D01*
X216768Y558811D01*
X216500Y558865D01*
Y549750D01*
Y540635D01*
X216768Y540689D01*
X217843Y541407D01*
X218157D01*
X219232Y540689D01*
X220500Y540436D01*
X221768Y540689D01*
X222843Y541407D01*
X223561Y542482D01*
X223814Y543750D01*
Y555750D01*
X223561Y557018D01*
X222843Y558093D01*
X221768Y558811D01*
X220500Y559064D01*
D02*
G37*
G36*
X281125Y521331D02*
X280000D01*
Y516000D01*
X285331D01*
Y517125D01*
X285011Y518735D01*
X284099Y520099D01*
X282735Y521011D01*
X281125Y521331D01*
D02*
G37*
G36*
X278000D02*
X276875D01*
X275266Y521011D01*
X273901Y520099D01*
X272989Y518735D01*
X272669Y517125D01*
Y516000D01*
X278000D01*
Y521331D01*
D02*
G37*
G36*
X285331Y514000D02*
X280000D01*
Y508669D01*
X281125D01*
X282735Y508989D01*
X284099Y509901D01*
X285011Y511265D01*
X285331Y512875D01*
Y514000D01*
D02*
G37*
G36*
X278000D02*
X272669D01*
Y512875D01*
X272989Y511265D01*
X273901Y509901D01*
X275266Y508989D01*
X276875Y508669D01*
X278000D01*
Y514000D01*
D02*
G37*
G36*
X246250Y533314D02*
X234250D01*
X232982Y533061D01*
X231907Y532343D01*
X231189Y531268D01*
X230936Y530000D01*
X231189Y528732D01*
X231346Y528496D01*
X231831Y527500D01*
X231346Y526504D01*
X231189Y526268D01*
X230936Y525000D01*
X231189Y523732D01*
X231907Y522657D01*
Y522343D01*
X231189Y521268D01*
X230936Y520000D01*
X231189Y518732D01*
X231346Y518496D01*
X231831Y517500D01*
X231346Y516504D01*
X231189Y516268D01*
X230936Y515000D01*
X231189Y513732D01*
X231907Y512657D01*
Y512343D01*
X231189Y511268D01*
X231135Y511000D01*
X240250D01*
X249648D01*
X250273Y511941D01*
X258855D01*
X258989Y511265D01*
X259901Y509901D01*
X261266Y508989D01*
X262875Y508669D01*
X267125D01*
X268734Y508989D01*
X270099Y509901D01*
X271011Y511265D01*
X271331Y512875D01*
Y517125D01*
X271011Y518735D01*
X270099Y520099D01*
X269599Y520433D01*
X269475Y521697D01*
X269663Y521884D01*
X270500Y523906D01*
Y526094D01*
X269663Y528116D01*
X268116Y529663D01*
X266094Y530500D01*
X263906D01*
X261884Y529663D01*
X260337Y528116D01*
X259500Y526094D01*
Y523906D01*
X260337Y521884D01*
X260525Y521697D01*
X260401Y520433D01*
X259901Y520099D01*
X258989Y518735D01*
X258855Y518059D01*
X250273D01*
X249430Y519329D01*
X249564Y520000D01*
X249311Y521268D01*
X248593Y522343D01*
Y522657D01*
X249311Y523732D01*
X249564Y525000D01*
X249311Y526268D01*
X249154Y526504D01*
X248669Y527500D01*
X249154Y528496D01*
X249311Y528732D01*
X249564Y530000D01*
X249311Y531268D01*
X248593Y532343D01*
X247518Y533061D01*
X246250Y533314D01*
D02*
G37*
G36*
X281125Y491331D02*
X280000D01*
Y486000D01*
X285331D01*
Y487125D01*
X285011Y488735D01*
X284099Y490099D01*
X282735Y491011D01*
X281125Y491331D01*
D02*
G37*
G36*
X278000D02*
X276875D01*
X275266Y491011D01*
X273901Y490099D01*
X272989Y488735D01*
X272669Y487125D01*
Y486000D01*
X278000D01*
Y491331D01*
D02*
G37*
G36*
X285331Y484000D02*
X280000D01*
Y478669D01*
X281125D01*
X282735Y478989D01*
X284099Y479901D01*
X285011Y481265D01*
X285331Y482875D01*
Y484000D01*
D02*
G37*
G36*
X278000D02*
X272669D01*
Y482875D01*
X272989Y481265D01*
X273901Y479901D01*
X275266Y478989D01*
X276875Y478669D01*
X278000D01*
Y484000D01*
D02*
G37*
G36*
X281125Y461331D02*
X280000D01*
Y456000D01*
X285331D01*
Y457125D01*
X285011Y458735D01*
X284099Y460099D01*
X282735Y461011D01*
X281125Y461331D01*
D02*
G37*
G36*
X278000D02*
X276875D01*
X275266Y461011D01*
X273901Y460099D01*
X272989Y458735D01*
X272669Y457125D01*
Y456000D01*
X278000D01*
Y461331D01*
D02*
G37*
G36*
X285331Y454000D02*
X280000D01*
Y448669D01*
X281125D01*
X282735Y448989D01*
X284099Y449901D01*
X285011Y451265D01*
X285331Y452875D01*
Y454000D01*
D02*
G37*
G36*
X278000D02*
X272669D01*
Y452875D01*
X272989Y451265D01*
X273901Y449901D01*
X275266Y448989D01*
X276875Y448669D01*
X278000D01*
Y454000D01*
D02*
G37*
G36*
X220500Y444564D02*
X219232Y444311D01*
X218157Y443593D01*
X217843D01*
X216768Y444311D01*
X216500Y444365D01*
Y435250D01*
Y425852D01*
X217441Y425227D01*
Y414244D01*
X216266Y414011D01*
X214901Y413099D01*
X213989Y411735D01*
X213669Y410125D01*
Y405875D01*
X213989Y404266D01*
X214901Y402901D01*
X216266Y401989D01*
X217875Y401669D01*
X222125D01*
X223734Y401989D01*
X225099Y402901D01*
X226011Y404266D01*
X226044Y404431D01*
X227790D01*
X228885Y403337D01*
X230906Y402500D01*
X233094D01*
X235116Y403337D01*
X236663Y404884D01*
X237500Y406906D01*
Y409094D01*
X236663Y411115D01*
X235116Y412663D01*
X233094Y413500D01*
X230906D01*
X228885Y412663D01*
X227790Y411569D01*
X226044D01*
X226011Y411735D01*
X225099Y413099D01*
X223734Y414011D01*
X223559Y414046D01*
Y427978D01*
X223561Y427982D01*
X223814Y429250D01*
Y441250D01*
X223561Y442518D01*
X222843Y443593D01*
X221768Y444311D01*
X220500Y444564D01*
D02*
G37*
G36*
X156094Y471500D02*
X153906D01*
X151884Y470663D01*
X150337Y469115D01*
X149500Y467094D01*
Y464906D01*
X149596Y464673D01*
X148925Y463094D01*
X147885Y462663D01*
X146337Y461115D01*
X145500Y459094D01*
Y456906D01*
X145222Y456490D01*
X143896D01*
X141874Y455652D01*
X140327Y454105D01*
X139490Y452084D01*
Y449896D01*
X140327Y447874D01*
X141874Y446327D01*
X142346Y446132D01*
Y442051D01*
X142186Y441250D01*
Y429250D01*
X142439Y427982D01*
X143157Y426907D01*
X144232Y426189D01*
X145500Y425936D01*
X146768Y426189D01*
X147843Y426907D01*
X148157D01*
X149232Y426189D01*
X150500Y425936D01*
X151768Y426189D01*
X152004Y426346D01*
X153000Y426831D01*
X153996Y426346D01*
X154232Y426189D01*
X155500Y425936D01*
X156768Y426189D01*
X157843Y426907D01*
X158157D01*
X159232Y426189D01*
X160500Y425936D01*
X161768Y426189D01*
X162843Y426907D01*
X163157D01*
X164232Y426189D01*
X165500Y425936D01*
X166768Y426189D01*
X167843Y426907D01*
X168157D01*
X169232Y426189D01*
X170500Y425936D01*
X171768Y426189D01*
X172843Y426907D01*
X173157D01*
X174232Y426189D01*
X175500Y425936D01*
X176768Y426189D01*
X177843Y426907D01*
X178157D01*
X179232Y426189D01*
X180500Y425936D01*
X181768Y426189D01*
X182843Y426907D01*
X183157D01*
X184232Y426189D01*
X185500Y425936D01*
X186768Y426189D01*
X187843Y426907D01*
X188157D01*
X189232Y426189D01*
X190500Y425936D01*
X191768Y426189D01*
X192843Y426907D01*
X193157D01*
X194232Y426189D01*
X195500Y425936D01*
X196267Y426089D01*
X197537Y425291D01*
Y414065D01*
X197265Y414011D01*
X195901Y413099D01*
X194989Y411735D01*
X194669Y410125D01*
Y405875D01*
X194989Y404266D01*
X195901Y402901D01*
X197265Y401989D01*
X198875Y401669D01*
X203125D01*
X204734Y401989D01*
X206099Y402901D01*
X207011Y404266D01*
X207331Y405875D01*
Y410125D01*
X207011Y411735D01*
X206099Y413099D01*
X204734Y414011D01*
X203654Y414226D01*
Y425163D01*
X204924Y426051D01*
X205500Y425936D01*
X206768Y426189D01*
X207843Y426907D01*
X208157D01*
X209232Y426189D01*
X210500Y425936D01*
X211768Y426189D01*
X212843Y426907D01*
X213157D01*
X214232Y426189D01*
X214500Y426135D01*
Y435250D01*
Y444365D01*
X214232Y444311D01*
X213157Y443593D01*
X212843D01*
X211768Y444311D01*
X210500Y444564D01*
X209232Y444311D01*
X208157Y443593D01*
X207843D01*
X206768Y444311D01*
X205500Y444564D01*
X204232Y444311D01*
X203157Y443593D01*
X202843D01*
X201768Y444311D01*
X200500Y444564D01*
X199232Y444311D01*
X198157Y443593D01*
X197843D01*
X196768Y444311D01*
X195500Y444564D01*
X194232Y444311D01*
X193157Y443593D01*
X192843D01*
X191768Y444311D01*
X190500Y444564D01*
X189232Y444311D01*
X188157Y443593D01*
X187843D01*
X186768Y444311D01*
X185500Y444564D01*
X184232Y444311D01*
X183157Y443593D01*
X182843D01*
X181768Y444311D01*
X180500Y444564D01*
X179232Y444311D01*
X178157Y443593D01*
X177843D01*
X176768Y444311D01*
X175500Y444564D01*
X174232Y444311D01*
X173157Y443593D01*
X172843D01*
X171768Y444311D01*
X170500Y444564D01*
X169232Y444311D01*
X168157Y443593D01*
X167843D01*
X166768Y444311D01*
X165500Y444564D01*
X164829Y444430D01*
X163559Y445273D01*
Y459500D01*
X163559Y459500D01*
X163326Y460671D01*
X162663Y461663D01*
X162663Y461663D01*
X160184Y464142D01*
X160500Y464906D01*
Y467094D01*
X159663Y469115D01*
X158116Y470663D01*
X156094Y471500D01*
D02*
G37*
G36*
X222125Y400331D02*
X221000D01*
Y395000D01*
X226331D01*
Y396125D01*
X226011Y397734D01*
X225099Y399099D01*
X223734Y400011D01*
X222125Y400331D01*
D02*
G37*
G36*
X219000D02*
X217875D01*
X216266Y400011D01*
X214901Y399099D01*
X213989Y397734D01*
X213669Y396125D01*
Y395000D01*
X219000D01*
Y400331D01*
D02*
G37*
G36*
X226331Y393000D02*
X221000D01*
Y387669D01*
X222125D01*
X223734Y387989D01*
X225099Y388901D01*
X226011Y390266D01*
X226331Y391875D01*
Y393000D01*
D02*
G37*
G36*
X219000D02*
X213669D01*
Y391875D01*
X213989Y390266D01*
X214901Y388901D01*
X216266Y387989D01*
X217875Y387669D01*
X219000D01*
Y393000D01*
D02*
G37*
G36*
X296000Y250500D02*
X272000D01*
Y229500D01*
X296000D01*
Y250500D01*
D02*
G37*
G36*
X289750Y175622D02*
X285000D01*
Y166000D01*
X296122D01*
Y169250D01*
X295637Y171689D01*
X294256Y173756D01*
X292189Y175137D01*
X289750Y175622D01*
D02*
G37*
G36*
X283000D02*
X278250D01*
X275811Y175137D01*
X273744Y173756D01*
X272363Y171689D01*
X271877Y169250D01*
Y166000D01*
X283000D01*
Y175622D01*
D02*
G37*
G36*
X296122Y164000D02*
X285000D01*
Y154378D01*
X289750D01*
X292189Y154863D01*
X294256Y156244D01*
X295637Y158311D01*
X296122Y160750D01*
Y164000D01*
D02*
G37*
G36*
X283000D02*
X271877D01*
Y160750D01*
X272363Y158311D01*
X273744Y156244D01*
X275811Y154863D01*
X278250Y154378D01*
X283000D01*
Y164000D01*
D02*
G37*
G36*
X284000Y100500D02*
X273000D01*
Y91000D01*
X284000D01*
Y100500D01*
D02*
G37*
G36*
Y89000D02*
X273000D01*
Y79500D01*
X284000D01*
Y89000D01*
D02*
G37*
G36*
X285068Y69384D02*
X283098D01*
X281166Y69000D01*
X279346Y68246D01*
X277708Y67152D01*
X276316Y65759D01*
X275221Y64121D01*
X274467Y62301D01*
X274083Y60369D01*
Y58399D01*
X274467Y56467D01*
X275072Y55009D01*
X273995Y54289D01*
X272749Y55535D01*
X269473Y57724D01*
X265834Y59231D01*
X261970Y60000D01*
X258030D01*
X254166Y59231D01*
X250526Y57724D01*
X247251Y55535D01*
X244465Y52749D01*
X242276Y49474D01*
X240769Y45834D01*
X240000Y41970D01*
Y38030D01*
X240769Y34166D01*
X242276Y30526D01*
X244465Y27251D01*
X247251Y24465D01*
X250526Y22276D01*
X254166Y20769D01*
X258030Y20000D01*
X261970D01*
X265834Y20769D01*
X269473Y22276D01*
X272749Y24465D01*
X275535Y27251D01*
X277724Y30526D01*
X279231Y34166D01*
X280000Y38030D01*
Y41970D01*
X279231Y45834D01*
X277724Y49474D01*
X276923Y50672D01*
X277708Y51617D01*
X279346Y50522D01*
X281166Y49769D01*
X283098Y49384D01*
X285068D01*
X287000Y49769D01*
X288820Y50522D01*
X290458Y51617D01*
X291851Y53010D01*
X292945Y54647D01*
X293699Y56467D01*
X294083Y58399D01*
Y60369D01*
X293699Y62301D01*
X292945Y64121D01*
X291851Y65759D01*
X290458Y67152D01*
X288820Y68246D01*
X287000Y69000D01*
X285068Y69384D01*
D02*
G37*
G36*
X296000Y325500D02*
X272000D01*
Y304500D01*
X279412D01*
Y289900D01*
X251006Y261494D01*
X250011Y260006D01*
X249662Y258250D01*
Y151151D01*
X214006Y115494D01*
X213011Y114006D01*
X212662Y112250D01*
Y30000D01*
X206750D01*
Y6000D01*
X227750D01*
Y30000D01*
X221838D01*
Y110350D01*
X257494Y146006D01*
X258489Y147494D01*
X258838Y149250D01*
Y256350D01*
X287244Y284756D01*
X288239Y286244D01*
X288588Y288000D01*
Y304500D01*
X296000D01*
Y325500D01*
D02*
G37*
G36*
X38919Y480150D02*
X38800D01*
Y472650D01*
X46300D01*
Y472769D01*
X45721Y474931D01*
X44602Y476869D01*
X43019Y478452D01*
X41081Y479571D01*
X38919Y480150D01*
D02*
G37*
G36*
X46300Y470650D02*
X38800D01*
Y463150D01*
X38919D01*
X41081Y463729D01*
X43019Y464848D01*
X44602Y466431D01*
X45721Y468369D01*
X46300Y470531D01*
Y470650D01*
D02*
G37*
G36*
X89000Y461331D02*
X87875D01*
X86265Y461011D01*
X84901Y460099D01*
X83989Y458735D01*
X83669Y457125D01*
Y456000D01*
X89000D01*
Y461331D01*
D02*
G37*
G36*
X58919Y460150D02*
X58800D01*
Y452650D01*
X66300D01*
Y452769D01*
X65721Y454931D01*
X64602Y456869D01*
X63019Y458452D01*
X61081Y459571D01*
X58919Y460150D01*
D02*
G37*
G36*
X56800D02*
X56681D01*
X54519Y459571D01*
X52581Y458452D01*
X50998Y456869D01*
X49879Y454931D01*
X49300Y452769D01*
Y452650D01*
X56800D01*
Y460150D01*
D02*
G37*
G36*
X96331Y454000D02*
X91000D01*
Y448669D01*
X92125D01*
X93735Y448989D01*
X95099Y449901D01*
X96011Y451265D01*
X96331Y452875D01*
Y454000D01*
D02*
G37*
G36*
X89000D02*
X83669D01*
Y452875D01*
X83989Y451265D01*
X84901Y449901D01*
X86265Y448989D01*
X87875Y448669D01*
X89000D01*
Y454000D01*
D02*
G37*
G36*
X66300Y450650D02*
X58800D01*
Y443150D01*
X58919D01*
X61081Y443729D01*
X63019Y444848D01*
X64602Y446431D01*
X65721Y448369D01*
X66300Y450531D01*
Y450650D01*
D02*
G37*
G36*
X56800D02*
X49300D01*
Y450531D01*
X49879Y448369D01*
X50998Y446431D01*
X52581Y444848D01*
X54519Y443729D01*
X56681Y443150D01*
X56800D01*
Y450650D01*
D02*
G37*
G36*
X41050Y440253D02*
X38800D01*
Y432650D01*
X46403D01*
Y434900D01*
X45995Y436948D01*
X44835Y438685D01*
X43098Y439845D01*
X41050Y440253D01*
D02*
G37*
G36*
X58919Y440150D02*
X56681D01*
X54519Y439571D01*
X52581Y438452D01*
X50998Y436869D01*
X49879Y434931D01*
X49300Y432769D01*
Y430531D01*
X49879Y428369D01*
X50998Y426431D01*
X52581Y424848D01*
X54519Y423729D01*
X56681Y423150D01*
X58919D01*
X61081Y423729D01*
X63019Y424848D01*
X64602Y426431D01*
X65721Y428369D01*
X66300Y430531D01*
Y432769D01*
X65721Y434931D01*
X64602Y436869D01*
X63019Y438452D01*
X61081Y439571D01*
X58919Y440150D01*
D02*
G37*
G36*
X46403Y430650D02*
X38800D01*
Y423047D01*
X41050D01*
X43098Y423455D01*
X44835Y424615D01*
X45995Y426352D01*
X46403Y428400D01*
Y430650D01*
D02*
G37*
G36*
X75717Y398600D02*
X75400D01*
Y389600D01*
X84400D01*
Y389916D01*
X83719Y392460D01*
X82402Y394740D01*
X80540Y396602D01*
X78260Y397919D01*
X75717Y398600D01*
D02*
G37*
G36*
X73400D02*
X73084D01*
X70540Y397919D01*
X68260Y396602D01*
X66398Y394740D01*
X65082Y392460D01*
X64400Y389916D01*
Y389600D01*
X73400D01*
Y398600D01*
D02*
G37*
G36*
X84400Y387600D02*
X75400D01*
Y378600D01*
X75717D01*
X78260Y379282D01*
X80540Y380598D01*
X82402Y382460D01*
X83719Y384740D01*
X84400Y387284D01*
Y387600D01*
D02*
G37*
G36*
X73400D02*
X64400D01*
Y387284D01*
X65082Y384740D01*
X66398Y382460D01*
X68260Y380598D01*
X70540Y379282D01*
X73084Y378600D01*
X73400D01*
Y387600D01*
D02*
G37*
G36*
X50317Y398600D02*
X47684D01*
X45140Y397919D01*
X42860Y396602D01*
X40998Y394740D01*
X39681Y392460D01*
X39000Y389916D01*
Y387284D01*
X39681Y384740D01*
X40998Y382460D01*
X42860Y380598D01*
X45140Y379282D01*
X47684Y378600D01*
X50317D01*
X52860Y379282D01*
X55140Y380598D01*
X57002Y382460D01*
X58319Y384740D01*
X59000Y387284D01*
Y389916D01*
X58319Y392460D01*
X57002Y394740D01*
X55140Y396602D01*
X52860Y397919D01*
X50317Y398600D01*
D02*
G37*
G36*
Y322400D02*
X50000D01*
Y313400D01*
X59000D01*
Y313717D01*
X58319Y316260D01*
X57002Y318540D01*
X55140Y320402D01*
X52860Y321718D01*
X50317Y322400D01*
D02*
G37*
G36*
X48000D02*
X47684D01*
X45140Y321718D01*
X42860Y320402D01*
X40998Y318540D01*
X39681Y316260D01*
X39000Y313717D01*
Y313400D01*
X48000D01*
Y322400D01*
D02*
G37*
G36*
X116594Y240250D02*
X114406D01*
X112385Y239413D01*
X110837Y237866D01*
X110000Y235844D01*
Y233656D01*
X110837Y231635D01*
X112385Y230087D01*
X114406Y229250D01*
X116594D01*
X118616Y230087D01*
X118976Y230448D01*
X126982Y222442D01*
X126899Y221760D01*
X125971Y221163D01*
X125539Y221049D01*
X124125Y221331D01*
X119875D01*
X118265Y221011D01*
X116901Y220099D01*
X115989Y218734D01*
X115669Y217125D01*
Y212875D01*
X115989Y211266D01*
X116901Y209901D01*
X118265Y208989D01*
X119875Y208669D01*
X124125D01*
X125735Y208989D01*
X127099Y209901D01*
X128011Y211266D01*
X128250Y211941D01*
X129420Y212174D01*
X130413Y212837D01*
X132780Y215204D01*
X132780Y215204D01*
X133443Y216196D01*
X133676Y217367D01*
Y223133D01*
X133443Y224304D01*
X132780Y225296D01*
X132780Y225296D01*
X122009Y236067D01*
X121017Y236730D01*
X120599Y236813D01*
X120163Y237866D01*
X118616Y239413D01*
X116594Y240250D01*
D02*
G37*
G36*
X75717Y220800D02*
X75400D01*
Y211800D01*
X84400D01*
Y212117D01*
X83719Y214660D01*
X82402Y216940D01*
X80540Y218802D01*
X78260Y220119D01*
X75717Y220800D01*
D02*
G37*
G36*
X73400D02*
X73084D01*
X70540Y220119D01*
X68260Y218802D01*
X66398Y216940D01*
X65082Y214660D01*
X64400Y212117D01*
Y211800D01*
X73400D01*
Y220800D01*
D02*
G37*
G36*
X110125Y221331D02*
X105875D01*
X104265Y221011D01*
X102901Y220099D01*
X101989Y218734D01*
X101905Y218309D01*
X100000D01*
X98829Y218076D01*
X97837Y217413D01*
X95087Y214663D01*
X94424Y213671D01*
X94191Y212500D01*
X94191Y212500D01*
Y198780D01*
Y190000D01*
Y177219D01*
X93087Y176115D01*
X92250Y174094D01*
Y171906D01*
X93087Y169884D01*
X94635Y168337D01*
X96656Y167500D01*
X98844D01*
X100865Y168337D01*
X102413Y169884D01*
X103250Y171906D01*
Y174094D01*
X102413Y176115D01*
X100865Y177663D01*
X100309Y177893D01*
Y186941D01*
X101855D01*
X101989Y186266D01*
X102901Y184901D01*
X104265Y183989D01*
X105875Y183669D01*
X110125D01*
X111735Y183989D01*
X113099Y184901D01*
X114011Y186266D01*
X114331Y187875D01*
Y192125D01*
X114011Y193734D01*
X113099Y195099D01*
X111735Y196011D01*
X110125Y196331D01*
X105875D01*
X104265Y196011D01*
X102901Y195099D01*
X101989Y193734D01*
X101855Y193059D01*
X100309D01*
Y198780D01*
Y210359D01*
X100915Y210862D01*
X102440Y210590D01*
X102901Y209901D01*
X104265Y208989D01*
X105875Y208669D01*
X110125D01*
X111735Y208989D01*
X113099Y209901D01*
X114011Y211266D01*
X114331Y212875D01*
Y217125D01*
X114011Y218734D01*
X113099Y220099D01*
X111735Y221011D01*
X110125Y221331D01*
D02*
G37*
G36*
X84400Y209800D02*
X75400D01*
Y200800D01*
X75717D01*
X78260Y201481D01*
X80540Y202798D01*
X82402Y204660D01*
X83719Y206940D01*
X84400Y209484D01*
Y209800D01*
D02*
G37*
G36*
X73400D02*
X64400D01*
Y209484D01*
X65082Y206940D01*
X66398Y204660D01*
X68260Y202798D01*
X70540Y201481D01*
X73084Y200800D01*
X73400D01*
Y209800D01*
D02*
G37*
G36*
X50317Y220800D02*
X47684D01*
X45140Y220119D01*
X42860Y218802D01*
X40998Y216940D01*
X39681Y214660D01*
X39000Y212117D01*
Y209484D01*
X39681Y206940D01*
X40998Y204660D01*
X42860Y202798D01*
X45140Y201481D01*
X47684Y200800D01*
X50317D01*
X52860Y201481D01*
X55140Y202798D01*
X57002Y204660D01*
X58319Y206940D01*
X59000Y209484D01*
Y212117D01*
X58319Y214660D01*
X57002Y216940D01*
X55140Y218802D01*
X52860Y220119D01*
X50317Y220800D01*
D02*
G37*
G36*
X75717Y195400D02*
X73084D01*
X70540Y194718D01*
X68260Y193402D01*
X66398Y191540D01*
X65082Y189260D01*
X64400Y186716D01*
Y184083D01*
X65082Y181540D01*
X66398Y179260D01*
X68260Y177398D01*
X70540Y176082D01*
X73084Y175400D01*
X75717D01*
X78260Y176082D01*
X80540Y177398D01*
X82402Y179260D01*
X83719Y181540D01*
X84400Y184083D01*
Y186716D01*
X83719Y189260D01*
X82402Y191540D01*
X80540Y193402D01*
X78260Y194718D01*
X75717Y195400D01*
D02*
G37*
G36*
X50317D02*
X47684D01*
X45140Y194718D01*
X42860Y193402D01*
X40998Y191540D01*
X39681Y189260D01*
X39000Y186716D01*
Y184083D01*
X39681Y181540D01*
X40998Y179260D01*
X42860Y177398D01*
X45140Y176082D01*
X47684Y175400D01*
X50317D01*
X52860Y176082D01*
X55140Y177398D01*
X57002Y179260D01*
X58319Y181540D01*
X59000Y184083D01*
Y186716D01*
X58319Y189260D01*
X57002Y191540D01*
X55140Y193402D01*
X52860Y194718D01*
X50317Y195400D01*
D02*
G37*
G36*
X75717Y170000D02*
X75400D01*
Y161000D01*
X84400D01*
Y161317D01*
X83719Y163860D01*
X82402Y166140D01*
X80540Y168002D01*
X78260Y169319D01*
X75717Y170000D01*
D02*
G37*
G36*
X73400D02*
X73084D01*
X70540Y169319D01*
X68260Y168002D01*
X66398Y166140D01*
X65082Y163860D01*
X64400Y161317D01*
Y161000D01*
X73400D01*
Y170000D01*
D02*
G37*
G36*
X84400Y159000D02*
X75400D01*
Y150000D01*
X75717D01*
X78260Y150681D01*
X80540Y151998D01*
X82402Y153860D01*
X83719Y156140D01*
X84400Y158684D01*
Y159000D01*
D02*
G37*
G36*
X73400D02*
X64400D01*
Y158684D01*
X65082Y156140D01*
X66398Y153860D01*
X68260Y151998D01*
X70540Y150681D01*
X73084Y150000D01*
X73400D01*
Y159000D01*
D02*
G37*
G36*
X53000Y170117D02*
X45000D01*
X42659Y169652D01*
X40674Y168326D01*
X39348Y166341D01*
X38883Y164000D01*
Y156000D01*
X39348Y153659D01*
X40674Y151674D01*
X42659Y150348D01*
X45000Y149882D01*
X53000D01*
X55341Y150348D01*
X57326Y151674D01*
X58652Y153659D01*
X59117Y156000D01*
Y164000D01*
X58652Y166341D01*
X57326Y168326D01*
X55341Y169652D01*
X53000Y170117D01*
D02*
G37*
G36*
X49470Y60000D02*
X45530D01*
X41666Y59231D01*
X38026Y57724D01*
X34751Y55535D01*
X31965Y52749D01*
X29776Y49474D01*
X28269Y45834D01*
X27500Y41970D01*
Y38030D01*
X28269Y34166D01*
X29776Y30526D01*
X31965Y27251D01*
X34751Y24465D01*
X38026Y22276D01*
X41666Y20769D01*
X45530Y20000D01*
X49470D01*
X53334Y20769D01*
X56974Y22276D01*
X60249Y24465D01*
X63035Y27251D01*
X65224Y30526D01*
X66731Y34166D01*
X67500Y38030D01*
Y41970D01*
X66731Y45834D01*
X65224Y49474D01*
X63035Y52749D01*
X60249Y55535D01*
X56974Y57724D01*
X53334Y59231D01*
X49470Y60000D01*
D02*
G37*
G36*
X89250Y29959D02*
X87509Y29730D01*
X84955Y28672D01*
X82761Y26989D01*
X81078Y24795D01*
X80020Y22241D01*
X79659Y19500D01*
Y19000D01*
X89250D01*
Y29959D01*
D02*
G37*
G36*
Y17000D02*
X79659D01*
Y16500D01*
X80020Y13759D01*
X81078Y11205D01*
X82761Y9011D01*
X84955Y7328D01*
X87509Y6270D01*
X89250Y6041D01*
Y17000D01*
D02*
G37*
%LPD*%
D12*
X105000Y536000D02*
X152000D01*
X155500Y565493D02*
Y578169D01*
X156000Y578669D01*
X155500Y549750D02*
Y565493D01*
Y539500D02*
Y549750D01*
X152000Y536000D02*
X155500Y539500D01*
X296500Y364985D02*
Y455500D01*
X270000Y467000D02*
X285000D01*
X296500Y455500D01*
X265000Y472000D02*
X270000Y467000D01*
X265000Y472000D02*
Y485000D01*
X240250Y455000D02*
X265000D01*
X173125Y571125D02*
Y578669D01*
X165500Y563500D02*
X173125Y571125D01*
X165500Y549750D02*
Y563500D01*
X187000Y561565D02*
Y612000D01*
X178000Y621000D02*
X187000Y612000D01*
Y561565D02*
X190404Y558161D01*
X139000Y570000D02*
X145500Y563500D01*
Y549750D02*
Y563500D01*
X139000Y570000D02*
Y578669D01*
X265228Y333714D02*
X296500Y364985D01*
X265000Y485000D02*
Y500000D01*
X265228Y298228D02*
Y333714D01*
X233000Y266000D02*
X265228Y298228D01*
X240250Y485000D02*
X265000D01*
X205500Y535500D02*
Y549750D01*
X202174Y532174D02*
X205500Y535500D01*
X167829Y532174D02*
X202174D01*
X226575Y480000D02*
X240250D01*
X223885Y481337D02*
X225238D01*
X226575Y480000D01*
X229330Y474904D02*
X240154D01*
X224263Y469837D02*
X229330Y474904D01*
X223790Y469837D02*
X224263D01*
X240154Y474904D02*
X240250Y475000D01*
X201000Y569406D02*
X201094Y569500D01*
X201000Y560500D02*
Y569406D01*
X200500Y560000D02*
X201000Y560500D01*
X195000Y563000D02*
X195404Y562596D01*
Y549846D02*
Y562596D01*
Y549846D02*
X195500Y549750D01*
X200500D02*
Y560000D01*
X190404Y549846D02*
X190500Y549750D01*
X190404Y549846D02*
Y558161D01*
X210500Y564993D02*
X212000Y566493D01*
X210000Y578669D02*
X212000Y576669D01*
X210500Y549750D02*
Y564993D01*
X212000Y566493D02*
Y576669D01*
X47150Y621000D02*
X178000D01*
X155000Y465000D02*
X160500Y459500D01*
X155000Y465000D02*
Y466000D01*
X151000Y456808D02*
X155500Y452308D01*
X151000Y456808D02*
Y458000D01*
X144990Y450990D02*
X145404Y450575D01*
X155500Y435250D02*
Y452308D01*
X145404Y435346D02*
Y450575D01*
X37800Y491650D02*
X48800Y480650D01*
X77823D01*
X93473Y465000D02*
X125750D01*
X77823Y480650D02*
X93473Y465000D01*
X145404Y435346D02*
X145500Y435250D01*
X240250Y515000D02*
X265000D01*
X160500Y435250D02*
Y459500D01*
X104000Y455000D02*
X125750D01*
X220000Y408000D02*
X220500Y408500D01*
Y435250D01*
X209805Y351195D02*
X217263Y343737D01*
X209805Y351195D02*
Y370195D01*
X217263Y343737D02*
X243478Y369953D01*
X215500Y267485D02*
X235000Y286985D01*
X217263Y343737D02*
X235000Y326000D01*
Y286985D02*
Y326000D01*
X201000Y379000D02*
Y394000D01*
Y379000D02*
X209805Y370195D01*
X200500Y435250D02*
X200596Y435154D01*
Y408404D02*
Y435154D01*
Y408404D02*
X201000Y408000D01*
X279000Y500000D02*
X279500Y499500D01*
X291500D01*
X191850Y18000D02*
Y200100D01*
X115450Y276500D02*
X191850Y200100D01*
X141050Y41300D02*
X172250Y72500D01*
X141050Y18000D02*
Y41300D01*
X115650Y18000D02*
Y46400D01*
X152750Y83500D01*
X47000Y120500D02*
X104000Y63500D01*
Y11000D02*
X109500Y5500D01*
X104000Y11000D02*
Y63500D01*
X215500Y219500D02*
Y267485D01*
X97250Y173500D02*
Y190000D01*
Y173500D02*
X97750Y173000D01*
X172250Y72500D02*
Y214750D01*
X39500Y276500D02*
X115450D01*
X38050Y273000D02*
X114000D01*
X172250Y214750D01*
X152750Y83500D02*
Y216500D01*
X39750Y249750D02*
X119500D01*
X152750Y216500D01*
X116346Y233904D02*
X119846D01*
X115500Y234750D02*
X116346Y233904D01*
X119846D02*
X130617Y223133D01*
X42125Y125375D02*
X47000Y120500D01*
X12750Y154750D02*
X42125Y125375D01*
X78625D01*
X47000Y120500D02*
X47000D01*
X97250Y190000D02*
Y197780D01*
Y190000D02*
Y198780D01*
Y197780D02*
Y198780D01*
X98250Y190000D02*
X108000D01*
X97250Y198780D02*
Y212500D01*
X100000Y215250D01*
X128250Y215000D02*
X130617Y217367D01*
Y223133D01*
X122000Y215000D02*
X128250D01*
X100000Y215250D02*
X107750D01*
X108000Y215000D01*
X133750Y180500D02*
Y186578D01*
X122000Y190000D02*
X130328D01*
X133750Y186578D01*
X78625Y125375D02*
X133750Y180500D01*
X243478Y369953D02*
X267712D01*
X207500Y211500D02*
X215500Y219500D01*
X28800Y366500D02*
Y497050D01*
X87750Y351250D02*
X114750Y324250D01*
X28800Y366500D02*
X44050Y351250D01*
X25300Y290700D02*
Y511878D01*
X17500Y272000D02*
Y564750D01*
X21800Y289250D02*
Y515650D01*
X44050Y351250D02*
X87750D01*
X138250Y593000D02*
X138375Y593125D01*
X47177Y553755D02*
X54072Y560650D01*
X37800Y551650D02*
X39905Y553755D01*
X47177D01*
X54072Y560650D02*
X68150D01*
X12750Y154750D02*
Y302000D01*
X109500Y5500D02*
X153750D01*
X166250Y18000D01*
X167700D01*
X17500Y272000D02*
X39750Y249750D01*
X21800Y289250D02*
X38050Y273000D01*
X25300Y290700D02*
X39500Y276500D01*
X46800Y585800D02*
Y602650D01*
X37800Y611650D02*
X46800Y602650D01*
X37800Y611650D02*
X47150Y621000D01*
X37800Y551650D02*
X38856Y550594D01*
Y543322D02*
Y550594D01*
Y543322D02*
X48800Y533378D01*
X57800Y551650D02*
Y551650D01*
X66800Y527922D02*
Y542650D01*
X57800Y551650D02*
X66800Y542650D01*
X21800Y515650D02*
X37800Y531650D01*
X25300Y511878D02*
X34486Y521064D01*
X33750Y502000D02*
X40878D01*
X28800Y497050D02*
X33750Y502000D01*
X40878D02*
X48750Y509872D01*
X12750Y302000D02*
Y566600D01*
X48750Y509872D02*
Y515328D01*
X55072Y521650D01*
X60528D01*
X66800Y527922D01*
X17500Y564750D02*
X34625Y581875D01*
X43314Y521064D02*
X48800Y526550D01*
Y533378D01*
X34486Y521064D02*
X43314D01*
X42875Y581875D02*
X46800Y585800D01*
X34625Y581875D02*
X42875D01*
X12750Y566600D02*
X37800Y591650D01*
D13*
X171303Y708926D02*
X191655Y688315D01*
X168646Y715852D02*
X171303Y708926D01*
X169756Y715970D02*
X175193Y726171D01*
X162898Y730836D02*
X167752Y735206D01*
X169056Y714784D02*
X169756Y715970D01*
X170461Y730191D02*
X175193Y726171D01*
X162898Y730836D02*
X168646Y715852D01*
X191655Y688315D02*
X192521Y673246D01*
X154487Y692974D02*
X159080Y696207D01*
X157426Y699951D02*
X163711Y707223D01*
X157426Y699951D02*
X159080Y696207D01*
X155686Y704452D02*
X159670Y711264D01*
X163711Y707223D01*
X158111Y729278D02*
X159670Y711264D01*
X158111Y729278D02*
X163365Y736090D01*
X119396Y734337D02*
X121218Y719982D01*
X176791Y737651D02*
X185419D01*
X162574Y743192D02*
X163365Y736090D01*
X165068Y747296D02*
X167752Y735206D01*
X170461Y730191D02*
X189008Y752049D01*
X137182Y719925D02*
X137871Y731928D01*
X147778Y748885D02*
X148873Y728412D01*
X143850Y724255D02*
X148873Y728412D01*
X185419Y737651D02*
X199879Y752578D01*
X132999Y735416D02*
X133702Y746326D01*
X132999Y735416D02*
X137871Y731928D01*
X148234Y740362D02*
X152222Y743192D01*
X143850Y724255D02*
X146391Y713747D01*
X151533Y761159D02*
X152222Y743192D01*
X121218Y719982D02*
X126299Y719694D01*
X113799Y681214D02*
X137182Y719925D01*
X133227Y706126D02*
X146391Y713747D01*
X148816Y707338D01*
X126299Y719694D02*
X133227Y706126D01*
X148816Y707338D02*
X151471Y709359D01*
X155686Y704452D01*
X113799Y681214D02*
X127569Y658091D01*
X173371Y652554D02*
X192521Y673246D01*
X127569Y658091D02*
X173371Y652554D01*
D14*
X279000Y515000D02*
D03*
X265000D02*
D03*
X108000Y190000D02*
D03*
X122000D02*
D03*
Y215000D02*
D03*
X108000D02*
D03*
X265000Y455000D02*
D03*
X279000D02*
D03*
X90000D02*
D03*
X104000D02*
D03*
X279000Y485000D02*
D03*
X265000D02*
D03*
Y500000D02*
D03*
X279000D02*
D03*
D15*
X156000Y592669D02*
D03*
Y578669D02*
D03*
X220000Y394000D02*
D03*
Y408000D02*
D03*
X210000Y592669D02*
D03*
Y578669D02*
D03*
X139000Y592669D02*
D03*
Y578669D02*
D03*
X173125D02*
D03*
Y592669D02*
D03*
X201000Y408000D02*
D03*
Y394000D02*
D03*
D16*
X240250Y455000D02*
D03*
Y460000D02*
D03*
Y465000D02*
D03*
Y470000D02*
D03*
Y475000D02*
D03*
Y480000D02*
D03*
Y485000D02*
D03*
Y490000D02*
D03*
Y495000D02*
D03*
Y500000D02*
D03*
Y505000D02*
D03*
Y510000D02*
D03*
Y515000D02*
D03*
Y520000D02*
D03*
Y525000D02*
D03*
Y530000D02*
D03*
X125750D02*
D03*
Y525000D02*
D03*
Y520000D02*
D03*
Y515000D02*
D03*
Y510000D02*
D03*
Y505000D02*
D03*
Y500000D02*
D03*
Y495000D02*
D03*
Y490000D02*
D03*
Y485000D02*
D03*
Y480000D02*
D03*
Y475000D02*
D03*
Y470000D02*
D03*
Y465000D02*
D03*
Y460000D02*
D03*
Y455000D02*
D03*
D17*
X220500Y549750D02*
D03*
X215500D02*
D03*
X210500D02*
D03*
X205500D02*
D03*
X200500D02*
D03*
X195500D02*
D03*
X190500D02*
D03*
X185500D02*
D03*
X180500D02*
D03*
X175500D02*
D03*
X170500D02*
D03*
X165500D02*
D03*
X160500D02*
D03*
X155500D02*
D03*
X150500D02*
D03*
X145500D02*
D03*
Y435250D02*
D03*
X150500D02*
D03*
X155500D02*
D03*
X160500D02*
D03*
X165500D02*
D03*
X170500D02*
D03*
X175500D02*
D03*
X180500D02*
D03*
X185500D02*
D03*
X190500D02*
D03*
X195500D02*
D03*
X200500D02*
D03*
X205500D02*
D03*
X210500D02*
D03*
X215500D02*
D03*
X220500D02*
D03*
D32*
X284083Y59384D02*
D03*
X28000Y671000D02*
D03*
D33*
X102000Y577000D02*
X105000Y574000D01*
Y536000D02*
Y574000D01*
X94000Y525000D02*
X105000Y536000D01*
X129803Y583000D02*
X132757Y580046D01*
X129000Y583000D02*
X129803D01*
X132757Y580046D02*
X137624D01*
X139000Y578669D01*
X265000Y525000D02*
X265000Y525000D01*
X265000Y515000D02*
Y525000D01*
X220000Y408000D02*
X232000D01*
X141000Y316000D02*
Y395000D01*
X104000Y432000D02*
X141000Y395000D01*
X104000Y432000D02*
Y442000D01*
X104000Y442000D01*
Y455000D01*
X210000Y578669D02*
X210166Y578835D01*
X221835D01*
X222000Y579000D01*
D34*
X217250Y18000D02*
Y112250D01*
X254250Y149250D01*
Y258250D01*
X284000Y288000D02*
Y315000D01*
X254250Y258250D02*
X284000Y288000D01*
D35*
X102000Y577000D02*
D03*
X284000Y240000D02*
D03*
X285000Y90000D02*
D03*
X284000Y315000D02*
D03*
D36*
X74400Y388600D02*
D03*
X49000D02*
D03*
X74400Y363200D02*
D03*
X49000D02*
D03*
X74400Y337800D02*
D03*
X49000D02*
D03*
X74400Y312400D02*
D03*
X49000D02*
D03*
X74400Y287000D02*
D03*
X49000D02*
D03*
X74400Y261600D02*
D03*
X49000D02*
D03*
X74400Y236200D02*
D03*
X49000D02*
D03*
X74400Y210800D02*
D03*
X49000D02*
D03*
X74400Y185400D02*
D03*
X49000D02*
D03*
X74400Y160000D02*
D03*
D37*
X49000D02*
D03*
D38*
X57800Y431650D02*
D03*
X37800Y451650D02*
D03*
X57800D02*
D03*
X37800Y471650D02*
D03*
X57800D02*
D03*
X37800Y491650D02*
D03*
X57800D02*
D03*
X37800Y511650D02*
D03*
X57800D02*
D03*
X37800Y531650D02*
D03*
X57800D02*
D03*
X37800Y551650D02*
D03*
X57800D02*
D03*
X37800Y571650D02*
D03*
X57800D02*
D03*
X37800Y591650D02*
D03*
X57800D02*
D03*
X37800Y611650D02*
D03*
X57800D02*
D03*
D39*
X37800Y431650D02*
D03*
D40*
X90250Y18000D02*
D03*
X166450D02*
D03*
X191850D02*
D03*
X141050D02*
D03*
X115650D02*
D03*
D41*
X217250D02*
D03*
D42*
X284000Y165000D02*
D03*
D43*
X106096Y527904D02*
D03*
X112000Y548000D02*
D03*
X89000Y538000D02*
D03*
X94000Y525000D02*
D03*
X71250Y574500D02*
D03*
X129000Y583000D02*
D03*
X265000Y525000D02*
D03*
X232000Y408000D02*
D03*
X256000Y107000D02*
D03*
X26000Y76000D02*
D03*
X124000Y135000D02*
D03*
X139000Y274000D02*
D03*
X141000Y417000D02*
D03*
X85000Y635000D02*
D03*
X209000Y633000D02*
D03*
X169034Y523760D02*
D03*
X167829Y532174D02*
D03*
X223885Y481337D02*
D03*
X223790Y469837D02*
D03*
X154250Y497750D02*
D03*
X201094Y569500D02*
D03*
X195000Y563000D02*
D03*
X137000Y559828D02*
D03*
X222000Y579000D02*
D03*
X155000Y466000D02*
D03*
X151000Y458000D02*
D03*
X144990Y450990D02*
D03*
X280000Y406000D02*
D03*
X291500Y499500D02*
D03*
X292901Y291836D02*
D03*
X280000Y368000D02*
D03*
X246302Y446665D02*
D03*
X293000Y580000D02*
D03*
X252000Y609750D02*
D03*
X276750Y604250D02*
D03*
X84000Y590250D02*
D03*
X226609Y157324D02*
D03*
X286250Y16000D02*
D03*
X25000Y12500D02*
D03*
X132008Y38935D02*
D03*
X68250Y133000D02*
D03*
X70000Y114250D02*
D03*
X18750Y131000D02*
D03*
X31250Y162250D02*
D03*
Y238000D02*
D03*
X97750Y173000D02*
D03*
X142750Y186750D02*
D03*
X182500Y190000D02*
D03*
X162000Y181250D02*
D03*
X265750Y209000D02*
D03*
X206500Y228250D02*
D03*
X221500Y265000D02*
D03*
X216000Y293250D02*
D03*
X268500Y291250D02*
D03*
X250500Y294500D02*
D03*
X203500Y339000D02*
D03*
X103603Y292693D02*
D03*
X174750Y290250D02*
D03*
X98322Y362108D02*
D03*
X112750Y401250D02*
D03*
X174000Y366000D02*
D03*
X175000Y387000D02*
D03*
X72500Y549500D02*
D03*
X25000Y532750D02*
D03*
X81750Y612250D02*
D03*
X168500Y640000D02*
D03*
X292750D02*
D03*
X14500Y641000D02*
D03*
X291000Y351000D02*
D03*
X233000Y266000D02*
D03*
X267712Y369953D02*
D03*
X225000Y323000D02*
D03*
X215000Y307000D02*
D03*
X225000D02*
D03*
X215000Y323000D02*
D03*
X114750Y324250D02*
D03*
X71750Y506000D02*
D03*
X81250Y410250D02*
D03*
X68150Y560650D02*
D03*
X115500Y234750D02*
D03*
X207500Y211500D02*
D03*
X292000Y557000D02*
D03*
M02*
