M48
;Layer_Color=9474304
;FILE_FORMAT=4:4
METRIC,LZ
;TYPE=PLATED
T1F00S00C0.3000
T2F00S00C0.9000
T3F00S00C1.0000
T4F00S00C1.1000
T5F00S00C3.5000
%
T01
X00025Y000125
X00026Y00076
X0001875Y00131
X0003125Y0016225
X0006825Y00133
X0007Y0011425
X00124Y00135
X0009775Y00173
X001155Y0023475
X0003125Y00238
X00132008Y00038935
X0014275Y0018675
X00162Y0018125
X001825Y0019
X002075Y002115
X002065Y0022825
X0026575Y00209
X00226609Y00157324
X00256Y00107
X0028625Y00016
X00292901Y00291836
X002685Y0029125
X002505Y002945
X00216Y0029325
X00215Y00307
X00225
X00225Y00323
X00215Y00323
X002035Y00339
X00174Y00366
X00175Y00387
X00141Y00417
X0014499Y0045099
X00151Y00458
X00155Y00466
X0015425Y0049775
X00169034Y0052376
X00167829Y00532174
X00195Y00563
X00201094Y005695
X00222Y00579
X00252Y0060975
X0027675Y0060425
X00293Y0058
X00292Y00557
X002915Y004995
X00265Y00525
X00223885Y00481337
X0022379Y00469837
X00246302Y00446665
X00232Y00408
X0028Y00406
Y00368
X00267712Y00369953
X00291Y00351
X00233Y00266
X002215Y00265
X0017475Y0029025
X00139Y00274
X00137Y00559828
X001685Y0064
X00209Y00633
X0029275Y0064
X00085Y00635
X0008175Y0061225
X00084Y0059025
X0007125Y005745
X0006815Y0056065
X000725Y005495
X00089Y00538
X00094Y00525
X00106096Y00527904
X00112Y00548
X00129Y00583
X0007175Y00506
X00025Y0053275
X000145Y00641
X0008125Y0041025
X0011275Y0040125
X00098322Y00362108
X0011475Y0032425
X00103603Y00292693
T02
X000378Y0043165
X000578
Y0045165
Y0047165
X000378
Y0045165
Y0049165
X000578
Y0051165
Y0053165
X000378
Y0051165
Y0055165
Y0057165
X000578
Y0055165
Y0059165
Y0061165
X000378
Y0059165
T03
X00049Y0016
Y001854
Y002108
Y002362
X000744
Y002108
Y001854
Y0016
Y002616
Y00287
Y003124
Y003378
Y003632
Y003886
X00049
Y003632
Y003378
Y003124
Y00287
Y002616
T04
X0009025Y00018
X0011565
X0014105
X0016645
X0019185
X0021725
X00285Y0009
X00284Y00165
Y0024
Y00315
X00102Y00577
T05
X000475Y0004
X0026
X000475Y0073
X0026
M30
