G04*
G04 #@! TF.GenerationSoftware,Altium Limited,Altium Designer,23.3.1 (30)*
G04*
G04 Layer_Color=8421504*
%FSLAX44Y44*%
%MOMM*%
G71*
G04*
G04 #@! TF.SameCoordinates,ECDC02AA-1032-42BF-8C78-3195C1E34F5D*
G04*
G04*
G04 #@! TF.FilePolarity,Positive*
G04*
G01*
G75*
G04:AMPARAMS|DCode=14|XSize=0.85mm|YSize=0.85mm|CornerRadius=0.2125mm|HoleSize=0mm|Usage=FLASHONLY|Rotation=90.000|XOffset=0mm|YOffset=0mm|HoleType=Round|Shape=RoundedRectangle|*
%AMROUNDEDRECTD14*
21,1,0.8500,0.4250,0,0,90.0*
21,1,0.4250,0.8500,0,0,90.0*
1,1,0.4250,0.2125,0.2125*
1,1,0.4250,0.2125,-0.2125*
1,1,0.4250,-0.2125,-0.2125*
1,1,0.4250,-0.2125,0.2125*
%
%ADD14ROUNDEDRECTD14*%
G04:AMPARAMS|DCode=15|XSize=0.85mm|YSize=0.85mm|CornerRadius=0.2125mm|HoleSize=0mm|Usage=FLASHONLY|Rotation=0.000|XOffset=0mm|YOffset=0mm|HoleType=Round|Shape=RoundedRectangle|*
%AMROUNDEDRECTD15*
21,1,0.8500,0.4250,0,0,0.0*
21,1,0.4250,0.8500,0,0,0.0*
1,1,0.4250,0.2125,-0.2125*
1,1,0.4250,-0.2125,-0.2125*
1,1,0.4250,-0.2125,0.2125*
1,1,0.4250,0.2125,0.2125*
%
%ADD15ROUNDEDRECTD15*%
%ADD16O,1.4500X0.2500*%
%ADD17O,0.2500X1.4500*%
D14*
X279000Y515000D02*
D03*
X265000D02*
D03*
X108000Y190000D02*
D03*
X122000D02*
D03*
Y215000D02*
D03*
X108000D02*
D03*
X265000Y455000D02*
D03*
X279000D02*
D03*
X90000D02*
D03*
X104000D02*
D03*
X279000Y485000D02*
D03*
X265000D02*
D03*
Y500000D02*
D03*
X279000D02*
D03*
D15*
X156000Y592669D02*
D03*
Y578669D02*
D03*
X220000Y394000D02*
D03*
Y408000D02*
D03*
X210000Y592669D02*
D03*
Y578669D02*
D03*
X139000Y592669D02*
D03*
Y578669D02*
D03*
X173125D02*
D03*
Y592669D02*
D03*
X201000Y408000D02*
D03*
Y394000D02*
D03*
D16*
X240250Y455000D02*
D03*
Y460000D02*
D03*
Y465000D02*
D03*
Y470000D02*
D03*
Y475000D02*
D03*
Y480000D02*
D03*
Y485000D02*
D03*
Y490000D02*
D03*
Y495000D02*
D03*
Y500000D02*
D03*
Y505000D02*
D03*
Y510000D02*
D03*
Y515000D02*
D03*
Y520000D02*
D03*
Y525000D02*
D03*
Y530000D02*
D03*
X125750D02*
D03*
Y525000D02*
D03*
Y520000D02*
D03*
Y515000D02*
D03*
Y510000D02*
D03*
Y505000D02*
D03*
Y500000D02*
D03*
Y495000D02*
D03*
Y490000D02*
D03*
Y485000D02*
D03*
Y480000D02*
D03*
Y475000D02*
D03*
Y470000D02*
D03*
Y465000D02*
D03*
Y460000D02*
D03*
Y455000D02*
D03*
D17*
X220500Y549750D02*
D03*
X215500D02*
D03*
X210500D02*
D03*
X205500D02*
D03*
X200500D02*
D03*
X195500D02*
D03*
X190500D02*
D03*
X185500D02*
D03*
X180500D02*
D03*
X175500D02*
D03*
X170500D02*
D03*
X165500D02*
D03*
X160500D02*
D03*
X155500D02*
D03*
X150500D02*
D03*
X145500D02*
D03*
Y435250D02*
D03*
X150500D02*
D03*
X155500D02*
D03*
X160500D02*
D03*
X165500D02*
D03*
X170500D02*
D03*
X175500D02*
D03*
X180500D02*
D03*
X185500D02*
D03*
X190500D02*
D03*
X195500D02*
D03*
X200500D02*
D03*
X205500D02*
D03*
X210500D02*
D03*
X215500D02*
D03*
X220500D02*
D03*
M02*
