G04*
G04 #@! TF.GenerationSoftware,Altium Limited,Altium Designer,23.3.1 (30)*
G04*
G04 Layer_Physical_Order=2*
G04 Layer_Color=36540*
%FSLAX44Y44*%
%MOMM*%
G71*
G04*
G04 #@! TF.SameCoordinates,CE036B66-C370-4B77-A0BB-D4AF881507E5*
G04*
G04*
G04 #@! TF.FilePolarity,Positive*
G04*
G01*
G75*
%ADD63C,1.3000*%
%ADD75O,1.7000X2.0000*%
%ADD76R,1.7000X2.0000*%
%ADD77C,1.6000*%
G04:AMPARAMS|DCode=78|XSize=1.6mm|YSize=1.6mm|CornerRadius=0.4mm|HoleSize=0mm|Usage=FLASHONLY|Rotation=180.000|XOffset=0mm|YOffset=0mm|HoleType=Round|Shape=RoundedRectangle|*
%AMROUNDEDRECTD78*
21,1,1.6000,0.8000,0,0,180.0*
21,1,0.8000,1.6000,0,0,180.0*
1,1,0.8000,-0.4000,0.4000*
1,1,0.8000,0.4000,0.4000*
1,1,0.8000,0.4000,-0.4000*
1,1,0.8000,-0.4000,-0.4000*
%
%ADD78ROUNDEDRECTD78*%
G04:AMPARAMS|DCode=79|XSize=1.7mm|YSize=2mm|CornerRadius=0.425mm|HoleSize=0mm|Usage=FLASHONLY|Rotation=90.000|XOffset=0mm|YOffset=0mm|HoleType=Round|Shape=RoundedRectangle|*
%AMROUNDEDRECTD79*
21,1,1.7000,1.1500,0,0,90.0*
21,1,0.8500,2.0000,0,0,90.0*
1,1,0.8500,0.5750,0.4250*
1,1,0.8500,0.5750,-0.4250*
1,1,0.8500,-0.5750,-0.4250*
1,1,0.8500,-0.5750,0.4250*
%
%ADD79ROUNDEDRECTD79*%
G04:AMPARAMS|DCode=80|XSize=1.3mm|YSize=1.3mm|CornerRadius=0.325mm|HoleSize=0mm|Usage=FLASHONLY|Rotation=90.000|XOffset=0mm|YOffset=0mm|HoleType=Round|Shape=RoundedRectangle|*
%AMROUNDEDRECTD80*
21,1,1.3000,0.6500,0,0,90.0*
21,1,0.6500,1.3000,0,0,90.0*
1,1,0.6500,0.3250,0.3250*
1,1,0.6500,0.3250,-0.3250*
1,1,0.6500,-0.3250,-0.3250*
1,1,0.6500,-0.3250,0.3250*
%
%ADD80ROUNDEDRECTD80*%
G04:AMPARAMS|DCode=81|XSize=1.6mm|YSize=1.6mm|CornerRadius=0.4mm|HoleSize=0mm|Usage=FLASHONLY|Rotation=90.000|XOffset=0mm|YOffset=0mm|HoleType=Round|Shape=RoundedRectangle|*
%AMROUNDEDRECTD81*
21,1,1.6000,0.8000,0,0,90.0*
21,1,0.8000,1.6000,0,0,90.0*
1,1,0.8000,0.4000,0.4000*
1,1,0.8000,0.4000,-0.4000*
1,1,0.8000,-0.4000,-0.4000*
1,1,0.8000,-0.4000,0.4000*
%
%ADD81ROUNDEDRECTD81*%
%ADD82C,1.5080*%
%ADD83C,2.5500*%
%ADD85O,1.8000X1.0000*%
%ADD86C,1.2000*%
%ADD87O,1.5240X1.9050*%
%ADD88C,0.7000*%
G36*
X35000Y767451D02*
X1083740Y767451D01*
X1085000Y767451D01*
X1086239Y767375D01*
X1089875Y767089D01*
X1090180Y767049D01*
X1095035Y765884D01*
X1099743Y763934D01*
X1103999Y761325D01*
X1104245Y761137D01*
X1107749Y758143D01*
X1108143Y757749D01*
X1111137Y754244D01*
X1111325Y753999D01*
X1113934Y749742D01*
X1115884Y745035D01*
X1117049Y740181D01*
X1117089Y739874D01*
X1117374Y736254D01*
X1117451Y735000D01*
X1117451Y735000D01*
X1117451Y733757D01*
Y36237D01*
X1117451Y35000D01*
X1117451D01*
X1117375Y33758D01*
X1117089Y30126D01*
X1117049Y29819D01*
X1115884Y24965D01*
X1113934Y20257D01*
X1111325Y16001D01*
X1111137Y15755D01*
X1108144Y12251D01*
X1107749Y11856D01*
X1104244Y8863D01*
X1103999Y8675D01*
X1099742Y6066D01*
X1095035Y4116D01*
X1090180Y2951D01*
X1089874Y2910D01*
X1085279Y2549D01*
X1085001D01*
X1085000Y2549D01*
X35000Y2549D01*
X34999Y2549D01*
X34721D01*
X30125Y2911D01*
X29820Y2951D01*
X24965Y4116D01*
X20257Y6066D01*
X16000Y8675D01*
X15756Y8862D01*
X12250Y11857D01*
X11857Y12250D01*
X8862Y15756D01*
X8675Y16001D01*
X6066Y20257D01*
X4116Y24965D01*
X2951Y29820D01*
X2910Y30126D01*
X2624Y33761D01*
X2549Y35000D01*
X2549Y36270D01*
X2549Y735000D01*
X2549Y735000D01*
X2624Y736239D01*
X2910Y739875D01*
X2951Y740180D01*
X4116Y745035D01*
X6066Y749743D01*
X8675Y753999D01*
X8863Y754244D01*
X11857Y757750D01*
X12250Y758143D01*
X15756Y761137D01*
X16001Y761325D01*
X20257Y763934D01*
X24965Y765884D01*
X29819Y767049D01*
X30127Y767089D01*
X34721Y767451D01*
X34999D01*
X35000Y767451D01*
D02*
G37*
%LPC*%
G36*
X993700Y739523D02*
Y731700D01*
X1001523D01*
X1001442Y732310D01*
X1000435Y734743D01*
X998832Y736832D01*
X996743Y738435D01*
X994311Y739443D01*
X993700Y739523D01*
D02*
G37*
G36*
X968300D02*
Y731700D01*
X976123D01*
X976042Y732310D01*
X975035Y734743D01*
X973432Y736832D01*
X971343Y738435D01*
X968911Y739443D01*
X968300Y739523D01*
D02*
G37*
G36*
X942900D02*
Y731700D01*
X950723D01*
X950642Y732310D01*
X949635Y734743D01*
X948032Y736832D01*
X945943Y738435D01*
X943511Y739443D01*
X942900Y739523D01*
D02*
G37*
G36*
X1019100D02*
Y731700D01*
X1026923D01*
X1026842Y732310D01*
X1025835Y734743D01*
X1024232Y736832D01*
X1022143Y738435D01*
X1019710Y739443D01*
X1019100Y739523D01*
D02*
G37*
G36*
X989700D02*
X989089Y739443D01*
X986657Y738435D01*
X984568Y736832D01*
X982965Y734743D01*
X981957Y732310D01*
X981877Y731700D01*
X989700D01*
Y739523D01*
D02*
G37*
G36*
X964300D02*
X963689Y739443D01*
X961257Y738435D01*
X959168Y736832D01*
X957565Y734743D01*
X956557Y732310D01*
X956477Y731700D01*
X964300D01*
Y739523D01*
D02*
G37*
G36*
X938900D02*
X938289Y739443D01*
X935857Y738435D01*
X933768Y736832D01*
X932165Y734743D01*
X931157Y732310D01*
X931077Y731700D01*
X938900D01*
Y739523D01*
D02*
G37*
G36*
X1015100D02*
X1014489Y739443D01*
X1012057Y738435D01*
X1009968Y736832D01*
X1008365Y734743D01*
X1007357Y732310D01*
X1007277Y731700D01*
X1015100D01*
Y739523D01*
D02*
G37*
G36*
X870000Y750122D02*
X867510Y749794D01*
X865189Y748833D01*
X863196Y747304D01*
X861667Y745311D01*
X860705Y742990D01*
X860378Y740500D01*
X860705Y738009D01*
X861667Y735689D01*
X863196Y733696D01*
X865189Y732167D01*
X867510Y731206D01*
X870000Y730878D01*
X872490Y731206D01*
X874811Y732167D01*
X876804Y733696D01*
X878333Y735689D01*
X879294Y738009D01*
X879622Y740500D01*
X879294Y742990D01*
X878333Y745311D01*
X876804Y747304D01*
X874811Y748833D01*
X872490Y749794D01*
X870000Y750122D01*
D02*
G37*
G36*
X760000D02*
X757510Y749794D01*
X755189Y748833D01*
X753196Y747304D01*
X751667Y745311D01*
X750706Y742990D01*
X750378Y740500D01*
X750706Y738009D01*
X751667Y735689D01*
X753196Y733696D01*
X755189Y732167D01*
X757510Y731206D01*
X760000Y730878D01*
X762490Y731206D01*
X764811Y732167D01*
X766804Y733696D01*
X768333Y735689D01*
X769294Y738009D01*
X769622Y740500D01*
X769294Y742990D01*
X768333Y745311D01*
X766804Y747304D01*
X764811Y748833D01*
X762490Y749794D01*
X760000Y750122D01*
D02*
G37*
G36*
X360000D02*
X357509Y749794D01*
X355189Y748833D01*
X353196Y747304D01*
X351667Y745311D01*
X350705Y742990D01*
X350378Y740500D01*
X350705Y738009D01*
X351667Y735689D01*
X353196Y733696D01*
X355189Y732167D01*
X357509Y731206D01*
X360000Y730878D01*
X362490Y731206D01*
X364811Y732167D01*
X366804Y733696D01*
X368333Y735689D01*
X369294Y738009D01*
X369622Y740500D01*
X369294Y742990D01*
X368333Y745311D01*
X366804Y747304D01*
X364811Y748833D01*
X362490Y749794D01*
X360000Y750122D01*
D02*
G37*
G36*
X250000D02*
X247510Y749794D01*
X245189Y748833D01*
X243196Y747304D01*
X241667Y745311D01*
X240706Y742990D01*
X240378Y740500D01*
X240706Y738009D01*
X241667Y735689D01*
X243196Y733696D01*
X245189Y732167D01*
X247510Y731206D01*
X250000Y730878D01*
X252491Y731206D01*
X254811Y732167D01*
X256804Y733696D01*
X258333Y735689D01*
X259294Y738009D01*
X259622Y740500D01*
X259294Y742990D01*
X258333Y745311D01*
X256804Y747304D01*
X254811Y748833D01*
X252491Y749794D01*
X250000Y750122D01*
D02*
G37*
G36*
X1026923Y727700D02*
X1019100D01*
Y719877D01*
X1019710Y719957D01*
X1022143Y720965D01*
X1024232Y722568D01*
X1025835Y724657D01*
X1026842Y727089D01*
X1026923Y727700D01*
D02*
G37*
G36*
X1001523D02*
X993700D01*
Y719877D01*
X994311Y719957D01*
X996743Y720965D01*
X998832Y722568D01*
X1000435Y724657D01*
X1001442Y727089D01*
X1001523Y727700D01*
D02*
G37*
G36*
X976123D02*
X968300D01*
Y719877D01*
X968911Y719957D01*
X971343Y720965D01*
X973432Y722568D01*
X975035Y724657D01*
X976042Y727089D01*
X976123Y727700D01*
D02*
G37*
G36*
X950723D02*
X942900D01*
Y719877D01*
X943511Y719957D01*
X945943Y720965D01*
X948032Y722568D01*
X949635Y724657D01*
X950642Y727089D01*
X950723Y727700D01*
D02*
G37*
G36*
X1015100D02*
X1007277D01*
X1007357Y727089D01*
X1008365Y724657D01*
X1009968Y722568D01*
X1012057Y720965D01*
X1014489Y719957D01*
X1015100Y719877D01*
Y727700D01*
D02*
G37*
G36*
X989700D02*
X981877D01*
X981957Y727089D01*
X982965Y724657D01*
X984568Y722568D01*
X986657Y720965D01*
X989089Y719957D01*
X989700Y719877D01*
Y727700D01*
D02*
G37*
G36*
X964300D02*
X956477D01*
X956557Y727089D01*
X957565Y724657D01*
X959168Y722568D01*
X961257Y720965D01*
X963689Y719957D01*
X964300Y719877D01*
Y727700D01*
D02*
G37*
G36*
X938900D02*
X931077D01*
X931157Y727089D01*
X932165Y724657D01*
X933768Y722568D01*
X935857Y720965D01*
X938289Y719957D01*
X938900Y719877D01*
Y727700D01*
D02*
G37*
G36*
X1085000Y755097D02*
X1081079Y754711D01*
X1077309Y753567D01*
X1073835Y751710D01*
X1070789Y749211D01*
X1068290Y746165D01*
X1066433Y742691D01*
X1065289Y738921D01*
X1064903Y735000D01*
X1065289Y731079D01*
X1066433Y727309D01*
X1068290Y723835D01*
X1070789Y720789D01*
X1073835Y718290D01*
X1077309Y716433D01*
X1081079Y715289D01*
X1085000Y714903D01*
X1088921Y715289D01*
X1092691Y716433D01*
X1096165Y718290D01*
X1099211Y720789D01*
X1101710Y723835D01*
X1103567Y727309D01*
X1104711Y731079D01*
X1105097Y735000D01*
X1104711Y738921D01*
X1103567Y742691D01*
X1101710Y746165D01*
X1099211Y749211D01*
X1096165Y751710D01*
X1092691Y753567D01*
X1088921Y754711D01*
X1085000Y755097D01*
D02*
G37*
G36*
X35000D02*
X31079Y754711D01*
X27309Y753567D01*
X23835Y751710D01*
X20789Y749211D01*
X18290Y746165D01*
X16433Y742691D01*
X15289Y738921D01*
X14903Y735000D01*
X15289Y731079D01*
X16433Y727309D01*
X18290Y723835D01*
X20789Y720789D01*
X23835Y718290D01*
X27309Y716433D01*
X31079Y715289D01*
X35000Y714903D01*
X38921Y715289D01*
X42691Y716433D01*
X46165Y718290D01*
X49211Y720789D01*
X51710Y723835D01*
X53567Y727309D01*
X54711Y731079D01*
X55097Y735000D01*
X54711Y738921D01*
X53567Y742691D01*
X51710Y746165D01*
X49211Y749211D01*
X46165Y751710D01*
X42691Y753567D01*
X38921Y754711D01*
X35000Y755097D01*
D02*
G37*
G36*
X991700Y714386D02*
X989089Y714043D01*
X986657Y713035D01*
X984568Y711432D01*
X982965Y709343D01*
X981957Y706910D01*
X981614Y704300D01*
X981957Y701690D01*
X982965Y699257D01*
X984568Y697168D01*
X986657Y695565D01*
X989089Y694557D01*
X991700Y694214D01*
X994311Y694557D01*
X996743Y695565D01*
X998832Y697168D01*
X1000435Y699257D01*
X1001442Y701690D01*
X1001786Y704300D01*
X1001442Y706910D01*
X1000435Y709343D01*
X998832Y711432D01*
X996743Y713035D01*
X994311Y714043D01*
X991700Y714386D01*
D02*
G37*
G36*
X966300D02*
X963689Y714043D01*
X961257Y713035D01*
X959168Y711432D01*
X957565Y709343D01*
X956557Y706910D01*
X956214Y704300D01*
X956557Y701690D01*
X957565Y699257D01*
X959168Y697168D01*
X961257Y695565D01*
X963689Y694557D01*
X966300Y694214D01*
X968911Y694557D01*
X971343Y695565D01*
X973432Y697168D01*
X975035Y699257D01*
X976042Y701690D01*
X976386Y704300D01*
X976042Y706910D01*
X975035Y709343D01*
X973432Y711432D01*
X971343Y713035D01*
X968911Y714043D01*
X966300Y714386D01*
D02*
G37*
G36*
X940900D02*
X938289Y714043D01*
X935857Y713035D01*
X933768Y711432D01*
X932165Y709343D01*
X931157Y706910D01*
X930814Y704300D01*
X931157Y701690D01*
X932165Y699257D01*
X933768Y697168D01*
X935857Y695565D01*
X938289Y694557D01*
X940900Y694214D01*
X943511Y694557D01*
X945943Y695565D01*
X948032Y697168D01*
X949635Y699257D01*
X950642Y701690D01*
X950986Y704300D01*
X950642Y706910D01*
X949635Y709343D01*
X948032Y711432D01*
X945943Y713035D01*
X943511Y714043D01*
X940900Y714386D01*
D02*
G37*
G36*
X1021100Y714417D02*
X1013100D01*
X1010759Y713952D01*
X1008774Y712626D01*
X1007448Y710641D01*
X1006982Y708300D01*
Y700300D01*
X1007448Y697959D01*
X1008774Y695974D01*
X1010759Y694648D01*
X1013100Y694183D01*
X1021100D01*
X1023441Y694648D01*
X1025426Y695974D01*
X1026752Y697959D01*
X1027217Y700300D01*
Y708300D01*
X1026752Y710641D01*
X1025426Y712626D01*
X1023441Y713952D01*
X1021100Y714417D01*
D02*
G37*
G36*
X179000Y679060D02*
X177000D01*
Y674000D01*
X185748D01*
X185114Y675530D01*
X183992Y676992D01*
X182530Y678114D01*
X180827Y678820D01*
X179000Y679060D01*
D02*
G37*
G36*
X173000D02*
X171000D01*
X169173Y678820D01*
X167470Y678114D01*
X166008Y676992D01*
X164886Y675530D01*
X164252Y674000D01*
X173000D01*
Y679060D01*
D02*
G37*
G36*
X185748Y670000D02*
X177000D01*
Y664940D01*
X179000D01*
X180827Y665180D01*
X182530Y665885D01*
X183992Y667008D01*
X185114Y668470D01*
X185748Y670000D01*
D02*
G37*
G36*
X173000D02*
X164252D01*
X164886Y668470D01*
X166008Y667008D01*
X167470Y665885D01*
X169173Y665180D01*
X171000Y664940D01*
X173000D01*
Y670000D01*
D02*
G37*
G36*
X425750Y670622D02*
X422000D01*
Y662000D01*
X432122D01*
Y664250D01*
X431637Y666689D01*
X430256Y668756D01*
X428189Y670137D01*
X425750Y670622D01*
D02*
G37*
G36*
X725750D02*
X722000D01*
Y662000D01*
X732122D01*
Y664250D01*
X731637Y666689D01*
X730256Y668756D01*
X728189Y670137D01*
X725750Y670622D01*
D02*
G37*
G36*
X418000D02*
X414250D01*
X411811Y670137D01*
X409744Y668756D01*
X408363Y666689D01*
X407878Y664250D01*
Y662000D01*
X418000D01*
Y670622D01*
D02*
G37*
G36*
X718000D02*
X714250D01*
X711811Y670137D01*
X709744Y668756D01*
X708363Y666689D01*
X707878Y664250D01*
Y662000D01*
X718000D01*
Y670622D01*
D02*
G37*
G36*
X732122Y658000D02*
X722000D01*
Y649378D01*
X725750D01*
X728189Y649863D01*
X730256Y651244D01*
X731637Y653311D01*
X732122Y655750D01*
Y658000D01*
D02*
G37*
G36*
X718000D02*
X707878D01*
Y655750D01*
X708363Y653311D01*
X709744Y651244D01*
X711811Y649863D01*
X714250Y649378D01*
X718000D01*
Y658000D01*
D02*
G37*
G36*
X432122D02*
X422000D01*
Y649378D01*
X425750D01*
X428189Y649863D01*
X430256Y651244D01*
X431637Y653311D01*
X432122Y655750D01*
Y658000D01*
D02*
G37*
G36*
X418000D02*
X407878D01*
Y655750D01*
X408363Y653311D01*
X409744Y651244D01*
X411811Y649863D01*
X414250Y649378D01*
X418000D01*
Y658000D01*
D02*
G37*
G36*
X996000Y658608D02*
X993854Y658181D01*
X992035Y656965D01*
X990819Y655146D01*
X990392Y653000D01*
X990819Y650854D01*
X992035Y649035D01*
X993854Y647819D01*
X996000Y647392D01*
X998146Y647819D01*
X999965Y649035D01*
X1001181Y650854D01*
X1001608Y653000D01*
X1001181Y655146D01*
X999965Y656965D01*
X998146Y658181D01*
X996000Y658608D01*
D02*
G37*
G36*
X842000Y655124D02*
Y642500D01*
X854624D01*
X854537Y643391D01*
X853693Y646172D01*
X852324Y648734D01*
X850480Y650980D01*
X848234Y652823D01*
X845672Y654193D01*
X842891Y655037D01*
X842000Y655124D01*
D02*
G37*
G36*
X838000D02*
X837109Y655037D01*
X834328Y654193D01*
X831766Y652823D01*
X829520Y650980D01*
X827676Y648734D01*
X826307Y646172D01*
X825463Y643391D01*
X825376Y642500D01*
X838000D01*
Y655124D01*
D02*
G37*
G36*
X332000D02*
Y642500D01*
X344624D01*
X344537Y643391D01*
X343693Y646172D01*
X342323Y648734D01*
X340480Y650980D01*
X338234Y652823D01*
X335672Y654193D01*
X332892Y655037D01*
X332000Y655124D01*
D02*
G37*
G36*
X328000D02*
X327108Y655037D01*
X324328Y654193D01*
X321766Y652823D01*
X319520Y650980D01*
X317677Y648734D01*
X316307Y646172D01*
X315463Y643391D01*
X315376Y642500D01*
X328000D01*
Y655124D01*
D02*
G37*
G36*
X175000Y658069D02*
X172912Y657794D01*
X170965Y656988D01*
X169294Y655706D01*
X168012Y654035D01*
X167206Y652088D01*
X166931Y650000D01*
X167206Y647912D01*
X168012Y645965D01*
X169294Y644294D01*
X170965Y643012D01*
X172912Y642206D01*
X175000Y641931D01*
X177088Y642206D01*
X179035Y643012D01*
X180706Y644294D01*
X181988Y645965D01*
X182794Y647912D01*
X183069Y650000D01*
X182794Y652088D01*
X181988Y654035D01*
X180706Y655706D01*
X179035Y656988D01*
X177088Y657794D01*
X175000Y658069D01*
D02*
G37*
G36*
X984656Y650608D02*
X982510Y650181D01*
X980690Y648965D01*
X979475Y647146D01*
X979048Y645000D01*
X979475Y642854D01*
X980690Y641035D01*
X982510Y639819D01*
X984656Y639392D01*
X986802Y639819D01*
X988621Y641035D01*
X989837Y642854D01*
X990263Y645000D01*
X989837Y647146D01*
X988621Y648965D01*
X986802Y650181D01*
X984656Y650608D01*
D02*
G37*
G36*
X854624Y638500D02*
X842000D01*
Y625876D01*
X842891Y625963D01*
X845672Y626807D01*
X848234Y628176D01*
X850480Y630020D01*
X852324Y632266D01*
X853693Y634828D01*
X854537Y637608D01*
X854624Y638500D01*
D02*
G37*
G36*
X838000D02*
X825376D01*
X825463Y637608D01*
X826307Y634828D01*
X827676Y632266D01*
X829520Y630020D01*
X831766Y628176D01*
X834328Y626807D01*
X837109Y625963D01*
X838000Y625876D01*
Y638500D01*
D02*
G37*
G36*
X344624D02*
X332000D01*
Y625876D01*
X332892Y625963D01*
X335672Y626807D01*
X338234Y628176D01*
X340480Y630020D01*
X342323Y632266D01*
X343693Y634828D01*
X344537Y637608D01*
X344624Y638500D01*
D02*
G37*
G36*
X328000D02*
X315376D01*
X315463Y637608D01*
X316307Y634828D01*
X317677Y632266D01*
X319520Y630020D01*
X321766Y628176D01*
X324328Y626807D01*
X327108Y625963D01*
X328000Y625876D01*
Y638500D01*
D02*
G37*
G36*
X790000Y655321D02*
X787109Y655037D01*
X784328Y654193D01*
X781766Y652823D01*
X779520Y650980D01*
X777676Y648734D01*
X776307Y646172D01*
X775463Y643391D01*
X775179Y640500D01*
X775463Y637608D01*
X776307Y634828D01*
X777676Y632266D01*
X779520Y630020D01*
X781766Y628176D01*
X784328Y626807D01*
X787109Y625963D01*
X790000Y625679D01*
X792891Y625963D01*
X795672Y626807D01*
X798234Y628176D01*
X800480Y630020D01*
X802324Y632266D01*
X803693Y634828D01*
X804537Y637608D01*
X804821Y640500D01*
X804537Y643391D01*
X803693Y646172D01*
X802324Y648734D01*
X800480Y650980D01*
X798234Y652823D01*
X795672Y654193D01*
X792891Y655037D01*
X790000Y655321D01*
D02*
G37*
G36*
X280000D02*
X277108Y655037D01*
X274328Y654193D01*
X271766Y652823D01*
X269520Y650980D01*
X267677Y648734D01*
X266307Y646172D01*
X265463Y643391D01*
X265179Y640500D01*
X265463Y637608D01*
X266307Y634828D01*
X267677Y632266D01*
X269520Y630020D01*
X271766Y628176D01*
X274328Y626807D01*
X277108Y625963D01*
X280000Y625679D01*
X282892Y625963D01*
X285672Y626807D01*
X288234Y628176D01*
X290480Y630020D01*
X292323Y632266D01*
X293693Y634828D01*
X294537Y637608D01*
X294821Y640500D01*
X294537Y643391D01*
X293693Y646172D01*
X292323Y648734D01*
X290480Y650980D01*
X288234Y652823D01*
X285672Y654193D01*
X282892Y655037D01*
X280000Y655321D01*
D02*
G37*
G36*
X175000Y638069D02*
X172912Y637794D01*
X170965Y636988D01*
X169294Y635706D01*
X168012Y634035D01*
X167206Y632088D01*
X166931Y630000D01*
X167206Y627912D01*
X168012Y625965D01*
X169294Y624294D01*
X170965Y623012D01*
X172912Y622206D01*
X175000Y621931D01*
X177088Y622206D01*
X179035Y623012D01*
X180706Y624294D01*
X181988Y625965D01*
X182794Y627912D01*
X183069Y630000D01*
X182794Y632088D01*
X181988Y634035D01*
X180706Y635706D01*
X179035Y636988D01*
X177088Y637794D01*
X175000Y638069D01*
D02*
G37*
G36*
X933500Y631358D02*
X931354Y630931D01*
X929535Y629715D01*
X928319Y627896D01*
X927892Y625750D01*
X928319Y623604D01*
X929535Y621785D01*
X931354Y620569D01*
X933500Y620142D01*
X935646Y620569D01*
X937465Y621785D01*
X938681Y623604D01*
X939108Y625750D01*
X938681Y627896D01*
X937465Y629715D01*
X935646Y630931D01*
X933500Y631358D01*
D02*
G37*
G36*
X1020250Y629858D02*
X1018104Y629431D01*
X1016285Y628215D01*
X1015069Y626396D01*
X1014642Y624250D01*
X1015069Y622104D01*
X1016285Y620285D01*
X1018104Y619069D01*
X1020250Y618642D01*
X1022396Y619069D01*
X1024215Y620285D01*
X1025431Y622104D01*
X1025858Y624250D01*
X1025431Y626396D01*
X1024215Y628215D01*
X1022396Y629431D01*
X1020250Y629858D01*
D02*
G37*
G36*
X594250Y692340D02*
X594250Y692340D01*
X525250Y692340D01*
X523772D01*
X520874Y691764D01*
X518145Y690633D01*
X515688Y688991D01*
X513599Y686902D01*
X511957Y684445D01*
X510826Y681716D01*
X510250Y678818D01*
X510250Y677340D01*
Y632340D01*
Y630764D01*
X510865Y627673D01*
X512071Y624762D01*
X513822Y622141D01*
X516050Y619912D01*
X518671Y618161D01*
X521583Y616955D01*
X524674Y616340D01*
X526250Y616340D01*
X526250Y616340D01*
X595629D01*
X598333Y616878D01*
X600881Y617934D01*
X603174Y619466D01*
X605124Y621416D01*
X606656Y623709D01*
X607712Y626257D01*
X608250Y628961D01*
Y630340D01*
X608250Y630340D01*
X608250Y678340D01*
X608250Y679719D01*
X607712Y682424D01*
X606656Y684972D01*
X605124Y687265D01*
X603174Y689215D01*
X600881Y690747D01*
X598333Y691802D01*
X595629Y692340D01*
X594250Y692340D01*
X594250Y692340D01*
D02*
G37*
G36*
X933000Y618608D02*
X930854Y618181D01*
X929035Y616965D01*
X927819Y615146D01*
X927392Y613000D01*
X927819Y610854D01*
X929035Y609035D01*
X930854Y607819D01*
X933000Y607392D01*
X935146Y607819D01*
X936965Y609035D01*
X938181Y610854D01*
X938608Y613000D01*
X938181Y615146D01*
X936965Y616965D01*
X935146Y618181D01*
X933000Y618608D01*
D02*
G37*
G36*
X1068200Y620223D02*
X1065981Y619931D01*
X1063913Y619075D01*
X1062138Y617712D01*
X1060775Y615937D01*
X1059919Y613869D01*
X1059627Y611650D01*
X1059919Y609431D01*
X1060775Y607363D01*
X1062138Y605588D01*
X1063913Y604225D01*
X1065981Y603369D01*
X1068200Y603077D01*
X1070419Y603369D01*
X1072487Y604225D01*
X1074262Y605588D01*
X1075625Y607363D01*
X1076481Y609431D01*
X1076773Y611650D01*
X1076481Y613869D01*
X1075625Y615937D01*
X1074262Y617712D01*
X1072487Y619075D01*
X1070419Y619931D01*
X1068200Y620223D01*
D02*
G37*
G36*
X1048200D02*
X1045981Y619931D01*
X1043913Y619075D01*
X1042138Y617712D01*
X1040775Y615937D01*
X1039919Y613869D01*
X1039627Y611650D01*
X1039919Y609431D01*
X1040775Y607363D01*
X1042138Y605588D01*
X1043913Y604225D01*
X1045981Y603369D01*
X1048200Y603077D01*
X1050419Y603369D01*
X1052487Y604225D01*
X1054262Y605588D01*
X1055625Y607363D01*
X1056481Y609431D01*
X1056773Y611650D01*
X1056481Y613869D01*
X1055625Y615937D01*
X1054262Y617712D01*
X1052487Y619075D01*
X1050419Y619931D01*
X1048200Y620223D01*
D02*
G37*
G36*
X175000Y618069D02*
X172912Y617794D01*
X170965Y616988D01*
X169294Y615706D01*
X168012Y614035D01*
X167206Y612088D01*
X166931Y610000D01*
X167206Y607912D01*
X168012Y605965D01*
X169294Y604294D01*
X170965Y603012D01*
X172912Y602206D01*
X175000Y601931D01*
X177088Y602206D01*
X179035Y603012D01*
X180706Y604294D01*
X181988Y605965D01*
X182794Y607912D01*
X183069Y610000D01*
X182794Y612088D01*
X181988Y614035D01*
X180706Y615706D01*
X179035Y616988D01*
X177088Y617794D01*
X175000Y618069D01*
D02*
G37*
G36*
X1050200Y599960D02*
Y593650D01*
X1056510D01*
X1056481Y593869D01*
X1055625Y595937D01*
X1054262Y597712D01*
X1052487Y599075D01*
X1050419Y599931D01*
X1050200Y599960D01*
D02*
G37*
G36*
X1046200Y599960D02*
X1045981Y599931D01*
X1043913Y599075D01*
X1042138Y597712D01*
X1040775Y595937D01*
X1039919Y593869D01*
X1039890Y593650D01*
X1046200D01*
Y599960D01*
D02*
G37*
G36*
X997000Y604608D02*
X994854Y604181D01*
X993035Y602965D01*
X991819Y601146D01*
X991392Y599000D01*
X991819Y596854D01*
X993035Y595035D01*
X994854Y593819D01*
X997000Y593392D01*
X999146Y593819D01*
X1000965Y595035D01*
X1002181Y596854D01*
X1002608Y599000D01*
X1002181Y601146D01*
X1000965Y602965D01*
X999146Y604181D01*
X997000Y604608D01*
D02*
G37*
G36*
X179000Y595060D02*
X177000D01*
Y590000D01*
X185748D01*
X185114Y591530D01*
X183992Y592992D01*
X182530Y594114D01*
X180827Y594820D01*
X179000Y595060D01*
D02*
G37*
G36*
X173000D02*
X171000D01*
X169173Y594820D01*
X167470Y594114D01*
X166008Y592992D01*
X164886Y591530D01*
X164252Y590000D01*
X173000D01*
Y595060D01*
D02*
G37*
G36*
X1046200Y589650D02*
X1039890D01*
X1039919Y589431D01*
X1040775Y587363D01*
X1042138Y585588D01*
X1043913Y584225D01*
X1045981Y583369D01*
X1046200Y583340D01*
Y589650D01*
D02*
G37*
G36*
X1056510D02*
X1050200D01*
Y583340D01*
X1050419Y583369D01*
X1052487Y584225D01*
X1054262Y585588D01*
X1055625Y587363D01*
X1056481Y589431D01*
X1056510Y589650D01*
D02*
G37*
G36*
X1068200Y600223D02*
X1065981Y599931D01*
X1063913Y599075D01*
X1062138Y597712D01*
X1060775Y595937D01*
X1059919Y593869D01*
X1059627Y591650D01*
X1059919Y589431D01*
X1060775Y587363D01*
X1062138Y585588D01*
X1063913Y584225D01*
X1065981Y583369D01*
X1068200Y583077D01*
X1070419Y583369D01*
X1072487Y584225D01*
X1074262Y585588D01*
X1075625Y587363D01*
X1076481Y589431D01*
X1076773Y591650D01*
X1076481Y593869D01*
X1075625Y595937D01*
X1074262Y597712D01*
X1072487Y599075D01*
X1070419Y599931D01*
X1068200Y600223D01*
D02*
G37*
G36*
X185748Y586000D02*
X177000D01*
Y580940D01*
X179000D01*
X180827Y581180D01*
X182530Y581885D01*
X183992Y583008D01*
X185114Y584470D01*
X185748Y586000D01*
D02*
G37*
G36*
X173000D02*
X164252D01*
X164886Y584470D01*
X166008Y583008D01*
X167470Y581885D01*
X169173Y581180D01*
X171000Y580940D01*
X173000D01*
Y586000D01*
D02*
G37*
G36*
X984000Y589608D02*
X981854Y589181D01*
X980035Y587965D01*
X978819Y586146D01*
X978392Y584000D01*
X978819Y581854D01*
X980035Y580035D01*
X981854Y578819D01*
X984000Y578392D01*
X986146Y578819D01*
X987965Y580035D01*
X989181Y581854D01*
X989608Y584000D01*
X989181Y586146D01*
X987965Y587965D01*
X986146Y589181D01*
X984000Y589608D01*
D02*
G37*
G36*
X109000Y580608D02*
X106854Y580181D01*
X105035Y578965D01*
X103819Y577146D01*
X103392Y575000D01*
X103819Y572854D01*
X105035Y571035D01*
X106854Y569819D01*
X109000Y569392D01*
X111146Y569819D01*
X112965Y571035D01*
X114181Y572854D01*
X114608Y575000D01*
X114181Y577146D01*
X112965Y578965D01*
X111146Y580181D01*
X109000Y580608D01*
D02*
G37*
G36*
X1068200Y580223D02*
X1065981Y579931D01*
X1063913Y579075D01*
X1062138Y577712D01*
X1060775Y575937D01*
X1059919Y573869D01*
X1059627Y571650D01*
X1059919Y569431D01*
X1060775Y567363D01*
X1062138Y565588D01*
X1063913Y564225D01*
X1065981Y563369D01*
X1068200Y563077D01*
X1070419Y563369D01*
X1072487Y564225D01*
X1074262Y565588D01*
X1075625Y567363D01*
X1076481Y569431D01*
X1076773Y571650D01*
X1076481Y573869D01*
X1075625Y575937D01*
X1074262Y577712D01*
X1072487Y579075D01*
X1070419Y579931D01*
X1068200Y580223D01*
D02*
G37*
G36*
X1048200D02*
X1045981Y579931D01*
X1043913Y579075D01*
X1042138Y577712D01*
X1040775Y575937D01*
X1039919Y573869D01*
X1039627Y571650D01*
X1039919Y569431D01*
X1040775Y567363D01*
X1042138Y565588D01*
X1043913Y564225D01*
X1045981Y563369D01*
X1048200Y563077D01*
X1050419Y563369D01*
X1052487Y564225D01*
X1054262Y565588D01*
X1055625Y567363D01*
X1056481Y569431D01*
X1056773Y571650D01*
X1056481Y573869D01*
X1055625Y575937D01*
X1054262Y577712D01*
X1052487Y579075D01*
X1050419Y579931D01*
X1048200Y580223D01*
D02*
G37*
G36*
X499000Y562608D02*
X496854Y562181D01*
X495035Y560965D01*
X494635Y560367D01*
X493365D01*
X492965Y560965D01*
X491146Y562181D01*
X489000Y562608D01*
X486854Y562181D01*
X485035Y560965D01*
X483819Y559146D01*
X483392Y557000D01*
X483819Y554854D01*
X485035Y553035D01*
X485633Y552635D01*
Y551365D01*
X485035Y550965D01*
X483819Y549146D01*
X483392Y547000D01*
X483819Y544854D01*
X485035Y543035D01*
X485633Y542635D01*
Y541365D01*
X485035Y540965D01*
X483819Y539146D01*
X483392Y537000D01*
X483819Y534854D01*
X485035Y533035D01*
X485633Y532635D01*
Y531365D01*
X485035Y530965D01*
X483819Y529146D01*
X483392Y527000D01*
X483819Y524854D01*
X485035Y523035D01*
X486854Y521819D01*
X489000Y521392D01*
X491146Y521819D01*
X492965Y523035D01*
X493365Y523633D01*
X494635D01*
X495035Y523035D01*
X496854Y521819D01*
X499000Y521392D01*
X501146Y521819D01*
X502965Y523035D01*
X504181Y524854D01*
X504608Y527000D01*
X504181Y529146D01*
X502965Y530965D01*
X502367Y531365D01*
Y532635D01*
X502965Y533035D01*
X504181Y534854D01*
X504608Y537000D01*
X504181Y539146D01*
X502965Y540965D01*
X502367Y541365D01*
Y542635D01*
X502965Y543035D01*
X504181Y544854D01*
X504608Y547000D01*
X504181Y549146D01*
X502965Y550965D01*
X502367Y551365D01*
Y552635D01*
X502965Y553035D01*
X504181Y554854D01*
X504608Y557000D01*
X504181Y559146D01*
X502965Y560965D01*
X501146Y562181D01*
X499000Y562608D01*
D02*
G37*
G36*
X354000D02*
X351854Y562181D01*
X350035Y560965D01*
X349635Y560367D01*
X348365D01*
X347965Y560965D01*
X346146Y562181D01*
X344000Y562608D01*
X341854Y562181D01*
X340035Y560965D01*
X338819Y559146D01*
X338392Y557000D01*
X338819Y554854D01*
X340035Y553035D01*
X340633Y552635D01*
Y551365D01*
X340035Y550965D01*
X338819Y549146D01*
X338392Y547000D01*
X338819Y544854D01*
X340035Y543035D01*
X340633Y542635D01*
Y541365D01*
X340035Y540965D01*
X338819Y539146D01*
X338392Y537000D01*
X338819Y534854D01*
X340035Y533035D01*
X340633Y532635D01*
Y531365D01*
X340035Y530965D01*
X338819Y529146D01*
X338392Y527000D01*
X338819Y524854D01*
X340035Y523035D01*
X341854Y521819D01*
X344000Y521392D01*
X346146Y521819D01*
X347965Y523035D01*
X348365Y523633D01*
X349635D01*
X350035Y523035D01*
X351854Y521819D01*
X354000Y521392D01*
X356146Y521819D01*
X357965Y523035D01*
X359181Y524854D01*
X359608Y527000D01*
X359181Y529146D01*
X357965Y530965D01*
X357367Y531365D01*
Y532635D01*
X357965Y533035D01*
X359181Y534854D01*
X359608Y537000D01*
X359181Y539146D01*
X357965Y540965D01*
X357367Y541365D01*
Y542635D01*
X357965Y543035D01*
X359181Y544854D01*
X359608Y547000D01*
X359181Y549146D01*
X357965Y550965D01*
X357367Y551365D01*
Y552635D01*
X357965Y553035D01*
X359181Y554854D01*
X359608Y557000D01*
X359181Y559146D01*
X357965Y560965D01*
X356146Y562181D01*
X354000Y562608D01*
D02*
G37*
G36*
X644000Y562608D02*
X641854Y562181D01*
X640035Y560965D01*
X639635Y560367D01*
X638365D01*
X637965Y560965D01*
X636146Y562181D01*
X634000Y562608D01*
X631854Y562181D01*
X630035Y560965D01*
X628819Y559146D01*
X628392Y557000D01*
X628819Y554854D01*
X630035Y553035D01*
X630633Y552635D01*
Y551365D01*
X630035Y550965D01*
X628819Y549146D01*
X628392Y547000D01*
X628819Y544854D01*
X630035Y543035D01*
X630633Y542635D01*
Y541365D01*
X630035Y540965D01*
X628819Y539146D01*
X628392Y537000D01*
X628819Y534854D01*
X630035Y533035D01*
X630633Y532635D01*
Y531365D01*
X630035Y530965D01*
X628819Y529146D01*
X628392Y527000D01*
X628819Y524854D01*
X630035Y523035D01*
X631854Y521819D01*
X634000Y521392D01*
X636146Y521819D01*
X637965Y523035D01*
X638365Y523633D01*
X639635D01*
X640035Y523035D01*
X641854Y521819D01*
X644000Y521392D01*
X646146Y521819D01*
X647965Y523035D01*
X649181Y524854D01*
X649608Y527000D01*
X649181Y529146D01*
X647965Y530965D01*
X647367Y531365D01*
Y532635D01*
X647965Y533035D01*
X649181Y534854D01*
X649608Y537000D01*
X649181Y539146D01*
X647965Y540965D01*
X647367Y541365D01*
Y542635D01*
X647965Y543035D01*
X649181Y544854D01*
X649608Y547000D01*
X649181Y549146D01*
X647965Y550965D01*
X647367Y551365D01*
Y552635D01*
X647965Y553035D01*
X649181Y554854D01*
X649608Y557000D01*
X649181Y559146D01*
X647965Y560965D01*
X646146Y562181D01*
X644000Y562608D01*
D02*
G37*
G36*
X956000Y569858D02*
X953854Y569431D01*
X952035Y568215D01*
X950819Y566396D01*
X950392Y564250D01*
X950819Y562104D01*
X952035Y560285D01*
X953854Y559069D01*
X956000Y558642D01*
X958146Y559069D01*
X959965Y560285D01*
X961181Y562104D01*
X961608Y564250D01*
X961181Y566396D01*
X959965Y568215D01*
X958146Y569431D01*
X956000Y569858D01*
D02*
G37*
G36*
X1020000Y568858D02*
X1017854Y568431D01*
X1016035Y567215D01*
X1014819Y565396D01*
X1014392Y563250D01*
X1014819Y561104D01*
X1016035Y559285D01*
X1017854Y558069D01*
X1020000Y557642D01*
X1022146Y558069D01*
X1023965Y559285D01*
X1025181Y561104D01*
X1025608Y563250D01*
X1025181Y565396D01*
X1023965Y567215D01*
X1022146Y568431D01*
X1020000Y568858D01*
D02*
G37*
G36*
X716000Y578608D02*
X713854Y578181D01*
X712035Y576965D01*
X710819Y575146D01*
X710392Y573000D01*
X710819Y570854D01*
X711823Y569351D01*
X711953Y568500D01*
X711823Y567649D01*
X710819Y566146D01*
X710392Y564000D01*
X710819Y561854D01*
X712035Y560035D01*
Y558965D01*
X710819Y557146D01*
X710392Y555000D01*
X710819Y552854D01*
X712035Y551035D01*
X713854Y549819D01*
X716000Y549392D01*
X718146Y549819D01*
X719965Y551035D01*
X721181Y552854D01*
X721608Y555000D01*
X721181Y557146D01*
X719965Y558965D01*
Y560035D01*
X721181Y561854D01*
X721608Y564000D01*
X721181Y566146D01*
X720177Y567649D01*
X720047Y568500D01*
X720177Y569351D01*
X721181Y570854D01*
X721608Y573000D01*
X721181Y575146D01*
X719965Y576965D01*
X718146Y578181D01*
X716000Y578608D01*
D02*
G37*
G36*
X576000D02*
X573854Y578181D01*
X572035Y576965D01*
X570819Y575146D01*
X570392Y573000D01*
X570819Y570854D01*
X571823Y569351D01*
X571953Y568500D01*
X571823Y567649D01*
X570819Y566146D01*
X570392Y564000D01*
X570819Y561854D01*
X572035Y560035D01*
Y558965D01*
X570819Y557146D01*
X570392Y555000D01*
X570819Y552854D01*
X572035Y551035D01*
X573854Y549819D01*
X576000Y549392D01*
X578146Y549819D01*
X579965Y551035D01*
X581181Y552854D01*
X581608Y555000D01*
X581181Y557146D01*
X579965Y558965D01*
Y560035D01*
X581181Y561854D01*
X581608Y564000D01*
X581181Y566146D01*
X580177Y567649D01*
X580047Y568500D01*
X580177Y569351D01*
X581181Y570854D01*
X581608Y573000D01*
X581181Y575146D01*
X579965Y576965D01*
X578146Y578181D01*
X576000Y578608D01*
D02*
G37*
G36*
X431000D02*
X428854Y578181D01*
X427035Y576965D01*
X425819Y575146D01*
X425392Y573000D01*
X425819Y570854D01*
X427035Y569035D01*
Y567965D01*
X425819Y566146D01*
X425392Y564000D01*
X425819Y561854D01*
X427035Y560035D01*
Y558965D01*
X425819Y557146D01*
X425392Y555000D01*
X425819Y552854D01*
X427035Y551035D01*
X428854Y549819D01*
X431000Y549392D01*
X433146Y549819D01*
X434965Y551035D01*
X436181Y552854D01*
X436608Y555000D01*
X436181Y557146D01*
X434965Y558965D01*
Y560035D01*
X436181Y561854D01*
X436608Y564000D01*
X436181Y566146D01*
X435177Y567649D01*
X435047Y568500D01*
X435177Y569351D01*
X436181Y570854D01*
X436608Y573000D01*
X436181Y575146D01*
X434965Y576965D01*
X433146Y578181D01*
X431000Y578608D01*
D02*
G37*
G36*
X821000Y578608D02*
X818854Y578181D01*
X817035Y576965D01*
X815819Y575146D01*
X815392Y573000D01*
X815819Y570854D01*
X817035Y569035D01*
Y567965D01*
X815819Y566146D01*
X815392Y564000D01*
X815819Y561854D01*
X816823Y560351D01*
X816953Y559500D01*
X816823Y558649D01*
X815819Y557146D01*
X815392Y555000D01*
X815819Y552854D01*
X817035Y551035D01*
X818854Y549819D01*
X821000Y549392D01*
X823146Y549819D01*
X824965Y551035D01*
X826181Y552854D01*
X826608Y555000D01*
X826181Y557146D01*
X825177Y558649D01*
X825047Y559500D01*
X825177Y560351D01*
X826181Y561854D01*
X826608Y564000D01*
X826181Y566146D01*
X824965Y567965D01*
Y569035D01*
X826181Y570854D01*
X826608Y573000D01*
X826181Y575146D01*
X824965Y576965D01*
X823146Y578181D01*
X821000Y578608D01*
D02*
G37*
G36*
X1068200Y560223D02*
X1065981Y559931D01*
X1063913Y559075D01*
X1062138Y557712D01*
X1060775Y555937D01*
X1059919Y553869D01*
X1059627Y551650D01*
X1059919Y549431D01*
X1060775Y547363D01*
X1062138Y545588D01*
X1063913Y544225D01*
X1065981Y543369D01*
X1068200Y543077D01*
X1070419Y543369D01*
X1072487Y544225D01*
X1074262Y545588D01*
X1075625Y547363D01*
X1076481Y549431D01*
X1076773Y551650D01*
X1076481Y553869D01*
X1075625Y555937D01*
X1074262Y557712D01*
X1072487Y559075D01*
X1070419Y559931D01*
X1068200Y560223D01*
D02*
G37*
G36*
X1048200D02*
X1045981Y559931D01*
X1043913Y559075D01*
X1042138Y557712D01*
X1040775Y555937D01*
X1039919Y553869D01*
X1039627Y551650D01*
X1039919Y549431D01*
X1040775Y547363D01*
X1042138Y545588D01*
X1043913Y544225D01*
X1045981Y543369D01*
X1048200Y543077D01*
X1050419Y543369D01*
X1052487Y544225D01*
X1054262Y545588D01*
X1055625Y547363D01*
X1056481Y549431D01*
X1056773Y551650D01*
X1056481Y553869D01*
X1055625Y555937D01*
X1054262Y557712D01*
X1052487Y559075D01*
X1050419Y559931D01*
X1048200Y560223D01*
D02*
G37*
G36*
X1050200Y539960D02*
Y533650D01*
X1056510D01*
X1056481Y533869D01*
X1055625Y535937D01*
X1054262Y537712D01*
X1052487Y539075D01*
X1050419Y539931D01*
X1050200Y539960D01*
D02*
G37*
G36*
X1046200D02*
X1045981Y539931D01*
X1043913Y539075D01*
X1042138Y537712D01*
X1040775Y535937D01*
X1039919Y533869D01*
X1039890Y533650D01*
X1046200D01*
Y539960D01*
D02*
G37*
G36*
X1020000Y540608D02*
X1017854Y540181D01*
X1016035Y538965D01*
X1014819Y537146D01*
X1014392Y535000D01*
X1014819Y532854D01*
X1016035Y531035D01*
X1017854Y529819D01*
X1020000Y529392D01*
X1022146Y529819D01*
X1023965Y531035D01*
X1025181Y532854D01*
X1025608Y535000D01*
X1025181Y537146D01*
X1023965Y538965D01*
X1022146Y540181D01*
X1020000Y540608D01*
D02*
G37*
G36*
X950500Y540108D02*
X948354Y539681D01*
X946535Y538465D01*
X945319Y536646D01*
X944892Y534500D01*
X945319Y532354D01*
X946535Y530535D01*
X948354Y529319D01*
X950500Y528892D01*
X952646Y529319D01*
X954465Y530535D01*
X955681Y532354D01*
X956108Y534500D01*
X955681Y536646D01*
X954465Y538465D01*
X952646Y539681D01*
X950500Y540108D01*
D02*
G37*
G36*
X1046200Y529650D02*
X1039890D01*
X1039919Y529431D01*
X1040775Y527363D01*
X1042138Y525588D01*
X1043913Y524225D01*
X1045981Y523369D01*
X1046200Y523340D01*
Y529650D01*
D02*
G37*
G36*
X1056510D02*
X1050200D01*
Y523340D01*
X1050419Y523369D01*
X1052487Y524225D01*
X1054262Y525588D01*
X1055625Y527363D01*
X1056481Y529431D01*
X1056510Y529650D01*
D02*
G37*
G36*
X1068200Y540223D02*
X1065981Y539931D01*
X1063913Y539075D01*
X1062138Y537712D01*
X1060775Y535937D01*
X1059919Y533869D01*
X1059627Y531650D01*
X1059919Y529431D01*
X1060775Y527363D01*
X1062138Y525588D01*
X1063913Y524225D01*
X1065981Y523369D01*
X1068200Y523077D01*
X1070419Y523369D01*
X1072487Y524225D01*
X1074262Y525588D01*
X1075625Y527363D01*
X1076481Y529431D01*
X1076773Y531650D01*
X1076481Y533869D01*
X1075625Y535937D01*
X1074262Y537712D01*
X1072487Y539075D01*
X1070419Y539931D01*
X1068200Y540223D01*
D02*
G37*
G36*
X121000Y515608D02*
X118854Y515181D01*
X117035Y513965D01*
X115819Y512146D01*
X115392Y510000D01*
X115819Y507854D01*
X117035Y506035D01*
X118854Y504819D01*
X121000Y504392D01*
X123146Y504819D01*
X124965Y506035D01*
X126181Y507854D01*
X126608Y510000D01*
X126181Y512146D01*
X124965Y513965D01*
X123146Y515181D01*
X121000Y515608D01*
D02*
G37*
G36*
X1068200Y520223D02*
X1065981Y519931D01*
X1063913Y519075D01*
X1062138Y517712D01*
X1060775Y515937D01*
X1059919Y513869D01*
X1059627Y511650D01*
X1059919Y509431D01*
X1060775Y507363D01*
X1062138Y505588D01*
X1063913Y504225D01*
X1065981Y503369D01*
X1068200Y503077D01*
X1070419Y503369D01*
X1072487Y504225D01*
X1074262Y505588D01*
X1075625Y507363D01*
X1076481Y509431D01*
X1076773Y511650D01*
X1076481Y513869D01*
X1075625Y515937D01*
X1074262Y517712D01*
X1072487Y519075D01*
X1070419Y519931D01*
X1068200Y520223D01*
D02*
G37*
G36*
X1048200D02*
X1045981Y519931D01*
X1043913Y519075D01*
X1042138Y517712D01*
X1040775Y515937D01*
X1039919Y513869D01*
X1039627Y511650D01*
X1039919Y509431D01*
X1040775Y507363D01*
X1042138Y505588D01*
X1043913Y504225D01*
X1045981Y503369D01*
X1048200Y503077D01*
X1050419Y503369D01*
X1052487Y504225D01*
X1054262Y505588D01*
X1055625Y507363D01*
X1056481Y509431D01*
X1056773Y511650D01*
X1056481Y513869D01*
X1055625Y515937D01*
X1054262Y517712D01*
X1052487Y519075D01*
X1050419Y519931D01*
X1048200Y520223D01*
D02*
G37*
G36*
X886500Y511608D02*
X884354Y511181D01*
X882535Y509965D01*
X881319Y508146D01*
X880892Y506000D01*
X881319Y503854D01*
X882535Y502035D01*
X884354Y500819D01*
X886500Y500392D01*
X888646Y500819D01*
X890465Y502035D01*
X891681Y503854D01*
X892108Y506000D01*
X891681Y508146D01*
X890465Y509965D01*
X888646Y511181D01*
X886500Y511608D01*
D02*
G37*
G36*
X1050200Y499960D02*
Y493650D01*
X1056510D01*
X1056481Y493869D01*
X1055625Y495937D01*
X1054262Y497712D01*
X1052487Y499075D01*
X1050419Y499931D01*
X1050200Y499960D01*
D02*
G37*
G36*
X1046200Y499960D02*
X1045981Y499931D01*
X1043913Y499075D01*
X1042138Y497712D01*
X1040775Y495937D01*
X1039919Y493869D01*
X1039890Y493650D01*
X1046200D01*
Y499960D01*
D02*
G37*
G36*
Y489650D02*
X1039890D01*
X1039919Y489431D01*
X1040775Y487363D01*
X1042138Y485588D01*
X1043913Y484225D01*
X1045981Y483369D01*
X1046200Y483340D01*
Y489650D01*
D02*
G37*
G36*
X1056510D02*
X1050200D01*
Y483340D01*
X1050419Y483369D01*
X1052487Y484225D01*
X1054262Y485588D01*
X1055625Y487363D01*
X1056481Y489431D01*
X1056510Y489650D01*
D02*
G37*
G36*
X1068200Y500223D02*
X1065981Y499931D01*
X1063913Y499075D01*
X1062138Y497712D01*
X1060775Y495937D01*
X1059919Y493869D01*
X1059627Y491650D01*
X1059919Y489431D01*
X1060775Y487363D01*
X1062138Y485588D01*
X1063913Y484225D01*
X1065981Y483369D01*
X1068200Y483077D01*
X1070419Y483369D01*
X1072487Y484225D01*
X1074262Y485588D01*
X1075625Y487363D01*
X1076481Y489431D01*
X1076773Y491650D01*
X1076481Y493869D01*
X1075625Y495937D01*
X1074262Y497712D01*
X1072487Y499075D01*
X1070419Y499931D01*
X1068200Y500223D01*
D02*
G37*
G36*
X884000Y492358D02*
X881854Y491931D01*
X880035Y490715D01*
X878819Y488896D01*
X878392Y486750D01*
X878819Y484604D01*
X880035Y482785D01*
X881854Y481569D01*
X884000Y481142D01*
X886146Y481569D01*
X887965Y482785D01*
X889181Y484604D01*
X889608Y486750D01*
X889181Y488896D01*
X887965Y490715D01*
X886146Y491931D01*
X884000Y492358D01*
D02*
G37*
G36*
X1070200Y479960D02*
Y473650D01*
X1076510D01*
X1076481Y473869D01*
X1075625Y475937D01*
X1074262Y477712D01*
X1072487Y479075D01*
X1070419Y479931D01*
X1070200Y479960D01*
D02*
G37*
G36*
X1066200D02*
X1065981Y479931D01*
X1063913Y479075D01*
X1062138Y477712D01*
X1060775Y475937D01*
X1059919Y473869D01*
X1059890Y473650D01*
X1066200D01*
Y479960D01*
D02*
G37*
G36*
X144896Y483118D02*
X142750Y482691D01*
X140930Y481476D01*
X139715Y479656D01*
X139288Y477510D01*
X139715Y475364D01*
X140930Y473545D01*
X142750Y472329D01*
X144896Y471903D01*
X147042Y472329D01*
X148861Y473545D01*
X150076Y475364D01*
X150503Y477510D01*
X150076Y479656D01*
X148861Y481476D01*
X147042Y482691D01*
X144896Y483118D01*
D02*
G37*
G36*
X1076510Y469650D02*
X1070200D01*
Y463340D01*
X1070419Y463369D01*
X1072487Y464225D01*
X1074262Y465588D01*
X1075625Y467363D01*
X1076481Y469431D01*
X1076510Y469650D01*
D02*
G37*
G36*
X1066200D02*
X1059890D01*
X1059919Y469431D01*
X1060775Y467363D01*
X1062138Y465588D01*
X1063913Y464225D01*
X1065981Y463369D01*
X1066200Y463340D01*
Y469650D01*
D02*
G37*
G36*
X1048200Y480223D02*
X1045981Y479931D01*
X1043913Y479075D01*
X1042138Y477712D01*
X1040775Y475937D01*
X1039919Y473869D01*
X1039627Y471650D01*
X1039919Y469431D01*
X1040775Y467363D01*
X1042138Y465588D01*
X1043913Y464225D01*
X1045981Y463369D01*
X1048200Y463077D01*
X1050419Y463369D01*
X1052487Y464225D01*
X1054262Y465588D01*
X1055625Y467363D01*
X1056481Y469431D01*
X1056773Y471650D01*
X1056481Y473869D01*
X1055625Y475937D01*
X1054262Y477712D01*
X1052487Y479075D01*
X1050419Y479931D01*
X1048200Y480223D01*
D02*
G37*
G36*
X292500Y472608D02*
X290354Y472181D01*
X288535Y470965D01*
X287319Y469146D01*
X286892Y467000D01*
X287319Y464854D01*
X288535Y463035D01*
X290354Y461819D01*
X292500Y461392D01*
X294646Y461819D01*
X296465Y463035D01*
X297681Y464854D01*
X298108Y467000D01*
X297681Y469146D01*
X296465Y470965D01*
X294646Y472181D01*
X292500Y472608D01*
D02*
G37*
G36*
X207829Y469867D02*
X205683Y469440D01*
X203863Y468224D01*
X202648Y466405D01*
X202221Y464259D01*
X202648Y462113D01*
X203863Y460294D01*
X205683Y459078D01*
X207829Y458651D01*
X209975Y459078D01*
X211794Y460294D01*
X213009Y462113D01*
X213436Y464259D01*
X213009Y466405D01*
X211794Y468224D01*
X209975Y469440D01*
X207829Y469867D01*
D02*
G37*
G36*
X973750Y465622D02*
X970000D01*
Y457000D01*
X980122D01*
Y459250D01*
X979637Y461689D01*
X978256Y463756D01*
X976189Y465137D01*
X973750Y465622D01*
D02*
G37*
G36*
X966000D02*
X962250D01*
X959811Y465137D01*
X957744Y463756D01*
X956363Y461689D01*
X955878Y459250D01*
Y457000D01*
X966000D01*
Y465622D01*
D02*
G37*
G36*
X147000Y466608D02*
X144854Y466181D01*
X143035Y464965D01*
X141819Y463146D01*
X141392Y461000D01*
X141819Y458854D01*
X143035Y457035D01*
X144854Y455819D01*
X147000Y455392D01*
X149146Y455819D01*
X150965Y457035D01*
X152181Y458854D01*
X152608Y461000D01*
X152181Y463146D01*
X150965Y464965D01*
X149146Y466181D01*
X147000Y466608D01*
D02*
G37*
G36*
X282000Y465858D02*
X279854Y465431D01*
X278035Y464215D01*
X276819Y462396D01*
X276392Y460250D01*
X276819Y458104D01*
X278035Y456285D01*
X279854Y455069D01*
X282000Y454642D01*
X284146Y455069D01*
X285965Y456285D01*
X287181Y458104D01*
X287608Y460250D01*
X287181Y462396D01*
X285965Y464215D01*
X284146Y465431D01*
X282000Y465858D01*
D02*
G37*
G36*
X1050200Y459960D02*
Y453650D01*
X1056510D01*
X1056481Y453869D01*
X1055625Y455937D01*
X1054262Y457712D01*
X1052487Y459075D01*
X1050419Y459931D01*
X1050200Y459960D01*
D02*
G37*
G36*
X1046200D02*
X1045981Y459931D01*
X1043913Y459075D01*
X1042138Y457712D01*
X1040775Y455937D01*
X1039919Y453869D01*
X1039890Y453650D01*
X1046200D01*
Y459960D01*
D02*
G37*
G36*
X980122Y453000D02*
X970000D01*
Y444378D01*
X973750D01*
X976189Y444863D01*
X978256Y446244D01*
X979637Y448311D01*
X980122Y450750D01*
Y453000D01*
D02*
G37*
G36*
X966000D02*
X955878D01*
Y450750D01*
X956363Y448311D01*
X957744Y446244D01*
X959811Y444863D01*
X962250Y444378D01*
X966000D01*
Y453000D01*
D02*
G37*
G36*
X1056510Y449650D02*
X1050200D01*
Y443340D01*
X1050419Y443369D01*
X1052487Y444225D01*
X1054262Y445588D01*
X1055625Y447363D01*
X1056481Y449431D01*
X1056510Y449650D01*
D02*
G37*
G36*
X1046200D02*
X1039890D01*
X1039919Y449431D01*
X1040775Y447363D01*
X1042138Y445588D01*
X1043913Y444225D01*
X1045981Y443369D01*
X1046200Y443340D01*
Y449650D01*
D02*
G37*
G36*
X1068200Y460223D02*
X1065981Y459931D01*
X1063913Y459075D01*
X1062138Y457712D01*
X1060775Y455937D01*
X1059919Y453869D01*
X1059627Y451650D01*
X1059919Y449431D01*
X1060775Y447363D01*
X1062138Y445588D01*
X1063913Y444225D01*
X1065981Y443369D01*
X1068200Y443077D01*
X1070419Y443369D01*
X1072487Y444225D01*
X1074262Y445588D01*
X1075625Y447363D01*
X1076481Y449431D01*
X1076773Y451650D01*
X1076481Y453869D01*
X1075625Y455937D01*
X1074262Y457712D01*
X1072487Y459075D01*
X1070419Y459931D01*
X1068200Y460223D01*
D02*
G37*
G36*
X216250Y453608D02*
X214104Y453181D01*
X212285Y451965D01*
X211069Y450146D01*
X210642Y448000D01*
X211069Y445854D01*
X212285Y444035D01*
X214104Y442819D01*
X216250Y442392D01*
X218396Y442819D01*
X220215Y444035D01*
X221431Y445854D01*
X221858Y448000D01*
X221431Y450146D01*
X220215Y451965D01*
X218396Y453181D01*
X216250Y453608D01*
D02*
G37*
G36*
X1014500Y453598D02*
X1012354Y453171D01*
X1010535Y451956D01*
X1009319Y450136D01*
X1008892Y447990D01*
X1009319Y445844D01*
X1010535Y444025D01*
X1012354Y442810D01*
X1014500Y442383D01*
X1016646Y442810D01*
X1018465Y444025D01*
X1019681Y445844D01*
X1020108Y447990D01*
X1019681Y450136D01*
X1018465Y451956D01*
X1016646Y453171D01*
X1014500Y453598D01*
D02*
G37*
G36*
X760500Y453358D02*
X758354Y452931D01*
X756535Y451715D01*
X755319Y449896D01*
X754892Y447750D01*
X755319Y445604D01*
X756535Y443785D01*
X758354Y442569D01*
X760500Y442142D01*
X762646Y442569D01*
X764465Y443785D01*
X765681Y445604D01*
X766108Y447750D01*
X765681Y449896D01*
X764465Y451715D01*
X762646Y452931D01*
X760500Y453358D01*
D02*
G37*
G36*
X266000Y450358D02*
X263854Y449931D01*
X262035Y448715D01*
X260819Y446896D01*
X260392Y444750D01*
X260819Y442604D01*
X262035Y440785D01*
X263854Y439569D01*
X266000Y439142D01*
X268146Y439569D01*
X269965Y440785D01*
X271181Y442604D01*
X271608Y444750D01*
X271181Y446896D01*
X269965Y448715D01*
X268146Y449931D01*
X266000Y450358D01*
D02*
G37*
G36*
X1071450Y440253D02*
X1070200D01*
Y433650D01*
X1076803D01*
Y434900D01*
X1076395Y436949D01*
X1075235Y438685D01*
X1073498Y439845D01*
X1071450Y440253D01*
D02*
G37*
G36*
X1066200D02*
X1064950D01*
X1062902Y439845D01*
X1061165Y438685D01*
X1060005Y436949D01*
X1059597Y434900D01*
Y433650D01*
X1066200D01*
Y440253D01*
D02*
G37*
G36*
X872000Y435961D02*
X869854Y435534D01*
X868035Y434319D01*
X866819Y432500D01*
X866392Y430354D01*
X866819Y428208D01*
X868035Y426388D01*
X869854Y425173D01*
X872000Y424746D01*
X874146Y425173D01*
X875965Y426388D01*
X877181Y428208D01*
X877608Y430354D01*
X877181Y432500D01*
X875965Y434319D01*
X874146Y435534D01*
X872000Y435961D01*
D02*
G37*
G36*
X1048200Y440223D02*
X1045981Y439931D01*
X1043913Y439075D01*
X1042138Y437712D01*
X1040775Y435937D01*
X1039919Y433869D01*
X1039627Y431650D01*
X1039919Y429431D01*
X1040775Y427363D01*
X1042138Y425588D01*
X1043913Y424225D01*
X1045981Y423369D01*
X1048200Y423077D01*
X1050419Y423369D01*
X1052487Y424225D01*
X1054262Y425588D01*
X1055625Y427363D01*
X1056481Y429431D01*
X1056773Y431650D01*
X1056481Y433869D01*
X1055625Y435937D01*
X1054262Y437712D01*
X1052487Y439075D01*
X1050419Y439931D01*
X1048200Y440223D01*
D02*
G37*
G36*
X1076803Y429650D02*
X1070200D01*
Y423047D01*
X1071450D01*
X1073498Y423455D01*
X1075235Y424615D01*
X1076395Y426352D01*
X1076803Y428400D01*
Y429650D01*
D02*
G37*
G36*
X1066200D02*
X1059597D01*
Y428400D01*
X1060005Y426352D01*
X1061165Y424615D01*
X1062902Y423455D01*
X1064950Y423047D01*
X1066200D01*
Y429650D01*
D02*
G37*
G36*
X458200Y416345D02*
Y407000D01*
X465891D01*
X465572Y409416D01*
X464603Y411757D01*
X463061Y413766D01*
X461051Y415308D01*
X458711Y416277D01*
X458200Y416345D01*
D02*
G37*
G36*
X331200D02*
Y407000D01*
X338890D01*
X338572Y409416D01*
X337603Y411757D01*
X336061Y413766D01*
X334052Y415308D01*
X331711Y416277D01*
X331200Y416345D01*
D02*
G37*
G36*
X204200D02*
Y407000D01*
X211891D01*
X211572Y409416D01*
X210603Y411757D01*
X209061Y413766D01*
X207052Y415308D01*
X204711Y416277D01*
X204200Y416345D01*
D02*
G37*
G36*
X77200D02*
Y407000D01*
X84890D01*
X84572Y409416D01*
X83603Y411757D01*
X82061Y413766D01*
X80051Y415308D01*
X77711Y416277D01*
X77200Y416345D01*
D02*
G37*
G36*
X454200Y416345D02*
X453689Y416277D01*
X451348Y415308D01*
X449339Y413766D01*
X447797Y411757D01*
X446828Y409416D01*
X446510Y407000D01*
X454200D01*
Y416345D01*
D02*
G37*
G36*
X327200D02*
X326689Y416277D01*
X324348Y415308D01*
X322339Y413766D01*
X320797Y411757D01*
X319828Y409416D01*
X319510Y407000D01*
X327200D01*
Y416345D01*
D02*
G37*
G36*
X200200D02*
X199689Y416277D01*
X197348Y415308D01*
X195339Y413766D01*
X193797Y411757D01*
X192828Y409416D01*
X192509Y407000D01*
X200200D01*
Y416345D01*
D02*
G37*
G36*
X73200D02*
X72689Y416277D01*
X70349Y415308D01*
X68339Y413766D01*
X66797Y411757D01*
X65828Y409416D01*
X65510Y407000D01*
X73200D01*
Y416345D01*
D02*
G37*
G36*
X454200Y403000D02*
X446510D01*
X446828Y400584D01*
X447797Y398243D01*
X449339Y396234D01*
X451348Y394692D01*
X453689Y393723D01*
X454200Y393655D01*
Y403000D01*
D02*
G37*
G36*
X327200D02*
X319510D01*
X319828Y400584D01*
X320797Y398243D01*
X322339Y396234D01*
X324348Y394692D01*
X326689Y393723D01*
X327200Y393655D01*
Y403000D01*
D02*
G37*
G36*
X200200D02*
X192509D01*
X192828Y400584D01*
X193797Y398243D01*
X195339Y396234D01*
X197348Y394692D01*
X199689Y393723D01*
X200200Y393655D01*
Y403000D01*
D02*
G37*
G36*
X73200D02*
X65510D01*
X65828Y400584D01*
X66797Y398243D01*
X68339Y396234D01*
X70349Y394692D01*
X72689Y393723D01*
X73200Y393655D01*
Y403000D01*
D02*
G37*
G36*
X465891D02*
X458200D01*
Y393655D01*
X458711Y393723D01*
X461051Y394692D01*
X463061Y396234D01*
X464603Y398243D01*
X465572Y400584D01*
X465891Y403000D01*
D02*
G37*
G36*
X211891D02*
X204200D01*
Y393655D01*
X204711Y393723D01*
X207052Y394692D01*
X209061Y396234D01*
X210603Y398243D01*
X211572Y400584D01*
X211891Y403000D01*
D02*
G37*
G36*
X84890D02*
X77200D01*
Y393655D01*
X77711Y393723D01*
X80051Y394692D01*
X82061Y396234D01*
X83603Y398243D01*
X84572Y400584D01*
X84890Y403000D01*
D02*
G37*
G36*
X338890D02*
X331200D01*
Y393655D01*
X331711Y393723D01*
X334052Y394692D01*
X336061Y396234D01*
X337603Y398243D01*
X338572Y400584D01*
X338890Y403000D01*
D02*
G37*
G36*
X507000Y416608D02*
X504489Y416277D01*
X502149Y415308D01*
X500139Y413766D01*
X498597Y411757D01*
X497628Y409416D01*
X497297Y406905D01*
Y403095D01*
X497628Y400584D01*
X498597Y398243D01*
X500139Y396234D01*
X502149Y394692D01*
X504489Y393723D01*
X507000Y393392D01*
X509511Y393723D01*
X511852Y394692D01*
X513861Y396234D01*
X515403Y398243D01*
X516372Y400584D01*
X516703Y403095D01*
Y406905D01*
X516372Y409416D01*
X515403Y411757D01*
X513861Y413766D01*
X511852Y415308D01*
X509511Y416277D01*
X507000Y416608D01*
D02*
G37*
G36*
X481600D02*
X479089Y416277D01*
X476749Y415308D01*
X474739Y413766D01*
X473197Y411757D01*
X472228Y409416D01*
X471897Y406905D01*
Y403095D01*
X472228Y400584D01*
X473197Y398243D01*
X474739Y396234D01*
X476749Y394692D01*
X479089Y393723D01*
X481600Y393392D01*
X484111Y393723D01*
X486451Y394692D01*
X488461Y396234D01*
X490003Y398243D01*
X490972Y400584D01*
X491303Y403095D01*
Y406905D01*
X490972Y409416D01*
X490003Y411757D01*
X488461Y413766D01*
X486451Y415308D01*
X484111Y416277D01*
X481600Y416608D01*
D02*
G37*
G36*
X430800D02*
X428289Y416277D01*
X425948Y415308D01*
X423939Y413766D01*
X422397Y411757D01*
X421428Y409416D01*
X421097Y406905D01*
Y403095D01*
X421428Y400584D01*
X422397Y398243D01*
X423939Y396234D01*
X425948Y394692D01*
X428289Y393723D01*
X430800Y393392D01*
X433311Y393723D01*
X435652Y394692D01*
X437661Y396234D01*
X439203Y398243D01*
X440172Y400584D01*
X440503Y403095D01*
Y406905D01*
X440172Y409416D01*
X439203Y411757D01*
X437661Y413766D01*
X435652Y415308D01*
X433311Y416277D01*
X430800Y416608D01*
D02*
G37*
G36*
X405400D02*
X402889Y416277D01*
X400549Y415308D01*
X398539Y413766D01*
X396997Y411757D01*
X396028Y409416D01*
X395697Y406905D01*
Y403095D01*
X396028Y400584D01*
X396997Y398243D01*
X398539Y396234D01*
X400549Y394692D01*
X402889Y393723D01*
X405400Y393392D01*
X407911Y393723D01*
X410252Y394692D01*
X412261Y396234D01*
X413803Y398243D01*
X414772Y400584D01*
X415103Y403095D01*
Y406905D01*
X414772Y409416D01*
X413803Y411757D01*
X412261Y413766D01*
X410252Y415308D01*
X407911Y416277D01*
X405400Y416608D01*
D02*
G37*
G36*
X380000D02*
X377489Y416277D01*
X375149Y415308D01*
X373139Y413766D01*
X371597Y411757D01*
X370628Y409416D01*
X370297Y406905D01*
Y403095D01*
X370628Y400584D01*
X371597Y398243D01*
X373139Y396234D01*
X375149Y394692D01*
X377489Y393723D01*
X380000Y393392D01*
X382511Y393723D01*
X384851Y394692D01*
X386861Y396234D01*
X388403Y398243D01*
X389372Y400584D01*
X389703Y403095D01*
Y406905D01*
X389372Y409416D01*
X388403Y411757D01*
X386861Y413766D01*
X384851Y415308D01*
X382511Y416277D01*
X380000Y416608D01*
D02*
G37*
G36*
X354600D02*
X352089Y416277D01*
X349748Y415308D01*
X347739Y413766D01*
X346197Y411757D01*
X345228Y409416D01*
X344897Y406905D01*
Y403095D01*
X345228Y400584D01*
X346197Y398243D01*
X347739Y396234D01*
X349748Y394692D01*
X352089Y393723D01*
X354600Y393392D01*
X357111Y393723D01*
X359451Y394692D01*
X361461Y396234D01*
X363003Y398243D01*
X363972Y400584D01*
X364303Y403095D01*
Y406905D01*
X363972Y409416D01*
X363003Y411757D01*
X361461Y413766D01*
X359451Y415308D01*
X357111Y416277D01*
X354600Y416608D01*
D02*
G37*
G36*
X303800D02*
X301289Y416277D01*
X298948Y415308D01*
X296939Y413766D01*
X295397Y411757D01*
X294428Y409416D01*
X294097Y406905D01*
Y403095D01*
X294428Y400584D01*
X295397Y398243D01*
X296939Y396234D01*
X298948Y394692D01*
X301289Y393723D01*
X303800Y393392D01*
X306311Y393723D01*
X308652Y394692D01*
X310661Y396234D01*
X312203Y398243D01*
X313172Y400584D01*
X313503Y403095D01*
Y406905D01*
X313172Y409416D01*
X312203Y411757D01*
X310661Y413766D01*
X308652Y415308D01*
X306311Y416277D01*
X303800Y416608D01*
D02*
G37*
G36*
X278400D02*
X275889Y416277D01*
X273549Y415308D01*
X271539Y413766D01*
X269997Y411757D01*
X269028Y409416D01*
X268697Y406905D01*
Y403095D01*
X269028Y400584D01*
X269997Y398243D01*
X271539Y396234D01*
X273549Y394692D01*
X275889Y393723D01*
X278400Y393392D01*
X280911Y393723D01*
X283251Y394692D01*
X285261Y396234D01*
X286803Y398243D01*
X287772Y400584D01*
X288103Y403095D01*
Y406905D01*
X287772Y409416D01*
X286803Y411757D01*
X285261Y413766D01*
X283251Y415308D01*
X280911Y416277D01*
X278400Y416608D01*
D02*
G37*
G36*
X253000D02*
X250489Y416277D01*
X248148Y415308D01*
X246139Y413766D01*
X244597Y411757D01*
X243628Y409416D01*
X243297Y406905D01*
Y403095D01*
X243628Y400584D01*
X244597Y398243D01*
X246139Y396234D01*
X248148Y394692D01*
X250489Y393723D01*
X253000Y393392D01*
X255511Y393723D01*
X257852Y394692D01*
X259861Y396234D01*
X261403Y398243D01*
X262372Y400584D01*
X262703Y403095D01*
Y406905D01*
X262372Y409416D01*
X261403Y411757D01*
X259861Y413766D01*
X257852Y415308D01*
X255511Y416277D01*
X253000Y416608D01*
D02*
G37*
G36*
X227600D02*
X225089Y416277D01*
X222749Y415308D01*
X220739Y413766D01*
X219197Y411757D01*
X218228Y409416D01*
X217897Y406905D01*
Y403095D01*
X218228Y400584D01*
X219197Y398243D01*
X220739Y396234D01*
X222749Y394692D01*
X225089Y393723D01*
X227600Y393392D01*
X230111Y393723D01*
X232451Y394692D01*
X234461Y396234D01*
X236003Y398243D01*
X236972Y400584D01*
X237303Y403095D01*
Y406905D01*
X236972Y409416D01*
X236003Y411757D01*
X234461Y413766D01*
X232451Y415308D01*
X230111Y416277D01*
X227600Y416608D01*
D02*
G37*
G36*
X176800D02*
X174289Y416277D01*
X171949Y415308D01*
X169939Y413766D01*
X168397Y411757D01*
X167428Y409416D01*
X167097Y406905D01*
Y403095D01*
X167428Y400584D01*
X168397Y398243D01*
X169939Y396234D01*
X171949Y394692D01*
X174289Y393723D01*
X176800Y393392D01*
X179311Y393723D01*
X181651Y394692D01*
X183661Y396234D01*
X185203Y398243D01*
X186172Y400584D01*
X186503Y403095D01*
Y406905D01*
X186172Y409416D01*
X185203Y411757D01*
X183661Y413766D01*
X181651Y415308D01*
X179311Y416277D01*
X176800Y416608D01*
D02*
G37*
G36*
X151400D02*
X148889Y416277D01*
X146549Y415308D01*
X144539Y413766D01*
X142997Y411757D01*
X142028Y409416D01*
X141697Y406905D01*
Y403095D01*
X142028Y400584D01*
X142997Y398243D01*
X144539Y396234D01*
X146549Y394692D01*
X148889Y393723D01*
X151400Y393392D01*
X153911Y393723D01*
X156251Y394692D01*
X158261Y396234D01*
X159803Y398243D01*
X160772Y400584D01*
X161103Y403095D01*
Y406905D01*
X160772Y409416D01*
X159803Y411757D01*
X158261Y413766D01*
X156251Y415308D01*
X153911Y416277D01*
X151400Y416608D01*
D02*
G37*
G36*
X126000D02*
X123489Y416277D01*
X121149Y415308D01*
X119139Y413766D01*
X117597Y411757D01*
X116628Y409416D01*
X116297Y406905D01*
Y403095D01*
X116628Y400584D01*
X117597Y398243D01*
X119139Y396234D01*
X121149Y394692D01*
X123489Y393723D01*
X126000Y393392D01*
X128511Y393723D01*
X130851Y394692D01*
X132861Y396234D01*
X134403Y398243D01*
X135372Y400584D01*
X135703Y403095D01*
Y406905D01*
X135372Y409416D01*
X134403Y411757D01*
X132861Y413766D01*
X130851Y415308D01*
X128511Y416277D01*
X126000Y416608D01*
D02*
G37*
G36*
X100600D02*
X98089Y416277D01*
X95749Y415308D01*
X93739Y413766D01*
X92197Y411757D01*
X91228Y409416D01*
X90897Y406905D01*
Y403095D01*
X91228Y400584D01*
X92197Y398243D01*
X93739Y396234D01*
X95749Y394692D01*
X98089Y393723D01*
X100600Y393392D01*
X103111Y393723D01*
X105451Y394692D01*
X107461Y396234D01*
X109003Y398243D01*
X109972Y400584D01*
X110303Y403095D01*
Y406905D01*
X109972Y409416D01*
X109003Y411757D01*
X107461Y413766D01*
X105451Y415308D01*
X103111Y416277D01*
X100600Y416608D01*
D02*
G37*
G36*
X49800D02*
X47289Y416277D01*
X44949Y415308D01*
X42939Y413766D01*
X41397Y411757D01*
X40428Y409416D01*
X40097Y406905D01*
Y403095D01*
X40428Y400584D01*
X41397Y398243D01*
X42939Y396234D01*
X44949Y394692D01*
X47289Y393723D01*
X49800Y393392D01*
X52311Y393723D01*
X54651Y394692D01*
X56661Y396234D01*
X58203Y398243D01*
X59172Y400584D01*
X59503Y403095D01*
Y406905D01*
X59172Y409416D01*
X58203Y411757D01*
X56661Y413766D01*
X54651Y415308D01*
X52311Y416277D01*
X49800Y416608D01*
D02*
G37*
G36*
X24400D02*
X21889Y416277D01*
X19548Y415308D01*
X17539Y413766D01*
X15997Y411757D01*
X15028Y409416D01*
X14697Y406905D01*
Y403095D01*
X15028Y400584D01*
X15997Y398243D01*
X17539Y396234D01*
X19548Y394692D01*
X21889Y393723D01*
X24400Y393392D01*
X26911Y393723D01*
X29251Y394692D01*
X31261Y396234D01*
X32803Y398243D01*
X33772Y400584D01*
X34103Y403095D01*
Y406905D01*
X33772Y409416D01*
X32803Y411757D01*
X31261Y413766D01*
X29251Y415308D01*
X26911Y416277D01*
X24400Y416608D01*
D02*
G37*
G36*
X999500Y398423D02*
Y390600D01*
X1007323D01*
X1007243Y391211D01*
X1006235Y393643D01*
X1004632Y395732D01*
X1002543Y397335D01*
X1000110Y398343D01*
X999500Y398423D01*
D02*
G37*
G36*
X995500Y398423D02*
X994890Y398343D01*
X992457Y397335D01*
X990368Y395732D01*
X988765Y393643D01*
X987757Y391211D01*
X987677Y390600D01*
X995500D01*
Y398423D01*
D02*
G37*
G36*
X900691Y400726D02*
X898545Y400299D01*
X896726Y399084D01*
X895510Y397264D01*
X895083Y395118D01*
X895510Y392972D01*
X896726Y391153D01*
X897530Y390615D01*
X896319Y388803D01*
X895892Y386657D01*
X896319Y384511D01*
X897535Y382692D01*
X899354Y381476D01*
X901500Y381049D01*
X903646Y381476D01*
X905465Y382692D01*
X906681Y384511D01*
X907108Y386657D01*
X906681Y388803D01*
X905465Y390622D01*
X904661Y391160D01*
X905872Y392972D01*
X906299Y395118D01*
X905872Y397264D01*
X904656Y399084D01*
X902837Y400299D01*
X900691Y400726D01*
D02*
G37*
G36*
X814242Y399892D02*
X812096Y399465D01*
X810277Y398249D01*
X809061Y396430D01*
X808634Y394284D01*
X809061Y392138D01*
X810277Y390319D01*
X811790Y389307D01*
X811024Y388160D01*
X810597Y386014D01*
X811024Y383868D01*
X812239Y382048D01*
X814059Y380833D01*
X816205Y380406D01*
X818351Y380833D01*
X820170Y382048D01*
X821385Y383868D01*
X821812Y386014D01*
X821385Y388160D01*
X820170Y389979D01*
X818656Y390990D01*
X819423Y392138D01*
X819850Y394284D01*
X819423Y396430D01*
X818207Y398249D01*
X816388Y399465D01*
X814242Y399892D01*
D02*
G37*
G36*
X995500Y386600D02*
X987677D01*
X987757Y385989D01*
X988765Y383557D01*
X990368Y381468D01*
X992457Y379865D01*
X994890Y378857D01*
X995500Y378777D01*
Y386600D01*
D02*
G37*
G36*
X1007323D02*
X999500D01*
Y378777D01*
X1000110Y378857D01*
X1002543Y379865D01*
X1004632Y381468D01*
X1006235Y383557D01*
X1007243Y385989D01*
X1007323Y386600D01*
D02*
G37*
G36*
X1022900Y398686D02*
X1020290Y398343D01*
X1017857Y397335D01*
X1015768Y395732D01*
X1014165Y393643D01*
X1013157Y391211D01*
X1012814Y388600D01*
X1013157Y385989D01*
X1014165Y383557D01*
X1015768Y381468D01*
X1017857Y379865D01*
X1020290Y378857D01*
X1022900Y378514D01*
X1025510Y378857D01*
X1027943Y379865D01*
X1030032Y381468D01*
X1031635Y383557D01*
X1032643Y385989D01*
X1032986Y388600D01*
X1032643Y391211D01*
X1031635Y393643D01*
X1030032Y395732D01*
X1027943Y397335D01*
X1025510Y398343D01*
X1022900Y398686D01*
D02*
G37*
G36*
X940250Y376608D02*
X938104Y376181D01*
X936285Y374965D01*
X935069Y373146D01*
X934642Y371000D01*
X935069Y368854D01*
X936285Y367035D01*
X938104Y365819D01*
X940250Y365392D01*
X942396Y365819D01*
X944215Y367035D01*
X945431Y368854D01*
X945858Y371000D01*
X945431Y373146D01*
X944215Y374965D01*
X942396Y376181D01*
X940250Y376608D01*
D02*
G37*
G36*
X855500Y375858D02*
X853354Y375431D01*
X851535Y374215D01*
X850319Y372396D01*
X849892Y370250D01*
X850319Y368104D01*
X851535Y366285D01*
X853354Y365069D01*
X855500Y364642D01*
X857646Y365069D01*
X859465Y366285D01*
X860681Y368104D01*
X861108Y370250D01*
X860681Y372396D01*
X859465Y374215D01*
X857646Y375431D01*
X855500Y375858D01*
D02*
G37*
G36*
X272000Y374108D02*
X269854Y373681D01*
X268035Y372465D01*
X266819Y370646D01*
X266392Y368500D01*
X266819Y366354D01*
X268035Y364535D01*
X269854Y363319D01*
X272000Y362892D01*
X274146Y363319D01*
X275965Y364535D01*
X277181Y366354D01*
X277608Y368500D01*
X277181Y370646D01*
X275965Y372465D01*
X274146Y373681D01*
X272000Y374108D01*
D02*
G37*
G36*
X1022900Y373286D02*
X1020290Y372943D01*
X1017857Y371935D01*
X1015768Y370332D01*
X1014165Y368243D01*
X1013157Y365811D01*
X1012814Y363200D01*
X1013157Y360589D01*
X1014165Y358157D01*
X1015768Y356068D01*
X1017857Y354465D01*
X1020290Y353457D01*
X1022900Y353114D01*
X1025510Y353457D01*
X1027943Y354465D01*
X1030032Y356068D01*
X1031635Y358157D01*
X1032643Y360589D01*
X1032986Y363200D01*
X1032643Y365811D01*
X1031635Y368243D01*
X1030032Y370332D01*
X1027943Y371935D01*
X1025510Y372943D01*
X1022900Y373286D01*
D02*
G37*
G36*
X997500D02*
X994890Y372943D01*
X992457Y371935D01*
X990368Y370332D01*
X988765Y368243D01*
X987757Y365811D01*
X987414Y363200D01*
X987757Y360589D01*
X988765Y358157D01*
X990368Y356068D01*
X992457Y354465D01*
X994890Y353457D01*
X997500Y353114D01*
X1000110Y353457D01*
X1002543Y354465D01*
X1004632Y356068D01*
X1006235Y358157D01*
X1007243Y360589D01*
X1007586Y363200D01*
X1007243Y365811D01*
X1006235Y368243D01*
X1004632Y370332D01*
X1002543Y371935D01*
X1000110Y372943D01*
X997500Y373286D01*
D02*
G37*
G36*
X839500Y363608D02*
X837354Y363181D01*
X835535Y361965D01*
X834319Y360146D01*
X833892Y358000D01*
X834319Y355854D01*
X835535Y354035D01*
X837354Y352819D01*
X839500Y352392D01*
X841646Y352819D01*
X843465Y354035D01*
X844681Y355854D01*
X845108Y358000D01*
X844681Y360146D01*
X843465Y361965D01*
X841646Y363181D01*
X839500Y363608D01*
D02*
G37*
G36*
X999500Y347623D02*
Y339800D01*
X1007323D01*
X1007243Y340410D01*
X1006235Y342843D01*
X1004632Y344932D01*
X1002543Y346535D01*
X1000110Y347543D01*
X999500Y347623D01*
D02*
G37*
G36*
X995500Y347623D02*
X994890Y347543D01*
X992457Y346535D01*
X990368Y344932D01*
X988765Y342843D01*
X987757Y340410D01*
X987677Y339800D01*
X995500D01*
Y347623D01*
D02*
G37*
G36*
X251000Y345608D02*
X248854Y345181D01*
X247035Y343965D01*
X245819Y342146D01*
X245392Y340000D01*
X245819Y337854D01*
X247035Y336035D01*
X248854Y334819D01*
X251000Y334392D01*
X253146Y334819D01*
X254965Y336035D01*
X256181Y337854D01*
X256608Y340000D01*
X256181Y342146D01*
X254965Y343965D01*
X253146Y345181D01*
X251000Y345608D01*
D02*
G37*
G36*
X995500Y335800D02*
X987677D01*
X987757Y335190D01*
X988765Y332757D01*
X990368Y330668D01*
X992457Y329065D01*
X994890Y328058D01*
X995500Y327977D01*
Y335800D01*
D02*
G37*
G36*
X1007323D02*
X999500D01*
Y327977D01*
X1000110Y328058D01*
X1002543Y329065D01*
X1004632Y330668D01*
X1006235Y332757D01*
X1007243Y335190D01*
X1007323Y335800D01*
D02*
G37*
G36*
X1022900Y347886D02*
X1020290Y347543D01*
X1017857Y346535D01*
X1015768Y344932D01*
X1014165Y342843D01*
X1013157Y340410D01*
X1012814Y337800D01*
X1013157Y335190D01*
X1014165Y332757D01*
X1015768Y330668D01*
X1017857Y329065D01*
X1020290Y328058D01*
X1022900Y327714D01*
X1025510Y328058D01*
X1027943Y329065D01*
X1030032Y330668D01*
X1031635Y332757D01*
X1032643Y335190D01*
X1032986Y337800D01*
X1032643Y340410D01*
X1031635Y342843D01*
X1030032Y344932D01*
X1027943Y346535D01*
X1025510Y347543D01*
X1022900Y347886D01*
D02*
G37*
G36*
X294250Y336108D02*
X292104Y335681D01*
X290285Y334465D01*
X289069Y332646D01*
X288642Y330500D01*
X289069Y328354D01*
X290285Y326535D01*
X292104Y325319D01*
X294250Y324892D01*
X296396Y325319D01*
X298215Y326535D01*
X299431Y328354D01*
X299858Y330500D01*
X299431Y332646D01*
X298215Y334465D01*
X296396Y335681D01*
X294250Y336108D01*
D02*
G37*
G36*
X813977Y332071D02*
X811831Y331644D01*
X810012Y330428D01*
X808796Y328609D01*
X808369Y326463D01*
X808796Y324317D01*
X810012Y322498D01*
X811831Y321282D01*
X813977Y320855D01*
X816123Y321282D01*
X817942Y322498D01*
X819158Y324317D01*
X819585Y326463D01*
X819158Y328609D01*
X817942Y330428D01*
X816123Y331644D01*
X813977Y332071D01*
D02*
G37*
G36*
X899250Y326608D02*
X897104Y326181D01*
X895285Y324965D01*
X894069Y323146D01*
X893642Y321000D01*
X894069Y318854D01*
X895285Y317035D01*
X897104Y315819D01*
X899250Y315392D01*
X901396Y315819D01*
X903215Y317035D01*
X904431Y318854D01*
X904858Y321000D01*
X904431Y323146D01*
X903215Y324965D01*
X901396Y326181D01*
X899250Y326608D01*
D02*
G37*
G36*
X868000Y318858D02*
X865854Y318431D01*
X864035Y317215D01*
X862819Y315396D01*
X862392Y313250D01*
X862819Y311104D01*
X864035Y309285D01*
X865854Y308069D01*
X868000Y307642D01*
X870146Y308069D01*
X871965Y309285D01*
X873181Y311104D01*
X873608Y313250D01*
X873181Y315396D01*
X871965Y317215D01*
X870146Y318431D01*
X868000Y318858D01*
D02*
G37*
G36*
X815388Y318743D02*
X813242Y318316D01*
X811423Y317100D01*
X810207Y315281D01*
X809780Y313135D01*
X810207Y310989D01*
X811423Y309170D01*
X813242Y307954D01*
X815388Y307527D01*
X817534Y307954D01*
X819353Y309170D01*
X820569Y310989D01*
X820996Y313135D01*
X820569Y315281D01*
X819353Y317100D01*
X817534Y318316D01*
X815388Y318743D01*
D02*
G37*
G36*
X1022900Y322486D02*
X1020290Y322143D01*
X1017857Y321135D01*
X1015768Y319532D01*
X1014165Y317443D01*
X1013157Y315011D01*
X1012814Y312400D01*
X1013157Y309790D01*
X1014165Y307357D01*
X1015768Y305268D01*
X1017857Y303665D01*
X1020290Y302658D01*
X1022900Y302314D01*
X1025510Y302658D01*
X1027943Y303665D01*
X1030032Y305268D01*
X1031635Y307357D01*
X1032643Y309790D01*
X1032986Y312400D01*
X1032643Y315011D01*
X1031635Y317443D01*
X1030032Y319532D01*
X1027943Y321135D01*
X1025510Y322143D01*
X1022900Y322486D01*
D02*
G37*
G36*
X997500D02*
X994890Y322143D01*
X992457Y321135D01*
X990368Y319532D01*
X988765Y317443D01*
X987757Y315011D01*
X987414Y312400D01*
X987757Y309790D01*
X988765Y307357D01*
X990368Y305268D01*
X992457Y303665D01*
X994890Y302658D01*
X997500Y302314D01*
X1000110Y302658D01*
X1002543Y303665D01*
X1004632Y305268D01*
X1006235Y307357D01*
X1007243Y309790D01*
X1007586Y312400D01*
X1007243Y315011D01*
X1006235Y317443D01*
X1004632Y319532D01*
X1002543Y321135D01*
X1000110Y322143D01*
X997500Y322486D01*
D02*
G37*
G36*
X940250Y306608D02*
X938104Y306181D01*
X936285Y304965D01*
X935069Y303146D01*
X934642Y301000D01*
X935069Y298854D01*
X936285Y297035D01*
X938104Y295819D01*
X940250Y295392D01*
X942396Y295819D01*
X944215Y297035D01*
X945431Y298854D01*
X945858Y301000D01*
X945431Y303146D01*
X944215Y304965D01*
X942396Y306181D01*
X940250Y306608D01*
D02*
G37*
G36*
X547000D02*
X544854Y306181D01*
X543035Y304965D01*
X541819Y303146D01*
X541392Y301000D01*
X541819Y298854D01*
X543035Y297035D01*
X544854Y295819D01*
X547000Y295392D01*
X549146Y295819D01*
X550965Y297035D01*
X552181Y298854D01*
X552608Y301000D01*
X552181Y303146D01*
X550965Y304965D01*
X549146Y306181D01*
X547000Y306608D01*
D02*
G37*
G36*
X858056Y302451D02*
X855910Y302024D01*
X854091Y300809D01*
X852875Y298990D01*
X852448Y296843D01*
X852875Y294697D01*
X854091Y292878D01*
X855910Y291663D01*
X858056Y291236D01*
X860202Y291663D01*
X862021Y292878D01*
X863237Y294697D01*
X863664Y296843D01*
X863237Y298990D01*
X862021Y300809D01*
X860202Y302024D01*
X858056Y302451D01*
D02*
G37*
G36*
X227750Y298108D02*
X225604Y297681D01*
X223785Y296465D01*
X222569Y294646D01*
X222142Y292500D01*
X222569Y290354D01*
X223785Y288535D01*
X225604Y287319D01*
X227750Y286892D01*
X229896Y287319D01*
X231715Y288535D01*
X232931Y290354D01*
X233358Y292500D01*
X232931Y294646D01*
X231715Y296465D01*
X229896Y297681D01*
X227750Y298108D01*
D02*
G37*
G36*
X903750Y292858D02*
X901604Y292431D01*
X899785Y291215D01*
X898569Y289396D01*
X898142Y287250D01*
X898569Y285104D01*
X899785Y283284D01*
X901604Y282069D01*
X903750Y281642D01*
X905896Y282069D01*
X907715Y283284D01*
X908931Y285104D01*
X909358Y287250D01*
X908931Y289396D01*
X907715Y291215D01*
X905896Y292431D01*
X903750Y292858D01*
D02*
G37*
G36*
X1022900Y297086D02*
X1020290Y296743D01*
X1017857Y295735D01*
X1015768Y294132D01*
X1014165Y292043D01*
X1013157Y289611D01*
X1012814Y287000D01*
X1013157Y284389D01*
X1014165Y281957D01*
X1015768Y279868D01*
X1017857Y278265D01*
X1020290Y277257D01*
X1022900Y276914D01*
X1025510Y277257D01*
X1027943Y278265D01*
X1030032Y279868D01*
X1031635Y281957D01*
X1032643Y284389D01*
X1032986Y287000D01*
X1032643Y289611D01*
X1031635Y292043D01*
X1030032Y294132D01*
X1027943Y295735D01*
X1025510Y296743D01*
X1022900Y297086D01*
D02*
G37*
G36*
X997500D02*
X994890Y296743D01*
X992457Y295735D01*
X990368Y294132D01*
X988765Y292043D01*
X987757Y289611D01*
X987414Y287000D01*
X987757Y284389D01*
X988765Y281957D01*
X990368Y279868D01*
X992457Y278265D01*
X994890Y277257D01*
X997500Y276914D01*
X1000110Y277257D01*
X1002543Y278265D01*
X1004632Y279868D01*
X1006235Y281957D01*
X1007243Y284389D01*
X1007586Y287000D01*
X1007243Y289611D01*
X1006235Y292043D01*
X1004632Y294132D01*
X1002543Y295735D01*
X1000110Y296743D01*
X997500Y297086D01*
D02*
G37*
G36*
X999500Y271423D02*
Y263600D01*
X1007323D01*
X1007243Y264210D01*
X1006235Y266643D01*
X1004632Y268732D01*
X1002543Y270335D01*
X1000110Y271343D01*
X999500Y271423D01*
D02*
G37*
G36*
X995500Y271423D02*
X994890Y271343D01*
X992457Y270335D01*
X990368Y268732D01*
X988765Y266643D01*
X987757Y264210D01*
X987677Y263600D01*
X995500D01*
Y271423D01*
D02*
G37*
G36*
X926000Y269608D02*
X923854Y269181D01*
X922035Y267965D01*
X920819Y266146D01*
X920392Y264000D01*
X920819Y261854D01*
X922035Y260035D01*
X923854Y258819D01*
X926000Y258392D01*
X928146Y258819D01*
X929965Y260035D01*
X931181Y261854D01*
X931608Y264000D01*
X931181Y266146D01*
X929965Y267965D01*
X928146Y269181D01*
X926000Y269608D01*
D02*
G37*
G36*
X995500Y259600D02*
X987677D01*
X987757Y258990D01*
X988765Y256557D01*
X990368Y254468D01*
X992457Y252865D01*
X994890Y251857D01*
X995500Y251777D01*
Y259600D01*
D02*
G37*
G36*
X1007323D02*
X999500D01*
Y251777D01*
X1000110Y251857D01*
X1002543Y252865D01*
X1004632Y254468D01*
X1006235Y256557D01*
X1007243Y258990D01*
X1007323Y259600D01*
D02*
G37*
G36*
X814000Y262858D02*
X811854Y262431D01*
X810035Y261215D01*
X808819Y259396D01*
X808392Y257250D01*
X808819Y255104D01*
X810035Y253285D01*
X811854Y252069D01*
X814000Y251642D01*
X816146Y252069D01*
X817965Y253285D01*
X819181Y255104D01*
X819608Y257250D01*
X819181Y259396D01*
X817965Y261215D01*
X816146Y262431D01*
X814000Y262858D01*
D02*
G37*
G36*
X1022900Y271686D02*
X1020290Y271343D01*
X1017857Y270335D01*
X1015768Y268732D01*
X1014165Y266643D01*
X1013157Y264210D01*
X1012814Y261600D01*
X1013157Y258990D01*
X1014165Y256557D01*
X1015768Y254468D01*
X1017857Y252865D01*
X1020290Y251857D01*
X1022900Y251514D01*
X1025510Y251857D01*
X1027943Y252865D01*
X1030032Y254468D01*
X1031635Y256557D01*
X1032643Y258990D01*
X1032986Y261600D01*
X1032643Y264210D01*
X1031635Y266643D01*
X1030032Y268732D01*
X1027943Y270335D01*
X1025510Y271343D01*
X1022900Y271686D01*
D02*
G37*
G36*
X899500Y261859D02*
X897354Y261432D01*
X895535Y260216D01*
X894319Y258397D01*
X893892Y256251D01*
X894319Y254105D01*
X895535Y252285D01*
X897354Y251070D01*
X899500Y250643D01*
X901646Y251070D01*
X903465Y252285D01*
X904681Y254105D01*
X905108Y256251D01*
X904681Y258397D01*
X903465Y260216D01*
X901646Y261432D01*
X899500Y261859D01*
D02*
G37*
G36*
X847296Y243411D02*
X845150Y242985D01*
X843331Y241769D01*
X842115Y239950D01*
X841689Y237804D01*
X842115Y235658D01*
X843331Y233838D01*
X845150Y232623D01*
X847296Y232196D01*
X849442Y232623D01*
X850831Y233551D01*
X851960Y231861D01*
X853780Y230645D01*
X855926Y230219D01*
X858072Y230645D01*
X859891Y231861D01*
X861106Y233680D01*
X861533Y235826D01*
X861106Y237972D01*
X859891Y239792D01*
X858072Y241007D01*
X855926Y241434D01*
X853780Y241007D01*
X852391Y240079D01*
X851262Y241769D01*
X849442Y242985D01*
X847296Y243411D01*
D02*
G37*
G36*
X458200Y238545D02*
Y229200D01*
X465891D01*
X465572Y231616D01*
X464603Y233957D01*
X463061Y235966D01*
X461051Y237508D01*
X458711Y238477D01*
X458200Y238545D01*
D02*
G37*
G36*
X331200D02*
Y229200D01*
X338890D01*
X338572Y231616D01*
X337603Y233957D01*
X336061Y235966D01*
X334052Y237508D01*
X331711Y238477D01*
X331200Y238545D01*
D02*
G37*
G36*
X204200D02*
Y229200D01*
X211891D01*
X211572Y231616D01*
X210603Y233957D01*
X209061Y235966D01*
X207052Y237508D01*
X204711Y238477D01*
X204200Y238545D01*
D02*
G37*
G36*
X77200D02*
Y229200D01*
X84890D01*
X84572Y231616D01*
X83603Y233957D01*
X82061Y235966D01*
X80051Y237508D01*
X77711Y238477D01*
X77200Y238545D01*
D02*
G37*
G36*
X454200Y238545D02*
X453689Y238477D01*
X451348Y237508D01*
X449339Y235966D01*
X447797Y233957D01*
X446828Y231616D01*
X446510Y229200D01*
X454200D01*
Y238545D01*
D02*
G37*
G36*
X327200D02*
X326689Y238477D01*
X324348Y237508D01*
X322339Y235966D01*
X320797Y233957D01*
X319828Y231616D01*
X319510Y229200D01*
X327200D01*
Y238545D01*
D02*
G37*
G36*
X200200D02*
X199689Y238477D01*
X197348Y237508D01*
X195339Y235966D01*
X193797Y233957D01*
X192828Y231616D01*
X192509Y229200D01*
X200200D01*
Y238545D01*
D02*
G37*
G36*
X73200D02*
X72689Y238477D01*
X70349Y237508D01*
X68339Y235966D01*
X66797Y233957D01*
X65828Y231616D01*
X65510Y229200D01*
X73200D01*
Y238545D01*
D02*
G37*
G36*
X930000Y242608D02*
X927854Y242181D01*
X926035Y240965D01*
X924819Y239146D01*
X924392Y237000D01*
X924819Y234854D01*
X926035Y233035D01*
X927854Y231819D01*
X930000Y231392D01*
X932146Y231819D01*
X933721Y232872D01*
X934793Y232659D01*
X935137Y232502D01*
X936285Y230785D01*
X938104Y229569D01*
X940250Y229142D01*
X942396Y229569D01*
X944215Y230785D01*
X945431Y232604D01*
X945858Y234750D01*
X945431Y236896D01*
X944215Y238715D01*
X942396Y239931D01*
X940250Y240358D01*
X938104Y239931D01*
X936529Y238878D01*
X935457Y239091D01*
X935113Y239248D01*
X933965Y240965D01*
X932146Y242181D01*
X930000Y242608D01*
D02*
G37*
G36*
X1022900Y246286D02*
X1020290Y245943D01*
X1017857Y244935D01*
X1015768Y243332D01*
X1014165Y241243D01*
X1013157Y238811D01*
X1012814Y236200D01*
X1013157Y233589D01*
X1014165Y231157D01*
X1015768Y229068D01*
X1017857Y227465D01*
X1020290Y226458D01*
X1022900Y226114D01*
X1025510Y226458D01*
X1027943Y227465D01*
X1030032Y229068D01*
X1031635Y231157D01*
X1032643Y233589D01*
X1032986Y236200D01*
X1032643Y238811D01*
X1031635Y241243D01*
X1030032Y243332D01*
X1027943Y244935D01*
X1025510Y245943D01*
X1022900Y246286D01*
D02*
G37*
G36*
X997500D02*
X994890Y245943D01*
X992457Y244935D01*
X990368Y243332D01*
X988765Y241243D01*
X987757Y238811D01*
X987414Y236200D01*
X987757Y233589D01*
X988765Y231157D01*
X990368Y229068D01*
X992457Y227465D01*
X994890Y226458D01*
X997500Y226114D01*
X1000110Y226458D01*
X1002543Y227465D01*
X1004632Y229068D01*
X1006235Y231157D01*
X1007243Y233589D01*
X1007586Y236200D01*
X1007243Y238811D01*
X1006235Y241243D01*
X1004632Y243332D01*
X1002543Y244935D01*
X1000110Y245943D01*
X997500Y246286D01*
D02*
G37*
G36*
X797000Y230608D02*
X794854Y230181D01*
X793035Y228965D01*
X791819Y227146D01*
X791392Y225000D01*
X791819Y222854D01*
X793035Y221035D01*
X794854Y219819D01*
X797000Y219392D01*
X799146Y219819D01*
X800965Y221035D01*
X802181Y222854D01*
X802608Y225000D01*
X802181Y227146D01*
X800965Y228965D01*
X799146Y230181D01*
X797000Y230608D01*
D02*
G37*
G36*
X454200Y225200D02*
X446510D01*
X446828Y222784D01*
X447797Y220443D01*
X449339Y218434D01*
X451348Y216892D01*
X453689Y215923D01*
X454200Y215855D01*
Y225200D01*
D02*
G37*
G36*
X327200D02*
X319510D01*
X319828Y222784D01*
X320797Y220443D01*
X322339Y218434D01*
X324348Y216892D01*
X326689Y215923D01*
X327200Y215855D01*
Y225200D01*
D02*
G37*
G36*
X200200D02*
X192509D01*
X192828Y222784D01*
X193797Y220443D01*
X195339Y218434D01*
X197348Y216892D01*
X199689Y215923D01*
X200200Y215855D01*
Y225200D01*
D02*
G37*
G36*
X73200D02*
X65510D01*
X65828Y222784D01*
X66797Y220443D01*
X68339Y218434D01*
X70349Y216892D01*
X72689Y215923D01*
X73200Y215855D01*
Y225200D01*
D02*
G37*
G36*
X465891D02*
X458200D01*
Y215855D01*
X458711Y215923D01*
X461051Y216892D01*
X463061Y218434D01*
X464603Y220443D01*
X465572Y222784D01*
X465891Y225200D01*
D02*
G37*
G36*
X211891D02*
X204200D01*
Y215855D01*
X204711Y215923D01*
X207052Y216892D01*
X209061Y218434D01*
X210603Y220443D01*
X211572Y222784D01*
X211891Y225200D01*
D02*
G37*
G36*
X84890D02*
X77200D01*
Y215855D01*
X77711Y215923D01*
X80051Y216892D01*
X82061Y218434D01*
X83603Y220443D01*
X84572Y222784D01*
X84890Y225200D01*
D02*
G37*
G36*
X338890D02*
X331200D01*
Y215855D01*
X331711Y215923D01*
X334052Y216892D01*
X336061Y218434D01*
X337603Y220443D01*
X338572Y222784D01*
X338890Y225200D01*
D02*
G37*
G36*
X507000Y238808D02*
X504489Y238477D01*
X502149Y237508D01*
X500139Y235966D01*
X498597Y233957D01*
X497628Y231616D01*
X497297Y229105D01*
Y225295D01*
X497628Y222784D01*
X498597Y220443D01*
X500139Y218434D01*
X502149Y216892D01*
X504489Y215923D01*
X507000Y215592D01*
X509511Y215923D01*
X511852Y216892D01*
X513861Y218434D01*
X515403Y220443D01*
X516372Y222784D01*
X516703Y225295D01*
Y229105D01*
X516372Y231616D01*
X515403Y233957D01*
X513861Y235966D01*
X511852Y237508D01*
X509511Y238477D01*
X507000Y238808D01*
D02*
G37*
G36*
X481600D02*
X479089Y238477D01*
X476749Y237508D01*
X474739Y235966D01*
X473197Y233957D01*
X472228Y231616D01*
X471897Y229105D01*
Y225295D01*
X472228Y222784D01*
X473197Y220443D01*
X474739Y218434D01*
X476749Y216892D01*
X479089Y215923D01*
X481600Y215592D01*
X484111Y215923D01*
X486451Y216892D01*
X488461Y218434D01*
X490003Y220443D01*
X490972Y222784D01*
X491303Y225295D01*
Y229105D01*
X490972Y231616D01*
X490003Y233957D01*
X488461Y235966D01*
X486451Y237508D01*
X484111Y238477D01*
X481600Y238808D01*
D02*
G37*
G36*
X430800D02*
X428289Y238477D01*
X425948Y237508D01*
X423939Y235966D01*
X422397Y233957D01*
X421428Y231616D01*
X421097Y229105D01*
Y225295D01*
X421428Y222784D01*
X422397Y220443D01*
X423939Y218434D01*
X425948Y216892D01*
X428289Y215923D01*
X430800Y215592D01*
X433311Y215923D01*
X435652Y216892D01*
X437661Y218434D01*
X439203Y220443D01*
X440172Y222784D01*
X440503Y225295D01*
Y229105D01*
X440172Y231616D01*
X439203Y233957D01*
X437661Y235966D01*
X435652Y237508D01*
X433311Y238477D01*
X430800Y238808D01*
D02*
G37*
G36*
X405400D02*
X402889Y238477D01*
X400549Y237508D01*
X398539Y235966D01*
X396997Y233957D01*
X396028Y231616D01*
X395697Y229105D01*
Y225295D01*
X396028Y222784D01*
X396997Y220443D01*
X398539Y218434D01*
X400549Y216892D01*
X402889Y215923D01*
X405400Y215592D01*
X407911Y215923D01*
X410252Y216892D01*
X412261Y218434D01*
X413803Y220443D01*
X414772Y222784D01*
X415103Y225295D01*
Y229105D01*
X414772Y231616D01*
X413803Y233957D01*
X412261Y235966D01*
X410252Y237508D01*
X407911Y238477D01*
X405400Y238808D01*
D02*
G37*
G36*
X380000D02*
X377489Y238477D01*
X375149Y237508D01*
X373139Y235966D01*
X371597Y233957D01*
X370628Y231616D01*
X370297Y229105D01*
Y225295D01*
X370628Y222784D01*
X371597Y220443D01*
X373139Y218434D01*
X375149Y216892D01*
X377489Y215923D01*
X380000Y215592D01*
X382511Y215923D01*
X384851Y216892D01*
X386861Y218434D01*
X388403Y220443D01*
X389372Y222784D01*
X389703Y225295D01*
Y229105D01*
X389372Y231616D01*
X388403Y233957D01*
X386861Y235966D01*
X384851Y237508D01*
X382511Y238477D01*
X380000Y238808D01*
D02*
G37*
G36*
X354600D02*
X352089Y238477D01*
X349748Y237508D01*
X347739Y235966D01*
X346197Y233957D01*
X345228Y231616D01*
X344897Y229105D01*
Y225295D01*
X345228Y222784D01*
X346197Y220443D01*
X347739Y218434D01*
X349748Y216892D01*
X352089Y215923D01*
X354600Y215592D01*
X357111Y215923D01*
X359451Y216892D01*
X361461Y218434D01*
X363003Y220443D01*
X363972Y222784D01*
X364303Y225295D01*
Y229105D01*
X363972Y231616D01*
X363003Y233957D01*
X361461Y235966D01*
X359451Y237508D01*
X357111Y238477D01*
X354600Y238808D01*
D02*
G37*
G36*
X303800D02*
X301289Y238477D01*
X298948Y237508D01*
X296939Y235966D01*
X295397Y233957D01*
X294428Y231616D01*
X294097Y229105D01*
Y225295D01*
X294428Y222784D01*
X295397Y220443D01*
X296939Y218434D01*
X298948Y216892D01*
X301289Y215923D01*
X303800Y215592D01*
X306311Y215923D01*
X308652Y216892D01*
X310661Y218434D01*
X312203Y220443D01*
X313172Y222784D01*
X313503Y225295D01*
Y229105D01*
X313172Y231616D01*
X312203Y233957D01*
X310661Y235966D01*
X308652Y237508D01*
X306311Y238477D01*
X303800Y238808D01*
D02*
G37*
G36*
X278400D02*
X275889Y238477D01*
X273549Y237508D01*
X271539Y235966D01*
X269997Y233957D01*
X269028Y231616D01*
X268697Y229105D01*
Y225295D01*
X269028Y222784D01*
X269997Y220443D01*
X271539Y218434D01*
X273549Y216892D01*
X275889Y215923D01*
X278400Y215592D01*
X280911Y215923D01*
X283251Y216892D01*
X285261Y218434D01*
X286803Y220443D01*
X287772Y222784D01*
X288103Y225295D01*
Y229105D01*
X287772Y231616D01*
X286803Y233957D01*
X285261Y235966D01*
X283251Y237508D01*
X280911Y238477D01*
X278400Y238808D01*
D02*
G37*
G36*
X253000D02*
X250489Y238477D01*
X248148Y237508D01*
X246139Y235966D01*
X244597Y233957D01*
X243628Y231616D01*
X243297Y229105D01*
Y225295D01*
X243628Y222784D01*
X244597Y220443D01*
X246139Y218434D01*
X248148Y216892D01*
X250489Y215923D01*
X253000Y215592D01*
X255511Y215923D01*
X257852Y216892D01*
X259861Y218434D01*
X261403Y220443D01*
X262372Y222784D01*
X262703Y225295D01*
Y229105D01*
X262372Y231616D01*
X261403Y233957D01*
X259861Y235966D01*
X257852Y237508D01*
X255511Y238477D01*
X253000Y238808D01*
D02*
G37*
G36*
X227600D02*
X225089Y238477D01*
X222749Y237508D01*
X220739Y235966D01*
X219197Y233957D01*
X218228Y231616D01*
X217897Y229105D01*
Y225295D01*
X218228Y222784D01*
X219197Y220443D01*
X220739Y218434D01*
X222749Y216892D01*
X225089Y215923D01*
X227600Y215592D01*
X230111Y215923D01*
X232451Y216892D01*
X234461Y218434D01*
X236003Y220443D01*
X236972Y222784D01*
X237303Y225295D01*
Y229105D01*
X236972Y231616D01*
X236003Y233957D01*
X234461Y235966D01*
X232451Y237508D01*
X230111Y238477D01*
X227600Y238808D01*
D02*
G37*
G36*
X176800D02*
X174289Y238477D01*
X171949Y237508D01*
X169939Y235966D01*
X168397Y233957D01*
X167428Y231616D01*
X167097Y229105D01*
Y225295D01*
X167428Y222784D01*
X168397Y220443D01*
X169939Y218434D01*
X171949Y216892D01*
X174289Y215923D01*
X176800Y215592D01*
X179311Y215923D01*
X181651Y216892D01*
X183661Y218434D01*
X185203Y220443D01*
X186172Y222784D01*
X186503Y225295D01*
Y229105D01*
X186172Y231616D01*
X185203Y233957D01*
X183661Y235966D01*
X181651Y237508D01*
X179311Y238477D01*
X176800Y238808D01*
D02*
G37*
G36*
X151400D02*
X148889Y238477D01*
X146549Y237508D01*
X144539Y235966D01*
X142997Y233957D01*
X142028Y231616D01*
X141697Y229105D01*
Y225295D01*
X142028Y222784D01*
X142997Y220443D01*
X144539Y218434D01*
X146549Y216892D01*
X148889Y215923D01*
X151400Y215592D01*
X153911Y215923D01*
X156251Y216892D01*
X158261Y218434D01*
X159803Y220443D01*
X160772Y222784D01*
X161103Y225295D01*
Y229105D01*
X160772Y231616D01*
X159803Y233957D01*
X158261Y235966D01*
X156251Y237508D01*
X153911Y238477D01*
X151400Y238808D01*
D02*
G37*
G36*
X126000D02*
X123489Y238477D01*
X121149Y237508D01*
X119139Y235966D01*
X117597Y233957D01*
X116628Y231616D01*
X116297Y229105D01*
Y225295D01*
X116628Y222784D01*
X117597Y220443D01*
X119139Y218434D01*
X121149Y216892D01*
X123489Y215923D01*
X126000Y215592D01*
X128511Y215923D01*
X130851Y216892D01*
X132861Y218434D01*
X134403Y220443D01*
X135372Y222784D01*
X135703Y225295D01*
Y229105D01*
X135372Y231616D01*
X134403Y233957D01*
X132861Y235966D01*
X130851Y237508D01*
X128511Y238477D01*
X126000Y238808D01*
D02*
G37*
G36*
X100600D02*
X98089Y238477D01*
X95749Y237508D01*
X93739Y235966D01*
X92197Y233957D01*
X91228Y231616D01*
X90897Y229105D01*
Y225295D01*
X91228Y222784D01*
X92197Y220443D01*
X93739Y218434D01*
X95749Y216892D01*
X98089Y215923D01*
X100600Y215592D01*
X103111Y215923D01*
X105451Y216892D01*
X107461Y218434D01*
X109003Y220443D01*
X109972Y222784D01*
X110303Y225295D01*
Y229105D01*
X109972Y231616D01*
X109003Y233957D01*
X107461Y235966D01*
X105451Y237508D01*
X103111Y238477D01*
X100600Y238808D01*
D02*
G37*
G36*
X49800D02*
X47289Y238477D01*
X44949Y237508D01*
X42939Y235966D01*
X41397Y233957D01*
X40428Y231616D01*
X40097Y229105D01*
Y225295D01*
X40428Y222784D01*
X41397Y220443D01*
X42939Y218434D01*
X44949Y216892D01*
X47289Y215923D01*
X49800Y215592D01*
X52311Y215923D01*
X54651Y216892D01*
X56661Y218434D01*
X58203Y220443D01*
X59172Y222784D01*
X59503Y225295D01*
Y229105D01*
X59172Y231616D01*
X58203Y233957D01*
X56661Y235966D01*
X54651Y237508D01*
X52311Y238477D01*
X49800Y238808D01*
D02*
G37*
G36*
X24400D02*
X21889Y238477D01*
X19548Y237508D01*
X17539Y235966D01*
X15997Y233957D01*
X15028Y231616D01*
X14697Y229105D01*
Y225295D01*
X15028Y222784D01*
X15997Y220443D01*
X17539Y218434D01*
X19548Y216892D01*
X21889Y215923D01*
X24400Y215592D01*
X26911Y215923D01*
X29251Y216892D01*
X31261Y218434D01*
X32803Y220443D01*
X33772Y222784D01*
X34103Y225295D01*
Y229105D01*
X33772Y231616D01*
X32803Y233957D01*
X31261Y235966D01*
X29251Y237508D01*
X26911Y238477D01*
X24400Y238808D01*
D02*
G37*
G36*
X999500Y220623D02*
Y212800D01*
X1007323D01*
X1007243Y213410D01*
X1006235Y215843D01*
X1004632Y217932D01*
X1002543Y219535D01*
X1000110Y220543D01*
X999500Y220623D01*
D02*
G37*
G36*
X995500Y220623D02*
X994890Y220543D01*
X992457Y219535D01*
X990368Y217932D01*
X988765Y215843D01*
X987757Y213410D01*
X987677Y212800D01*
X995500D01*
Y220623D01*
D02*
G37*
G36*
Y208800D02*
X987677D01*
X987757Y208190D01*
X988765Y205757D01*
X990368Y203668D01*
X992457Y202065D01*
X994890Y201057D01*
X995500Y200977D01*
Y208800D01*
D02*
G37*
G36*
X1007323D02*
X999500D01*
Y200977D01*
X1000110Y201057D01*
X1002543Y202065D01*
X1004632Y203668D01*
X1006235Y205757D01*
X1007243Y208190D01*
X1007323Y208800D01*
D02*
G37*
G36*
X1022900Y220886D02*
X1020290Y220543D01*
X1017857Y219535D01*
X1015768Y217932D01*
X1014165Y215843D01*
X1013157Y213410D01*
X1012814Y210800D01*
X1013157Y208190D01*
X1014165Y205757D01*
X1015768Y203668D01*
X1017857Y202065D01*
X1020290Y201057D01*
X1022900Y200714D01*
X1025510Y201057D01*
X1027943Y202065D01*
X1030032Y203668D01*
X1031635Y205757D01*
X1032643Y208190D01*
X1032986Y210800D01*
X1032643Y213410D01*
X1031635Y215843D01*
X1030032Y217932D01*
X1027943Y219535D01*
X1025510Y220543D01*
X1022900Y220886D01*
D02*
G37*
G36*
X652000Y194608D02*
X649854Y194181D01*
X648035Y192965D01*
X646819Y191146D01*
X646392Y189000D01*
X646819Y186854D01*
X648035Y185035D01*
X649854Y183819D01*
X652000Y183392D01*
X654146Y183819D01*
X655965Y185035D01*
X657181Y186854D01*
X657608Y189000D01*
X657181Y191146D01*
X655965Y192965D01*
X654146Y194181D01*
X652000Y194608D01*
D02*
G37*
G36*
X319250Y193108D02*
X317104Y192681D01*
X315285Y191465D01*
X314069Y189646D01*
X313642Y187500D01*
X314069Y185354D01*
X315285Y183535D01*
X317104Y182319D01*
X319250Y181892D01*
X321396Y182319D01*
X323215Y183535D01*
X324431Y185354D01*
X324858Y187500D01*
X324431Y189646D01*
X323215Y191465D01*
X321396Y192681D01*
X319250Y193108D01*
D02*
G37*
G36*
X1022900Y195486D02*
X1020290Y195143D01*
X1017857Y194135D01*
X1015768Y192532D01*
X1014165Y190443D01*
X1013157Y188011D01*
X1012814Y185400D01*
X1013157Y182789D01*
X1014165Y180357D01*
X1015768Y178268D01*
X1017857Y176665D01*
X1020290Y175658D01*
X1022900Y175314D01*
X1025510Y175658D01*
X1027943Y176665D01*
X1030032Y178268D01*
X1031635Y180357D01*
X1032643Y182789D01*
X1032986Y185400D01*
X1032643Y188011D01*
X1031635Y190443D01*
X1030032Y192532D01*
X1027943Y194135D01*
X1025510Y195143D01*
X1022900Y195486D01*
D02*
G37*
G36*
X997500D02*
X994890Y195143D01*
X992457Y194135D01*
X990368Y192532D01*
X988765Y190443D01*
X987757Y188011D01*
X987414Y185400D01*
X987757Y182789D01*
X988765Y180357D01*
X990368Y178268D01*
X992457Y176665D01*
X994890Y175658D01*
X997500Y175314D01*
X1000110Y175658D01*
X1002543Y176665D01*
X1004632Y178268D01*
X1006235Y180357D01*
X1007243Y182789D01*
X1007586Y185400D01*
X1007243Y188011D01*
X1006235Y190443D01*
X1004632Y192532D01*
X1002543Y194135D01*
X1000110Y195143D01*
X997500Y195486D01*
D02*
G37*
G36*
X609971Y184636D02*
X607825Y184210D01*
X606006Y182994D01*
X604790Y181175D01*
X604363Y179029D01*
X604790Y176883D01*
X606006Y175063D01*
X607825Y173848D01*
X609971Y173421D01*
X612117Y173848D01*
X613936Y175063D01*
X615152Y176883D01*
X615579Y179029D01*
X615152Y181175D01*
X613936Y182994D01*
X612117Y184210D01*
X609971Y184636D01*
D02*
G37*
G36*
X244250Y183358D02*
X242104Y182931D01*
X240285Y181715D01*
X239069Y179896D01*
X238642Y177750D01*
X239069Y175604D01*
X240285Y173785D01*
X242104Y172569D01*
X244250Y172142D01*
X246396Y172569D01*
X248215Y173785D01*
X249431Y175604D01*
X249858Y177750D01*
X249431Y179896D01*
X248215Y181715D01*
X246396Y182931D01*
X244250Y183358D01*
D02*
G37*
G36*
X299750Y181858D02*
X297604Y181431D01*
X295785Y180215D01*
X294569Y178396D01*
X294142Y176250D01*
X294569Y174104D01*
X295785Y172285D01*
X297604Y171069D01*
X299750Y170642D01*
X301896Y171069D01*
X303715Y172285D01*
X304931Y174104D01*
X305358Y176250D01*
X304931Y178396D01*
X303715Y180215D01*
X301896Y181431D01*
X299750Y181858D01*
D02*
G37*
G36*
X215250Y181358D02*
X213104Y180931D01*
X211285Y179715D01*
X210069Y177896D01*
X209642Y175750D01*
X210069Y173604D01*
X211285Y171785D01*
X213104Y170569D01*
X215250Y170142D01*
X217396Y170569D01*
X219215Y171785D01*
X220431Y173604D01*
X220858Y175750D01*
X220431Y177896D01*
X219215Y179715D01*
X217396Y180931D01*
X215250Y181358D01*
D02*
G37*
G36*
X118750Y175358D02*
X116604Y174931D01*
X114785Y173715D01*
X113569Y171896D01*
X113142Y169750D01*
X113569Y167604D01*
X114785Y165785D01*
X116604Y164569D01*
X118750Y164142D01*
X120896Y164569D01*
X122715Y165785D01*
X123931Y167604D01*
X124358Y169750D01*
X123931Y171896D01*
X122715Y173715D01*
X120896Y174931D01*
X118750Y175358D01*
D02*
G37*
G36*
X60000Y174608D02*
X57854Y174181D01*
X56035Y172965D01*
X54819Y171146D01*
X54392Y169000D01*
X54819Y166854D01*
X56035Y165035D01*
X57854Y163819D01*
X60000Y163392D01*
X62146Y163819D01*
X63965Y165035D01*
X65181Y166854D01*
X65608Y169000D01*
X65181Y171146D01*
X63965Y172965D01*
X62146Y174181D01*
X60000Y174608D01*
D02*
G37*
G36*
X999500Y169823D02*
Y162000D01*
X1007323D01*
X1007243Y162610D01*
X1006235Y165043D01*
X1004632Y167132D01*
X1002543Y168735D01*
X1000110Y169743D01*
X999500Y169823D01*
D02*
G37*
G36*
X995500Y169823D02*
X994890Y169743D01*
X992457Y168735D01*
X990368Y167132D01*
X988765Y165043D01*
X987757Y162610D01*
X987677Y162000D01*
X995500D01*
Y169823D01*
D02*
G37*
G36*
X803250Y172108D02*
X801104Y171681D01*
X799285Y170465D01*
X798069Y168646D01*
X797642Y166500D01*
X798069Y164354D01*
X799285Y162535D01*
X801104Y161319D01*
X803250Y160892D01*
X805396Y161319D01*
X807215Y162535D01*
X808431Y164354D01*
X808858Y166500D01*
X808431Y168646D01*
X807215Y170465D01*
X805396Y171681D01*
X803250Y172108D01*
D02*
G37*
G36*
X595500Y165608D02*
X593354Y165181D01*
X591535Y163965D01*
X590319Y162146D01*
X589892Y160000D01*
X590319Y157854D01*
X591535Y156035D01*
X593354Y154819D01*
X595500Y154392D01*
X597646Y154819D01*
X599465Y156035D01*
X600681Y157854D01*
X601108Y160000D01*
X600681Y162146D01*
X599465Y163965D01*
X597646Y165181D01*
X595500Y165608D01*
D02*
G37*
G36*
X825750Y163358D02*
X823604Y162931D01*
X821785Y161715D01*
X820569Y159896D01*
X820142Y157750D01*
X820569Y155604D01*
X821785Y153785D01*
X823604Y152569D01*
X825750Y152142D01*
X827896Y152569D01*
X829715Y153785D01*
X830931Y155604D01*
X831358Y157750D01*
X830931Y159896D01*
X829715Y161715D01*
X827896Y162931D01*
X825750Y163358D01*
D02*
G37*
G36*
X696000Y162608D02*
X693854Y162181D01*
X692035Y160965D01*
X690819Y159146D01*
X690392Y157000D01*
X690819Y154854D01*
X692035Y153035D01*
X693854Y151819D01*
X696000Y151392D01*
X698146Y151819D01*
X699965Y153035D01*
X701181Y154854D01*
X701608Y157000D01*
X701181Y159146D01*
X699965Y160965D01*
X698146Y162181D01*
X696000Y162608D01*
D02*
G37*
G36*
X995500Y158000D02*
X987677D01*
X987757Y157389D01*
X988765Y154957D01*
X990368Y152868D01*
X992457Y151265D01*
X994890Y150258D01*
X995500Y150177D01*
Y158000D01*
D02*
G37*
G36*
X1007323D02*
X999500D01*
Y150177D01*
X1000110Y150258D01*
X1002543Y151265D01*
X1004632Y152868D01*
X1006235Y154957D01*
X1007243Y157389D01*
X1007323Y158000D01*
D02*
G37*
G36*
X1026900Y170118D02*
X1018900D01*
X1016559Y169652D01*
X1014574Y168326D01*
X1013248Y166341D01*
X1012782Y164000D01*
Y156000D01*
X1013248Y153659D01*
X1014574Y151674D01*
X1016559Y150348D01*
X1018900Y149882D01*
X1026900D01*
X1029241Y150348D01*
X1031226Y151674D01*
X1032552Y153659D01*
X1033018Y156000D01*
Y164000D01*
X1032552Y166341D01*
X1031226Y168326D01*
X1029241Y169652D01*
X1026900Y170118D01*
D02*
G37*
G36*
X652152Y152128D02*
X650006Y151701D01*
X648187Y150485D01*
X646971Y148666D01*
X646544Y146520D01*
X646971Y144374D01*
X648187Y142555D01*
X650006Y141339D01*
X652152Y140912D01*
X654298Y141339D01*
X656117Y142555D01*
X657333Y144374D01*
X657760Y146520D01*
X657333Y148666D01*
X656117Y150485D01*
X654298Y151701D01*
X652152Y152128D01*
D02*
G37*
G36*
X349750Y150608D02*
X347604Y150181D01*
X345785Y148965D01*
X344569Y147146D01*
X344142Y145000D01*
X344569Y142854D01*
X345785Y141035D01*
X347604Y139819D01*
X349750Y139392D01*
X351896Y139819D01*
X353715Y141035D01*
X354931Y142854D01*
X355358Y145000D01*
X354931Y147146D01*
X353715Y148965D01*
X351896Y150181D01*
X349750Y150608D01*
D02*
G37*
G36*
X880000Y134608D02*
X877854Y134181D01*
X876035Y132965D01*
X874819Y131146D01*
X874392Y129000D01*
X874819Y126854D01*
X876035Y125035D01*
X877854Y123819D01*
X880000Y123392D01*
X882146Y123819D01*
X883965Y125035D01*
X885181Y126854D01*
X885608Y129000D01*
X885181Y131146D01*
X883965Y132965D01*
X882146Y134181D01*
X880000Y134608D01*
D02*
G37*
G36*
X840000D02*
X837854Y134181D01*
X836035Y132965D01*
X834819Y131146D01*
X834392Y129000D01*
X834819Y126854D01*
X836035Y125035D01*
X837854Y123819D01*
X840000Y123392D01*
X842146Y123819D01*
X843965Y125035D01*
X845181Y126854D01*
X845608Y129000D01*
X845181Y131146D01*
X843965Y132965D01*
X842146Y134181D01*
X840000Y134608D01*
D02*
G37*
G36*
X800000D02*
X797854Y134181D01*
X796035Y132965D01*
X794819Y131146D01*
X794392Y129000D01*
X794819Y126854D01*
X796035Y125035D01*
X797854Y123819D01*
X800000Y123392D01*
X802146Y123819D01*
X803965Y125035D01*
X805181Y126854D01*
X805608Y129000D01*
X805181Y131146D01*
X803965Y132965D01*
X802146Y134181D01*
X800000Y134608D01*
D02*
G37*
G36*
X760000D02*
X757854Y134181D01*
X756035Y132965D01*
X754819Y131146D01*
X754392Y129000D01*
X754819Y126854D01*
X756035Y125035D01*
X757854Y123819D01*
X760000Y123392D01*
X762146Y123819D01*
X763965Y125035D01*
X765181Y126854D01*
X765608Y129000D01*
X765181Y131146D01*
X763965Y132965D01*
X762146Y134181D01*
X760000Y134608D01*
D02*
G37*
G36*
X720000D02*
X717854Y134181D01*
X716035Y132965D01*
X714819Y131146D01*
X714392Y129000D01*
X714819Y126854D01*
X716035Y125035D01*
X717854Y123819D01*
X720000Y123392D01*
X722146Y123819D01*
X723965Y125035D01*
X725181Y126854D01*
X725608Y129000D01*
X725181Y131146D01*
X723965Y132965D01*
X722146Y134181D01*
X720000Y134608D01*
D02*
G37*
G36*
X680000D02*
X677854Y134181D01*
X676035Y132965D01*
X674819Y131146D01*
X674392Y129000D01*
X674819Y126854D01*
X676035Y125035D01*
X677854Y123819D01*
X680000Y123392D01*
X682146Y123819D01*
X683965Y125035D01*
X685181Y126854D01*
X685608Y129000D01*
X685181Y131146D01*
X683965Y132965D01*
X682146Y134181D01*
X680000Y134608D01*
D02*
G37*
G36*
X606000Y125608D02*
X603854Y125181D01*
X602035Y123965D01*
X600819Y122146D01*
X600392Y120000D01*
X600819Y117854D01*
X602035Y116035D01*
X603628Y114970D01*
X603651Y114005D01*
X603552Y113610D01*
X601839Y112465D01*
X600623Y110646D01*
X600196Y108500D01*
X600623Y106354D01*
X601839Y104535D01*
X603658Y103319D01*
X605804Y102892D01*
X607950Y103319D01*
X609769Y104535D01*
X610985Y106354D01*
X611412Y108500D01*
X610985Y110646D01*
X609769Y112465D01*
X608176Y113530D01*
X608153Y114495D01*
X608252Y114890D01*
X609965Y116035D01*
X611181Y117854D01*
X611608Y120000D01*
X611181Y122146D01*
X609965Y123965D01*
X608146Y125181D01*
X606000Y125608D01*
D02*
G37*
G36*
X959250Y108608D02*
X957104Y108181D01*
X955285Y106965D01*
X954069Y105146D01*
X953642Y103000D01*
X954069Y100854D01*
X955285Y99035D01*
X957104Y97819D01*
X959250Y97392D01*
X961396Y97819D01*
X963215Y99035D01*
X964431Y100854D01*
X964858Y103000D01*
X964431Y105146D01*
X963215Y106965D01*
X961396Y108181D01*
X959250Y108608D01*
D02*
G37*
G36*
X225000Y108608D02*
X222854Y108181D01*
X221035Y106965D01*
X219819Y105146D01*
X219392Y103000D01*
X219819Y100854D01*
X221035Y99035D01*
X222854Y97819D01*
X225000Y97392D01*
X227146Y97819D01*
X228965Y99035D01*
X230181Y100854D01*
X230608Y103000D01*
X230181Y105146D01*
X228965Y106965D01*
X227146Y108181D01*
X225000Y108608D01*
D02*
G37*
G36*
X96000D02*
X93854Y108181D01*
X92035Y106965D01*
X90819Y105146D01*
X90392Y103000D01*
X90819Y100854D01*
X92035Y99035D01*
X93854Y97819D01*
X96000Y97392D01*
X98146Y97819D01*
X99965Y99035D01*
X101181Y100854D01*
X101608Y103000D01*
X101181Y105146D01*
X99965Y106965D01*
X98146Y108181D01*
X96000Y108608D01*
D02*
G37*
G36*
X659000Y101608D02*
X656854Y101181D01*
X655035Y99965D01*
X653819Y98146D01*
X653392Y96000D01*
X653819Y93854D01*
X655035Y92035D01*
X656854Y90819D01*
X659000Y90392D01*
X661146Y90819D01*
X662965Y92035D01*
X664181Y93854D01*
X664608Y96000D01*
X664181Y98146D01*
X662965Y99965D01*
X661146Y101181D01*
X659000Y101608D01*
D02*
G37*
G36*
X688000Y79608D02*
X685854Y79181D01*
X684035Y77965D01*
X682819Y76146D01*
X682392Y74000D01*
X682819Y71854D01*
X684035Y70035D01*
X685854Y68819D01*
X688000Y68392D01*
X690146Y68819D01*
X691965Y70035D01*
X693181Y71854D01*
X693608Y74000D01*
X693181Y76146D01*
X691965Y77965D01*
X690146Y79181D01*
X688000Y79608D01*
D02*
G37*
G36*
X123000Y65608D02*
X120854Y65181D01*
X119035Y63965D01*
X117819Y62146D01*
X117392Y60000D01*
X117819Y57854D01*
X119035Y56035D01*
X120854Y54819D01*
X123000Y54392D01*
X125146Y54819D01*
X126965Y56035D01*
X128181Y57854D01*
X128608Y60000D01*
X128181Y62146D01*
X126965Y63965D01*
X125146Y65181D01*
X123000Y65608D01*
D02*
G37*
G36*
X252000Y64608D02*
X249854Y64181D01*
X248035Y62965D01*
X246819Y61146D01*
X246392Y59000D01*
X246819Y56854D01*
X248035Y55035D01*
X249854Y53819D01*
X252000Y53392D01*
X254146Y53819D01*
X255965Y55035D01*
X257181Y56854D01*
X257608Y59000D01*
X257181Y61146D01*
X255965Y62965D01*
X254146Y64181D01*
X252000Y64608D01*
D02*
G37*
G36*
X1037400Y52327D02*
Y42500D01*
X1045925D01*
X1045630Y44741D01*
X1044572Y47295D01*
X1042889Y49489D01*
X1040695Y51172D01*
X1038141Y52230D01*
X1037400Y52327D01*
D02*
G37*
G36*
X1033400D02*
X1032659Y52230D01*
X1030105Y51172D01*
X1027911Y49489D01*
X1026228Y47295D01*
X1025170Y44741D01*
X1024875Y42500D01*
X1033400D01*
Y52327D01*
D02*
G37*
G36*
X1045925Y38500D02*
X1037400D01*
Y28673D01*
X1038141Y28770D01*
X1040695Y29828D01*
X1042889Y31511D01*
X1044572Y33705D01*
X1045630Y36259D01*
X1045925Y38500D01*
D02*
G37*
G36*
X1033400D02*
X1024875D01*
X1025170Y36259D01*
X1026228Y33705D01*
X1027911Y31511D01*
X1030105Y29828D01*
X1032659Y28770D01*
X1033400Y28673D01*
Y38500D01*
D02*
G37*
G36*
X969700Y52500D02*
X948700D01*
Y28500D01*
X969700D01*
Y52500D01*
D02*
G37*
G36*
X1010000Y52591D02*
X1007259Y52230D01*
X1004705Y51172D01*
X1002511Y49489D01*
X1000828Y47295D01*
X999770Y44741D01*
X999409Y42000D01*
Y39000D01*
X999770Y36259D01*
X1000828Y33705D01*
X1002511Y31511D01*
X1004705Y29828D01*
X1007259Y28770D01*
X1010000Y28409D01*
X1012741Y28770D01*
X1015295Y29828D01*
X1017489Y31511D01*
X1019172Y33705D01*
X1020230Y36259D01*
X1020591Y39000D01*
Y42000D01*
X1020230Y44741D01*
X1019172Y47295D01*
X1017489Y49489D01*
X1015295Y51172D01*
X1012741Y52230D01*
X1010000Y52591D01*
D02*
G37*
G36*
X984600D02*
X981859Y52230D01*
X979305Y51172D01*
X977111Y49489D01*
X975428Y47295D01*
X974370Y44741D01*
X974009Y42000D01*
Y39000D01*
X974370Y36259D01*
X975428Y33705D01*
X977111Y31511D01*
X979305Y29828D01*
X981859Y28770D01*
X984600Y28409D01*
X987341Y28770D01*
X989895Y29828D01*
X992089Y31511D01*
X993772Y33705D01*
X994830Y36259D01*
X995191Y39000D01*
Y42000D01*
X994830Y44741D01*
X993772Y47295D01*
X992089Y49489D01*
X989895Y51172D01*
X987341Y52230D01*
X984600Y52591D01*
D02*
G37*
G36*
X815750Y34622D02*
X812000D01*
Y26000D01*
X822122D01*
Y28250D01*
X821637Y30689D01*
X820256Y32756D01*
X818189Y34137D01*
X815750Y34622D01*
D02*
G37*
G36*
X808000D02*
X804250D01*
X801811Y34137D01*
X799744Y32756D01*
X798363Y30689D01*
X797878Y28250D01*
Y26000D01*
X808000D01*
Y34622D01*
D02*
G37*
G36*
X1085000Y55097D02*
X1081079Y54711D01*
X1077309Y53567D01*
X1073835Y51710D01*
X1070789Y49211D01*
X1068290Y46165D01*
X1066433Y42691D01*
X1065289Y38921D01*
X1064903Y35000D01*
X1065289Y31079D01*
X1066433Y27309D01*
X1068290Y23835D01*
X1070789Y20789D01*
X1073835Y18290D01*
X1077309Y16433D01*
X1081079Y15289D01*
X1085000Y14903D01*
X1088921Y15289D01*
X1092691Y16433D01*
X1096165Y18290D01*
X1099211Y20789D01*
X1101710Y23835D01*
X1103567Y27309D01*
X1104711Y31079D01*
X1105097Y35000D01*
X1104711Y38921D01*
X1103567Y42691D01*
X1101710Y46165D01*
X1099211Y49211D01*
X1096165Y51710D01*
X1092691Y53567D01*
X1088921Y54711D01*
X1085000Y55097D01*
D02*
G37*
G36*
X35000D02*
X31079Y54711D01*
X27309Y53567D01*
X23835Y51710D01*
X20789Y49211D01*
X18290Y46165D01*
X16433Y42691D01*
X15289Y38921D01*
X14903Y35000D01*
X15289Y31079D01*
X16433Y27309D01*
X18290Y23835D01*
X20789Y20789D01*
X23835Y18290D01*
X27309Y16433D01*
X31079Y15289D01*
X35000Y14903D01*
X38921Y15289D01*
X42691Y16433D01*
X46165Y18290D01*
X49211Y20789D01*
X51710Y23835D01*
X53567Y27309D01*
X54711Y31079D01*
X55097Y35000D01*
X54711Y38921D01*
X53567Y42691D01*
X51710Y46165D01*
X49211Y49211D01*
X46165Y51710D01*
X42691Y53567D01*
X38921Y54711D01*
X35000Y55097D01*
D02*
G37*
G36*
X822122Y22000D02*
X812000D01*
Y13378D01*
X815750D01*
X818189Y13863D01*
X820256Y15244D01*
X821637Y17311D01*
X822122Y19750D01*
Y22000D01*
D02*
G37*
G36*
X808000D02*
X797878D01*
Y19750D01*
X798363Y17311D01*
X799744Y15244D01*
X801811Y13863D01*
X804250Y13378D01*
X808000D01*
Y22000D01*
D02*
G37*
%LPD*%
G36*
X568782Y687444D02*
X569037Y687174D01*
X569185Y686822D01*
X569212Y686434D01*
X569099Y686058D01*
X568833Y685741D01*
X568396Y685529D01*
X561563Y683673D01*
X561562Y673059D01*
X562480Y673027D01*
X563485Y672943D01*
X564543Y672817D01*
X565620Y672662D01*
X566681Y672490D01*
X567692Y672313D01*
X568619Y672144D01*
X569427Y671995D01*
X569373Y674465D01*
X570479Y675174D01*
X571770Y675975D01*
X573191Y676839D01*
X574684Y677736D01*
X576194Y678634D01*
X577663Y679506D01*
X579034Y680320D01*
X580252Y681046D01*
X580277Y684115D01*
X580379Y684557D01*
X580646Y684868D01*
X581022Y685054D01*
X581452Y685122D01*
X581881Y685077D01*
X582254Y684927D01*
X582516Y684676D01*
X582611Y684331D01*
X582566Y679440D01*
X572101Y673338D01*
X572179Y671277D01*
X573365Y670781D01*
X574570Y670230D01*
X575781Y669613D01*
X576987Y668919D01*
X578173Y668139D01*
X579326Y667262D01*
X580434Y666278D01*
X581483Y665176D01*
X582884Y663152D01*
X584047Y661115D01*
X584942Y659059D01*
X585539Y656982D01*
X585810Y654879D01*
X585723Y652747D01*
X585251Y650582D01*
X584792Y649443D01*
X581794Y649443D01*
X583298Y653481D01*
X581075Y653537D01*
X581075Y655776D01*
X583355Y655776D01*
X582942Y657372D01*
X582506Y658774D01*
X582014Y660024D01*
X581436Y661162D01*
X580739Y662232D01*
X579892Y663275D01*
X578863Y664333D01*
X577621Y665447D01*
X575170Y667149D01*
X572317Y668492D01*
X569178Y669475D01*
X565866Y670101D01*
X562496Y670369D01*
X559182Y670282D01*
X556038Y669839D01*
X553180Y669043D01*
X551591Y668403D01*
X550168Y667737D01*
X548895Y667054D01*
X547754Y666361D01*
X546731Y665669D01*
X545810Y664985D01*
X544975Y664319D01*
X544210Y663678D01*
X544279Y655776D01*
X581059Y655776D01*
Y653537D01*
X580461Y653552D01*
X575672Y653611D01*
X569616Y653658D01*
X562976Y653693D01*
X556439Y653715D01*
X550688Y653725D01*
X546408Y653722D01*
X544283Y653707D01*
X544282Y652942D01*
X544281Y651997D01*
X544282Y650929D01*
X544286Y649794D01*
X544295Y648649D01*
X544302Y648165D01*
X542025Y648165D01*
X542025Y662914D01*
X540417Y662426D01*
X538998Y661768D01*
X537775Y660941D01*
X536756Y659946D01*
X535950Y658781D01*
X535364Y657448D01*
X535007Y655945D01*
X534886Y654273D01*
X535032Y652832D01*
X535450Y651449D01*
X536110Y650160D01*
X536984Y649000D01*
X538042Y648007D01*
X539254Y647215D01*
X540592Y646662D01*
X542025Y646383D01*
X542025Y648149D01*
X544303Y648149D01*
X544311Y647551D01*
X544335Y646556D01*
X544369Y645721D01*
X549354Y642074D01*
X555106Y639850D01*
X561223Y638998D01*
X567307Y639464D01*
X572957Y641197D01*
X577772Y644146D01*
X581352Y648258D01*
X581788Y649427D01*
X584786D01*
X584364Y648379D01*
X582943Y646129D01*
X581336Y644196D01*
X579622Y642558D01*
X577875Y641194D01*
X576173Y640080D01*
X574592Y639195D01*
X573209Y638516D01*
X572101Y638020D01*
X572150Y635909D01*
X582587Y629754D01*
X582603Y624966D01*
X582515Y624637D01*
X582265Y624386D01*
X581906Y624223D01*
X581491Y624161D01*
X581075Y624212D01*
X580710Y624388D01*
X580451Y624700D01*
X580351Y625160D01*
X580334Y628333D01*
X569486Y634830D01*
X569388Y637301D01*
X568578Y637135D01*
X567708Y636993D01*
X566786Y636875D01*
X565815Y636779D01*
X564802Y636706D01*
X563752Y636654D01*
X562670Y636624D01*
X561563Y636614D01*
Y625718D01*
X568722Y623571D01*
X569126Y623341D01*
X569383Y622978D01*
X569503Y622538D01*
X569499Y622082D01*
X569382Y621665D01*
X569164Y621345D01*
X568857Y621180D01*
X568473Y621227D01*
X559049Y623931D01*
X558932Y636614D01*
X558049Y636682D01*
X556990Y636844D01*
X555816Y637082D01*
X554590Y637379D01*
X553375Y637718D01*
X552232Y638081D01*
X551223Y638451D01*
X550411Y638812D01*
X546126Y634392D01*
X548820Y627392D01*
X548938Y626776D01*
X548817Y626274D01*
X548519Y625900D01*
X548101Y625668D01*
X547625Y625595D01*
X547149Y625695D01*
X546733Y625984D01*
X546437Y626476D01*
X543088Y634359D01*
X543698Y635089D01*
X544325Y635819D01*
X544960Y636544D01*
X545594Y637259D01*
X546218Y637957D01*
X546823Y638634D01*
X547400Y639283D01*
X547940Y639899D01*
X547132Y640348D01*
X546320Y640833D01*
X545917Y641094D01*
X545520Y641369D01*
X545131Y641661D01*
X544753Y641972D01*
X544243Y642444D01*
X543913Y642803D01*
X543692Y643072D01*
X543510Y643274D01*
X543295Y643429D01*
X542977Y643562D01*
X542485Y643695D01*
X541747Y643850D01*
X540686Y644112D01*
X539800Y644381D01*
X539040Y644675D01*
X538353Y645013D01*
X537687Y645413D01*
X536990Y645893D01*
X536209Y646472D01*
X535294Y647166D01*
X534759Y646882D01*
X534041Y646494D01*
X533196Y646032D01*
X532280Y645529D01*
X531353Y645014D01*
X530469Y644519D01*
X529687Y644074D01*
X529063Y643711D01*
X529193Y638520D01*
X529115Y638097D01*
X528893Y637792D01*
X528574Y637604D01*
X528205Y637532D01*
X527834Y637576D01*
X527508Y637735D01*
X527272Y638009D01*
X527176Y638398D01*
X527008Y645296D01*
X533695Y649517D01*
X533067Y650898D01*
X532620Y652199D01*
X532355Y653448D01*
X532270Y654672D01*
X532365Y655896D01*
X532641Y657147D01*
X533096Y658452D01*
X533730Y659837D01*
X527093Y664138D01*
X526986Y671006D01*
X527078Y671393D01*
X527332Y671689D01*
X527694Y671881D01*
X528110Y671951D01*
X528525Y671884D01*
X528886Y671665D01*
X529138Y671279D01*
X529228Y670709D01*
X529347Y665641D01*
X535294Y662131D01*
X536068Y662732D01*
X536765Y663269D01*
X537120Y663525D01*
X537499Y663779D01*
X537916Y664036D01*
X538386Y664299D01*
X539024Y664618D01*
X539541Y664830D01*
X539971Y664964D01*
X540352Y665048D01*
X540719Y665113D01*
X541108Y665185D01*
X541555Y665296D01*
X542097Y665473D01*
X542592Y665721D01*
X543246Y666141D01*
X544013Y666684D01*
X544847Y667303D01*
X545703Y667950D01*
X546534Y668578D01*
X547295Y669137D01*
X547940Y669581D01*
X547305Y670225D01*
X546680Y670862D01*
X546063Y671495D01*
X545453Y672130D01*
X544846Y672771D01*
X544242Y673423D01*
X543637Y674091D01*
X543031Y674779D01*
X546474Y682505D01*
X546767Y683071D01*
X547182Y683414D01*
X547656Y683553D01*
X548128Y683501D01*
X548534Y683275D01*
X548812Y682890D01*
X548899Y682362D01*
X548732Y681707D01*
X546068Y674848D01*
X550336Y670703D01*
X550763Y670866D01*
X551246Y671035D01*
X551766Y671205D01*
X552309Y671374D01*
X552857Y671540D01*
X553395Y671699D01*
X553905Y671848D01*
X554371Y671984D01*
X554929Y672145D01*
X555483Y672296D01*
X556037Y672432D01*
X556594Y672551D01*
X557159Y672648D01*
X557733Y672722D01*
X558323Y672768D01*
X558930Y672784D01*
X559029Y684986D01*
X568015Y687548D01*
X568436Y687584D01*
X568782Y687444D01*
D02*
G37*
G36*
X539862Y659471D02*
X540254Y659118D01*
X540509Y658661D01*
X540581Y658461D01*
X540448Y657656D01*
X540047Y657219D01*
X539495Y656965D01*
X538958Y656948D01*
X538476Y657122D01*
X538090Y657446D01*
X537838Y657874D01*
X537763Y658362D01*
X537865Y658733D01*
X538430Y659417D01*
X538842Y659640D01*
X539378Y659663D01*
X539862Y659471D01*
D02*
G37*
G36*
X539816Y652329D02*
X540238Y652012D01*
X540535Y651587D01*
X540586Y651108D01*
X540563Y650618D01*
X540200Y650175D01*
X539671Y649900D01*
X539135Y649853D01*
X538636Y649993D01*
X538219Y650281D01*
X537929Y650678D01*
X537879Y651141D01*
X537903Y651636D01*
X538257Y652118D01*
X538779Y652433D01*
X539314Y652487D01*
X539816Y652329D01*
D02*
G37*
D63*
X1048200Y611650D02*
D03*
X1068200D02*
D03*
X1048200Y591650D02*
D03*
X1068200D02*
D03*
X1048200Y571650D02*
D03*
X1068200D02*
D03*
X1048200Y551650D02*
D03*
X1068200D02*
D03*
X1048200Y531650D02*
D03*
X1068200D02*
D03*
X1048200Y511650D02*
D03*
X1068200D02*
D03*
X1048200Y491650D02*
D03*
X1068200D02*
D03*
X1048200Y471650D02*
D03*
X1068200D02*
D03*
X1048200Y451650D02*
D03*
X1068200D02*
D03*
X1048200Y431650D02*
D03*
D75*
X1010000Y40500D02*
D03*
X984600D02*
D03*
X1035400D02*
D03*
D76*
X959200D02*
D03*
D77*
X940900Y729700D02*
D03*
Y704300D02*
D03*
X966300Y729700D02*
D03*
Y704300D02*
D03*
X991700Y729700D02*
D03*
Y704300D02*
D03*
X1017100Y729700D02*
D03*
X997500Y388600D02*
D03*
X1022900D02*
D03*
X997500Y363200D02*
D03*
X1022900D02*
D03*
X997500Y337800D02*
D03*
X1022900D02*
D03*
X997500Y312400D02*
D03*
X1022900D02*
D03*
X997500Y287000D02*
D03*
X1022900D02*
D03*
X997500Y261600D02*
D03*
X1022900D02*
D03*
X997500Y236200D02*
D03*
X1022900D02*
D03*
X997500Y210800D02*
D03*
X1022900D02*
D03*
X997500Y185400D02*
D03*
X1022900D02*
D03*
X997500Y160000D02*
D03*
D78*
X1017100Y704300D02*
D03*
D79*
X968000Y455000D02*
D03*
X810000Y24000D02*
D03*
X720000Y660000D02*
D03*
X420000D02*
D03*
D80*
X1068200Y431650D02*
D03*
D81*
X1022900Y160000D02*
D03*
D82*
X760000Y740500D02*
D03*
X870000D02*
D03*
X360000D02*
D03*
X250000D02*
D03*
D83*
X840000Y640500D02*
D03*
X790000D02*
D03*
X280000D02*
D03*
X330000D02*
D03*
D85*
X175000Y588000D02*
D03*
Y672000D02*
D03*
D86*
Y610000D02*
D03*
Y650000D02*
D03*
Y630000D02*
D03*
D87*
X507000Y405000D02*
D03*
X481600D02*
D03*
X456200D02*
D03*
X430800D02*
D03*
X405400D02*
D03*
X380000D02*
D03*
X354600D02*
D03*
X329200D02*
D03*
X303800D02*
D03*
X278400D02*
D03*
X253000D02*
D03*
X227600D02*
D03*
X202200D02*
D03*
X176800D02*
D03*
X151400D02*
D03*
X126000D02*
D03*
X100600D02*
D03*
X75200D02*
D03*
X49800D02*
D03*
X24400D02*
D03*
X507000Y227200D02*
D03*
X481600D02*
D03*
X456200D02*
D03*
X430800D02*
D03*
X405400D02*
D03*
X380000D02*
D03*
X354600D02*
D03*
X329200D02*
D03*
X303800D02*
D03*
X278400D02*
D03*
X253000D02*
D03*
X227600D02*
D03*
X202200D02*
D03*
X176800D02*
D03*
X151400D02*
D03*
X126000D02*
D03*
X100600D02*
D03*
X75200D02*
D03*
X49800D02*
D03*
X24400D02*
D03*
D88*
X1055500Y96250D02*
D03*
X1044000Y127000D02*
D03*
X659000Y96000D02*
D03*
X464469Y58997D02*
D03*
X855500Y370250D02*
D03*
X839500Y358000D02*
D03*
X1020000Y535000D02*
D03*
X515000Y85000D02*
D03*
X394233Y84233D02*
D03*
X366000Y106500D02*
D03*
X1020000Y563250D02*
D03*
X1014500Y447990D02*
D03*
X940250Y333000D02*
D03*
X814000Y257250D02*
D03*
X855926Y235826D02*
D03*
X847296Y237804D02*
D03*
X813977Y326463D02*
D03*
X803250Y166500D02*
D03*
X903750Y287250D02*
D03*
X1050450Y389450D02*
D03*
X858056Y296843D02*
D03*
X1033500Y330000D02*
D03*
X940250Y301000D02*
D03*
X940000Y268000D02*
D03*
X926000Y264000D02*
D03*
X854875Y268000D02*
D03*
X690412Y203048D02*
D03*
X868000Y313250D02*
D03*
X1103000Y605000D02*
D03*
X1085000Y155000D02*
D03*
X1002000Y553000D02*
D03*
X1058000Y762000D02*
D03*
X1113000Y708000D02*
D03*
X1032052Y645052D02*
D03*
X1059000Y411000D02*
D03*
X1082750Y502000D02*
D03*
X1112000Y447000D02*
D03*
Y534000D02*
D03*
X1055000Y12000D02*
D03*
X959250Y103000D02*
D03*
X983000Y86000D02*
D03*
X1108000Y76000D02*
D03*
X1053000Y270000D02*
D03*
X1086000Y281000D02*
D03*
X1069000Y326000D02*
D03*
X1086000Y376000D02*
D03*
X1039000Y226000D02*
D03*
X1112000Y240000D02*
D03*
X1113000Y348000D02*
D03*
X947561Y631474D02*
D03*
X984656Y645000D02*
D03*
X985000Y635000D02*
D03*
X1020250Y624250D02*
D03*
X950000Y501000D02*
D03*
X985000Y515000D02*
D03*
X997000Y599000D02*
D03*
X950500Y534500D02*
D03*
X956000Y564250D02*
D03*
X964000Y557000D02*
D03*
X984000Y584000D02*
D03*
X985000Y574000D02*
D03*
X1016000Y501000D02*
D03*
X1019750Y596750D02*
D03*
X965105Y536000D02*
D03*
X933000Y613000D02*
D03*
X868412Y329048D02*
D03*
X791412Y435048D02*
D03*
X933500Y625750D02*
D03*
X1020000Y655630D02*
D03*
X688000Y687090D02*
D03*
X387500Y686500D02*
D03*
X463000Y687090D02*
D03*
X506000Y686000D02*
D03*
X760500Y447750D02*
D03*
X782732Y352368D02*
D03*
X680000Y129000D02*
D03*
X674180Y158280D02*
D03*
X678412Y187048D02*
D03*
X541000Y382048D02*
D03*
X547000Y301000D02*
D03*
X696000Y157000D02*
D03*
X785412Y295048D02*
D03*
X814242Y394284D02*
D03*
X816205Y386014D02*
D03*
X815750Y373750D02*
D03*
X855500Y403000D02*
D03*
X854750Y334500D02*
D03*
X825750Y157750D02*
D03*
X815000Y242353D02*
D03*
X596000Y108500D02*
D03*
X605804D02*
D03*
X872000Y430354D02*
D03*
X797000Y225000D02*
D03*
X319250Y187500D02*
D03*
X282000Y460250D02*
D03*
X266000Y444750D02*
D03*
X272000Y368500D02*
D03*
X265682Y362814D02*
D03*
X294250Y330500D02*
D03*
X292000Y376000D02*
D03*
X260000Y318750D02*
D03*
X278268Y305000D02*
D03*
X496000Y252000D02*
D03*
X488000Y316000D02*
D03*
X574000Y351000D02*
D03*
X292500Y467000D02*
D03*
X220000Y308000D02*
D03*
X227750Y292500D02*
D03*
X194500Y188281D02*
D03*
X195257Y107257D02*
D03*
X311000Y380000D02*
D03*
X215250Y175750D02*
D03*
X233600Y175000D02*
D03*
X244250Y177750D02*
D03*
X217218Y268703D02*
D03*
X299750Y176250D02*
D03*
X319000Y179000D02*
D03*
X392493Y129493D02*
D03*
X349750Y145000D02*
D03*
X652152Y146520D02*
D03*
X515000Y54000D02*
D03*
X570000Y295048D02*
D03*
X815950Y303950D02*
D03*
X720000Y129000D02*
D03*
X919000Y629000D02*
D03*
X899500Y256251D02*
D03*
X815388Y313135D02*
D03*
X940250Y234750D02*
D03*
X898500Y166500D02*
D03*
X880000Y129000D02*
D03*
X840000D02*
D03*
X994000Y415000D02*
D03*
X996000Y653000D02*
D03*
X536412Y186048D02*
D03*
X528332Y423775D02*
D03*
X900691Y395118D02*
D03*
X901500Y386657D02*
D03*
X901308Y372207D02*
D03*
X940250Y371000D02*
D03*
X916412Y465895D02*
D03*
X121000Y510000D02*
D03*
Y466000D02*
D03*
X595094Y120906D02*
D03*
X323000Y83000D02*
D03*
X688000Y74000D02*
D03*
X661412Y47000D02*
D03*
X131412Y714048D02*
D03*
X218412Y678048D02*
D03*
X733412Y446048D02*
D03*
X443412Y443048D02*
D03*
X588412Y442048D02*
D03*
X792412Y419048D02*
D03*
X109000Y575000D02*
D03*
X30000D02*
D03*
X890412Y594048D02*
D03*
X883412Y552048D02*
D03*
X142412Y494048D02*
D03*
X167412Y468048D02*
D03*
X547412Y115048D02*
D03*
X506412Y160048D02*
D03*
X611412Y157048D02*
D03*
X870412Y474048D02*
D03*
X867000Y233000D02*
D03*
X726000Y760000D02*
D03*
X659000Y736000D02*
D03*
X613000Y762000D02*
D03*
X570000Y736000D02*
D03*
X394724Y736923D02*
D03*
X501000Y760000D02*
D03*
X438000Y737000D02*
D03*
X306000Y656000D02*
D03*
X217000Y565000D02*
D03*
X258000Y543000D02*
D03*
X227000Y550000D02*
D03*
X22000Y357000D02*
D03*
X17000Y278000D02*
D03*
X133000Y273000D02*
D03*
X74000Y255000D02*
D03*
X49000Y120000D02*
D03*
X158000Y107000D02*
D03*
X196533Y9942D02*
D03*
X329000Y8000D02*
D03*
X332000Y112000D02*
D03*
X368000Y175000D02*
D03*
X113000Y194000D02*
D03*
X125318Y309305D02*
D03*
X161000Y268000D02*
D03*
X198000Y288000D02*
D03*
X260000Y282000D02*
D03*
X513000Y181000D02*
D03*
X251000Y340000D02*
D03*
X144896Y477510D02*
D03*
X652000Y189000D02*
D03*
X884000Y486750D02*
D03*
X886500Y506000D02*
D03*
X576000Y573000D02*
D03*
X821000Y555000D02*
D03*
X609971Y179029D02*
D03*
X595500Y160000D02*
D03*
X765000Y55000D02*
D03*
X606000Y120000D02*
D03*
X760000Y129000D02*
D03*
X765000Y85000D02*
D03*
X207829Y464259D02*
D03*
X216250Y448000D02*
D03*
X900750Y243500D02*
D03*
X901500Y307500D02*
D03*
X899250Y321000D02*
D03*
X113500Y151000D02*
D03*
X173500D02*
D03*
X60000Y169000D02*
D03*
X118750Y169750D02*
D03*
X297000Y502000D02*
D03*
X661750Y173250D02*
D03*
X514000Y527000D02*
D03*
Y517000D02*
D03*
Y507000D02*
D03*
X489000Y527000D02*
D03*
X499000D02*
D03*
X489000Y537000D02*
D03*
X499000D02*
D03*
Y547000D02*
D03*
X489000D02*
D03*
X499000Y557000D02*
D03*
X489000D02*
D03*
X939750Y403250D02*
D03*
X147000Y461000D02*
D03*
X596000Y133000D02*
D03*
X800000Y129000D02*
D03*
X930000Y237000D02*
D03*
X821000Y564000D02*
D03*
Y573000D02*
D03*
Y587000D02*
D03*
X795810Y552355D02*
D03*
X564000Y502000D02*
D03*
X634000Y557000D02*
D03*
Y547000D02*
D03*
X644000Y557000D02*
D03*
X634000Y537000D02*
D03*
X644000Y547000D02*
D03*
X419000Y502000D02*
D03*
X716000Y573000D02*
D03*
Y564000D02*
D03*
X576000D02*
D03*
X431000D02*
D03*
Y573000D02*
D03*
X395000Y25000D02*
D03*
X431000Y555000D02*
D03*
X564000Y582000D02*
D03*
X60000Y7000D02*
D03*
X7000Y60000D02*
D03*
Y710000D02*
D03*
X64000Y762000D02*
D03*
X344000Y557000D02*
D03*
X354000D02*
D03*
X344000Y547000D02*
D03*
X354000D02*
D03*
Y537000D02*
D03*
X344000D02*
D03*
X354000Y527000D02*
D03*
X344000D02*
D03*
X634000Y527000D02*
D03*
X644000D02*
D03*
Y537000D02*
D03*
X40000Y317000D02*
D03*
X515000Y25000D02*
D03*
X395000Y55000D02*
D03*
X225000Y103000D02*
D03*
Y12000D02*
D03*
X96000D02*
D03*
Y103000D02*
D03*
X169000Y60000D02*
D03*
X298000Y59000D02*
D03*
X123000Y60000D02*
D03*
X252000Y59000D02*
D03*
X769000Y545000D02*
D03*
X716000Y555000D02*
D03*
X576000D02*
D03*
X659000Y527000D02*
D03*
Y517000D02*
D03*
Y507000D02*
D03*
X369000Y507000D02*
D03*
Y517000D02*
D03*
Y527000D02*
D03*
X719000Y502000D02*
D03*
X704000D02*
D03*
Y582000D02*
D03*
X419000D02*
D03*
M02*
