G04*
G04 #@! TF.GenerationSoftware,Altium Limited,Altium Designer,23.3.1 (30)*
G04*
G04 Layer_Physical_Order=1*
G04 Layer_Color=255*
%FSLAX44Y44*%
%MOMM*%
G71*
G04*
G04 #@! TF.SameCoordinates,CE036B66-C370-4B77-A0BB-D4AF881507E5*
G04*
G04*
G04 #@! TF.FilePolarity,Positive*
G04*
G01*
G75*
%ADD10C,0.2000*%
%ADD11C,0.3000*%
%ADD13C,0.2500*%
%ADD17C,0.2911*%
G04:AMPARAMS|DCode=18|XSize=0.85mm|YSize=0.85mm|CornerRadius=0.2125mm|HoleSize=0mm|Usage=FLASHONLY|Rotation=90.000|XOffset=0mm|YOffset=0mm|HoleType=Round|Shape=RoundedRectangle|*
%AMROUNDEDRECTD18*
21,1,0.8500,0.4250,0,0,90.0*
21,1,0.4250,0.8500,0,0,90.0*
1,1,0.4250,0.2125,0.2125*
1,1,0.4250,0.2125,-0.2125*
1,1,0.4250,-0.2125,-0.2125*
1,1,0.4250,-0.2125,0.2125*
%
%ADD18ROUNDEDRECTD18*%
G04:AMPARAMS|DCode=19|XSize=1.4mm|YSize=1.4mm|CornerRadius=0.35mm|HoleSize=0mm|Usage=FLASHONLY|Rotation=0.000|XOffset=0mm|YOffset=0mm|HoleType=Round|Shape=RoundedRectangle|*
%AMROUNDEDRECTD19*
21,1,1.4000,0.7000,0,0,0.0*
21,1,0.7000,1.4000,0,0,0.0*
1,1,0.7000,0.3500,-0.3500*
1,1,0.7000,-0.3500,-0.3500*
1,1,0.7000,-0.3500,0.3500*
1,1,0.7000,0.3500,0.3500*
%
%ADD19ROUNDEDRECTD19*%
%ADD20R,1.2000X0.9000*%
G04:AMPARAMS|DCode=21|XSize=1.19mm|YSize=0.4mm|CornerRadius=0.05mm|HoleSize=0mm|Usage=FLASHONLY|Rotation=0.000|XOffset=0mm|YOffset=0mm|HoleType=Round|Shape=RoundedRectangle|*
%AMROUNDEDRECTD21*
21,1,1.1900,0.3000,0,0,0.0*
21,1,1.0900,0.4000,0,0,0.0*
1,1,0.1000,0.5450,-0.1500*
1,1,0.1000,-0.5450,-0.1500*
1,1,0.1000,-0.5450,0.1500*
1,1,0.1000,0.5450,0.1500*
%
%ADD21ROUNDEDRECTD21*%
G04:AMPARAMS|DCode=22|XSize=1.21mm|YSize=0.59mm|CornerRadius=0.0738mm|HoleSize=0mm|Usage=FLASHONLY|Rotation=0.000|XOffset=0mm|YOffset=0mm|HoleType=Round|Shape=RoundedRectangle|*
%AMROUNDEDRECTD22*
21,1,1.2100,0.4425,0,0,0.0*
21,1,1.0625,0.5900,0,0,0.0*
1,1,0.1475,0.5313,-0.2213*
1,1,0.1475,-0.5313,-0.2213*
1,1,0.1475,-0.5313,0.2213*
1,1,0.1475,0.5313,0.2213*
%
%ADD22ROUNDEDRECTD22*%
G04:AMPARAMS|DCode=23|XSize=0.85mm|YSize=0.85mm|CornerRadius=0.2125mm|HoleSize=0mm|Usage=FLASHONLY|Rotation=0.000|XOffset=0mm|YOffset=0mm|HoleType=Round|Shape=RoundedRectangle|*
%AMROUNDEDRECTD23*
21,1,0.8500,0.4250,0,0,0.0*
21,1,0.4250,0.8500,0,0,0.0*
1,1,0.4250,0.2125,-0.2125*
1,1,0.4250,-0.2125,-0.2125*
1,1,0.4250,-0.2125,0.2125*
1,1,0.4250,0.2125,0.2125*
%
%ADD23ROUNDEDRECTD23*%
G04:AMPARAMS|DCode=24|XSize=1mm|YSize=1.4mm|CornerRadius=0.25mm|HoleSize=0mm|Usage=FLASHONLY|Rotation=270.000|XOffset=0mm|YOffset=0mm|HoleType=Round|Shape=RoundedRectangle|*
%AMROUNDEDRECTD24*
21,1,1.0000,0.9000,0,0,270.0*
21,1,0.5000,1.4000,0,0,270.0*
1,1,0.5000,-0.4500,-0.2500*
1,1,0.5000,-0.4500,0.2500*
1,1,0.5000,0.4500,0.2500*
1,1,0.5000,0.4500,-0.2500*
%
%ADD24ROUNDEDRECTD24*%
%ADD25O,4.0000X2.0000*%
G04:AMPARAMS|DCode=26|XSize=1mm|YSize=1.4mm|CornerRadius=0.25mm|HoleSize=0mm|Usage=FLASHONLY|Rotation=180.000|XOffset=0mm|YOffset=0mm|HoleType=Round|Shape=RoundedRectangle|*
%AMROUNDEDRECTD26*
21,1,1.0000,0.9000,0,0,180.0*
21,1,0.5000,1.4000,0,0,180.0*
1,1,0.5000,-0.2500,0.4500*
1,1,0.5000,0.2500,0.4500*
1,1,0.5000,0.2500,-0.4500*
1,1,0.5000,-0.2500,-0.4500*
%
%ADD26ROUNDEDRECTD26*%
G04:AMPARAMS|DCode=27|XSize=1.14mm|YSize=0.59mm|CornerRadius=0.1475mm|HoleSize=0mm|Usage=FLASHONLY|Rotation=270.000|XOffset=0mm|YOffset=0mm|HoleType=Round|Shape=RoundedRectangle|*
%AMROUNDEDRECTD27*
21,1,1.1400,0.2950,0,0,270.0*
21,1,0.8450,0.5900,0,0,270.0*
1,1,0.2950,-0.1475,-0.4225*
1,1,0.2950,-0.1475,0.4225*
1,1,0.2950,0.1475,0.4225*
1,1,0.2950,0.1475,-0.4225*
%
%ADD27ROUNDEDRECTD27*%
G04:AMPARAMS|DCode=28|XSize=3.8mm|YSize=2mm|CornerRadius=0.5mm|HoleSize=0mm|Usage=FLASHONLY|Rotation=270.000|XOffset=0mm|YOffset=0mm|HoleType=Round|Shape=RoundedRectangle|*
%AMROUNDEDRECTD28*
21,1,3.8000,1.0000,0,0,270.0*
21,1,2.8000,2.0000,0,0,270.0*
1,1,1.0000,-0.5000,-1.4000*
1,1,1.0000,-0.5000,1.4000*
1,1,1.0000,0.5000,1.4000*
1,1,1.0000,0.5000,-1.4000*
%
%ADD28ROUNDEDRECTD28*%
G04:AMPARAMS|DCode=29|XSize=1.5mm|YSize=2mm|CornerRadius=0.375mm|HoleSize=0mm|Usage=FLASHONLY|Rotation=270.000|XOffset=0mm|YOffset=0mm|HoleType=Round|Shape=RoundedRectangle|*
%AMROUNDEDRECTD29*
21,1,1.5000,1.2500,0,0,270.0*
21,1,0.7500,2.0000,0,0,270.0*
1,1,0.7500,-0.6250,-0.3750*
1,1,0.7500,-0.6250,0.3750*
1,1,0.7500,0.6250,0.3750*
1,1,0.7500,0.6250,-0.3750*
%
%ADD29ROUNDEDRECTD29*%
G04:AMPARAMS|DCode=30|XSize=1.55mm|YSize=1.3mm|CornerRadius=0.325mm|HoleSize=0mm|Usage=FLASHONLY|Rotation=90.000|XOffset=0mm|YOffset=0mm|HoleType=Round|Shape=RoundedRectangle|*
%AMROUNDEDRECTD30*
21,1,1.5500,0.6500,0,0,90.0*
21,1,0.9000,1.3000,0,0,90.0*
1,1,0.6500,0.3250,0.4500*
1,1,0.6500,0.3250,-0.4500*
1,1,0.6500,-0.3250,-0.4500*
1,1,0.6500,-0.3250,0.4500*
%
%ADD30ROUNDEDRECTD30*%
G04:AMPARAMS|DCode=31|XSize=1.9812mm|YSize=0.5334mm|CornerRadius=0.1333mm|HoleSize=0mm|Usage=FLASHONLY|Rotation=0.000|XOffset=0mm|YOffset=0mm|HoleType=Round|Shape=RoundedRectangle|*
%AMROUNDEDRECTD31*
21,1,1.9812,0.2667,0,0,0.0*
21,1,1.7145,0.5334,0,0,0.0*
1,1,0.2667,0.8573,-0.1333*
1,1,0.2667,-0.8573,-0.1333*
1,1,0.2667,-0.8573,0.1333*
1,1,0.2667,0.8573,0.1333*
%
%ADD31ROUNDEDRECTD31*%
%ADD63C,1.3000*%
%ADD65C,1.0000*%
G04:AMPARAMS|DCode=66|XSize=1.524mm|YSize=1.905mm|CornerRadius=0.381mm|HoleSize=0mm|Usage=FLASHONLY|Rotation=90.000|XOffset=0mm|YOffset=0mm|HoleType=Round|Shape=RoundedRectangle|*
%AMROUNDEDRECTD66*
21,1,1.5240,1.1430,0,0,90.0*
21,1,0.7620,1.9050,0,0,90.0*
1,1,0.7620,0.5715,0.3810*
1,1,0.7620,0.5715,-0.3810*
1,1,0.7620,-0.5715,-0.3810*
1,1,0.7620,-0.5715,0.3810*
%
%ADD66ROUNDEDRECTD66*%
G04:AMPARAMS|DCode=67|XSize=1.5mm|YSize=1.5mm|CornerRadius=0.3mm|HoleSize=0mm|Usage=FLASHONLY|Rotation=90.000|XOffset=0mm|YOffset=0mm|HoleType=Round|Shape=RoundedRectangle|*
%AMROUNDEDRECTD67*
21,1,1.5000,0.9000,0,0,90.0*
21,1,0.9000,1.5000,0,0,90.0*
1,1,0.6000,0.4500,0.4500*
1,1,0.6000,0.4500,-0.4500*
1,1,0.6000,-0.4500,-0.4500*
1,1,0.6000,-0.4500,0.4500*
%
%ADD67ROUNDEDRECTD67*%
%ADD68O,1.8000X1.1000*%
%ADD69O,1.4500X1.0500*%
%ADD70C,0.1790*%
%ADD71C,0.1793*%
%ADD72C,0.4000*%
%ADD73C,0.5000*%
%ADD74C,0.1300*%
%ADD75O,1.7000X2.0000*%
%ADD76R,1.7000X2.0000*%
%ADD77C,1.6000*%
G04:AMPARAMS|DCode=78|XSize=1.6mm|YSize=1.6mm|CornerRadius=0.4mm|HoleSize=0mm|Usage=FLASHONLY|Rotation=180.000|XOffset=0mm|YOffset=0mm|HoleType=Round|Shape=RoundedRectangle|*
%AMROUNDEDRECTD78*
21,1,1.6000,0.8000,0,0,180.0*
21,1,0.8000,1.6000,0,0,180.0*
1,1,0.8000,-0.4000,0.4000*
1,1,0.8000,0.4000,0.4000*
1,1,0.8000,0.4000,-0.4000*
1,1,0.8000,-0.4000,-0.4000*
%
%ADD78ROUNDEDRECTD78*%
G04:AMPARAMS|DCode=79|XSize=1.7mm|YSize=2mm|CornerRadius=0.425mm|HoleSize=0mm|Usage=FLASHONLY|Rotation=90.000|XOffset=0mm|YOffset=0mm|HoleType=Round|Shape=RoundedRectangle|*
%AMROUNDEDRECTD79*
21,1,1.7000,1.1500,0,0,90.0*
21,1,0.8500,2.0000,0,0,90.0*
1,1,0.8500,0.5750,0.4250*
1,1,0.8500,0.5750,-0.4250*
1,1,0.8500,-0.5750,-0.4250*
1,1,0.8500,-0.5750,0.4250*
%
%ADD79ROUNDEDRECTD79*%
G04:AMPARAMS|DCode=80|XSize=1.3mm|YSize=1.3mm|CornerRadius=0.325mm|HoleSize=0mm|Usage=FLASHONLY|Rotation=90.000|XOffset=0mm|YOffset=0mm|HoleType=Round|Shape=RoundedRectangle|*
%AMROUNDEDRECTD80*
21,1,1.3000,0.6500,0,0,90.0*
21,1,0.6500,1.3000,0,0,90.0*
1,1,0.6500,0.3250,0.3250*
1,1,0.6500,0.3250,-0.3250*
1,1,0.6500,-0.3250,-0.3250*
1,1,0.6500,-0.3250,0.3250*
%
%ADD80ROUNDEDRECTD80*%
G04:AMPARAMS|DCode=81|XSize=1.6mm|YSize=1.6mm|CornerRadius=0.4mm|HoleSize=0mm|Usage=FLASHONLY|Rotation=90.000|XOffset=0mm|YOffset=0mm|HoleType=Round|Shape=RoundedRectangle|*
%AMROUNDEDRECTD81*
21,1,1.6000,0.8000,0,0,90.0*
21,1,0.8000,1.6000,0,0,90.0*
1,1,0.8000,0.4000,0.4000*
1,1,0.8000,0.4000,-0.4000*
1,1,0.8000,-0.4000,-0.4000*
1,1,0.8000,-0.4000,0.4000*
%
%ADD81ROUNDEDRECTD81*%
%ADD82C,1.5080*%
%ADD83C,2.5500*%
%ADD84R,2.5500X2.5500*%
%ADD85O,1.8000X1.0000*%
%ADD86C,1.2000*%
%ADD87O,1.5240X1.9050*%
%ADD88C,0.7000*%
G36*
X187959Y672347D02*
X191053Y671065D01*
X193837Y669205D01*
X196205Y666837D01*
X198065Y664053D01*
X199347Y660959D01*
X200000Y657674D01*
X200000Y656000D01*
X200000Y656000D01*
X200000Y656000D01*
Y587000D01*
X200098Y583992D01*
X200884Y578026D01*
X202441Y572214D01*
X204743Y566655D01*
X207752Y561444D01*
X211415Y556670D01*
X215670Y552415D01*
X220443Y548752D01*
X221916Y547902D01*
X222337Y546884D01*
X223885Y545337D01*
X225906Y544500D01*
X228094D01*
X228376Y544617D01*
X231213Y543441D01*
X237025Y541884D01*
X242991Y541099D01*
X245999Y541000D01*
X252875D01*
X253337Y539884D01*
X254884Y538337D01*
X256906Y537500D01*
X259094D01*
X261115Y538337D01*
X262663Y539884D01*
X263125Y541000D01*
X281576D01*
X284667Y540385D01*
X287579Y539179D01*
X290199Y537428D01*
X292428Y535199D01*
X294179Y532579D01*
X295385Y529667D01*
X296000Y526576D01*
Y507500D01*
X295906D01*
X293885Y506663D01*
X293356Y506715D01*
X293099Y507099D01*
X291735Y508011D01*
X290125Y508331D01*
X285875D01*
X284265Y508011D01*
X282901Y507099D01*
X281989Y505734D01*
X281669Y504125D01*
Y499875D01*
X281989Y498265D01*
X282901Y496901D01*
X284265Y495989D01*
X285875Y495669D01*
X290125D01*
X291735Y495989D01*
X293099Y496901D01*
X293356Y497285D01*
X293885Y497337D01*
X295769Y496557D01*
X295500Y495208D01*
X294520Y492842D01*
X293098Y490713D01*
X291287Y488902D01*
X289158Y487480D01*
X286792Y486500D01*
X284280Y486000D01*
X261692D01*
X259119Y486000D01*
X253999Y486504D01*
X248952Y487508D01*
X244028Y489002D01*
X239274Y490971D01*
X234736Y493396D01*
X230458Y496255D01*
X226480Y499519D01*
X224661Y501339D01*
X224661Y501339D01*
X224661Y501339D01*
X169364Y556636D01*
X168016Y557984D01*
X165598Y560931D01*
X163480Y564100D01*
X161683Y567462D01*
X160224Y570984D01*
X159117Y574632D01*
X158374Y578371D01*
X158000Y582165D01*
X158000Y584071D01*
X158000Y584071D01*
Y661000D01*
X158000Y662182D01*
X158461Y664500D01*
X159366Y666684D01*
X160679Y668650D01*
X162350Y670321D01*
X163015Y670765D01*
X163928Y670351D01*
X164231Y670050D01*
X164886Y668470D01*
X166008Y667008D01*
X167470Y665885D01*
X169173Y665180D01*
X171000Y664940D01*
X179000D01*
X180827Y665180D01*
X182530Y665885D01*
X183992Y667008D01*
X185114Y668470D01*
X185820Y670173D01*
X185987Y671444D01*
X187139Y672510D01*
X187959Y672347D01*
D02*
G37*
G36*
X719000Y611750D02*
X719985Y611750D01*
X721917Y611366D01*
X723737Y610612D01*
X725375Y609518D01*
X726767Y608125D01*
X727862Y606487D01*
X728616Y604667D01*
X728957Y602950D01*
X729000Y601752D01*
Y601750D01*
X729000Y601750D01*
X729000Y601750D01*
X729000Y451750D01*
X729000Y450765D01*
X728618Y448847D01*
X727912Y447142D01*
Y447134D01*
X727862Y447013D01*
X726768Y445375D01*
X725375Y443982D01*
X723737Y442888D01*
X721917Y442134D01*
X719985Y441750D01*
X719000Y441750D01*
X604000D01*
X603015Y441750D01*
X601083Y442134D01*
X599263Y442888D01*
X597625Y443982D01*
X596232Y445375D01*
X595138Y447013D01*
X594384Y448833D01*
X594000Y450765D01*
X594000Y451750D01*
X594000Y451750D01*
X594000Y601750D01*
X594000Y602735D01*
X594384Y604667D01*
X595138Y606487D01*
X596232Y608125D01*
X597625Y609518D01*
X599263Y610612D01*
X601083Y611366D01*
X603015Y611750D01*
X604000Y611750D01*
X604000Y611750D01*
X719000Y611750D01*
D02*
G37*
G36*
X864000Y611750D02*
X864985Y611750D01*
X866917Y611366D01*
X868737Y610612D01*
X870375Y609518D01*
X871767Y608125D01*
X872862Y606487D01*
X873616Y604667D01*
X873957Y602950D01*
X874000Y601752D01*
Y601750D01*
X874000Y601750D01*
X874000Y601750D01*
X874000Y479889D01*
X872730Y479041D01*
X871506Y479548D01*
X869318D01*
X867297Y478710D01*
X865749Y477163D01*
X864912Y475142D01*
Y472954D01*
X865749Y470932D01*
X867297Y469385D01*
X869318Y468548D01*
X871506D01*
X872730Y469055D01*
X874000Y468206D01*
Y451750D01*
X874000Y450765D01*
X873616Y448833D01*
X872862Y447013D01*
X871768Y445375D01*
X870375Y443982D01*
X870331Y443953D01*
X824250D01*
X823120Y443728D01*
X822162Y443088D01*
X820824Y441750D01*
X749000D01*
X748015Y441750D01*
X746083Y442134D01*
X744263Y442888D01*
X742625Y443982D01*
X741233Y445375D01*
X740138Y447013D01*
X739384Y448833D01*
X739000Y450765D01*
X739000Y451750D01*
X739000Y451750D01*
X739000Y601750D01*
X739000Y602735D01*
X739384Y604667D01*
X740138Y606487D01*
X741233Y608125D01*
X742625Y609518D01*
X744263Y610612D01*
X746083Y611366D01*
X748015Y611750D01*
X749000Y611750D01*
X749000Y611750D01*
X864000Y611750D01*
D02*
G37*
G36*
X574000D02*
X574985Y611750D01*
X576917Y611366D01*
X578737Y610612D01*
X580375Y609518D01*
X581768Y608125D01*
X582862Y606487D01*
X583616Y604667D01*
X583957Y602950D01*
X584000Y601752D01*
Y601750D01*
X584000Y601750D01*
X584000Y601750D01*
X584000Y451750D01*
X584000Y450765D01*
X583616Y448833D01*
X582862Y447013D01*
X581768Y445375D01*
X580375Y443982D01*
X578737Y442888D01*
X576917Y442134D01*
X574985Y441750D01*
X574000Y441750D01*
X459000D01*
X458015Y441750D01*
X456083Y442134D01*
X454263Y442888D01*
X452625Y443982D01*
X451232Y445375D01*
X450138Y447013D01*
X449384Y448833D01*
X449000Y450765D01*
X449000Y451750D01*
X449000Y451750D01*
X449000Y601750D01*
X449000Y602735D01*
X449384Y604667D01*
X450138Y606487D01*
X451232Y608125D01*
X452625Y609518D01*
X454263Y610612D01*
X456083Y611366D01*
X458015Y611750D01*
X459000Y611750D01*
X459000Y611750D01*
X574000Y611750D01*
D02*
G37*
G36*
X429000D02*
X429985Y611750D01*
X431917Y611366D01*
X433737Y610612D01*
X435375Y609518D01*
X436768Y608125D01*
X437862Y606487D01*
X438616Y604667D01*
X438957Y602950D01*
X439000Y601752D01*
Y601750D01*
X439000Y601750D01*
X439000Y601750D01*
X439000Y451750D01*
X439000Y450765D01*
X438616Y448833D01*
X437862Y447013D01*
X436768Y445375D01*
X435375Y443982D01*
X433737Y442888D01*
X431917Y442134D01*
X429985Y441750D01*
X429000Y441750D01*
X314000D01*
X313015Y441750D01*
X311574Y442037D01*
X304287Y449324D01*
X304000Y450765D01*
X304000Y451750D01*
X304000Y451750D01*
X304000Y601750D01*
X304000Y602735D01*
X304384Y604667D01*
X305138Y606487D01*
X306232Y608125D01*
X307625Y609518D01*
X309263Y610612D01*
X311083Y611366D01*
X313015Y611750D01*
X314000Y611750D01*
X314000Y611750D01*
X429000Y611750D01*
D02*
G37*
G36*
X285000Y663000D02*
X286477Y663000D01*
X289375Y662423D01*
X292105Y661293D01*
X294562Y659651D01*
X296651Y657562D01*
X298293Y655105D01*
X299424Y652375D01*
X300000Y649477D01*
X300000Y648000D01*
X300000Y648000D01*
X300000Y648000D01*
X300000Y561000D01*
X300000Y559523D01*
X299424Y556624D01*
X298293Y553895D01*
X296651Y551438D01*
X294562Y549348D01*
X292105Y547707D01*
X289375Y546576D01*
X286477Y546000D01*
X285000Y546000D01*
X285000Y546000D01*
X285000Y546000D01*
Y546000D01*
X265347Y546000D01*
X262710D01*
X262663Y546115D01*
X261115Y547663D01*
X259094Y548500D01*
X256906D01*
X254884Y547663D01*
X254040Y546819D01*
X251895Y547707D01*
X249438Y549349D01*
X247349Y551438D01*
X245707Y553895D01*
X244576Y556625D01*
X244000Y559523D01*
X244000Y561000D01*
Y649000D01*
Y650379D01*
X244538Y653084D01*
X245593Y655631D01*
X247125Y657924D01*
X249076Y659874D01*
X251369Y661407D01*
X253916Y662462D01*
X256621Y663000D01*
X258000D01*
X285000Y663000D01*
D02*
G37*
G36*
X722840Y433218D02*
X716266Y425522D01*
X711801Y429336D01*
X718375Y437032D01*
X722840Y433218D01*
D02*
G37*
G36*
X645137Y421850D02*
X638693Y421394D01*
X637860Y433162D01*
X644304Y433619D01*
X645137Y421850D01*
D02*
G37*
G36*
X676570Y419910D02*
X669037Y418194D01*
X666607Y428858D01*
X674139Y430574D01*
X676570Y419910D01*
D02*
G37*
G36*
X515000Y405000D02*
X514989Y404581D01*
X514956Y404164D01*
X514902Y403749D01*
X514825Y403337D01*
X514727Y402929D01*
X514608Y402528D01*
X514469Y402133D01*
X514308Y401746D01*
X514128Y401368D01*
X513928Y401000D01*
X513709Y400643D01*
X513472Y400298D01*
X513217Y399965D01*
X512945Y399647D01*
X512657Y399343D01*
X512353Y399055D01*
X512035Y398783D01*
X511702Y398528D01*
X511357Y398291D01*
X511000Y398072D01*
X510632Y397872D01*
X510254Y397692D01*
X509867Y397531D01*
X509472Y397392D01*
X509071Y397273D01*
X508663Y397175D01*
X508251Y397099D01*
X507836Y397044D01*
X507419Y397011D01*
X507000Y397000D01*
X506581Y397011D01*
X506164Y397044D01*
X505748Y397099D01*
X505337Y397175D01*
X504929Y397273D01*
X504528Y397392D01*
X504133Y397531D01*
X503746Y397692D01*
X503368Y397872D01*
X503000Y398072D01*
X502643Y398291D01*
X502298Y398528D01*
X501965Y398783D01*
X501647Y399055D01*
X501343Y399343D01*
X501055Y399647D01*
X500783Y399965D01*
X500528Y400298D01*
X500291Y400643D01*
X500072Y401000D01*
X499872Y401368D01*
X499692Y401746D01*
X499531Y402133D01*
X499392Y402528D01*
X499273Y402929D01*
X499175Y403337D01*
X499099Y403749D01*
X499044Y404164D01*
X499011Y404581D01*
X499000Y405000D01*
Y429000D01*
X515000D01*
Y405000D01*
D02*
G37*
G36*
X489600D02*
X489589Y404581D01*
X489556Y404164D01*
X489501Y403749D01*
X489425Y403337D01*
X489327Y402929D01*
X489208Y402528D01*
X489069Y402133D01*
X488908Y401746D01*
X488728Y401368D01*
X488528Y401000D01*
X488309Y400643D01*
X488072Y400298D01*
X487817Y399965D01*
X487545Y399647D01*
X487257Y399343D01*
X486953Y399055D01*
X486635Y398783D01*
X486302Y398528D01*
X485957Y398291D01*
X485600Y398072D01*
X485232Y397872D01*
X484854Y397692D01*
X484467Y397531D01*
X484072Y397392D01*
X483671Y397273D01*
X483263Y397175D01*
X482851Y397099D01*
X482436Y397044D01*
X482019Y397011D01*
X481600Y397000D01*
X481181Y397011D01*
X480764Y397044D01*
X480349Y397099D01*
X479937Y397175D01*
X479529Y397273D01*
X479128Y397392D01*
X478733Y397531D01*
X478346Y397692D01*
X477968Y397872D01*
X477600Y398072D01*
X477243Y398291D01*
X476898Y398528D01*
X476565Y398783D01*
X476247Y399055D01*
X475943Y399343D01*
X475655Y399647D01*
X475383Y399965D01*
X475128Y400298D01*
X474891Y400643D01*
X474672Y401000D01*
X474472Y401368D01*
X474292Y401746D01*
X474131Y402133D01*
X473992Y402528D01*
X473873Y402929D01*
X473775Y403337D01*
X473699Y403749D01*
X473644Y404164D01*
X473611Y404581D01*
X473600Y405000D01*
Y429000D01*
X489600D01*
Y405000D01*
D02*
G37*
G36*
X464200Y399000D02*
X464197Y398895D01*
X464189Y398791D01*
X464175Y398687D01*
X464156Y398584D01*
X464132Y398482D01*
X464102Y398382D01*
X464067Y398283D01*
X464027Y398186D01*
X463982Y398092D01*
X463932Y398000D01*
X463877Y397911D01*
X463818Y397824D01*
X463754Y397741D01*
X463686Y397662D01*
X463614Y397586D01*
X463538Y397514D01*
X463459Y397446D01*
X463376Y397382D01*
X463289Y397323D01*
X463200Y397268D01*
X463108Y397218D01*
X463013Y397173D01*
X462917Y397133D01*
X462818Y397098D01*
X462718Y397068D01*
X462616Y397044D01*
X462513Y397025D01*
X462409Y397011D01*
X462305Y397003D01*
X462200Y397000D01*
X450200D01*
X450095Y397003D01*
X449991Y397011D01*
X449887Y397025D01*
X449784Y397044D01*
X449682Y397068D01*
X449582Y397098D01*
X449483Y397133D01*
X449386Y397173D01*
X449292Y397218D01*
X449200Y397268D01*
X449111Y397323D01*
X449024Y397382D01*
X448941Y397446D01*
X448862Y397514D01*
X448786Y397586D01*
X448714Y397662D01*
X448646Y397741D01*
X448582Y397824D01*
X448523Y397911D01*
X448468Y398000D01*
X448418Y398092D01*
X448373Y398186D01*
X448333Y398283D01*
X448298Y398382D01*
X448268Y398482D01*
X448244Y398584D01*
X448225Y398687D01*
X448211Y398791D01*
X448203Y398895D01*
X448200Y399000D01*
Y429000D01*
X464200D01*
Y399000D01*
D02*
G37*
G36*
X438800Y405000D02*
X438789Y404581D01*
X438756Y404164D01*
X438702Y403749D01*
X438625Y403337D01*
X438527Y402929D01*
X438408Y402528D01*
X438269Y402133D01*
X438108Y401746D01*
X437928Y401368D01*
X437728Y401000D01*
X437509Y400643D01*
X437272Y400298D01*
X437017Y399965D01*
X436745Y399647D01*
X436457Y399343D01*
X436153Y399055D01*
X435835Y398783D01*
X435502Y398528D01*
X435157Y398291D01*
X434800Y398072D01*
X434432Y397872D01*
X434054Y397692D01*
X433667Y397531D01*
X433272Y397392D01*
X432871Y397273D01*
X432463Y397175D01*
X432052Y397099D01*
X431636Y397044D01*
X431219Y397011D01*
X430800Y397000D01*
X430381Y397011D01*
X429964Y397044D01*
X429548Y397099D01*
X429137Y397175D01*
X428729Y397273D01*
X428328Y397392D01*
X427933Y397531D01*
X427546Y397692D01*
X427168Y397872D01*
X426800Y398072D01*
X426443Y398291D01*
X426098Y398528D01*
X425765Y398783D01*
X425447Y399055D01*
X425143Y399343D01*
X424855Y399647D01*
X424583Y399965D01*
X424328Y400298D01*
X424091Y400643D01*
X423872Y401000D01*
X423672Y401368D01*
X423492Y401746D01*
X423331Y402133D01*
X423192Y402528D01*
X423073Y402929D01*
X422975Y403337D01*
X422898Y403749D01*
X422844Y404164D01*
X422811Y404581D01*
X422800Y405000D01*
Y429000D01*
X438800D01*
Y405000D01*
D02*
G37*
G36*
X413400D02*
X413389Y404581D01*
X413356Y404164D01*
X413302Y403749D01*
X413225Y403337D01*
X413127Y402929D01*
X413008Y402528D01*
X412869Y402133D01*
X412708Y401746D01*
X412528Y401368D01*
X412328Y401000D01*
X412109Y400643D01*
X411872Y400298D01*
X411617Y399965D01*
X411345Y399647D01*
X411057Y399343D01*
X410753Y399055D01*
X410435Y398783D01*
X410102Y398528D01*
X409757Y398291D01*
X409400Y398072D01*
X409032Y397872D01*
X408654Y397692D01*
X408267Y397531D01*
X407872Y397392D01*
X407471Y397273D01*
X407063Y397175D01*
X406651Y397099D01*
X406236Y397044D01*
X405819Y397011D01*
X405400Y397000D01*
X404981Y397011D01*
X404564Y397044D01*
X404148Y397099D01*
X403737Y397175D01*
X403329Y397273D01*
X402928Y397392D01*
X402533Y397531D01*
X402146Y397692D01*
X401768Y397872D01*
X401400Y398072D01*
X401043Y398291D01*
X400698Y398528D01*
X400365Y398783D01*
X400047Y399055D01*
X399743Y399343D01*
X399455Y399647D01*
X399183Y399965D01*
X398928Y400298D01*
X398691Y400643D01*
X398472Y401000D01*
X398272Y401368D01*
X398092Y401746D01*
X397931Y402133D01*
X397792Y402528D01*
X397673Y402929D01*
X397575Y403337D01*
X397499Y403749D01*
X397444Y404164D01*
X397411Y404581D01*
X397400Y405000D01*
Y429000D01*
X413400D01*
Y405000D01*
D02*
G37*
G36*
X388000D02*
X387989Y404581D01*
X387956Y404164D01*
X387901Y403749D01*
X387825Y403337D01*
X387727Y402929D01*
X387608Y402528D01*
X387469Y402133D01*
X387308Y401746D01*
X387128Y401368D01*
X386928Y401000D01*
X386709Y400643D01*
X386472Y400298D01*
X386217Y399965D01*
X385945Y399647D01*
X385657Y399343D01*
X385353Y399055D01*
X385035Y398783D01*
X384702Y398528D01*
X384357Y398291D01*
X384000Y398072D01*
X383632Y397872D01*
X383254Y397692D01*
X382867Y397531D01*
X382472Y397392D01*
X382071Y397273D01*
X381663Y397175D01*
X381251Y397099D01*
X380836Y397044D01*
X380419Y397011D01*
X380000Y397000D01*
X379581Y397011D01*
X379164Y397044D01*
X378749Y397099D01*
X378337Y397175D01*
X377929Y397273D01*
X377528Y397392D01*
X377133Y397531D01*
X376746Y397692D01*
X376368Y397872D01*
X376000Y398072D01*
X375643Y398291D01*
X375298Y398528D01*
X374965Y398783D01*
X374647Y399055D01*
X374343Y399343D01*
X374055Y399647D01*
X373783Y399965D01*
X373528Y400298D01*
X373291Y400643D01*
X373072Y401000D01*
X372872Y401368D01*
X372692Y401746D01*
X372531Y402133D01*
X372392Y402528D01*
X372273Y402929D01*
X372175Y403337D01*
X372099Y403749D01*
X372044Y404164D01*
X372011Y404581D01*
X372000Y405000D01*
Y429000D01*
X388000D01*
Y405000D01*
D02*
G37*
G36*
X362600D02*
X362589Y404581D01*
X362556Y404164D01*
X362501Y403749D01*
X362425Y403337D01*
X362327Y402929D01*
X362208Y402528D01*
X362069Y402133D01*
X361908Y401746D01*
X361728Y401368D01*
X361528Y401000D01*
X361309Y400643D01*
X361072Y400298D01*
X360817Y399965D01*
X360545Y399647D01*
X360257Y399343D01*
X359953Y399055D01*
X359635Y398783D01*
X359302Y398528D01*
X358957Y398291D01*
X358600Y398072D01*
X358232Y397872D01*
X357854Y397692D01*
X357467Y397531D01*
X357072Y397392D01*
X356671Y397273D01*
X356263Y397175D01*
X355852Y397099D01*
X355436Y397044D01*
X355019Y397011D01*
X354600Y397000D01*
X354181Y397011D01*
X353764Y397044D01*
X353349Y397099D01*
X352937Y397175D01*
X352529Y397273D01*
X352128Y397392D01*
X351733Y397531D01*
X351346Y397692D01*
X350968Y397872D01*
X350600Y398072D01*
X350243Y398291D01*
X349898Y398528D01*
X349565Y398783D01*
X349247Y399055D01*
X348943Y399343D01*
X348655Y399647D01*
X348383Y399965D01*
X348128Y400298D01*
X347891Y400643D01*
X347672Y401000D01*
X347472Y401368D01*
X347292Y401746D01*
X347131Y402133D01*
X346992Y402528D01*
X346873Y402929D01*
X346775Y403337D01*
X346698Y403749D01*
X346644Y404164D01*
X346611Y404581D01*
X346600Y405000D01*
Y429000D01*
X362600D01*
Y405000D01*
D02*
G37*
G36*
X337200Y399000D02*
X337197Y398895D01*
X337189Y398791D01*
X337175Y398687D01*
X337156Y398584D01*
X337132Y398482D01*
X337102Y398382D01*
X337067Y398283D01*
X337027Y398186D01*
X336982Y398092D01*
X336932Y398000D01*
X336877Y397911D01*
X336818Y397824D01*
X336754Y397741D01*
X336686Y397662D01*
X336614Y397586D01*
X336538Y397514D01*
X336459Y397446D01*
X336376Y397382D01*
X336289Y397323D01*
X336200Y397268D01*
X336108Y397218D01*
X336013Y397173D01*
X335917Y397133D01*
X335818Y397098D01*
X335718Y397068D01*
X335616Y397044D01*
X335513Y397025D01*
X335409Y397011D01*
X335305Y397003D01*
X335200Y397000D01*
X323200D01*
X323095Y397003D01*
X322991Y397011D01*
X322887Y397025D01*
X322784Y397044D01*
X322682Y397068D01*
X322582Y397098D01*
X322483Y397133D01*
X322387Y397173D01*
X322292Y397218D01*
X322200Y397268D01*
X322111Y397323D01*
X322024Y397382D01*
X321941Y397446D01*
X321862Y397514D01*
X321786Y397586D01*
X321714Y397662D01*
X321646Y397741D01*
X321582Y397824D01*
X321523Y397911D01*
X321468Y398000D01*
X321418Y398092D01*
X321373Y398186D01*
X321333Y398283D01*
X321298Y398382D01*
X321268Y398482D01*
X321244Y398584D01*
X321225Y398687D01*
X321211Y398791D01*
X321203Y398895D01*
X321200Y399000D01*
Y429000D01*
X337200D01*
Y399000D01*
D02*
G37*
G36*
X311800Y405000D02*
X311789Y404581D01*
X311756Y404164D01*
X311702Y403749D01*
X311625Y403337D01*
X311527Y402929D01*
X311408Y402528D01*
X311269Y402133D01*
X311108Y401746D01*
X310928Y401368D01*
X310728Y401000D01*
X310509Y400643D01*
X310272Y400298D01*
X310017Y399965D01*
X309745Y399647D01*
X309457Y399343D01*
X309153Y399055D01*
X308835Y398783D01*
X308502Y398528D01*
X308157Y398291D01*
X307800Y398072D01*
X307432Y397872D01*
X307054Y397692D01*
X306667Y397531D01*
X306272Y397392D01*
X305871Y397273D01*
X305463Y397175D01*
X305051Y397099D01*
X304636Y397044D01*
X304219Y397011D01*
X303800Y397000D01*
X303381Y397011D01*
X302964Y397044D01*
X302549Y397099D01*
X302137Y397175D01*
X301729Y397273D01*
X301328Y397392D01*
X300933Y397531D01*
X300546Y397692D01*
X300168Y397872D01*
X299800Y398072D01*
X299443Y398291D01*
X299098Y398528D01*
X298765Y398783D01*
X298447Y399055D01*
X298143Y399343D01*
X297855Y399647D01*
X297583Y399965D01*
X297328Y400298D01*
X297091Y400643D01*
X296872Y401000D01*
X296672Y401368D01*
X296492Y401746D01*
X296331Y402133D01*
X296192Y402528D01*
X296073Y402929D01*
X295975Y403337D01*
X295898Y403749D01*
X295844Y404164D01*
X295811Y404581D01*
X295800Y405000D01*
Y429000D01*
X311800D01*
Y405000D01*
D02*
G37*
G36*
X286400D02*
X286389Y404581D01*
X286356Y404164D01*
X286301Y403749D01*
X286225Y403337D01*
X286127Y402929D01*
X286008Y402528D01*
X285869Y402133D01*
X285708Y401746D01*
X285528Y401368D01*
X285328Y401000D01*
X285109Y400643D01*
X284872Y400298D01*
X284617Y399965D01*
X284345Y399647D01*
X284057Y399343D01*
X283753Y399055D01*
X283435Y398783D01*
X283102Y398528D01*
X282757Y398291D01*
X282400Y398072D01*
X282032Y397872D01*
X281654Y397692D01*
X281267Y397531D01*
X280872Y397392D01*
X280471Y397273D01*
X280063Y397175D01*
X279652Y397099D01*
X279236Y397044D01*
X278819Y397011D01*
X278400Y397000D01*
X277981Y397011D01*
X277564Y397044D01*
X277148Y397099D01*
X276737Y397175D01*
X276329Y397273D01*
X275928Y397392D01*
X275533Y397531D01*
X275146Y397692D01*
X274768Y397872D01*
X274400Y398072D01*
X274043Y398291D01*
X273698Y398528D01*
X273365Y398783D01*
X273047Y399055D01*
X272743Y399343D01*
X272455Y399647D01*
X272183Y399965D01*
X271928Y400298D01*
X271691Y400643D01*
X271472Y401000D01*
X271272Y401368D01*
X271092Y401746D01*
X270931Y402133D01*
X270792Y402528D01*
X270673Y402929D01*
X270575Y403337D01*
X270499Y403749D01*
X270444Y404164D01*
X270411Y404581D01*
X270400Y405000D01*
Y429000D01*
X286400D01*
Y405000D01*
D02*
G37*
G36*
X261000D02*
X260989Y404581D01*
X260956Y404164D01*
X260902Y403749D01*
X260825Y403337D01*
X260727Y402929D01*
X260608Y402528D01*
X260469Y402133D01*
X260308Y401746D01*
X260128Y401368D01*
X259928Y401000D01*
X259709Y400643D01*
X259472Y400298D01*
X259217Y399965D01*
X258945Y399647D01*
X258657Y399343D01*
X258353Y399055D01*
X258035Y398783D01*
X257702Y398528D01*
X257357Y398291D01*
X257000Y398072D01*
X256632Y397872D01*
X256254Y397692D01*
X255867Y397531D01*
X255472Y397392D01*
X255071Y397273D01*
X254663Y397175D01*
X254251Y397099D01*
X253836Y397044D01*
X253419Y397011D01*
X253000Y397000D01*
X252581Y397011D01*
X252164Y397044D01*
X251749Y397099D01*
X251337Y397175D01*
X250929Y397273D01*
X250528Y397392D01*
X250133Y397531D01*
X249746Y397692D01*
X249368Y397872D01*
X249000Y398072D01*
X248643Y398291D01*
X248298Y398528D01*
X247965Y398783D01*
X247647Y399055D01*
X247343Y399343D01*
X247055Y399647D01*
X246783Y399965D01*
X246528Y400298D01*
X246291Y400643D01*
X246072Y401000D01*
X245872Y401368D01*
X245692Y401746D01*
X245531Y402133D01*
X245392Y402528D01*
X245273Y402929D01*
X245175Y403337D01*
X245098Y403749D01*
X245044Y404164D01*
X245011Y404581D01*
X245000Y405000D01*
Y429000D01*
X261000D01*
Y405000D01*
D02*
G37*
G36*
X235600D02*
X235589Y404581D01*
X235556Y404164D01*
X235501Y403749D01*
X235425Y403337D01*
X235327Y402929D01*
X235208Y402528D01*
X235069Y402133D01*
X234908Y401746D01*
X234728Y401368D01*
X234528Y401000D01*
X234309Y400643D01*
X234072Y400298D01*
X233817Y399965D01*
X233545Y399647D01*
X233257Y399343D01*
X232953Y399055D01*
X232635Y398783D01*
X232302Y398528D01*
X231957Y398291D01*
X231600Y398072D01*
X231232Y397872D01*
X230854Y397692D01*
X230467Y397531D01*
X230072Y397392D01*
X229671Y397273D01*
X229263Y397175D01*
X228852Y397099D01*
X228436Y397044D01*
X228019Y397011D01*
X227600Y397000D01*
X227181Y397011D01*
X226764Y397044D01*
X226348Y397099D01*
X225937Y397175D01*
X225529Y397273D01*
X225128Y397392D01*
X224733Y397531D01*
X224346Y397692D01*
X223968Y397872D01*
X223600Y398072D01*
X223243Y398291D01*
X222898Y398528D01*
X222565Y398783D01*
X222247Y399055D01*
X221943Y399343D01*
X221655Y399647D01*
X221383Y399965D01*
X221128Y400298D01*
X220891Y400643D01*
X220672Y401000D01*
X220472Y401368D01*
X220292Y401746D01*
X220131Y402133D01*
X219992Y402528D01*
X219873Y402929D01*
X219775Y403337D01*
X219699Y403749D01*
X219644Y404164D01*
X219611Y404581D01*
X219600Y405000D01*
Y429000D01*
X235600D01*
Y405000D01*
D02*
G37*
G36*
X210200Y399000D02*
X210197Y398895D01*
X210189Y398791D01*
X210175Y398687D01*
X210156Y398584D01*
X210132Y398482D01*
X210102Y398382D01*
X210067Y398283D01*
X210027Y398186D01*
X209982Y398092D01*
X209932Y398000D01*
X209877Y397911D01*
X209818Y397824D01*
X209754Y397741D01*
X209686Y397662D01*
X209614Y397586D01*
X209538Y397514D01*
X209459Y397446D01*
X209376Y397382D01*
X209289Y397323D01*
X209200Y397268D01*
X209108Y397218D01*
X209014Y397173D01*
X208917Y397133D01*
X208818Y397098D01*
X208718Y397068D01*
X208616Y397044D01*
X208513Y397025D01*
X208409Y397011D01*
X208305Y397003D01*
X208200Y397000D01*
X196200D01*
X196095Y397003D01*
X195991Y397011D01*
X195887Y397025D01*
X195784Y397044D01*
X195682Y397068D01*
X195582Y397098D01*
X195483Y397133D01*
X195387Y397173D01*
X195292Y397218D01*
X195200Y397268D01*
X195111Y397323D01*
X195024Y397382D01*
X194941Y397446D01*
X194862Y397514D01*
X194786Y397586D01*
X194714Y397662D01*
X194646Y397741D01*
X194582Y397824D01*
X194523Y397911D01*
X194468Y398000D01*
X194418Y398092D01*
X194373Y398186D01*
X194333Y398283D01*
X194298Y398382D01*
X194268Y398482D01*
X194244Y398584D01*
X194225Y398687D01*
X194211Y398791D01*
X194203Y398895D01*
X194200Y399000D01*
Y429000D01*
X210200D01*
Y399000D01*
D02*
G37*
G36*
X184800Y405000D02*
X184789Y404581D01*
X184756Y404164D01*
X184701Y403749D01*
X184625Y403337D01*
X184527Y402929D01*
X184408Y402528D01*
X184269Y402133D01*
X184108Y401746D01*
X183928Y401368D01*
X183728Y401000D01*
X183509Y400643D01*
X183272Y400298D01*
X183017Y399965D01*
X182745Y399647D01*
X182457Y399343D01*
X182153Y399055D01*
X181835Y398783D01*
X181502Y398528D01*
X181157Y398291D01*
X180800Y398072D01*
X180432Y397872D01*
X180054Y397692D01*
X179667Y397531D01*
X179272Y397392D01*
X178871Y397273D01*
X178463Y397175D01*
X178051Y397099D01*
X177636Y397044D01*
X177219Y397011D01*
X176800Y397000D01*
X176381Y397011D01*
X175964Y397044D01*
X175548Y397099D01*
X175137Y397175D01*
X174729Y397273D01*
X174328Y397392D01*
X173933Y397531D01*
X173546Y397692D01*
X173168Y397872D01*
X172800Y398072D01*
X172443Y398291D01*
X172098Y398528D01*
X171765Y398783D01*
X171447Y399055D01*
X171143Y399343D01*
X170855Y399647D01*
X170583Y399965D01*
X170328Y400298D01*
X170091Y400643D01*
X169872Y401000D01*
X169672Y401368D01*
X169492Y401746D01*
X169331Y402133D01*
X169192Y402528D01*
X169073Y402929D01*
X168975Y403337D01*
X168899Y403749D01*
X168844Y404164D01*
X168811Y404581D01*
X168800Y405000D01*
Y429000D01*
X184800D01*
Y405000D01*
D02*
G37*
G36*
X159400D02*
X159389Y404581D01*
X159356Y404164D01*
X159302Y403749D01*
X159225Y403337D01*
X159127Y402929D01*
X159008Y402528D01*
X158869Y402133D01*
X158708Y401746D01*
X158528Y401368D01*
X158328Y401000D01*
X158109Y400643D01*
X157872Y400298D01*
X157617Y399965D01*
X157345Y399647D01*
X157057Y399343D01*
X156753Y399055D01*
X156435Y398783D01*
X156102Y398528D01*
X155757Y398291D01*
X155400Y398072D01*
X155032Y397872D01*
X154654Y397692D01*
X154267Y397531D01*
X153872Y397392D01*
X153471Y397273D01*
X153063Y397175D01*
X152652Y397099D01*
X152236Y397044D01*
X151819Y397011D01*
X151400Y397000D01*
X150981Y397011D01*
X150564Y397044D01*
X150148Y397099D01*
X149737Y397175D01*
X149329Y397273D01*
X148928Y397392D01*
X148533Y397531D01*
X148146Y397692D01*
X147768Y397872D01*
X147400Y398072D01*
X147043Y398291D01*
X146698Y398528D01*
X146365Y398783D01*
X146047Y399055D01*
X145743Y399343D01*
X145455Y399647D01*
X145183Y399965D01*
X144928Y400298D01*
X144691Y400643D01*
X144472Y401000D01*
X144272Y401368D01*
X144092Y401746D01*
X143931Y402133D01*
X143792Y402528D01*
X143673Y402929D01*
X143575Y403337D01*
X143498Y403749D01*
X143444Y404164D01*
X143411Y404581D01*
X143400Y405000D01*
Y429000D01*
X159400D01*
Y405000D01*
D02*
G37*
G36*
X134000D02*
X133989Y404581D01*
X133956Y404164D01*
X133902Y403749D01*
X133825Y403337D01*
X133727Y402929D01*
X133608Y402528D01*
X133469Y402133D01*
X133308Y401746D01*
X133128Y401368D01*
X132928Y401000D01*
X132709Y400643D01*
X132472Y400298D01*
X132217Y399965D01*
X131945Y399647D01*
X131657Y399343D01*
X131353Y399055D01*
X131035Y398783D01*
X130702Y398528D01*
X130357Y398291D01*
X130000Y398072D01*
X129632Y397872D01*
X129254Y397692D01*
X128867Y397531D01*
X128472Y397392D01*
X128071Y397273D01*
X127663Y397175D01*
X127252Y397099D01*
X126836Y397044D01*
X126419Y397011D01*
X126000Y397000D01*
X125581Y397011D01*
X125164Y397044D01*
X124748Y397099D01*
X124337Y397175D01*
X123929Y397273D01*
X123528Y397392D01*
X123133Y397531D01*
X122746Y397692D01*
X122368Y397872D01*
X122000Y398072D01*
X121643Y398291D01*
X121298Y398528D01*
X120965Y398783D01*
X120647Y399055D01*
X120343Y399343D01*
X120055Y399647D01*
X119783Y399965D01*
X119528Y400298D01*
X119291Y400643D01*
X119072Y401000D01*
X118872Y401368D01*
X118692Y401746D01*
X118531Y402133D01*
X118392Y402528D01*
X118273Y402929D01*
X118175Y403337D01*
X118098Y403749D01*
X118044Y404164D01*
X118011Y404581D01*
X118000Y405000D01*
Y429000D01*
X134000D01*
Y405000D01*
D02*
G37*
G36*
X108600D02*
X108589Y404581D01*
X108556Y404164D01*
X108502Y403749D01*
X108425Y403337D01*
X108327Y402929D01*
X108208Y402528D01*
X108069Y402133D01*
X107908Y401746D01*
X107728Y401368D01*
X107528Y401000D01*
X107309Y400643D01*
X107072Y400298D01*
X106817Y399965D01*
X106545Y399647D01*
X106257Y399343D01*
X105953Y399055D01*
X105635Y398783D01*
X105302Y398528D01*
X104957Y398291D01*
X104600Y398072D01*
X104232Y397872D01*
X103854Y397692D01*
X103467Y397531D01*
X103072Y397392D01*
X102671Y397273D01*
X102263Y397175D01*
X101852Y397099D01*
X101436Y397044D01*
X101019Y397011D01*
X100600Y397000D01*
X100181Y397011D01*
X99764Y397044D01*
X99348Y397099D01*
X98937Y397175D01*
X98529Y397273D01*
X98128Y397392D01*
X97733Y397531D01*
X97346Y397692D01*
X96968Y397872D01*
X96600Y398072D01*
X96243Y398291D01*
X95898Y398528D01*
X95565Y398783D01*
X95247Y399055D01*
X94943Y399343D01*
X94655Y399647D01*
X94383Y399965D01*
X94128Y400298D01*
X93891Y400643D01*
X93672Y401000D01*
X93472Y401368D01*
X93292Y401746D01*
X93131Y402133D01*
X92992Y402528D01*
X92873Y402929D01*
X92775Y403337D01*
X92698Y403749D01*
X92644Y404164D01*
X92611Y404581D01*
X92600Y405000D01*
Y429000D01*
X108600D01*
Y405000D01*
D02*
G37*
G36*
X83200Y399000D02*
X83197Y398895D01*
X83189Y398791D01*
X83175Y398687D01*
X83156Y398584D01*
X83132Y398482D01*
X83102Y398382D01*
X83067Y398283D01*
X83027Y398186D01*
X82982Y398092D01*
X82932Y398000D01*
X82877Y397911D01*
X82818Y397824D01*
X82754Y397741D01*
X82686Y397662D01*
X82614Y397586D01*
X82538Y397514D01*
X82459Y397446D01*
X82376Y397382D01*
X82289Y397323D01*
X82200Y397268D01*
X82108Y397218D01*
X82014Y397173D01*
X81917Y397133D01*
X81818Y397098D01*
X81718Y397068D01*
X81616Y397044D01*
X81513Y397025D01*
X81409Y397011D01*
X81305Y397003D01*
X81200Y397000D01*
X69200D01*
X69095Y397003D01*
X68991Y397011D01*
X68887Y397025D01*
X68784Y397044D01*
X68682Y397068D01*
X68582Y397098D01*
X68483Y397133D01*
X68387Y397173D01*
X68292Y397218D01*
X68200Y397268D01*
X68111Y397323D01*
X68024Y397382D01*
X67941Y397446D01*
X67862Y397514D01*
X67786Y397586D01*
X67714Y397662D01*
X67646Y397741D01*
X67582Y397824D01*
X67523Y397911D01*
X67468Y398000D01*
X67418Y398092D01*
X67373Y398186D01*
X67333Y398283D01*
X67298Y398382D01*
X67268Y398482D01*
X67244Y398584D01*
X67225Y398687D01*
X67211Y398791D01*
X67203Y398895D01*
X67200Y399000D01*
Y429000D01*
X83200D01*
Y399000D01*
D02*
G37*
G36*
X57800Y405000D02*
X57789Y404581D01*
X57756Y404164D01*
X57702Y403749D01*
X57625Y403337D01*
X57527Y402929D01*
X57408Y402528D01*
X57269Y402133D01*
X57108Y401746D01*
X56928Y401368D01*
X56728Y401000D01*
X56509Y400643D01*
X56272Y400298D01*
X56017Y399965D01*
X55745Y399647D01*
X55457Y399343D01*
X55153Y399055D01*
X54835Y398783D01*
X54502Y398528D01*
X54157Y398291D01*
X53800Y398072D01*
X53432Y397872D01*
X53054Y397692D01*
X52667Y397531D01*
X52272Y397392D01*
X51871Y397273D01*
X51463Y397175D01*
X51052Y397099D01*
X50636Y397044D01*
X50219Y397011D01*
X49800Y397000D01*
X49381Y397011D01*
X48964Y397044D01*
X48548Y397099D01*
X48137Y397175D01*
X47729Y397273D01*
X47328Y397392D01*
X46933Y397531D01*
X46546Y397692D01*
X46168Y397872D01*
X45800Y398072D01*
X45443Y398291D01*
X45098Y398528D01*
X44765Y398783D01*
X44447Y399055D01*
X44143Y399343D01*
X43855Y399647D01*
X43583Y399965D01*
X43328Y400298D01*
X43091Y400643D01*
X42872Y401000D01*
X42672Y401368D01*
X42492Y401746D01*
X42331Y402133D01*
X42192Y402528D01*
X42073Y402929D01*
X41975Y403337D01*
X41898Y403749D01*
X41844Y404164D01*
X41811Y404581D01*
X41800Y405000D01*
Y429000D01*
X57800D01*
Y405000D01*
D02*
G37*
G36*
X32400D02*
X32389Y404581D01*
X32356Y404164D01*
X32301Y403749D01*
X32225Y403337D01*
X32127Y402929D01*
X32008Y402528D01*
X31869Y402133D01*
X31708Y401746D01*
X31528Y401368D01*
X31328Y401000D01*
X31109Y400643D01*
X30872Y400298D01*
X30617Y399965D01*
X30345Y399647D01*
X30057Y399343D01*
X29753Y399055D01*
X29435Y398783D01*
X29102Y398528D01*
X28757Y398291D01*
X28400Y398072D01*
X28032Y397872D01*
X27654Y397692D01*
X27267Y397531D01*
X26872Y397392D01*
X26471Y397273D01*
X26063Y397175D01*
X25652Y397099D01*
X25236Y397044D01*
X24819Y397011D01*
X24400Y397000D01*
X23981Y397011D01*
X23564Y397044D01*
X23149Y397099D01*
X22737Y397175D01*
X22329Y397273D01*
X21928Y397392D01*
X21533Y397531D01*
X21146Y397692D01*
X20768Y397872D01*
X20400Y398072D01*
X20043Y398291D01*
X19698Y398528D01*
X19365Y398783D01*
X19047Y399055D01*
X18743Y399343D01*
X18455Y399647D01*
X18183Y399965D01*
X17928Y400298D01*
X17691Y400643D01*
X17472Y401000D01*
X17272Y401368D01*
X17092Y401746D01*
X16931Y402133D01*
X16792Y402528D01*
X16673Y402929D01*
X16575Y403337D01*
X16499Y403749D01*
X16444Y404164D01*
X16411Y404581D01*
X16400Y405000D01*
Y429000D01*
X32400D01*
Y405000D01*
D02*
G37*
G36*
X596624Y396460D02*
X589206Y395416D01*
X587397Y408270D01*
X594815Y409314D01*
X596624Y396460D01*
D02*
G37*
G36*
X878721Y385845D02*
X879451Y384740D01*
X879346Y384212D01*
Y383500D01*
X896449D01*
X896824Y383575D01*
X896837Y383541D01*
X898384Y381994D01*
X900406Y381157D01*
X902594D01*
X903390Y381487D01*
X904446Y380781D01*
Y379787D01*
X904659Y378719D01*
X905079Y378090D01*
X905190Y377250D01*
X905079Y376410D01*
X904659Y375781D01*
X904446Y374712D01*
Y370288D01*
X904659Y369219D01*
X905264Y368314D01*
X905499Y368156D01*
X905434Y366736D01*
X904519Y365821D01*
X903454Y365380D01*
X902254Y365213D01*
X902253D01*
X902253Y365213D01*
X902253Y365213D01*
X880254Y365213D01*
X879458Y365213D01*
X877988Y365821D01*
X876862Y366947D01*
X876416Y368025D01*
X876254Y369212D01*
X876254Y369212D01*
X876254Y369213D01*
Y382212D01*
X876254Y383207D01*
X877015Y385045D01*
X877949Y385979D01*
X878506Y385990D01*
X878721Y385845D01*
D02*
G37*
G36*
X793721D02*
X794451Y384740D01*
X794346Y384212D01*
Y383500D01*
X802450D01*
Y380500D01*
X794346D01*
Y379787D01*
X794559Y378719D01*
X794979Y378090D01*
X795090Y377250D01*
X794979Y376410D01*
X794559Y375781D01*
X794346Y374712D01*
Y374000D01*
X810554D01*
Y374712D01*
X810341Y375781D01*
X809921Y376410D01*
X809810Y377250D01*
X809921Y378090D01*
X810341Y378719D01*
X810554Y379787D01*
Y382218D01*
X811824Y382617D01*
X813089Y381351D01*
X815110Y380514D01*
X817299D01*
X818176Y380877D01*
X819446Y380029D01*
Y379787D01*
X819659Y378719D01*
X820079Y378090D01*
X820190Y377250D01*
X820079Y376410D01*
X819659Y375781D01*
X819446Y374712D01*
Y370288D01*
X819659Y369219D01*
X820264Y368314D01*
X820500Y368156D01*
X820434Y366736D01*
X819519Y365821D01*
X818454Y365380D01*
X817254Y365213D01*
X817253D01*
X817253Y365213D01*
X817253Y365213D01*
X795254Y365213D01*
X794458Y365213D01*
X792988Y365821D01*
X791863Y366947D01*
X791416Y368025D01*
X791254Y369212D01*
X791254Y369212D01*
X791254Y369213D01*
Y382212D01*
X791254Y383207D01*
X792015Y385045D01*
X792949Y385979D01*
X793506Y385990D01*
X793721Y385845D01*
D02*
G37*
G36*
X643627Y348679D02*
X648296Y352231D01*
X655704Y343605D01*
X662706Y355580D01*
X683154Y351470D01*
X718926Y315241D01*
X720449Y288755D01*
X686789Y252384D01*
X606283Y262116D01*
X582079Y302759D01*
X612701Y353455D01*
X616228Y346548D01*
X639365Y359943D01*
X643627Y348679D01*
D02*
G37*
G36*
X528700Y333500D02*
X504700D01*
X504281Y333511D01*
X503864Y333544D01*
X503448Y333599D01*
X503037Y333675D01*
X502629Y333773D01*
X502228Y333891D01*
X501833Y334031D01*
X501446Y334192D01*
X501068Y334372D01*
X500700Y334572D01*
X500343Y334791D01*
X499998Y335028D01*
X499665Y335283D01*
X499347Y335555D01*
X499043Y335843D01*
X498755Y336147D01*
X498483Y336465D01*
X498228Y336798D01*
X497991Y337143D01*
X497772Y337500D01*
X497572Y337868D01*
X497392Y338246D01*
X497231Y338633D01*
X497091Y339028D01*
X496973Y339429D01*
X496875Y339837D01*
X496799Y340248D01*
X496744Y340664D01*
X496711Y341081D01*
X496700Y341500D01*
X496711Y341919D01*
X496744Y342336D01*
X496799Y342752D01*
X496875Y343163D01*
X496973Y343571D01*
X497091Y343972D01*
X497231Y344367D01*
X497392Y344754D01*
X497572Y345132D01*
X497772Y345500D01*
X497991Y345857D01*
X498228Y346202D01*
X498483Y346535D01*
X498755Y346853D01*
X499043Y347157D01*
X499347Y347445D01*
X499665Y347717D01*
X499998Y347972D01*
X500343Y348209D01*
X500700Y348428D01*
X501068Y348628D01*
X501446Y348808D01*
X501833Y348969D01*
X502228Y349108D01*
X502629Y349227D01*
X503037Y349325D01*
X503448Y349402D01*
X503864Y349456D01*
X504281Y349489D01*
X504700Y349500D01*
X528700D01*
Y333500D01*
D02*
G37*
G36*
X904392Y316927D02*
X904861Y315583D01*
X904659Y315281D01*
X904446Y314212D01*
Y309788D01*
X904659Y308719D01*
X905079Y308090D01*
X905190Y307250D01*
X905079Y306410D01*
X904659Y305781D01*
X904446Y304713D01*
Y300287D01*
X904659Y299219D01*
X905264Y298314D01*
X905499Y298157D01*
X905434Y296736D01*
X905007Y296309D01*
X898500D01*
X897329Y296076D01*
X896337Y295413D01*
X896337Y295413D01*
X896137Y295213D01*
X880254Y295213D01*
X879458Y295213D01*
X877988Y295821D01*
X876862Y296947D01*
X876416Y298025D01*
X876254Y299212D01*
X876254Y299213D01*
X876254Y299213D01*
Y312213D01*
X876254Y313207D01*
X877015Y315045D01*
X877949Y315979D01*
X878506Y315991D01*
X878721Y315845D01*
X879451Y314740D01*
X879346Y314212D01*
Y313500D01*
X895554D01*
Y314212D01*
X895341Y315281D01*
X895232Y315443D01*
X896134Y316337D01*
X898156Y315500D01*
X900344D01*
X902365Y316337D01*
X903202Y317174D01*
X904392Y316927D01*
D02*
G37*
G36*
X528700Y308100D02*
X498700D01*
X498595Y308103D01*
X498491Y308111D01*
X498387Y308125D01*
X498284Y308144D01*
X498182Y308168D01*
X498082Y308198D01*
X497983Y308233D01*
X497887Y308273D01*
X497792Y308318D01*
X497700Y308368D01*
X497611Y308423D01*
X497524Y308482D01*
X497441Y308546D01*
X497362Y308614D01*
X497286Y308686D01*
X497214Y308762D01*
X497146Y308841D01*
X497082Y308924D01*
X497023Y309011D01*
X496968Y309100D01*
X496918Y309192D01*
X496873Y309286D01*
X496833Y309383D01*
X496798Y309482D01*
X496768Y309582D01*
X496744Y309684D01*
X496725Y309787D01*
X496711Y309891D01*
X496703Y309995D01*
X496700Y310100D01*
Y322100D01*
X496703Y322205D01*
X496711Y322309D01*
X496725Y322413D01*
X496744Y322516D01*
X496768Y322618D01*
X496798Y322718D01*
X496833Y322817D01*
X496873Y322914D01*
X496918Y323008D01*
X496968Y323100D01*
X497023Y323189D01*
X497082Y323276D01*
X497146Y323359D01*
X497214Y323438D01*
X497286Y323514D01*
X497362Y323586D01*
X497441Y323654D01*
X497524Y323718D01*
X497611Y323777D01*
X497700Y323832D01*
X497792Y323882D01*
X497887Y323927D01*
X497983Y323967D01*
X498082Y324002D01*
X498182Y324032D01*
X498284Y324056D01*
X498387Y324075D01*
X498491Y324089D01*
X498595Y324097D01*
X498700Y324100D01*
X528700D01*
Y308100D01*
D02*
G37*
G36*
X793721Y315845D02*
X794451Y314740D01*
X794346Y314212D01*
Y313500D01*
X802450D01*
Y310500D01*
X794346D01*
Y309788D01*
X794559Y308719D01*
X794979Y308090D01*
X795090Y307250D01*
X794979Y306410D01*
X794559Y305781D01*
X794346Y304713D01*
Y304000D01*
X810554D01*
Y304713D01*
X810341Y305781D01*
X809921Y306410D01*
X809810Y307250D01*
X809921Y308090D01*
X810296Y308652D01*
X810372Y308727D01*
X811701Y309044D01*
X812272Y308472D01*
X814294Y307635D01*
X816482D01*
X818432Y308443D01*
X818555Y308471D01*
X820014Y308187D01*
X820079Y308090D01*
X820190Y307250D01*
X820079Y306410D01*
X819659Y305781D01*
X819446Y304713D01*
Y300287D01*
X819659Y299219D01*
X820264Y298314D01*
X820499Y298156D01*
X820434Y296736D01*
X819519Y295821D01*
X818454Y295380D01*
X817254Y295213D01*
X817253D01*
X817253Y295213D01*
X817253Y295213D01*
X795254Y295213D01*
X794458Y295212D01*
X792988Y295821D01*
X791862Y296947D01*
X791416Y298025D01*
X791254Y299212D01*
X791254Y299212D01*
X791254Y299213D01*
Y312213D01*
X791254Y313207D01*
X792015Y315045D01*
X792949Y315979D01*
X793506Y315991D01*
X793721Y315845D01*
D02*
G37*
G36*
X528700Y282700D02*
X504700D01*
X504281Y282711D01*
X503864Y282744D01*
X503448Y282799D01*
X503037Y282875D01*
X502629Y282973D01*
X502228Y283092D01*
X501833Y283231D01*
X501446Y283392D01*
X501068Y283572D01*
X500700Y283772D01*
X500343Y283991D01*
X499998Y284228D01*
X499665Y284483D01*
X499347Y284755D01*
X499043Y285043D01*
X498755Y285347D01*
X498483Y285665D01*
X498228Y285998D01*
X497991Y286343D01*
X497772Y286700D01*
X497572Y287068D01*
X497392Y287446D01*
X497231Y287833D01*
X497091Y288228D01*
X496973Y288629D01*
X496875Y289037D01*
X496799Y289449D01*
X496744Y289864D01*
X496711Y290281D01*
X496700Y290700D01*
X496711Y291119D01*
X496744Y291536D01*
X496799Y291952D01*
X496875Y292363D01*
X496973Y292771D01*
X497091Y293172D01*
X497231Y293567D01*
X497392Y293954D01*
X497572Y294332D01*
X497772Y294700D01*
X497991Y295057D01*
X498228Y295402D01*
X498483Y295735D01*
X498755Y296053D01*
X499043Y296357D01*
X499347Y296645D01*
X499665Y296917D01*
X499998Y297172D01*
X500343Y297409D01*
X500700Y297628D01*
X501068Y297828D01*
X501446Y298008D01*
X501833Y298169D01*
X502228Y298308D01*
X502629Y298427D01*
X503037Y298525D01*
X503448Y298601D01*
X503864Y298656D01*
X504281Y298689D01*
X504700Y298700D01*
X528700D01*
Y282700D01*
D02*
G37*
G36*
X21000Y364000D02*
X51000Y364000D01*
X51000Y364000D01*
X51000Y364000D01*
X52970Y364000D01*
X56834Y363231D01*
X60473Y361724D01*
X63749Y359535D01*
X66535Y356749D01*
X68724Y353474D01*
X70231Y349834D01*
X71000Y345970D01*
X71000Y344000D01*
X71000Y290000D01*
Y288523D01*
X70424Y285625D01*
X69293Y282895D01*
X67651Y280438D01*
X65562Y278349D01*
X63105Y276707D01*
X60375Y275576D01*
X57477Y275000D01*
X20000D01*
X18621Y275000D01*
X15916Y275538D01*
X13368Y276593D01*
X11075Y278125D01*
X9125Y280075D01*
X7593Y282369D01*
X6538Y284916D01*
X6000Y287621D01*
X6000Y289000D01*
Y347804D01*
X6000Y349000D01*
X6000Y349000D01*
X6000Y349000D01*
X6000Y350477D01*
X6576Y353375D01*
X7707Y356105D01*
X9349Y358562D01*
X11438Y360651D01*
X13895Y362293D01*
X16625Y363424D01*
X19523Y364000D01*
X21000Y364000D01*
D02*
G37*
G36*
X904392Y251928D02*
X904861Y250582D01*
X904659Y250281D01*
X904446Y249212D01*
Y244788D01*
X904659Y243719D01*
X905079Y243090D01*
X905190Y242250D01*
X905079Y241410D01*
X904659Y240781D01*
X904446Y239713D01*
Y235287D01*
X904659Y234219D01*
X905264Y233314D01*
X905499Y233156D01*
X905434Y231736D01*
X904519Y230821D01*
X903454Y230380D01*
X902254Y230213D01*
X902253D01*
X902253Y230213D01*
X902253Y230213D01*
X880254Y230213D01*
X879458Y230212D01*
X877988Y230821D01*
X876862Y231947D01*
X876416Y233025D01*
X876254Y234212D01*
X876254Y234212D01*
X876254Y234213D01*
Y247213D01*
X876254Y248207D01*
X877015Y250045D01*
X877949Y250979D01*
X878506Y250991D01*
X878721Y250845D01*
X879451Y249740D01*
X879346Y249212D01*
Y248500D01*
X895554D01*
Y249212D01*
X895341Y250281D01*
X896053Y251501D01*
X896370Y251591D01*
X896385Y251588D01*
X898406Y250751D01*
X900594D01*
X902616Y251588D01*
X903202Y252175D01*
X904392Y251928D01*
D02*
G37*
G36*
X811790Y252212D02*
X812906Y251750D01*
X815094D01*
X816210Y252212D01*
X818850D01*
X819367Y251998D01*
X819861Y250582D01*
X819659Y250281D01*
X819446Y249212D01*
Y244788D01*
X819659Y243719D01*
X820079Y243090D01*
X820190Y242250D01*
X820079Y241410D01*
X819659Y240781D01*
X819446Y239713D01*
Y235287D01*
X819659Y234219D01*
X820264Y233314D01*
X820499Y233156D01*
X820434Y231736D01*
X819519Y230821D01*
X818454Y230380D01*
X817254Y230213D01*
X817253D01*
X817253Y230213D01*
X817253Y230213D01*
X798788Y230213D01*
X798094Y230500D01*
X795906D01*
X795212Y230213D01*
X794458Y230212D01*
X792988Y230821D01*
X791862Y231947D01*
X791309Y233284D01*
Y248340D01*
X792015Y250045D01*
X792949Y250979D01*
X793506Y250991D01*
X793721Y250845D01*
X794451Y249740D01*
X794346Y249212D01*
Y248500D01*
X810554D01*
Y249212D01*
X810341Y250281D01*
X809921Y250910D01*
X809906Y250965D01*
X810185Y251821D01*
X810462Y252212D01*
X811790D01*
D02*
G37*
G36*
X507419Y235189D02*
X507836Y235156D01*
X508251Y235102D01*
X508663Y235025D01*
X509071Y234927D01*
X509472Y234808D01*
X509867Y234669D01*
X510254Y234508D01*
X510632Y234328D01*
X511000Y234128D01*
X511357Y233909D01*
X511702Y233672D01*
X512035Y233417D01*
X512353Y233145D01*
X512657Y232857D01*
X512945Y232553D01*
X513217Y232234D01*
X513472Y231902D01*
X513709Y231557D01*
X513928Y231200D01*
X514128Y230832D01*
X514308Y230454D01*
X514469Y230067D01*
X514608Y229672D01*
X514727Y229270D01*
X514825Y228863D01*
X514902Y228451D01*
X514956Y228036D01*
X514989Y227619D01*
X515000Y227200D01*
Y203200D01*
X499000D01*
Y227200D01*
X499011Y227619D01*
X499044Y228036D01*
X499099Y228451D01*
X499175Y228863D01*
X499273Y229270D01*
X499392Y229672D01*
X499531Y230067D01*
X499692Y230454D01*
X499872Y230832D01*
X500072Y231200D01*
X500291Y231557D01*
X500528Y231902D01*
X500783Y232234D01*
X501055Y232553D01*
X501343Y232857D01*
X501647Y233145D01*
X501965Y233417D01*
X502298Y233672D01*
X502643Y233909D01*
X503000Y234128D01*
X503368Y234328D01*
X503746Y234508D01*
X504133Y234669D01*
X504528Y234808D01*
X504929Y234927D01*
X505337Y235025D01*
X505748Y235102D01*
X506164Y235156D01*
X506581Y235189D01*
X507000Y235200D01*
X507419Y235189D01*
D02*
G37*
G36*
X482019D02*
X482436Y235156D01*
X482851Y235102D01*
X483263Y235025D01*
X483671Y234927D01*
X484072Y234808D01*
X484467Y234669D01*
X484854Y234508D01*
X485232Y234328D01*
X485600Y234128D01*
X485957Y233909D01*
X486302Y233672D01*
X486635Y233417D01*
X486953Y233145D01*
X487257Y232857D01*
X487545Y232553D01*
X487817Y232234D01*
X488072Y231902D01*
X488309Y231557D01*
X488528Y231200D01*
X488728Y230832D01*
X488908Y230454D01*
X489069Y230067D01*
X489208Y229672D01*
X489327Y229270D01*
X489425Y228863D01*
X489501Y228451D01*
X489556Y228036D01*
X489589Y227619D01*
X489600Y227200D01*
Y203200D01*
X473600D01*
Y227200D01*
X473611Y227619D01*
X473644Y228036D01*
X473699Y228451D01*
X473775Y228863D01*
X473873Y229270D01*
X473992Y229672D01*
X474131Y230067D01*
X474292Y230454D01*
X474472Y230832D01*
X474672Y231200D01*
X474891Y231557D01*
X475128Y231902D01*
X475383Y232234D01*
X475655Y232553D01*
X475943Y232857D01*
X476247Y233145D01*
X476565Y233417D01*
X476898Y233672D01*
X477243Y233909D01*
X477600Y234128D01*
X477968Y234328D01*
X478346Y234508D01*
X478733Y234669D01*
X479128Y234808D01*
X479529Y234927D01*
X479937Y235025D01*
X480349Y235102D01*
X480764Y235156D01*
X481181Y235189D01*
X481600Y235200D01*
X482019Y235189D01*
D02*
G37*
G36*
X462305Y235197D02*
X462409Y235189D01*
X462513Y235175D01*
X462616Y235156D01*
X462718Y235132D01*
X462818Y235102D01*
X462917Y235067D01*
X463013Y235027D01*
X463108Y234982D01*
X463200Y234932D01*
X463289Y234877D01*
X463376Y234818D01*
X463459Y234754D01*
X463538Y234686D01*
X463614Y234614D01*
X463686Y234538D01*
X463754Y234459D01*
X463818Y234376D01*
X463877Y234289D01*
X463932Y234200D01*
X463982Y234108D01*
X464027Y234014D01*
X464067Y233917D01*
X464102Y233818D01*
X464132Y233718D01*
X464156Y233616D01*
X464175Y233513D01*
X464189Y233409D01*
X464197Y233305D01*
X464200Y233200D01*
Y203200D01*
X448200D01*
Y233200D01*
X448203Y233305D01*
X448211Y233409D01*
X448225Y233513D01*
X448244Y233616D01*
X448268Y233718D01*
X448298Y233818D01*
X448333Y233917D01*
X448373Y234014D01*
X448418Y234108D01*
X448468Y234200D01*
X448523Y234289D01*
X448582Y234376D01*
X448646Y234459D01*
X448714Y234538D01*
X448786Y234614D01*
X448862Y234686D01*
X448941Y234754D01*
X449024Y234818D01*
X449111Y234877D01*
X449200Y234932D01*
X449292Y234982D01*
X449386Y235027D01*
X449483Y235067D01*
X449582Y235102D01*
X449682Y235132D01*
X449784Y235156D01*
X449887Y235175D01*
X449991Y235189D01*
X450095Y235197D01*
X450200Y235200D01*
X462200D01*
X462305Y235197D01*
D02*
G37*
G36*
X431219Y235189D02*
X431636Y235156D01*
X432052Y235102D01*
X432463Y235025D01*
X432871Y234927D01*
X433272Y234808D01*
X433667Y234669D01*
X434054Y234508D01*
X434432Y234328D01*
X434800Y234128D01*
X435157Y233909D01*
X435502Y233672D01*
X435835Y233417D01*
X436153Y233145D01*
X436457Y232857D01*
X436745Y232553D01*
X437017Y232234D01*
X437272Y231902D01*
X437509Y231557D01*
X437728Y231200D01*
X437928Y230832D01*
X438108Y230454D01*
X438269Y230067D01*
X438408Y229672D01*
X438527Y229270D01*
X438625Y228863D01*
X438702Y228451D01*
X438756Y228036D01*
X438789Y227619D01*
X438800Y227200D01*
Y203200D01*
X422800D01*
Y227200D01*
X422811Y227619D01*
X422844Y228036D01*
X422898Y228451D01*
X422975Y228863D01*
X423073Y229270D01*
X423192Y229672D01*
X423331Y230067D01*
X423492Y230454D01*
X423672Y230832D01*
X423872Y231200D01*
X424091Y231557D01*
X424328Y231902D01*
X424583Y232234D01*
X424855Y232553D01*
X425143Y232857D01*
X425447Y233145D01*
X425765Y233417D01*
X426098Y233672D01*
X426443Y233909D01*
X426800Y234128D01*
X427168Y234328D01*
X427546Y234508D01*
X427933Y234669D01*
X428328Y234808D01*
X428729Y234927D01*
X429137Y235025D01*
X429548Y235102D01*
X429964Y235156D01*
X430381Y235189D01*
X430800Y235200D01*
X431219Y235189D01*
D02*
G37*
G36*
X405819D02*
X406236Y235156D01*
X406651Y235102D01*
X407063Y235025D01*
X407471Y234927D01*
X407872Y234808D01*
X408267Y234669D01*
X408654Y234508D01*
X409032Y234328D01*
X409400Y234128D01*
X409757Y233909D01*
X410102Y233672D01*
X410435Y233417D01*
X410753Y233145D01*
X411057Y232857D01*
X411345Y232553D01*
X411617Y232234D01*
X411872Y231902D01*
X412109Y231557D01*
X412328Y231200D01*
X412528Y230832D01*
X412708Y230454D01*
X412869Y230067D01*
X413008Y229672D01*
X413127Y229270D01*
X413225Y228863D01*
X413302Y228451D01*
X413356Y228036D01*
X413389Y227619D01*
X413400Y227200D01*
Y203200D01*
X397400D01*
Y227200D01*
X397411Y227619D01*
X397444Y228036D01*
X397499Y228451D01*
X397575Y228863D01*
X397673Y229270D01*
X397792Y229672D01*
X397931Y230067D01*
X398092Y230454D01*
X398272Y230832D01*
X398472Y231200D01*
X398691Y231557D01*
X398928Y231902D01*
X399183Y232234D01*
X399455Y232553D01*
X399743Y232857D01*
X400047Y233145D01*
X400365Y233417D01*
X400698Y233672D01*
X401043Y233909D01*
X401400Y234128D01*
X401768Y234328D01*
X402146Y234508D01*
X402533Y234669D01*
X402928Y234808D01*
X403329Y234927D01*
X403737Y235025D01*
X404148Y235102D01*
X404564Y235156D01*
X404981Y235189D01*
X405400Y235200D01*
X405819Y235189D01*
D02*
G37*
G36*
X380419D02*
X380836Y235156D01*
X381251Y235102D01*
X381663Y235025D01*
X382071Y234927D01*
X382472Y234808D01*
X382867Y234669D01*
X383254Y234508D01*
X383632Y234328D01*
X384000Y234128D01*
X384357Y233909D01*
X384702Y233672D01*
X385035Y233417D01*
X385353Y233145D01*
X385657Y232857D01*
X385945Y232553D01*
X386217Y232234D01*
X386472Y231902D01*
X386709Y231557D01*
X386928Y231200D01*
X387128Y230832D01*
X387308Y230454D01*
X387469Y230067D01*
X387608Y229672D01*
X387727Y229270D01*
X387825Y228863D01*
X387901Y228451D01*
X387956Y228036D01*
X387989Y227619D01*
X388000Y227200D01*
Y203200D01*
X372000D01*
Y227200D01*
X372011Y227619D01*
X372044Y228036D01*
X372099Y228451D01*
X372175Y228863D01*
X372273Y229270D01*
X372392Y229672D01*
X372531Y230067D01*
X372692Y230454D01*
X372872Y230832D01*
X373072Y231200D01*
X373291Y231557D01*
X373528Y231902D01*
X373783Y232234D01*
X374055Y232553D01*
X374343Y232857D01*
X374647Y233145D01*
X374965Y233417D01*
X375298Y233672D01*
X375643Y233909D01*
X376000Y234128D01*
X376368Y234328D01*
X376746Y234508D01*
X377133Y234669D01*
X377528Y234808D01*
X377929Y234927D01*
X378337Y235025D01*
X378749Y235102D01*
X379164Y235156D01*
X379581Y235189D01*
X380000Y235200D01*
X380419Y235189D01*
D02*
G37*
G36*
X355019D02*
X355436Y235156D01*
X355852Y235102D01*
X356263Y235025D01*
X356671Y234927D01*
X357072Y234808D01*
X357467Y234669D01*
X357854Y234508D01*
X358232Y234328D01*
X358600Y234128D01*
X358957Y233909D01*
X359302Y233672D01*
X359635Y233417D01*
X359953Y233145D01*
X360257Y232857D01*
X360545Y232553D01*
X360817Y232234D01*
X361072Y231902D01*
X361309Y231557D01*
X361528Y231200D01*
X361728Y230832D01*
X361908Y230454D01*
X362069Y230067D01*
X362208Y229672D01*
X362327Y229270D01*
X362425Y228863D01*
X362501Y228451D01*
X362556Y228036D01*
X362589Y227619D01*
X362600Y227200D01*
Y203200D01*
X346600D01*
Y227200D01*
X346611Y227619D01*
X346644Y228036D01*
X346698Y228451D01*
X346775Y228863D01*
X346873Y229270D01*
X346992Y229672D01*
X347131Y230067D01*
X347292Y230454D01*
X347472Y230832D01*
X347672Y231200D01*
X347891Y231557D01*
X348128Y231902D01*
X348383Y232234D01*
X348655Y232553D01*
X348943Y232857D01*
X349247Y233145D01*
X349565Y233417D01*
X349898Y233672D01*
X350243Y233909D01*
X350600Y234128D01*
X350968Y234328D01*
X351346Y234508D01*
X351733Y234669D01*
X352128Y234808D01*
X352529Y234927D01*
X352937Y235025D01*
X353349Y235102D01*
X353764Y235156D01*
X354181Y235189D01*
X354600Y235200D01*
X355019Y235189D01*
D02*
G37*
G36*
X335305Y235197D02*
X335409Y235189D01*
X335513Y235175D01*
X335616Y235156D01*
X335718Y235132D01*
X335818Y235102D01*
X335917Y235067D01*
X336013Y235027D01*
X336108Y234982D01*
X336200Y234932D01*
X336289Y234877D01*
X336376Y234818D01*
X336459Y234754D01*
X336538Y234686D01*
X336614Y234614D01*
X336686Y234538D01*
X336754Y234459D01*
X336818Y234376D01*
X336877Y234289D01*
X336932Y234200D01*
X336982Y234108D01*
X337027Y234014D01*
X337067Y233917D01*
X337102Y233818D01*
X337132Y233718D01*
X337156Y233616D01*
X337175Y233513D01*
X337189Y233409D01*
X337197Y233305D01*
X337200Y233200D01*
Y203200D01*
X321200D01*
Y233200D01*
X321203Y233305D01*
X321211Y233409D01*
X321225Y233513D01*
X321244Y233616D01*
X321268Y233718D01*
X321298Y233818D01*
X321333Y233917D01*
X321373Y234014D01*
X321418Y234108D01*
X321468Y234200D01*
X321523Y234289D01*
X321582Y234376D01*
X321646Y234459D01*
X321714Y234538D01*
X321786Y234614D01*
X321862Y234686D01*
X321941Y234754D01*
X322024Y234818D01*
X322111Y234877D01*
X322200Y234932D01*
X322292Y234982D01*
X322387Y235027D01*
X322483Y235067D01*
X322582Y235102D01*
X322682Y235132D01*
X322784Y235156D01*
X322887Y235175D01*
X322991Y235189D01*
X323095Y235197D01*
X323200Y235200D01*
X335200D01*
X335305Y235197D01*
D02*
G37*
G36*
X304219Y235189D02*
X304636Y235156D01*
X305051Y235102D01*
X305463Y235025D01*
X305871Y234927D01*
X306272Y234808D01*
X306667Y234669D01*
X307054Y234508D01*
X307432Y234328D01*
X307800Y234128D01*
X308157Y233909D01*
X308502Y233672D01*
X308835Y233417D01*
X309153Y233145D01*
X309457Y232857D01*
X309745Y232553D01*
X310017Y232234D01*
X310272Y231902D01*
X310509Y231557D01*
X310728Y231200D01*
X310928Y230832D01*
X311108Y230454D01*
X311269Y230067D01*
X311408Y229672D01*
X311527Y229270D01*
X311625Y228863D01*
X311702Y228451D01*
X311756Y228036D01*
X311789Y227619D01*
X311800Y227200D01*
Y203200D01*
X295800D01*
Y227200D01*
X295811Y227619D01*
X295844Y228036D01*
X295898Y228451D01*
X295975Y228863D01*
X296073Y229270D01*
X296192Y229672D01*
X296331Y230067D01*
X296492Y230454D01*
X296672Y230832D01*
X296872Y231200D01*
X297091Y231557D01*
X297328Y231902D01*
X297583Y232234D01*
X297855Y232553D01*
X298143Y232857D01*
X298447Y233145D01*
X298765Y233417D01*
X299098Y233672D01*
X299443Y233909D01*
X299800Y234128D01*
X300168Y234328D01*
X300546Y234508D01*
X300933Y234669D01*
X301328Y234808D01*
X301729Y234927D01*
X302137Y235025D01*
X302549Y235102D01*
X302964Y235156D01*
X303381Y235189D01*
X303800Y235200D01*
X304219Y235189D01*
D02*
G37*
G36*
X278819D02*
X279236Y235156D01*
X279652Y235102D01*
X280063Y235025D01*
X280471Y234927D01*
X280872Y234808D01*
X281267Y234669D01*
X281654Y234508D01*
X282032Y234328D01*
X282400Y234128D01*
X282757Y233909D01*
X283102Y233672D01*
X283435Y233417D01*
X283753Y233145D01*
X284057Y232857D01*
X284345Y232553D01*
X284617Y232234D01*
X284872Y231902D01*
X285109Y231557D01*
X285328Y231200D01*
X285528Y230832D01*
X285708Y230454D01*
X285869Y230067D01*
X286008Y229672D01*
X286127Y229270D01*
X286225Y228863D01*
X286301Y228451D01*
X286356Y228036D01*
X286389Y227619D01*
X286400Y227200D01*
Y203200D01*
X270400D01*
Y227200D01*
X270411Y227619D01*
X270444Y228036D01*
X270499Y228451D01*
X270575Y228863D01*
X270673Y229270D01*
X270792Y229672D01*
X270931Y230067D01*
X271092Y230454D01*
X271272Y230832D01*
X271472Y231200D01*
X271691Y231557D01*
X271928Y231902D01*
X272183Y232234D01*
X272455Y232553D01*
X272743Y232857D01*
X273047Y233145D01*
X273365Y233417D01*
X273698Y233672D01*
X274043Y233909D01*
X274400Y234128D01*
X274768Y234328D01*
X275146Y234508D01*
X275533Y234669D01*
X275928Y234808D01*
X276329Y234927D01*
X276737Y235025D01*
X277148Y235102D01*
X277564Y235156D01*
X277981Y235189D01*
X278400Y235200D01*
X278819Y235189D01*
D02*
G37*
G36*
X253419D02*
X253836Y235156D01*
X254251Y235102D01*
X254663Y235025D01*
X255071Y234927D01*
X255472Y234808D01*
X255867Y234669D01*
X256254Y234508D01*
X256632Y234328D01*
X257000Y234128D01*
X257357Y233909D01*
X257702Y233672D01*
X258035Y233417D01*
X258353Y233145D01*
X258657Y232857D01*
X258945Y232553D01*
X259217Y232234D01*
X259472Y231902D01*
X259709Y231557D01*
X259928Y231200D01*
X260128Y230832D01*
X260308Y230454D01*
X260469Y230067D01*
X260608Y229672D01*
X260727Y229270D01*
X260825Y228863D01*
X260902Y228451D01*
X260956Y228036D01*
X260989Y227619D01*
X261000Y227200D01*
Y203200D01*
X245000D01*
Y227200D01*
X245011Y227619D01*
X245044Y228036D01*
X245098Y228451D01*
X245175Y228863D01*
X245273Y229270D01*
X245392Y229672D01*
X245531Y230067D01*
X245692Y230454D01*
X245872Y230832D01*
X246072Y231200D01*
X246291Y231557D01*
X246528Y231902D01*
X246783Y232234D01*
X247055Y232553D01*
X247343Y232857D01*
X247647Y233145D01*
X247965Y233417D01*
X248298Y233672D01*
X248643Y233909D01*
X249000Y234128D01*
X249368Y234328D01*
X249746Y234508D01*
X250133Y234669D01*
X250528Y234808D01*
X250929Y234927D01*
X251337Y235025D01*
X251749Y235102D01*
X252164Y235156D01*
X252581Y235189D01*
X253000Y235200D01*
X253419Y235189D01*
D02*
G37*
G36*
X228019D02*
X228436Y235156D01*
X228852Y235102D01*
X229263Y235025D01*
X229671Y234927D01*
X230072Y234808D01*
X230467Y234669D01*
X230854Y234508D01*
X231232Y234328D01*
X231600Y234128D01*
X231957Y233909D01*
X232302Y233672D01*
X232635Y233417D01*
X232953Y233145D01*
X233257Y232857D01*
X233545Y232553D01*
X233817Y232234D01*
X234072Y231902D01*
X234309Y231557D01*
X234528Y231200D01*
X234728Y230832D01*
X234908Y230454D01*
X235069Y230067D01*
X235208Y229672D01*
X235327Y229270D01*
X235425Y228863D01*
X235501Y228451D01*
X235556Y228036D01*
X235589Y227619D01*
X235600Y227200D01*
Y203200D01*
X219600D01*
Y227200D01*
X219611Y227619D01*
X219644Y228036D01*
X219699Y228451D01*
X219775Y228863D01*
X219873Y229270D01*
X219992Y229672D01*
X220131Y230067D01*
X220292Y230454D01*
X220472Y230832D01*
X220672Y231200D01*
X220891Y231557D01*
X221128Y231902D01*
X221383Y232234D01*
X221655Y232553D01*
X221943Y232857D01*
X222247Y233145D01*
X222565Y233417D01*
X222898Y233672D01*
X223243Y233909D01*
X223600Y234128D01*
X223968Y234328D01*
X224346Y234508D01*
X224733Y234669D01*
X225128Y234808D01*
X225529Y234927D01*
X225937Y235025D01*
X226348Y235102D01*
X226764Y235156D01*
X227181Y235189D01*
X227600Y235200D01*
X228019Y235189D01*
D02*
G37*
G36*
X208305Y235197D02*
X208409Y235189D01*
X208513Y235175D01*
X208616Y235156D01*
X208718Y235132D01*
X208818Y235102D01*
X208917Y235067D01*
X209014Y235027D01*
X209108Y234982D01*
X209200Y234932D01*
X209289Y234877D01*
X209376Y234818D01*
X209459Y234754D01*
X209538Y234686D01*
X209614Y234614D01*
X209686Y234538D01*
X209754Y234459D01*
X209818Y234376D01*
X209877Y234289D01*
X209932Y234200D01*
X209982Y234108D01*
X210027Y234014D01*
X210067Y233917D01*
X210102Y233818D01*
X210132Y233718D01*
X210156Y233616D01*
X210175Y233513D01*
X210189Y233409D01*
X210197Y233305D01*
X210200Y233200D01*
Y203200D01*
X194200D01*
Y233200D01*
X194203Y233305D01*
X194211Y233409D01*
X194225Y233513D01*
X194244Y233616D01*
X194268Y233718D01*
X194298Y233818D01*
X194333Y233917D01*
X194373Y234014D01*
X194418Y234108D01*
X194468Y234200D01*
X194523Y234289D01*
X194582Y234376D01*
X194646Y234459D01*
X194714Y234538D01*
X194786Y234614D01*
X194862Y234686D01*
X194941Y234754D01*
X195024Y234818D01*
X195111Y234877D01*
X195200Y234932D01*
X195292Y234982D01*
X195387Y235027D01*
X195483Y235067D01*
X195582Y235102D01*
X195682Y235132D01*
X195784Y235156D01*
X195887Y235175D01*
X195991Y235189D01*
X196095Y235197D01*
X196200Y235200D01*
X208200D01*
X208305Y235197D01*
D02*
G37*
G36*
X177219Y235189D02*
X177636Y235156D01*
X178051Y235102D01*
X178463Y235025D01*
X178871Y234927D01*
X179272Y234808D01*
X179667Y234669D01*
X180054Y234508D01*
X180432Y234328D01*
X180800Y234128D01*
X181157Y233909D01*
X181502Y233672D01*
X181835Y233417D01*
X182153Y233145D01*
X182457Y232857D01*
X182745Y232553D01*
X183017Y232234D01*
X183272Y231902D01*
X183509Y231557D01*
X183728Y231200D01*
X183928Y230832D01*
X184108Y230454D01*
X184269Y230067D01*
X184408Y229672D01*
X184527Y229270D01*
X184625Y228863D01*
X184701Y228451D01*
X184756Y228036D01*
X184789Y227619D01*
X184800Y227200D01*
Y203200D01*
X168800D01*
Y227200D01*
X168811Y227619D01*
X168844Y228036D01*
X168899Y228451D01*
X168975Y228863D01*
X169073Y229270D01*
X169192Y229672D01*
X169331Y230067D01*
X169492Y230454D01*
X169672Y230832D01*
X169872Y231200D01*
X170091Y231557D01*
X170328Y231902D01*
X170583Y232234D01*
X170855Y232553D01*
X171143Y232857D01*
X171447Y233145D01*
X171765Y233417D01*
X172098Y233672D01*
X172443Y233909D01*
X172800Y234128D01*
X173168Y234328D01*
X173546Y234508D01*
X173933Y234669D01*
X174328Y234808D01*
X174729Y234927D01*
X175137Y235025D01*
X175548Y235102D01*
X175964Y235156D01*
X176381Y235189D01*
X176800Y235200D01*
X177219Y235189D01*
D02*
G37*
G36*
X151819D02*
X152236Y235156D01*
X152652Y235102D01*
X153063Y235025D01*
X153471Y234927D01*
X153872Y234808D01*
X154267Y234669D01*
X154654Y234508D01*
X155032Y234328D01*
X155400Y234128D01*
X155757Y233909D01*
X156102Y233672D01*
X156435Y233417D01*
X156753Y233145D01*
X157057Y232857D01*
X157345Y232553D01*
X157617Y232234D01*
X157872Y231902D01*
X158109Y231557D01*
X158328Y231200D01*
X158528Y230832D01*
X158708Y230454D01*
X158869Y230067D01*
X159008Y229672D01*
X159127Y229270D01*
X159225Y228863D01*
X159302Y228451D01*
X159356Y228036D01*
X159389Y227619D01*
X159400Y227200D01*
Y203200D01*
X143400D01*
Y227200D01*
X143411Y227619D01*
X143444Y228036D01*
X143498Y228451D01*
X143575Y228863D01*
X143673Y229270D01*
X143792Y229672D01*
X143931Y230067D01*
X144092Y230454D01*
X144272Y230832D01*
X144472Y231200D01*
X144691Y231557D01*
X144928Y231902D01*
X145183Y232234D01*
X145455Y232553D01*
X145743Y232857D01*
X146047Y233145D01*
X146365Y233417D01*
X146698Y233672D01*
X147043Y233909D01*
X147400Y234128D01*
X147768Y234328D01*
X148146Y234508D01*
X148533Y234669D01*
X148928Y234808D01*
X149329Y234927D01*
X149737Y235025D01*
X150148Y235102D01*
X150564Y235156D01*
X150981Y235189D01*
X151400Y235200D01*
X151819Y235189D01*
D02*
G37*
G36*
X126419D02*
X126836Y235156D01*
X127252Y235102D01*
X127663Y235025D01*
X128071Y234927D01*
X128472Y234808D01*
X128867Y234669D01*
X129254Y234508D01*
X129632Y234328D01*
X130000Y234128D01*
X130357Y233909D01*
X130702Y233672D01*
X131035Y233417D01*
X131353Y233145D01*
X131657Y232857D01*
X131945Y232553D01*
X132217Y232234D01*
X132472Y231902D01*
X132709Y231557D01*
X132928Y231200D01*
X133128Y230832D01*
X133308Y230454D01*
X133469Y230067D01*
X133608Y229672D01*
X133727Y229270D01*
X133825Y228863D01*
X133902Y228451D01*
X133956Y228036D01*
X133989Y227619D01*
X134000Y227200D01*
Y203200D01*
X118000D01*
Y227200D01*
X118011Y227619D01*
X118044Y228036D01*
X118098Y228451D01*
X118175Y228863D01*
X118273Y229270D01*
X118392Y229672D01*
X118531Y230067D01*
X118692Y230454D01*
X118872Y230832D01*
X119072Y231200D01*
X119291Y231557D01*
X119528Y231902D01*
X119783Y232234D01*
X120055Y232553D01*
X120343Y232857D01*
X120647Y233145D01*
X120965Y233417D01*
X121298Y233672D01*
X121643Y233909D01*
X122000Y234128D01*
X122368Y234328D01*
X122746Y234508D01*
X123133Y234669D01*
X123528Y234808D01*
X123929Y234927D01*
X124337Y235025D01*
X124748Y235102D01*
X125164Y235156D01*
X125581Y235189D01*
X126000Y235200D01*
X126419Y235189D01*
D02*
G37*
G36*
X101019D02*
X101436Y235156D01*
X101852Y235102D01*
X102263Y235025D01*
X102671Y234927D01*
X103072Y234808D01*
X103467Y234669D01*
X103854Y234508D01*
X104232Y234328D01*
X104600Y234128D01*
X104957Y233909D01*
X105302Y233672D01*
X105635Y233417D01*
X105953Y233145D01*
X106257Y232857D01*
X106545Y232553D01*
X106817Y232234D01*
X107072Y231902D01*
X107309Y231557D01*
X107528Y231200D01*
X107728Y230832D01*
X107908Y230454D01*
X108069Y230067D01*
X108208Y229672D01*
X108327Y229270D01*
X108425Y228863D01*
X108502Y228451D01*
X108556Y228036D01*
X108589Y227619D01*
X108600Y227200D01*
Y203200D01*
X92600D01*
Y227200D01*
X92611Y227619D01*
X92644Y228036D01*
X92698Y228451D01*
X92775Y228863D01*
X92873Y229270D01*
X92992Y229672D01*
X93131Y230067D01*
X93292Y230454D01*
X93472Y230832D01*
X93672Y231200D01*
X93891Y231557D01*
X94128Y231902D01*
X94383Y232234D01*
X94655Y232553D01*
X94943Y232857D01*
X95247Y233145D01*
X95565Y233417D01*
X95898Y233672D01*
X96243Y233909D01*
X96600Y234128D01*
X96968Y234328D01*
X97346Y234508D01*
X97733Y234669D01*
X98128Y234808D01*
X98529Y234927D01*
X98937Y235025D01*
X99348Y235102D01*
X99764Y235156D01*
X100181Y235189D01*
X100600Y235200D01*
X101019Y235189D01*
D02*
G37*
G36*
X81305Y235197D02*
X81409Y235189D01*
X81513Y235175D01*
X81616Y235156D01*
X81718Y235132D01*
X81818Y235102D01*
X81917Y235067D01*
X82014Y235027D01*
X82108Y234982D01*
X82200Y234932D01*
X82289Y234877D01*
X82376Y234818D01*
X82459Y234754D01*
X82538Y234686D01*
X82614Y234614D01*
X82686Y234538D01*
X82754Y234459D01*
X82818Y234376D01*
X82877Y234289D01*
X82932Y234200D01*
X82982Y234108D01*
X83027Y234014D01*
X83067Y233917D01*
X83102Y233818D01*
X83132Y233718D01*
X83156Y233616D01*
X83175Y233513D01*
X83189Y233409D01*
X83197Y233305D01*
X83200Y233200D01*
Y203200D01*
X67200D01*
Y233200D01*
X67203Y233305D01*
X67211Y233409D01*
X67225Y233513D01*
X67244Y233616D01*
X67268Y233718D01*
X67298Y233818D01*
X67333Y233917D01*
X67373Y234014D01*
X67418Y234108D01*
X67468Y234200D01*
X67523Y234289D01*
X67582Y234376D01*
X67646Y234459D01*
X67714Y234538D01*
X67786Y234614D01*
X67862Y234686D01*
X67941Y234754D01*
X68024Y234818D01*
X68111Y234877D01*
X68200Y234932D01*
X68292Y234982D01*
X68387Y235027D01*
X68483Y235067D01*
X68582Y235102D01*
X68682Y235132D01*
X68784Y235156D01*
X68887Y235175D01*
X68991Y235189D01*
X69095Y235197D01*
X69200Y235200D01*
X81200D01*
X81305Y235197D01*
D02*
G37*
G36*
X50219Y235189D02*
X50636Y235156D01*
X51052Y235102D01*
X51463Y235025D01*
X51871Y234927D01*
X52272Y234808D01*
X52667Y234669D01*
X53054Y234508D01*
X53432Y234328D01*
X53800Y234128D01*
X54157Y233909D01*
X54502Y233672D01*
X54835Y233417D01*
X55153Y233145D01*
X55457Y232857D01*
X55745Y232553D01*
X56017Y232234D01*
X56272Y231902D01*
X56509Y231557D01*
X56728Y231200D01*
X56928Y230832D01*
X57108Y230454D01*
X57269Y230067D01*
X57408Y229672D01*
X57527Y229270D01*
X57625Y228863D01*
X57702Y228451D01*
X57756Y228036D01*
X57789Y227619D01*
X57800Y227200D01*
Y203200D01*
X41800D01*
Y227200D01*
X41811Y227619D01*
X41844Y228036D01*
X41898Y228451D01*
X41975Y228863D01*
X42073Y229270D01*
X42192Y229672D01*
X42331Y230067D01*
X42492Y230454D01*
X42672Y230832D01*
X42872Y231200D01*
X43091Y231557D01*
X43328Y231902D01*
X43583Y232234D01*
X43855Y232553D01*
X44143Y232857D01*
X44447Y233145D01*
X44765Y233417D01*
X45098Y233672D01*
X45443Y233909D01*
X45800Y234128D01*
X46168Y234328D01*
X46546Y234508D01*
X46933Y234669D01*
X47328Y234808D01*
X47729Y234927D01*
X48137Y235025D01*
X48548Y235102D01*
X48964Y235156D01*
X49381Y235189D01*
X49800Y235200D01*
X50219Y235189D01*
D02*
G37*
G36*
X24819D02*
X25236Y235156D01*
X25652Y235102D01*
X26063Y235025D01*
X26471Y234927D01*
X26872Y234808D01*
X27267Y234669D01*
X27654Y234508D01*
X28032Y234328D01*
X28400Y234128D01*
X28757Y233909D01*
X29102Y233672D01*
X29435Y233417D01*
X29753Y233145D01*
X30057Y232857D01*
X30345Y232553D01*
X30617Y232234D01*
X30872Y231902D01*
X31109Y231557D01*
X31328Y231200D01*
X31528Y230832D01*
X31708Y230454D01*
X31869Y230067D01*
X32008Y229672D01*
X32127Y229270D01*
X32225Y228863D01*
X32301Y228451D01*
X32356Y228036D01*
X32389Y227619D01*
X32400Y227200D01*
Y203200D01*
X16400D01*
Y227200D01*
X16411Y227619D01*
X16444Y228036D01*
X16499Y228451D01*
X16575Y228863D01*
X16673Y229270D01*
X16792Y229672D01*
X16931Y230067D01*
X17092Y230454D01*
X17272Y230832D01*
X17472Y231200D01*
X17691Y231557D01*
X17928Y231902D01*
X18183Y232234D01*
X18455Y232553D01*
X18743Y232857D01*
X19047Y233145D01*
X19365Y233417D01*
X19698Y233672D01*
X20043Y233909D01*
X20400Y234128D01*
X20768Y234328D01*
X21146Y234508D01*
X21533Y234669D01*
X21928Y234808D01*
X22329Y234927D01*
X22737Y235025D01*
X23149Y235102D01*
X23564Y235156D01*
X23981Y235189D01*
X24400Y235200D01*
X24819Y235189D01*
D02*
G37*
G36*
X900541Y182962D02*
X900926Y181692D01*
X900256Y181244D01*
X899261Y179756D01*
X898912Y178000D01*
Y177000D01*
X908000D01*
X917088D01*
Y178000D01*
X916739Y179756D01*
X915744Y181244D01*
X915969Y182621D01*
X916649Y182849D01*
X917924Y182321D01*
X919109Y181136D01*
X919614Y179917D01*
X919750Y178750D01*
Y178750D01*
X919750D01*
X919750Y178750D01*
X919750Y165750D01*
X919750Y164798D01*
X919021Y163038D01*
X917674Y161691D01*
X916186Y161075D01*
X914963Y160963D01*
X880004Y160963D01*
X879208Y160963D01*
X877738Y161571D01*
X876612Y162697D01*
X876004Y164167D01*
X876004Y164963D01*
Y169769D01*
X877274Y170113D01*
X877983Y169051D01*
X879348Y168139D01*
X880957Y167819D01*
X881582D01*
Y174150D01*
Y180481D01*
X880957D01*
X879348Y180161D01*
X877983Y179249D01*
X877954Y179205D01*
X876515Y179338D01*
X876335Y179757D01*
X876765Y180795D01*
X878171Y182201D01*
X878840Y182478D01*
X879348Y182139D01*
X880957Y181819D01*
X885207D01*
X886816Y182139D01*
X888048Y182962D01*
X900541Y182962D01*
D02*
G37*
G36*
X221000Y117000D02*
X261000Y117000D01*
X261000Y117000D01*
X261000Y117000D01*
X261002D01*
X262195Y116938D01*
X263625Y116654D01*
X265263Y115976D01*
X266737Y114991D01*
X267991Y113737D01*
X268976Y112263D01*
X269654Y110625D01*
X270000Y108886D01*
X270000Y108000D01*
X270000Y13000D01*
X270000Y13000D01*
X270000Y12015D01*
X269616Y10083D01*
X268862Y8263D01*
X267768Y6625D01*
X266375Y5232D01*
X264737Y4138D01*
X262917Y3384D01*
X261784Y3159D01*
X261691Y3205D01*
X260811Y4254D01*
X260808Y4270D01*
X261103Y5750D01*
Y8750D01*
X252500D01*
X243897D01*
Y5750D01*
X244192Y4270D01*
X243362Y3000D01*
X220000D01*
X220000Y3000D01*
X219212Y3000D01*
X217666Y3307D01*
X216210Y3910D01*
X214900Y4786D01*
X213786Y5900D01*
X212910Y7211D01*
X212307Y8666D01*
X212000Y10212D01*
X212000Y11000D01*
Y108000D01*
X212000Y108000D01*
X212070Y109241D01*
X212346Y110625D01*
X213024Y112263D01*
X214009Y113737D01*
X215263Y114991D01*
X216737Y115976D01*
X218375Y116654D01*
X220114Y117000D01*
X221000Y117000D01*
D02*
G37*
G36*
X92000D02*
X132000Y117000D01*
X132000Y117000D01*
X132000Y117000D01*
X132002D01*
X133195Y116938D01*
X134625Y116654D01*
X136263Y115976D01*
X137737Y114991D01*
X138991Y113737D01*
X139976Y112263D01*
X140654Y110625D01*
X141000Y108886D01*
X141000Y108000D01*
X141000Y13000D01*
X141000Y13000D01*
X141000Y12015D01*
X140616Y10083D01*
X139862Y8263D01*
X138767Y6625D01*
X137375Y5232D01*
X135737Y4138D01*
X133917Y3384D01*
X132784Y3159D01*
X132691Y3205D01*
X131811Y4254D01*
X131808Y4270D01*
X132103Y5750D01*
Y8750D01*
X123500D01*
X114897D01*
Y5750D01*
X115191Y4270D01*
X114362Y3000D01*
X91000D01*
X91000Y3000D01*
X90212Y3000D01*
X88666Y3307D01*
X87210Y3910D01*
X85900Y4786D01*
X84786Y5900D01*
X83910Y7211D01*
X83307Y8666D01*
X83000Y10212D01*
X83000Y11000D01*
Y108000D01*
X83000Y108000D01*
X83070Y109241D01*
X83346Y110625D01*
X84024Y112263D01*
X85009Y113737D01*
X86263Y114991D01*
X87737Y115976D01*
X89375Y116654D01*
X91114Y117000D01*
X92000Y117000D01*
D02*
G37*
G36*
X330000Y117000D02*
X330788Y117000D01*
X332334Y116692D01*
X333790Y116089D01*
X335100Y115214D01*
X336214Y114100D01*
X337090Y112789D01*
X337693Y111334D01*
X338000Y109788D01*
X338000Y109000D01*
X338000Y12000D01*
Y11114D01*
X337654Y9375D01*
X336976Y7737D01*
X335991Y6263D01*
X334737Y5009D01*
X333263Y4024D01*
X331625Y3346D01*
X329886Y3000D01*
X329000Y3000D01*
X306638Y3000D01*
X305809Y4270D01*
X306103Y5750D01*
Y8750D01*
X297500D01*
X288897D01*
Y5750D01*
X289192Y4270D01*
X289170Y4130D01*
X288466Y3145D01*
X288301Y3035D01*
X287816Y3059D01*
X286375Y3346D01*
X284737Y4024D01*
X283263Y5009D01*
X282009Y6263D01*
X281024Y7737D01*
X280346Y9375D01*
X280000Y11114D01*
X280000Y12000D01*
X280000Y107000D01*
X280000D01*
X280000Y107985D01*
X280384Y109917D01*
X281138Y111737D01*
X282232Y113375D01*
X283625Y114768D01*
X285263Y115862D01*
X287083Y116616D01*
X289015Y117000D01*
X330000D01*
X330000Y117000D01*
D02*
G37*
G36*
X201000D02*
X201788Y117000D01*
X203334Y116692D01*
X204790Y116089D01*
X206100Y115214D01*
X207214Y114100D01*
X208090Y112789D01*
X208693Y111334D01*
X209000Y109788D01*
X209000Y109000D01*
X209000Y12000D01*
Y11114D01*
X208654Y9375D01*
X207976Y7737D01*
X206991Y6263D01*
X205737Y5009D01*
X204263Y4024D01*
X202625Y3346D01*
X200886Y3000D01*
X200000Y3000D01*
X177638Y3000D01*
X176808Y4270D01*
X177103Y5750D01*
Y8750D01*
X168500D01*
X159897D01*
Y5750D01*
X160191Y4270D01*
X160170Y4130D01*
X159466Y3145D01*
X159300Y3035D01*
X158816Y3059D01*
X157375Y3346D01*
X155737Y4024D01*
X154263Y5009D01*
X153009Y6263D01*
X152024Y7737D01*
X151346Y9375D01*
X151000Y11114D01*
X151000Y12000D01*
X151000Y107000D01*
X151000D01*
X151000Y107985D01*
X151384Y109917D01*
X152138Y111737D01*
X153232Y113375D01*
X154625Y114768D01*
X156263Y115862D01*
X158083Y116616D01*
X160015Y117000D01*
X201000D01*
X201000Y117000D01*
D02*
G37*
%LPC*%
G36*
X177000Y657746D02*
Y652000D01*
X182746D01*
X182455Y653088D01*
X181402Y654912D01*
X179912Y656402D01*
X178088Y657455D01*
X177000Y657746D01*
D02*
G37*
G36*
X173000D02*
X171912Y657455D01*
X170088Y656402D01*
X168598Y654912D01*
X167545Y653088D01*
X167254Y652000D01*
X173000D01*
Y657746D01*
D02*
G37*
G36*
X182746Y648000D02*
X177000D01*
Y642254D01*
X178088Y642545D01*
X179912Y643598D01*
X181402Y645088D01*
X182455Y646912D01*
X182746Y648000D01*
D02*
G37*
G36*
X173000D02*
X167254D01*
X167545Y646912D01*
X168598Y645088D01*
X170088Y643598D01*
X171912Y642545D01*
X173000Y642254D01*
Y648000D01*
D02*
G37*
G36*
X176053Y638000D02*
X173947D01*
X171912Y637455D01*
X170088Y636402D01*
X168598Y634912D01*
X167545Y633088D01*
X167000Y631053D01*
Y628947D01*
X167545Y626912D01*
X168598Y625088D01*
X170088Y623598D01*
X171912Y622545D01*
X173947Y622000D01*
X176053D01*
X178088Y622545D01*
X179912Y623598D01*
X181402Y625088D01*
X182455Y626912D01*
X183000Y628947D01*
Y631053D01*
X182455Y633088D01*
X181402Y634912D01*
X179912Y636402D01*
X178088Y637455D01*
X176053Y638000D01*
D02*
G37*
G36*
Y618000D02*
X173947D01*
X171912Y617455D01*
X170088Y616402D01*
X168598Y614912D01*
X167545Y613088D01*
X167000Y611053D01*
Y608947D01*
X167545Y606912D01*
X168598Y605088D01*
X170088Y603598D01*
X171912Y602545D01*
X173947Y602000D01*
X176053D01*
X178088Y602545D01*
X179912Y603598D01*
X181402Y605088D01*
X182455Y606912D01*
X183000Y608947D01*
Y611053D01*
X182455Y613088D01*
X181402Y614912D01*
X179912Y616402D01*
X178088Y617455D01*
X176053Y618000D01*
D02*
G37*
G36*
X179000Y595060D02*
X171000D01*
X169173Y594820D01*
X167470Y594114D01*
X166008Y592992D01*
X164886Y591530D01*
X164180Y589827D01*
X163940Y588000D01*
X164180Y586173D01*
X164886Y584470D01*
X166008Y583008D01*
X167470Y581885D01*
X169173Y581180D01*
X171000Y580940D01*
X179000D01*
X180827Y581180D01*
X182530Y581885D01*
X183992Y583008D01*
X185114Y584470D01*
X185820Y586173D01*
X186060Y588000D01*
X185820Y589827D01*
X185114Y591530D01*
X183992Y592992D01*
X182530Y594114D01*
X180827Y594820D01*
X179000Y595060D01*
D02*
G37*
G36*
X281500Y534108D02*
X279500D01*
Y526500D01*
X287108D01*
Y528500D01*
X286681Y530646D01*
X285465Y532465D01*
X283646Y533681D01*
X281500Y534108D01*
D02*
G37*
G36*
X276500D02*
X274500D01*
X272354Y533681D01*
X270535Y532465D01*
X269319Y530646D01*
X268892Y528500D01*
Y526500D01*
X276500D01*
Y534108D01*
D02*
G37*
G36*
X287108Y523500D02*
X279500D01*
Y515892D01*
X281500D01*
X283646Y516319D01*
X285465Y517535D01*
X286681Y519354D01*
X287108Y521500D01*
Y523500D01*
D02*
G37*
G36*
X276500D02*
X268892D01*
Y521500D01*
X269319Y519354D01*
X270535Y517535D01*
X272354Y516319D01*
X274500Y515892D01*
X276500D01*
Y523500D01*
D02*
G37*
G36*
X276125Y508331D02*
X275500D01*
Y503500D01*
X280331D01*
Y504125D01*
X280011Y505734D01*
X279099Y507099D01*
X277735Y508011D01*
X276125Y508331D01*
D02*
G37*
G36*
X272500D02*
X271875D01*
X270266Y508011D01*
X268901Y507099D01*
X267989Y505734D01*
X267669Y504125D01*
Y503500D01*
X272500D01*
Y508331D01*
D02*
G37*
G36*
X280331Y500500D02*
X275500D01*
Y495669D01*
X276125D01*
X277735Y495989D01*
X279099Y496901D01*
X280011Y498265D01*
X280331Y499875D01*
Y500500D01*
D02*
G37*
G36*
X272500D02*
X267669D01*
Y499875D01*
X267989Y498265D01*
X268901Y496901D01*
X270266Y495989D01*
X271875Y495669D01*
X272500D01*
Y500500D01*
D02*
G37*
G36*
X705094Y587500D02*
X702906D01*
X700885Y586663D01*
X699337Y585116D01*
X698500Y583094D01*
Y581789D01*
X663500Y581789D01*
X663500Y581789D01*
X662307D01*
X661526Y581634D01*
X659321Y580720D01*
X658659Y580278D01*
X656972Y578591D01*
X656529Y577929D01*
X655616Y575724D01*
X655461Y574944D01*
X655461Y558305D01*
X655616Y557525D01*
X656339Y555779D01*
X656781Y555117D01*
X658117Y553781D01*
X658779Y553339D01*
X660525Y552616D01*
X661305Y552461D01*
X666781D01*
X667004Y552461D01*
X667125Y551239D01*
D01*
Y551239D01*
X667006Y551166D01*
X666143Y550589D01*
X665105Y549896D01*
X663834Y547994D01*
X663387Y545750D01*
Y543500D01*
X675500D01*
X687613D01*
Y545750D01*
X688856Y545989D01*
X689029Y545571D01*
X689472Y544909D01*
X689472Y544909D01*
X691159Y543222D01*
X691821Y542780D01*
X694026Y541866D01*
X694807Y541711D01*
X716594D01*
X717397Y541711D01*
X717594Y541750D01*
X717795D01*
X719371Y542063D01*
X719556Y542140D01*
X719753Y542179D01*
X721237Y542794D01*
X721404Y542906D01*
X721590Y542983D01*
X722926Y543875D01*
X723068Y544017D01*
X723235Y544129D01*
X724371Y545265D01*
X724483Y545432D01*
X724625Y545574D01*
X725517Y546910D01*
X725594Y547095D01*
X725706Y547262D01*
X726320Y548747D01*
X726360Y548943D01*
X726436Y549129D01*
X726750Y550705D01*
Y550906D01*
X726789Y551103D01*
X726789Y551906D01*
X726789Y572750D01*
X726789Y572751D01*
Y572753D01*
X726772Y572838D01*
X726782Y572923D01*
X726683Y574105D01*
X726651Y574217D01*
Y574333D01*
X726481Y575189D01*
X726404Y575375D01*
X726365Y575572D01*
X725837Y576846D01*
X725726Y577013D01*
X725649Y577198D01*
X724883Y578345D01*
X724741Y578487D01*
X724629Y578654D01*
X723654Y579629D01*
X723487Y579741D01*
X723345Y579883D01*
X722199Y580649D01*
X722013Y580726D01*
X721846Y580837D01*
X720572Y581365D01*
X720375Y581404D01*
X720190Y581481D01*
X718837Y581750D01*
X718636D01*
X718439Y581789D01*
X717750Y581789D01*
X709500D01*
Y583094D01*
X708663Y585116D01*
X707115Y586663D01*
X705094Y587500D01*
D02*
G37*
G36*
X617500Y563060D02*
X614000D01*
Y543500D01*
X624560D01*
Y556000D01*
X624320Y557827D01*
X623615Y559530D01*
X622492Y560992D01*
X621030Y562114D01*
X619327Y562820D01*
X617500Y563060D01*
D02*
G37*
G36*
X611000D02*
X607500D01*
X605673Y562820D01*
X603970Y562114D01*
X602508Y560992D01*
X601385Y559530D01*
X600680Y557827D01*
X600440Y556000D01*
Y543500D01*
X611000D01*
Y563060D01*
D02*
G37*
G36*
X687613Y540500D02*
X675500D01*
X663387D01*
Y538250D01*
X663834Y536007D01*
X664280Y535338D01*
X663601Y534068D01*
X657279Y534068D01*
X656428Y534068D01*
X655648Y533913D01*
X655647Y533913D01*
X654075Y533262D01*
X654075Y533262D01*
X653743Y533040D01*
X653413Y532820D01*
X653413Y532820D01*
X652209Y531616D01*
X652209Y531616D01*
X651934Y531203D01*
X651767Y530954D01*
X651264Y529739D01*
X651210Y529468D01*
X651124Y529206D01*
X650976Y527998D01*
X650980Y527945D01*
X650966Y527894D01*
X650975Y527822D01*
X650961Y527750D01*
X650961Y505954D01*
X651116Y505174D01*
X651725Y503704D01*
X652167Y503042D01*
X653292Y501917D01*
X653954Y501475D01*
X655424Y500866D01*
X656204Y500711D01*
X670586D01*
X671160Y500711D01*
X671357Y500750D01*
X671558D01*
X672684Y500974D01*
X672869Y501051D01*
X673066Y501090D01*
X674127Y501529D01*
X674294Y501641D01*
X674479Y501718D01*
X675434Y502356D01*
X675576Y502498D01*
X675743Y502609D01*
X679906Y506772D01*
X680348Y507434D01*
X680503Y508214D01*
X680943Y508903D01*
X681497Y509387D01*
X681750D01*
X683994Y509834D01*
X685895Y511105D01*
X687166Y513007D01*
X687613Y515250D01*
Y522750D01*
X687166Y524994D01*
X685895Y526895D01*
X683994Y528166D01*
X681750Y528613D01*
X680921D01*
X680753Y528683D01*
X680480Y528917D01*
X679906Y529882D01*
X679906Y529883D01*
X679906Y529883D01*
X679826Y530289D01*
X679751Y530663D01*
X679751Y530663D01*
X679751Y530663D01*
X679495Y531046D01*
X679469Y531109D01*
X679461Y531117D01*
X679469Y531303D01*
X679689Y531963D01*
X679825Y532191D01*
X679979Y532387D01*
X681750D01*
X683994Y532834D01*
X685895Y534104D01*
X687166Y536007D01*
X687613Y538250D01*
Y540500D01*
D02*
G37*
G36*
X721125Y535331D02*
X720500D01*
Y530500D01*
X725331D01*
Y531125D01*
X725011Y532734D01*
X724099Y534099D01*
X722735Y535011D01*
X721125Y535331D01*
D02*
G37*
G36*
X706125D02*
X705500D01*
Y530500D01*
X710331D01*
Y531125D01*
X710011Y532734D01*
X709099Y534099D01*
X707735Y535011D01*
X706125Y535331D01*
D02*
G37*
G36*
X702500D02*
X701875D01*
X700266Y535011D01*
X698901Y534099D01*
X697989Y532734D01*
X697669Y531125D01*
Y530500D01*
X702500D01*
Y535331D01*
D02*
G37*
G36*
X717500D02*
X716875D01*
X715266Y535011D01*
X713901Y534099D01*
X712989Y532734D01*
X712669Y531125D01*
Y530500D01*
X717500D01*
Y535331D01*
D02*
G37*
G36*
X725331Y527500D02*
X720500D01*
Y522669D01*
X721125D01*
X722735Y522989D01*
X724099Y523901D01*
X725011Y525266D01*
X725331Y526875D01*
Y527500D01*
D02*
G37*
G36*
X717500D02*
X712669D01*
Y526875D01*
X712989Y525266D01*
X713901Y523901D01*
X715266Y522989D01*
X716875Y522669D01*
X717500D01*
Y527500D01*
D02*
G37*
G36*
X710331D02*
X705500D01*
Y522669D01*
X706125D01*
X707735Y522989D01*
X709099Y523901D01*
X710011Y525266D01*
X710331Y526875D01*
Y527500D01*
D02*
G37*
G36*
X702500D02*
X697669D01*
Y526875D01*
X697989Y525266D01*
X698901Y523901D01*
X700266Y522989D01*
X701875Y522669D01*
X702500D01*
Y527500D01*
D02*
G37*
G36*
X624560Y540500D02*
X614000D01*
Y520940D01*
X617500D01*
X619327Y521180D01*
X621030Y521885D01*
X622492Y523008D01*
X623615Y524470D01*
X624320Y526173D01*
X624560Y528000D01*
Y540500D01*
D02*
G37*
G36*
X611000D02*
X600440D01*
Y528000D01*
X600680Y526173D01*
X601385Y524470D01*
X602508Y523008D01*
X603970Y521885D01*
X605673Y521180D01*
X607500Y520940D01*
X611000D01*
Y540500D01*
D02*
G37*
G36*
X721125Y521331D02*
X716875D01*
X715266Y521011D01*
X713901Y520099D01*
X712989Y518735D01*
X712669Y517125D01*
Y512875D01*
X712989Y511265D01*
X713901Y509901D01*
X714412Y509560D01*
Y505190D01*
X714337Y505116D01*
X713500Y503094D01*
Y500906D01*
X714337Y498885D01*
X715884Y497337D01*
X717906Y496500D01*
X720094D01*
X722115Y497337D01*
X723663Y498885D01*
X724500Y500906D01*
Y503094D01*
X723663Y505116D01*
X723588Y505190D01*
Y509560D01*
X724099Y509901D01*
X725011Y511265D01*
X725331Y512875D01*
Y517125D01*
X725011Y518735D01*
X724099Y520099D01*
X722735Y521011D01*
X721125Y521331D01*
D02*
G37*
G36*
X706125D02*
X701875D01*
X700266Y521011D01*
X698901Y520099D01*
X697989Y518735D01*
X697669Y517125D01*
Y512875D01*
X697989Y511265D01*
X698901Y509901D01*
X699412Y509560D01*
Y505190D01*
X699337Y505116D01*
X698500Y503094D01*
Y500906D01*
X699337Y498885D01*
X700885Y497337D01*
X702906Y496500D01*
X705094D01*
X707115Y497337D01*
X708663Y498885D01*
X709500Y500906D01*
Y503094D01*
X708663Y505116D01*
X708588Y505190D01*
Y509560D01*
X709099Y509901D01*
X710011Y511265D01*
X710331Y512875D01*
Y517125D01*
X710011Y518735D01*
X709099Y520099D01*
X707735Y521011D01*
X706125Y521331D01*
D02*
G37*
G36*
X669000Y499104D02*
X660500D01*
Y488500D01*
X680906D01*
X680691Y490133D01*
X679482Y493052D01*
X677559Y495559D01*
X675052Y497482D01*
X672133Y498691D01*
X669000Y499104D01*
D02*
G37*
G36*
X657500D02*
X649000D01*
X645867Y498691D01*
X642948Y497482D01*
X640442Y495559D01*
X638518Y493052D01*
X637309Y490133D01*
X637094Y488500D01*
X657500D01*
Y499104D01*
D02*
G37*
G36*
X680906Y485500D02*
X660500D01*
Y474896D01*
X669000D01*
X672133Y475309D01*
X675052Y476518D01*
X677559Y478442D01*
X679482Y480948D01*
X680691Y483867D01*
X680906Y485500D01*
D02*
G37*
G36*
X657500D02*
X637094D01*
X637309Y483867D01*
X638518Y480948D01*
X640442Y478442D01*
X642948Y476518D01*
X645867Y475309D01*
X649000Y474896D01*
X657500D01*
Y485500D01*
D02*
G37*
%LPD*%
G36*
X698979Y579750D02*
X699337Y578885D01*
X699412Y578810D01*
Y574440D01*
X698901Y574099D01*
X697989Y572734D01*
X697669Y571125D01*
Y566875D01*
X697989Y565266D01*
X698901Y563901D01*
X700266Y562989D01*
X701875Y562669D01*
X706125D01*
X707735Y562989D01*
X709099Y563901D01*
X710011Y565266D01*
X710331Y566875D01*
Y571125D01*
X710011Y572734D01*
X709099Y574099D01*
X708588Y574440D01*
Y578659D01*
X709385Y579750D01*
X717750D01*
X718439Y579750D01*
X719792Y579481D01*
X721066Y578953D01*
X722212Y578187D01*
X723187Y577212D01*
X723953Y576066D01*
X724481Y574792D01*
X724651Y573936D01*
X724750Y572753D01*
Y572750D01*
X724750Y572750D01*
X724750Y572750D01*
X724750Y551906D01*
X724750Y551103D01*
X724436Y549527D01*
X723822Y548043D01*
X722929Y546707D01*
X721793Y545571D01*
X720457Y544678D01*
X718973Y544063D01*
X717397Y543750D01*
X716594Y543750D01*
X694807D01*
X692601Y544663D01*
X690913Y546351D01*
X690000Y548557D01*
Y549750D01*
X689909Y550677D01*
X689199Y552389D01*
X687889Y553699D01*
X686413Y554311D01*
X686177Y554409D01*
X685252Y554500D01*
X685250Y554500D01*
X685250Y554500D01*
X685250Y554500D01*
X683799D01*
X683673Y555770D01*
X683994Y555834D01*
X685895Y557104D01*
X687166Y559007D01*
X687613Y561250D01*
Y563500D01*
X675500D01*
X663387D01*
Y561250D01*
X663834Y559007D01*
X665105Y557104D01*
X667006Y555834D01*
X667326Y555770D01*
X667201Y554500D01*
X661305D01*
X659559Y555223D01*
X658223Y556559D01*
X657500Y558305D01*
X657500Y574944D01*
X658413Y577149D01*
X660101Y578837D01*
X662307Y579750D01*
X663500D01*
Y579750D01*
X698979Y579750D01*
D02*
G37*
%LPC*%
G36*
X681750Y574613D02*
X677000D01*
Y566500D01*
X687613D01*
Y568750D01*
X687166Y570993D01*
X685895Y572896D01*
X683994Y574166D01*
X681750Y574613D01*
D02*
G37*
G36*
X674000D02*
X669250D01*
X667006Y574166D01*
X665105Y572896D01*
X663834Y570993D01*
X663387Y568750D01*
Y566500D01*
X674000D01*
Y574613D01*
D02*
G37*
G36*
X706125Y561331D02*
X705500D01*
Y556500D01*
X710331D01*
Y557125D01*
X710011Y558735D01*
X709099Y560099D01*
X707735Y561011D01*
X706125Y561331D01*
D02*
G37*
G36*
X702500D02*
X701875D01*
X700266Y561011D01*
X698901Y560099D01*
X697989Y558735D01*
X697669Y557125D01*
Y556500D01*
X702500D01*
Y561331D01*
D02*
G37*
G36*
X710331Y553500D02*
X705500D01*
Y548669D01*
X706125D01*
X707735Y548989D01*
X709099Y549901D01*
X710011Y551265D01*
X710331Y552875D01*
Y553500D01*
D02*
G37*
G36*
X702500D02*
X697669D01*
Y552875D01*
X697989Y551265D01*
X698901Y549901D01*
X700266Y548989D01*
X701875Y548669D01*
X702500D01*
Y553500D01*
D02*
G37*
%LPD*%
G36*
X657279Y532029D02*
X671912Y532029D01*
X671912Y532029D01*
X671912Y532029D01*
X671914D01*
X673086Y531976D01*
X674594Y531676D01*
X676268Y530983D01*
X677774Y529976D01*
X677867Y529883D01*
X677341Y528613D01*
X677000D01*
Y519000D01*
Y509387D01*
X677978D01*
X678464Y508214D01*
X674301Y504051D01*
X673346Y503413D01*
X672286Y502974D01*
X671160Y502750D01*
X670586Y502750D01*
X656204D01*
X654734Y503359D01*
X653609Y504484D01*
X653000Y505954D01*
X653000Y527750D01*
X653000Y527750D01*
X653148Y528959D01*
X653651Y530174D01*
X654855Y531378D01*
X656428Y532029D01*
X657279Y532029D01*
D02*
G37*
%LPC*%
G36*
X674000Y528613D02*
X669250D01*
X667006Y528166D01*
X665105Y526895D01*
X663834Y524994D01*
X663387Y522750D01*
Y520500D01*
X674000D01*
Y528613D01*
D02*
G37*
G36*
Y517500D02*
X663387D01*
Y515250D01*
X663834Y513007D01*
X665105Y511105D01*
X667006Y509834D01*
X669250Y509387D01*
X674000D01*
Y517500D01*
D02*
G37*
G36*
X811125Y593331D02*
X806875D01*
X805266Y593011D01*
X803901Y592099D01*
X802989Y590734D01*
X802669Y589125D01*
Y585059D01*
X802478Y584512D01*
X801884Y583789D01*
X757000Y583789D01*
X757000Y583789D01*
X756212D01*
X756015Y583750D01*
X755814D01*
X754269Y583442D01*
X754083Y583366D01*
X753886Y583326D01*
X752430Y582723D01*
X752263Y582612D01*
X752078Y582535D01*
X750767Y581660D01*
X750625Y581518D01*
X750458Y581406D01*
X749344Y580292D01*
X749232Y580125D01*
X749090Y579983D01*
X748215Y578672D01*
X748138Y578487D01*
X748027Y578320D01*
X747423Y576864D01*
X747384Y576667D01*
X747307Y576481D01*
X747000Y574936D01*
Y574735D01*
X746961Y574538D01*
Y553750D01*
X746961Y553061D01*
X747000Y552864D01*
Y552663D01*
X747269Y551310D01*
X747346Y551125D01*
X747385Y550928D01*
X747913Y549654D01*
X748024Y549487D01*
X748101Y549301D01*
X748867Y548155D01*
X749009Y548013D01*
X749121Y547846D01*
X750096Y546871D01*
X750263Y546759D01*
X750405Y546617D01*
X751551Y545851D01*
X751737Y545774D01*
X751904Y545663D01*
X753178Y545135D01*
X753375Y545096D01*
X753560Y545019D01*
X754913Y544750D01*
X755114D01*
X755311Y544711D01*
X756000Y544711D01*
X763500D01*
Y543906D01*
X764337Y541884D01*
X765884Y540337D01*
X767906Y539500D01*
X770094D01*
X772115Y540337D01*
X773663Y541884D01*
X774500Y543906D01*
Y544711D01*
X791904D01*
X791948Y544720D01*
X791992Y544713D01*
X792337Y544797D01*
X792685Y544866D01*
X792722Y544891D01*
X792765Y544901D01*
X793051Y545111D01*
X793346Y545308D01*
X793371Y545345D01*
X793407Y545372D01*
X793591Y545675D01*
X793788Y545970D01*
X794359Y546698D01*
X794716Y546855D01*
X796904D01*
X798926Y547693D01*
X799000Y547767D01*
X803322D01*
X803901Y546901D01*
X805266Y545989D01*
X806875Y545669D01*
X811125D01*
X812735Y545989D01*
X812787Y546024D01*
X812997Y545972D01*
X814058Y545346D01*
X814084Y545308D01*
X814168Y545252D01*
X814232Y545174D01*
X814496Y545032D01*
X814745Y544866D01*
X814844Y544846D01*
X814933Y544799D01*
X815232Y544769D01*
X815526Y544711D01*
X823000D01*
X823066Y544724D01*
X823133Y544715D01*
X824308Y544792D01*
X824438Y544827D01*
X824573D01*
X825731Y545057D01*
X825917Y545134D01*
X826114Y545173D01*
X827570Y545776D01*
X827737Y545888D01*
X827922Y545965D01*
X829233Y546840D01*
X829375Y546982D01*
X829542Y547094D01*
X830656Y548208D01*
X830768Y548375D01*
X830910Y548517D01*
X831785Y549828D01*
X831862Y550013D01*
X831973Y550180D01*
X832577Y551636D01*
X832616Y551833D01*
X832693Y552019D01*
X833000Y553564D01*
Y553765D01*
X833039Y553962D01*
X833039Y554750D01*
X833039Y574750D01*
X833039Y574751D01*
Y574753D01*
X833022Y574836D01*
X833032Y574920D01*
X832936Y576092D01*
X832903Y576205D01*
Y576322D01*
X832731Y577189D01*
X832654Y577375D01*
X832615Y577572D01*
X832087Y578846D01*
X831976Y579013D01*
X831899Y579198D01*
X831133Y580345D01*
X830991Y580487D01*
X830879Y580654D01*
X829904Y581629D01*
X829737Y581741D01*
X829595Y581883D01*
X828449Y582649D01*
X828263Y582726D01*
X828096Y582837D01*
X826822Y583365D01*
X826806Y583368D01*
X826327Y583890D01*
X826063Y584851D01*
X826500Y585906D01*
Y588094D01*
X825663Y590116D01*
X824116Y591663D01*
X822094Y592500D01*
X819906D01*
X817885Y591663D01*
X817810Y591588D01*
X814440D01*
X814099Y592099D01*
X812735Y593011D01*
X811125Y593331D01*
D02*
G37*
G36*
X811125Y544331D02*
X810500D01*
Y539500D01*
X815331D01*
Y540125D01*
X815011Y541735D01*
X814099Y543099D01*
X812735Y544011D01*
X811125Y544331D01*
D02*
G37*
G36*
X807500D02*
X806875D01*
X805266Y544011D01*
X803901Y543099D01*
X802989Y541735D01*
X802669Y540125D01*
Y539500D01*
X807500D01*
Y544331D01*
D02*
G37*
G36*
X780000Y540313D02*
Y534050D01*
X783518D01*
Y536775D01*
X783248Y538131D01*
X782480Y539280D01*
X781331Y540048D01*
X780000Y540313D01*
D02*
G37*
G36*
X777000D02*
X775669Y540048D01*
X774520Y539280D01*
X773752Y538131D01*
X773482Y536775D01*
Y534050D01*
X777000D01*
Y540313D01*
D02*
G37*
G36*
X815331Y536500D02*
X810500D01*
Y531669D01*
X811125D01*
X812735Y531989D01*
X814099Y532901D01*
X815011Y534266D01*
X815331Y535875D01*
Y536500D01*
D02*
G37*
G36*
X807500D02*
X802669D01*
Y535875D01*
X802989Y534266D01*
X803901Y532901D01*
X805266Y531989D01*
X806875Y531669D01*
X807500D01*
Y536500D01*
D02*
G37*
G36*
X783518Y531050D02*
X780000D01*
Y524787D01*
X781331Y525052D01*
X782480Y525820D01*
X783248Y526969D01*
X783518Y528325D01*
Y531050D01*
D02*
G37*
G36*
X777000D02*
X773482D01*
Y528325D01*
X773752Y526969D01*
X774520Y525820D01*
X775669Y525052D01*
X777000Y524787D01*
Y531050D01*
D02*
G37*
G36*
X760975Y540318D02*
X758025D01*
X756669Y540048D01*
X755520Y539280D01*
X754752Y538131D01*
X754482Y536775D01*
Y528325D01*
X754752Y526969D01*
X755520Y525820D01*
X756669Y525052D01*
X758025Y524782D01*
X760975D01*
X762331Y525052D01*
X763480Y525820D01*
X764248Y526969D01*
X764518Y528325D01*
Y536775D01*
X764248Y538131D01*
X763480Y539280D01*
X762331Y540048D01*
X760975Y540318D01*
D02*
G37*
G36*
X814000Y499104D02*
X805500D01*
Y488500D01*
X825906D01*
X825691Y490133D01*
X824482Y493052D01*
X822559Y495559D01*
X820052Y497482D01*
X817133Y498691D01*
X814000Y499104D01*
D02*
G37*
G36*
X802500D02*
X794000D01*
X790867Y498691D01*
X787948Y497482D01*
X785442Y495559D01*
X783518Y493052D01*
X782309Y490133D01*
X782094Y488500D01*
X802500D01*
Y499104D01*
D02*
G37*
G36*
X825906Y485500D02*
X805500D01*
Y474897D01*
X814000D01*
X817133Y475309D01*
X820052Y476518D01*
X822559Y478442D01*
X824482Y480948D01*
X825691Y483867D01*
X825906Y485500D01*
D02*
G37*
G36*
X802500D02*
X782094D01*
X782309Y483867D01*
X783518Y480948D01*
X785442Y478442D01*
X787948Y476518D01*
X790867Y475309D01*
X794000Y474897D01*
X802500D01*
Y485500D01*
D02*
G37*
%LPD*%
G36*
X804127Y581750D02*
X805266Y580989D01*
X806875Y580669D01*
X811125D01*
X812735Y580989D01*
X813873Y581750D01*
X819303D01*
X819906Y581500D01*
X822094D01*
X822698Y581750D01*
X824000D01*
X824689Y581750D01*
X826042Y581481D01*
X827316Y580953D01*
X828462Y580187D01*
X829437Y579212D01*
X830203Y578066D01*
X830731Y576792D01*
X830903Y575924D01*
X831000Y574753D01*
Y574750D01*
X831000Y574750D01*
X831000Y574750D01*
X831000Y554750D01*
X831000Y553962D01*
X830693Y552416D01*
X830089Y550961D01*
X829214Y549650D01*
X828100Y548536D01*
X826789Y547660D01*
X825333Y547057D01*
X824175Y546827D01*
X823000Y546750D01*
X823000Y546750D01*
Y546750D01*
X815526D01*
X814847Y548020D01*
X815011Y548265D01*
X815331Y549875D01*
Y554125D01*
X815011Y555734D01*
X814099Y557099D01*
X812735Y558011D01*
X811125Y558331D01*
X806875D01*
X805266Y558011D01*
X803901Y557099D01*
X803797Y556944D01*
X799000D01*
X798926Y557018D01*
X796904Y557855D01*
X794716D01*
X792695Y557018D01*
X791148Y555471D01*
X790310Y553449D01*
Y551261D01*
X791148Y549240D01*
X792367Y548020D01*
X791904Y546750D01*
X774228D01*
X773663Y548116D01*
X773588Y548190D01*
Y549931D01*
X773743Y550062D01*
X774858Y550494D01*
X775669Y549952D01*
X777000Y549687D01*
Y557450D01*
Y565213D01*
X775669Y564948D01*
X774520Y564180D01*
X774514Y564171D01*
X772986D01*
X772980Y564180D01*
X771831Y564948D01*
X770475Y565218D01*
X767525D01*
X766169Y564948D01*
X765020Y564180D01*
X765014Y564171D01*
X763486D01*
X763480Y564180D01*
X762331Y564948D01*
X761000Y565213D01*
Y557450D01*
Y549687D01*
X762331Y549952D01*
X763133Y550488D01*
X763152Y550489D01*
X764258Y550062D01*
X764412Y549931D01*
Y548190D01*
X764337Y548116D01*
X763772Y546750D01*
X756000D01*
X755311Y546750D01*
X753958Y547019D01*
X752684Y547547D01*
X751538Y548313D01*
X750563Y549288D01*
X749797Y550434D01*
X749269Y551708D01*
X749000Y553060D01*
X749000Y553750D01*
Y574538D01*
X749307Y576083D01*
X749911Y577539D01*
X750786Y578850D01*
X751900Y579964D01*
X753211Y580840D01*
X754667Y581443D01*
X756212Y581750D01*
X757000D01*
X757000Y581750D01*
X804127Y581750D01*
D02*
G37*
%LPC*%
G36*
X811125Y579331D02*
X810500D01*
Y574500D01*
X815331D01*
Y575125D01*
X815011Y576735D01*
X814099Y578099D01*
X812735Y579011D01*
X811125Y579331D01*
D02*
G37*
G36*
X807500D02*
X806875D01*
X805266Y579011D01*
X803901Y578099D01*
X802989Y576735D01*
X802669Y575125D01*
Y574500D01*
X807500D01*
Y579331D01*
D02*
G37*
G36*
X815331Y571500D02*
X810500D01*
Y566669D01*
X811125D01*
X812735Y566989D01*
X814099Y567901D01*
X815011Y569266D01*
X815331Y570875D01*
Y571500D01*
D02*
G37*
G36*
X807500D02*
X802669D01*
Y570875D01*
X802989Y569266D01*
X803901Y567901D01*
X805266Y566989D01*
X806875Y566669D01*
X807500D01*
Y571500D01*
D02*
G37*
G36*
X780000Y565213D02*
Y558950D01*
X783518D01*
Y561675D01*
X783248Y563031D01*
X782480Y564180D01*
X781331Y564948D01*
X780000Y565213D01*
D02*
G37*
G36*
X758000D02*
X756669Y564948D01*
X755520Y564180D01*
X754752Y563031D01*
X754482Y561675D01*
Y558950D01*
X758000D01*
Y565213D01*
D02*
G37*
G36*
Y555950D02*
X754482D01*
Y553225D01*
X754752Y551869D01*
X755520Y550720D01*
X756669Y549952D01*
X758000Y549687D01*
Y555950D01*
D02*
G37*
G36*
X783518D02*
X780000D01*
Y549687D01*
X781331Y549952D01*
X782480Y550720D01*
X783248Y551869D01*
X783518Y553225D01*
Y555950D01*
D02*
G37*
G36*
X565094Y587500D02*
X562906D01*
X560885Y586663D01*
X559337Y585116D01*
X558500Y583094D01*
Y581789D01*
X518500Y581789D01*
X518500Y581789D01*
X517307D01*
X516526Y581634D01*
X514321Y580720D01*
X513659Y580278D01*
X511972Y578591D01*
X511530Y577929D01*
X510616Y575724D01*
X510461Y574944D01*
X510461Y558305D01*
X510616Y557525D01*
X511339Y555779D01*
X511781Y555117D01*
X513117Y553781D01*
X513779Y553339D01*
X515525Y552616D01*
X516305Y552461D01*
X521781D01*
X522004Y552461D01*
X522125Y551239D01*
D01*
Y551239D01*
X522006Y551166D01*
X521143Y550589D01*
X520104Y549896D01*
X518834Y547994D01*
X518387Y545750D01*
Y543500D01*
X530500D01*
X542613D01*
Y545750D01*
X543856Y545989D01*
X544029Y545571D01*
X544472Y544909D01*
X544472Y544909D01*
X546159Y543222D01*
X546821Y542780D01*
X549026Y541866D01*
X549807Y541711D01*
X571594D01*
X572397Y541711D01*
X572594Y541750D01*
X572795D01*
X574371Y542063D01*
X574556Y542140D01*
X574753Y542179D01*
X576237Y542794D01*
X576404Y542906D01*
X576590Y542983D01*
X577926Y543875D01*
X578068Y544017D01*
X578235Y544129D01*
X579371Y545265D01*
X579483Y545432D01*
X579625Y545574D01*
X580517Y546910D01*
X580594Y547095D01*
X580706Y547262D01*
X581320Y548747D01*
X581360Y548943D01*
X581437Y549129D01*
X581750Y550705D01*
Y550906D01*
X581789Y551103D01*
X581789Y551906D01*
X581789Y572750D01*
X581789Y572751D01*
Y572753D01*
X581772Y572838D01*
X581782Y572923D01*
X581683Y574105D01*
X581651Y574217D01*
Y574333D01*
X581481Y575189D01*
X581404Y575375D01*
X581365Y575572D01*
X580837Y576846D01*
X580726Y577013D01*
X580649Y577198D01*
X579883Y578345D01*
X579741Y578487D01*
X579629Y578654D01*
X578654Y579629D01*
X578487Y579741D01*
X578345Y579883D01*
X577199Y580649D01*
X577013Y580726D01*
X576846Y580837D01*
X575572Y581365D01*
X575375Y581404D01*
X575190Y581481D01*
X573837Y581750D01*
X573636D01*
X573439Y581789D01*
X572750Y581789D01*
X569500D01*
Y583094D01*
X568663Y585116D01*
X567116Y586663D01*
X565094Y587500D01*
D02*
G37*
G36*
X472500Y563060D02*
X469000D01*
Y543500D01*
X479560D01*
Y556000D01*
X479320Y557827D01*
X478615Y559530D01*
X477492Y560993D01*
X476030Y562114D01*
X474327Y562820D01*
X472500Y563060D01*
D02*
G37*
G36*
X466000D02*
X462500D01*
X460673Y562820D01*
X458970Y562114D01*
X457508Y560993D01*
X456385Y559530D01*
X455680Y557827D01*
X455440Y556000D01*
Y543500D01*
X466000D01*
Y563060D01*
D02*
G37*
G36*
X542613Y540500D02*
X530500D01*
X518387D01*
Y538250D01*
X518834Y536007D01*
X519280Y535338D01*
X518601Y534068D01*
X512279Y534068D01*
X511428Y534068D01*
X510648Y533913D01*
X510647Y533913D01*
X509075Y533262D01*
X509075Y533262D01*
X508743Y533040D01*
X508413Y532820D01*
X508413Y532820D01*
X507209Y531616D01*
X507209Y531616D01*
X506934Y531203D01*
X506767Y530954D01*
X506264Y529739D01*
X506210Y529468D01*
X506124Y529207D01*
X505976Y527998D01*
X505980Y527945D01*
X505966Y527894D01*
X505975Y527822D01*
X505961Y527750D01*
X505961Y505954D01*
X506116Y505174D01*
X506725Y503704D01*
X507167Y503042D01*
X508292Y501917D01*
X508954Y501475D01*
X510424Y500866D01*
X511204Y500711D01*
X525586D01*
X526160Y500711D01*
X526357Y500750D01*
X526558D01*
X527684Y500974D01*
X527869Y501051D01*
X528066Y501090D01*
X529127Y501529D01*
X529294Y501641D01*
X529479Y501718D01*
X530434Y502356D01*
X530576Y502498D01*
X530743Y502609D01*
X534906Y506772D01*
X535348Y507434D01*
X535503Y508214D01*
X535942Y508903D01*
X536497Y509387D01*
X536750D01*
X538993Y509834D01*
X540896Y511105D01*
X542166Y513007D01*
X542613Y515250D01*
Y522750D01*
X542166Y524994D01*
X540896Y526895D01*
X538993Y528166D01*
X536750Y528613D01*
X535921D01*
X535753Y528683D01*
X535480Y528917D01*
X534907Y529882D01*
X534907Y529883D01*
X534907Y529883D01*
X534826Y530289D01*
X534751Y530663D01*
X534751Y530663D01*
X534751Y530663D01*
X534496Y531046D01*
X534469Y531109D01*
X534461Y531117D01*
X534469Y531303D01*
X534689Y531963D01*
X534824Y532191D01*
X534979Y532387D01*
X536750D01*
X538993Y532834D01*
X540896Y534104D01*
X542166Y536007D01*
X542613Y538250D01*
Y540500D01*
D02*
G37*
G36*
X566125Y535331D02*
X565500D01*
Y530500D01*
X570331D01*
Y531125D01*
X570011Y532734D01*
X569099Y534099D01*
X567734Y535011D01*
X566125Y535331D01*
D02*
G37*
G36*
X562500D02*
X561875D01*
X560266Y535011D01*
X558901Y534099D01*
X557989Y532734D01*
X557669Y531125D01*
Y530500D01*
X562500D01*
Y535331D01*
D02*
G37*
G36*
X570331Y527500D02*
X565500D01*
Y522669D01*
X566125D01*
X567734Y522989D01*
X569099Y523901D01*
X570011Y525266D01*
X570331Y526875D01*
Y527500D01*
D02*
G37*
G36*
X562500D02*
X557669D01*
Y526875D01*
X557989Y525266D01*
X558901Y523901D01*
X560266Y522989D01*
X561875Y522669D01*
X562500D01*
Y527500D01*
D02*
G37*
G36*
X479560Y540500D02*
X469000D01*
Y520940D01*
X472500D01*
X474327Y521180D01*
X476030Y521885D01*
X477492Y523008D01*
X478615Y524470D01*
X479320Y526173D01*
X479560Y528000D01*
Y540500D01*
D02*
G37*
G36*
X466000D02*
X455440D01*
Y528000D01*
X455680Y526173D01*
X456385Y524470D01*
X457508Y523008D01*
X458970Y521885D01*
X460673Y521180D01*
X462500Y520940D01*
X466000D01*
Y540500D01*
D02*
G37*
G36*
X566125Y521331D02*
X561875D01*
X560266Y521011D01*
X558901Y520099D01*
X557989Y518735D01*
X557669Y517125D01*
Y512875D01*
X557989Y511265D01*
X558901Y509901D01*
X559412Y509560D01*
Y505190D01*
X559337Y505116D01*
X558500Y503094D01*
Y500906D01*
X559337Y498885D01*
X560885Y497337D01*
X562906Y496500D01*
X565094D01*
X567116Y497337D01*
X568663Y498885D01*
X569500Y500906D01*
Y503094D01*
X568663Y505116D01*
X568588Y505190D01*
Y509560D01*
X569099Y509901D01*
X570011Y511265D01*
X570331Y512875D01*
Y517125D01*
X570011Y518735D01*
X569099Y520099D01*
X567734Y521011D01*
X566125Y521331D01*
D02*
G37*
G36*
X524000Y499104D02*
X515500D01*
Y488500D01*
X535906D01*
X535691Y490133D01*
X534482Y493052D01*
X532559Y495559D01*
X530052Y497482D01*
X527133Y498691D01*
X524000Y499104D01*
D02*
G37*
G36*
X512500D02*
X504000D01*
X500867Y498691D01*
X497948Y497482D01*
X495442Y495559D01*
X493518Y493052D01*
X492309Y490133D01*
X492094Y488500D01*
X512500D01*
Y499104D01*
D02*
G37*
G36*
X535906Y485500D02*
X515500D01*
Y474897D01*
X524000D01*
X527133Y475309D01*
X530052Y476518D01*
X532559Y478442D01*
X534482Y480948D01*
X535691Y483867D01*
X535906Y485500D01*
D02*
G37*
G36*
X512500D02*
X492094D01*
X492309Y483867D01*
X493518Y480948D01*
X495442Y478442D01*
X497948Y476518D01*
X500867Y475309D01*
X504000Y474897D01*
X512500D01*
Y485500D01*
D02*
G37*
%LPD*%
G36*
X558979Y579750D02*
X559337Y578885D01*
X559412Y578810D01*
Y574440D01*
X558901Y574099D01*
X557989Y572734D01*
X557669Y571125D01*
Y566875D01*
X557989Y565266D01*
X558901Y563901D01*
X560266Y562989D01*
X561875Y562669D01*
X566125D01*
X567734Y562989D01*
X569099Y563901D01*
X570011Y565266D01*
X570331Y566875D01*
Y571125D01*
X570011Y572734D01*
X569099Y574099D01*
X568588Y574440D01*
Y578659D01*
X569385Y579750D01*
X572750D01*
X573439Y579750D01*
X574792Y579481D01*
X576066Y578953D01*
X577212Y578187D01*
X578187Y577212D01*
X578953Y576066D01*
X579481Y574792D01*
X579651Y573936D01*
X579750Y572753D01*
Y572750D01*
X579750Y572750D01*
X579750Y572750D01*
X579750Y551906D01*
X579750Y551103D01*
X579436Y549527D01*
X578822Y548043D01*
X577929Y546707D01*
X576793Y545571D01*
X575457Y544678D01*
X573973Y544063D01*
X572397Y543750D01*
X571594Y543750D01*
X549807D01*
X547601Y544664D01*
X545913Y546351D01*
X545000Y548557D01*
Y549750D01*
X544909Y550677D01*
X544199Y552389D01*
X542889Y553699D01*
X541413Y554311D01*
X541176Y554409D01*
X540252Y554500D01*
X540250Y554500D01*
X540250Y554500D01*
X540250Y554500D01*
X538799D01*
X538674Y555770D01*
X538993Y555834D01*
X540896Y557104D01*
X542166Y559007D01*
X542613Y561250D01*
Y563500D01*
X530500D01*
X518387D01*
Y561250D01*
X518834Y559007D01*
X520104Y557104D01*
X522006Y555834D01*
X522326Y555770D01*
X522201Y554500D01*
X516305D01*
X514559Y555223D01*
X513223Y556559D01*
X512500Y558305D01*
X512500Y574944D01*
X513413Y577149D01*
X515101Y578837D01*
X517307Y579750D01*
X518500D01*
Y579750D01*
X558979Y579750D01*
D02*
G37*
%LPC*%
G36*
X536750Y574613D02*
X532000D01*
Y566500D01*
X542613D01*
Y568750D01*
X542166Y570993D01*
X540896Y572896D01*
X538993Y574166D01*
X536750Y574613D01*
D02*
G37*
G36*
X529000D02*
X524250D01*
X522006Y574166D01*
X520104Y572896D01*
X518834Y570993D01*
X518387Y568750D01*
Y566500D01*
X529000D01*
Y574613D01*
D02*
G37*
G36*
X566125Y561331D02*
X565500D01*
Y556500D01*
X570331D01*
Y557125D01*
X570011Y558735D01*
X569099Y560099D01*
X567734Y561011D01*
X566125Y561331D01*
D02*
G37*
G36*
X562500D02*
X561875D01*
X560266Y561011D01*
X558901Y560099D01*
X557989Y558735D01*
X557669Y557125D01*
Y556500D01*
X562500D01*
Y561331D01*
D02*
G37*
G36*
X570331Y553500D02*
X565500D01*
Y548669D01*
X566125D01*
X567734Y548989D01*
X569099Y549901D01*
X570011Y551265D01*
X570331Y552875D01*
Y553500D01*
D02*
G37*
G36*
X562500D02*
X557669D01*
Y552875D01*
X557989Y551265D01*
X558901Y549901D01*
X560266Y548989D01*
X561875Y548669D01*
X562500D01*
Y553500D01*
D02*
G37*
%LPD*%
G36*
X512279Y532029D02*
X526912Y532029D01*
X526912Y532029D01*
X526912Y532029D01*
X526914D01*
X528086Y531976D01*
X529594Y531676D01*
X531268Y530983D01*
X532774Y529976D01*
X532867Y529883D01*
X532341Y528613D01*
X532000D01*
Y519000D01*
X530500D01*
D01*
X532000D01*
Y509387D01*
X532978D01*
X533464Y508214D01*
X529301Y504051D01*
X528346Y503413D01*
X527286Y502974D01*
X526160Y502750D01*
X525586Y502750D01*
X511204D01*
X509734Y503359D01*
X508609Y504484D01*
X508000Y505954D01*
X508000Y527750D01*
X508000Y527750D01*
X508148Y528959D01*
X508651Y530174D01*
X509855Y531378D01*
X511428Y532029D01*
X512279Y532029D01*
D02*
G37*
%LPC*%
G36*
X529000Y528613D02*
X524250D01*
X522006Y528166D01*
X520104Y526895D01*
X518834Y524994D01*
X518387Y522750D01*
Y520500D01*
X529000D01*
Y528613D01*
D02*
G37*
G36*
Y517500D02*
X518387D01*
Y515250D01*
X518834Y513007D01*
X520104Y511105D01*
X522006Y509834D01*
X524250Y509387D01*
X529000D01*
Y517500D01*
D02*
G37*
G36*
X420094Y587500D02*
X417906D01*
X415885Y586663D01*
X414337Y585116D01*
X413500Y583094D01*
Y581789D01*
X373500Y581789D01*
X373500Y581789D01*
X372307D01*
X371526Y581634D01*
X369321Y580720D01*
X368659Y580278D01*
X366972Y578591D01*
X366530Y577929D01*
X365616Y575724D01*
X365461Y574944D01*
X365461Y558305D01*
X365616Y557525D01*
X366339Y555779D01*
X366781Y555117D01*
X368117Y553781D01*
X368779Y553339D01*
X370525Y552616D01*
X371305Y552461D01*
X376781D01*
X377004Y552461D01*
X377125Y551239D01*
D01*
Y551239D01*
X377006Y551166D01*
X376143Y550589D01*
X375104Y549896D01*
X373834Y547994D01*
X373387Y545750D01*
Y543500D01*
X385500D01*
X397613D01*
Y545750D01*
X398856Y545989D01*
X399030Y545571D01*
X399472Y544909D01*
X399472Y544909D01*
X401159Y543222D01*
X401821Y542780D01*
X404026Y541866D01*
X404807Y541711D01*
X426594D01*
X427397Y541711D01*
X427594Y541750D01*
X427795D01*
X429371Y542063D01*
X429556Y542140D01*
X429753Y542179D01*
X431237Y542794D01*
X431404Y542906D01*
X431590Y542983D01*
X432926Y543875D01*
X433068Y544017D01*
X433235Y544129D01*
X434371Y545265D01*
X434483Y545432D01*
X434625Y545574D01*
X435517Y546910D01*
X435594Y547095D01*
X435706Y547262D01*
X436320Y548747D01*
X436360Y548943D01*
X436437Y549129D01*
X436750Y550705D01*
Y550906D01*
X436789Y551103D01*
X436789Y551906D01*
X436789Y572750D01*
X436789Y572751D01*
Y572753D01*
X436772Y572838D01*
X436782Y572923D01*
X436683Y574105D01*
X436651Y574217D01*
Y574333D01*
X436481Y575189D01*
X436404Y575375D01*
X436365Y575572D01*
X435837Y576846D01*
X435726Y577013D01*
X435649Y577198D01*
X434883Y578345D01*
X434741Y578487D01*
X434629Y578654D01*
X433654Y579629D01*
X433487Y579741D01*
X433345Y579883D01*
X432199Y580649D01*
X432013Y580726D01*
X431846Y580837D01*
X430572Y581365D01*
X430375Y581404D01*
X430190Y581481D01*
X428837Y581750D01*
X428636D01*
X428439Y581789D01*
X427750Y581789D01*
X424500D01*
Y583094D01*
X423663Y585116D01*
X422116Y586663D01*
X420094Y587500D01*
D02*
G37*
G36*
X327500Y563060D02*
X324000D01*
Y543500D01*
X334560D01*
Y556000D01*
X334320Y557827D01*
X333615Y559530D01*
X332492Y560993D01*
X331030Y562114D01*
X329327Y562820D01*
X327500Y563060D01*
D02*
G37*
G36*
X321000D02*
X317500D01*
X315673Y562820D01*
X313970Y562114D01*
X312508Y560993D01*
X311385Y559530D01*
X310680Y557827D01*
X310440Y556000D01*
Y543500D01*
X321000D01*
Y563060D01*
D02*
G37*
G36*
X397613Y540500D02*
X385500D01*
X373387D01*
Y538250D01*
X373834Y536007D01*
X374280Y535338D01*
X373601Y534068D01*
X367279Y534068D01*
X366428Y534068D01*
X365648Y533913D01*
X365648Y533913D01*
X364075Y533262D01*
X364075Y533262D01*
X363743Y533040D01*
X363413Y532820D01*
X363413Y532820D01*
X362209Y531616D01*
X362209Y531616D01*
X361934Y531203D01*
X361767Y530954D01*
X361264Y529739D01*
X361210Y529468D01*
X361124Y529207D01*
X360976Y527998D01*
X360980Y527945D01*
X360966Y527894D01*
X360975Y527822D01*
X360961Y527750D01*
X360961Y505954D01*
X361116Y505174D01*
X361725Y503704D01*
X362167Y503042D01*
X363292Y501917D01*
X363954Y501475D01*
X365424Y500866D01*
X366204Y500711D01*
X380586D01*
X381160Y500711D01*
X381357Y500750D01*
X381558D01*
X382684Y500974D01*
X382869Y501051D01*
X383066Y501090D01*
X384127Y501529D01*
X384294Y501641D01*
X384479Y501718D01*
X385434Y502356D01*
X385576Y502498D01*
X385743Y502609D01*
X389906Y506772D01*
X390348Y507434D01*
X390503Y508214D01*
X390942Y508903D01*
X391497Y509387D01*
X391750D01*
X393993Y509834D01*
X395896Y511105D01*
X397166Y513007D01*
X397613Y515250D01*
Y522750D01*
X397166Y524994D01*
X395896Y526895D01*
X393993Y528166D01*
X391750Y528613D01*
X390921D01*
X390753Y528683D01*
X390480Y528917D01*
X389907Y529882D01*
X389907Y529883D01*
X389907Y529883D01*
X389826Y530289D01*
X389751Y530663D01*
X389751Y530663D01*
X389751Y530663D01*
X389496Y531046D01*
X389469Y531109D01*
X389461Y531117D01*
X389469Y531303D01*
X389689Y531963D01*
X389824Y532191D01*
X389979Y532387D01*
X391750D01*
X393993Y532834D01*
X395896Y534104D01*
X397166Y536007D01*
X397613Y538250D01*
Y540500D01*
D02*
G37*
G36*
X421125Y535331D02*
X420500D01*
Y530500D01*
X425331D01*
Y531125D01*
X425011Y532734D01*
X424099Y534099D01*
X422734Y535011D01*
X421125Y535331D01*
D02*
G37*
G36*
X417500D02*
X416875D01*
X415266Y535011D01*
X413901Y534099D01*
X412989Y532734D01*
X412669Y531125D01*
Y530500D01*
X417500D01*
Y535331D01*
D02*
G37*
G36*
X425331Y527500D02*
X420500D01*
Y522669D01*
X421125D01*
X422734Y522989D01*
X424099Y523901D01*
X425011Y525266D01*
X425331Y526875D01*
Y527500D01*
D02*
G37*
G36*
X417500D02*
X412669D01*
Y526875D01*
X412989Y525266D01*
X413901Y523901D01*
X415266Y522989D01*
X416875Y522669D01*
X417500D01*
Y527500D01*
D02*
G37*
G36*
X334560Y540500D02*
X324000D01*
Y520940D01*
X327500D01*
X329327Y521180D01*
X331030Y521885D01*
X332492Y523008D01*
X333615Y524470D01*
X334320Y526173D01*
X334560Y528000D01*
Y540500D01*
D02*
G37*
G36*
X321000D02*
X310440D01*
Y528000D01*
X310680Y526173D01*
X311385Y524470D01*
X312508Y523008D01*
X313970Y521885D01*
X315673Y521180D01*
X317500Y520940D01*
X321000D01*
Y540500D01*
D02*
G37*
G36*
X421125Y521331D02*
X416875D01*
X415266Y521011D01*
X413901Y520099D01*
X412989Y518735D01*
X412669Y517125D01*
Y512875D01*
X412989Y511265D01*
X413901Y509901D01*
X414412Y509560D01*
Y505190D01*
X414337Y505116D01*
X413500Y503094D01*
Y500906D01*
X414337Y498885D01*
X415885Y497337D01*
X417906Y496500D01*
X420094D01*
X422116Y497337D01*
X423663Y498885D01*
X424500Y500906D01*
Y503094D01*
X423663Y505116D01*
X423588Y505190D01*
Y509560D01*
X424099Y509901D01*
X425011Y511265D01*
X425331Y512875D01*
Y517125D01*
X425011Y518735D01*
X424099Y520099D01*
X422734Y521011D01*
X421125Y521331D01*
D02*
G37*
G36*
X379000Y499104D02*
X370500D01*
Y488500D01*
X390906D01*
X390691Y490133D01*
X389482Y493052D01*
X387559Y495559D01*
X385052Y497482D01*
X382133Y498691D01*
X379000Y499104D01*
D02*
G37*
G36*
X367500D02*
X359000D01*
X355867Y498691D01*
X352948Y497482D01*
X350442Y495559D01*
X348518Y493052D01*
X347309Y490133D01*
X347094Y488500D01*
X367500D01*
Y499104D01*
D02*
G37*
G36*
X390906Y485500D02*
X370500D01*
Y474897D01*
X379000D01*
X382133Y475309D01*
X385052Y476518D01*
X387559Y478442D01*
X389482Y480948D01*
X390691Y483867D01*
X390906Y485500D01*
D02*
G37*
G36*
X367500D02*
X347094D01*
X347309Y483867D01*
X348518Y480948D01*
X350442Y478442D01*
X352948Y476518D01*
X355867Y475309D01*
X359000Y474897D01*
X367500D01*
Y485500D01*
D02*
G37*
%LPD*%
G36*
X413979Y579750D02*
X414337Y578885D01*
X414412Y578810D01*
Y574440D01*
X413901Y574099D01*
X412989Y572734D01*
X412669Y571125D01*
Y566875D01*
X412989Y565266D01*
X413901Y563901D01*
X415266Y562989D01*
X416875Y562669D01*
X421125D01*
X422734Y562989D01*
X424099Y563901D01*
X425011Y565266D01*
X425331Y566875D01*
Y571125D01*
X425011Y572734D01*
X424099Y574099D01*
X423588Y574440D01*
Y578659D01*
X424385Y579750D01*
X427750D01*
X428439Y579750D01*
X429792Y579481D01*
X431066Y578953D01*
X432212Y578187D01*
X433187Y577212D01*
X433953Y576066D01*
X434481Y574792D01*
X434651Y573936D01*
X434750Y572753D01*
Y572750D01*
X434750Y572750D01*
X434750Y572750D01*
X434750Y551906D01*
X434750Y551103D01*
X434436Y549527D01*
X433822Y548043D01*
X432929Y546707D01*
X431793Y545571D01*
X430457Y544678D01*
X428973Y544063D01*
X427397Y543750D01*
X426594Y543750D01*
X404807D01*
X402601Y544664D01*
X400913Y546351D01*
X400000Y548557D01*
Y549750D01*
X399909Y550677D01*
X399199Y552389D01*
X397889Y553699D01*
X396413Y554311D01*
X396177Y554409D01*
X395252Y554500D01*
X395250Y554500D01*
X395250Y554500D01*
X395250Y554500D01*
X393799D01*
X393674Y555770D01*
X393993Y555834D01*
X395896Y557104D01*
X397166Y559007D01*
X397613Y561250D01*
Y563500D01*
X385500D01*
X373387D01*
Y561250D01*
X373834Y559007D01*
X375104Y557104D01*
X377006Y555834D01*
X377326Y555770D01*
X377201Y554500D01*
X371305D01*
X369559Y555223D01*
X368223Y556559D01*
X367500Y558305D01*
X367500Y574944D01*
X368413Y577149D01*
X370101Y578837D01*
X372307Y579750D01*
X373500D01*
Y579750D01*
X413979Y579750D01*
D02*
G37*
%LPC*%
G36*
X391750Y574613D02*
X387000D01*
Y566500D01*
X397613D01*
Y568750D01*
X397166Y570993D01*
X395896Y572896D01*
X393993Y574166D01*
X391750Y574613D01*
D02*
G37*
G36*
X384000D02*
X379250D01*
X377006Y574166D01*
X375104Y572896D01*
X373834Y570993D01*
X373387Y568750D01*
Y566500D01*
X384000D01*
Y574613D01*
D02*
G37*
G36*
X421125Y561331D02*
X420500D01*
Y556500D01*
X425331D01*
Y557125D01*
X425011Y558735D01*
X424099Y560099D01*
X422734Y561011D01*
X421125Y561331D01*
D02*
G37*
G36*
X417500D02*
X416875D01*
X415266Y561011D01*
X413901Y560099D01*
X412989Y558735D01*
X412669Y557125D01*
Y556500D01*
X417500D01*
Y561331D01*
D02*
G37*
G36*
X425331Y553500D02*
X420500D01*
Y548669D01*
X421125D01*
X422734Y548989D01*
X424099Y549901D01*
X425011Y551265D01*
X425331Y552875D01*
Y553500D01*
D02*
G37*
G36*
X417500D02*
X412669D01*
Y552875D01*
X412989Y551265D01*
X413901Y549901D01*
X415266Y548989D01*
X416875Y548669D01*
X417500D01*
Y553500D01*
D02*
G37*
%LPD*%
G36*
X367279Y532029D02*
X381912Y532029D01*
X381912Y532029D01*
X381912Y532029D01*
X381914D01*
X383086Y531976D01*
X384594Y531676D01*
X386268Y530983D01*
X387774Y529976D01*
X387867Y529883D01*
X387341Y528613D01*
X387000D01*
Y519000D01*
Y509387D01*
X387978D01*
X388464Y508214D01*
X384301Y504051D01*
X383346Y503413D01*
X382286Y502974D01*
X381160Y502750D01*
X380586Y502750D01*
X366204D01*
X364734Y503359D01*
X363609Y504484D01*
X363000Y505954D01*
X363000Y527750D01*
X363000Y527750D01*
X363148Y528959D01*
X363651Y530174D01*
X364855Y531378D01*
X366428Y532029D01*
X367279Y532029D01*
D02*
G37*
%LPC*%
G36*
X384000Y528613D02*
X379250D01*
X377006Y528166D01*
X375104Y526895D01*
X373834Y524994D01*
X373387Y522750D01*
Y520500D01*
X384000D01*
Y528613D01*
D02*
G37*
G36*
Y517500D02*
X373387D01*
Y515250D01*
X373834Y513007D01*
X375104Y511105D01*
X377006Y509834D01*
X379250Y509387D01*
X384000D01*
Y517500D01*
D02*
G37*
G36*
X294750Y655250D02*
X282000D01*
Y642500D01*
X294750D01*
Y655250D01*
D02*
G37*
G36*
X278000D02*
X265250D01*
Y642500D01*
X278000D01*
Y655250D01*
D02*
G37*
G36*
X294750Y638500D02*
X282000D01*
Y625750D01*
X294750D01*
Y638500D01*
D02*
G37*
G36*
X278000D02*
X265250D01*
Y625750D01*
X278000D01*
Y638500D01*
D02*
G37*
G36*
X281500Y572108D02*
X279500D01*
Y564500D01*
X287108D01*
Y566500D01*
X286681Y568646D01*
X285465Y570465D01*
X283646Y571681D01*
X281500Y572108D01*
D02*
G37*
G36*
X276500D02*
X274500D01*
X272354Y571681D01*
X270535Y570465D01*
X269319Y568646D01*
X268892Y566500D01*
Y564500D01*
X276500D01*
Y572108D01*
D02*
G37*
G36*
X287108Y561500D02*
X279500D01*
Y553892D01*
X281500D01*
X283646Y554319D01*
X285465Y555535D01*
X286681Y557354D01*
X287108Y559500D01*
Y561500D01*
D02*
G37*
G36*
X276500D02*
X268892D01*
Y559500D01*
X269319Y557354D01*
X270535Y555535D01*
X272354Y554319D01*
X274500Y553892D01*
X276500D01*
Y561500D01*
D02*
G37*
G36*
X895554Y380500D02*
X879346D01*
Y379787D01*
X879559Y378719D01*
X879979Y378090D01*
X880090Y377250D01*
X879979Y376410D01*
X879559Y375781D01*
X879346Y374712D01*
Y374000D01*
X895554D01*
Y374712D01*
X895341Y375781D01*
X894921Y376410D01*
X894810Y377250D01*
X894921Y378090D01*
X895341Y378719D01*
X895554Y379787D01*
Y380500D01*
D02*
G37*
G36*
Y371000D02*
X888950D01*
Y367496D01*
X892763D01*
X893831Y367709D01*
X894736Y368314D01*
X895341Y369219D01*
X895554Y370288D01*
Y371000D01*
D02*
G37*
G36*
X885950D02*
X879346D01*
Y370288D01*
X879559Y369219D01*
X880164Y368314D01*
X881069Y367709D01*
X882138Y367496D01*
X885950D01*
Y371000D01*
D02*
G37*
G36*
X810554D02*
X803950D01*
Y367496D01*
X807763D01*
X808831Y367709D01*
X809736Y368314D01*
X810341Y369219D01*
X810554Y370288D01*
Y371000D01*
D02*
G37*
G36*
X800950D02*
X794346D01*
Y370288D01*
X794559Y369219D01*
X795164Y368314D01*
X796069Y367709D01*
X797138Y367496D01*
X800950D01*
Y371000D01*
D02*
G37*
G36*
X895554Y310500D02*
X879346D01*
Y309788D01*
X879559Y308719D01*
X879979Y308090D01*
X880090Y307250D01*
X879979Y306410D01*
X879559Y305781D01*
X879346Y304713D01*
Y304000D01*
X895554D01*
Y304713D01*
X895341Y305781D01*
X894921Y306410D01*
X894810Y307250D01*
X894921Y308090D01*
X895341Y308719D01*
X895554Y309788D01*
Y310500D01*
D02*
G37*
G36*
Y301000D02*
X888950D01*
Y297496D01*
X892763D01*
X893831Y297709D01*
X894736Y298314D01*
X895341Y299219D01*
X895554Y300287D01*
Y301000D01*
D02*
G37*
G36*
X885950D02*
X879346D01*
Y300287D01*
X879559Y299219D01*
X880164Y298314D01*
X881069Y297709D01*
X882138Y297496D01*
X885950D01*
Y301000D01*
D02*
G37*
G36*
X810554Y301000D02*
X803950D01*
Y297496D01*
X807763D01*
X808831Y297709D01*
X809736Y298314D01*
X810341Y299219D01*
X810554Y300287D01*
Y301000D01*
D02*
G37*
G36*
X800950D02*
X794346D01*
Y300287D01*
X794559Y299219D01*
X795164Y298314D01*
X796069Y297709D01*
X797138Y297496D01*
X800950D01*
Y301000D01*
D02*
G37*
G36*
X29200Y350915D02*
X27200D01*
Y344850D01*
X36567D01*
X36507Y345308D01*
X35751Y347132D01*
X34549Y348699D01*
X32982Y349901D01*
X31158Y350657D01*
X29200Y350915D01*
D02*
G37*
G36*
X24200D02*
X22200D01*
X20242Y350657D01*
X18418Y349901D01*
X16851Y348699D01*
X15649Y347132D01*
X14893Y345308D01*
X14833Y344850D01*
X24200D01*
Y350915D01*
D02*
G37*
G36*
X58000Y347663D02*
X57500D01*
Y341850D01*
X65115D01*
X65063Y342243D01*
X64333Y344006D01*
X63171Y345521D01*
X61656Y346683D01*
X59893Y347413D01*
X58000Y347663D01*
D02*
G37*
G36*
X54500D02*
X54000D01*
X52107Y347413D01*
X50344Y346683D01*
X48829Y345521D01*
X47667Y344006D01*
X46937Y342243D01*
X46885Y341850D01*
X54500D01*
Y347663D01*
D02*
G37*
G36*
X65115Y338850D02*
X57500D01*
Y333037D01*
X58000D01*
X59893Y333287D01*
X61656Y334017D01*
X63171Y335179D01*
X64333Y336694D01*
X65063Y338457D01*
X65115Y338850D01*
D02*
G37*
G36*
X54500D02*
X46885D01*
X46937Y338457D01*
X47667Y336694D01*
X48829Y335179D01*
X50344Y334017D01*
X52107Y333287D01*
X54000Y333037D01*
X54500D01*
Y338850D01*
D02*
G37*
G36*
X60200Y325698D02*
X57200D01*
Y317600D01*
X65298D01*
Y320600D01*
X64910Y322551D01*
X63805Y324205D01*
X62151Y325310D01*
X60200Y325698D01*
D02*
G37*
G36*
X54200D02*
X51200D01*
X49249Y325310D01*
X47595Y324205D01*
X46490Y322551D01*
X46102Y320600D01*
Y317600D01*
X54200D01*
Y325698D01*
D02*
G37*
G36*
X65298Y314600D02*
X57200D01*
Y306502D01*
X60200D01*
X62151Y306890D01*
X63805Y307995D01*
X64910Y309649D01*
X65298Y311600D01*
Y314600D01*
D02*
G37*
G36*
X54200D02*
X46102D01*
Y311600D01*
X46490Y309649D01*
X47595Y307995D01*
X49249Y306890D01*
X51200Y306502D01*
X54200D01*
Y314600D01*
D02*
G37*
G36*
X58000Y299163D02*
X57500D01*
Y293350D01*
X65115D01*
X65063Y293743D01*
X64333Y295506D01*
X63171Y297021D01*
X61656Y298183D01*
X59893Y298913D01*
X58000Y299163D01*
D02*
G37*
G36*
X54500D02*
X54000D01*
X52107Y298913D01*
X50344Y298183D01*
X48829Y297021D01*
X47667Y295506D01*
X46937Y293743D01*
X46885Y293350D01*
X54500D01*
Y299163D01*
D02*
G37*
G36*
X36567Y341850D02*
X25700D01*
X14833D01*
X14893Y341392D01*
X15649Y339568D01*
X16851Y338001D01*
X18198Y336967D01*
X18199Y336295D01*
X17916Y335641D01*
X16249Y335310D01*
X14595Y334205D01*
X13490Y332551D01*
X13102Y330600D01*
Y321600D01*
X13490Y319649D01*
X14595Y317995D01*
X16249Y316890D01*
X16966Y316747D01*
Y315452D01*
X16249Y315310D01*
X14595Y314205D01*
X13490Y312551D01*
X13102Y310600D01*
Y301600D01*
X13490Y299649D01*
X14595Y297995D01*
X16249Y296890D01*
X17916Y296559D01*
X18199Y295905D01*
X18198Y295233D01*
X16851Y294199D01*
X15649Y292632D01*
X14893Y290808D01*
X14833Y290350D01*
X25700D01*
X36567D01*
X36507Y290808D01*
X35751Y292632D01*
X34549Y294199D01*
X32982Y295401D01*
X31158Y296157D01*
X30474Y296247D01*
X30166Y297568D01*
X30805Y297995D01*
X31910Y299649D01*
X32298Y301600D01*
Y310600D01*
X31910Y312551D01*
X30805Y314205D01*
X29151Y315310D01*
X28434Y315452D01*
Y316747D01*
X29151Y316890D01*
X30805Y317995D01*
X31910Y319649D01*
X32298Y321600D01*
Y330600D01*
X31910Y332551D01*
X30805Y334205D01*
X30166Y334632D01*
X30474Y335953D01*
X31158Y336043D01*
X32982Y336799D01*
X34549Y338001D01*
X35751Y339568D01*
X36507Y341392D01*
X36567Y341850D01*
D02*
G37*
G36*
X65115Y290350D02*
X57500D01*
Y284537D01*
X58000D01*
X59893Y284787D01*
X61656Y285517D01*
X63171Y286679D01*
X64333Y288194D01*
X65063Y289957D01*
X65115Y290350D01*
D02*
G37*
G36*
X54500D02*
X46885D01*
X46937Y289957D01*
X47667Y288194D01*
X48829Y286679D01*
X50344Y285517D01*
X52107Y284787D01*
X54000Y284537D01*
X54500D01*
Y290350D01*
D02*
G37*
G36*
X36567Y287350D02*
X27200D01*
Y281285D01*
X29200D01*
X31158Y281543D01*
X32982Y282299D01*
X34549Y283501D01*
X35751Y285068D01*
X36507Y286892D01*
X36567Y287350D01*
D02*
G37*
G36*
X24200D02*
X14833D01*
X14893Y286892D01*
X15649Y285068D01*
X16851Y283501D01*
X18418Y282299D01*
X20242Y281543D01*
X22200Y281285D01*
X24200D01*
Y287350D01*
D02*
G37*
G36*
X895554Y245500D02*
X879346D01*
Y244788D01*
X879559Y243719D01*
X879979Y243090D01*
X880090Y242250D01*
X879979Y241410D01*
X879559Y240781D01*
X879346Y239713D01*
Y239000D01*
X895554D01*
Y239713D01*
X895341Y240781D01*
X894921Y241410D01*
X894810Y242250D01*
X894921Y243090D01*
X895341Y243719D01*
X895554Y244788D01*
Y245500D01*
D02*
G37*
G36*
Y236000D02*
X888950D01*
Y232496D01*
X892763D01*
X893831Y232709D01*
X894736Y233314D01*
X895341Y234219D01*
X895554Y235287D01*
Y236000D01*
D02*
G37*
G36*
X885950D02*
X879346D01*
Y235287D01*
X879559Y234219D01*
X880164Y233314D01*
X881069Y232709D01*
X882138Y232496D01*
X885950D01*
Y236000D01*
D02*
G37*
G36*
X810554Y245500D02*
X794346D01*
Y244788D01*
X794559Y243719D01*
X794979Y243090D01*
X795090Y242250D01*
X794979Y241410D01*
X794559Y240781D01*
X794346Y239713D01*
Y239000D01*
X810554D01*
Y239713D01*
X810341Y240781D01*
X809921Y241410D01*
X809810Y242250D01*
X809921Y243090D01*
X810341Y243719D01*
X810554Y244788D01*
Y245500D01*
D02*
G37*
G36*
Y236000D02*
X803950D01*
Y232496D01*
X807763D01*
X808831Y232709D01*
X809736Y233314D01*
X810341Y234219D01*
X810554Y235287D01*
Y236000D01*
D02*
G37*
G36*
X800950D02*
X794346D01*
Y235287D01*
X794559Y234219D01*
X795164Y233314D01*
X796069Y232709D01*
X797138Y232496D01*
X800950D01*
Y236000D01*
D02*
G37*
G36*
X885207Y180481D02*
X884582D01*
Y175650D01*
X889413D01*
Y176275D01*
X889093Y177885D01*
X888181Y179249D01*
X886816Y180161D01*
X885207Y180481D01*
D02*
G37*
G36*
X917088Y174000D02*
X909500D01*
Y168412D01*
X912500D01*
X914256Y168761D01*
X915744Y169756D01*
X916739Y171244D01*
X917088Y173000D01*
Y174000D01*
D02*
G37*
G36*
X906500D02*
X898912D01*
Y173000D01*
X899261Y171244D01*
X900256Y169756D01*
X901744Y168761D01*
X903500Y168412D01*
X906500D01*
Y174000D01*
D02*
G37*
G36*
X889413Y172650D02*
X884582D01*
Y167819D01*
X885207D01*
X886816Y168139D01*
X888181Y169051D01*
X889093Y170415D01*
X889413Y172025D01*
Y172650D01*
D02*
G37*
G36*
X255750Y99603D02*
X254000D01*
Y91250D01*
X261103D01*
Y94250D01*
X260695Y96299D01*
X259535Y98035D01*
X257798Y99195D01*
X255750Y99603D01*
D02*
G37*
G36*
X251000D02*
X249250D01*
X247202Y99195D01*
X245465Y98035D01*
X244305Y96299D01*
X243897Y94250D01*
Y91250D01*
X251000D01*
Y99603D01*
D02*
G37*
G36*
X226094Y108500D02*
X223906D01*
X221884Y107663D01*
X220337Y106116D01*
X219500Y104094D01*
Y101906D01*
X220337Y99885D01*
X220986Y99235D01*
X221037Y99013D01*
X220876Y97750D01*
X219901Y97099D01*
X218989Y95735D01*
X218669Y94125D01*
Y89875D01*
X218989Y88265D01*
X219901Y86901D01*
X221266Y85989D01*
X222875Y85669D01*
X227125D01*
X228734Y85989D01*
X230099Y86901D01*
X231011Y88265D01*
X231331Y89875D01*
Y94125D01*
X231011Y95735D01*
X230099Y97099D01*
X229124Y97750D01*
X228963Y99013D01*
X229014Y99235D01*
X229663Y99885D01*
X230500Y101906D01*
Y104094D01*
X229663Y106116D01*
X228116Y107663D01*
X226094Y108500D01*
D02*
G37*
G36*
X261103Y88250D02*
X254000D01*
Y79897D01*
X255750D01*
X257798Y80305D01*
X259535Y81465D01*
X260695Y83202D01*
X261103Y85250D01*
Y88250D01*
D02*
G37*
G36*
X251000D02*
X243897D01*
Y85250D01*
X244305Y83202D01*
X245465Y81465D01*
X247202Y80305D01*
X249250Y79897D01*
X251000D01*
Y88250D01*
D02*
G37*
G36*
X227125Y84331D02*
X226500D01*
Y79500D01*
X231331D01*
Y80125D01*
X231011Y81734D01*
X230099Y83099D01*
X228734Y84011D01*
X227125Y84331D01*
D02*
G37*
G36*
X223500D02*
X222875D01*
X221266Y84011D01*
X219901Y83099D01*
X218989Y81734D01*
X218669Y80125D01*
Y79500D01*
X223500D01*
Y84331D01*
D02*
G37*
G36*
X231331Y76500D02*
X226500D01*
Y71669D01*
X227125D01*
X228734Y71989D01*
X230099Y72901D01*
X231011Y74265D01*
X231331Y75875D01*
Y76500D01*
D02*
G37*
G36*
X223500D02*
X218669D01*
Y75875D01*
X218989Y74265D01*
X219901Y72901D01*
X221266Y71989D01*
X222875Y71669D01*
X223500D01*
Y76500D01*
D02*
G37*
G36*
X227125Y43331D02*
X226500D01*
Y38500D01*
X231331D01*
Y39125D01*
X231011Y40735D01*
X230099Y42099D01*
X228734Y43011D01*
X227125Y43331D01*
D02*
G37*
G36*
X223500D02*
X222875D01*
X221266Y43011D01*
X219901Y42099D01*
X218989Y40735D01*
X218669Y39125D01*
Y38500D01*
X223500D01*
Y43331D01*
D02*
G37*
G36*
X231331Y35500D02*
X226500D01*
Y30669D01*
X227125D01*
X228734Y30989D01*
X230099Y31901D01*
X231011Y33266D01*
X231331Y34875D01*
Y35500D01*
D02*
G37*
G36*
X223500D02*
X218669D01*
Y34875D01*
X218989Y33266D01*
X219901Y31901D01*
X221266Y30989D01*
X222875Y30669D01*
X223500D01*
Y35500D01*
D02*
G37*
G36*
X255750Y20103D02*
X254000D01*
Y11750D01*
X261103D01*
Y14750D01*
X260695Y16798D01*
X259535Y18535D01*
X257798Y19695D01*
X255750Y20103D01*
D02*
G37*
G36*
X251000D02*
X249250D01*
X247202Y19695D01*
X245465Y18535D01*
X244305Y16798D01*
X243897Y14750D01*
Y11750D01*
X251000D01*
Y20103D01*
D02*
G37*
G36*
X227125Y29331D02*
X222875D01*
X221266Y29011D01*
X219901Y28099D01*
X218989Y26734D01*
X218669Y25125D01*
Y20875D01*
X218989Y19266D01*
X219901Y17901D01*
X220876Y17249D01*
X221037Y15987D01*
X220986Y15765D01*
X220337Y15115D01*
X219500Y13094D01*
Y10906D01*
X220337Y8885D01*
X221884Y7337D01*
X223906Y6500D01*
X226094D01*
X228116Y7337D01*
X229663Y8885D01*
X230500Y10906D01*
Y13094D01*
X229663Y15115D01*
X229014Y15765D01*
X228963Y15987D01*
X229124Y17249D01*
X230099Y17901D01*
X231011Y19266D01*
X231331Y20875D01*
Y25125D01*
X231011Y26734D01*
X230099Y28099D01*
X228734Y29011D01*
X227125Y29331D01*
D02*
G37*
G36*
X126750Y99603D02*
X125000D01*
Y91250D01*
X132103D01*
Y94250D01*
X131695Y96299D01*
X130535Y98035D01*
X128798Y99195D01*
X126750Y99603D01*
D02*
G37*
G36*
X122000D02*
X120250D01*
X118202Y99195D01*
X116465Y98035D01*
X115305Y96299D01*
X114897Y94250D01*
Y91250D01*
X122000D01*
Y99603D01*
D02*
G37*
G36*
X97094Y108500D02*
X94906D01*
X92885Y107663D01*
X91337Y106116D01*
X90500Y104094D01*
Y101906D01*
X91337Y99885D01*
X91986Y99235D01*
X92037Y99013D01*
X91876Y97750D01*
X90901Y97099D01*
X89989Y95735D01*
X89669Y94125D01*
Y89875D01*
X89989Y88265D01*
X90901Y86901D01*
X92266Y85989D01*
X93875Y85669D01*
X98125D01*
X99734Y85989D01*
X101099Y86901D01*
X102011Y88265D01*
X102331Y89875D01*
Y94125D01*
X102011Y95735D01*
X101099Y97099D01*
X100124Y97750D01*
X99963Y99013D01*
X100014Y99235D01*
X100663Y99885D01*
X101500Y101906D01*
Y104094D01*
X100663Y106116D01*
X99115Y107663D01*
X97094Y108500D01*
D02*
G37*
G36*
X132103Y88250D02*
X125000D01*
Y79897D01*
X126750D01*
X128798Y80305D01*
X130535Y81465D01*
X131695Y83202D01*
X132103Y85250D01*
Y88250D01*
D02*
G37*
G36*
X122000D02*
X114897D01*
Y85250D01*
X115305Y83202D01*
X116465Y81465D01*
X118202Y80305D01*
X120250Y79897D01*
X122000D01*
Y88250D01*
D02*
G37*
G36*
X98125Y84331D02*
X97500D01*
Y79500D01*
X102331D01*
Y80125D01*
X102011Y81734D01*
X101099Y83099D01*
X99734Y84011D01*
X98125Y84331D01*
D02*
G37*
G36*
X94500D02*
X93875D01*
X92266Y84011D01*
X90901Y83099D01*
X89989Y81734D01*
X89669Y80125D01*
Y79500D01*
X94500D01*
Y84331D01*
D02*
G37*
G36*
X102331Y76500D02*
X97500D01*
Y71669D01*
X98125D01*
X99734Y71989D01*
X101099Y72901D01*
X102011Y74265D01*
X102331Y75875D01*
Y76500D01*
D02*
G37*
G36*
X94500D02*
X89669D01*
Y75875D01*
X89989Y74265D01*
X90901Y72901D01*
X92266Y71989D01*
X93875Y71669D01*
X94500D01*
Y76500D01*
D02*
G37*
G36*
X98125Y43331D02*
X97500D01*
Y38500D01*
X102331D01*
Y39125D01*
X102011Y40735D01*
X101099Y42099D01*
X99734Y43011D01*
X98125Y43331D01*
D02*
G37*
G36*
X94500D02*
X93875D01*
X92266Y43011D01*
X90901Y42099D01*
X89989Y40735D01*
X89669Y39125D01*
Y38500D01*
X94500D01*
Y43331D01*
D02*
G37*
G36*
X102331Y35500D02*
X97500D01*
Y30669D01*
X98125D01*
X99734Y30989D01*
X101099Y31901D01*
X102011Y33266D01*
X102331Y34875D01*
Y35500D01*
D02*
G37*
G36*
X94500D02*
X89669D01*
Y34875D01*
X89989Y33266D01*
X90901Y31901D01*
X92266Y30989D01*
X93875Y30669D01*
X94500D01*
Y35500D01*
D02*
G37*
G36*
X126750Y20103D02*
X125000D01*
Y11750D01*
X132103D01*
Y14750D01*
X131695Y16798D01*
X130535Y18535D01*
X128798Y19695D01*
X126750Y20103D01*
D02*
G37*
G36*
X122000D02*
X120250D01*
X118202Y19695D01*
X116465Y18535D01*
X115305Y16798D01*
X114897Y14750D01*
Y11750D01*
X122000D01*
Y20103D01*
D02*
G37*
G36*
X98125Y29331D02*
X93875D01*
X92266Y29011D01*
X90901Y28099D01*
X89989Y26734D01*
X89669Y25125D01*
Y20875D01*
X89989Y19266D01*
X90901Y17901D01*
X91876Y17249D01*
X92037Y15987D01*
X91986Y15765D01*
X91337Y15115D01*
X90500Y13094D01*
Y10906D01*
X91337Y8885D01*
X92885Y7337D01*
X94906Y6500D01*
X97094D01*
X99115Y7337D01*
X100663Y8885D01*
X101500Y10906D01*
Y13094D01*
X100663Y15115D01*
X100014Y15765D01*
X99963Y15987D01*
X100124Y17249D01*
X101099Y17901D01*
X102011Y19266D01*
X102331Y20875D01*
Y25125D01*
X102011Y26734D01*
X101099Y28099D01*
X99734Y29011D01*
X98125Y29331D01*
D02*
G37*
G36*
X300750Y99603D02*
X299000D01*
Y91250D01*
X306103D01*
Y94250D01*
X305695Y96299D01*
X304535Y98035D01*
X302799Y99195D01*
X300750Y99603D01*
D02*
G37*
G36*
X296000D02*
X294250D01*
X292202Y99195D01*
X290465Y98035D01*
X289305Y96299D01*
X288897Y94250D01*
Y91250D01*
X296000D01*
Y99603D01*
D02*
G37*
G36*
X306103Y88250D02*
X299000D01*
Y79897D01*
X300750D01*
X302799Y80305D01*
X304535Y81465D01*
X305695Y83202D01*
X306103Y85250D01*
Y88250D01*
D02*
G37*
G36*
X296000D02*
X288897D01*
Y85250D01*
X289305Y83202D01*
X290465Y81465D01*
X292202Y80305D01*
X294250Y79897D01*
X296000D01*
Y88250D01*
D02*
G37*
G36*
X300750Y20103D02*
X299000D01*
Y11750D01*
X306103D01*
Y14750D01*
X305695Y16798D01*
X304535Y18535D01*
X302799Y19695D01*
X300750Y20103D01*
D02*
G37*
G36*
X296000D02*
X294250D01*
X292202Y19695D01*
X290465Y18535D01*
X289305Y16798D01*
X288897Y14750D01*
Y11750D01*
X296000D01*
Y20103D01*
D02*
G37*
G36*
X171750Y99603D02*
X170000D01*
Y91250D01*
X177103D01*
Y94250D01*
X176695Y96299D01*
X175535Y98035D01*
X173798Y99195D01*
X171750Y99603D01*
D02*
G37*
G36*
X167000D02*
X165250D01*
X163202Y99195D01*
X161465Y98035D01*
X160305Y96299D01*
X159897Y94250D01*
Y91250D01*
X167000D01*
Y99603D01*
D02*
G37*
G36*
X177103Y88250D02*
X170000D01*
Y79897D01*
X171750D01*
X173798Y80305D01*
X175535Y81465D01*
X176695Y83202D01*
X177103Y85250D01*
Y88250D01*
D02*
G37*
G36*
X167000D02*
X159897D01*
Y85250D01*
X160305Y83202D01*
X161465Y81465D01*
X163202Y80305D01*
X165250Y79897D01*
X167000D01*
Y88250D01*
D02*
G37*
G36*
X171750Y20103D02*
X170000D01*
Y11750D01*
X177103D01*
Y14750D01*
X176695Y16798D01*
X175535Y18535D01*
X173798Y19695D01*
X171750Y20103D01*
D02*
G37*
G36*
X167000D02*
X165250D01*
X163202Y19695D01*
X161465Y18535D01*
X160305Y16798D01*
X159897Y14750D01*
Y11750D01*
X167000D01*
Y20103D01*
D02*
G37*
%LPD*%
D10*
X803250Y166500D02*
X843500D01*
X845000Y168000D01*
Y174150D01*
X1002000Y114000D02*
X1031000Y85000D01*
X1063000D01*
X877313Y682880D02*
X887563Y672630D01*
X878762Y686380D02*
X889012Y676130D01*
X886113Y669130D02*
X1032120D01*
X889012Y676130D02*
X1035019D01*
X1033570Y672630D02*
X1068200Y638000D01*
X887563Y672630D02*
X1033570D01*
X1035019Y676130D02*
X1077300Y633849D01*
X1042007Y693000D02*
X1094800Y640207D01*
X896000Y693000D02*
X1042007D01*
X875863Y679380D02*
X886113Y669130D01*
X865235Y723765D02*
X896000Y693000D01*
X884300Y699750D02*
X894550Y689500D01*
X1040557D02*
X1091300Y638757D01*
X894550Y689500D02*
X1040557D01*
X1032120Y669130D02*
X1048200Y653050D01*
X878762Y686380D02*
X878762D01*
X884300Y699750D02*
X884300D01*
X875863Y679380D02*
X875863D01*
X877313Y682880D02*
X877313D01*
X436000Y39000D02*
Y57000D01*
X479000Y100000D01*
X408000Y11000D02*
X436000Y39000D01*
X479000Y100000D02*
X534000D01*
X545000Y89000D01*
X659000Y95222D02*
Y96000D01*
X652778Y89000D02*
X659000Y95222D01*
X545000Y89000D02*
X652778D01*
X380000Y144000D02*
Y227200D01*
X477199Y82199D02*
X480000Y85000D01*
X477199Y76801D02*
X481000Y73000D01*
X477199Y76801D02*
Y82199D01*
X355000Y11000D02*
X408000D01*
X345000Y21000D02*
Y109000D01*
Y21000D02*
X355000Y11000D01*
X345000Y109000D02*
X380000Y144000D01*
X353000Y32000D02*
X360000Y25000D01*
X353000Y90000D02*
X358000Y95000D01*
X353000Y32000D02*
Y90000D01*
X788250Y170250D02*
Y267250D01*
X760000Y142000D02*
X788250Y170250D01*
Y267250D02*
X794250Y273250D01*
X816750D01*
X828000Y262000D01*
X789501Y277751D02*
X894251D01*
X783750Y272000D02*
X789501Y277751D01*
X783750Y184500D02*
Y272000D01*
X746000Y146750D02*
X783750Y184500D01*
X778750Y196750D02*
Y280500D01*
X782001Y283751D01*
X720000Y138000D02*
X778750Y196750D01*
X778568Y317818D02*
X801750Y341000D01*
X839000D01*
Y324000D02*
Y341000D01*
X953500D01*
X982100Y312400D01*
X778568Y287183D02*
X782001Y283751D01*
X778568Y287183D02*
Y317818D01*
X782001Y283751D02*
X889001D01*
X982100Y312400D02*
X997500D01*
X1077300Y600750D02*
Y633849D01*
X1091300Y574750D02*
Y638757D01*
X1068200Y611650D02*
Y638000D01*
X1094800Y558250D02*
Y640207D01*
X1048200Y611650D02*
Y653050D01*
X182434Y699895D02*
X855348D01*
X875863Y679380D01*
X146370Y668781D02*
X180984Y703395D01*
X126000Y678654D02*
X171111Y723765D01*
X856798Y703395D02*
X877313Y682880D01*
X149870Y667331D02*
X182434Y699895D01*
X142870Y670898D02*
X178867Y706895D01*
X858247D02*
X878762Y686380D01*
X172561Y720265D02*
X863785D01*
X884300Y699750D01*
X180984Y703395D02*
X856798D01*
X129500Y677204D02*
X172561Y720265D01*
X178867Y706895D02*
X858247D01*
X171111Y723765D02*
X865235D01*
X264250Y386750D02*
Y429286D01*
X286750Y364250D02*
X486250D01*
X264250Y386750D02*
X286750Y364250D01*
X486250D02*
X507000Y385000D01*
X314300Y392450D02*
X325750Y381000D01*
X314300Y392450D02*
Y430036D01*
X325750Y381000D02*
X422000D01*
X318000Y396000D02*
X327000Y387000D01*
X318000Y396000D02*
Y431000D01*
X327000Y387000D02*
X399000D01*
X422000Y381000D02*
X430800Y389800D01*
X126000Y522000D02*
X213500Y434500D01*
X259035D01*
X264250Y429286D01*
X126000Y522000D02*
Y678654D01*
X146370Y557380D02*
Y668781D01*
Y557380D02*
X249500Y454250D01*
X295035D01*
X149870Y559630D02*
X250000Y459500D01*
X281250D01*
X149870Y559630D02*
Y667331D01*
X267750Y389950D02*
Y430735D01*
X287700Y370000D02*
X465000D01*
X267750Y389950D02*
X287700Y370000D01*
X242000Y376500D02*
X254172Y388672D01*
X242000Y310000D02*
Y376500D01*
Y310000D02*
X289904Y262096D01*
X242331Y155669D02*
Y160078D01*
X229750Y161250D02*
X241159D01*
X242331Y160078D01*
X215250Y175750D02*
X229750Y161250D01*
X242331Y155669D02*
X244000Y154000D01*
X262000Y165500D02*
X262500Y165000D01*
X484000Y41000D02*
X683000D01*
X720000Y78000D02*
Y86000D01*
X683000Y41000D02*
X720000Y78000D01*
X479000Y36000D02*
X484000Y41000D01*
X479000Y27000D02*
Y36000D01*
Y27000D02*
X481000Y25000D01*
X488000D01*
X488000Y25000D01*
X481000Y73000D02*
X662000D01*
X478000Y59000D02*
X481922Y55079D01*
X487922D02*
X488000Y55000D01*
X481922Y55079D02*
X487922D01*
X481750Y67750D02*
X691800D01*
X478000Y59000D02*
Y64000D01*
X481750Y67750D01*
X813625Y256875D02*
X814000Y257250D01*
X802450Y256500D02*
X802825Y256875D01*
X813625D01*
X840000Y274000D02*
X862000D01*
X872000Y264000D02*
X926000D01*
X862000Y274000D02*
X872000Y264000D01*
X828000Y262000D02*
X840000Y274000D01*
X894251Y277751D02*
X903750Y287250D01*
X898500Y293250D02*
X912750D01*
X889001Y283751D02*
X898500Y293250D01*
X912750D02*
X932000Y274000D01*
Y260000D02*
Y274000D01*
X928500Y256500D02*
X932000Y260000D01*
X912550Y256500D02*
X928500D01*
X480000Y85000D02*
X488000D01*
X662000Y73000D02*
X679876Y90876D01*
X691800Y67750D02*
X720000Y95950D01*
X680000Y129000D02*
Y141000D01*
X695904Y156904D01*
X760000Y129000D02*
Y142000D01*
X720000Y129000D02*
Y138000D01*
X1068200Y531650D02*
X1094800Y558250D01*
X897250Y90000D02*
X921250Y114000D01*
X1002000D01*
X885000Y90000D02*
X897250D01*
X872000Y430354D02*
X1046903D01*
X1048200Y431650D01*
X1038500Y524500D02*
X1040850Y522150D01*
X1008500Y564500D02*
X1038500Y534500D01*
Y524500D02*
Y534500D01*
X1040850Y522150D02*
X1051135D01*
X1057700Y502150D02*
Y515585D01*
X1051135Y522150D02*
X1057700Y515585D01*
X1052850Y542150D02*
X1058000Y537000D01*
X1041850Y542150D02*
X1052850D01*
X1034000Y550000D02*
X1041850Y542150D01*
X1068200Y551650D02*
X1091300Y574750D01*
X1034000Y550000D02*
Y601000D01*
X1057700Y502150D02*
X1068200Y491650D01*
Y591650D02*
X1077300Y600750D01*
X1058000Y521850D02*
X1068200Y511650D01*
X1058000Y521850D02*
Y537000D01*
X997550Y564500D02*
X1008500D01*
X1017831Y504184D02*
Y507831D01*
X1020000Y510000D01*
X950000Y501000D02*
Y510000D01*
X1016000Y501000D02*
Y502353D01*
X1017831Y504184D01*
X997550Y625500D02*
X1009500D01*
X1034000Y601000D01*
X129500Y526265D02*
Y677204D01*
X142870Y554506D02*
Y670898D01*
Y554506D02*
X246626Y450750D01*
X680000Y117000D02*
Y129000D01*
X536000Y435000D02*
X547000Y424000D01*
Y301000D02*
Y424000D01*
X816205Y386014D02*
Y387705D01*
X819672Y391172D01*
X827222D01*
X827550Y391500D01*
X800957Y132957D02*
X825750Y157750D01*
X800957Y129957D02*
Y132957D01*
X311750Y195000D02*
X319250Y187500D01*
X125000Y226200D02*
X126000Y227200D01*
X125000Y199250D02*
Y226200D01*
Y199250D02*
X129250Y195000D01*
X311750D01*
X701000Y87000D02*
Y99000D01*
X733500Y110000D02*
X746000Y122500D01*
Y146750D01*
X712000Y110000D02*
X733500D01*
X701000Y99000D02*
X712000Y110000D01*
X281250Y459500D02*
X282000Y460250D01*
X246626Y450750D02*
X293585D01*
X295035Y454250D02*
X317800Y431485D01*
X293585Y450750D02*
X314300Y430036D01*
X258985Y439500D02*
X267750Y430735D01*
X216265Y439500D02*
X258985D01*
X272000Y338594D02*
Y368500D01*
Y338594D02*
X296594Y314000D01*
X129500Y526265D02*
X216265Y439500D01*
X257250Y340000D02*
X300250Y297000D01*
X251000Y340000D02*
X257250D01*
X300250Y297000D02*
X395000D01*
X488000Y316000D02*
X512600D01*
X227733Y292517D02*
Y404867D01*
Y292517D02*
X227750Y292500D01*
X227600Y405000D02*
X227733Y404867D01*
X262500Y152500D02*
Y165000D01*
X342000Y152750D02*
X349750Y145000D01*
X289904Y262096D02*
X327404D01*
X342000Y247500D01*
Y152750D02*
Y247500D01*
X254172Y388672D02*
Y403828D01*
X253000Y405000D02*
X254172Y403828D01*
X800000Y129000D02*
X800957Y129957D01*
X800000Y117000D02*
Y129000D01*
X720000Y129000D02*
X720000Y129000D01*
X720000Y117000D02*
Y129000D01*
X817305Y318606D02*
X819885Y321186D01*
X827236D01*
X817305Y315040D02*
Y318606D01*
X815400Y313135D02*
X817305Y315040D01*
X815388Y313135D02*
X815400D01*
X827236Y321186D02*
X827550Y321500D01*
X880000Y95000D02*
X885000Y90000D01*
X880000Y95000D02*
Y103000D01*
X720000Y86000D02*
X737000Y103000D01*
X760000D01*
X880000Y117000D02*
Y129000D01*
X840000Y117000D02*
Y129000D01*
X383000Y435000D02*
X536000D01*
X380000Y432000D02*
X383000Y435000D01*
X380000Y405000D02*
Y432000D01*
X900691Y395118D02*
X901524D01*
X904671Y391971D01*
X912079D01*
X912550Y391500D01*
X899137Y387614D02*
X900543D01*
X896000Y390750D02*
X899137Y387614D01*
X900543D02*
X901500Y386657D01*
X95000Y466000D02*
X121000D01*
X363089Y68293D02*
X434293D01*
X359000Y56500D02*
Y64204D01*
X434293Y68293D02*
X496000Y130000D01*
X359000Y64204D02*
X363089Y68293D01*
X359000Y77000D02*
X362990Y73011D01*
X411011D02*
X488000Y150000D01*
X362990Y73011D02*
X411011D01*
X359000Y77000D02*
Y83000D01*
Y56500D02*
X360500Y55000D01*
X368000D01*
X361000Y85000D02*
X368000D01*
X359000Y83000D02*
X361000Y85000D01*
X358000Y95000D02*
X406000D01*
X688000Y74000D02*
X701000Y87000D01*
X827550Y321500D02*
X836500D01*
X839000Y324000D01*
X296594Y314000D02*
X408000D01*
X395000Y297000D02*
X405400Y286600D01*
Y227200D02*
Y286600D01*
X408000Y314000D02*
X430800Y291200D01*
Y227200D02*
Y291200D01*
X30000Y575000D02*
X43000D01*
X507000Y385000D02*
Y405000D01*
X399000Y387000D02*
X405400Y393400D01*
X496000Y130000D02*
X531828D01*
X488000Y150000D02*
X533000D01*
X481000Y170000D02*
X532551D01*
X406000Y95000D02*
X481000Y170000D01*
X720000Y95950D02*
Y103000D01*
X727500Y64334D02*
X730511Y67344D01*
X727500Y58412D02*
X730912Y55000D01*
X727500Y58412D02*
Y64334D01*
X679876Y90876D02*
Y102876D01*
X317800Y431200D02*
Y431485D01*
Y431200D02*
X318000Y431000D01*
X765000Y55000D02*
X765000Y55000D01*
X752000Y55000D02*
X765000D01*
Y85000D02*
X765000Y85000D01*
X752000Y85000D02*
X765000D01*
X730511Y67344D02*
X827344D01*
X730621Y72878D02*
X790879D01*
X727500Y76000D02*
X730621Y72878D01*
X727500Y76000D02*
Y82396D01*
X790879Y72878D02*
X800000Y82000D01*
X827344Y67344D02*
X840000Y80000D01*
X730912Y55000D02*
X738000D01*
X727500Y82396D02*
X730104Y85000D01*
X738000D01*
X899500Y321250D02*
X912300D01*
X912550Y321500D01*
X899250Y321000D02*
X899500Y321250D01*
X888200Y390750D02*
X896000D01*
X887450Y391500D02*
X888200Y390750D01*
X101500Y151000D02*
X113500D01*
X160500D02*
X173500D01*
X255250Y145250D02*
X262500Y152500D01*
X245750Y145250D02*
X255250D01*
X244000Y147000D02*
Y154000D01*
Y147000D02*
X245750Y145250D01*
X288000Y502000D02*
X297000D01*
X661500Y181250D02*
X661625Y181125D01*
Y173375D02*
Y181125D01*
Y173375D02*
X661750Y173250D01*
X760000Y117000D02*
Y129000D01*
X939875Y394125D02*
Y403125D01*
Y394125D02*
X940000Y394000D01*
X752000Y55000D02*
X752000Y55000D01*
X840000Y80000D02*
Y103000D01*
X800000Y82000D02*
Y103000D01*
X679876Y102876D02*
X680000Y103000D01*
X360000Y25000D02*
X368000D01*
X512600Y316000D02*
X512700Y316100D01*
X380000Y405000D02*
X380444Y405444D01*
X405400Y393400D02*
Y405000D01*
X430800Y389800D02*
Y405000D01*
X827550Y256500D02*
X828000Y256950D01*
Y262000D01*
X465000Y370000D02*
X481600Y386600D01*
Y405000D01*
D11*
X1088000Y85000D02*
X1097000Y76000D01*
X1077000Y85000D02*
X1088000D01*
X629021Y146200D02*
X651832D01*
X855000Y380000D02*
X855250Y379750D01*
Y370500D02*
X855500Y370250D01*
X855250Y370500D02*
Y379750D01*
X502000Y85000D02*
X515000D01*
X502000Y85000D02*
X502000Y85000D01*
X382000Y85000D02*
X392383D01*
X393150Y84233D01*
X394233D01*
X1020000Y563250D02*
Y572000D01*
X855463Y236289D02*
Y244537D01*
X855000Y245000D02*
X855463Y244537D01*
Y236289D02*
X855926Y235826D01*
X940000Y310000D02*
X940125Y309875D01*
Y301125D02*
Y309875D01*
Y301125D02*
X940250Y301000D01*
X940000Y268000D02*
X940000Y268000D01*
X940000Y259000D02*
Y268000D01*
X854938Y259063D02*
X855000Y259000D01*
X854938Y259063D02*
Y267938D01*
X854875Y268000D02*
X854938Y267938D01*
X868000Y313250D02*
X876250Y321500D01*
X887450D01*
X844000Y310000D02*
X863750D01*
X867000Y313250D02*
X868000D01*
X863750Y310000D02*
X867000Y313250D01*
X940125Y332875D02*
X940250Y333000D01*
X940000Y324000D02*
X940125Y324125D01*
Y332875D01*
X957450Y236200D02*
X997500D01*
X797000Y225000D02*
X946250D01*
X957450Y236200D01*
X959200Y35000D02*
X959250Y35050D01*
Y103000D01*
X1097000Y76000D02*
X1108000D01*
X1018243Y578750D02*
X1020000Y576993D01*
X1019750Y596750D02*
X1019875Y596625D01*
Y586125D02*
Y594625D01*
X1011500Y578750D02*
X1018243D01*
X1019875Y586125D02*
X1020000Y586000D01*
Y572000D02*
Y576993D01*
X983929Y583929D02*
X984000Y584000D01*
X972450Y583500D02*
X972879Y583929D01*
X983929D01*
X985000Y574000D02*
X985000Y574000D01*
X972450Y574000D02*
X985000D01*
X997550Y574000D02*
X1006750D01*
X997550Y574000D02*
X997550Y574000D01*
X1006750D02*
X1011500Y578750D01*
X950000Y525000D02*
X950500Y525500D01*
X952000Y525000D02*
X960000D01*
X950500Y525500D02*
Y534500D01*
X960000Y525000D02*
X963500Y521500D01*
X985000Y515000D02*
X994600D01*
X963500Y521500D02*
X975400D01*
Y515000D02*
X985000D01*
X972450Y644500D02*
X977000Y645000D01*
X972450Y635000D02*
X985000D01*
X977000Y645000D02*
X984656D01*
X1020000Y647000D02*
Y655630D01*
X855250Y394250D02*
Y402750D01*
X855000Y394000D02*
X855250Y394250D01*
X854750Y334500D02*
X854875Y334375D01*
Y324125D02*
X855000Y324000D01*
X854875Y324125D02*
Y334375D01*
X594918Y108500D02*
X596000D01*
X594116Y107698D02*
X594918Y108500D01*
X582067Y107698D02*
X594116D01*
X581644Y107275D02*
X582067Y107698D01*
X299875Y167125D02*
X300000Y167000D01*
X299875Y167125D02*
Y176125D01*
X299750Y176250D02*
X299875Y176125D01*
X651832Y146200D02*
X652152Y146520D01*
X502000Y55000D02*
X512918D01*
X513918Y54000D02*
X515000D01*
X512918Y55000D02*
X513918Y54000D01*
X899126Y256625D02*
X899500Y256251D01*
X887325Y256625D02*
X899126D01*
X940125Y234875D02*
X940250Y234750D01*
X940125Y234875D02*
Y244875D01*
X940000Y380000D02*
X940125Y379875D01*
Y371125D02*
X940250Y371000D01*
X940125Y371125D02*
Y379875D01*
X95000Y510000D02*
X121000D01*
X580343Y120000D02*
X580921Y120578D01*
X594767D01*
X595094Y120906D01*
X57000Y575000D02*
X83000D01*
X97000D02*
X109000D01*
X659136Y191351D02*
Y193886D01*
X652281Y189281D02*
X657066D01*
X659250Y196250D02*
X661500D01*
X659136Y193886D02*
X661500Y196250D01*
X657066Y189281D02*
X659136Y191351D01*
X652000Y189000D02*
X652281Y189281D01*
X629638Y196450D02*
X658796D01*
X593034Y171284D02*
X617841Y196091D01*
X629279D02*
X629638Y196450D01*
X617841Y196091D02*
X629279D01*
X580794Y171284D02*
X593034D01*
X610111Y179029D02*
X614957Y183875D01*
X609971Y179029D02*
X610111D01*
X580510Y171000D02*
X580794Y171284D01*
X605443Y171025D02*
X628017D01*
X595500Y161082D02*
X605443Y171025D01*
X595500Y160000D02*
Y161082D01*
X563849Y158599D02*
Y179694D01*
X555250Y150000D02*
X563849Y158599D01*
X614957Y183875D02*
X626118D01*
X580206Y132975D02*
X595975D01*
X118750Y169750D02*
X130750D01*
X131500Y169000D01*
X72500Y169000D02*
X72500Y169000D01*
X60000Y169000D02*
X72500D01*
X844000Y245000D02*
X855000D01*
X844000Y380000D02*
X855000D01*
X929000Y380000D02*
X940000D01*
X929000Y310000D02*
X940000D01*
Y245000D02*
X940125Y244875D01*
X562250Y143250D02*
X564650Y145650D01*
X580362D01*
X562250Y136583D02*
Y143250D01*
X549684Y130935D02*
X556601D01*
X562250Y136583D01*
X568045Y196450D02*
X580362D01*
X558250Y186655D02*
X568045Y196450D01*
X558250Y173250D02*
Y186655D01*
X563849Y179694D02*
X567905Y183750D01*
X580362D01*
X580181Y133000D02*
X580206Y132975D01*
X595975D02*
X596000Y133000D01*
X555000Y170000D02*
X558250Y173250D01*
X929000Y245000D02*
X940000D01*
X843006Y380994D02*
X844000Y380000D01*
X842000Y382000D02*
X843006Y380994D01*
X928006Y245994D02*
X929000Y245000D01*
X927000Y247000D02*
X928006Y245994D01*
X927000Y382000D02*
X928006Y380994D01*
X912550Y382000D02*
X927000D01*
X928006Y380994D02*
X929000Y380000D01*
X547000Y170000D02*
X555000D01*
X548750Y130000D02*
X549684Y130935D01*
X547000Y150000D02*
X555250D01*
X382000Y25000D02*
X395000D01*
X382000D02*
Y25000D01*
X842000Y312000D02*
X843006Y310994D01*
X844000Y310000D01*
X827550Y312000D02*
X842000D01*
Y247000D02*
X843006Y245994D01*
X844000Y245000D01*
X827550Y247000D02*
X842000D01*
X912550D02*
X927000D01*
X928006Y310994D02*
X929000Y310000D01*
X927000Y312000D02*
X928006Y310994D01*
X912550Y312000D02*
X927000D01*
X827550Y382000D02*
X842000D01*
X502000Y25000D02*
X515000D01*
X382000Y55000D02*
Y55000D01*
Y55000D02*
X395000D01*
X225000Y92000D02*
Y103000D01*
Y12000D02*
Y23000D01*
X96000Y12000D02*
Y23000D01*
Y92000D02*
Y103000D01*
D13*
X1020125Y624375D02*
X1020250Y624250D01*
X1020125Y624375D02*
Y632875D01*
X1020000Y633000D02*
X1020250Y633250D01*
Y638236D01*
X1018534Y639952D02*
X1020250Y638236D01*
X1020000Y633000D02*
X1020125Y632875D01*
X997550Y635000D02*
X1009500D01*
X1014452Y639952D01*
X1018534D01*
D17*
X606283Y262116D02*
X686789Y252384D01*
X720449Y288755D01*
X582079Y302759D02*
X606283Y262116D01*
X648296Y352231D02*
X655704Y343605D01*
X643627Y348679D02*
X648296Y352231D01*
X604050Y370396D02*
X616228Y346548D01*
X639365Y359943D02*
X643627Y348679D01*
X616228Y346548D02*
X639365Y359943D01*
X582079Y302759D02*
X623179Y370802D01*
X595120Y370903D02*
X604050Y370396D01*
X648404Y435501D02*
X649615Y403921D01*
X634900Y378413D02*
X639365Y359943D01*
X642606Y406726D02*
X649615Y411699D01*
X615827Y398031D02*
X624390Y391901D01*
X615827Y398031D02*
X617062Y417207D01*
X707967Y401960D02*
X733383Y428196D01*
X634900Y378413D02*
X643729Y385719D01*
X641804Y421705D02*
X643729Y385719D01*
X623179Y370802D02*
X624390Y391901D01*
X681674Y388848D02*
X714274Y427267D01*
X672195Y418913D02*
X676913Y397662D01*
X667811Y411699D02*
X669201Y399217D01*
X692800Y401960D02*
X707967D01*
X591917Y396135D02*
X595120Y370903D01*
X659966Y387242D02*
X669201Y399217D01*
X659966Y387242D02*
X662706Y355580D01*
X662706D02*
X669810Y348476D01*
X655704Y343605D02*
X662706Y355580D01*
X658762Y335694D02*
X661669Y329113D01*
X658762Y335694D02*
X669810Y348476D01*
X653597Y323431D02*
X661669Y329113D01*
X718926Y315241D02*
X720449Y288755D01*
X668380Y389982D02*
X678484Y363643D01*
X681674Y388848D02*
X689991Y381782D01*
X679204Y361767D02*
X680435Y363851D01*
X668380Y389982D02*
X676913Y397662D01*
X680435Y363851D02*
X689991Y381782D01*
X678484Y363643D02*
X683154Y351470D01*
X718926Y315241D01*
D18*
X83000Y575000D02*
D03*
X97000D02*
D03*
X57000D02*
D03*
X43000D02*
D03*
X1063000Y85000D02*
D03*
X1077000D02*
D03*
X752000Y85000D02*
D03*
X738000D02*
D03*
X752000Y55000D02*
D03*
X738000D02*
D03*
X488000Y85000D02*
D03*
X502000D02*
D03*
Y55000D02*
D03*
X488000D02*
D03*
Y25000D02*
D03*
X502000D02*
D03*
X382000Y85000D02*
D03*
X368000D02*
D03*
Y55000D02*
D03*
X382000D02*
D03*
Y25000D02*
D03*
X368000D02*
D03*
X288000Y502000D02*
D03*
X274000D02*
D03*
X547000Y170000D02*
D03*
X533000D02*
D03*
X547000Y150000D02*
D03*
X533000D02*
D03*
X547000Y130000D02*
D03*
X533000D02*
D03*
D19*
X278000Y525000D02*
D03*
Y563000D02*
D03*
D20*
X72500Y169000D02*
D03*
Y151000D02*
D03*
X101500D02*
D03*
Y169000D02*
D03*
X160500D02*
D03*
Y151000D02*
D03*
X131500D02*
D03*
Y169000D02*
D03*
D21*
X975400Y521500D02*
D03*
Y515000D02*
D03*
Y508500D02*
D03*
X994600D02*
D03*
Y515000D02*
D03*
Y521500D02*
D03*
D22*
X997550Y583500D02*
D03*
Y574000D02*
D03*
Y564500D02*
D03*
X972450D02*
D03*
Y574000D02*
D03*
Y583500D02*
D03*
X997550Y644500D02*
D03*
Y635000D02*
D03*
Y625500D02*
D03*
X972450D02*
D03*
Y635000D02*
D03*
Y644500D02*
D03*
X827550Y321500D02*
D03*
Y312000D02*
D03*
Y302500D02*
D03*
X802450D02*
D03*
Y312000D02*
D03*
Y321500D02*
D03*
X827550Y256500D02*
D03*
Y247000D02*
D03*
Y237500D02*
D03*
X802450D02*
D03*
Y247000D02*
D03*
Y256500D02*
D03*
X912550Y321500D02*
D03*
Y312000D02*
D03*
Y302500D02*
D03*
X887450D02*
D03*
Y312000D02*
D03*
Y321500D02*
D03*
X912550Y256500D02*
D03*
Y247000D02*
D03*
Y237500D02*
D03*
X887450D02*
D03*
Y247000D02*
D03*
Y256500D02*
D03*
X887450Y391500D02*
D03*
Y382000D02*
D03*
Y372500D02*
D03*
X912550D02*
D03*
Y382000D02*
D03*
Y391500D02*
D03*
X802450D02*
D03*
Y382000D02*
D03*
Y372500D02*
D03*
X827550D02*
D03*
Y382000D02*
D03*
Y391500D02*
D03*
D23*
X1020000Y572000D02*
D03*
Y586000D02*
D03*
X950000Y510000D02*
D03*
Y524000D02*
D03*
X1020000Y510000D02*
D03*
Y524000D02*
D03*
Y633000D02*
D03*
Y647000D02*
D03*
X883082Y174150D02*
D03*
Y188150D02*
D03*
X845000Y174150D02*
D03*
Y188150D02*
D03*
X661500Y196250D02*
D03*
Y182250D02*
D03*
X680000Y117000D02*
D03*
Y103000D02*
D03*
X720000Y117000D02*
D03*
Y103000D02*
D03*
X760000D02*
D03*
Y117000D02*
D03*
X800000D02*
D03*
Y103000D02*
D03*
X840000Y117000D02*
D03*
Y103000D02*
D03*
X300000Y153000D02*
D03*
Y167000D02*
D03*
X244000Y154000D02*
D03*
Y168000D02*
D03*
X880000Y117000D02*
D03*
Y103000D02*
D03*
X855000Y310000D02*
D03*
Y324000D02*
D03*
Y259000D02*
D03*
Y245000D02*
D03*
X809000Y587000D02*
D03*
Y573000D02*
D03*
X809000Y552000D02*
D03*
Y538000D02*
D03*
X704000Y555000D02*
D03*
Y569000D02*
D03*
X564000Y515000D02*
D03*
Y529000D02*
D03*
Y555000D02*
D03*
Y569000D02*
D03*
X419000Y555000D02*
D03*
Y569000D02*
D03*
Y515000D02*
D03*
Y529000D02*
D03*
X225000Y23000D02*
D03*
Y37000D02*
D03*
Y92000D02*
D03*
Y78000D02*
D03*
X96000Y92000D02*
D03*
Y78000D02*
D03*
Y23000D02*
D03*
Y37000D02*
D03*
X940000Y394000D02*
D03*
Y380000D02*
D03*
X855000Y394000D02*
D03*
Y380000D02*
D03*
X940000Y324000D02*
D03*
Y310000D02*
D03*
Y245000D02*
D03*
Y259000D02*
D03*
X719000Y529000D02*
D03*
Y515000D02*
D03*
X704000D02*
D03*
Y529000D02*
D03*
D24*
X908000Y194500D02*
D03*
Y175500D02*
D03*
X930000Y185000D02*
D03*
D25*
X95000Y510000D02*
D03*
Y466000D02*
D03*
X804000Y487000D02*
D03*
X659000Y487000D02*
D03*
X514000Y487000D02*
D03*
X369000D02*
D03*
D26*
X281500Y165000D02*
D03*
X262500D02*
D03*
X272000Y143000D02*
D03*
D27*
X778500Y557450D02*
D03*
X769000D02*
D03*
X759500D02*
D03*
Y532550D02*
D03*
X778500D02*
D03*
D28*
X612500Y542000D02*
D03*
X467500Y542000D02*
D03*
X322500D02*
D03*
D29*
X675500Y565000D02*
D03*
Y542000D02*
D03*
Y519000D02*
D03*
X530500Y565000D02*
D03*
Y542000D02*
D03*
Y519000D02*
D03*
X385500Y565000D02*
D03*
Y542000D02*
D03*
Y519000D02*
D03*
D30*
X123500Y10250D02*
D03*
X168500D02*
D03*
Y89750D02*
D03*
X123500D02*
D03*
X252500Y10250D02*
D03*
X297500D02*
D03*
Y89750D02*
D03*
X252500D02*
D03*
D31*
X629638Y196450D02*
D03*
Y183750D02*
D03*
Y171050D02*
D03*
Y158350D02*
D03*
Y145650D02*
D03*
Y132950D02*
D03*
Y120250D02*
D03*
Y107550D02*
D03*
X580362D02*
D03*
Y120250D02*
D03*
Y132950D02*
D03*
Y145650D02*
D03*
Y158350D02*
D03*
Y171050D02*
D03*
Y183750D02*
D03*
Y196450D02*
D03*
D63*
X1048200Y611650D02*
D03*
X1068200D02*
D03*
X1048200Y591650D02*
D03*
X1068200D02*
D03*
X1048200Y571650D02*
D03*
X1068200D02*
D03*
X1048200Y551650D02*
D03*
X1068200D02*
D03*
X1048200Y531650D02*
D03*
X1068200D02*
D03*
X1048200Y511650D02*
D03*
X1068200D02*
D03*
X1048200Y491650D02*
D03*
X1068200D02*
D03*
X1048200Y471650D02*
D03*
X1068200D02*
D03*
X1048200Y451650D02*
D03*
X1068200D02*
D03*
X1048200Y431650D02*
D03*
D65*
X16000Y91000D02*
D03*
X1099000Y681000D02*
D03*
X1103000Y94000D02*
D03*
D66*
X512700Y290700D02*
D03*
Y316100D02*
D03*
Y341500D02*
D03*
D67*
X22700Y306100D02*
D03*
Y326100D02*
D03*
X55700Y316100D02*
D03*
X90700Y291100D02*
D03*
X115700D02*
D03*
X140700D02*
D03*
D68*
X25700Y288850D02*
D03*
Y343350D02*
D03*
D69*
X56000Y291850D02*
D03*
Y340350D02*
D03*
D70*
X845000Y195000D02*
X847000Y197000D01*
X845000Y188150D02*
Y195000D01*
X891781Y682815D02*
X1037788D01*
X880169Y689775D02*
X890419Y679525D01*
X1036426D01*
X1081170Y634781D01*
X882894Y696355D02*
X893144Y686105D01*
X874457Y675985D02*
X884707Y665735D01*
X990265D01*
X1037788Y682815D02*
X1084460Y636143D01*
X881531Y693065D02*
X891781Y682815D01*
X1039151Y686105D02*
X1087750Y637506D01*
X893144Y686105D02*
X1039151D01*
X990265Y665735D02*
X996000Y660000D01*
Y653000D02*
Y660000D01*
X874457Y675985D02*
X874457D01*
X880169Y689775D02*
X880169D01*
X881531Y693065D02*
X881531D01*
X882894Y696355D02*
X882894D01*
X996000Y646050D02*
Y653000D01*
X1084460Y587910D02*
Y636143D01*
X1081170Y591170D02*
Y634781D01*
X1087750Y577750D02*
Y637506D01*
X862379Y716870D02*
X882894Y696355D01*
X173967Y716870D02*
X862379D01*
X132895Y675798D02*
X173967Y716870D01*
X853942Y696500D02*
X874457Y675985D01*
X183840Y696500D02*
X853942D01*
X153265Y665925D02*
X183840Y696500D01*
X175330Y713580D02*
X861016D01*
X177346Y710290D02*
X859654D01*
X880169Y689775D01*
X139475Y672419D02*
X177346Y710290D01*
X136185Y674435D02*
X175330Y713580D01*
X861016D02*
X881531Y693065D01*
X139475Y551775D02*
Y672419D01*
Y551775D02*
X246500Y444750D01*
X266000D01*
X153265Y562496D02*
Y665925D01*
X1057550Y561000D02*
X1071000D01*
X930000Y185200D02*
X997300D01*
X1048200Y571650D02*
X1057550Y581000D01*
X1071000Y561000D02*
X1087750Y577750D01*
X1048200Y551650D02*
X1057550Y561000D01*
X1057550Y581000D02*
X1071000D01*
X1068200Y571650D02*
X1084460Y587910D01*
X1071000Y581000D02*
X1081170Y591170D01*
X997300Y185200D02*
X997500Y185400D01*
X997000Y584050D02*
Y597000D01*
Y584050D02*
X997275Y583775D01*
X956125Y564375D02*
X972325D01*
X956000Y564250D02*
X956125Y564375D01*
X972325D02*
X972450Y564500D01*
X952000Y486750D02*
X962250Y497000D01*
Y504000D02*
X966500Y508250D01*
X962250Y497000D02*
Y504000D01*
X966500Y508250D02*
X975150D01*
X975400Y508500D01*
X996000Y646050D02*
X997550Y644500D01*
X972371Y625579D02*
X972450Y625500D01*
X933671Y625579D02*
X972371D01*
X933500Y625750D02*
X933671Y625579D01*
X132895Y530856D02*
Y675798D01*
X136185Y534815D02*
Y674435D01*
X153265Y562496D02*
X248761Y467000D01*
X813545Y394250D02*
X814242D01*
X810795Y391500D02*
X813545Y394250D01*
X814242D02*
Y394284D01*
X802450Y391500D02*
X810795D01*
X248761Y467000D02*
X292500D01*
X244125Y168125D02*
Y177625D01*
X244250Y177750D02*
X252000Y185500D01*
X274000D01*
X244000Y168000D02*
X244125Y168125D01*
Y177625D02*
X244250Y177750D01*
X883000Y197000D02*
X905500D01*
X847000D02*
X883000D01*
X883082Y188150D02*
Y196918D01*
X883000Y197000D02*
X883082Y196918D01*
X905500Y197000D02*
X908000Y194500D01*
X887325Y256625D02*
X887450Y256500D01*
X887075Y256875D02*
X887325Y256625D01*
X884000Y486750D02*
X952000D01*
X136185Y534815D02*
X206741Y464259D01*
X132895Y530856D02*
X215751Y448000D01*
X78750Y323750D02*
X140000Y385000D01*
X78750Y275097D02*
Y323750D01*
X75460Y276460D02*
Y325113D01*
X136395Y386048D01*
Y469010D01*
X140000Y385000D02*
Y454000D01*
X136395Y469010D02*
X144896Y477510D01*
X49800Y246147D02*
X78750Y275097D01*
X47250Y248250D02*
X75460Y276460D01*
X206741Y464259D02*
X207829D01*
X215751Y448000D02*
X216250D01*
X272000Y129750D02*
X290750D01*
X272000D02*
Y143000D01*
X229750Y129750D02*
X272000D01*
X290750D02*
X300000Y139000D01*
X115500Y157337D02*
X121837Y151000D01*
X131500D01*
X115500Y157337D02*
Y164500D01*
X111000Y169000D02*
X115500Y164500D01*
X101500Y169000D02*
X111000D01*
X160500D02*
X190500D01*
X229750Y129750D01*
X272000Y143000D02*
X272000Y143000D01*
X300000Y139000D02*
Y153000D01*
X274000Y185500D02*
X281500Y178000D01*
Y165000D02*
Y178000D01*
X140000Y454000D02*
X147000Y461000D01*
X24400Y227200D02*
Y241650D01*
X49800Y227200D02*
Y246147D01*
X31000Y248250D02*
X47250D01*
X24400Y241650D02*
X31000Y248250D01*
D71*
X1009529Y497982D02*
Y504471D01*
X1035861Y471650D02*
X1048200D01*
X1009529Y497982D02*
X1035861Y471650D01*
X766250Y223000D02*
Y383000D01*
X824250Y441000D02*
X1057550D01*
X766250Y383000D02*
X824250Y441000D01*
X752250Y209000D02*
X766250Y223000D01*
X501875Y266125D02*
X559000Y209000D01*
X752250D01*
X476875Y266125D02*
X501875D01*
X1057550Y441000D02*
X1068200Y451650D01*
X1021553Y542000D02*
X1029000Y534553D01*
Y519000D02*
Y534553D01*
X922500Y542000D02*
X1021553D01*
X1029000Y519000D02*
X1036350Y511650D01*
X1048200D01*
X994600Y508500D02*
X1005500D01*
X1009529Y504471D01*
X294250Y330500D02*
X412500D01*
X476875Y266125D01*
X886500Y506000D02*
X922500Y542000D01*
D72*
X773000Y211000D02*
Y328500D01*
X802500Y358000D01*
X839500D01*
X1020000Y524000D02*
Y535000D01*
X813977Y325602D02*
Y326463D01*
X810689Y322314D02*
X813977Y325602D01*
X803264Y322314D02*
X810689D01*
X802450Y321500D02*
X803264Y322314D01*
X758000Y196000D02*
X773000Y211000D01*
X664350Y158350D02*
X702000Y196000D01*
X758000D01*
X1020000Y535000D02*
X1020000Y535000D01*
X1005500Y521500D02*
X1009000Y525000D01*
X994600Y521500D02*
X1005500D01*
X1009000Y525000D02*
X1018000D01*
X629638Y158350D02*
X664350D01*
D73*
X841500Y372500D02*
X862000Y352000D01*
X827550Y372500D02*
X841500D01*
X862000Y352000D02*
X961000D01*
X827550Y237500D02*
X846993D01*
X849540Y296843D02*
X858056D01*
X843883Y302500D02*
X849540Y296843D01*
X993200Y349800D02*
X1010900D01*
X987200Y325800D02*
X1009500D01*
X961000Y352000D02*
X987200Y325800D01*
X954156Y292156D02*
X961000Y299000D01*
X925500Y302500D02*
X935844Y292156D01*
X954156D01*
X961000Y299000D02*
X1010900D01*
X1009500Y325800D02*
X1022900Y312400D01*
X1010900Y349800D02*
X1022900Y337800D01*
X1010900Y299000D02*
X1022900Y287000D01*
X980500Y362500D02*
X993200Y349800D01*
X827550Y302500D02*
X843883D01*
X934000Y362500D02*
X980500D01*
X769000Y552000D02*
Y557450D01*
Y545000D02*
Y552000D01*
X912550Y372500D02*
X924000D01*
X934000Y362500D01*
X912550Y237500D02*
X928959D01*
X929459Y237000D01*
X930000D01*
X809000Y587000D02*
X821000D01*
X795810Y552355D02*
X808645D01*
X564000Y502000D02*
Y515000D01*
X419000Y502000D02*
Y515000D01*
X419000Y515000D01*
X912550Y302500D02*
X925500D01*
X564000Y569000D02*
Y582000D01*
X719000Y502000D02*
Y515000D01*
X704000Y502000D02*
Y515000D01*
X677705Y539795D02*
X689205D01*
X698250Y530750D02*
X702250D01*
X675500Y542000D02*
X677705Y539795D01*
X689205D02*
X698250Y530750D01*
X702250D02*
X704000Y529000D01*
X719000D01*
X768645Y552355D02*
X769000Y552000D01*
X419000Y569000D02*
Y582000D01*
Y569000D02*
X419000Y569000D01*
X704000D02*
Y582000D01*
X699000Y555000D02*
X716000D01*
X676571Y563929D02*
X690071D01*
X675500Y565000D02*
X676571Y563929D01*
X690071D02*
X699000Y555000D01*
X556000D02*
X576000D01*
X530500Y565000D02*
X546000D01*
X556000Y555000D01*
D74*
X605804Y108500D02*
X606529Y107775D01*
X626466D01*
X606000Y120000D02*
X606250Y120250D01*
X629638D01*
X626692Y108000D02*
X628177D01*
X626466Y107775D02*
X626692Y108000D01*
D75*
X1010000Y40500D02*
D03*
X984600D02*
D03*
X1035400D02*
D03*
D76*
X959200D02*
D03*
D77*
X940900Y729700D02*
D03*
Y704300D02*
D03*
X966300Y729700D02*
D03*
Y704300D02*
D03*
X991700Y729700D02*
D03*
Y704300D02*
D03*
X1017100Y729700D02*
D03*
X997500Y388600D02*
D03*
X1022900D02*
D03*
X997500Y363200D02*
D03*
X1022900D02*
D03*
X997500Y337800D02*
D03*
X1022900D02*
D03*
X997500Y312400D02*
D03*
X1022900D02*
D03*
X997500Y287000D02*
D03*
X1022900D02*
D03*
X997500Y261600D02*
D03*
X1022900D02*
D03*
X997500Y236200D02*
D03*
X1022900D02*
D03*
X997500Y210800D02*
D03*
X1022900D02*
D03*
X997500Y185400D02*
D03*
X1022900D02*
D03*
X997500Y160000D02*
D03*
D78*
X1017100Y704300D02*
D03*
D79*
X968000Y455000D02*
D03*
X810000Y24000D02*
D03*
X720000Y660000D02*
D03*
X420000D02*
D03*
D80*
X1068200Y431650D02*
D03*
D81*
X1022900Y160000D02*
D03*
D82*
X760000Y740500D02*
D03*
X870000D02*
D03*
X360000D02*
D03*
X250000D02*
D03*
D83*
X840000Y640500D02*
D03*
X330000D02*
D03*
D84*
X790000D02*
D03*
X280000D02*
D03*
D85*
X175000Y588000D02*
D03*
Y672000D02*
D03*
D86*
Y610000D02*
D03*
Y650000D02*
D03*
Y630000D02*
D03*
D87*
X507000Y405000D02*
D03*
X481600D02*
D03*
X456200D02*
D03*
X430800D02*
D03*
X405400D02*
D03*
X380000D02*
D03*
X354600D02*
D03*
X329200D02*
D03*
X303800D02*
D03*
X278400D02*
D03*
X253000D02*
D03*
X227600D02*
D03*
X202200D02*
D03*
X176800D02*
D03*
X151400D02*
D03*
X126000D02*
D03*
X100600D02*
D03*
X75200D02*
D03*
X49800D02*
D03*
X24400D02*
D03*
X507000Y227200D02*
D03*
X481600D02*
D03*
X456200D02*
D03*
X430800D02*
D03*
X405400D02*
D03*
X380000D02*
D03*
X354600D02*
D03*
X329200D02*
D03*
X303800D02*
D03*
X278400D02*
D03*
X253000D02*
D03*
X227600D02*
D03*
X202200D02*
D03*
X176800D02*
D03*
X151400D02*
D03*
X126000D02*
D03*
X100600D02*
D03*
X75200D02*
D03*
X49800D02*
D03*
X24400D02*
D03*
D88*
X1055500Y96250D02*
D03*
X1044000Y127000D02*
D03*
X659000Y96000D02*
D03*
X464469Y58997D02*
D03*
X855500Y370250D02*
D03*
X839500Y358000D02*
D03*
X1020000Y535000D02*
D03*
X515000Y85000D02*
D03*
X394233Y84233D02*
D03*
X366000Y106500D02*
D03*
X1020000Y563250D02*
D03*
X1014500Y447990D02*
D03*
X940250Y333000D02*
D03*
X814000Y257250D02*
D03*
X855926Y235826D02*
D03*
X847296Y237804D02*
D03*
X813977Y326463D02*
D03*
X803250Y166500D02*
D03*
X903750Y287250D02*
D03*
X1050450Y389450D02*
D03*
X858056Y296843D02*
D03*
X1033500Y330000D02*
D03*
X940250Y301000D02*
D03*
X940000Y268000D02*
D03*
X926000Y264000D02*
D03*
X854875Y268000D02*
D03*
X690412Y203048D02*
D03*
X868000Y313250D02*
D03*
X1103000Y605000D02*
D03*
X1085000Y155000D02*
D03*
X1002000Y553000D02*
D03*
X1058000Y762000D02*
D03*
X1113000Y708000D02*
D03*
X1032052Y645052D02*
D03*
X1059000Y411000D02*
D03*
X1082750Y502000D02*
D03*
X1112000Y447000D02*
D03*
Y534000D02*
D03*
X1055000Y12000D02*
D03*
X959250Y103000D02*
D03*
X983000Y86000D02*
D03*
X1108000Y76000D02*
D03*
X1053000Y270000D02*
D03*
X1086000Y281000D02*
D03*
X1069000Y326000D02*
D03*
X1086000Y376000D02*
D03*
X1039000Y226000D02*
D03*
X1112000Y240000D02*
D03*
X1113000Y348000D02*
D03*
X947561Y631474D02*
D03*
X984656Y645000D02*
D03*
X985000Y635000D02*
D03*
X1020250Y624250D02*
D03*
X950000Y501000D02*
D03*
X985000Y515000D02*
D03*
X997000Y599000D02*
D03*
X950500Y534500D02*
D03*
X956000Y564250D02*
D03*
X964000Y557000D02*
D03*
X984000Y584000D02*
D03*
X985000Y574000D02*
D03*
X1016000Y501000D02*
D03*
X1019750Y596750D02*
D03*
X965105Y536000D02*
D03*
X933000Y613000D02*
D03*
X868412Y329048D02*
D03*
X791412Y435048D02*
D03*
X933500Y625750D02*
D03*
X1020000Y655630D02*
D03*
X688000Y687090D02*
D03*
X387500Y686500D02*
D03*
X463000Y687090D02*
D03*
X506000Y686000D02*
D03*
X760500Y447750D02*
D03*
X782732Y352368D02*
D03*
X680000Y129000D02*
D03*
X674180Y158280D02*
D03*
X678412Y187048D02*
D03*
X541000Y382048D02*
D03*
X547000Y301000D02*
D03*
X696000Y157000D02*
D03*
X785412Y295048D02*
D03*
X814242Y394284D02*
D03*
X816205Y386014D02*
D03*
X815750Y373750D02*
D03*
X855500Y403000D02*
D03*
X854750Y334500D02*
D03*
X825750Y157750D02*
D03*
X815000Y242353D02*
D03*
X596000Y108500D02*
D03*
X605804D02*
D03*
X872000Y430354D02*
D03*
X797000Y225000D02*
D03*
X319250Y187500D02*
D03*
X282000Y460250D02*
D03*
X266000Y444750D02*
D03*
X272000Y368500D02*
D03*
X265682Y362814D02*
D03*
X294250Y330500D02*
D03*
X292000Y376000D02*
D03*
X260000Y318750D02*
D03*
X278268Y305000D02*
D03*
X496000Y252000D02*
D03*
X488000Y316000D02*
D03*
X574000Y351000D02*
D03*
X292500Y467000D02*
D03*
X220000Y308000D02*
D03*
X227750Y292500D02*
D03*
X194500Y188281D02*
D03*
X195257Y107257D02*
D03*
X311000Y380000D02*
D03*
X215250Y175750D02*
D03*
X233600Y175000D02*
D03*
X244250Y177750D02*
D03*
X217218Y268703D02*
D03*
X299750Y176250D02*
D03*
X319000Y179000D02*
D03*
X392493Y129493D02*
D03*
X349750Y145000D02*
D03*
X652152Y146520D02*
D03*
X515000Y54000D02*
D03*
X570000Y295048D02*
D03*
X815950Y303950D02*
D03*
X720000Y129000D02*
D03*
X919000Y629000D02*
D03*
X899500Y256251D02*
D03*
X815388Y313135D02*
D03*
X940250Y234750D02*
D03*
X898500Y166500D02*
D03*
X880000Y129000D02*
D03*
X840000D02*
D03*
X994000Y415000D02*
D03*
X996000Y653000D02*
D03*
X536412Y186048D02*
D03*
X528332Y423775D02*
D03*
X900691Y395118D02*
D03*
X901500Y386657D02*
D03*
X901308Y372207D02*
D03*
X940250Y371000D02*
D03*
X916412Y465895D02*
D03*
X121000Y510000D02*
D03*
Y466000D02*
D03*
X595094Y120906D02*
D03*
X323000Y83000D02*
D03*
X688000Y74000D02*
D03*
X661412Y47000D02*
D03*
X131412Y714048D02*
D03*
X218412Y678048D02*
D03*
X733412Y446048D02*
D03*
X443412Y443048D02*
D03*
X588412Y442048D02*
D03*
X792412Y419048D02*
D03*
X109000Y575000D02*
D03*
X30000D02*
D03*
X890412Y594048D02*
D03*
X883412Y552048D02*
D03*
X142412Y494048D02*
D03*
X167412Y468048D02*
D03*
X547412Y115048D02*
D03*
X506412Y160048D02*
D03*
X611412Y157048D02*
D03*
X870412Y474048D02*
D03*
X867000Y233000D02*
D03*
X726000Y760000D02*
D03*
X659000Y736000D02*
D03*
X613000Y762000D02*
D03*
X570000Y736000D02*
D03*
X394724Y736923D02*
D03*
X501000Y760000D02*
D03*
X438000Y737000D02*
D03*
X306000Y656000D02*
D03*
X217000Y565000D02*
D03*
X258000Y543000D02*
D03*
X227000Y550000D02*
D03*
X22000Y357000D02*
D03*
X17000Y278000D02*
D03*
X133000Y273000D02*
D03*
X74000Y255000D02*
D03*
X49000Y120000D02*
D03*
X158000Y107000D02*
D03*
X196533Y9942D02*
D03*
X329000Y8000D02*
D03*
X332000Y112000D02*
D03*
X368000Y175000D02*
D03*
X113000Y194000D02*
D03*
X125318Y309305D02*
D03*
X161000Y268000D02*
D03*
X198000Y288000D02*
D03*
X260000Y282000D02*
D03*
X513000Y181000D02*
D03*
X251000Y340000D02*
D03*
X144896Y477510D02*
D03*
X652000Y189000D02*
D03*
X884000Y486750D02*
D03*
X886500Y506000D02*
D03*
X576000Y573000D02*
D03*
X821000Y555000D02*
D03*
X609971Y179029D02*
D03*
X595500Y160000D02*
D03*
X765000Y55000D02*
D03*
X606000Y120000D02*
D03*
X760000Y129000D02*
D03*
X765000Y85000D02*
D03*
X207829Y464259D02*
D03*
X216250Y448000D02*
D03*
X900750Y243500D02*
D03*
X901500Y307500D02*
D03*
X899250Y321000D02*
D03*
X113500Y151000D02*
D03*
X173500D02*
D03*
X60000Y169000D02*
D03*
X118750Y169750D02*
D03*
X297000Y502000D02*
D03*
X661750Y173250D02*
D03*
X514000Y527000D02*
D03*
Y517000D02*
D03*
Y507000D02*
D03*
X489000Y527000D02*
D03*
X499000D02*
D03*
X489000Y537000D02*
D03*
X499000D02*
D03*
Y547000D02*
D03*
X489000D02*
D03*
X499000Y557000D02*
D03*
X489000D02*
D03*
X939750Y403250D02*
D03*
X147000Y461000D02*
D03*
X596000Y133000D02*
D03*
X800000Y129000D02*
D03*
X930000Y237000D02*
D03*
X821000Y564000D02*
D03*
Y573000D02*
D03*
Y587000D02*
D03*
X795810Y552355D02*
D03*
X564000Y502000D02*
D03*
X634000Y557000D02*
D03*
Y547000D02*
D03*
X644000Y557000D02*
D03*
X634000Y537000D02*
D03*
X644000Y547000D02*
D03*
X419000Y502000D02*
D03*
X716000Y573000D02*
D03*
Y564000D02*
D03*
X576000D02*
D03*
X431000D02*
D03*
Y573000D02*
D03*
X395000Y25000D02*
D03*
X431000Y555000D02*
D03*
X564000Y582000D02*
D03*
X60000Y7000D02*
D03*
X7000Y60000D02*
D03*
Y710000D02*
D03*
X64000Y762000D02*
D03*
X344000Y557000D02*
D03*
X354000D02*
D03*
X344000Y547000D02*
D03*
X354000D02*
D03*
Y537000D02*
D03*
X344000D02*
D03*
X354000Y527000D02*
D03*
X344000D02*
D03*
X634000Y527000D02*
D03*
X644000D02*
D03*
Y537000D02*
D03*
X40000Y317000D02*
D03*
X515000Y25000D02*
D03*
X395000Y55000D02*
D03*
X225000Y103000D02*
D03*
Y12000D02*
D03*
X96000D02*
D03*
Y103000D02*
D03*
X169000Y60000D02*
D03*
X298000Y59000D02*
D03*
X123000Y60000D02*
D03*
X252000Y59000D02*
D03*
X769000Y545000D02*
D03*
X716000Y555000D02*
D03*
X576000D02*
D03*
X659000Y527000D02*
D03*
Y517000D02*
D03*
Y507000D02*
D03*
X369000Y507000D02*
D03*
Y517000D02*
D03*
Y527000D02*
D03*
X719000Y502000D02*
D03*
X704000D02*
D03*
Y582000D02*
D03*
X419000D02*
D03*
M02*
