G04*
G04 #@! TF.GenerationSoftware,Altium Limited,Altium Designer,23.3.1 (30)*
G04*
G04 Layer_Physical_Order=3*
G04 Layer_Color=16440176*
%FSLAX44Y44*%
%MOMM*%
G71*
G04*
G04 #@! TF.SameCoordinates,CE036B66-C370-4B77-A0BB-D4AF881507E5*
G04*
G04*
G04 #@! TF.FilePolarity,Positive*
G04*
G01*
G75*
%ADD63C,1.3000*%
%ADD72C,0.4000*%
%ADD75O,1.7000X2.0000*%
%ADD76R,1.7000X2.0000*%
%ADD77C,1.6000*%
G04:AMPARAMS|DCode=78|XSize=1.6mm|YSize=1.6mm|CornerRadius=0.4mm|HoleSize=0mm|Usage=FLASHONLY|Rotation=180.000|XOffset=0mm|YOffset=0mm|HoleType=Round|Shape=RoundedRectangle|*
%AMROUNDEDRECTD78*
21,1,1.6000,0.8000,0,0,180.0*
21,1,0.8000,1.6000,0,0,180.0*
1,1,0.8000,-0.4000,0.4000*
1,1,0.8000,0.4000,0.4000*
1,1,0.8000,0.4000,-0.4000*
1,1,0.8000,-0.4000,-0.4000*
%
%ADD78ROUNDEDRECTD78*%
G04:AMPARAMS|DCode=79|XSize=1.7mm|YSize=2mm|CornerRadius=0.425mm|HoleSize=0mm|Usage=FLASHONLY|Rotation=90.000|XOffset=0mm|YOffset=0mm|HoleType=Round|Shape=RoundedRectangle|*
%AMROUNDEDRECTD79*
21,1,1.7000,1.1500,0,0,90.0*
21,1,0.8500,2.0000,0,0,90.0*
1,1,0.8500,0.5750,0.4250*
1,1,0.8500,0.5750,-0.4250*
1,1,0.8500,-0.5750,-0.4250*
1,1,0.8500,-0.5750,0.4250*
%
%ADD79ROUNDEDRECTD79*%
G04:AMPARAMS|DCode=80|XSize=1.3mm|YSize=1.3mm|CornerRadius=0.325mm|HoleSize=0mm|Usage=FLASHONLY|Rotation=90.000|XOffset=0mm|YOffset=0mm|HoleType=Round|Shape=RoundedRectangle|*
%AMROUNDEDRECTD80*
21,1,1.3000,0.6500,0,0,90.0*
21,1,0.6500,1.3000,0,0,90.0*
1,1,0.6500,0.3250,0.3250*
1,1,0.6500,0.3250,-0.3250*
1,1,0.6500,-0.3250,-0.3250*
1,1,0.6500,-0.3250,0.3250*
%
%ADD80ROUNDEDRECTD80*%
G04:AMPARAMS|DCode=81|XSize=1.6mm|YSize=1.6mm|CornerRadius=0.4mm|HoleSize=0mm|Usage=FLASHONLY|Rotation=90.000|XOffset=0mm|YOffset=0mm|HoleType=Round|Shape=RoundedRectangle|*
%AMROUNDEDRECTD81*
21,1,1.6000,0.8000,0,0,90.0*
21,1,0.8000,1.6000,0,0,90.0*
1,1,0.8000,0.4000,0.4000*
1,1,0.8000,0.4000,-0.4000*
1,1,0.8000,-0.4000,-0.4000*
1,1,0.8000,-0.4000,0.4000*
%
%ADD81ROUNDEDRECTD81*%
%ADD82C,1.5080*%
%ADD83C,2.5500*%
%ADD85O,1.8000X1.0000*%
%ADD86C,1.2000*%
%ADD87O,1.5240X1.9050*%
%ADD88C,0.7000*%
G36*
X35000Y767451D02*
X59877D01*
X60403Y766181D01*
X59337Y765116D01*
X58500Y763094D01*
Y760906D01*
X59337Y758885D01*
X60884Y757337D01*
X62906Y756500D01*
X65094D01*
X67116Y757337D01*
X68663Y758885D01*
X69500Y760906D01*
Y763094D01*
X68663Y765116D01*
X67597Y766181D01*
X68123Y767451D01*
X608877Y767451D01*
X609403Y766181D01*
X608337Y765116D01*
X607500Y763094D01*
Y760906D01*
X608337Y758885D01*
X609884Y757337D01*
X611906Y756500D01*
X614094D01*
X616115Y757337D01*
X617663Y758885D01*
X618500Y760906D01*
Y763094D01*
X617663Y765116D01*
X616597Y766181D01*
X617123Y767451D01*
X1053877Y767451D01*
X1054403Y766181D01*
X1053337Y765116D01*
X1052500Y763094D01*
Y760906D01*
X1053337Y758885D01*
X1054884Y757337D01*
X1056906Y756500D01*
X1059094D01*
X1061115Y757337D01*
X1062663Y758885D01*
X1063500Y760906D01*
Y763094D01*
X1062663Y765116D01*
X1061597Y766181D01*
X1062123Y767451D01*
X1083740D01*
X1085000Y767451D01*
X1086239Y767375D01*
X1089875Y767089D01*
X1090180Y767049D01*
X1095035Y765884D01*
X1099743Y763934D01*
X1103999Y761325D01*
X1104245Y761137D01*
X1107749Y758143D01*
X1108143Y757749D01*
X1111137Y754244D01*
X1111325Y753999D01*
X1113934Y749742D01*
X1115884Y745035D01*
X1117049Y740181D01*
X1117089Y739874D01*
X1117374Y736254D01*
X1117451Y735000D01*
X1117451Y735000D01*
X1117451Y733757D01*
Y712987D01*
X1116278Y712501D01*
X1116115Y712663D01*
X1114094Y713500D01*
X1111906D01*
X1109884Y712663D01*
X1108337Y711115D01*
X1107500Y709094D01*
Y706906D01*
X1108337Y704884D01*
X1109884Y703337D01*
X1111906Y702500D01*
X1114094D01*
X1116115Y703337D01*
X1116278Y703500D01*
X1117451Y703014D01*
Y538123D01*
X1116181Y537597D01*
X1115115Y538663D01*
X1113094Y539500D01*
X1110906D01*
X1108885Y538663D01*
X1107337Y537116D01*
X1106500Y535094D01*
Y532906D01*
X1107337Y530885D01*
X1108885Y529337D01*
X1110906Y528500D01*
X1113094D01*
X1115115Y529337D01*
X1116181Y530403D01*
X1117451Y529877D01*
Y451123D01*
X1116181Y450597D01*
X1115115Y451663D01*
X1113094Y452500D01*
X1110906D01*
X1108885Y451663D01*
X1107337Y450116D01*
X1106500Y448094D01*
Y445906D01*
X1107337Y443885D01*
X1108885Y442337D01*
X1110906Y441500D01*
X1113094D01*
X1115115Y442337D01*
X1116181Y443403D01*
X1117451Y442877D01*
Y352986D01*
X1116278Y352500D01*
X1116115Y352663D01*
X1114094Y353500D01*
X1111906D01*
X1109884Y352663D01*
X1108337Y351115D01*
X1107500Y349094D01*
Y346906D01*
X1108337Y344884D01*
X1109884Y343337D01*
X1111906Y342500D01*
X1114094D01*
X1116115Y343337D01*
X1116278Y343499D01*
X1117451Y343013D01*
Y244123D01*
X1116181Y243597D01*
X1115115Y244663D01*
X1113094Y245500D01*
X1110906D01*
X1108885Y244663D01*
X1107337Y243116D01*
X1106500Y241094D01*
Y238906D01*
X1107337Y236884D01*
X1108885Y235337D01*
X1110906Y234500D01*
X1113094D01*
X1115115Y235337D01*
X1116181Y236403D01*
X1117451Y235877D01*
Y36237D01*
X1117451Y35000D01*
X1117451D01*
X1117375Y33758D01*
X1117089Y30126D01*
X1117049Y29819D01*
X1115884Y24965D01*
X1113934Y20257D01*
X1111325Y16001D01*
X1111137Y15755D01*
X1108144Y12251D01*
X1107749Y11856D01*
X1104244Y8863D01*
X1103999Y8675D01*
X1099742Y6066D01*
X1095035Y4116D01*
X1090180Y2951D01*
X1089874Y2910D01*
X1085279Y2549D01*
X1085001D01*
X1085000Y2549D01*
X333123Y2549D01*
X332597Y3819D01*
X333663Y4884D01*
X334500Y6906D01*
Y9094D01*
X333663Y11115D01*
X332116Y12663D01*
X330094Y13500D01*
X327906D01*
X325885Y12663D01*
X324337Y11115D01*
X323500Y9094D01*
Y6906D01*
X324337Y4884D01*
X325403Y3819D01*
X324877Y2549D01*
X64987Y2549D01*
X64500Y3722D01*
X64663Y3884D01*
X65500Y5906D01*
Y8094D01*
X64663Y10115D01*
X63116Y11663D01*
X61094Y12500D01*
X58906D01*
X56884Y11663D01*
X55337Y10115D01*
X54500Y8094D01*
Y5906D01*
X55337Y3884D01*
X55500Y3722D01*
X55013Y2549D01*
X35000D01*
X34999Y2549D01*
X34721D01*
X30125Y2911D01*
X29820Y2951D01*
X24965Y4116D01*
X20257Y6066D01*
X16000Y8675D01*
X15756Y8862D01*
X12250Y11857D01*
X11857Y12250D01*
X8862Y15756D01*
X8675Y16001D01*
X6066Y20257D01*
X4116Y24965D01*
X2951Y29820D01*
X2910Y30126D01*
X2624Y33761D01*
X2549Y35000D01*
X2549Y36270D01*
Y55014D01*
X3722Y55500D01*
X3884Y55337D01*
X5906Y54500D01*
X8094D01*
X10115Y55337D01*
X11663Y56884D01*
X12500Y58906D01*
Y61094D01*
X11663Y63116D01*
X10115Y64663D01*
X8094Y65500D01*
X5906D01*
X3884Y64663D01*
X3722Y64500D01*
X2549Y64987D01*
X2549Y705014D01*
X3722Y705500D01*
X3884Y705337D01*
X5906Y704500D01*
X8094D01*
X10115Y705337D01*
X11663Y706885D01*
X12500Y708906D01*
Y711094D01*
X11663Y713115D01*
X10115Y714663D01*
X8094Y715500D01*
X5906D01*
X3884Y714663D01*
X3722Y714500D01*
X2549Y714986D01*
Y735000D01*
X2549Y735000D01*
X2624Y736239D01*
X2910Y739875D01*
X2951Y740180D01*
X4116Y745035D01*
X6066Y749743D01*
X8675Y753999D01*
X8863Y754244D01*
X11857Y757750D01*
X12250Y758143D01*
X15756Y761137D01*
X16001Y761325D01*
X20257Y763934D01*
X24965Y765884D01*
X29819Y767049D01*
X30127Y767089D01*
X34721Y767451D01*
X34999D01*
X35000Y767451D01*
D02*
G37*
%LPC*%
G36*
X727094Y765500D02*
X724906D01*
X722885Y764663D01*
X721337Y763115D01*
X720500Y761094D01*
Y758906D01*
X721337Y756885D01*
X722885Y755337D01*
X724906Y754500D01*
X727094D01*
X729116Y755337D01*
X730663Y756885D01*
X731500Y758906D01*
Y761094D01*
X730663Y763115D01*
X729116Y764663D01*
X727094Y765500D01*
D02*
G37*
G36*
X502094D02*
X499906D01*
X497884Y764663D01*
X496337Y763115D01*
X495500Y761094D01*
Y758906D01*
X496337Y756885D01*
X497884Y755337D01*
X499906Y754500D01*
X502094D01*
X504115Y755337D01*
X505663Y756885D01*
X506500Y758906D01*
Y761094D01*
X505663Y763115D01*
X504115Y764663D01*
X502094Y765500D01*
D02*
G37*
G36*
X439094Y742500D02*
X436906D01*
X434884Y741663D01*
X433337Y740116D01*
X432500Y738094D01*
Y735906D01*
X433337Y733885D01*
X434884Y732337D01*
X436906Y731500D01*
X439094D01*
X441115Y732337D01*
X442663Y733885D01*
X443500Y735906D01*
Y738094D01*
X442663Y740116D01*
X441115Y741663D01*
X439094Y742500D01*
D02*
G37*
G36*
X395818Y742422D02*
X393630D01*
X391608Y741585D01*
X390061Y740038D01*
X389224Y738017D01*
Y735828D01*
X390061Y733807D01*
X391608Y732260D01*
X393630Y731423D01*
X395818D01*
X397839Y732260D01*
X399386Y733807D01*
X400224Y735828D01*
Y738017D01*
X399386Y740038D01*
X397839Y741585D01*
X395818Y742422D01*
D02*
G37*
G36*
X871256Y750040D02*
X868744D01*
X866318Y749390D01*
X864142Y748134D01*
X862366Y746358D01*
X861110Y744182D01*
X860460Y741756D01*
Y739244D01*
X861110Y736818D01*
X862366Y734642D01*
X864142Y732866D01*
X866318Y731610D01*
X868744Y730960D01*
X871256D01*
X873682Y731610D01*
X875858Y732866D01*
X877634Y734642D01*
X878890Y736818D01*
X879540Y739244D01*
Y741756D01*
X878890Y744182D01*
X877634Y746358D01*
X875858Y748134D01*
X873682Y749390D01*
X871256Y750040D01*
D02*
G37*
G36*
X761256D02*
X758744D01*
X756318Y749390D01*
X754142Y748134D01*
X752366Y746358D01*
X751110Y744182D01*
X750460Y741756D01*
Y739244D01*
X751110Y736818D01*
X752366Y734642D01*
X754142Y732866D01*
X756318Y731610D01*
X758744Y730960D01*
X761256D01*
X763682Y731610D01*
X765858Y732866D01*
X767634Y734642D01*
X768890Y736818D01*
X769540Y739244D01*
Y741756D01*
X768890Y744182D01*
X767634Y746358D01*
X765858Y748134D01*
X763682Y749390D01*
X761256Y750040D01*
D02*
G37*
G36*
X361256D02*
X358744D01*
X356318Y749390D01*
X354142Y748134D01*
X352366Y746358D01*
X351110Y744182D01*
X350460Y741756D01*
Y739244D01*
X351110Y736818D01*
X352366Y734642D01*
X354142Y732866D01*
X356318Y731610D01*
X358744Y730960D01*
X361256D01*
X363682Y731610D01*
X365858Y732866D01*
X367634Y734642D01*
X368890Y736818D01*
X369540Y739244D01*
Y741756D01*
X368890Y744182D01*
X367634Y746358D01*
X365858Y748134D01*
X363682Y749390D01*
X361256Y750040D01*
D02*
G37*
G36*
X251256D02*
X248744D01*
X246318Y749390D01*
X244142Y748134D01*
X242366Y746358D01*
X241110Y744182D01*
X240460Y741756D01*
Y739244D01*
X241110Y736818D01*
X242366Y734642D01*
X244142Y732866D01*
X246318Y731610D01*
X248744Y730960D01*
X251256D01*
X253682Y731610D01*
X255858Y732866D01*
X257634Y734642D01*
X258890Y736818D01*
X259540Y739244D01*
Y741756D01*
X258890Y744182D01*
X257634Y746358D01*
X255858Y748134D01*
X253682Y749390D01*
X251256Y750040D01*
D02*
G37*
G36*
X660094Y741500D02*
X657906D01*
X655884Y740663D01*
X654337Y739116D01*
X653500Y737094D01*
Y734906D01*
X654337Y732885D01*
X655884Y731337D01*
X657906Y730500D01*
X660094D01*
X662115Y731337D01*
X663663Y732885D01*
X664500Y734906D01*
Y737094D01*
X663663Y739116D01*
X662115Y740663D01*
X660094Y741500D01*
D02*
G37*
G36*
X571094D02*
X568906D01*
X566884Y740663D01*
X565337Y739116D01*
X564500Y737094D01*
Y734906D01*
X565337Y732885D01*
X566884Y731337D01*
X568906Y730500D01*
X571094D01*
X573116Y731337D01*
X574663Y732885D01*
X575500Y734906D01*
Y737094D01*
X574663Y739116D01*
X573116Y740663D01*
X571094Y741500D01*
D02*
G37*
G36*
X1018417Y739700D02*
X1015783D01*
X1013240Y739018D01*
X1010960Y737702D01*
X1009098Y735840D01*
X1007781Y733560D01*
X1007100Y731016D01*
Y728383D01*
X1007781Y725840D01*
X1009098Y723560D01*
X1010960Y721698D01*
X1013240Y720381D01*
X1015783Y719700D01*
X1018417D01*
X1020960Y720381D01*
X1023240Y721698D01*
X1025102Y723560D01*
X1026418Y725840D01*
X1027100Y728383D01*
Y731016D01*
X1026418Y733560D01*
X1025102Y735840D01*
X1023240Y737702D01*
X1020960Y739018D01*
X1018417Y739700D01*
D02*
G37*
G36*
X993017D02*
X990383D01*
X987840Y739018D01*
X985560Y737702D01*
X983698Y735840D01*
X982381Y733560D01*
X981700Y731016D01*
Y728383D01*
X982381Y725840D01*
X983698Y723560D01*
X985560Y721698D01*
X987840Y720381D01*
X990383Y719700D01*
X993017D01*
X995560Y720381D01*
X997840Y721698D01*
X999702Y723560D01*
X1001018Y725840D01*
X1001700Y728383D01*
Y731016D01*
X1001018Y733560D01*
X999702Y735840D01*
X997840Y737702D01*
X995560Y739018D01*
X993017Y739700D01*
D02*
G37*
G36*
X967617D02*
X964983D01*
X962440Y739018D01*
X960160Y737702D01*
X958298Y735840D01*
X956981Y733560D01*
X956300Y731016D01*
Y728383D01*
X956981Y725840D01*
X958298Y723560D01*
X960160Y721698D01*
X962440Y720381D01*
X964983Y719700D01*
X967617D01*
X970160Y720381D01*
X972440Y721698D01*
X974302Y723560D01*
X975618Y725840D01*
X976300Y728383D01*
Y731016D01*
X975618Y733560D01*
X974302Y735840D01*
X972440Y737702D01*
X970160Y739018D01*
X967617Y739700D01*
D02*
G37*
G36*
X942216D02*
X939583D01*
X937040Y739018D01*
X934760Y737702D01*
X932898Y735840D01*
X931581Y733560D01*
X930900Y731016D01*
Y728383D01*
X931581Y725840D01*
X932898Y723560D01*
X934760Y721698D01*
X937040Y720381D01*
X939583Y719700D01*
X942216D01*
X944760Y720381D01*
X947040Y721698D01*
X948902Y723560D01*
X950218Y725840D01*
X950900Y728383D01*
Y731016D01*
X950218Y733560D01*
X948902Y735840D01*
X947040Y737702D01*
X944760Y739018D01*
X942216Y739700D01*
D02*
G37*
G36*
X1086970Y755000D02*
X1083030D01*
X1079166Y754231D01*
X1075526Y752724D01*
X1072251Y750535D01*
X1069465Y747749D01*
X1067276Y744473D01*
X1065769Y740834D01*
X1065000Y736970D01*
Y733030D01*
X1065769Y729166D01*
X1067276Y725527D01*
X1069465Y722251D01*
X1072251Y719465D01*
X1075526Y717276D01*
X1079166Y715769D01*
X1083030Y715000D01*
X1086970D01*
X1090834Y715769D01*
X1094473Y717276D01*
X1097749Y719465D01*
X1100535Y722251D01*
X1102724Y725527D01*
X1104231Y729166D01*
X1105000Y733030D01*
Y736970D01*
X1104231Y740834D01*
X1102724Y744473D01*
X1100535Y747749D01*
X1097749Y750535D01*
X1094473Y752724D01*
X1090834Y754231D01*
X1086970Y755000D01*
D02*
G37*
G36*
X36970D02*
X33030D01*
X29166Y754231D01*
X25526Y752724D01*
X22251Y750535D01*
X19465Y747749D01*
X17276Y744473D01*
X15769Y740834D01*
X15000Y736970D01*
Y733030D01*
X15769Y729166D01*
X17276Y725527D01*
X19465Y722251D01*
X22251Y719465D01*
X25526Y717276D01*
X29166Y715769D01*
X33030Y715000D01*
X36970D01*
X40834Y715769D01*
X44474Y717276D01*
X47749Y719465D01*
X50535Y722251D01*
X52724Y725527D01*
X54231Y729166D01*
X55000Y733030D01*
Y736970D01*
X54231Y740834D01*
X52724Y744473D01*
X50535Y747749D01*
X47749Y750535D01*
X44474Y752724D01*
X40834Y754231D01*
X36970Y755000D01*
D02*
G37*
G36*
X132506Y719548D02*
X130318D01*
X128296Y718710D01*
X126749Y717163D01*
X125912Y715142D01*
Y712954D01*
X126749Y710932D01*
X128296Y709385D01*
X130318Y708548D01*
X132506D01*
X134528Y709385D01*
X136075Y710932D01*
X136912Y712954D01*
Y715142D01*
X136075Y717163D01*
X134528Y718710D01*
X132506Y719548D01*
D02*
G37*
G36*
X1021100Y714417D02*
X1019100D01*
Y706300D01*
X1027217D01*
Y708300D01*
X1026752Y710641D01*
X1025426Y712626D01*
X1023441Y713952D01*
X1021100Y714417D01*
D02*
G37*
G36*
X1015100D02*
X1013100D01*
X1010759Y713952D01*
X1008774Y712626D01*
X1007448Y710641D01*
X1006982Y708300D01*
Y706300D01*
X1015100D01*
Y714417D01*
D02*
G37*
G36*
X993017Y714300D02*
X990383D01*
X987840Y713618D01*
X985560Y712302D01*
X983698Y710440D01*
X982381Y708160D01*
X981700Y705617D01*
Y702983D01*
X982381Y700440D01*
X983698Y698160D01*
X985560Y696298D01*
X987840Y694982D01*
X990383Y694300D01*
X993017D01*
X995560Y694982D01*
X997840Y696298D01*
X999702Y698160D01*
X1001018Y700440D01*
X1001700Y702983D01*
Y705617D01*
X1001018Y708160D01*
X999702Y710440D01*
X997840Y712302D01*
X995560Y713618D01*
X993017Y714300D01*
D02*
G37*
G36*
X1027217Y702300D02*
X1019100D01*
Y694183D01*
X1021100D01*
X1023441Y694648D01*
X1025426Y695974D01*
X1026752Y697959D01*
X1027217Y700300D01*
Y702300D01*
D02*
G37*
G36*
X1015100D02*
X1006982D01*
Y700300D01*
X1007448Y697959D01*
X1008774Y695974D01*
X1010759Y694648D01*
X1013100Y694183D01*
X1015100D01*
Y702300D01*
D02*
G37*
G36*
X689094Y692590D02*
X686906D01*
X684884Y691753D01*
X683337Y690206D01*
X682500Y688184D01*
Y685996D01*
X683337Y683975D01*
X684884Y682427D01*
X686906Y681590D01*
X689094D01*
X691115Y682427D01*
X692663Y683975D01*
X693500Y685996D01*
Y688184D01*
X692663Y690206D01*
X691115Y691753D01*
X689094Y692590D01*
D02*
G37*
G36*
X464094D02*
X461906D01*
X459884Y691753D01*
X458337Y690206D01*
X457500Y688184D01*
Y685996D01*
X458337Y683975D01*
X459884Y682427D01*
X461906Y681590D01*
X464094D01*
X466115Y682427D01*
X467663Y683975D01*
X468500Y685996D01*
Y688184D01*
X467663Y690206D01*
X466115Y691753D01*
X464094Y692590D01*
D02*
G37*
G36*
X388594Y692000D02*
X386406D01*
X384384Y691163D01*
X382837Y689615D01*
X382000Y687594D01*
Y685406D01*
X382837Y683384D01*
X384384Y681837D01*
X386406Y681000D01*
X388594D01*
X390616Y681837D01*
X392163Y683384D01*
X393000Y685406D01*
Y687594D01*
X392163Y689615D01*
X390616Y691163D01*
X388594Y692000D01*
D02*
G37*
G36*
X219506Y683548D02*
X217318D01*
X215296Y682710D01*
X213749Y681163D01*
X212912Y679142D01*
Y676954D01*
X213749Y674932D01*
X215296Y673385D01*
X217318Y672548D01*
X219506D01*
X221528Y673385D01*
X223075Y674932D01*
X223912Y676954D01*
Y679142D01*
X223075Y681163D01*
X221528Y682710D01*
X219506Y683548D01*
D02*
G37*
G36*
X179000Y679060D02*
X171000D01*
X169173Y678820D01*
X167470Y678114D01*
X166008Y676992D01*
X164886Y675530D01*
X164180Y673827D01*
X163940Y672000D01*
X164180Y670173D01*
X164886Y668470D01*
X166008Y667008D01*
X167470Y665885D01*
X169173Y665180D01*
X171000Y664940D01*
X179000D01*
X180827Y665180D01*
X182530Y665885D01*
X183992Y667008D01*
X185114Y668470D01*
X185820Y670173D01*
X186060Y672000D01*
X185820Y673827D01*
X185114Y675530D01*
X183992Y676992D01*
X182530Y678114D01*
X180827Y678820D01*
X179000Y679060D01*
D02*
G37*
G36*
X307094Y661500D02*
X304906D01*
X302885Y660663D01*
X301337Y659116D01*
X300500Y657094D01*
Y654906D01*
X301337Y652885D01*
X302885Y651337D01*
X304906Y650500D01*
X307094D01*
X309116Y651337D01*
X310663Y652885D01*
X311500Y654906D01*
Y657094D01*
X310663Y659116D01*
X309116Y660663D01*
X307094Y661500D01*
D02*
G37*
G36*
X1021094Y661130D02*
X1018906D01*
X1016885Y660293D01*
X1015337Y658745D01*
X1014500Y656724D01*
Y654536D01*
X1015337Y652515D01*
X1016885Y650967D01*
X1018906Y650130D01*
X1021094D01*
X1023115Y650967D01*
X1024663Y652515D01*
X1025500Y654536D01*
Y656724D01*
X1024663Y658745D01*
X1023115Y660293D01*
X1021094Y661130D01*
D02*
G37*
G36*
X725750Y670622D02*
X714250D01*
X711811Y670137D01*
X709744Y668756D01*
X708363Y666689D01*
X707878Y664250D01*
Y655750D01*
X708363Y653311D01*
X709744Y651244D01*
X711811Y649863D01*
X714250Y649378D01*
X725750D01*
X728189Y649863D01*
X730256Y651244D01*
X731637Y653311D01*
X732122Y655750D01*
Y664250D01*
X731637Y666689D01*
X730256Y668756D01*
X728189Y670137D01*
X725750Y670622D01*
D02*
G37*
G36*
X425750D02*
X414250D01*
X411811Y670137D01*
X409744Y668756D01*
X408363Y666689D01*
X407878Y664250D01*
Y655750D01*
X408363Y653311D01*
X409744Y651244D01*
X411811Y649863D01*
X414250Y649378D01*
X425750D01*
X428189Y649863D01*
X430256Y651244D01*
X431637Y653311D01*
X432122Y655750D01*
Y664250D01*
X431637Y666689D01*
X430256Y668756D01*
X428189Y670137D01*
X425750Y670622D01*
D02*
G37*
G36*
X176053Y658000D02*
X173947D01*
X171912Y657455D01*
X170088Y656402D01*
X168598Y654912D01*
X167545Y653088D01*
X167000Y651053D01*
Y648947D01*
X167545Y646912D01*
X168598Y645088D01*
X170088Y643598D01*
X171912Y642545D01*
X173947Y642000D01*
X176053D01*
X178088Y642545D01*
X179912Y643598D01*
X181402Y645088D01*
X182455Y646912D01*
X183000Y648947D01*
Y651053D01*
X182455Y653088D01*
X181402Y654912D01*
X179912Y656402D01*
X178088Y657455D01*
X176053Y658000D01*
D02*
G37*
G36*
X1033146Y650552D02*
X1030958D01*
X1028937Y649715D01*
X1027390Y648168D01*
X1026552Y646146D01*
Y643958D01*
X1027390Y641937D01*
X1028937Y640390D01*
X1030958Y639552D01*
X1033146D01*
X1035168Y640390D01*
X1036715Y641937D01*
X1037552Y643958D01*
Y646146D01*
X1036715Y648168D01*
X1035168Y649715D01*
X1033146Y650552D01*
D02*
G37*
G36*
X177000Y637746D02*
Y632000D01*
X182746D01*
X182455Y633088D01*
X181402Y634912D01*
X179912Y636402D01*
X178088Y637455D01*
X177000Y637746D01*
D02*
G37*
G36*
X173000Y637746D02*
X171912Y637455D01*
X170088Y636402D01*
X168598Y634912D01*
X167545Y633088D01*
X167254Y632000D01*
X173000D01*
Y637746D01*
D02*
G37*
G36*
X985750Y650500D02*
X983562D01*
X981540Y649663D01*
X979993Y648115D01*
X979156Y646094D01*
Y643906D01*
X979993Y641885D01*
X981220Y640658D01*
X981516Y640215D01*
X981289Y639067D01*
X980337Y638116D01*
X979500Y636094D01*
Y633906D01*
X980337Y631884D01*
X981885Y630337D01*
X983906Y629500D01*
X986094D01*
X988115Y630337D01*
X989663Y631884D01*
X990500Y633906D01*
Y636094D01*
X989663Y638116D01*
X988436Y639342D01*
X988140Y639785D01*
X988367Y640933D01*
X989318Y641885D01*
X990156Y643906D01*
Y646094D01*
X989318Y648115D01*
X987771Y649663D01*
X985750Y650500D01*
D02*
G37*
G36*
X948655Y636974D02*
X946467D01*
X944445Y636137D01*
X942898Y634589D01*
X942061Y632568D01*
Y630380D01*
X942898Y628358D01*
X944445Y626811D01*
X946467Y625974D01*
X948655D01*
X950676Y626811D01*
X952223Y628358D01*
X953061Y630380D01*
Y632568D01*
X952223Y634589D01*
X950676Y636137D01*
X948655Y636974D01*
D02*
G37*
G36*
X841453Y655250D02*
X838547D01*
X835698Y654683D01*
X833013Y653571D01*
X830597Y651957D01*
X828543Y649903D01*
X826929Y647487D01*
X825817Y644802D01*
X825250Y641953D01*
Y639047D01*
X825817Y636198D01*
X826929Y633513D01*
X828543Y631097D01*
X830597Y629043D01*
X833013Y627429D01*
X835698Y626317D01*
X838547Y625750D01*
X841453D01*
X844302Y626317D01*
X846987Y627429D01*
X849403Y629043D01*
X851457Y631097D01*
X853071Y633513D01*
X854183Y636198D01*
X854750Y639047D01*
Y641953D01*
X854183Y644802D01*
X853071Y647487D01*
X851457Y649903D01*
X849403Y651957D01*
X846987Y653571D01*
X844302Y654683D01*
X841453Y655250D01*
D02*
G37*
G36*
X791453D02*
X788547D01*
X785698Y654683D01*
X783013Y653571D01*
X780597Y651957D01*
X778543Y649903D01*
X776929Y647487D01*
X775817Y644802D01*
X775250Y641953D01*
Y639047D01*
X775817Y636198D01*
X776929Y633513D01*
X778543Y631097D01*
X780597Y629043D01*
X783013Y627429D01*
X785698Y626317D01*
X788547Y625750D01*
X791453D01*
X794302Y626317D01*
X796987Y627429D01*
X799403Y629043D01*
X801457Y631097D01*
X803071Y633513D01*
X804183Y636198D01*
X804750Y639047D01*
Y641953D01*
X804183Y644802D01*
X803071Y647487D01*
X801457Y649903D01*
X799403Y651957D01*
X796987Y653571D01*
X794302Y654683D01*
X791453Y655250D01*
D02*
G37*
G36*
X331453D02*
X328547D01*
X325698Y654683D01*
X323013Y653571D01*
X320597Y651957D01*
X318543Y649903D01*
X316929Y647487D01*
X315817Y644802D01*
X315250Y641953D01*
Y639047D01*
X315817Y636198D01*
X316929Y633513D01*
X318543Y631097D01*
X320597Y629043D01*
X323013Y627429D01*
X325698Y626317D01*
X328547Y625750D01*
X331453D01*
X334302Y626317D01*
X336987Y627429D01*
X339403Y629043D01*
X341457Y631097D01*
X343071Y633513D01*
X344183Y636198D01*
X344750Y639047D01*
Y641953D01*
X344183Y644802D01*
X343071Y647487D01*
X341457Y649903D01*
X339403Y651957D01*
X336987Y653571D01*
X334302Y654683D01*
X331453Y655250D01*
D02*
G37*
G36*
X281453D02*
X278547D01*
X275698Y654683D01*
X273013Y653571D01*
X270597Y651957D01*
X268543Y649903D01*
X266929Y647487D01*
X265817Y644802D01*
X265250Y641953D01*
Y639047D01*
X265817Y636198D01*
X266929Y633513D01*
X268543Y631097D01*
X270597Y629043D01*
X273013Y627429D01*
X275698Y626317D01*
X278547Y625750D01*
X281453D01*
X284302Y626317D01*
X286987Y627429D01*
X289403Y629043D01*
X291457Y631097D01*
X293071Y633513D01*
X294183Y636198D01*
X294750Y639047D01*
Y641953D01*
X294183Y644802D01*
X293071Y647487D01*
X291457Y649903D01*
X289403Y651957D01*
X286987Y653571D01*
X284302Y654683D01*
X281453Y655250D01*
D02*
G37*
G36*
X182746Y628000D02*
X175000D01*
X167254D01*
X167545Y626912D01*
X168471Y625309D01*
X168038Y624039D01*
X61000D01*
X61000Y624039D01*
X60220Y623884D01*
X59558Y623442D01*
X59558Y623442D01*
X33558Y597442D01*
X33116Y596780D01*
X32961Y596000D01*
Y580870D01*
X31905Y580164D01*
X31094Y580500D01*
X28906D01*
X26885Y579663D01*
X25337Y578116D01*
X24500Y576094D01*
Y573906D01*
X25337Y571884D01*
X26885Y570337D01*
X28906Y569500D01*
X31094D01*
X31905Y569836D01*
X32961Y569130D01*
Y413637D01*
X31691Y413206D01*
X31261Y413766D01*
X29251Y415308D01*
X26911Y416277D01*
X24400Y416608D01*
X21889Y416277D01*
X19548Y415308D01*
X17539Y413766D01*
X15997Y411757D01*
X15028Y409416D01*
X14697Y406905D01*
Y403095D01*
X15028Y400584D01*
X15997Y398243D01*
X17539Y396234D01*
X19548Y394692D01*
X21889Y393723D01*
X24400Y393392D01*
X26911Y393723D01*
X29251Y394692D01*
X31261Y396234D01*
X31691Y396794D01*
X32961Y396363D01*
Y390000D01*
X33116Y389220D01*
X33558Y388558D01*
X34220Y388116D01*
X35000Y387961D01*
X65322Y387961D01*
X66102Y388116D01*
X66764Y388558D01*
X67206Y389220D01*
X67361Y390000D01*
Y395581D01*
X68631Y396010D01*
X70349Y394692D01*
X72689Y393723D01*
X75200Y393392D01*
X77711Y393723D01*
X80051Y394692D01*
X82061Y396234D01*
X83603Y398243D01*
X84572Y400584D01*
X84903Y403095D01*
Y406905D01*
X84572Y409416D01*
X83603Y411757D01*
X82061Y413766D01*
X80051Y415308D01*
X77711Y416277D01*
X75200Y416608D01*
X72689Y416277D01*
X70349Y415308D01*
X68631Y413990D01*
X67361Y414419D01*
Y565477D01*
X97845Y595961D01*
X168609Y595961D01*
X168861Y594691D01*
X167470Y594114D01*
X166008Y592992D01*
X164886Y591530D01*
X164180Y589827D01*
X163940Y588000D01*
X164180Y586173D01*
X164886Y584470D01*
X166008Y583008D01*
X167470Y581885D01*
X169173Y581180D01*
X171000Y580940D01*
X179000D01*
X180827Y581180D01*
X182530Y581885D01*
X183992Y583008D01*
X185114Y584470D01*
X185820Y586173D01*
X186060Y588000D01*
X185820Y589827D01*
X185114Y591530D01*
X183992Y592992D01*
X182530Y594114D01*
X181139Y594691D01*
X181391Y595961D01*
X188000D01*
X188780Y596116D01*
X189442Y596558D01*
X189884Y597220D01*
X190039Y598000D01*
Y622000D01*
X189884Y622780D01*
X189442Y623442D01*
X188780Y623884D01*
X188000Y624039D01*
X181962D01*
X181529Y625309D01*
X182455Y626912D01*
X182746Y628000D01*
D02*
G37*
G36*
X920094Y634500D02*
X917906D01*
X915884Y633663D01*
X914337Y632116D01*
X913500Y630094D01*
Y627906D01*
X914337Y625885D01*
X915884Y624337D01*
X917906Y623500D01*
X920094D01*
X922115Y624337D01*
X923663Y625885D01*
X924500Y627906D01*
Y630094D01*
X923663Y632116D01*
X922115Y633663D01*
X920094Y634500D01*
D02*
G37*
G36*
X1069319Y620150D02*
X1067081D01*
X1064919Y619571D01*
X1062981Y618452D01*
X1061398Y616869D01*
X1060279Y614931D01*
X1059700Y612769D01*
Y610531D01*
X1060279Y608369D01*
X1061398Y606431D01*
X1062981Y604848D01*
X1064919Y603729D01*
X1067081Y603150D01*
X1069319D01*
X1071481Y603729D01*
X1073419Y604848D01*
X1075002Y606431D01*
X1076121Y608369D01*
X1076700Y610531D01*
Y612769D01*
X1076121Y614931D01*
X1075002Y616869D01*
X1073419Y618452D01*
X1071481Y619571D01*
X1069319Y620150D01*
D02*
G37*
G36*
X942216Y714300D02*
X939583D01*
X937040Y713618D01*
X934760Y712302D01*
X932898Y710440D01*
X931581Y708160D01*
X930900Y705617D01*
Y702983D01*
X931581Y700440D01*
X932898Y698160D01*
X934760Y696298D01*
X936822Y695108D01*
Y688100D01*
X936822Y688100D01*
X937132Y686539D01*
X938016Y685216D01*
X962116Y661116D01*
X963439Y660232D01*
X965000Y659922D01*
X965000Y659922D01*
X992990D01*
X993564Y659243D01*
X993229Y657805D01*
X992885Y657663D01*
X991337Y656115D01*
X990500Y654094D01*
Y651906D01*
X991337Y649884D01*
X992885Y648337D01*
X994906Y647500D01*
X997094D01*
X999116Y648337D01*
X1000663Y649884D01*
X1001069Y650867D01*
X1002568Y651165D01*
X1033422Y620311D01*
Y472680D01*
X1014232Y453490D01*
X1013406D01*
X1011385Y452653D01*
X1009837Y451106D01*
X1009000Y449085D01*
Y446897D01*
X1009837Y444875D01*
X1011385Y443328D01*
X1013406Y442491D01*
X1015594D01*
X1017616Y443328D01*
X1019163Y444875D01*
X1020000Y446897D01*
Y447723D01*
X1039484Y467207D01*
X1041071Y466998D01*
X1041398Y466431D01*
X1042981Y464848D01*
X1044919Y463729D01*
X1047081Y463150D01*
X1049319D01*
X1051481Y463729D01*
X1053419Y464848D01*
X1055002Y466431D01*
X1056121Y468369D01*
X1056700Y470531D01*
Y472769D01*
X1056121Y474931D01*
X1055002Y476869D01*
X1053419Y478452D01*
X1051481Y479571D01*
X1049319Y480150D01*
X1047081D01*
X1044919Y479571D01*
X1042981Y478452D01*
X1042752Y478223D01*
X1041578Y478709D01*
Y484591D01*
X1042752Y485078D01*
X1042981Y484848D01*
X1044919Y483729D01*
X1047081Y483150D01*
X1049319D01*
X1051481Y483729D01*
X1053419Y484848D01*
X1055002Y486431D01*
X1056121Y488369D01*
X1056700Y490531D01*
Y492769D01*
X1056121Y494931D01*
X1055002Y496869D01*
X1053419Y498452D01*
X1051481Y499571D01*
X1049319Y500150D01*
X1047081D01*
X1044919Y499571D01*
X1042981Y498452D01*
X1042752Y498223D01*
X1041578Y498709D01*
Y504591D01*
X1042752Y505078D01*
X1042981Y504848D01*
X1044919Y503729D01*
X1047081Y503150D01*
X1049319D01*
X1051481Y503729D01*
X1053419Y504848D01*
X1055002Y506431D01*
X1056121Y508369D01*
X1056700Y510531D01*
Y512769D01*
X1056121Y514931D01*
X1055002Y516869D01*
X1053419Y518452D01*
X1051481Y519571D01*
X1049319Y520150D01*
X1047081D01*
X1044919Y519571D01*
X1042981Y518452D01*
X1042752Y518223D01*
X1041578Y518709D01*
Y524591D01*
X1042752Y525078D01*
X1042981Y524848D01*
X1044919Y523729D01*
X1047081Y523150D01*
X1049319D01*
X1051481Y523729D01*
X1053419Y524848D01*
X1055002Y526431D01*
X1056121Y528369D01*
X1056700Y530531D01*
Y532769D01*
X1056121Y534931D01*
X1055002Y536869D01*
X1053419Y538452D01*
X1051481Y539571D01*
X1049319Y540150D01*
X1047081D01*
X1044919Y539571D01*
X1042981Y538452D01*
X1042752Y538223D01*
X1041578Y538709D01*
Y544591D01*
X1042752Y545078D01*
X1042981Y544848D01*
X1044919Y543729D01*
X1047081Y543150D01*
X1049319D01*
X1051481Y543729D01*
X1053419Y544848D01*
X1055002Y546431D01*
X1056121Y548369D01*
X1056700Y550531D01*
Y552769D01*
X1056121Y554931D01*
X1055002Y556869D01*
X1053419Y558452D01*
X1051481Y559571D01*
X1049319Y560150D01*
X1047081D01*
X1044919Y559571D01*
X1042981Y558452D01*
X1042752Y558223D01*
X1041578Y558709D01*
Y564591D01*
X1042752Y565078D01*
X1042981Y564848D01*
X1044919Y563729D01*
X1047081Y563150D01*
X1049319D01*
X1051481Y563729D01*
X1053419Y564848D01*
X1055002Y566431D01*
X1056121Y568369D01*
X1056700Y570531D01*
Y572769D01*
X1056121Y574931D01*
X1055002Y576869D01*
X1053419Y578452D01*
X1051481Y579571D01*
X1049319Y580150D01*
X1047081D01*
X1044919Y579571D01*
X1042981Y578452D01*
X1042752Y578223D01*
X1041578Y578709D01*
Y584591D01*
X1042752Y585078D01*
X1042981Y584848D01*
X1044919Y583729D01*
X1047081Y583150D01*
X1049319D01*
X1051481Y583729D01*
X1053419Y584848D01*
X1055002Y586431D01*
X1056121Y588369D01*
X1056700Y590531D01*
Y592769D01*
X1056121Y594931D01*
X1055002Y596869D01*
X1053419Y598452D01*
X1051481Y599571D01*
X1049319Y600150D01*
X1047081D01*
X1044919Y599571D01*
X1042981Y598452D01*
X1042752Y598223D01*
X1041578Y598709D01*
Y604591D01*
X1042752Y605078D01*
X1042981Y604848D01*
X1044919Y603729D01*
X1047081Y603150D01*
X1049319D01*
X1051481Y603729D01*
X1053419Y604848D01*
X1055002Y606431D01*
X1056121Y608369D01*
X1056700Y610531D01*
Y612769D01*
X1056121Y614931D01*
X1055002Y616869D01*
X1053419Y618452D01*
X1051481Y619571D01*
X1049319Y620150D01*
X1047081D01*
X1044919Y619571D01*
X1042981Y618452D01*
X1042752Y618223D01*
X1041578Y618709D01*
Y622000D01*
X1041578Y622000D01*
X1041268Y623561D01*
X1040384Y624884D01*
X998384Y666884D01*
X997061Y667768D01*
X995500Y668078D01*
X995500Y668078D01*
X966689D01*
X944978Y689789D01*
Y695108D01*
X947040Y696298D01*
X948902Y698160D01*
X950218Y700440D01*
X950900Y702983D01*
Y705617D01*
X950218Y708160D01*
X948902Y710440D01*
X947040Y712302D01*
X944760Y713618D01*
X942216Y714300D01*
D02*
G37*
G36*
X1104094Y610500D02*
X1101906D01*
X1099884Y609663D01*
X1098337Y608116D01*
X1097500Y606094D01*
Y603906D01*
X1098337Y601884D01*
X1099884Y600337D01*
X1101906Y599500D01*
X1104094D01*
X1106115Y600337D01*
X1107663Y601884D01*
X1108500Y603906D01*
Y606094D01*
X1107663Y608116D01*
X1106115Y609663D01*
X1104094Y610500D01*
D02*
G37*
G36*
X998094Y604500D02*
X995906D01*
X993885Y603663D01*
X992337Y602116D01*
X991500Y600094D01*
Y597906D01*
X992337Y595885D01*
X993885Y594337D01*
X995906Y593500D01*
X998094D01*
X1000116Y594337D01*
X1001663Y595885D01*
X1002500Y597906D01*
Y600094D01*
X1001663Y602116D01*
X1000116Y603663D01*
X998094Y604500D01*
D02*
G37*
G36*
X1020844Y602250D02*
X1018656D01*
X1016635Y601413D01*
X1015087Y599865D01*
X1014250Y597844D01*
Y595656D01*
X1015087Y593634D01*
X1016635Y592087D01*
X1018656Y591250D01*
X1020844D01*
X1022866Y592087D01*
X1024413Y593634D01*
X1025250Y595656D01*
Y597844D01*
X1024413Y599865D01*
X1022866Y601413D01*
X1020844Y602250D01*
D02*
G37*
G36*
X1069319Y600150D02*
X1067081D01*
X1064919Y599571D01*
X1062981Y598452D01*
X1061398Y596869D01*
X1060279Y594931D01*
X1059700Y592769D01*
Y590531D01*
X1060279Y588369D01*
X1061398Y586431D01*
X1062981Y584848D01*
X1064919Y583729D01*
X1067081Y583150D01*
X1069319D01*
X1071481Y583729D01*
X1073419Y584848D01*
X1075002Y586431D01*
X1076121Y588369D01*
X1076700Y590531D01*
Y592769D01*
X1076121Y594931D01*
X1075002Y596869D01*
X1073419Y598452D01*
X1071481Y599571D01*
X1069319Y600150D01*
D02*
G37*
G36*
X420094Y587500D02*
X417906D01*
X415885Y586663D01*
X414337Y585116D01*
X413500Y583094D01*
Y580906D01*
X414337Y578885D01*
X415885Y577337D01*
X417906Y576500D01*
X420094D01*
X422116Y577337D01*
X423663Y578885D01*
X424500Y580906D01*
Y583094D01*
X423663Y585116D01*
X422116Y586663D01*
X420094Y587500D01*
D02*
G37*
G36*
X967617Y714300D02*
X964983D01*
X962440Y713618D01*
X960160Y712302D01*
X958298Y710440D01*
X956981Y708160D01*
X956300Y705617D01*
Y702983D01*
X956981Y700440D01*
X958298Y698160D01*
X960160Y696298D01*
X962279Y695075D01*
Y692643D01*
X962279Y692643D01*
X962589Y691082D01*
X963473Y689759D01*
X972301Y680931D01*
X972301Y680931D01*
X973624Y680047D01*
X975185Y679737D01*
X1063496D01*
X1085922Y657311D01*
Y508014D01*
X1084652Y507165D01*
X1083844Y507500D01*
X1081656D01*
X1079634Y506663D01*
X1078087Y505116D01*
X1077250Y503094D01*
Y500906D01*
X1078087Y498885D01*
X1079634Y497337D01*
X1081656Y496500D01*
X1083844D01*
X1084652Y496835D01*
X1085922Y495986D01*
Y400689D01*
X1067116Y381884D01*
X1066232Y380561D01*
X1065922Y379000D01*
X1065922Y379000D01*
Y358289D01*
X1061345D01*
X1034322Y385312D01*
X1034210Y385387D01*
X1034121Y385488D01*
X1033882Y385606D01*
X1033660Y385754D01*
X1033197Y386252D01*
X1032924Y386785D01*
X1032855Y387080D01*
X1032860Y387136D01*
X1032900Y387284D01*
Y389917D01*
X1032218Y392460D01*
X1030902Y394740D01*
X1029040Y396602D01*
X1026760Y397919D01*
X1024217Y398600D01*
X1021583D01*
X1021436Y398560D01*
X1021380Y398555D01*
X1021084Y398625D01*
X1020553Y398896D01*
X1020054Y399360D01*
X1019906Y399582D01*
X1019788Y399821D01*
X1019687Y399910D01*
X1019612Y400022D01*
X1010192Y409442D01*
X1009920Y409624D01*
X1009662Y409824D01*
X1009591Y409843D01*
X1009530Y409884D01*
X1009210Y409948D01*
X1008895Y410034D01*
X1008822Y410025D01*
X1008750Y410039D01*
X998613D01*
X998087Y411309D01*
X998663Y411884D01*
X999500Y413906D01*
Y416094D01*
X998663Y418116D01*
X997115Y419663D01*
X995094Y420500D01*
X992906D01*
X990884Y419663D01*
X989337Y418116D01*
X988500Y416094D01*
Y413906D01*
X989337Y411884D01*
X989913Y411309D01*
X989387Y410039D01*
X944574Y410039D01*
X943794Y409884D01*
X943132Y409442D01*
X942690Y408780D01*
X941730Y408383D01*
X940844Y408750D01*
X938656D01*
X937941Y408454D01*
X936810Y408780D01*
X936368Y409442D01*
X935706Y409884D01*
X934926Y410039D01*
X917979D01*
X917979Y410039D01*
X917198Y409884D01*
X916537Y409442D01*
X905341Y398246D01*
X903806Y399781D01*
X901785Y400618D01*
X899597D01*
X897575Y399781D01*
X896028Y398234D01*
X895191Y396212D01*
Y394024D01*
X896028Y392003D01*
X897548Y390483D01*
X896837Y389772D01*
X896000Y387751D01*
Y385563D01*
X896837Y383541D01*
X898384Y381994D01*
X900406Y381157D01*
X902594D01*
X904615Y381994D01*
X906046Y383424D01*
X970942D01*
X986737Y367629D01*
X986849Y367554D01*
X986938Y367453D01*
X987177Y367335D01*
X987399Y367187D01*
X987766Y366358D01*
X987850Y365822D01*
X987500Y364517D01*
Y361884D01*
X988182Y359340D01*
X989498Y357060D01*
X991360Y355198D01*
X993640Y353881D01*
X996183Y353200D01*
X998817D01*
X1000122Y353550D01*
X1000658Y353467D01*
X1001487Y353099D01*
X1001635Y352877D01*
X1001753Y352638D01*
X1001854Y352549D01*
X1001929Y352437D01*
X1012137Y342229D01*
X1012249Y342154D01*
X1012338Y342053D01*
X1012577Y341935D01*
X1012799Y341787D01*
X1013167Y340958D01*
X1013250Y340422D01*
X1012900Y339117D01*
Y336483D01*
X1013581Y333940D01*
X1014898Y331660D01*
X1016760Y329798D01*
X1019040Y328481D01*
X1021583Y327800D01*
X1024217D01*
X1026760Y328481D01*
X1026827Y328520D01*
X1028393Y327958D01*
X1028837Y326884D01*
X1030385Y325337D01*
X1031239Y324983D01*
X1032039Y324107D01*
X1031884Y323327D01*
X1032039Y322546D01*
X1032481Y321885D01*
X1032481Y321885D01*
X1046808Y307558D01*
X1071961Y282405D01*
X1071961Y234845D01*
X1055155Y218039D01*
X1032715D01*
X1032453Y217987D01*
X1032187Y217970D01*
X1032066Y217910D01*
X1031934Y217884D01*
X1031755Y217764D01*
X1031713Y217736D01*
X1031713Y217736D01*
X1031473Y217618D01*
X1030588Y217641D01*
X1030129Y217774D01*
X1029992Y217850D01*
X1029040Y218802D01*
X1026760Y220119D01*
X1024217Y220800D01*
X1021583D01*
X1019040Y220119D01*
X1016760Y218802D01*
X1014898Y216940D01*
X1013581Y214660D01*
X1012900Y212117D01*
Y209484D01*
X1013581Y206940D01*
X1014072Y206090D01*
X1014118Y204884D01*
X1013456Y204443D01*
X1013014Y203781D01*
X1012859Y203001D01*
Y199000D01*
X1013014Y198220D01*
X1013174Y197980D01*
X1013014Y197741D01*
X1012859Y196961D01*
X1012859Y195691D01*
Y193336D01*
X1013014Y192556D01*
X1013456Y191894D01*
X1014118Y191452D01*
X1014388Y190656D01*
X1013581Y189260D01*
X1012900Y186717D01*
Y184083D01*
X1013581Y181540D01*
X1014388Y180144D01*
X1014118Y179348D01*
X1013456Y178906D01*
X1013014Y178244D01*
X1012859Y177464D01*
Y173517D01*
X1013014Y172737D01*
X1013456Y172076D01*
X1014118Y171634D01*
X1014898Y171478D01*
X1047961D01*
Y147039D01*
X974841D01*
X945425Y176269D01*
X945423Y177539D01*
X993230Y225346D01*
X993304Y225457D01*
X993406Y225546D01*
X993523Y225786D01*
X993672Y226007D01*
X994474Y226403D01*
X994967Y226502D01*
X995064Y226500D01*
X996183Y226200D01*
X998817D01*
X1001360Y226882D01*
X1003640Y228198D01*
X1004054Y228612D01*
X1004528Y228674D01*
X1005484Y228559D01*
X1005659Y228421D01*
X1005692Y228382D01*
X1005932Y228264D01*
X1006153Y228116D01*
X1006285Y228090D01*
X1006406Y228030D01*
X1006672Y228013D01*
X1006934Y227961D01*
X1013466D01*
X1013728Y228013D01*
X1013994Y228030D01*
X1014115Y228090D01*
X1014247Y228116D01*
X1014468Y228264D01*
X1014707Y228382D01*
X1014741Y228421D01*
X1014916Y228559D01*
X1015872Y228674D01*
X1016346Y228612D01*
X1016760Y228198D01*
X1019040Y226882D01*
X1021583Y226200D01*
X1024217D01*
X1026760Y226882D01*
X1029040Y228198D01*
X1030902Y230060D01*
X1032218Y232340D01*
X1032900Y234883D01*
Y237517D01*
X1032218Y240060D01*
X1030902Y242340D01*
X1029875Y243367D01*
X1029814Y243471D01*
X1029663Y243941D01*
X1029618Y244831D01*
X1029736Y245070D01*
X1029884Y245292D01*
X1029910Y245424D01*
X1029970Y245545D01*
X1029987Y245811D01*
X1030039Y246073D01*
Y251728D01*
X1029987Y251989D01*
X1029970Y252255D01*
X1029910Y252376D01*
X1029884Y252508D01*
X1029736Y252730D01*
X1029618Y252969D01*
X1029663Y253859D01*
X1029814Y254329D01*
X1029875Y254433D01*
X1030902Y255460D01*
X1032218Y257740D01*
X1032900Y260284D01*
Y262917D01*
X1032218Y265460D01*
X1030902Y267740D01*
X1029040Y269602D01*
X1026760Y270919D01*
X1024217Y271600D01*
X1021583D01*
X1019040Y270919D01*
X1016760Y269602D01*
X1014898Y267740D01*
X1013581Y265460D01*
X1012900Y262917D01*
Y260284D01*
X1013581Y257740D01*
X1014408Y256309D01*
X1013674Y255039D01*
X1006725D01*
X1005992Y256309D01*
X1006818Y257740D01*
X1007500Y260284D01*
Y262917D01*
X1006818Y265460D01*
X1005502Y267740D01*
X1003640Y269602D01*
X1001360Y270919D01*
X998817Y271600D01*
X996183D01*
X993640Y270919D01*
X991360Y269602D01*
X989498Y267740D01*
X988182Y265460D01*
X987500Y262917D01*
Y260284D01*
X988182Y257740D01*
X989008Y256309D01*
X988274Y255039D01*
X968000Y255039D01*
X968000Y255039D01*
X967220Y254884D01*
X966558Y254442D01*
X966558Y254442D01*
X937155Y225039D01*
X845095D01*
X827039Y243095D01*
Y250750D01*
X827039Y250750D01*
X826884Y251530D01*
X826442Y252192D01*
X826442Y252192D01*
X818941Y259692D01*
X818663Y260366D01*
X817115Y261913D01*
X816442Y262191D01*
X816442Y262192D01*
X815780Y262634D01*
X815000Y262789D01*
X777095Y262789D01*
X679039Y360845D01*
Y561750D01*
X678884Y562530D01*
X678442Y563192D01*
X677780Y563634D01*
X677000Y563789D01*
X629000D01*
X628220Y563634D01*
X627558Y563192D01*
X627116Y562530D01*
X626961Y561750D01*
Y361000D01*
X627116Y360220D01*
X627558Y359558D01*
X627558Y359558D01*
X653330Y333786D01*
X673461Y313655D01*
Y207345D01*
X656058Y189942D01*
X655616Y189280D01*
X655461Y188500D01*
Y188312D01*
X654934Y187040D01*
X653960Y186066D01*
X652688Y185539D01*
X652500D01*
X651720Y185384D01*
X651058Y184942D01*
X649950Y185384D01*
X638039Y197295D01*
Y306000D01*
X637884Y306780D01*
X637442Y307442D01*
X637442Y307442D01*
X588739Y356145D01*
Y436548D01*
X589506D01*
X591527Y437385D01*
X593075Y438932D01*
X593912Y440954D01*
Y443142D01*
X593075Y445163D01*
X591527Y446710D01*
X589506Y447548D01*
X588739D01*
Y533550D01*
X588584Y534331D01*
X588142Y534992D01*
X588142Y534992D01*
X574039Y549095D01*
Y551222D01*
X574039Y551222D01*
X573884Y552002D01*
X573442Y552664D01*
X573442Y552664D01*
X573066Y553040D01*
X572539Y554312D01*
Y555688D01*
X573066Y556960D01*
X573442Y557336D01*
X573884Y557998D01*
X574039Y558778D01*
Y560222D01*
X574039Y560222D01*
X573884Y561002D01*
X573442Y561664D01*
X573442Y561664D01*
X573066Y562040D01*
X572539Y563312D01*
Y564688D01*
X573066Y565960D01*
X573442Y566336D01*
X573884Y566998D01*
X574039Y567778D01*
Y569222D01*
X573884Y570002D01*
X573442Y570664D01*
X573066Y571040D01*
X572539Y572312D01*
Y573688D01*
X573066Y574960D01*
X573442Y575336D01*
X573531Y575469D01*
X573664Y575558D01*
X573664Y575558D01*
X574040Y575934D01*
X575312Y576461D01*
X576688D01*
X577960Y575934D01*
X578336Y575558D01*
X578998Y575116D01*
X579778Y574961D01*
X699426D01*
X700206Y575116D01*
X700868Y575558D01*
X701310Y576220D01*
X702446Y576690D01*
X702906Y576500D01*
X705094D01*
X706357Y577023D01*
X706690Y576220D01*
X707132Y575558D01*
X707794Y575116D01*
X708574Y574961D01*
X712222D01*
X713002Y575116D01*
X713664Y575558D01*
X713664Y575558D01*
X714040Y575934D01*
X715312Y576461D01*
X716688D01*
X717960Y575934D01*
X718336Y575558D01*
X718998Y575116D01*
X719778Y574961D01*
X817222D01*
X817222Y574961D01*
X818002Y575116D01*
X818664Y575558D01*
X819040Y575934D01*
X820312Y576461D01*
X821688D01*
X822960Y575934D01*
X823336Y575558D01*
X823998Y575116D01*
X824778Y574961D01*
X907155D01*
X920961Y561155D01*
X920961Y521845D01*
X888929Y489813D01*
X888663Y489865D01*
X887115Y491413D01*
X885094Y492250D01*
X882906D01*
X880884Y491413D01*
X879337Y489865D01*
X878500Y487844D01*
Y485656D01*
X879337Y483634D01*
X880884Y482087D01*
X880937Y481821D01*
X876079Y476963D01*
X875075Y477163D01*
X873528Y478710D01*
X871506Y479548D01*
X869318D01*
X867297Y478710D01*
X865749Y477163D01*
X864912Y475142D01*
Y472954D01*
X865749Y470932D01*
X867001Y469681D01*
X867250Y468134D01*
X808058Y408942D01*
X807616Y408280D01*
X807461Y407500D01*
Y392750D01*
X807461Y392750D01*
X807616Y391970D01*
X808058Y391308D01*
X809949Y389418D01*
X810610Y388976D01*
X810917Y387620D01*
X810705Y387108D01*
Y384920D01*
X811542Y382898D01*
X813089Y381351D01*
X815110Y380514D01*
X815095Y379250D01*
X814656D01*
X812635Y378413D01*
X811087Y376866D01*
X810250Y374844D01*
Y372656D01*
X811087Y370634D01*
X812635Y369087D01*
X814656Y368250D01*
X816844D01*
X818866Y369087D01*
X820413Y370634D01*
X821250Y372656D01*
Y374844D01*
X820413Y376866D01*
X818866Y378413D01*
X816844Y379250D01*
X816859Y380514D01*
X817299D01*
X819320Y381351D01*
X820867Y382898D01*
X821704Y384920D01*
Y387108D01*
X821432Y387764D01*
X822138Y388820D01*
X841610D01*
X842390Y388976D01*
X843052Y389418D01*
X852178Y398544D01*
X852384Y398337D01*
X854406Y397500D01*
X856594D01*
X858615Y398337D01*
X860163Y399884D01*
X861000Y401906D01*
Y404094D01*
X860163Y406115D01*
X859956Y406322D01*
X876473Y422839D01*
X876585Y423006D01*
X876727Y423148D01*
X876804Y423334D01*
X876915Y423501D01*
X876954Y423698D01*
X877031Y423884D01*
Y424084D01*
X877053Y424191D01*
X877071Y424242D01*
X877130Y424384D01*
X877132Y424387D01*
X877501Y424852D01*
X877966Y425222D01*
X877969Y425223D01*
X878149Y425298D01*
X878269Y425322D01*
X878470D01*
X878656Y425399D01*
X878852Y425438D01*
X879020Y425550D01*
X879205Y425627D01*
X879347Y425769D01*
X879514Y425880D01*
X914081Y460448D01*
X914322Y460808D01*
X915318Y460395D01*
X917506D01*
X919528Y461232D01*
X921075Y462780D01*
X921912Y464801D01*
Y466989D01*
X921499Y467985D01*
X921860Y468226D01*
X948360Y494726D01*
X948472Y494893D01*
X948614Y495035D01*
X948906Y495500D01*
X951094D01*
X953115Y496337D01*
X954663Y497884D01*
X955500Y499906D01*
Y502094D01*
X955965Y502386D01*
X956107Y502528D01*
X956274Y502640D01*
X978192Y524558D01*
X978634Y525220D01*
X978789Y526000D01*
Y571303D01*
X980059Y571556D01*
X980337Y570885D01*
X981885Y569337D01*
X983906Y568500D01*
X986094D01*
X988115Y569337D01*
X989663Y570885D01*
X990500Y572906D01*
Y575094D01*
X989663Y577116D01*
X988115Y578663D01*
X987903Y580125D01*
X988663Y580885D01*
X989500Y582906D01*
Y585094D01*
X988663Y587116D01*
X987115Y588663D01*
X985094Y589500D01*
X982906D01*
X980884Y588663D01*
X980059Y587837D01*
X978789Y588363D01*
Y590250D01*
X978789Y590250D01*
X978634Y591030D01*
X978192Y591692D01*
X978192Y591692D01*
X949442Y620442D01*
X948780Y620884D01*
X948000Y621039D01*
X938363D01*
X937837Y622309D01*
X938163Y622635D01*
X939000Y624656D01*
Y626844D01*
X938163Y628866D01*
X936616Y630413D01*
X934594Y631250D01*
X932406D01*
X930385Y630413D01*
X928837Y628866D01*
X928000Y626844D01*
Y624656D01*
X928837Y622635D01*
X929163Y622309D01*
X928637Y621039D01*
X606400D01*
X605721Y622309D01*
X606656Y623709D01*
X607712Y626257D01*
X608250Y628961D01*
Y630340D01*
X608250Y630340D01*
X608250Y678340D01*
X608250Y679719D01*
X607712Y682424D01*
X606656Y684972D01*
X605124Y687265D01*
X603174Y689215D01*
X600881Y690747D01*
X598333Y691802D01*
X595629Y692340D01*
X594250Y692340D01*
X594250Y692340D01*
X594250Y692340D01*
X525250Y692340D01*
X523772D01*
X520874Y691764D01*
X518145Y690633D01*
X515688Y688991D01*
X513599Y686902D01*
X512770Y685662D01*
X511500Y686048D01*
Y687094D01*
X510663Y689116D01*
X509115Y690663D01*
X507094Y691500D01*
X504906D01*
X502884Y690663D01*
X501337Y689116D01*
X500500Y687094D01*
Y684906D01*
X501337Y682885D01*
X502884Y681337D01*
X504906Y680500D01*
X507094D01*
X509115Y681337D01*
X509541Y681762D01*
X510711Y681137D01*
X510250Y678818D01*
X510250Y677340D01*
Y632340D01*
Y630764D01*
X510865Y627673D01*
X512071Y624762D01*
X513709Y622309D01*
X513359Y621039D01*
X469000D01*
X468220Y620884D01*
X467558Y620442D01*
X467558Y620442D01*
X434308Y587192D01*
X433866Y586530D01*
X433711Y585750D01*
Y575905D01*
X433866Y575124D01*
X434461Y573688D01*
Y572312D01*
X433866Y570876D01*
X433711Y570095D01*
Y566905D01*
X433866Y566124D01*
X434461Y564688D01*
Y563312D01*
X433866Y561876D01*
X433711Y561095D01*
Y557905D01*
X433866Y557124D01*
X434461Y555688D01*
Y554312D01*
X433866Y552876D01*
X433848Y552784D01*
X433336Y552442D01*
X432960Y552066D01*
X431688Y551539D01*
X430312D01*
X429040Y552066D01*
X428664Y552442D01*
X428002Y552884D01*
X427222Y553039D01*
X418095D01*
X407692Y563442D01*
X407030Y563884D01*
X406250Y564039D01*
X326500D01*
X325720Y563884D01*
X325058Y563442D01*
X324616Y562780D01*
X324461Y562000D01*
Y417523D01*
X324475Y417452D01*
X324466Y417381D01*
X324552Y417064D01*
X324616Y416743D01*
X324660Y416552D01*
X324360Y415354D01*
X324271Y415260D01*
X324191Y415187D01*
X322339Y413766D01*
X320797Y411757D01*
X319828Y409416D01*
X319497Y406905D01*
Y403095D01*
X319828Y400584D01*
X320797Y398243D01*
X322339Y396234D01*
X324191Y394813D01*
X324271Y394740D01*
X324360Y394646D01*
X324660Y393448D01*
X324616Y393257D01*
X324552Y392936D01*
X324466Y392619D01*
X324475Y392548D01*
X324461Y392477D01*
Y296845D01*
X262383Y234766D01*
X260697Y234877D01*
X259861Y235966D01*
X257852Y237508D01*
X255511Y238477D01*
X253000Y238808D01*
X250489Y238477D01*
X248148Y237508D01*
X246139Y235966D01*
X244597Y233957D01*
X243628Y231616D01*
X243297Y229105D01*
Y225295D01*
X243628Y222784D01*
X244597Y220443D01*
X246100Y218484D01*
X238694Y211078D01*
X238694Y211078D01*
X234808Y207192D01*
X234366Y206530D01*
X234211Y205750D01*
Y180500D01*
X232506D01*
X230485Y179663D01*
X228937Y178116D01*
X228100Y176094D01*
Y173906D01*
X228937Y171884D01*
X230485Y170337D01*
X232506Y169500D01*
X234694D01*
X236716Y170337D01*
X238263Y171884D01*
X238445Y171921D01*
X241308Y169058D01*
X241970Y168616D01*
X242750Y168461D01*
X287500D01*
X287500Y168461D01*
X288280Y168616D01*
X288942Y169058D01*
X295692Y175808D01*
X296134Y176470D01*
X296170Y176650D01*
X296816Y178210D01*
X297790Y179184D01*
X299349Y179830D01*
X299530Y179866D01*
X300192Y180308D01*
X305845Y185961D01*
X313750D01*
X313920Y185995D01*
X314587Y184384D01*
X315597Y183375D01*
X314337Y182115D01*
X313500Y180094D01*
Y177906D01*
X314337Y175884D01*
X315884Y174337D01*
X317906Y173500D01*
X320094D01*
X322116Y174337D01*
X323663Y175884D01*
X324500Y177906D01*
Y180094D01*
X323663Y182115D01*
X322653Y183125D01*
X323913Y184384D01*
X324580Y185995D01*
X324750Y185961D01*
X421961D01*
Y162000D01*
X422116Y161220D01*
X422558Y160558D01*
X532558Y50558D01*
X533220Y50116D01*
X534000Y49961D01*
X655542D01*
X656248Y48905D01*
X655912Y48094D01*
Y45906D01*
X656749Y43885D01*
X658297Y42337D01*
X660318Y41500D01*
X662506D01*
X664528Y42337D01*
X666075Y43885D01*
X666912Y45906D01*
Y48094D01*
X666576Y48905D01*
X667282Y49961D01*
X759146D01*
X759343Y50000D01*
X759544D01*
X759730Y50077D01*
X759927Y50116D01*
X760094Y50228D01*
X760279Y50304D01*
X760421Y50446D01*
X760588Y50558D01*
X761830Y50392D01*
X761885Y50337D01*
X763906Y49500D01*
X766094D01*
X768115Y50337D01*
X768170Y50392D01*
X769411Y50558D01*
X769578Y50446D01*
X769721Y50304D01*
X769906Y50228D01*
X770073Y50116D01*
X770270Y50077D01*
X770456Y50000D01*
X770657D01*
X770853Y49961D01*
X948700D01*
Y28500D01*
X969700D01*
Y49961D01*
X975873D01*
X976499Y48691D01*
X975428Y47295D01*
X974370Y44741D01*
X974009Y42000D01*
Y39000D01*
X974370Y36259D01*
X975428Y33705D01*
X977111Y31511D01*
X979305Y29828D01*
X981859Y28770D01*
X984600Y28409D01*
X987341Y28770D01*
X989895Y29828D01*
X992089Y31511D01*
X993772Y33705D01*
X994830Y36259D01*
X995191Y39000D01*
Y42000D01*
X994830Y44741D01*
X993772Y47295D01*
X992701Y48691D01*
X993327Y49961D01*
X1001273D01*
X1001899Y48691D01*
X1000828Y47295D01*
X999770Y44741D01*
X999409Y42000D01*
Y39000D01*
X999770Y36259D01*
X1000828Y33705D01*
X1002511Y31511D01*
X1004705Y29828D01*
X1007259Y28770D01*
X1010000Y28409D01*
X1012741Y28770D01*
X1015295Y29828D01*
X1017489Y31511D01*
X1019172Y33705D01*
X1020230Y36259D01*
X1020591Y39000D01*
Y42000D01*
X1020230Y44741D01*
X1019172Y47295D01*
X1018101Y48691D01*
X1018727Y49961D01*
X1026673D01*
X1027299Y48691D01*
X1026228Y47295D01*
X1025170Y44741D01*
X1024809Y42000D01*
Y39000D01*
X1025170Y36259D01*
X1026228Y33705D01*
X1027911Y31511D01*
X1030105Y29828D01*
X1032659Y28770D01*
X1035400Y28409D01*
X1038141Y28770D01*
X1040695Y29828D01*
X1042889Y31511D01*
X1044572Y33705D01*
X1045630Y36259D01*
X1045991Y39000D01*
Y42000D01*
X1045630Y44741D01*
X1044572Y47295D01*
X1043501Y48691D01*
X1044127Y49961D01*
X1070017D01*
X1070503Y48787D01*
X1069465Y47749D01*
X1067276Y44474D01*
X1065769Y40834D01*
X1065000Y36970D01*
Y33030D01*
X1065769Y29166D01*
X1067276Y25526D01*
X1069465Y22251D01*
X1072251Y19465D01*
X1075526Y17276D01*
X1079166Y15769D01*
X1083030Y15000D01*
X1086970D01*
X1090834Y15769D01*
X1094473Y17276D01*
X1097749Y19465D01*
X1100535Y22251D01*
X1102724Y25526D01*
X1104231Y29166D01*
X1105000Y33030D01*
Y36970D01*
X1104231Y40834D01*
X1102724Y44474D01*
X1100535Y47749D01*
X1097749Y50535D01*
X1094473Y52724D01*
X1090834Y54231D01*
X1086970Y55000D01*
X1084430D01*
X1083904Y56270D01*
X1096442Y68808D01*
X1096884Y69470D01*
X1097039Y70250D01*
Y356250D01*
X1096884Y357030D01*
X1096442Y357692D01*
X1095780Y358134D01*
X1095000Y358289D01*
X1074078D01*
Y377311D01*
X1092884Y396116D01*
X1092884Y396116D01*
X1093768Y397439D01*
X1094078Y399000D01*
X1094078Y399000D01*
Y659000D01*
X1093768Y660561D01*
X1092884Y661884D01*
X1092884Y661884D01*
X1068069Y686699D01*
X1066746Y687583D01*
X1065185Y687893D01*
X1065185Y687893D01*
X976874D01*
X970767Y694001D01*
X970901Y695409D01*
X972440Y696298D01*
X974302Y698160D01*
X975618Y700440D01*
X976300Y702983D01*
Y705617D01*
X975618Y708160D01*
X974302Y710440D01*
X972440Y712302D01*
X970160Y713618D01*
X967617Y714300D01*
D02*
G37*
G36*
X1069319Y580150D02*
X1067081D01*
X1064919Y579571D01*
X1062981Y578452D01*
X1061398Y576869D01*
X1060279Y574931D01*
X1059700Y572769D01*
Y570531D01*
X1060279Y568369D01*
X1061398Y566431D01*
X1062981Y564848D01*
X1064919Y563729D01*
X1067081Y563150D01*
X1069319D01*
X1071481Y563729D01*
X1073419Y564848D01*
X1075002Y566431D01*
X1076121Y568369D01*
X1076700Y570531D01*
Y572769D01*
X1076121Y574931D01*
X1075002Y576869D01*
X1073419Y578452D01*
X1071481Y579571D01*
X1069319Y580150D01*
D02*
G37*
G36*
X218094Y570500D02*
X215906D01*
X213885Y569663D01*
X212337Y568116D01*
X211500Y566094D01*
Y563906D01*
X212337Y561884D01*
X213885Y560337D01*
X215906Y559500D01*
X218094D01*
X220116Y560337D01*
X221663Y561884D01*
X222500Y563906D01*
Y566094D01*
X221663Y568116D01*
X220116Y569663D01*
X218094Y570500D01*
D02*
G37*
G36*
X1003094Y558500D02*
X1000906D01*
X998885Y557663D01*
X997337Y556115D01*
X996500Y554094D01*
Y551906D01*
X997337Y549884D01*
X998885Y548337D01*
X1000906Y547500D01*
X1003094D01*
X1005116Y548337D01*
X1006663Y549884D01*
X1007500Y551906D01*
Y554094D01*
X1006663Y556115D01*
X1005116Y557663D01*
X1003094Y558500D01*
D02*
G37*
G36*
X796904Y557855D02*
X794716D01*
X792695Y557018D01*
X791148Y555471D01*
X790310Y553449D01*
Y551261D01*
X791148Y549240D01*
X792695Y547693D01*
X794716Y546855D01*
X796904D01*
X798926Y547693D01*
X800473Y549240D01*
X801310Y551261D01*
Y553449D01*
X800473Y555471D01*
X798926Y557018D01*
X796904Y557855D01*
D02*
G37*
G36*
X884506Y557548D02*
X882318D01*
X880297Y556710D01*
X878749Y555163D01*
X877912Y553142D01*
Y550954D01*
X878749Y548932D01*
X880297Y547385D01*
X882318Y546548D01*
X884506D01*
X886527Y547385D01*
X888075Y548932D01*
X888912Y550954D01*
Y553142D01*
X888075Y555163D01*
X886527Y556710D01*
X884506Y557548D01*
D02*
G37*
G36*
X228094Y555500D02*
X225906D01*
X223885Y554663D01*
X222337Y553116D01*
X221500Y551094D01*
Y548906D01*
X222337Y546884D01*
X223885Y545337D01*
X225906Y544500D01*
X228094D01*
X230116Y545337D01*
X231663Y546884D01*
X232500Y548906D01*
Y551094D01*
X231663Y553116D01*
X230116Y554663D01*
X228094Y555500D01*
D02*
G37*
G36*
X1069319Y560150D02*
X1067081D01*
X1064919Y559571D01*
X1062981Y558452D01*
X1061398Y556869D01*
X1060279Y554931D01*
X1059700Y552769D01*
Y550531D01*
X1060279Y548369D01*
X1061398Y546431D01*
X1062981Y544848D01*
X1064919Y543729D01*
X1067081Y543150D01*
X1069319D01*
X1071481Y543729D01*
X1073419Y544848D01*
X1075002Y546431D01*
X1076121Y548369D01*
X1076700Y550531D01*
Y552769D01*
X1076121Y554931D01*
X1075002Y556869D01*
X1073419Y558452D01*
X1071481Y559571D01*
X1069319Y560150D01*
D02*
G37*
G36*
X770094Y550500D02*
X767906D01*
X765884Y549663D01*
X764337Y548116D01*
X763500Y546094D01*
Y543906D01*
X764337Y541884D01*
X765884Y540337D01*
X767906Y539500D01*
X770094D01*
X772115Y540337D01*
X773663Y541884D01*
X774500Y543906D01*
Y546094D01*
X773663Y548116D01*
X772115Y549663D01*
X770094Y550500D01*
D02*
G37*
G36*
X259094Y548500D02*
X256906D01*
X254884Y547663D01*
X253337Y546115D01*
X252500Y544094D01*
Y541906D01*
X253337Y539884D01*
X254884Y538337D01*
X256906Y537500D01*
X259094D01*
X261115Y538337D01*
X262663Y539884D01*
X263500Y541906D01*
Y544094D01*
X262663Y546115D01*
X261115Y547663D01*
X259094Y548500D01*
D02*
G37*
G36*
X1069319Y540150D02*
X1067081D01*
X1064919Y539571D01*
X1062981Y538452D01*
X1061398Y536869D01*
X1060279Y534931D01*
X1059700Y532769D01*
Y530531D01*
X1060279Y528369D01*
X1061398Y526431D01*
X1062981Y524848D01*
X1064919Y523729D01*
X1067081Y523150D01*
X1069319D01*
X1071481Y523729D01*
X1073419Y524848D01*
X1075002Y526431D01*
X1076121Y528369D01*
X1076700Y530531D01*
Y532769D01*
X1076121Y534931D01*
X1075002Y536869D01*
X1073419Y538452D01*
X1071481Y539571D01*
X1069319Y540150D01*
D02*
G37*
G36*
X986094Y520500D02*
X983906D01*
X981884Y519663D01*
X980337Y518116D01*
X979500Y516094D01*
Y513906D01*
X980337Y511884D01*
X981884Y510337D01*
X983906Y509500D01*
X986094D01*
X988115Y510337D01*
X989663Y511884D01*
X990500Y513906D01*
Y516094D01*
X989663Y518116D01*
X988115Y519663D01*
X986094Y520500D01*
D02*
G37*
G36*
X1069319Y520150D02*
X1067081D01*
X1064919Y519571D01*
X1062981Y518452D01*
X1061398Y516869D01*
X1060279Y514931D01*
X1059700Y512769D01*
Y510531D01*
X1060279Y508369D01*
X1061398Y506431D01*
X1062981Y504848D01*
X1064919Y503729D01*
X1067081Y503150D01*
X1069319D01*
X1071481Y503729D01*
X1073419Y504848D01*
X1075002Y506431D01*
X1076121Y508369D01*
X1076700Y510531D01*
Y512769D01*
X1076121Y514931D01*
X1075002Y516869D01*
X1073419Y518452D01*
X1071481Y519571D01*
X1069319Y520150D01*
D02*
G37*
G36*
X887594Y511500D02*
X885406D01*
X883384Y510663D01*
X881837Y509115D01*
X881000Y507094D01*
Y504906D01*
X881837Y502884D01*
X883384Y501337D01*
X885406Y500500D01*
X887594D01*
X889615Y501337D01*
X891163Y502884D01*
X892000Y504906D01*
Y507094D01*
X891163Y509115D01*
X889615Y510663D01*
X887594Y511500D01*
D02*
G37*
G36*
X720094Y507500D02*
X717906D01*
X715884Y506663D01*
X714337Y505116D01*
X713500Y503094D01*
Y500906D01*
X714337Y498885D01*
X715884Y497337D01*
X717906Y496500D01*
X720094D01*
X722115Y497337D01*
X723663Y498885D01*
X724500Y500906D01*
Y503094D01*
X723663Y505116D01*
X722115Y506663D01*
X720094Y507500D01*
D02*
G37*
G36*
X705094D02*
X702906D01*
X700885Y506663D01*
X699337Y505116D01*
X698500Y503094D01*
Y500906D01*
X699337Y498885D01*
X700885Y497337D01*
X702906Y496500D01*
X705094D01*
X707115Y497337D01*
X708663Y498885D01*
X709500Y500906D01*
Y503094D01*
X708663Y505116D01*
X707115Y506663D01*
X705094Y507500D01*
D02*
G37*
G36*
X298094D02*
X295906D01*
X293885Y506663D01*
X292337Y505116D01*
X291500Y503094D01*
Y500906D01*
X292337Y498885D01*
X293885Y497337D01*
X295906Y496500D01*
X298094D01*
X300116Y497337D01*
X301663Y498885D01*
X302500Y500906D01*
Y503094D01*
X301663Y505116D01*
X300116Y506663D01*
X298094Y507500D01*
D02*
G37*
G36*
X1017094Y506500D02*
X1014906D01*
X1012885Y505663D01*
X1011337Y504115D01*
X1010500Y502094D01*
Y499906D01*
X1011337Y497884D01*
X1012885Y496337D01*
X1014906Y495500D01*
X1017094D01*
X1019116Y496337D01*
X1020663Y497884D01*
X1021500Y499906D01*
Y502094D01*
X1020663Y504115D01*
X1019116Y505663D01*
X1017094Y506500D01*
D02*
G37*
G36*
X143506Y499548D02*
X141318D01*
X139297Y498710D01*
X137749Y497163D01*
X136912Y495142D01*
Y492954D01*
X137749Y490932D01*
X139297Y489385D01*
X141318Y488548D01*
X143506D01*
X145527Y489385D01*
X147075Y490932D01*
X147912Y492954D01*
Y495142D01*
X147075Y497163D01*
X145527Y498710D01*
X143506Y499548D01*
D02*
G37*
G36*
X1069319Y500150D02*
X1067081D01*
X1064919Y499571D01*
X1062981Y498452D01*
X1061398Y496869D01*
X1060279Y494931D01*
X1059700Y492769D01*
Y490531D01*
X1060279Y488369D01*
X1061398Y486431D01*
X1062981Y484848D01*
X1064919Y483729D01*
X1067081Y483150D01*
X1069319D01*
X1071481Y483729D01*
X1073419Y484848D01*
X1075002Y486431D01*
X1076121Y488369D01*
X1076700Y490531D01*
Y492769D01*
X1076121Y494931D01*
X1075002Y496869D01*
X1073419Y498452D01*
X1071481Y499571D01*
X1069319Y500150D01*
D02*
G37*
G36*
X145990Y483010D02*
X143802D01*
X141780Y482173D01*
X140233Y480626D01*
X139396Y478604D01*
Y476416D01*
X140233Y474395D01*
X141780Y472848D01*
X143802Y472010D01*
X145990D01*
X148011Y472848D01*
X149558Y474395D01*
X150396Y476416D01*
Y478604D01*
X149558Y480626D01*
X148011Y482173D01*
X145990Y483010D01*
D02*
G37*
G36*
X1069319Y480150D02*
X1067081D01*
X1064919Y479571D01*
X1062981Y478452D01*
X1061398Y476869D01*
X1060279Y474931D01*
X1059700Y472769D01*
Y470531D01*
X1060279Y468369D01*
X1061398Y466431D01*
X1062981Y464848D01*
X1064919Y463729D01*
X1067081Y463150D01*
X1069319D01*
X1071481Y463729D01*
X1073419Y464848D01*
X1075002Y466431D01*
X1076121Y468369D01*
X1076700Y470531D01*
Y472769D01*
X1076121Y474931D01*
X1075002Y476869D01*
X1073419Y478452D01*
X1071481Y479571D01*
X1069319Y480150D01*
D02*
G37*
G36*
X168506Y473548D02*
X166318D01*
X164296Y472710D01*
X162749Y471163D01*
X161912Y469142D01*
Y466954D01*
X162749Y464932D01*
X164296Y463385D01*
X166318Y462548D01*
X168506D01*
X170527Y463385D01*
X172075Y464932D01*
X172912Y466954D01*
Y469142D01*
X172075Y471163D01*
X170527Y472710D01*
X168506Y473548D01*
D02*
G37*
G36*
X293594Y472500D02*
X291406D01*
X289384Y471663D01*
X287837Y470116D01*
X287000Y468094D01*
Y465906D01*
X287837Y463885D01*
X289384Y462337D01*
X291406Y461500D01*
X293594D01*
X295616Y462337D01*
X297163Y463885D01*
X298000Y465906D01*
Y468094D01*
X297163Y470116D01*
X295616Y471663D01*
X293594Y472500D01*
D02*
G37*
G36*
X122094Y471500D02*
X119906D01*
X117885Y470663D01*
X116337Y469115D01*
X115500Y467094D01*
Y464906D01*
X116337Y462884D01*
X117885Y461337D01*
X119906Y460500D01*
X122094D01*
X124115Y461337D01*
X125663Y462884D01*
X126500Y464906D01*
Y467094D01*
X125663Y469115D01*
X124115Y470663D01*
X122094Y471500D01*
D02*
G37*
G36*
X208923Y469759D02*
X206735D01*
X204713Y468922D01*
X203166Y467375D01*
X202329Y465353D01*
Y463165D01*
X203166Y461144D01*
X204713Y459596D01*
X206735Y458759D01*
X208923D01*
X210944Y459596D01*
X212491Y461144D01*
X213329Y463165D01*
Y465353D01*
X212491Y467375D01*
X210944Y468922D01*
X208923Y469759D01*
D02*
G37*
G36*
X148094Y466500D02*
X145906D01*
X143884Y465663D01*
X142337Y464115D01*
X141500Y462094D01*
Y459906D01*
X142337Y457884D01*
X143884Y456337D01*
X145906Y455500D01*
X148094D01*
X150115Y456337D01*
X151663Y457884D01*
X152500Y459906D01*
Y462094D01*
X151663Y464115D01*
X150115Y465663D01*
X148094Y466500D01*
D02*
G37*
G36*
X283094Y465750D02*
X280906D01*
X278885Y464913D01*
X277337Y463366D01*
X276500Y461344D01*
Y459156D01*
X277337Y457135D01*
X278885Y455587D01*
X280906Y454750D01*
X283094D01*
X285116Y455587D01*
X286663Y457135D01*
X287500Y459156D01*
Y461344D01*
X286663Y463366D01*
X285116Y464913D01*
X283094Y465750D01*
D02*
G37*
G36*
X786500Y473000D02*
X739250Y473000D01*
Y449644D01*
X738419Y449304D01*
X737980Y449258D01*
X736527Y450710D01*
X734506Y451548D01*
X732318D01*
X730297Y450710D01*
X728749Y449163D01*
X727912Y447142D01*
Y444954D01*
X728749Y442932D01*
X730297Y441385D01*
X732318Y440548D01*
X734506D01*
X736527Y441385D01*
X737980Y442838D01*
X738419Y442791D01*
X739250Y442451D01*
X739250Y371750D01*
X839000Y272000D01*
X849437D01*
X850053Y270730D01*
X849375Y269094D01*
Y266906D01*
X850212Y264884D01*
X851759Y263337D01*
X853781Y262500D01*
X855969D01*
X857990Y263337D01*
X859538Y264884D01*
X860196Y266474D01*
X861548Y266918D01*
X883966Y244500D01*
X895250D01*
Y242406D01*
X896087Y240385D01*
X897635Y238837D01*
X899656Y238000D01*
X901844D01*
X903866Y238837D01*
X905413Y240385D01*
X906250Y242406D01*
Y244500D01*
X917500D01*
X917500Y278750D01*
X909250Y287000D01*
Y288344D01*
X908413Y290365D01*
X906866Y291912D01*
X904844Y292750D01*
X903500D01*
X895500Y300750D01*
X873500D01*
X786500Y387750D01*
Y415630D01*
X787653Y415909D01*
X787770Y415912D01*
X789296Y414385D01*
X791318Y413548D01*
X793506D01*
X795527Y414385D01*
X797075Y415932D01*
X797912Y417954D01*
Y420142D01*
X797075Y422163D01*
X795527Y423710D01*
X793506Y424548D01*
X791318D01*
X789296Y423710D01*
X787770Y422184D01*
X787653Y422187D01*
X786500Y422466D01*
Y430386D01*
X787770Y430912D01*
X788297Y430385D01*
X790318Y429548D01*
X792506D01*
X794528Y430385D01*
X796075Y431932D01*
X796912Y433954D01*
Y436142D01*
X796075Y438163D01*
X794528Y439710D01*
X792506Y440548D01*
X790318D01*
X788297Y439710D01*
X787770Y439184D01*
X786500Y439710D01*
Y473000D01*
D02*
G37*
G36*
X1021094Y540500D02*
X1018906D01*
X1016885Y539663D01*
X1015337Y538116D01*
X1014500Y536094D01*
Y533906D01*
X1015337Y531884D01*
X1015922Y531300D01*
Y530689D01*
X916811Y431578D01*
X908000D01*
X908000Y431578D01*
X906439Y431268D01*
X905116Y430384D01*
X905116Y430384D01*
X856061Y381328D01*
X847750D01*
X846189Y381018D01*
X844866Y380134D01*
X844866Y380134D01*
X836616Y371884D01*
X835732Y370561D01*
X835422Y369000D01*
X835422Y369000D01*
Y361700D01*
X834837Y361115D01*
X834000Y359094D01*
Y356906D01*
X834837Y354884D01*
X836385Y353337D01*
X838406Y352500D01*
X840594D01*
X842616Y353337D01*
X844163Y354884D01*
X845000Y356906D01*
Y359094D01*
X844163Y361115D01*
X843578Y361700D01*
Y367311D01*
X849439Y373172D01*
X857750D01*
X857750Y373172D01*
X859311Y373482D01*
X860634Y374366D01*
X909689Y423422D01*
X918500D01*
X918500Y423422D01*
X920061Y423732D01*
X921384Y424616D01*
X954704Y457937D01*
X955878Y457450D01*
Y450750D01*
X956363Y448311D01*
X957744Y446244D01*
X959811Y444863D01*
X962250Y444378D01*
X973750D01*
X976189Y444863D01*
X978256Y446244D01*
X979637Y448311D01*
X980122Y450750D01*
Y459250D01*
X979637Y461689D01*
X978256Y463756D01*
X976189Y465137D01*
X973750Y465622D01*
X964050D01*
X963564Y466796D01*
X1022884Y526116D01*
X1023768Y527439D01*
X1024078Y529000D01*
X1024078Y529000D01*
Y531300D01*
X1024663Y531884D01*
X1025500Y533906D01*
Y536094D01*
X1024663Y538116D01*
X1023115Y539663D01*
X1021094Y540500D01*
D02*
G37*
G36*
X1069319Y460150D02*
X1067081D01*
X1064919Y459571D01*
X1062981Y458452D01*
X1061398Y456869D01*
X1060279Y454931D01*
X1059700Y452769D01*
Y450531D01*
X1060279Y448369D01*
X1061398Y446431D01*
X1062981Y444848D01*
X1064919Y443729D01*
X1067081Y443150D01*
X1069319D01*
X1071481Y443729D01*
X1073419Y444848D01*
X1075002Y446431D01*
X1076121Y448369D01*
X1076700Y450531D01*
Y452769D01*
X1076121Y454931D01*
X1075002Y456869D01*
X1073419Y458452D01*
X1071481Y459571D01*
X1069319Y460150D01*
D02*
G37*
G36*
X1049319D02*
X1047081D01*
X1044919Y459571D01*
X1042981Y458452D01*
X1041398Y456869D01*
X1040279Y454931D01*
X1039700Y452769D01*
Y450531D01*
X1040279Y448369D01*
X1041398Y446431D01*
X1042981Y444848D01*
X1044919Y443729D01*
X1047081Y443150D01*
X1049319D01*
X1051481Y443729D01*
X1053419Y444848D01*
X1055002Y446431D01*
X1056121Y448369D01*
X1056700Y450531D01*
Y452769D01*
X1056121Y454931D01*
X1055002Y456869D01*
X1053419Y458452D01*
X1051481Y459571D01*
X1049319Y460150D01*
D02*
G37*
G36*
X217344Y453500D02*
X215156D01*
X213134Y452663D01*
X211587Y451115D01*
X210750Y449094D01*
Y446906D01*
X211587Y444884D01*
X213134Y443337D01*
X215156Y442500D01*
X217344D01*
X219366Y443337D01*
X220913Y444884D01*
X221750Y446906D01*
Y449094D01*
X220913Y451115D01*
X219366Y452663D01*
X217344Y453500D01*
D02*
G37*
G36*
X267094Y450250D02*
X264906D01*
X262885Y449413D01*
X261337Y447865D01*
X260500Y445844D01*
Y443656D01*
X261337Y441634D01*
X262885Y440087D01*
X264906Y439250D01*
X267094D01*
X269116Y440087D01*
X270663Y441634D01*
X271500Y443656D01*
Y445844D01*
X270663Y447865D01*
X269116Y449413D01*
X267094Y450250D01*
D02*
G37*
G36*
X1049319Y440150D02*
X1047081D01*
X1044919Y439571D01*
X1042981Y438452D01*
X1041398Y436869D01*
X1040279Y434931D01*
X1039700Y432769D01*
Y430531D01*
X1040279Y428369D01*
X1041398Y426431D01*
X1042981Y424848D01*
X1044919Y423729D01*
X1047081Y423150D01*
X1049319D01*
X1051481Y423729D01*
X1053419Y424848D01*
X1055002Y426431D01*
X1056121Y428369D01*
X1056700Y430531D01*
Y432769D01*
X1056121Y434931D01*
X1055002Y436869D01*
X1053419Y438452D01*
X1051481Y439571D01*
X1049319Y440150D01*
D02*
G37*
G36*
X1071450Y440253D02*
X1064950D01*
X1062902Y439845D01*
X1061165Y438685D01*
X1060005Y436949D01*
X1059597Y434900D01*
Y428400D01*
X1060005Y426352D01*
X1061165Y424615D01*
X1062902Y423455D01*
X1064950Y423047D01*
X1071450D01*
X1073498Y423455D01*
X1075235Y424615D01*
X1076395Y426352D01*
X1076803Y428400D01*
Y434900D01*
X1076395Y436949D01*
X1075235Y438685D01*
X1073498Y439845D01*
X1071450Y440253D01*
D02*
G37*
G36*
X141000Y420895D02*
X111000D01*
X110220Y420740D01*
X109558Y420298D01*
X109116Y419636D01*
X108961Y418856D01*
Y413787D01*
X107758Y413379D01*
X107461Y413766D01*
X105451Y415308D01*
X103111Y416277D01*
X100600Y416608D01*
X98089Y416277D01*
X95749Y415308D01*
X93739Y413766D01*
X92197Y411757D01*
X91228Y409416D01*
X90897Y406905D01*
Y403095D01*
X91228Y400584D01*
X92197Y398243D01*
X93739Y396234D01*
X95749Y394692D01*
X98089Y393723D01*
X100600Y393392D01*
X103111Y393723D01*
X105451Y394692D01*
X107461Y396234D01*
X107758Y396621D01*
X108961Y396213D01*
Y235987D01*
X107758Y235579D01*
X107461Y235966D01*
X105451Y237508D01*
X103111Y238477D01*
X100600Y238808D01*
X98089Y238477D01*
X95749Y237508D01*
X93739Y235966D01*
X92197Y233957D01*
X91228Y231616D01*
X90897Y229105D01*
Y225295D01*
X91228Y222784D01*
X92197Y220443D01*
X93739Y218434D01*
X95749Y216892D01*
X98089Y215923D01*
X100600Y215592D01*
X103111Y215923D01*
X105451Y216892D01*
X107461Y218434D01*
X107758Y218821D01*
X108961Y218413D01*
Y200105D01*
X109000Y199909D01*
Y199708D01*
X109077Y199522D01*
X109116Y199325D01*
X109228Y199158D01*
X109305Y198972D01*
X109446Y198831D01*
X109558Y198664D01*
X108843Y197621D01*
X108337Y197115D01*
X107500Y195094D01*
Y192906D01*
X108337Y190884D01*
X108843Y190379D01*
X109558Y189336D01*
X109446Y189170D01*
X109305Y189028D01*
X109228Y188842D01*
X109116Y188675D01*
X109077Y188478D01*
X109000Y188292D01*
Y188092D01*
X108961Y187895D01*
Y184750D01*
X109116Y183970D01*
X109558Y183308D01*
X109558Y183308D01*
X119522Y173344D01*
X120183Y172902D01*
X120710Y172684D01*
X121684Y171710D01*
X122211Y170438D01*
Y169062D01*
X121684Y167790D01*
X120886Y166992D01*
X120444Y166330D01*
X120288Y165550D01*
Y159048D01*
X116928Y155663D01*
X116615Y155663D01*
X114594Y156500D01*
X112406D01*
X110385Y155663D01*
X108837Y154115D01*
X108000Y152094D01*
Y149906D01*
X108837Y147885D01*
X109022Y147700D01*
X89803Y128343D01*
X89585Y128014D01*
X89366Y127687D01*
X89365Y127683D01*
X89363Y127680D01*
X89287Y127290D01*
X89211Y126906D01*
Y95000D01*
X89366Y94220D01*
X89808Y93558D01*
X90470Y93116D01*
X91250Y92961D01*
X229500D01*
X230280Y93116D01*
X230942Y93558D01*
X231384Y94220D01*
X231539Y95000D01*
X231539Y132250D01*
X231539Y132250D01*
X231384Y133030D01*
X230942Y133692D01*
X230942Y133692D01*
X150160Y214474D01*
X150753Y215677D01*
X151400Y215592D01*
X153911Y215923D01*
X156251Y216892D01*
X158261Y218434D01*
X159803Y220443D01*
X160772Y222784D01*
X161103Y225295D01*
Y229105D01*
X160772Y231616D01*
X159803Y233957D01*
X158261Y235966D01*
X156251Y237508D01*
X153911Y238477D01*
X151400Y238808D01*
X148889Y238477D01*
X146549Y237508D01*
X144539Y235966D01*
X144242Y235579D01*
X143039Y235987D01*
Y396213D01*
X144242Y396621D01*
X144539Y396234D01*
X146549Y394692D01*
X148889Y393723D01*
X151400Y393392D01*
X153911Y393723D01*
X156251Y394692D01*
X158261Y396234D01*
X159803Y398243D01*
X160772Y400584D01*
X161103Y403095D01*
Y406905D01*
X160772Y409416D01*
X159803Y411757D01*
X158261Y413766D01*
X156251Y415308D01*
X153911Y416277D01*
X151400Y416608D01*
X148889Y416277D01*
X146549Y415308D01*
X144539Y413766D01*
X144242Y413379D01*
X143039Y413787D01*
Y418856D01*
X142884Y419636D01*
X142442Y420298D01*
X141780Y420740D01*
X141000Y420895D01*
D02*
G37*
G36*
X1060094Y416500D02*
X1057906D01*
X1055884Y415663D01*
X1054337Y414115D01*
X1053500Y412094D01*
Y409906D01*
X1054337Y407884D01*
X1055884Y406337D01*
X1057906Y405500D01*
X1060094D01*
X1062115Y406337D01*
X1063663Y407884D01*
X1064500Y409906D01*
Y412094D01*
X1063663Y414115D01*
X1062115Y415663D01*
X1060094Y416500D01*
D02*
G37*
G36*
X303800Y416608D02*
X301289Y416277D01*
X298948Y415308D01*
X296939Y413766D01*
X295397Y411757D01*
X294428Y409416D01*
X294097Y406905D01*
Y403095D01*
X294428Y400584D01*
X295397Y398243D01*
X296939Y396234D01*
X298948Y394692D01*
X301289Y393723D01*
X303800Y393392D01*
X306311Y393723D01*
X308652Y394692D01*
X310661Y396234D01*
X312203Y398243D01*
X313172Y400584D01*
X313503Y403095D01*
Y406905D01*
X313172Y409416D01*
X312203Y411757D01*
X310661Y413766D01*
X308652Y415308D01*
X306311Y416277D01*
X303800Y416608D01*
D02*
G37*
G36*
X278400D02*
X275889Y416277D01*
X273549Y415308D01*
X271539Y413766D01*
X269997Y411757D01*
X269028Y409416D01*
X268697Y406905D01*
Y403095D01*
X269028Y400584D01*
X269997Y398243D01*
X271539Y396234D01*
X273549Y394692D01*
X275889Y393723D01*
X278400Y393392D01*
X280911Y393723D01*
X283251Y394692D01*
X285261Y396234D01*
X286803Y398243D01*
X287772Y400584D01*
X288103Y403095D01*
Y406905D01*
X287772Y409416D01*
X286803Y411757D01*
X285261Y413766D01*
X283251Y415308D01*
X280911Y416277D01*
X278400Y416608D01*
D02*
G37*
G36*
X253000D02*
X250489Y416277D01*
X248148Y415308D01*
X246139Y413766D01*
X244597Y411757D01*
X243628Y409416D01*
X243297Y406905D01*
Y403095D01*
X243628Y400584D01*
X244597Y398243D01*
X246139Y396234D01*
X248148Y394692D01*
X250489Y393723D01*
X253000Y393392D01*
X255511Y393723D01*
X257852Y394692D01*
X259861Y396234D01*
X261403Y398243D01*
X262372Y400584D01*
X262703Y403095D01*
Y406905D01*
X262372Y409416D01*
X261403Y411757D01*
X259861Y413766D01*
X257852Y415308D01*
X255511Y416277D01*
X253000Y416608D01*
D02*
G37*
G36*
X227600D02*
X225089Y416277D01*
X222749Y415308D01*
X220739Y413766D01*
X219197Y411757D01*
X218228Y409416D01*
X217897Y406905D01*
Y403095D01*
X218228Y400584D01*
X219197Y398243D01*
X220739Y396234D01*
X222749Y394692D01*
X225089Y393723D01*
X227600Y393392D01*
X230111Y393723D01*
X232451Y394692D01*
X234461Y396234D01*
X236003Y398243D01*
X236972Y400584D01*
X237303Y403095D01*
Y406905D01*
X236972Y409416D01*
X236003Y411757D01*
X234461Y413766D01*
X232451Y415308D01*
X230111Y416277D01*
X227600Y416608D01*
D02*
G37*
G36*
X202200D02*
X199689Y416277D01*
X197348Y415308D01*
X195339Y413766D01*
X193797Y411757D01*
X192828Y409416D01*
X192497Y406905D01*
Y403095D01*
X192828Y400584D01*
X193797Y398243D01*
X195339Y396234D01*
X197348Y394692D01*
X199689Y393723D01*
X202200Y393392D01*
X204711Y393723D01*
X207052Y394692D01*
X209061Y396234D01*
X210603Y398243D01*
X211572Y400584D01*
X211903Y403095D01*
Y406905D01*
X211572Y409416D01*
X210603Y411757D01*
X209061Y413766D01*
X207052Y415308D01*
X204711Y416277D01*
X202200Y416608D01*
D02*
G37*
G36*
X176800D02*
X174289Y416277D01*
X171949Y415308D01*
X169939Y413766D01*
X168397Y411757D01*
X167428Y409416D01*
X167097Y406905D01*
Y403095D01*
X167428Y400584D01*
X168397Y398243D01*
X169939Y396234D01*
X171949Y394692D01*
X174289Y393723D01*
X176800Y393392D01*
X179311Y393723D01*
X181651Y394692D01*
X183661Y396234D01*
X185203Y398243D01*
X186172Y400584D01*
X186503Y403095D01*
Y406905D01*
X186172Y409416D01*
X185203Y411757D01*
X183661Y413766D01*
X181651Y415308D01*
X179311Y416277D01*
X176800Y416608D01*
D02*
G37*
G36*
X1051544Y394950D02*
X1049356D01*
X1047334Y394112D01*
X1045787Y392565D01*
X1044950Y390544D01*
Y388356D01*
X1045787Y386334D01*
X1047334Y384787D01*
X1049356Y383950D01*
X1051544D01*
X1053565Y384787D01*
X1055112Y386334D01*
X1055950Y388356D01*
Y390544D01*
X1055112Y392565D01*
X1053565Y394112D01*
X1051544Y394950D01*
D02*
G37*
G36*
X312094Y385500D02*
X309906D01*
X307885Y384663D01*
X306337Y383116D01*
X305500Y381094D01*
Y378906D01*
X306337Y376884D01*
X307885Y375337D01*
X309906Y374500D01*
X312094D01*
X314116Y375337D01*
X315663Y376884D01*
X316500Y378906D01*
Y381094D01*
X315663Y383116D01*
X314116Y384663D01*
X312094Y385500D01*
D02*
G37*
G36*
X1087094Y381500D02*
X1084906D01*
X1082885Y380663D01*
X1081337Y379115D01*
X1080500Y377094D01*
Y374906D01*
X1081337Y372884D01*
X1082885Y371337D01*
X1084906Y370500D01*
X1087094D01*
X1089116Y371337D01*
X1090663Y372884D01*
X1091500Y374906D01*
Y377094D01*
X1090663Y379115D01*
X1089116Y380663D01*
X1087094Y381500D01*
D02*
G37*
G36*
X293094D02*
X290906D01*
X288885Y380663D01*
X287337Y379115D01*
X286500Y377094D01*
Y374906D01*
X287337Y372884D01*
X288885Y371337D01*
X290906Y370500D01*
X293094D01*
X295116Y371337D01*
X296663Y372884D01*
X297500Y374906D01*
Y377094D01*
X296663Y379115D01*
X295116Y380663D01*
X293094Y381500D01*
D02*
G37*
G36*
X902402Y377707D02*
X900214D01*
X898192Y376870D01*
X896645Y375322D01*
X895808Y373301D01*
Y371113D01*
X896645Y369092D01*
X898192Y367544D01*
X900214Y366707D01*
X902402D01*
X904423Y367544D01*
X905970Y369092D01*
X906808Y371113D01*
Y373301D01*
X905970Y375322D01*
X904423Y376870D01*
X902402Y377707D01*
D02*
G37*
G36*
X273094Y374000D02*
X270906D01*
X268885Y373163D01*
X267337Y371615D01*
X266500Y369594D01*
Y368314D01*
X264588D01*
X262567Y367476D01*
X261019Y365929D01*
X260182Y363908D01*
Y361720D01*
X261019Y359698D01*
X262567Y358151D01*
X264588Y357314D01*
X266776D01*
X268797Y358151D01*
X270345Y359698D01*
X271182Y361720D01*
Y363000D01*
X273094D01*
X275116Y363837D01*
X276663Y365384D01*
X277500Y367406D01*
Y369594D01*
X276663Y371615D01*
X275116Y373163D01*
X273094Y374000D01*
D02*
G37*
G36*
X23094Y362500D02*
X20906D01*
X18885Y361663D01*
X17337Y360116D01*
X16500Y358094D01*
Y355906D01*
X17337Y353885D01*
X18885Y352337D01*
X20906Y351500D01*
X23094D01*
X25115Y352337D01*
X26663Y353885D01*
X27500Y355906D01*
Y358094D01*
X26663Y360116D01*
X25115Y361663D01*
X23094Y362500D01*
D02*
G37*
G36*
X252094Y345500D02*
X249906D01*
X247885Y344663D01*
X246337Y343116D01*
X245500Y341094D01*
Y338906D01*
X246337Y336884D01*
X247885Y335337D01*
X249906Y334500D01*
X252094D01*
X254116Y335337D01*
X255663Y336884D01*
X256500Y338906D01*
Y341094D01*
X255663Y343116D01*
X254116Y344663D01*
X252094Y345500D01*
D02*
G37*
G36*
X855844Y340000D02*
X853656D01*
X851635Y339163D01*
X850087Y337616D01*
X849250Y335594D01*
Y333406D01*
X850087Y331385D01*
X851635Y329837D01*
X853656Y329000D01*
X855844D01*
X857866Y329837D01*
X859413Y331385D01*
X860250Y333406D01*
Y335594D01*
X859413Y337616D01*
X857866Y339163D01*
X855844Y340000D01*
D02*
G37*
G36*
X998817Y347800D02*
X996183D01*
X993640Y347118D01*
X991360Y345802D01*
X989498Y343940D01*
X988182Y341660D01*
X987500Y339117D01*
Y336483D01*
X988182Y333940D01*
X989498Y331660D01*
X991360Y329798D01*
X993640Y328481D01*
X996183Y327800D01*
X998817D01*
X1001360Y328481D01*
X1003640Y329798D01*
X1005502Y331660D01*
X1006818Y333940D01*
X1007500Y336483D01*
Y339117D01*
X1006818Y341660D01*
X1005502Y343940D01*
X1003640Y345802D01*
X1001360Y347118D01*
X998817Y347800D01*
D02*
G37*
G36*
X941344Y338500D02*
X939156D01*
X937134Y337663D01*
X935587Y336115D01*
X934750Y334094D01*
Y331906D01*
X935587Y329884D01*
X937134Y328337D01*
X939156Y327500D01*
X941344D01*
X943365Y328337D01*
X944913Y329884D01*
X945750Y331906D01*
Y334094D01*
X944913Y336115D01*
X943365Y337663D01*
X941344Y338500D01*
D02*
G37*
G36*
X295344Y336000D02*
X293156D01*
X291134Y335163D01*
X289587Y333615D01*
X288750Y331594D01*
Y329406D01*
X289587Y327384D01*
X291134Y325837D01*
X293156Y325000D01*
X295344D01*
X297365Y325837D01*
X298913Y327384D01*
X299750Y329406D01*
Y331594D01*
X298913Y333615D01*
X297365Y335163D01*
X295344Y336000D01*
D02*
G37*
G36*
X869506Y334548D02*
X867318D01*
X865296Y333710D01*
X863749Y332163D01*
X862912Y330142D01*
Y327954D01*
X863749Y325932D01*
X865296Y324385D01*
X867318Y323548D01*
X869506D01*
X871527Y324385D01*
X873075Y325932D01*
X873912Y327954D01*
Y330142D01*
X873075Y332163D01*
X871527Y333710D01*
X869506Y334548D01*
D02*
G37*
G36*
X900344Y326500D02*
X898156D01*
X896134Y325663D01*
X894587Y324115D01*
X893750Y322094D01*
Y319906D01*
X894587Y317885D01*
X896134Y316337D01*
X898156Y315500D01*
X900344D01*
X902365Y316337D01*
X903913Y317885D01*
X904750Y319906D01*
Y322094D01*
X903913Y324115D01*
X902365Y325663D01*
X900344Y326500D01*
D02*
G37*
G36*
X261094Y324250D02*
X258906D01*
X256884Y323413D01*
X255337Y321866D01*
X254500Y319844D01*
Y317656D01*
X255337Y315634D01*
X256884Y314087D01*
X258906Y313250D01*
X261094D01*
X263116Y314087D01*
X264663Y315634D01*
X265500Y317656D01*
Y319844D01*
X264663Y321866D01*
X263116Y323413D01*
X261094Y324250D01*
D02*
G37*
G36*
X41094Y322500D02*
X38906D01*
X36885Y321663D01*
X35337Y320116D01*
X34500Y318094D01*
Y315906D01*
X35337Y313885D01*
X36885Y312337D01*
X38906Y311500D01*
X41094D01*
X43116Y312337D01*
X44663Y313885D01*
X45500Y315906D01*
Y318094D01*
X44663Y320116D01*
X43116Y321663D01*
X41094Y322500D01*
D02*
G37*
G36*
X221094Y313500D02*
X218906D01*
X216884Y312663D01*
X215337Y311115D01*
X214500Y309094D01*
Y306906D01*
X215337Y304884D01*
X216884Y303337D01*
X218906Y302500D01*
X221094D01*
X223116Y303337D01*
X224663Y304884D01*
X225500Y306906D01*
Y309094D01*
X224663Y311115D01*
X223116Y312663D01*
X221094Y313500D01*
D02*
G37*
G36*
X1024217Y322400D02*
X1021583D01*
X1019040Y321718D01*
X1016760Y320402D01*
X1014898Y318540D01*
X1013581Y316260D01*
X1012900Y313717D01*
Y311084D01*
X1013581Y308540D01*
X1014898Y306260D01*
X1016760Y304398D01*
X1019040Y303081D01*
X1021583Y302400D01*
X1024217D01*
X1026760Y303081D01*
X1029040Y304398D01*
X1030902Y306260D01*
X1032218Y308540D01*
X1032900Y311084D01*
Y313717D01*
X1032218Y316260D01*
X1030902Y318540D01*
X1029040Y320402D01*
X1026760Y321718D01*
X1024217Y322400D01*
D02*
G37*
G36*
X998817D02*
X996183D01*
X993640Y321718D01*
X991360Y320402D01*
X989498Y318540D01*
X988182Y316260D01*
X987500Y313717D01*
Y311084D01*
X988182Y308540D01*
X989498Y306260D01*
X991360Y304398D01*
X993640Y303081D01*
X996183Y302400D01*
X998817D01*
X1001360Y303081D01*
X1003640Y304398D01*
X1005502Y306260D01*
X1006818Y308540D01*
X1007500Y311084D01*
Y313717D01*
X1006818Y316260D01*
X1005502Y318540D01*
X1003640Y320402D01*
X1001360Y321718D01*
X998817Y322400D01*
D02*
G37*
G36*
X902594Y313000D02*
X900406D01*
X898384Y312163D01*
X896837Y310616D01*
X896000Y308594D01*
Y306406D01*
X896837Y304384D01*
X898384Y302837D01*
X900406Y302000D01*
X902594D01*
X904615Y302837D01*
X906163Y304384D01*
X907000Y306406D01*
Y308594D01*
X906163Y310616D01*
X904615Y312163D01*
X902594Y313000D01*
D02*
G37*
G36*
X279362Y310500D02*
X277174D01*
X275152Y309663D01*
X273605Y308116D01*
X272768Y306094D01*
Y303906D01*
X273605Y301884D01*
X275152Y300337D01*
X277174Y299500D01*
X279362D01*
X281383Y300337D01*
X282930Y301884D01*
X283768Y303906D01*
Y306094D01*
X282930Y308116D01*
X281383Y309663D01*
X279362Y310500D01*
D02*
G37*
G36*
X786506Y300548D02*
X784318D01*
X782297Y299710D01*
X780749Y298163D01*
X779912Y296142D01*
Y293954D01*
X780749Y291932D01*
X782297Y290385D01*
X784318Y289548D01*
X786506D01*
X788528Y290385D01*
X790075Y291932D01*
X790912Y293954D01*
Y296142D01*
X790075Y298163D01*
X788528Y299710D01*
X786506Y300548D01*
D02*
G37*
G36*
X228844Y298000D02*
X226656D01*
X224634Y297163D01*
X223087Y295616D01*
X222250Y293594D01*
Y291406D01*
X223087Y289384D01*
X224634Y287837D01*
X226656Y287000D01*
X228844D01*
X230865Y287837D01*
X232413Y289384D01*
X233250Y291406D01*
Y293594D01*
X232413Y295616D01*
X230865Y297163D01*
X228844Y298000D01*
D02*
G37*
G36*
X199094Y293500D02*
X196906D01*
X194884Y292663D01*
X193337Y291115D01*
X192500Y289094D01*
Y286906D01*
X193337Y284884D01*
X194884Y283337D01*
X196906Y282500D01*
X199094D01*
X201115Y283337D01*
X202663Y284884D01*
X203500Y286906D01*
Y289094D01*
X202663Y291115D01*
X201115Y292663D01*
X199094Y293500D01*
D02*
G37*
G36*
X1024217Y297000D02*
X1021583D01*
X1019040Y296318D01*
X1016760Y295002D01*
X1014898Y293140D01*
X1013581Y290860D01*
X1012900Y288317D01*
Y285683D01*
X1013581Y283140D01*
X1014898Y280860D01*
X1016760Y278998D01*
X1019040Y277682D01*
X1021583Y277000D01*
X1024217D01*
X1026760Y277682D01*
X1029040Y278998D01*
X1030902Y280860D01*
X1032218Y283140D01*
X1032900Y285683D01*
Y288317D01*
X1032218Y290860D01*
X1030902Y293140D01*
X1029040Y295002D01*
X1026760Y296318D01*
X1024217Y297000D01*
D02*
G37*
G36*
X998817D02*
X996183D01*
X993640Y296318D01*
X991360Y295002D01*
X989498Y293140D01*
X988182Y290860D01*
X987500Y288317D01*
Y285683D01*
X988182Y283140D01*
X989498Y280860D01*
X991360Y278998D01*
X993640Y277682D01*
X996183Y277000D01*
X998817D01*
X1001360Y277682D01*
X1003640Y278998D01*
X1005502Y280860D01*
X1006818Y283140D01*
X1007500Y285683D01*
Y288317D01*
X1006818Y290860D01*
X1005502Y293140D01*
X1003640Y295002D01*
X1001360Y296318D01*
X998817Y297000D01*
D02*
G37*
G36*
X261094Y287500D02*
X258906D01*
X256884Y286663D01*
X255337Y285116D01*
X254500Y283094D01*
Y280906D01*
X255337Y278885D01*
X256884Y277337D01*
X258906Y276500D01*
X261094D01*
X263116Y277337D01*
X264663Y278885D01*
X265500Y280906D01*
Y283094D01*
X264663Y285116D01*
X263116Y286663D01*
X261094Y287500D01*
D02*
G37*
G36*
X18094Y283500D02*
X15906D01*
X13885Y282663D01*
X12337Y281115D01*
X11500Y279094D01*
Y276906D01*
X12337Y274884D01*
X13885Y273337D01*
X15906Y272500D01*
X18094D01*
X20115Y273337D01*
X21663Y274884D01*
X22500Y276906D01*
Y279094D01*
X21663Y281115D01*
X20115Y282663D01*
X18094Y283500D01*
D02*
G37*
G36*
X1054094Y275500D02*
X1051906D01*
X1049884Y274663D01*
X1048337Y273116D01*
X1047500Y271094D01*
Y268906D01*
X1048337Y266884D01*
X1049884Y265337D01*
X1051906Y264500D01*
X1054094D01*
X1056115Y265337D01*
X1057663Y266884D01*
X1058500Y268906D01*
Y271094D01*
X1057663Y273116D01*
X1056115Y274663D01*
X1054094Y275500D01*
D02*
G37*
G36*
X218312Y274203D02*
X216124D01*
X214102Y273366D01*
X212555Y271819D01*
X211718Y269797D01*
Y267609D01*
X212555Y265588D01*
X214102Y264041D01*
X216124Y263203D01*
X218312D01*
X220333Y264041D01*
X221880Y265588D01*
X222718Y267609D01*
Y269797D01*
X221880Y271819D01*
X220333Y273366D01*
X218312Y274203D01*
D02*
G37*
G36*
X941094Y273500D02*
X938906D01*
X936885Y272663D01*
X935337Y271115D01*
X934500Y269094D01*
Y266906D01*
X935337Y264884D01*
X936885Y263337D01*
X938906Y262500D01*
X941094D01*
X943115Y263337D01*
X944663Y264884D01*
X945500Y266906D01*
Y269094D01*
X944663Y271115D01*
X943115Y272663D01*
X941094Y273500D01*
D02*
G37*
G36*
X162094D02*
X159906D01*
X157885Y272663D01*
X156337Y271115D01*
X155500Y269094D01*
Y266906D01*
X156337Y264884D01*
X157885Y263337D01*
X159906Y262500D01*
X162094D01*
X164116Y263337D01*
X165663Y264884D01*
X166500Y266906D01*
Y269094D01*
X165663Y271115D01*
X164116Y272663D01*
X162094Y273500D01*
D02*
G37*
G36*
X927094Y269500D02*
X924906D01*
X922885Y268663D01*
X921337Y267115D01*
X920500Y265094D01*
Y262906D01*
X921337Y260884D01*
X922885Y259337D01*
X924906Y258500D01*
X927094D01*
X929116Y259337D01*
X930663Y260884D01*
X931500Y262906D01*
Y265094D01*
X930663Y267115D01*
X929116Y268663D01*
X927094Y269500D01*
D02*
G37*
G36*
X75094Y260500D02*
X72906D01*
X70884Y259663D01*
X69337Y258116D01*
X68500Y256094D01*
Y253906D01*
X69337Y251884D01*
X70884Y250337D01*
X72906Y249500D01*
X75094D01*
X77116Y250337D01*
X78663Y251884D01*
X79500Y253906D01*
Y256094D01*
X78663Y258116D01*
X77116Y259663D01*
X75094Y260500D01*
D02*
G37*
G36*
X848390Y243304D02*
X846202D01*
X844181Y242466D01*
X842634Y240919D01*
X841796Y238898D01*
Y236710D01*
X842634Y234688D01*
X844181Y233141D01*
X846202Y232304D01*
X848390D01*
X850412Y233141D01*
X851959Y234688D01*
X852796Y236710D01*
Y238898D01*
X851959Y240919D01*
X850412Y242466D01*
X848390Y243304D01*
D02*
G37*
G36*
X931094Y242500D02*
X928906D01*
X926885Y241663D01*
X925337Y240116D01*
X924500Y238094D01*
Y235906D01*
X925337Y233885D01*
X926885Y232337D01*
X928906Y231500D01*
X931094D01*
X933115Y232337D01*
X934663Y233885D01*
X935500Y235906D01*
Y238094D01*
X934663Y240116D01*
X933115Y241663D01*
X931094Y242500D01*
D02*
G37*
G36*
X868094Y238500D02*
X865906D01*
X863885Y237663D01*
X862337Y236115D01*
X861500Y234094D01*
Y231906D01*
X862337Y229884D01*
X863885Y228337D01*
X865906Y227500D01*
X868094D01*
X870116Y228337D01*
X871663Y229884D01*
X872500Y231906D01*
Y234094D01*
X871663Y236115D01*
X870116Y237663D01*
X868094Y238500D01*
D02*
G37*
G36*
X1040094Y231500D02*
X1037906D01*
X1035884Y230663D01*
X1034337Y229116D01*
X1033500Y227094D01*
Y224906D01*
X1034337Y222885D01*
X1035884Y221337D01*
X1037906Y220500D01*
X1040094D01*
X1042115Y221337D01*
X1043663Y222885D01*
X1044500Y224906D01*
Y227094D01*
X1043663Y229116D01*
X1042115Y230663D01*
X1040094Y231500D01*
D02*
G37*
G36*
X227600Y238808D02*
X225089Y238477D01*
X222749Y237508D01*
X220739Y235966D01*
X219197Y233957D01*
X218228Y231616D01*
X217897Y229105D01*
Y225295D01*
X218228Y222784D01*
X219197Y220443D01*
X220739Y218434D01*
X222749Y216892D01*
X225089Y215923D01*
X227600Y215592D01*
X230111Y215923D01*
X232451Y216892D01*
X234461Y218434D01*
X236003Y220443D01*
X236972Y222784D01*
X237303Y225295D01*
Y229105D01*
X236972Y231616D01*
X236003Y233957D01*
X234461Y235966D01*
X232451Y237508D01*
X230111Y238477D01*
X227600Y238808D01*
D02*
G37*
G36*
X202200D02*
X199689Y238477D01*
X197348Y237508D01*
X195339Y235966D01*
X193797Y233957D01*
X192828Y231616D01*
X192497Y229105D01*
Y225295D01*
X192828Y222784D01*
X193797Y220443D01*
X195339Y218434D01*
X197348Y216892D01*
X199689Y215923D01*
X202200Y215592D01*
X204711Y215923D01*
X207052Y216892D01*
X209061Y218434D01*
X210603Y220443D01*
X211572Y222784D01*
X211903Y225295D01*
Y229105D01*
X211572Y231616D01*
X210603Y233957D01*
X209061Y235966D01*
X207052Y237508D01*
X204711Y238477D01*
X202200Y238808D01*
D02*
G37*
G36*
X176800D02*
X174289Y238477D01*
X171949Y237508D01*
X169939Y235966D01*
X168397Y233957D01*
X167428Y231616D01*
X167097Y229105D01*
Y225295D01*
X167428Y222784D01*
X168397Y220443D01*
X169939Y218434D01*
X171949Y216892D01*
X174289Y215923D01*
X176800Y215592D01*
X179311Y215923D01*
X181651Y216892D01*
X183661Y218434D01*
X185203Y220443D01*
X186172Y222784D01*
X186503Y225295D01*
Y229105D01*
X186172Y231616D01*
X185203Y233957D01*
X183661Y235966D01*
X181651Y237508D01*
X179311Y238477D01*
X176800Y238808D01*
D02*
G37*
G36*
X75200D02*
X72689Y238477D01*
X70349Y237508D01*
X68339Y235966D01*
X66797Y233957D01*
X65828Y231616D01*
X65497Y229105D01*
Y225295D01*
X65828Y222784D01*
X66797Y220443D01*
X68339Y218434D01*
X70349Y216892D01*
X72689Y215923D01*
X75200Y215592D01*
X77711Y215923D01*
X80051Y216892D01*
X82061Y218434D01*
X83603Y220443D01*
X84572Y222784D01*
X84903Y225295D01*
Y229105D01*
X84572Y231616D01*
X83603Y233957D01*
X82061Y235966D01*
X80051Y237508D01*
X77711Y238477D01*
X75200Y238808D01*
D02*
G37*
G36*
X49800D02*
X47289Y238477D01*
X44949Y237508D01*
X42939Y235966D01*
X41397Y233957D01*
X40428Y231616D01*
X40097Y229105D01*
Y225295D01*
X40428Y222784D01*
X41397Y220443D01*
X42939Y218434D01*
X44949Y216892D01*
X47289Y215923D01*
X49800Y215592D01*
X52311Y215923D01*
X54651Y216892D01*
X56661Y218434D01*
X58203Y220443D01*
X59172Y222784D01*
X59503Y225295D01*
Y229105D01*
X59172Y231616D01*
X58203Y233957D01*
X56661Y235966D01*
X54651Y237508D01*
X52311Y238477D01*
X49800Y238808D01*
D02*
G37*
G36*
X24400D02*
X21889Y238477D01*
X19548Y237508D01*
X17539Y235966D01*
X15997Y233957D01*
X15028Y231616D01*
X14697Y229105D01*
Y225295D01*
X15028Y222784D01*
X15997Y220443D01*
X17539Y218434D01*
X19548Y216892D01*
X21889Y215923D01*
X24400Y215592D01*
X26911Y215923D01*
X29251Y216892D01*
X31261Y218434D01*
X32803Y220443D01*
X33772Y222784D01*
X34103Y225295D01*
Y229105D01*
X33772Y231616D01*
X32803Y233957D01*
X31261Y235966D01*
X29251Y237508D01*
X26911Y238477D01*
X24400Y238808D01*
D02*
G37*
G36*
X998817Y220800D02*
X996183D01*
X993640Y220119D01*
X991360Y218802D01*
X989498Y216940D01*
X988182Y214660D01*
X987500Y212117D01*
Y209484D01*
X988182Y206940D01*
X989498Y204660D01*
X991360Y202798D01*
X993640Y201481D01*
X996183Y200800D01*
X998817D01*
X1001360Y201481D01*
X1003640Y202798D01*
X1005502Y204660D01*
X1006818Y206940D01*
X1007500Y209484D01*
Y212117D01*
X1006818Y214660D01*
X1005502Y216940D01*
X1003640Y218802D01*
X1001360Y220119D01*
X998817Y220800D01*
D02*
G37*
G36*
X195594Y193782D02*
X193406D01*
X191385Y192944D01*
X189837Y191397D01*
X189000Y189375D01*
Y187188D01*
X189837Y185166D01*
X191385Y183619D01*
X193406Y182782D01*
X195594D01*
X197616Y183619D01*
X199163Y185166D01*
X200000Y187188D01*
Y189375D01*
X199163Y191397D01*
X197616Y192944D01*
X195594Y193782D01*
D02*
G37*
G36*
X998817Y195400D02*
X996183D01*
X993640Y194718D01*
X991360Y193402D01*
X989498Y191540D01*
X988182Y189260D01*
X987500Y186717D01*
Y184083D01*
X988182Y181540D01*
X989498Y179260D01*
X991360Y177398D01*
X993640Y176082D01*
X996183Y175400D01*
X998817D01*
X1001360Y176082D01*
X1003640Y177398D01*
X1005502Y179260D01*
X1006818Y181540D01*
X1007500Y184083D01*
Y186717D01*
X1006818Y189260D01*
X1005502Y191540D01*
X1003640Y193402D01*
X1001360Y194718D01*
X998817Y195400D01*
D02*
G37*
G36*
X216344Y181250D02*
X214156D01*
X212134Y180413D01*
X210587Y178866D01*
X209750Y176844D01*
Y174656D01*
X210587Y172635D01*
X212134Y171087D01*
X214156Y170250D01*
X216344D01*
X218365Y171087D01*
X219913Y172635D01*
X220750Y174656D01*
Y176844D01*
X219913Y178866D01*
X218365Y180413D01*
X216344Y181250D01*
D02*
G37*
G36*
X369094Y180500D02*
X366906D01*
X364884Y179663D01*
X363337Y178116D01*
X362500Y176094D01*
Y173906D01*
X363337Y171884D01*
X364884Y170337D01*
X366906Y169500D01*
X369094D01*
X371115Y170337D01*
X372663Y171884D01*
X373500Y173906D01*
Y176094D01*
X372663Y178116D01*
X371115Y179663D01*
X369094Y180500D01*
D02*
G37*
G36*
X1026900Y170118D02*
X1024900D01*
Y162000D01*
X1033018D01*
Y164000D01*
X1032552Y166341D01*
X1031226Y168326D01*
X1029241Y169652D01*
X1026900Y170118D01*
D02*
G37*
G36*
X1020900D02*
X1018900D01*
X1016559Y169652D01*
X1014574Y168326D01*
X1013248Y166341D01*
X1012782Y164000D01*
Y162000D01*
X1020900D01*
Y170118D01*
D02*
G37*
G36*
X998817Y170000D02*
X996183D01*
X993640Y169319D01*
X991360Y168002D01*
X989498Y166140D01*
X988182Y163860D01*
X987500Y161317D01*
Y158684D01*
X988182Y156140D01*
X989498Y153860D01*
X991360Y151998D01*
X993640Y150681D01*
X996183Y150000D01*
X998817D01*
X1001360Y150681D01*
X1003640Y151998D01*
X1005502Y153860D01*
X1006818Y156140D01*
X1007500Y158684D01*
Y161317D01*
X1006818Y163860D01*
X1005502Y166140D01*
X1003640Y168002D01*
X1001360Y169319D01*
X998817Y170000D01*
D02*
G37*
G36*
X1033018Y158000D02*
X1024900D01*
Y149882D01*
X1026900D01*
X1029241Y150348D01*
X1031226Y151674D01*
X1032552Y153659D01*
X1033018Y156000D01*
Y158000D01*
D02*
G37*
G36*
X1020900D02*
X1012782D01*
Y156000D01*
X1013248Y153659D01*
X1014574Y151674D01*
X1016559Y150348D01*
X1018900Y149882D01*
X1020900D01*
Y158000D01*
D02*
G37*
G36*
X350844Y150500D02*
X348656D01*
X346634Y149663D01*
X345087Y148116D01*
X344250Y146094D01*
Y143906D01*
X345087Y141884D01*
X346634Y140337D01*
X348656Y139500D01*
X350844D01*
X352865Y140337D01*
X354413Y141884D01*
X355250Y143906D01*
Y146094D01*
X354413Y148116D01*
X352865Y149663D01*
X350844Y150500D01*
D02*
G37*
G36*
X393587Y134993D02*
X391399D01*
X389377Y134155D01*
X387830Y132608D01*
X386993Y130587D01*
Y128399D01*
X387830Y126377D01*
X389377Y124830D01*
X391399Y123993D01*
X393587D01*
X395608Y124830D01*
X397155Y126377D01*
X397993Y128399D01*
Y130587D01*
X397155Y132608D01*
X395608Y134155D01*
X393587Y134993D01*
D02*
G37*
G36*
X50094Y125500D02*
X47906D01*
X45884Y124663D01*
X44337Y123116D01*
X43500Y121094D01*
Y118906D01*
X44337Y116884D01*
X45884Y115337D01*
X47906Y114500D01*
X50094D01*
X52116Y115337D01*
X53663Y116884D01*
X54500Y118906D01*
Y121094D01*
X53663Y123116D01*
X52116Y124663D01*
X50094Y125500D01*
D02*
G37*
G36*
X333094Y117500D02*
X330906D01*
X328885Y116663D01*
X327337Y115115D01*
X326500Y113094D01*
Y110906D01*
X327337Y108884D01*
X328885Y107337D01*
X330906Y106500D01*
X333094D01*
X335116Y107337D01*
X336663Y108884D01*
X337500Y110906D01*
Y113094D01*
X336663Y115115D01*
X335116Y116663D01*
X333094Y117500D01*
D02*
G37*
G36*
X367094Y112000D02*
X364906D01*
X362884Y111163D01*
X361337Y109615D01*
X360500Y107594D01*
Y105406D01*
X361337Y103385D01*
X362884Y101837D01*
X364906Y101000D01*
X367094D01*
X369115Y101837D01*
X370663Y103385D01*
X371500Y105406D01*
Y107594D01*
X370663Y109615D01*
X369115Y111163D01*
X367094Y112000D01*
D02*
G37*
G36*
X395327Y89733D02*
X393139D01*
X391117Y88896D01*
X389570Y87348D01*
X388733Y85327D01*
Y83139D01*
X389570Y81117D01*
X391117Y79570D01*
X393139Y78733D01*
X395327D01*
X397348Y79570D01*
X398896Y81117D01*
X399733Y83139D01*
Y85327D01*
X398896Y87348D01*
X397348Y88896D01*
X395327Y89733D01*
D02*
G37*
G36*
X324094Y88500D02*
X321906D01*
X319884Y87663D01*
X318337Y86116D01*
X317500Y84094D01*
Y81906D01*
X318337Y79885D01*
X319884Y78337D01*
X321906Y77500D01*
X324094D01*
X326115Y78337D01*
X327663Y79885D01*
X328500Y81906D01*
Y84094D01*
X327663Y86116D01*
X326115Y87663D01*
X324094Y88500D01*
D02*
G37*
G36*
X1109094Y81500D02*
X1106906D01*
X1104884Y80663D01*
X1103337Y79116D01*
X1102500Y77094D01*
Y74906D01*
X1103337Y72884D01*
X1104884Y71337D01*
X1106906Y70500D01*
X1109094D01*
X1111115Y71337D01*
X1112663Y72884D01*
X1113500Y74906D01*
Y77094D01*
X1112663Y79116D01*
X1111115Y80663D01*
X1109094Y81500D01*
D02*
G37*
G36*
X170094Y65500D02*
X167906D01*
X165884Y64663D01*
X164337Y63115D01*
X163500Y61094D01*
Y58906D01*
X164337Y56884D01*
X165884Y55337D01*
X167906Y54500D01*
X170094D01*
X172115Y55337D01*
X173663Y56884D01*
X174500Y58906D01*
Y61094D01*
X173663Y63115D01*
X172115Y64663D01*
X170094Y65500D01*
D02*
G37*
G36*
X124094D02*
X121906D01*
X119885Y64663D01*
X118337Y63115D01*
X117500Y61094D01*
Y58906D01*
X118337Y56884D01*
X119885Y55337D01*
X121906Y54500D01*
X124094D01*
X126115Y55337D01*
X127663Y56884D01*
X128500Y58906D01*
Y61094D01*
X127663Y63115D01*
X126115Y64663D01*
X124094Y65500D01*
D02*
G37*
G36*
X299094Y64500D02*
X296906D01*
X294884Y63663D01*
X293337Y62115D01*
X292500Y60094D01*
Y57906D01*
X293337Y55884D01*
X294884Y54337D01*
X296906Y53500D01*
X299094D01*
X301115Y54337D01*
X302663Y55884D01*
X303500Y57906D01*
Y60094D01*
X302663Y62115D01*
X301115Y63663D01*
X299094Y64500D01*
D02*
G37*
G36*
X253094D02*
X250906D01*
X248885Y63663D01*
X247337Y62115D01*
X246500Y60094D01*
Y57906D01*
X247337Y55884D01*
X248885Y54337D01*
X250906Y53500D01*
X253094D01*
X255116Y54337D01*
X256663Y55884D01*
X257500Y57906D01*
Y60094D01*
X256663Y62115D01*
X255116Y63663D01*
X253094Y64500D01*
D02*
G37*
G36*
X465563Y64497D02*
X463375D01*
X461354Y63659D01*
X459807Y62112D01*
X458969Y60091D01*
Y57903D01*
X459807Y55881D01*
X461354Y54334D01*
X463375Y53497D01*
X465563D01*
X467585Y54334D01*
X469132Y55881D01*
X469969Y57903D01*
Y60091D01*
X469132Y62112D01*
X467585Y63659D01*
X465563Y64497D01*
D02*
G37*
G36*
X396094Y60500D02*
X393906D01*
X391884Y59663D01*
X390337Y58116D01*
X389500Y56094D01*
Y53906D01*
X390337Y51884D01*
X391884Y50337D01*
X393906Y49500D01*
X396094D01*
X398116Y50337D01*
X399663Y51884D01*
X400500Y53906D01*
Y56094D01*
X399663Y58116D01*
X398116Y59663D01*
X396094Y60500D01*
D02*
G37*
G36*
X516094Y59500D02*
X513906D01*
X511884Y58663D01*
X510337Y57116D01*
X509500Y55094D01*
Y52906D01*
X510337Y50884D01*
X511884Y49337D01*
X513906Y48500D01*
X516094D01*
X518116Y49337D01*
X519663Y50884D01*
X520500Y52906D01*
Y55094D01*
X519663Y57116D01*
X518116Y58663D01*
X516094Y59500D01*
D02*
G37*
G36*
X396094Y30500D02*
X393906D01*
X391884Y29663D01*
X390337Y28115D01*
X389500Y26094D01*
Y23906D01*
X390337Y21885D01*
X391884Y20337D01*
X393906Y19500D01*
X396094D01*
X398116Y20337D01*
X399663Y21885D01*
X400500Y23906D01*
Y26094D01*
X399663Y28115D01*
X398116Y29663D01*
X396094Y30500D01*
D02*
G37*
G36*
X516094Y30500D02*
X513906D01*
X511884Y29663D01*
X510337Y28115D01*
X509500Y26094D01*
Y23906D01*
X510337Y21885D01*
X511884Y20337D01*
X513906Y19500D01*
X516094D01*
X518116Y20337D01*
X519663Y21885D01*
X520500Y23906D01*
Y26094D01*
X519663Y28115D01*
X518116Y29663D01*
X516094Y30500D01*
D02*
G37*
G36*
X36970Y55000D02*
X33030D01*
X29166Y54231D01*
X25526Y52724D01*
X22251Y50535D01*
X19465Y47749D01*
X17276Y44474D01*
X15769Y40834D01*
X15000Y36970D01*
Y33030D01*
X15769Y29166D01*
X17276Y25526D01*
X19465Y22251D01*
X22251Y19465D01*
X25526Y17276D01*
X29166Y15769D01*
X33030Y15000D01*
X36970D01*
X40834Y15769D01*
X44474Y17276D01*
X47749Y19465D01*
X50535Y22251D01*
X52724Y25526D01*
X54231Y29166D01*
X55000Y33030D01*
Y36970D01*
X54231Y40834D01*
X52724Y44474D01*
X50535Y47749D01*
X47749Y50535D01*
X44474Y52724D01*
X40834Y54231D01*
X36970Y55000D01*
D02*
G37*
G36*
X815750Y34622D02*
X804250D01*
X801811Y34137D01*
X799744Y32756D01*
X798363Y30689D01*
X797878Y28250D01*
Y19750D01*
X798363Y17311D01*
X799744Y15244D01*
X801811Y13863D01*
X804250Y13378D01*
X815750D01*
X818189Y13863D01*
X820256Y15244D01*
X821637Y17311D01*
X822122Y19750D01*
Y28250D01*
X821637Y30689D01*
X820256Y32756D01*
X818189Y34137D01*
X815750Y34622D01*
D02*
G37*
G36*
X1056094Y17500D02*
X1053906D01*
X1051885Y16663D01*
X1050337Y15115D01*
X1049500Y13094D01*
Y10906D01*
X1050337Y8885D01*
X1051885Y7337D01*
X1053906Y6500D01*
X1056094D01*
X1058115Y7337D01*
X1059663Y8885D01*
X1060500Y10906D01*
Y13094D01*
X1059663Y15115D01*
X1058115Y16663D01*
X1056094Y17500D01*
D02*
G37*
G36*
X226094Y17500D02*
X223906D01*
X221884Y16663D01*
X220337Y15115D01*
X219500Y13094D01*
Y10906D01*
X220337Y8885D01*
X221884Y7337D01*
X223906Y6500D01*
X226094D01*
X228116Y7337D01*
X229663Y8885D01*
X230500Y10906D01*
Y13094D01*
X229663Y15115D01*
X228116Y16663D01*
X226094Y17500D01*
D02*
G37*
G36*
X97094D02*
X94906D01*
X92885Y16663D01*
X91337Y15115D01*
X90500Y13094D01*
Y10906D01*
X91337Y8885D01*
X92885Y7337D01*
X94906Y6500D01*
X97094D01*
X99115Y7337D01*
X100663Y8885D01*
X101500Y10906D01*
Y13094D01*
X100663Y15115D01*
X99115Y16663D01*
X97094Y17500D01*
D02*
G37*
G36*
X197627Y15442D02*
X195439D01*
X193417Y14605D01*
X191870Y13058D01*
X191033Y11036D01*
Y8848D01*
X191870Y6827D01*
X193417Y5280D01*
X195439Y4442D01*
X197627D01*
X199648Y5280D01*
X201195Y6827D01*
X202033Y8848D01*
Y11036D01*
X201195Y13058D01*
X199648Y14605D01*
X197627Y15442D01*
D02*
G37*
%LPD*%
G36*
X188000Y598000D02*
X97000Y598000D01*
X65322Y566322D01*
Y390000D01*
X35000Y390000D01*
Y572699D01*
X35500Y573906D01*
Y576094D01*
X35000Y577301D01*
Y596000D01*
X61000Y622000D01*
X188000D01*
Y598000D01*
D02*
G37*
%LPC*%
G36*
X177000Y617746D02*
Y612000D01*
X182746D01*
X182455Y613088D01*
X181402Y614912D01*
X179912Y616402D01*
X178088Y617455D01*
X177000Y617746D01*
D02*
G37*
G36*
X173000D02*
X171912Y617455D01*
X170088Y616402D01*
X168598Y614912D01*
X167545Y613088D01*
X167254Y612000D01*
X173000D01*
Y617746D01*
D02*
G37*
G36*
X182746Y608000D02*
X177000D01*
Y602254D01*
X178088Y602545D01*
X179912Y603598D01*
X181402Y605088D01*
X182455Y606912D01*
X182746Y608000D01*
D02*
G37*
G36*
X173000D02*
X167254D01*
X167545Y606912D01*
X168598Y605088D01*
X170088Y603598D01*
X171912Y602545D01*
X173000Y602254D01*
Y608000D01*
D02*
G37*
G36*
X51800Y416345D02*
Y407000D01*
X59490D01*
X59172Y409416D01*
X58203Y411757D01*
X56661Y413766D01*
X54651Y415308D01*
X52311Y416277D01*
X51800Y416345D01*
D02*
G37*
G36*
X47800Y416345D02*
X47289Y416277D01*
X44949Y415308D01*
X42939Y413766D01*
X41397Y411757D01*
X40428Y409416D01*
X40110Y407000D01*
X47800D01*
Y416345D01*
D02*
G37*
G36*
Y403000D02*
X40110D01*
X40428Y400584D01*
X41397Y398243D01*
X42939Y396234D01*
X44949Y394692D01*
X47289Y393723D01*
X47800Y393655D01*
Y403000D01*
D02*
G37*
G36*
X59490D02*
X51800D01*
Y393655D01*
X52311Y393723D01*
X54651Y394692D01*
X56661Y396234D01*
X58203Y398243D01*
X59172Y400584D01*
X59490Y403000D01*
D02*
G37*
%LPD*%
G36*
X568738Y687342D02*
X568993Y687072D01*
X569142Y686720D01*
X569168Y686332D01*
X569056Y685956D01*
X568789Y685639D01*
X568353Y685427D01*
X561519Y683571D01*
X561519Y672956D01*
X562437Y672925D01*
X563442Y672840D01*
X564500Y672714D01*
X565577Y672559D01*
X566638Y672387D01*
X567649Y672211D01*
X568576Y672042D01*
X569383Y671893D01*
X569329Y674363D01*
X570435Y675072D01*
X571727Y675873D01*
X573148Y676737D01*
X574641Y677633D01*
X576151Y678532D01*
X577619Y679403D01*
X578991Y680217D01*
X580209Y680943D01*
X580234Y684013D01*
X580336Y684454D01*
X580603Y684765D01*
X580979Y684952D01*
X581409Y685020D01*
X581838Y684975D01*
X582211Y684824D01*
X582472Y684573D01*
X582567Y684228D01*
X582523Y679338D01*
X572058Y673236D01*
X572136Y671174D01*
X573322Y670679D01*
X574526Y670127D01*
X575738Y669510D01*
X576944Y668817D01*
X578129Y668037D01*
X579283Y667160D01*
X580390Y666175D01*
X581440Y665073D01*
X582841Y663050D01*
X584004Y661012D01*
X584898Y658957D01*
X585496Y656880D01*
X585766Y654777D01*
X585680Y652645D01*
X585208Y650479D01*
X584749Y649340D01*
X581750Y649340D01*
X583254Y653378D01*
X581032Y653434D01*
X581032Y655673D01*
X583311Y655673D01*
X582899Y657270D01*
X582462Y658672D01*
X581971Y659921D01*
X581393Y661060D01*
X580696Y662130D01*
X579849Y663172D01*
X578820Y664230D01*
X577578Y665344D01*
X575127Y667047D01*
X572274Y668389D01*
X569134Y669373D01*
X565823Y669998D01*
X562452Y670267D01*
X559138Y670179D01*
X555995Y669737D01*
X553137Y668940D01*
X551548Y668301D01*
X550125Y667635D01*
X548851Y666951D01*
X547711Y666259D01*
X546688Y665566D01*
X545767Y664883D01*
X544932Y664216D01*
X544167Y663576D01*
X544236Y655673D01*
X581016Y655673D01*
Y653435D01*
X580417Y653450D01*
X575629Y653509D01*
X569572Y653556D01*
X562933Y653590D01*
X556396Y653613D01*
X550645Y653623D01*
X546365Y653620D01*
X544240Y653605D01*
X544239Y652840D01*
X544238Y651895D01*
X544239Y650826D01*
X544243Y649691D01*
X544252Y648547D01*
X544259Y648062D01*
X541982Y648062D01*
X541981Y662812D01*
X540374Y662323D01*
X538955Y661665D01*
X537732Y660839D01*
X536713Y659844D01*
X535907Y658679D01*
X535321Y657345D01*
X534964Y655843D01*
X534843Y654170D01*
X534989Y652730D01*
X535406Y651347D01*
X536067Y650057D01*
X536941Y648898D01*
X537999Y647905D01*
X539211Y647113D01*
X540549Y646559D01*
X541981Y646280D01*
X541982Y648046D01*
X544259Y648046D01*
X544268Y647448D01*
X544292Y646453D01*
X544325Y645618D01*
X549311Y641972D01*
X555062Y639748D01*
X561180Y638895D01*
X567264Y639361D01*
X572914Y641095D01*
X577729Y644043D01*
X581309Y648155D01*
X581744Y649324D01*
X584743D01*
X584320Y648277D01*
X582899Y646026D01*
X581293Y644093D01*
X579578Y642456D01*
X577831Y641092D01*
X576129Y639978D01*
X574549Y639092D01*
X573166Y638413D01*
X572058Y637917D01*
X572107Y635807D01*
X582543Y629652D01*
X582560Y624864D01*
X582472Y624535D01*
X582222Y624283D01*
X581862Y624121D01*
X581448Y624059D01*
X581031Y624110D01*
X580667Y624286D01*
X580408Y624597D01*
X580307Y625057D01*
X580291Y628231D01*
X569443Y634728D01*
X569345Y637198D01*
X568534Y637033D01*
X567665Y636891D01*
X566742Y636772D01*
X565772Y636677D01*
X564759Y636604D01*
X563708Y636552D01*
X562627Y636521D01*
X561519Y636511D01*
Y625615D01*
X568679Y623469D01*
X569083Y623238D01*
X569340Y622875D01*
X569460Y622436D01*
X569456Y621979D01*
X569339Y621562D01*
X569121Y621243D01*
X568814Y621078D01*
X568429Y621125D01*
X559006Y623828D01*
X558889Y636511D01*
X558006Y636580D01*
X556946Y636742D01*
X555773Y636980D01*
X554547Y637277D01*
X553331Y637615D01*
X552188Y637978D01*
X551180Y638349D01*
X550368Y638710D01*
X546082Y634289D01*
X548777Y627289D01*
X548894Y626674D01*
X548774Y626171D01*
X548475Y625797D01*
X548058Y625566D01*
X547581Y625493D01*
X547105Y625593D01*
X546689Y625882D01*
X546393Y626374D01*
X543044Y634257D01*
X543655Y634986D01*
X544282Y635716D01*
X544917Y636441D01*
X545551Y637156D01*
X546175Y637855D01*
X546780Y638531D01*
X547357Y639180D01*
X547896Y639796D01*
X547089Y640246D01*
X546276Y640731D01*
X545874Y640991D01*
X545477Y641266D01*
X545088Y641558D01*
X544709Y641869D01*
X544199Y642342D01*
X543870Y642701D01*
X543649Y642970D01*
X543466Y643171D01*
X543252Y643327D01*
X542934Y643460D01*
X542441Y643593D01*
X541704Y643748D01*
X540642Y644009D01*
X539757Y644278D01*
X538997Y644573D01*
X538310Y644911D01*
X537644Y645311D01*
X536946Y645791D01*
X536166Y646369D01*
X535251Y647064D01*
X534716Y646780D01*
X533997Y646391D01*
X533152Y645930D01*
X532237Y645427D01*
X531309Y644912D01*
X530426Y644417D01*
X529643Y643972D01*
X529019Y643609D01*
X529149Y638417D01*
X529071Y637995D01*
X528849Y637690D01*
X528531Y637501D01*
X528162Y637429D01*
X527791Y637473D01*
X527464Y637632D01*
X527229Y637906D01*
X527132Y638295D01*
X526964Y645193D01*
X533651Y649415D01*
X533023Y650795D01*
X532577Y652097D01*
X532311Y653346D01*
X532226Y654569D01*
X532322Y655794D01*
X532597Y657045D01*
X533052Y658350D01*
X533687Y659735D01*
X527049Y664036D01*
X526942Y670903D01*
X527034Y671290D01*
X527289Y671587D01*
X527650Y671778D01*
X528066Y671848D01*
X528482Y671782D01*
X528843Y671563D01*
X529095Y671176D01*
X529185Y670606D01*
X529303Y665539D01*
X535251Y662028D01*
X536025Y662629D01*
X536722Y663167D01*
X537077Y663423D01*
X537456Y663677D01*
X537873Y663933D01*
X538342Y664197D01*
X538981Y664516D01*
X539497Y664728D01*
X539928Y664862D01*
X540309Y664946D01*
X540675Y665010D01*
X541064Y665083D01*
X541512Y665193D01*
X542053Y665370D01*
X542548Y665618D01*
X543202Y666038D01*
X543969Y666581D01*
X544804Y667201D01*
X545660Y667848D01*
X546491Y668475D01*
X547252Y669035D01*
X547896Y669478D01*
X547261Y670123D01*
X546637Y670759D01*
X546020Y671393D01*
X545409Y672027D01*
X544803Y672669D01*
X544199Y673321D01*
X543594Y673989D01*
X542987Y674677D01*
X546431Y682403D01*
X546723Y682968D01*
X547138Y683312D01*
X547613Y683450D01*
X548085Y683398D01*
X548491Y683172D01*
X548768Y682787D01*
X548855Y682260D01*
X548689Y681604D01*
X546025Y674745D01*
X550293Y670600D01*
X550720Y670764D01*
X551202Y670932D01*
X551723Y671102D01*
X552266Y671272D01*
X552814Y671437D01*
X553351Y671596D01*
X553861Y671745D01*
X554328Y671882D01*
X554886Y672043D01*
X555440Y672193D01*
X555994Y672329D01*
X556551Y672448D01*
X557115Y672546D01*
X557690Y672620D01*
X558279Y672666D01*
X558886Y672681D01*
X558986Y684883D01*
X567972Y687446D01*
X568392Y687482D01*
X568738Y687342D01*
D02*
G37*
G36*
X539819Y659369D02*
X540210Y659016D01*
X540466Y658558D01*
X540537Y658358D01*
X540405Y657553D01*
X540003Y657117D01*
X539451Y656863D01*
X538915Y656845D01*
X538433Y657020D01*
X538046Y657343D01*
X537795Y657771D01*
X537719Y658259D01*
X537822Y658631D01*
X538387Y659314D01*
X538799Y659538D01*
X539334Y659561D01*
X539819Y659369D01*
D02*
G37*
G36*
X539773Y652227D02*
X540195Y651910D01*
X540492Y651485D01*
X540542Y651005D01*
X540519Y650515D01*
X540157Y650073D01*
X539628Y649798D01*
X539092Y649750D01*
X538593Y649890D01*
X538176Y650179D01*
X537885Y650575D01*
X537836Y651038D01*
X537860Y651534D01*
X538214Y652016D01*
X538735Y652331D01*
X539270Y652384D01*
X539773Y652227D01*
D02*
G37*
G36*
X976750Y590250D02*
Y526000D01*
X954832Y504082D01*
X954663Y504115D01*
X953115Y505663D01*
X951094Y506500D01*
X948906D01*
X946885Y505663D01*
X945337Y504115D01*
X944500Y502094D01*
Y499906D01*
X945337Y497884D01*
X946885Y496337D01*
X946918Y496168D01*
X920418Y469668D01*
X919528Y470558D01*
X917506Y471395D01*
X915318D01*
X913297Y470558D01*
X911749Y469011D01*
X910912Y466989D01*
Y464801D01*
X911749Y462780D01*
X912639Y461889D01*
X878072Y427322D01*
X876995Y428042D01*
X877500Y429259D01*
Y431447D01*
X876663Y433469D01*
X875116Y435016D01*
X873094Y435854D01*
X870906D01*
X868885Y435016D01*
X867337Y433469D01*
X866500Y431447D01*
Y429259D01*
X867337Y427238D01*
X868885Y425691D01*
X870906Y424854D01*
X873094D01*
X874312Y425358D01*
X875031Y424281D01*
X858472Y407722D01*
X856594Y408500D01*
X854406D01*
X852384Y407663D01*
X850837Y406115D01*
X850000Y404094D01*
Y401906D01*
X850778Y400028D01*
X841610Y390860D01*
X818878D01*
X817299Y391514D01*
X815110D01*
X813531Y390860D01*
X811390D01*
X809500Y392750D01*
Y407500D01*
X870548Y468548D01*
X871506D01*
X873528Y469385D01*
X875075Y470932D01*
X875912Y472954D01*
Y473912D01*
X883250Y481250D01*
X885094D01*
X887115Y482087D01*
X888663Y483634D01*
X889500Y485656D01*
Y487500D01*
X923000Y521000D01*
X923000Y562000D01*
X908000Y577000D01*
X824778D01*
X824116Y577663D01*
X822094Y578500D01*
X819906D01*
X817885Y577663D01*
X817222Y577000D01*
X719778D01*
X719116Y577663D01*
X717094Y578500D01*
X714906D01*
X712885Y577663D01*
X712222Y577000D01*
X708574D01*
X708048Y578270D01*
X708663Y578885D01*
X709500Y580906D01*
Y583094D01*
X708663Y585116D01*
X707115Y586663D01*
X705094Y587500D01*
X702906D01*
X700885Y586663D01*
X699337Y585116D01*
X698500Y583094D01*
Y580906D01*
X699337Y578885D01*
X699952Y578270D01*
X699426Y577000D01*
X579778D01*
X579115Y577663D01*
X577094Y578500D01*
X574906D01*
X572884Y577663D01*
X572222Y577000D01*
X572000D01*
Y576778D01*
X571337Y576115D01*
X570500Y574094D01*
Y571906D01*
X571337Y569884D01*
X572000Y569222D01*
Y567778D01*
X571337Y567116D01*
X570500Y565094D01*
Y562906D01*
X571337Y560885D01*
X572000Y560222D01*
Y558778D01*
X571337Y558116D01*
X570500Y556094D01*
Y553906D01*
X571337Y551884D01*
X572000Y551222D01*
Y548250D01*
X586700Y533550D01*
Y447292D01*
X585297Y446710D01*
X583749Y445163D01*
X582912Y443142D01*
Y440954D01*
X583749Y438932D01*
X585297Y437385D01*
X586700Y436804D01*
Y355300D01*
X636000Y306000D01*
Y196450D01*
X648648Y183802D01*
Y182532D01*
X648558Y182442D01*
X648116Y181780D01*
X647961Y181000D01*
Y150107D01*
X647489Y149635D01*
X646652Y147614D01*
Y145426D01*
X647489Y143404D01*
X649036Y141857D01*
X651058Y141020D01*
X653246D01*
X655267Y141857D01*
X656815Y143404D01*
X656838Y143461D01*
X803636D01*
X804416Y143616D01*
X805078Y144058D01*
X805078Y144058D01*
X818980Y157960D01*
X820250Y157434D01*
Y156656D01*
X821087Y154635D01*
X822635Y153087D01*
X824656Y152250D01*
X826844D01*
X828866Y153087D01*
X830413Y154635D01*
X831250Y156656D01*
Y158844D01*
X830413Y160865D01*
X828866Y162413D01*
X826844Y163250D01*
X826066D01*
X825540Y164520D01*
X835230Y174211D01*
X941250Y174211D01*
X942030Y174366D01*
X942692Y174808D01*
X943345Y175461D01*
X974000Y145000D01*
X1050000D01*
Y173517D01*
X1014898D01*
Y177464D01*
X1016168Y177990D01*
X1016760Y177398D01*
X1019040Y176082D01*
X1020900Y175583D01*
Y185400D01*
Y195217D01*
X1019040Y194718D01*
X1016760Y193402D01*
X1016168Y192810D01*
X1014898Y193336D01*
Y195691D01*
X1014898Y196961D01*
X1060155D01*
X1072961Y184155D01*
X1072961Y115845D01*
X1058322Y101206D01*
X1058232Y101071D01*
X1056594Y101750D01*
X1054406D01*
X1052384Y100913D01*
X1050837Y99366D01*
X1050000Y97344D01*
Y97039D01*
X664500D01*
Y97094D01*
X663663Y99115D01*
X662115Y100663D01*
X660094Y101500D01*
X657906D01*
X655884Y100663D01*
X654337Y99115D01*
X653500Y97094D01*
Y97039D01*
X604845D01*
X600789Y101095D01*
Y102543D01*
X600750Y102740D01*
Y102941D01*
X600673Y103126D01*
X600634Y103323D01*
X600942Y104283D01*
X601254Y104664D01*
X601643Y104843D01*
X601732Y104794D01*
X602689Y103837D01*
X604710Y103000D01*
X606898D01*
X608919Y103837D01*
X610467Y105385D01*
X611304Y107406D01*
Y109594D01*
X610467Y111615D01*
X608919Y113163D01*
X608052Y113522D01*
Y114897D01*
X609115Y115337D01*
X610663Y116884D01*
X611500Y118906D01*
Y121094D01*
X610663Y123116D01*
X609115Y124663D01*
X607094Y125500D01*
X604906D01*
X602884Y124663D01*
X601457Y123235D01*
X600724Y123213D01*
X600047Y123320D01*
X599757Y124021D01*
X598750Y125028D01*
Y128186D01*
X599115Y128337D01*
X600663Y129885D01*
X601500Y131906D01*
Y134094D01*
X600663Y136116D01*
X600480Y136298D01*
X600192Y137515D01*
X600303Y137682D01*
X600446Y137824D01*
X600522Y138010D01*
X600634Y138177D01*
X600673Y138374D01*
X600750Y138559D01*
Y138760D01*
X600789Y138957D01*
Y158397D01*
X601000Y158906D01*
Y161094D01*
X600163Y163116D01*
X598615Y164663D01*
X596594Y165500D01*
X595832D01*
X551000Y209636D01*
X551000Y235966D01*
Y243109D01*
X551344Y294843D01*
X551306Y295043D01*
X551306Y295247D01*
X551231Y295430D01*
X551194Y295624D01*
X551082Y295795D01*
X551004Y295983D01*
X551000Y295988D01*
Y297222D01*
X551663Y297885D01*
X552500Y299906D01*
Y302094D01*
X551663Y304116D01*
X551000Y304778D01*
Y306123D01*
X551085Y306208D01*
X551159Y306386D01*
X551267Y306546D01*
X551309Y306750D01*
X551389Y306943D01*
X551388Y307136D01*
X551427Y307325D01*
X552010Y395015D01*
X552009Y395022D01*
X552011Y395029D01*
X551934Y395412D01*
X551861Y395797D01*
X551857Y395802D01*
X551855Y395809D01*
X551638Y396134D01*
X551423Y396461D01*
X551417Y396465D01*
X551413Y396471D01*
X551000Y396884D01*
Y398000D01*
X531153Y417847D01*
X531401Y419092D01*
X531448Y419112D01*
X532995Y420659D01*
X533832Y422681D01*
Y424869D01*
X532995Y426890D01*
X531448Y428437D01*
X529426Y429275D01*
X527238D01*
X525217Y428437D01*
X523788Y427008D01*
X523356Y426785D01*
X522405Y426595D01*
X520039Y428961D01*
Y501562D01*
X520000Y501759D01*
Y532240D01*
X520039Y532438D01*
Y560654D01*
X520000Y560851D01*
Y562000D01*
X519506D01*
X519442Y562096D01*
X518780Y562538D01*
X518000Y562694D01*
X477000D01*
X476220Y562538D01*
X475558Y562096D01*
X475116Y561435D01*
X474961Y560654D01*
X474961Y514845D01*
X422558Y462442D01*
X422116Y461780D01*
X421961Y461000D01*
Y415249D01*
X422026Y414922D01*
X422069Y414593D01*
X422103Y414535D01*
X422116Y414468D01*
X422301Y414192D01*
X422467Y413904D01*
X422520Y413863D01*
X422558Y413807D01*
X422690Y413718D01*
X422834Y412826D01*
X422833Y412325D01*
X422397Y411757D01*
X421428Y409416D01*
X421097Y406905D01*
Y403095D01*
X421428Y400584D01*
X422397Y398243D01*
X422833Y397675D01*
X422834Y397174D01*
X422690Y396282D01*
X422558Y396193D01*
X422520Y396137D01*
X422467Y396096D01*
X422301Y395808D01*
X422116Y395532D01*
X422103Y395466D01*
X422069Y395407D01*
X422026Y395077D01*
X421961Y394751D01*
Y237449D01*
X422000Y237252D01*
Y232998D01*
X421428Y231616D01*
X421097Y229105D01*
Y225295D01*
X421428Y222784D01*
X422000Y221402D01*
Y217148D01*
X421961Y216951D01*
Y188000D01*
X324750D01*
Y188594D01*
X323913Y190616D01*
X322365Y192163D01*
X320344Y193000D01*
X318156D01*
X316134Y192163D01*
X314587Y190616D01*
X313750Y188594D01*
Y188000D01*
X305000D01*
X298750Y181750D01*
X298656D01*
X296635Y180913D01*
X295087Y179366D01*
X294250Y177344D01*
Y177250D01*
X287500Y170500D01*
X242750D01*
X239100Y174150D01*
Y176094D01*
X238263Y178116D01*
X236716Y179663D01*
X236250Y179855D01*
Y205750D01*
X240136Y209636D01*
X247720Y217220D01*
X248148Y216892D01*
X250489Y215923D01*
X253000Y215592D01*
X255511Y215923D01*
X257852Y216892D01*
X259861Y218434D01*
X261403Y220443D01*
X262372Y222784D01*
X262703Y225295D01*
Y229105D01*
X262372Y231616D01*
X262297Y231797D01*
X326500Y296000D01*
Y392477D01*
X327770Y393580D01*
X329200Y393392D01*
X331711Y393723D01*
X334052Y394692D01*
X336061Y396234D01*
X337603Y398243D01*
X338572Y400584D01*
X338903Y403095D01*
Y406905D01*
X338572Y409416D01*
X337603Y411757D01*
X336061Y413766D01*
X334052Y415308D01*
X331711Y416277D01*
X329200Y416608D01*
X327770Y416420D01*
X326500Y417523D01*
Y562000D01*
X406250D01*
X417250Y551000D01*
X427222D01*
X427884Y550337D01*
X429906Y549500D01*
X432094D01*
X434115Y550337D01*
X434778Y551000D01*
X435750D01*
Y552095D01*
X436500Y553906D01*
Y556094D01*
X435750Y557905D01*
Y561095D01*
X436500Y562906D01*
Y565094D01*
X435750Y566905D01*
Y570095D01*
X436500Y571906D01*
Y574094D01*
X435750Y575905D01*
Y585750D01*
X469000Y619000D01*
X517416D01*
X518671Y618161D01*
X521583Y616955D01*
X524674Y616340D01*
X526250Y616340D01*
X526250Y616340D01*
X595629D01*
X598333Y616878D01*
X600881Y617934D01*
X602477Y619000D01*
X948000D01*
X976750Y590250D01*
D02*
G37*
G36*
X518000Y532438D02*
X516730Y531822D01*
X515094Y532500D01*
X512906D01*
X510885Y531663D01*
X509337Y530116D01*
X508500Y528094D01*
Y525906D01*
X509337Y523885D01*
X510392Y522830D01*
X510742Y522000D01*
X510392Y521170D01*
X509337Y520116D01*
X508500Y518094D01*
Y515906D01*
X509337Y513885D01*
X510392Y512830D01*
X510742Y512000D01*
X510392Y511170D01*
X509337Y510116D01*
X508500Y508094D01*
Y505906D01*
X509337Y503885D01*
X510885Y502337D01*
X512906Y501500D01*
X515094D01*
X516730Y502178D01*
X518000Y501562D01*
Y427000D01*
X523195Y421805D01*
X523670Y420659D01*
X525217Y419112D01*
X526363Y418637D01*
X549971Y395029D01*
X549388Y307339D01*
X548120Y306489D01*
X548094Y306500D01*
X545906D01*
X543885Y305663D01*
X542337Y304116D01*
X541500Y302094D01*
Y299906D01*
X542337Y297885D01*
X543885Y296337D01*
X545906Y295500D01*
X548039D01*
X548406Y295461D01*
X549305Y294856D01*
X548734Y209005D01*
X597750Y160750D01*
X598750D01*
Y138957D01*
X597694Y138251D01*
X597094Y138500D01*
X594906D01*
X592884Y137663D01*
X591337Y136116D01*
X590500Y134094D01*
Y131906D01*
X591337Y129885D01*
X592884Y128337D01*
X594482Y127676D01*
X594229Y126406D01*
X594000D01*
X591979Y125568D01*
X590432Y124021D01*
X589594Y122000D01*
Y119812D01*
X590432Y117790D01*
X591979Y116243D01*
X594000Y115406D01*
X596188D01*
X596930Y115713D01*
X598112Y114935D01*
X597309Y114198D01*
X596876Y114000D01*
X594906D01*
X592884Y113163D01*
X591337Y111615D01*
X590500Y109594D01*
Y107406D01*
X591337Y105385D01*
X592884Y103837D01*
X594906Y103000D01*
X597094D01*
X597694Y103249D01*
X598750Y102543D01*
Y100250D01*
X604000Y95000D01*
X653500D01*
Y94906D01*
X654337Y92885D01*
X655884Y91337D01*
X657906Y90500D01*
X660094D01*
X662115Y91337D01*
X663663Y92885D01*
X664500Y94906D01*
Y95000D01*
X1050064D01*
X1050837Y93134D01*
X1052384Y91587D01*
X1054406Y90750D01*
X1056594D01*
X1058615Y91587D01*
X1060163Y93134D01*
X1061000Y95156D01*
Y97344D01*
X1060163Y99366D01*
X1059764Y99764D01*
X1075000Y115000D01*
X1075000Y185000D01*
X1061000Y199000D01*
X1014898D01*
Y203001D01*
X1016071Y203487D01*
X1016760Y202798D01*
X1019040Y201481D01*
X1020900Y200983D01*
Y210800D01*
X1022900D01*
Y212800D01*
X1032717D01*
X1032218Y214660D01*
X1032080Y214900D01*
X1032715Y216000D01*
X1056000D01*
X1074000Y234000D01*
X1074000Y283250D01*
X1048250Y309000D01*
X1033923Y323327D01*
X1034409Y324500D01*
X1034594D01*
X1036616Y325337D01*
X1038163Y326884D01*
X1039000Y328906D01*
Y331094D01*
X1038163Y333116D01*
X1036616Y334663D01*
X1034594Y335500D01*
X1033655D01*
X1032900Y336483D01*
Y339117D01*
X1032218Y341660D01*
X1030902Y343940D01*
X1029040Y345802D01*
X1026760Y347118D01*
X1024217Y347800D01*
X1021583D01*
X1019040Y347118D01*
X1016760Y345802D01*
X1014898Y343940D01*
X1014838Y343837D01*
X1013579Y343671D01*
X1003371Y353879D01*
X1003537Y355138D01*
X1003640Y355198D01*
X1005502Y357060D01*
X1006818Y359340D01*
X1007500Y361884D01*
Y364517D01*
X1006818Y367060D01*
X1005502Y369340D01*
X1003640Y371202D01*
X1001360Y372519D01*
X998817Y373200D01*
X996183D01*
X993640Y372519D01*
X991360Y371202D01*
X989498Y369340D01*
X989438Y369237D01*
X988179Y369071D01*
X971787Y385463D01*
X900500D01*
Y389618D01*
X901785D01*
X903806Y390456D01*
X905353Y392003D01*
X906191Y394024D01*
Y396212D01*
X917979Y408000D01*
X934926D01*
X935452Y406730D01*
X935087Y406366D01*
X934250Y404344D01*
Y402156D01*
X935087Y400135D01*
X936635Y398587D01*
X938656Y397750D01*
X940844D01*
X942866Y398587D01*
X944413Y400135D01*
X945250Y402156D01*
Y404344D01*
X944413Y406366D01*
X944048Y406730D01*
X944574Y408000D01*
X1008750Y408000D01*
X1008750Y408000D01*
X1018170Y398580D01*
X1018004Y397321D01*
X1016760Y396602D01*
X1014898Y394740D01*
X1013581Y392460D01*
X1012900Y389917D01*
Y387284D01*
X1013581Y384740D01*
X1014898Y382460D01*
X1016760Y380598D01*
X1019040Y379282D01*
X1021583Y378600D01*
X1024217D01*
X1026760Y379282D01*
X1029040Y380598D01*
X1030902Y382460D01*
X1031620Y383704D01*
X1032880Y383870D01*
X1060500Y356250D01*
X1095000D01*
Y70250D01*
X1078851Y54101D01*
X1075526Y52724D01*
X1074443Y52000D01*
X1038696D01*
X1038141Y52230D01*
X1035400Y52591D01*
X1032659Y52230D01*
X1032104Y52000D01*
X1013296D01*
X1012741Y52230D01*
X1010000Y52591D01*
X1007259Y52230D01*
X1006704Y52000D01*
X987896D01*
X987341Y52230D01*
X984600Y52591D01*
X981859Y52230D01*
X981304Y52000D01*
X969700D01*
Y52500D01*
X948700D01*
Y52000D01*
X770853D01*
X770148Y53056D01*
X770500Y53906D01*
Y56094D01*
X769663Y58116D01*
X768115Y59663D01*
X766094Y60500D01*
X763906D01*
X761885Y59663D01*
X760337Y58116D01*
X759500Y56094D01*
Y53906D01*
X759852Y53056D01*
X759146Y52000D01*
X663713D01*
X662506Y52500D01*
X660318D01*
X659111Y52000D01*
X534000D01*
X424000Y162000D01*
Y216951D01*
X425139Y217513D01*
X425948Y216892D01*
X428289Y215923D01*
X430800Y215592D01*
X433311Y215923D01*
X435652Y216892D01*
X437661Y218434D01*
X439203Y220443D01*
X440172Y222784D01*
X440503Y225295D01*
Y229105D01*
X440172Y231616D01*
X439203Y233957D01*
X437661Y235966D01*
X435652Y237508D01*
X433311Y238477D01*
X430800Y238808D01*
X428289Y238477D01*
X425948Y237508D01*
X425139Y236887D01*
X424000Y237449D01*
Y394751D01*
X425139Y395313D01*
X425948Y394692D01*
X428289Y393723D01*
X430800Y393392D01*
X433311Y393723D01*
X435652Y394692D01*
X437661Y396234D01*
X439203Y398243D01*
X440172Y400584D01*
X440503Y403095D01*
Y406905D01*
X440172Y409416D01*
X439203Y411757D01*
X437661Y413766D01*
X435652Y415308D01*
X433311Y416277D01*
X430800Y416608D01*
X428289Y416277D01*
X425948Y415308D01*
X425139Y414687D01*
X424000Y415249D01*
Y461000D01*
X477000Y514000D01*
X477000Y560654D01*
X518000D01*
Y532438D01*
D02*
G37*
G36*
X677000Y360000D02*
X776250Y260750D01*
X815000Y260750D01*
X825000Y250750D01*
Y242250D01*
X844250Y223000D01*
X938000D01*
X968000Y253000D01*
X992396Y253000D01*
X993640Y252281D01*
X996183Y251600D01*
X998817D01*
X1001360Y252281D01*
X1002604Y253000D01*
X1017796D01*
X1019040Y252281D01*
X1021583Y251600D01*
X1024217D01*
X1026760Y252281D01*
X1026900Y252363D01*
X1028000Y251728D01*
Y246073D01*
X1026900Y245438D01*
X1026760Y245518D01*
X1024900Y246017D01*
Y236200D01*
X1022900D01*
Y234200D01*
X1013083D01*
X1013581Y232340D01*
X1014199Y231270D01*
X1013466Y230000D01*
X1006934D01*
X1006201Y231270D01*
X1006818Y232340D01*
X1007500Y234883D01*
Y237517D01*
X1006818Y240060D01*
X1005502Y242340D01*
X1003640Y244202D01*
X1001360Y245518D01*
X998817Y246200D01*
X996183D01*
X993640Y245518D01*
X991360Y244202D01*
X989498Y242340D01*
X988182Y240060D01*
X987500Y237517D01*
Y234883D01*
X988182Y232340D01*
X989498Y230060D01*
X991360Y228198D01*
X991622Y228047D01*
X991788Y226788D01*
X941250Y176250D01*
X834386Y176250D01*
X803636Y145500D01*
X650000D01*
Y181000D01*
X652500Y183500D01*
X653094D01*
X655116Y184337D01*
X656663Y185884D01*
X657500Y187906D01*
Y188500D01*
X675500Y206500D01*
Y314500D01*
X654772Y335228D01*
X629000Y361000D01*
Y561750D01*
X677000D01*
Y360000D01*
D02*
G37*
%LPC*%
G36*
X891506Y599548D02*
X889318D01*
X887297Y598710D01*
X885749Y597163D01*
X884912Y595142D01*
Y592954D01*
X885749Y590932D01*
X887297Y589385D01*
X889318Y588548D01*
X891506D01*
X893528Y589385D01*
X895075Y590932D01*
X895912Y592954D01*
Y595142D01*
X895075Y597163D01*
X893528Y598710D01*
X891506Y599548D01*
D02*
G37*
G36*
X822094Y592500D02*
X819906D01*
X817885Y591663D01*
X816337Y590116D01*
X815500Y588094D01*
Y585906D01*
X816337Y583885D01*
X817885Y582337D01*
X819906Y581500D01*
X822094D01*
X824116Y582337D01*
X825663Y583885D01*
X826500Y585906D01*
Y588094D01*
X825663Y590116D01*
X824116Y591663D01*
X822094Y592500D01*
D02*
G37*
G36*
X565094Y587500D02*
X562906D01*
X560885Y586663D01*
X559337Y585116D01*
X558500Y583094D01*
Y580906D01*
X559337Y578885D01*
X560885Y577337D01*
X562906Y576500D01*
X565094D01*
X567116Y577337D01*
X568663Y578885D01*
X569500Y580906D01*
Y583094D01*
X568663Y585116D01*
X567116Y586663D01*
X565094Y587500D01*
D02*
G37*
G36*
X957094Y569750D02*
X954906D01*
X952885Y568913D01*
X951337Y567365D01*
X950500Y565344D01*
Y563156D01*
X951337Y561134D01*
X952885Y559587D01*
X954906Y558750D01*
X957094D01*
X957460Y558902D01*
X958066Y558431D01*
X958500Y557958D01*
Y555906D01*
X959337Y553885D01*
X960884Y552337D01*
X962906Y551500D01*
X965094D01*
X967115Y552337D01*
X968663Y553885D01*
X969500Y555906D01*
Y558094D01*
X968663Y560116D01*
X967115Y561663D01*
X965094Y562500D01*
X962906D01*
X962540Y562348D01*
X961934Y562819D01*
X961500Y563292D01*
Y565344D01*
X960663Y567365D01*
X959116Y568913D01*
X957094Y569750D01*
D02*
G37*
G36*
X966199Y541500D02*
X964011D01*
X961990Y540663D01*
X960442Y539115D01*
X959605Y537094D01*
Y534906D01*
X960442Y532884D01*
X961990Y531337D01*
X964011Y530500D01*
X966199D01*
X968220Y531337D01*
X969768Y532884D01*
X970605Y534906D01*
Y537094D01*
X969768Y539115D01*
X968220Y540663D01*
X966199Y541500D01*
D02*
G37*
G36*
X370094Y532500D02*
X367906D01*
X365885Y531663D01*
X364337Y530116D01*
X363500Y528094D01*
Y525906D01*
X364337Y523885D01*
X365392Y522830D01*
X365742Y522000D01*
X365392Y521170D01*
X364337Y520116D01*
X363500Y518094D01*
Y515906D01*
X364337Y513885D01*
X365392Y512830D01*
X365742Y512000D01*
X365392Y511170D01*
X364337Y510116D01*
X363500Y508094D01*
Y505906D01*
X364337Y503885D01*
X365885Y502337D01*
X367906Y501500D01*
X370094D01*
X372116Y502337D01*
X373663Y503885D01*
X374500Y505906D01*
Y508094D01*
X373663Y510116D01*
X372608Y511170D01*
X372258Y512000D01*
X372608Y512830D01*
X373663Y513885D01*
X374500Y515906D01*
Y518094D01*
X373663Y520116D01*
X372608Y521170D01*
X372258Y522000D01*
X372608Y522830D01*
X373663Y523885D01*
X374500Y525906D01*
Y528094D01*
X373663Y530116D01*
X372116Y531663D01*
X370094Y532500D01*
D02*
G37*
G36*
X565094Y507500D02*
X562906D01*
X560885Y506663D01*
X559337Y505116D01*
X558500Y503094D01*
Y500906D01*
X559337Y498885D01*
X560885Y497337D01*
X562906Y496500D01*
X565094D01*
X567116Y497337D01*
X568663Y498885D01*
X569500Y500906D01*
Y503094D01*
X568663Y505116D01*
X567116Y506663D01*
X565094Y507500D01*
D02*
G37*
G36*
X420094D02*
X417906D01*
X415885Y506663D01*
X414337Y505116D01*
X413500Y503094D01*
Y500906D01*
X414337Y498885D01*
X415885Y497337D01*
X417906Y496500D01*
X420094D01*
X422116Y497337D01*
X423663Y498885D01*
X424500Y500906D01*
Y503094D01*
X423663Y505116D01*
X422116Y506663D01*
X420094Y507500D01*
D02*
G37*
G36*
X405400Y416608D02*
X402889Y416277D01*
X400549Y415308D01*
X398539Y413766D01*
X396997Y411757D01*
X396028Y409416D01*
X395697Y406905D01*
Y403095D01*
X396028Y400584D01*
X396997Y398243D01*
X398539Y396234D01*
X400549Y394692D01*
X402889Y393723D01*
X405400Y393392D01*
X407911Y393723D01*
X410252Y394692D01*
X412261Y396234D01*
X413803Y398243D01*
X414772Y400584D01*
X415103Y403095D01*
Y406905D01*
X414772Y409416D01*
X413803Y411757D01*
X412261Y413766D01*
X410252Y415308D01*
X407911Y416277D01*
X405400Y416608D01*
D02*
G37*
G36*
X380000D02*
X377489Y416277D01*
X375149Y415308D01*
X373139Y413766D01*
X371597Y411757D01*
X370628Y409416D01*
X370297Y406905D01*
Y403095D01*
X370628Y400584D01*
X371597Y398243D01*
X373139Y396234D01*
X375149Y394692D01*
X377489Y393723D01*
X380000Y393392D01*
X382511Y393723D01*
X384851Y394692D01*
X386861Y396234D01*
X388403Y398243D01*
X389372Y400584D01*
X389703Y403095D01*
Y406905D01*
X389372Y409416D01*
X388403Y411757D01*
X386861Y413766D01*
X384851Y415308D01*
X382511Y416277D01*
X380000Y416608D01*
D02*
G37*
G36*
X354600D02*
X352089Y416277D01*
X349748Y415308D01*
X347739Y413766D01*
X346197Y411757D01*
X345228Y409416D01*
X344897Y406905D01*
Y403095D01*
X345228Y400584D01*
X346197Y398243D01*
X347739Y396234D01*
X349748Y394692D01*
X352089Y393723D01*
X354600Y393392D01*
X357111Y393723D01*
X359451Y394692D01*
X361461Y396234D01*
X363003Y398243D01*
X363972Y400584D01*
X364303Y403095D01*
Y406905D01*
X363972Y409416D01*
X363003Y411757D01*
X361461Y413766D01*
X359451Y415308D01*
X357111Y416277D01*
X354600Y416608D01*
D02*
G37*
G36*
X575094Y356500D02*
X572906D01*
X570885Y355663D01*
X569337Y354115D01*
X568500Y352094D01*
Y349906D01*
X569337Y347884D01*
X570885Y346337D01*
X572906Y345500D01*
X575094D01*
X577116Y346337D01*
X578663Y347884D01*
X579500Y349906D01*
Y352094D01*
X578663Y354115D01*
X577116Y355663D01*
X575094Y356500D01*
D02*
G37*
G36*
X571094Y300548D02*
X568906D01*
X566884Y299710D01*
X565337Y298163D01*
X564500Y296142D01*
Y293954D01*
X565337Y291932D01*
X566884Y290385D01*
X568906Y289548D01*
X571094D01*
X573116Y290385D01*
X574663Y291932D01*
X575500Y293954D01*
Y296142D01*
X574663Y298163D01*
X573116Y299710D01*
X571094Y300548D01*
D02*
G37*
G36*
X405400Y238808D02*
X402889Y238477D01*
X400549Y237508D01*
X398539Y235966D01*
X396997Y233957D01*
X396028Y231616D01*
X395697Y229105D01*
Y225295D01*
X396028Y222784D01*
X396997Y220443D01*
X398539Y218434D01*
X400549Y216892D01*
X402889Y215923D01*
X405400Y215592D01*
X407911Y215923D01*
X410252Y216892D01*
X412261Y218434D01*
X413803Y220443D01*
X414772Y222784D01*
X415103Y225295D01*
Y229105D01*
X414772Y231616D01*
X413803Y233957D01*
X412261Y235966D01*
X410252Y237508D01*
X407911Y238477D01*
X405400Y238808D01*
D02*
G37*
G36*
X380000D02*
X377489Y238477D01*
X375149Y237508D01*
X373139Y235966D01*
X371597Y233957D01*
X370628Y231616D01*
X370297Y229105D01*
Y225295D01*
X370628Y222784D01*
X371597Y220443D01*
X373139Y218434D01*
X375149Y216892D01*
X377489Y215923D01*
X380000Y215592D01*
X382511Y215923D01*
X384851Y216892D01*
X386861Y218434D01*
X388403Y220443D01*
X389372Y222784D01*
X389703Y225295D01*
Y229105D01*
X389372Y231616D01*
X388403Y233957D01*
X386861Y235966D01*
X384851Y237508D01*
X382511Y238477D01*
X380000Y238808D01*
D02*
G37*
G36*
X354600D02*
X352089Y238477D01*
X349748Y237508D01*
X347739Y235966D01*
X346197Y233957D01*
X345228Y231616D01*
X344897Y229105D01*
Y225295D01*
X345228Y222784D01*
X346197Y220443D01*
X347739Y218434D01*
X349748Y216892D01*
X352089Y215923D01*
X354600Y215592D01*
X357111Y215923D01*
X359451Y216892D01*
X361461Y218434D01*
X363003Y220443D01*
X363972Y222784D01*
X364303Y225295D01*
Y229105D01*
X363972Y231616D01*
X363003Y233957D01*
X361461Y235966D01*
X359451Y237508D01*
X357111Y238477D01*
X354600Y238808D01*
D02*
G37*
G36*
X329200D02*
X326689Y238477D01*
X324348Y237508D01*
X322339Y235966D01*
X320797Y233957D01*
X319828Y231616D01*
X319497Y229105D01*
Y225295D01*
X319828Y222784D01*
X320797Y220443D01*
X322339Y218434D01*
X324348Y216892D01*
X326689Y215923D01*
X329200Y215592D01*
X331711Y215923D01*
X334052Y216892D01*
X336061Y218434D01*
X337603Y220443D01*
X338572Y222784D01*
X338903Y225295D01*
Y229105D01*
X338572Y231616D01*
X337603Y233957D01*
X336061Y235966D01*
X334052Y237508D01*
X331711Y238477D01*
X329200Y238808D01*
D02*
G37*
G36*
X303800D02*
X301289Y238477D01*
X298948Y237508D01*
X296939Y235966D01*
X295397Y233957D01*
X294428Y231616D01*
X294097Y229105D01*
Y225295D01*
X294428Y222784D01*
X295397Y220443D01*
X296939Y218434D01*
X298948Y216892D01*
X301289Y215923D01*
X303800Y215592D01*
X306311Y215923D01*
X308652Y216892D01*
X310661Y218434D01*
X312203Y220443D01*
X313172Y222784D01*
X313503Y225295D01*
Y229105D01*
X313172Y231616D01*
X312203Y233957D01*
X310661Y235966D01*
X308652Y237508D01*
X306311Y238477D01*
X303800Y238808D01*
D02*
G37*
G36*
X278400D02*
X275889Y238477D01*
X273549Y237508D01*
X271539Y235966D01*
X269997Y233957D01*
X269028Y231616D01*
X268697Y229105D01*
Y225295D01*
X269028Y222784D01*
X269997Y220443D01*
X271539Y218434D01*
X273549Y216892D01*
X275889Y215923D01*
X278400Y215592D01*
X280911Y215923D01*
X283251Y216892D01*
X285261Y218434D01*
X286803Y220443D01*
X287772Y222784D01*
X288103Y225295D01*
Y229105D01*
X287772Y231616D01*
X286803Y233957D01*
X285261Y235966D01*
X283251Y237508D01*
X280911Y238477D01*
X278400Y238808D01*
D02*
G37*
G36*
X1024900Y195217D02*
Y187400D01*
X1032717D01*
X1032218Y189260D01*
X1030902Y191540D01*
X1029040Y193402D01*
X1026760Y194718D01*
X1024900Y195217D01*
D02*
G37*
G36*
X1032717Y183400D02*
X1024900D01*
Y175583D01*
X1026760Y176082D01*
X1029040Y177398D01*
X1030902Y179260D01*
X1032218Y181540D01*
X1032717Y183400D01*
D02*
G37*
G36*
X899594Y172000D02*
X897406D01*
X895385Y171163D01*
X893837Y169615D01*
X893000Y167594D01*
Y165406D01*
X893837Y163384D01*
X895385Y161837D01*
X897406Y161000D01*
X899594D01*
X901616Y161837D01*
X903163Y163384D01*
X904000Y165406D01*
Y167594D01*
X903163Y169615D01*
X901616Y171163D01*
X899594Y172000D01*
D02*
G37*
G36*
X612506Y162548D02*
X610318D01*
X608297Y161710D01*
X606749Y160163D01*
X605912Y158142D01*
Y155954D01*
X606749Y153932D01*
X608297Y152385D01*
X610318Y151548D01*
X612506D01*
X614528Y152385D01*
X616075Y153932D01*
X616912Y155954D01*
Y158142D01*
X616075Y160163D01*
X614528Y161710D01*
X612506Y162548D01*
D02*
G37*
G36*
X881094Y134500D02*
X878906D01*
X876885Y133663D01*
X875337Y132115D01*
X874500Y130094D01*
Y127906D01*
X875337Y125885D01*
X876885Y124337D01*
X878906Y123500D01*
X881094D01*
X883115Y124337D01*
X884663Y125885D01*
X885500Y127906D01*
Y130094D01*
X884663Y132115D01*
X883115Y133663D01*
X881094Y134500D01*
D02*
G37*
G36*
X841094D02*
X838906D01*
X836885Y133663D01*
X835337Y132115D01*
X834500Y130094D01*
Y127906D01*
X835337Y125885D01*
X836885Y124337D01*
X838906Y123500D01*
X841094D01*
X843115Y124337D01*
X844663Y125885D01*
X845500Y127906D01*
Y130094D01*
X844663Y132115D01*
X843115Y133663D01*
X841094Y134500D01*
D02*
G37*
G36*
X801094D02*
X798906D01*
X796885Y133663D01*
X795337Y132115D01*
X794500Y130094D01*
Y127906D01*
X795337Y125885D01*
X796885Y124337D01*
X798906Y123500D01*
X801094D01*
X803115Y124337D01*
X804663Y125885D01*
X805500Y127906D01*
Y130094D01*
X804663Y132115D01*
X803115Y133663D01*
X801094Y134500D01*
D02*
G37*
G36*
X761094D02*
X758906D01*
X756885Y133663D01*
X755337Y132115D01*
X754500Y130094D01*
Y127906D01*
X755337Y125885D01*
X756885Y124337D01*
X758906Y123500D01*
X761094D01*
X763115Y124337D01*
X764663Y125885D01*
X765500Y127906D01*
Y130094D01*
X764663Y132115D01*
X763115Y133663D01*
X761094Y134500D01*
D02*
G37*
G36*
X721094D02*
X718906D01*
X716885Y133663D01*
X715337Y132115D01*
X714500Y130094D01*
Y127906D01*
X715337Y125885D01*
X716885Y124337D01*
X718906Y123500D01*
X721094D01*
X723115Y124337D01*
X724663Y125885D01*
X725500Y127906D01*
Y130094D01*
X724663Y132115D01*
X723115Y133663D01*
X721094Y134500D01*
D02*
G37*
G36*
X681094D02*
X678906D01*
X676885Y133663D01*
X675337Y132115D01*
X674500Y130094D01*
Y127906D01*
X675337Y125885D01*
X676885Y124337D01*
X678906Y123500D01*
X681094D01*
X683115Y124337D01*
X684663Y125885D01*
X685500Y127906D01*
Y130094D01*
X684663Y132115D01*
X683115Y133663D01*
X681094Y134500D01*
D02*
G37*
G36*
X1045094Y132500D02*
X1042906D01*
X1040884Y131663D01*
X1039337Y130115D01*
X1038500Y128094D01*
Y125906D01*
X1039337Y123884D01*
X1040884Y122337D01*
X1042906Y121500D01*
X1045094D01*
X1047115Y122337D01*
X1048663Y123884D01*
X1049500Y125906D01*
Y128094D01*
X1048663Y130115D01*
X1047115Y131663D01*
X1045094Y132500D01*
D02*
G37*
G36*
X444506Y448548D02*
X442318D01*
X440297Y447710D01*
X438749Y446163D01*
X437912Y444142D01*
Y441954D01*
X438749Y439932D01*
X440297Y438385D01*
X442318Y437548D01*
X444506D01*
X446527Y438385D01*
X448075Y439932D01*
X448912Y441954D01*
Y444142D01*
X448075Y446163D01*
X446527Y447710D01*
X444506Y448548D01*
D02*
G37*
G36*
X507000Y416608D02*
X504489Y416277D01*
X502149Y415308D01*
X500139Y413766D01*
X498597Y411757D01*
X497628Y409416D01*
X497297Y406905D01*
Y403095D01*
X497628Y400584D01*
X498597Y398243D01*
X500139Y396234D01*
X502149Y394692D01*
X504489Y393723D01*
X507000Y393392D01*
X509511Y393723D01*
X511852Y394692D01*
X513861Y396234D01*
X515403Y398243D01*
X516372Y400584D01*
X516703Y403095D01*
Y406905D01*
X516372Y409416D01*
X515403Y411757D01*
X513861Y413766D01*
X511852Y415308D01*
X509511Y416277D01*
X507000Y416608D01*
D02*
G37*
G36*
X481600D02*
X479089Y416277D01*
X476749Y415308D01*
X474739Y413766D01*
X473197Y411757D01*
X472228Y409416D01*
X471897Y406905D01*
Y403095D01*
X472228Y400584D01*
X473197Y398243D01*
X474739Y396234D01*
X476749Y394692D01*
X479089Y393723D01*
X481600Y393392D01*
X484111Y393723D01*
X486451Y394692D01*
X488461Y396234D01*
X490003Y398243D01*
X490972Y400584D01*
X491303Y403095D01*
Y406905D01*
X490972Y409416D01*
X490003Y411757D01*
X488461Y413766D01*
X486451Y415308D01*
X484111Y416277D01*
X481600Y416608D01*
D02*
G37*
G36*
X456200D02*
X453689Y416277D01*
X451348Y415308D01*
X449339Y413766D01*
X447797Y411757D01*
X446828Y409416D01*
X446497Y406905D01*
Y403095D01*
X446828Y400584D01*
X447797Y398243D01*
X449339Y396234D01*
X451348Y394692D01*
X453689Y393723D01*
X456200Y393392D01*
X458711Y393723D01*
X461051Y394692D01*
X463061Y396234D01*
X464603Y398243D01*
X465572Y400584D01*
X465903Y403095D01*
Y406905D01*
X465572Y409416D01*
X464603Y411757D01*
X463061Y413766D01*
X461051Y415308D01*
X458711Y416277D01*
X456200Y416608D01*
D02*
G37*
G36*
X998817Y398600D02*
X996183D01*
X993640Y397919D01*
X991360Y396602D01*
X989498Y394740D01*
X988182Y392460D01*
X987500Y389917D01*
Y387284D01*
X988182Y384740D01*
X989498Y382460D01*
X991360Y380598D01*
X993640Y379282D01*
X996183Y378600D01*
X998817D01*
X1001360Y379282D01*
X1003640Y380598D01*
X1005502Y382460D01*
X1006818Y384740D01*
X1007500Y387284D01*
Y389917D01*
X1006818Y392460D01*
X1005502Y394740D01*
X1003640Y396602D01*
X1001360Y397919D01*
X998817Y398600D01*
D02*
G37*
G36*
X542094Y387548D02*
X539906D01*
X537884Y386710D01*
X536337Y385163D01*
X535500Y383142D01*
Y380954D01*
X536337Y378932D01*
X537884Y377385D01*
X539906Y376548D01*
X542094D01*
X544115Y377385D01*
X545663Y378932D01*
X546500Y380954D01*
Y383142D01*
X545663Y385163D01*
X544115Y386710D01*
X542094Y387548D01*
D02*
G37*
G36*
X1024217Y373200D02*
X1021583D01*
X1019040Y372519D01*
X1016760Y371202D01*
X1014898Y369340D01*
X1013581Y367060D01*
X1012900Y364517D01*
Y361884D01*
X1013581Y359340D01*
X1014898Y357060D01*
X1016760Y355198D01*
X1019040Y353881D01*
X1021583Y353200D01*
X1024217D01*
X1026760Y353881D01*
X1029040Y355198D01*
X1030902Y357060D01*
X1032218Y359340D01*
X1032900Y361884D01*
Y364517D01*
X1032218Y367060D01*
X1030902Y369340D01*
X1029040Y371202D01*
X1026760Y372519D01*
X1024217Y373200D01*
D02*
G37*
G36*
X1070094Y331500D02*
X1067906D01*
X1065884Y330663D01*
X1064337Y329115D01*
X1063500Y327094D01*
Y324906D01*
X1064337Y322884D01*
X1065884Y321337D01*
X1067906Y320500D01*
X1070094D01*
X1072115Y321337D01*
X1073663Y322884D01*
X1074500Y324906D01*
Y327094D01*
X1073663Y329115D01*
X1072115Y330663D01*
X1070094Y331500D01*
D02*
G37*
G36*
X489094Y321500D02*
X486906D01*
X484884Y320663D01*
X483337Y319116D01*
X482500Y317094D01*
Y314906D01*
X483337Y312885D01*
X484884Y311337D01*
X486906Y310500D01*
X489094D01*
X491115Y311337D01*
X492663Y312885D01*
X493500Y314906D01*
Y317094D01*
X492663Y319116D01*
X491115Y320663D01*
X489094Y321500D01*
D02*
G37*
G36*
X1087094Y286500D02*
X1084906D01*
X1082885Y285663D01*
X1081337Y284116D01*
X1080500Y282094D01*
Y279906D01*
X1081337Y277885D01*
X1082885Y276337D01*
X1084906Y275500D01*
X1087094D01*
X1089115Y276337D01*
X1090663Y277885D01*
X1091500Y279906D01*
Y282094D01*
X1090663Y284116D01*
X1089115Y285663D01*
X1087094Y286500D01*
D02*
G37*
G36*
X497094Y257500D02*
X494906D01*
X492884Y256663D01*
X491337Y255116D01*
X490500Y253094D01*
Y250906D01*
X491337Y248885D01*
X492884Y247337D01*
X494906Y246500D01*
X497094D01*
X499115Y247337D01*
X500663Y248885D01*
X501500Y250906D01*
Y253094D01*
X500663Y255116D01*
X499115Y256663D01*
X497094Y257500D01*
D02*
G37*
G36*
X507000Y238808D02*
X504489Y238477D01*
X502149Y237508D01*
X500139Y235966D01*
X498597Y233957D01*
X497628Y231616D01*
X497297Y229105D01*
Y225295D01*
X497628Y222784D01*
X498597Y220443D01*
X500139Y218434D01*
X502149Y216892D01*
X504489Y215923D01*
X507000Y215592D01*
X509511Y215923D01*
X511852Y216892D01*
X513861Y218434D01*
X515403Y220443D01*
X516372Y222784D01*
X516703Y225295D01*
Y229105D01*
X516372Y231616D01*
X515403Y233957D01*
X513861Y235966D01*
X511852Y237508D01*
X509511Y238477D01*
X507000Y238808D01*
D02*
G37*
G36*
X481600D02*
X479089Y238477D01*
X476749Y237508D01*
X474739Y235966D01*
X473197Y233957D01*
X472228Y231616D01*
X471897Y229105D01*
Y225295D01*
X472228Y222784D01*
X473197Y220443D01*
X474739Y218434D01*
X476749Y216892D01*
X479089Y215923D01*
X481600Y215592D01*
X484111Y215923D01*
X486451Y216892D01*
X488461Y218434D01*
X490003Y220443D01*
X490972Y222784D01*
X491303Y225295D01*
Y229105D01*
X490972Y231616D01*
X490003Y233957D01*
X488461Y235966D01*
X486451Y237508D01*
X484111Y238477D01*
X481600Y238808D01*
D02*
G37*
G36*
X456200D02*
X453689Y238477D01*
X451348Y237508D01*
X449339Y235966D01*
X447797Y233957D01*
X446828Y231616D01*
X446497Y229105D01*
Y225295D01*
X446828Y222784D01*
X447797Y220443D01*
X449339Y218434D01*
X451348Y216892D01*
X453689Y215923D01*
X456200Y215592D01*
X458711Y215923D01*
X461051Y216892D01*
X463061Y218434D01*
X464603Y220443D01*
X465572Y222784D01*
X465903Y225295D01*
Y229105D01*
X465572Y231616D01*
X464603Y233957D01*
X463061Y235966D01*
X461051Y237508D01*
X458711Y238477D01*
X456200Y238808D01*
D02*
G37*
G36*
X1032717Y208800D02*
X1024900D01*
Y200983D01*
X1026760Y201481D01*
X1029040Y202798D01*
X1030902Y204660D01*
X1032218Y206940D01*
X1032717Y208800D01*
D02*
G37*
G36*
X537506Y191548D02*
X535318D01*
X533297Y190710D01*
X531749Y189163D01*
X530912Y187142D01*
Y184954D01*
X531749Y182932D01*
X533297Y181385D01*
X535318Y180548D01*
X537506D01*
X539528Y181385D01*
X541075Y182932D01*
X541912Y184954D01*
Y187142D01*
X541075Y189163D01*
X539528Y190710D01*
X537506Y191548D01*
D02*
G37*
G36*
X514094Y186500D02*
X511906D01*
X509884Y185663D01*
X508337Y184116D01*
X507500Y182094D01*
Y179906D01*
X508337Y177885D01*
X509884Y176337D01*
X511906Y175500D01*
X514094D01*
X516115Y176337D01*
X517663Y177885D01*
X518500Y179906D01*
Y182094D01*
X517663Y184116D01*
X516115Y185663D01*
X514094Y186500D01*
D02*
G37*
G36*
X507506Y165548D02*
X505318D01*
X503297Y164710D01*
X501749Y163163D01*
X500912Y161142D01*
Y158954D01*
X501749Y156932D01*
X503297Y155385D01*
X505318Y154548D01*
X507506D01*
X509528Y155385D01*
X511075Y156932D01*
X511912Y158954D01*
Y161142D01*
X511075Y163163D01*
X509528Y164710D01*
X507506Y165548D01*
D02*
G37*
G36*
X1086094Y160500D02*
X1083906D01*
X1081885Y159663D01*
X1080337Y158116D01*
X1079500Y156094D01*
Y153906D01*
X1080337Y151884D01*
X1081885Y150337D01*
X1083906Y149500D01*
X1086094D01*
X1088115Y150337D01*
X1089663Y151884D01*
X1090500Y153906D01*
Y156094D01*
X1089663Y158116D01*
X1088115Y159663D01*
X1086094Y160500D01*
D02*
G37*
G36*
X548506Y120548D02*
X546318D01*
X544296Y119710D01*
X542749Y118163D01*
X541912Y116142D01*
Y113954D01*
X542749Y111932D01*
X544296Y110385D01*
X546318Y109548D01*
X548506D01*
X550527Y110385D01*
X552075Y111932D01*
X552912Y113954D01*
Y116142D01*
X552075Y118163D01*
X550527Y119710D01*
X548506Y120548D01*
D02*
G37*
G36*
X984094Y91500D02*
X981906D01*
X979884Y90663D01*
X978337Y89115D01*
X977500Y87094D01*
Y84906D01*
X978337Y82885D01*
X979884Y81337D01*
X981906Y80500D01*
X984094D01*
X986115Y81337D01*
X987663Y82885D01*
X988500Y84906D01*
Y87094D01*
X987663Y89115D01*
X986115Y90663D01*
X984094Y91500D01*
D02*
G37*
G36*
X766094Y90500D02*
X763906D01*
X761885Y89663D01*
X760337Y88116D01*
X759500Y86094D01*
Y83906D01*
X760337Y81884D01*
X761885Y80337D01*
X763906Y79500D01*
X766094D01*
X768115Y80337D01*
X769663Y81884D01*
X770500Y83906D01*
Y86094D01*
X769663Y88116D01*
X768115Y89663D01*
X766094Y90500D01*
D02*
G37*
G36*
X516094D02*
X513906D01*
X511884Y89663D01*
X510337Y88116D01*
X509500Y86094D01*
Y83906D01*
X510337Y81884D01*
X511884Y80337D01*
X513906Y79500D01*
X516094D01*
X518116Y80337D01*
X519663Y81884D01*
X520500Y83906D01*
Y86094D01*
X519663Y88116D01*
X518116Y89663D01*
X516094Y90500D01*
D02*
G37*
G36*
X689094Y79500D02*
X686906D01*
X684884Y78663D01*
X683337Y77116D01*
X682500Y75094D01*
Y72906D01*
X683337Y70884D01*
X684884Y69337D01*
X686906Y68500D01*
X689094D01*
X691115Y69337D01*
X692663Y70884D01*
X693500Y72906D01*
Y75094D01*
X692663Y77116D01*
X691115Y78663D01*
X689094Y79500D01*
D02*
G37*
G36*
X660094Y532500D02*
X657906D01*
X655884Y531663D01*
X654337Y530116D01*
X653500Y528094D01*
Y525906D01*
X654337Y523885D01*
X655392Y522830D01*
X655742Y522000D01*
X655392Y521170D01*
X654337Y520116D01*
X653500Y518094D01*
Y515906D01*
X654337Y513885D01*
X655392Y512830D01*
X655742Y512000D01*
X655392Y511170D01*
X654337Y510116D01*
X653500Y508094D01*
Y505906D01*
X654337Y503885D01*
X655884Y502337D01*
X657906Y501500D01*
X660094D01*
X662115Y502337D01*
X663663Y503885D01*
X664500Y505906D01*
Y508094D01*
X663663Y510116D01*
X662608Y511170D01*
X662258Y512000D01*
X662608Y512830D01*
X663663Y513885D01*
X664500Y515906D01*
Y518094D01*
X663663Y520116D01*
X662608Y521170D01*
X662258Y522000D01*
X662608Y522830D01*
X663663Y523885D01*
X664500Y525906D01*
Y528094D01*
X663663Y530116D01*
X662115Y531663D01*
X660094Y532500D01*
D02*
G37*
G36*
X1020900Y246017D02*
X1019040Y245518D01*
X1016760Y244202D01*
X1014898Y242340D01*
X1013581Y240060D01*
X1013083Y238200D01*
X1020900D01*
Y246017D01*
D02*
G37*
G36*
X816094Y247853D02*
X813906D01*
X811885Y247016D01*
X810337Y245469D01*
X809500Y243447D01*
Y241259D01*
X810337Y239237D01*
X811885Y237690D01*
X813906Y236853D01*
X816094D01*
X818115Y237690D01*
X819663Y239237D01*
X820500Y241259D01*
Y243447D01*
X819663Y245469D01*
X818115Y247016D01*
X816094Y247853D01*
D02*
G37*
G36*
X798094Y230500D02*
X795906D01*
X793885Y229663D01*
X792337Y228116D01*
X791500Y226094D01*
Y223906D01*
X792337Y221884D01*
X793885Y220337D01*
X795906Y219500D01*
X798094D01*
X800116Y220337D01*
X801663Y221884D01*
X802500Y223906D01*
Y226094D01*
X801663Y228116D01*
X800116Y229663D01*
X798094Y230500D01*
D02*
G37*
G36*
X691506Y208548D02*
X689318D01*
X687297Y207710D01*
X685749Y206163D01*
X684912Y204142D01*
Y201954D01*
X685749Y199932D01*
X687297Y198385D01*
X689318Y197548D01*
X691506D01*
X693528Y198385D01*
X695075Y199932D01*
X695912Y201954D01*
Y204142D01*
X695075Y206163D01*
X693528Y207710D01*
X691506Y208548D01*
D02*
G37*
G36*
X679506Y192548D02*
X677318D01*
X675296Y191710D01*
X673749Y190163D01*
X672912Y188142D01*
Y185954D01*
X673749Y183932D01*
X675296Y182385D01*
X677318Y181548D01*
X679506D01*
X681527Y182385D01*
X683075Y183932D01*
X683912Y185954D01*
Y188142D01*
X683075Y190163D01*
X681527Y191710D01*
X679506Y192548D01*
D02*
G37*
G36*
X662844Y178750D02*
X660656D01*
X658634Y177913D01*
X657087Y176366D01*
X656250Y174344D01*
Y172156D01*
X657087Y170135D01*
X658634Y168587D01*
X660656Y167750D01*
X662844D01*
X664865Y168587D01*
X666413Y170135D01*
X667250Y172156D01*
Y174344D01*
X666413Y176366D01*
X664865Y177913D01*
X662844Y178750D01*
D02*
G37*
G36*
X804344Y172000D02*
X802156D01*
X800135Y171163D01*
X798587Y169615D01*
X797750Y167594D01*
Y165406D01*
X798587Y163384D01*
X800135Y161837D01*
X802156Y161000D01*
X804344D01*
X806366Y161837D01*
X807913Y163384D01*
X808750Y165406D01*
Y167594D01*
X807913Y169615D01*
X806366Y171163D01*
X804344Y172000D01*
D02*
G37*
G36*
X675274Y163780D02*
X673086D01*
X671064Y162943D01*
X669517Y161396D01*
X668680Y159374D01*
Y157186D01*
X669517Y155165D01*
X671064Y153617D01*
X673086Y152780D01*
X675274D01*
X677295Y153617D01*
X678842Y155165D01*
X679680Y157186D01*
Y159374D01*
X678842Y161396D01*
X677295Y162943D01*
X675274Y163780D01*
D02*
G37*
G36*
X697094Y162500D02*
X694906D01*
X692885Y161663D01*
X691337Y160116D01*
X690500Y158094D01*
Y155906D01*
X691337Y153884D01*
X692885Y152337D01*
X694906Y151500D01*
X697094D01*
X699116Y152337D01*
X700663Y153884D01*
X701500Y155906D01*
Y158094D01*
X700663Y160116D01*
X699116Y161663D01*
X697094Y162500D01*
D02*
G37*
%LPD*%
G36*
X141000Y220750D02*
X229500Y132250D01*
X229500Y95000D01*
X91250D01*
Y126906D01*
X110496Y146291D01*
X112406Y145500D01*
X114594D01*
X116615Y146337D01*
X118163Y147885D01*
X119000Y149906D01*
Y152094D01*
X118193Y154043D01*
X122328Y158208D01*
Y165550D01*
X123413Y166635D01*
X124250Y168656D01*
Y170844D01*
X123413Y172866D01*
X121866Y174413D01*
X120964Y174786D01*
X111000Y184750D01*
Y187895D01*
X111906Y188500D01*
X114094D01*
X116116Y189337D01*
X117663Y190884D01*
X118500Y192906D01*
Y195094D01*
X117663Y197115D01*
X116116Y198663D01*
X114094Y199500D01*
X111906D01*
X111000Y200105D01*
Y418856D01*
X141000D01*
Y220750D01*
D02*
G37*
%LPC*%
G36*
X128000Y416345D02*
Y407000D01*
X135690D01*
X135372Y409416D01*
X134403Y411757D01*
X132861Y413766D01*
X130851Y415308D01*
X128511Y416277D01*
X128000Y416345D01*
D02*
G37*
G36*
X124000Y416345D02*
X123489Y416277D01*
X121149Y415308D01*
X119139Y413766D01*
X117597Y411757D01*
X116628Y409416D01*
X116309Y407000D01*
X124000D01*
Y416345D01*
D02*
G37*
G36*
Y403000D02*
X116309D01*
X116628Y400584D01*
X117597Y398243D01*
X119139Y396234D01*
X121149Y394692D01*
X123489Y393723D01*
X124000Y393655D01*
Y403000D01*
D02*
G37*
G36*
X135690D02*
X128000D01*
Y393655D01*
X128511Y393723D01*
X130851Y394692D01*
X132861Y396234D01*
X134403Y398243D01*
X135372Y400584D01*
X135690Y403000D01*
D02*
G37*
G36*
X126412Y314805D02*
X124224D01*
X122202Y313967D01*
X120655Y312420D01*
X119818Y310399D01*
Y308211D01*
X120655Y306189D01*
X122202Y304642D01*
X124224Y303805D01*
X126412D01*
X128433Y304642D01*
X129981Y306189D01*
X130818Y308211D01*
Y310399D01*
X129981Y312420D01*
X128433Y313967D01*
X126412Y314805D01*
D02*
G37*
G36*
X134094Y278500D02*
X131906D01*
X129885Y277663D01*
X128337Y276115D01*
X127500Y274094D01*
Y271906D01*
X128337Y269884D01*
X129885Y268337D01*
X131906Y267500D01*
X134094D01*
X136116Y268337D01*
X137663Y269884D01*
X138500Y271906D01*
Y274094D01*
X137663Y276115D01*
X136116Y277663D01*
X134094Y278500D01*
D02*
G37*
G36*
X126000Y238808D02*
X123489Y238477D01*
X121149Y237508D01*
X119139Y235966D01*
X117597Y233957D01*
X116628Y231616D01*
X116297Y229105D01*
Y225295D01*
X116628Y222784D01*
X117597Y220443D01*
X119139Y218434D01*
X121149Y216892D01*
X123489Y215923D01*
X126000Y215592D01*
X128511Y215923D01*
X130851Y216892D01*
X132861Y218434D01*
X134403Y220443D01*
X135372Y222784D01*
X135703Y225295D01*
Y229105D01*
X135372Y231616D01*
X134403Y233957D01*
X132861Y235966D01*
X130851Y237508D01*
X128511Y238477D01*
X126000Y238808D01*
D02*
G37*
G36*
X174594Y156500D02*
X172406D01*
X170385Y155663D01*
X168837Y154115D01*
X168000Y152094D01*
Y149906D01*
X168837Y147885D01*
X170385Y146337D01*
X172406Y145500D01*
X174594D01*
X176616Y146337D01*
X178163Y147885D01*
X179000Y149906D01*
Y152094D01*
X178163Y154115D01*
X176616Y155663D01*
X174594Y156500D01*
D02*
G37*
G36*
X196351Y112757D02*
X194163D01*
X192142Y111920D01*
X190595Y110373D01*
X189757Y108351D01*
Y106163D01*
X190595Y104142D01*
X192142Y102595D01*
X194163Y101757D01*
X196351D01*
X198373Y102595D01*
X199920Y104142D01*
X200757Y106163D01*
Y108351D01*
X199920Y110373D01*
X198373Y111920D01*
X196351Y112757D01*
D02*
G37*
G36*
X159094Y112500D02*
X156906D01*
X154885Y111663D01*
X153337Y110115D01*
X152500Y108094D01*
Y105906D01*
X153337Y103884D01*
X154885Y102337D01*
X156906Y101500D01*
X159094D01*
X161115Y102337D01*
X162663Y103884D01*
X163500Y105906D01*
Y108094D01*
X162663Y110115D01*
X161115Y111663D01*
X159094Y112500D01*
D02*
G37*
%LPD*%
D63*
X1048200Y611650D02*
D03*
X1068200D02*
D03*
X1048200Y591650D02*
D03*
X1068200D02*
D03*
X1048200Y571650D02*
D03*
X1068200D02*
D03*
X1048200Y551650D02*
D03*
X1068200D02*
D03*
X1048200Y531650D02*
D03*
X1068200D02*
D03*
X1048200Y511650D02*
D03*
X1068200D02*
D03*
X1048200Y491650D02*
D03*
X1068200D02*
D03*
X1048200Y471650D02*
D03*
X1068200D02*
D03*
X1048200Y451650D02*
D03*
X1068200D02*
D03*
X1048200Y431650D02*
D03*
D72*
X940900Y704300D02*
Y707300D01*
Y688100D02*
Y704300D01*
X966357Y692643D02*
Y707243D01*
X908000Y427500D02*
X918500D01*
X1020000Y529000D02*
Y535000D01*
X918500Y427500D02*
X1020000Y529000D01*
X966357Y692643D02*
X975185Y683815D01*
X1065185D01*
X1090000Y659000D01*
X965000Y664000D02*
X995500D01*
X940900Y688100D02*
X965000Y664000D01*
X995500D02*
X1037500Y622000D01*
Y470991D02*
Y622000D01*
X1070000Y348000D02*
Y379000D01*
X1090000Y399000D01*
Y659000D01*
X1014500Y447990D02*
X1037500Y470991D01*
X839500Y358000D02*
Y369000D01*
X847750Y377250D01*
X857750D01*
X908000Y427500D01*
X839544Y305456D02*
Y311981D01*
X796759Y348241D02*
X803284D01*
X760500Y384500D02*
X796759Y348241D01*
X803284D02*
X839544Y311981D01*
X861188Y283812D02*
X871938D01*
X839544Y305456D02*
X861188Y283812D01*
X760500Y384500D02*
Y447750D01*
X871938Y283812D02*
X899500Y256251D01*
D75*
X1010000Y40500D02*
D03*
X984600D02*
D03*
X1035400D02*
D03*
D76*
X959200D02*
D03*
D77*
X940900Y729700D02*
D03*
Y704300D02*
D03*
X966300Y729700D02*
D03*
Y704300D02*
D03*
X991700Y729700D02*
D03*
Y704300D02*
D03*
X1017100Y729700D02*
D03*
X997500Y388600D02*
D03*
X1022900D02*
D03*
X997500Y363200D02*
D03*
X1022900D02*
D03*
X997500Y337800D02*
D03*
X1022900D02*
D03*
X997500Y312400D02*
D03*
X1022900D02*
D03*
X997500Y287000D02*
D03*
X1022900D02*
D03*
X997500Y261600D02*
D03*
X1022900D02*
D03*
X997500Y236200D02*
D03*
X1022900D02*
D03*
X997500Y210800D02*
D03*
X1022900D02*
D03*
X997500Y185400D02*
D03*
X1022900D02*
D03*
X997500Y160000D02*
D03*
D78*
X1017100Y704300D02*
D03*
D79*
X968000Y455000D02*
D03*
X810000Y24000D02*
D03*
X720000Y660000D02*
D03*
X420000D02*
D03*
D80*
X1068200Y431650D02*
D03*
D81*
X1022900Y160000D02*
D03*
D82*
X760000Y740500D02*
D03*
X870000D02*
D03*
X360000D02*
D03*
X250000D02*
D03*
D83*
X840000Y640500D02*
D03*
X790000D02*
D03*
X280000D02*
D03*
X330000D02*
D03*
D85*
X175000Y588000D02*
D03*
Y672000D02*
D03*
D86*
Y610000D02*
D03*
Y650000D02*
D03*
Y630000D02*
D03*
D87*
X507000Y405000D02*
D03*
X481600D02*
D03*
X456200D02*
D03*
X430800D02*
D03*
X405400D02*
D03*
X380000D02*
D03*
X354600D02*
D03*
X329200D02*
D03*
X303800D02*
D03*
X278400D02*
D03*
X253000D02*
D03*
X227600D02*
D03*
X202200D02*
D03*
X176800D02*
D03*
X151400D02*
D03*
X126000D02*
D03*
X100600D02*
D03*
X75200D02*
D03*
X49800D02*
D03*
X24400D02*
D03*
X507000Y227200D02*
D03*
X481600D02*
D03*
X456200D02*
D03*
X430800D02*
D03*
X405400D02*
D03*
X380000D02*
D03*
X354600D02*
D03*
X329200D02*
D03*
X303800D02*
D03*
X278400D02*
D03*
X253000D02*
D03*
X227600D02*
D03*
X202200D02*
D03*
X176800D02*
D03*
X151400D02*
D03*
X126000D02*
D03*
X100600D02*
D03*
X75200D02*
D03*
X49800D02*
D03*
X24400D02*
D03*
D88*
X1055500Y96250D02*
D03*
X1044000Y127000D02*
D03*
X659000Y96000D02*
D03*
X464469Y58997D02*
D03*
X855500Y370250D02*
D03*
X839500Y358000D02*
D03*
X1020000Y535000D02*
D03*
X515000Y85000D02*
D03*
X394233Y84233D02*
D03*
X366000Y106500D02*
D03*
X1020000Y563250D02*
D03*
X1014500Y447990D02*
D03*
X940250Y333000D02*
D03*
X814000Y257250D02*
D03*
X855926Y235826D02*
D03*
X847296Y237804D02*
D03*
X813977Y326463D02*
D03*
X803250Y166500D02*
D03*
X903750Y287250D02*
D03*
X1050450Y389450D02*
D03*
X858056Y296843D02*
D03*
X1033500Y330000D02*
D03*
X940250Y301000D02*
D03*
X940000Y268000D02*
D03*
X926000Y264000D02*
D03*
X854875Y268000D02*
D03*
X690412Y203048D02*
D03*
X868000Y313250D02*
D03*
X1103000Y605000D02*
D03*
X1085000Y155000D02*
D03*
X1002000Y553000D02*
D03*
X1058000Y762000D02*
D03*
X1113000Y708000D02*
D03*
X1032052Y645052D02*
D03*
X1059000Y411000D02*
D03*
X1082750Y502000D02*
D03*
X1112000Y447000D02*
D03*
Y534000D02*
D03*
X1055000Y12000D02*
D03*
X959250Y103000D02*
D03*
X983000Y86000D02*
D03*
X1108000Y76000D02*
D03*
X1053000Y270000D02*
D03*
X1086000Y281000D02*
D03*
X1069000Y326000D02*
D03*
X1086000Y376000D02*
D03*
X1039000Y226000D02*
D03*
X1112000Y240000D02*
D03*
X1113000Y348000D02*
D03*
X947561Y631474D02*
D03*
X984656Y645000D02*
D03*
X985000Y635000D02*
D03*
X1020250Y624250D02*
D03*
X950000Y501000D02*
D03*
X985000Y515000D02*
D03*
X997000Y599000D02*
D03*
X950500Y534500D02*
D03*
X956000Y564250D02*
D03*
X964000Y557000D02*
D03*
X984000Y584000D02*
D03*
X985000Y574000D02*
D03*
X1016000Y501000D02*
D03*
X1019750Y596750D02*
D03*
X965105Y536000D02*
D03*
X933000Y613000D02*
D03*
X868412Y329048D02*
D03*
X791412Y435048D02*
D03*
X933500Y625750D02*
D03*
X1020000Y655630D02*
D03*
X688000Y687090D02*
D03*
X387500Y686500D02*
D03*
X463000Y687090D02*
D03*
X506000Y686000D02*
D03*
X760500Y447750D02*
D03*
X782732Y352368D02*
D03*
X680000Y129000D02*
D03*
X674180Y158280D02*
D03*
X678412Y187048D02*
D03*
X541000Y382048D02*
D03*
X547000Y301000D02*
D03*
X696000Y157000D02*
D03*
X785412Y295048D02*
D03*
X814242Y394284D02*
D03*
X816205Y386014D02*
D03*
X815750Y373750D02*
D03*
X855500Y403000D02*
D03*
X854750Y334500D02*
D03*
X825750Y157750D02*
D03*
X815000Y242353D02*
D03*
X596000Y108500D02*
D03*
X605804D02*
D03*
X872000Y430354D02*
D03*
X797000Y225000D02*
D03*
X319250Y187500D02*
D03*
X282000Y460250D02*
D03*
X266000Y444750D02*
D03*
X272000Y368500D02*
D03*
X265682Y362814D02*
D03*
X294250Y330500D02*
D03*
X292000Y376000D02*
D03*
X260000Y318750D02*
D03*
X278268Y305000D02*
D03*
X496000Y252000D02*
D03*
X488000Y316000D02*
D03*
X574000Y351000D02*
D03*
X292500Y467000D02*
D03*
X220000Y308000D02*
D03*
X227750Y292500D02*
D03*
X194500Y188281D02*
D03*
X195257Y107257D02*
D03*
X311000Y380000D02*
D03*
X215250Y175750D02*
D03*
X233600Y175000D02*
D03*
X244250Y177750D02*
D03*
X217218Y268703D02*
D03*
X299750Y176250D02*
D03*
X319000Y179000D02*
D03*
X392493Y129493D02*
D03*
X349750Y145000D02*
D03*
X652152Y146520D02*
D03*
X515000Y54000D02*
D03*
X570000Y295048D02*
D03*
X815950Y303950D02*
D03*
X720000Y129000D02*
D03*
X919000Y629000D02*
D03*
X899500Y256251D02*
D03*
X815388Y313135D02*
D03*
X940250Y234750D02*
D03*
X898500Y166500D02*
D03*
X880000Y129000D02*
D03*
X840000D02*
D03*
X994000Y415000D02*
D03*
X996000Y653000D02*
D03*
X536412Y186048D02*
D03*
X528332Y423775D02*
D03*
X900691Y395118D02*
D03*
X901500Y386657D02*
D03*
X901308Y372207D02*
D03*
X940250Y371000D02*
D03*
X916412Y465895D02*
D03*
X121000Y510000D02*
D03*
Y466000D02*
D03*
X595094Y120906D02*
D03*
X323000Y83000D02*
D03*
X688000Y74000D02*
D03*
X661412Y47000D02*
D03*
X131412Y714048D02*
D03*
X218412Y678048D02*
D03*
X733412Y446048D02*
D03*
X443412Y443048D02*
D03*
X588412Y442048D02*
D03*
X792412Y419048D02*
D03*
X109000Y575000D02*
D03*
X30000D02*
D03*
X890412Y594048D02*
D03*
X883412Y552048D02*
D03*
X142412Y494048D02*
D03*
X167412Y468048D02*
D03*
X547412Y115048D02*
D03*
X506412Y160048D02*
D03*
X611412Y157048D02*
D03*
X870412Y474048D02*
D03*
X867000Y233000D02*
D03*
X726000Y760000D02*
D03*
X659000Y736000D02*
D03*
X613000Y762000D02*
D03*
X570000Y736000D02*
D03*
X394724Y736923D02*
D03*
X501000Y760000D02*
D03*
X438000Y737000D02*
D03*
X306000Y656000D02*
D03*
X217000Y565000D02*
D03*
X258000Y543000D02*
D03*
X227000Y550000D02*
D03*
X22000Y357000D02*
D03*
X17000Y278000D02*
D03*
X133000Y273000D02*
D03*
X74000Y255000D02*
D03*
X49000Y120000D02*
D03*
X158000Y107000D02*
D03*
X196533Y9942D02*
D03*
X329000Y8000D02*
D03*
X332000Y112000D02*
D03*
X368000Y175000D02*
D03*
X113000Y194000D02*
D03*
X125318Y309305D02*
D03*
X161000Y268000D02*
D03*
X198000Y288000D02*
D03*
X260000Y282000D02*
D03*
X513000Y181000D02*
D03*
X251000Y340000D02*
D03*
X144896Y477510D02*
D03*
X652000Y189000D02*
D03*
X884000Y486750D02*
D03*
X886500Y506000D02*
D03*
X576000Y573000D02*
D03*
X821000Y555000D02*
D03*
X609971Y179029D02*
D03*
X595500Y160000D02*
D03*
X765000Y55000D02*
D03*
X606000Y120000D02*
D03*
X760000Y129000D02*
D03*
X765000Y85000D02*
D03*
X207829Y464259D02*
D03*
X216250Y448000D02*
D03*
X900750Y243500D02*
D03*
X901500Y307500D02*
D03*
X899250Y321000D02*
D03*
X113500Y151000D02*
D03*
X173500D02*
D03*
X60000Y169000D02*
D03*
X118750Y169750D02*
D03*
X297000Y502000D02*
D03*
X661750Y173250D02*
D03*
X514000Y527000D02*
D03*
Y517000D02*
D03*
Y507000D02*
D03*
X489000Y527000D02*
D03*
X499000D02*
D03*
X489000Y537000D02*
D03*
X499000D02*
D03*
Y547000D02*
D03*
X489000D02*
D03*
X499000Y557000D02*
D03*
X489000D02*
D03*
X939750Y403250D02*
D03*
X147000Y461000D02*
D03*
X596000Y133000D02*
D03*
X800000Y129000D02*
D03*
X930000Y237000D02*
D03*
X821000Y564000D02*
D03*
Y573000D02*
D03*
Y587000D02*
D03*
X795810Y552355D02*
D03*
X564000Y502000D02*
D03*
X634000Y557000D02*
D03*
Y547000D02*
D03*
X644000Y557000D02*
D03*
X634000Y537000D02*
D03*
X644000Y547000D02*
D03*
X419000Y502000D02*
D03*
X716000Y573000D02*
D03*
Y564000D02*
D03*
X576000D02*
D03*
X431000D02*
D03*
Y573000D02*
D03*
X395000Y25000D02*
D03*
X431000Y555000D02*
D03*
X564000Y582000D02*
D03*
X60000Y7000D02*
D03*
X7000Y60000D02*
D03*
Y710000D02*
D03*
X64000Y762000D02*
D03*
X344000Y557000D02*
D03*
X354000D02*
D03*
X344000Y547000D02*
D03*
X354000D02*
D03*
Y537000D02*
D03*
X344000D02*
D03*
X354000Y527000D02*
D03*
X344000D02*
D03*
X634000Y527000D02*
D03*
X644000D02*
D03*
Y537000D02*
D03*
X40000Y317000D02*
D03*
X515000Y25000D02*
D03*
X395000Y55000D02*
D03*
X225000Y103000D02*
D03*
Y12000D02*
D03*
X96000D02*
D03*
Y103000D02*
D03*
X169000Y60000D02*
D03*
X298000Y59000D02*
D03*
X123000Y60000D02*
D03*
X252000Y59000D02*
D03*
X769000Y545000D02*
D03*
X716000Y555000D02*
D03*
X576000D02*
D03*
X659000Y527000D02*
D03*
Y517000D02*
D03*
Y507000D02*
D03*
X369000Y507000D02*
D03*
Y517000D02*
D03*
Y527000D02*
D03*
X719000Y502000D02*
D03*
X704000D02*
D03*
Y582000D02*
D03*
X419000D02*
D03*
M02*
