M48
;Layer_Color=9474304
;FILE_FORMAT=4:4
METRIC,LZ
;TYPE=PLATED
T1F00S00C0.3000
T3F00S00C0.8000
T4F00S00C0.9000
T5F00S00C1.0000
T6F00S00C1.1000
T7F00S00C1.7000
T8F00S00C3.5000
%
T01
X0006Y00007
X00096Y00012
X00123Y0006
X00169
X00158Y00107
X00195257Y00107257
X00225Y00103
X00252Y00059
X00298
X00323Y00083
X00332Y00112
X00366Y001065
X0034975Y00145
X00368Y00175
X00319Y00179
X0031925Y001875
X0029975Y0017625
X0024425Y0017775
X002336Y00175
X0021525Y0017575
X001945Y00188281
X001735Y00151
X001135
X0011875Y0016975
X00113Y00194
X0006Y00169
X00049Y0012
X00096Y00103
X00007Y0006
X00017Y00278
X0004Y00317
X00125318Y00309305
X00133Y00273
X00161Y00268
X00217218Y00268703
X0022775Y002925
X0022Y00308
X00198Y00288
X0026Y00282
Y0031875
X00278268Y00305
X00074Y00255
X00196533Y00009942
X00225Y00012
X00329Y00008
X00395Y00025
Y00055
X00394233Y00084233
X00392493Y00129493
X00464469Y00058997
X00515Y00054
Y00025
Y00085
X00547412Y00115048
X00595094Y00120906
X00606Y0012
X00605804Y001085
X00596
Y00133
X005955Y0016
X00611412Y00157048
X00609971Y00179029
X00652Y00189
X0066175Y0017325
X0067418Y0015828
X00696Y00157
X0068Y00129
X0072
X0076
X00765Y00085
Y00055
X00688Y00074
X00659Y00096
X00661412Y00047
X00652152Y0014652
X00678412Y00187048
X00690412Y00203048
X00536412Y00186048
X00513Y00181
X00506412Y00160048
X00496Y00252
X00488Y00316
X00547Y00301
X0057Y00295048
X00785412
X0081595Y0030395
X00815388Y00313135
X00868Y0031325
X00858056Y00296843
X00854875Y00268
X00855926Y00235826
X00847296Y00237804
X00867Y00233
X0090075Y002435
X008995Y00256251
X00926Y00264
X0094Y00268
X0094025Y00301
X009015Y003075
X0089925Y00321
X0090375Y0028725
X0093Y00237
X0094025Y0023475
X01039Y00226
X01053Y0027
X01086Y00281
X01112Y0024
X01085Y00155
X01044Y00127
X010555Y0009625
X01108Y00076
X01055Y00012
X00983Y00086
X0095925Y00103
X0088Y00129
X0084
X008
X0080325Y001665
X0082575Y0015775
X008985Y001665
X00815Y00242353
X00814Y0025725
X00797Y00225
X00813977Y00326463
X0085475Y003345
X00868412Y00329048
X008555Y0037025
X008395Y00358
X0081575Y0037375
X00816205Y00386014
X00814242Y00394284
X00792412Y00419048
X00791412Y00435048
X00872Y00430354
X008555Y00403
X00900691Y00395118
X009015Y00386657
X00901308Y00372207
X0094025Y00371
X0093975Y0040325
X00994Y00415
X010145Y0044799
X01016Y00501
X0102Y00535
X0102Y0056325
X01002Y00553
X00985Y00574
X00984Y00584
X00997Y00599
X0101975Y0059675
X0102025Y0062425
X0102Y0065563
X01032052Y00645052
X00996Y00653
X00984656Y00645
X00985Y00635
X00947561Y00631474
X009335Y0062575
X00933Y00613
X00919Y00629
X00890412Y00594048
X00883412Y00552048
X008865Y00506
X00884Y0048675
X00870412Y00474048
X00916412Y00465895
X0095Y00501
X009505Y005345
X00965105Y00536
X00964Y00557
X00956Y0056425
X00985Y00515
X0108275Y00502
X01112Y00534
X01103Y00605
X01113Y00708
X01112Y00447
X01059Y00411
X0105045Y0038945
X01086Y00376
X01113Y00348
X01069Y00326
X010335Y0033
X0094025Y00333
X00782732Y00352368
X00769Y00545
X0079581Y00552355
X00821Y00555
Y00564
Y00573
Y00587
X00716Y00573
Y00564
Y00555
X00704Y00582
Y00502
X00719
X00659Y00507
Y00517
Y00527
X00644Y00527
Y00537
X00634
Y00527
Y00547
Y00557
X00644
Y00547
X00576Y00555
Y00564
Y00573
X00564Y00582
Y00502
X00514Y00507
Y00517
Y00527
X00499Y00527
Y00537
X00489
Y00527
Y00547
X00499
Y00557
X00489
X00431Y00555
Y00564
Y00573
X00419Y00582
Y00502
X00443412Y00443048
X00528332Y00423775
X00541Y00382048
X00574Y00351
X00588412Y00442048
X00733412Y00446048
X007605Y0044775
X00688Y0068709
X00506Y00686
X00463Y0068709
X003875Y006865
X00306Y00656
X00218412Y00678048
X00217Y00565
X00227Y0055
X00258Y00543
X00297Y00502
X002925Y00467
X00282Y0046025
X00266Y0044475
X0021625Y00448
X00207829Y00464259
X00167412Y00468048
X00147Y00461
X00144896Y0047751
X00142412Y00494048
X00121Y0051
Y00466
X00109Y00575
X0003
X00007Y0071
X00131412Y00714048
X00344Y00557
X00354
Y00547
X00344
Y00537
Y00527
X00354
Y00537
X00369Y00527
Y00517
Y00507
X00311Y0038
X00292Y00376
X00272Y003685
X00265682Y00362814
X00251Y0034
X0029425Y003305
X00022Y00357
X00064Y00762
X00394724Y00736923
X00438Y00737
X00501Y0076
X0057Y00736
X00613Y00762
X00659Y00736
X00726Y0076
X01058Y00762
T03
X00175Y0061
Y0063
Y0065
T04
X010482Y0043165
Y0045165
Y0047165
Y0049165
Y0051165
Y0053165
Y0055165
Y0057165
Y0059165
Y0061165
X010682
Y0059165
Y0057165
Y0055165
Y0053165
Y0051165
Y0049165
Y0047165
Y0045165
Y0043165
T05
X000244Y002272
X000498
X000752
X001006
X00126
X001514
X001768
X002022
X002276
X00253
X002784
X003038
X003292
X003546
X0038
X004054
X004308
X004562
X004816
X00507
X009975Y002362
Y002616
Y00287
Y003124
X010229
Y00287
Y002616
Y002362
Y002108
X009975
Y001854
X010229
Y0016
X009975
Y003378
Y003632
Y003886
X010229
Y003632
Y003378
X010171Y007043
X009917
X009663
X009409
X00507Y00405
X004816
X004562
X004308
X004054
X0038
X003546
X003292
X003038
X002784
X00253
X002276
X002022
X001768
X001514
X00126
X001006
X000752
X000498
X000244
X0025Y007405
X0036
X0076
X0087
X009409Y007297
X009663
X009917
X010171
T06
X0081Y00024
X009592Y000405
X009846
X0101
X010354
X00968Y00455
X0072Y0066
X0042
T07
X0079Y006405
X0084
X0033
X0028
T08
X00035Y00035
X01085
X00035Y00735
X01085
M30
