G04*
G04 #@! TF.GenerationSoftware,Altium Limited,Altium Designer,23.3.1 (30)*
G04*
G04 Layer_Color=8388736*
%FSLAX44Y44*%
%MOMM*%
G71*
G04*
G04 #@! TF.SameCoordinates,CE036B66-C370-4B77-A0BB-D4AF881507E5*
G04*
G04*
G04 #@! TF.FilePolarity,Negative*
G04*
G01*
G75*
G04:AMPARAMS|DCode=32|XSize=0.95mm|YSize=0.95mm|CornerRadius=0.2625mm|HoleSize=0mm|Usage=FLASHONLY|Rotation=90.000|XOffset=0mm|YOffset=0mm|HoleType=Round|Shape=RoundedRectangle|*
%AMROUNDEDRECTD32*
21,1,0.9500,0.4250,0,0,90.0*
21,1,0.4250,0.9500,0,0,90.0*
1,1,0.5250,0.2125,0.2125*
1,1,0.5250,0.2125,-0.2125*
1,1,0.5250,-0.2125,-0.2125*
1,1,0.5250,-0.2125,0.2125*
%
%ADD32ROUNDEDRECTD32*%
G04:AMPARAMS|DCode=33|XSize=1.5mm|YSize=1.5mm|CornerRadius=0.4mm|HoleSize=0mm|Usage=FLASHONLY|Rotation=0.000|XOffset=0mm|YOffset=0mm|HoleType=Round|Shape=RoundedRectangle|*
%AMROUNDEDRECTD33*
21,1,1.5000,0.7000,0,0,0.0*
21,1,0.7000,1.5000,0,0,0.0*
1,1,0.8000,0.3500,-0.3500*
1,1,0.8000,-0.3500,-0.3500*
1,1,0.8000,-0.3500,0.3500*
1,1,0.8000,0.3500,0.3500*
%
%ADD33ROUNDEDRECTD33*%
%ADD34R,1.3000X1.0000*%
%ADD35C,2.0000*%
G04:AMPARAMS|DCode=36|XSize=1.29mm|YSize=0.5mm|CornerRadius=0.1mm|HoleSize=0mm|Usage=FLASHONLY|Rotation=0.000|XOffset=0mm|YOffset=0mm|HoleType=Round|Shape=RoundedRectangle|*
%AMROUNDEDRECTD36*
21,1,1.2900,0.3000,0,0,0.0*
21,1,1.0900,0.5000,0,0,0.0*
1,1,0.2000,0.5450,-0.1500*
1,1,0.2000,-0.5450,-0.1500*
1,1,0.2000,-0.5450,0.1500*
1,1,0.2000,0.5450,0.1500*
%
%ADD36ROUNDEDRECTD36*%
G04:AMPARAMS|DCode=37|XSize=1.31mm|YSize=0.69mm|CornerRadius=0.1238mm|HoleSize=0mm|Usage=FLASHONLY|Rotation=0.000|XOffset=0mm|YOffset=0mm|HoleType=Round|Shape=RoundedRectangle|*
%AMROUNDEDRECTD37*
21,1,1.3100,0.4425,0,0,0.0*
21,1,1.0625,0.6900,0,0,0.0*
1,1,0.2475,0.5313,-0.2213*
1,1,0.2475,-0.5313,-0.2213*
1,1,0.2475,-0.5313,0.2213*
1,1,0.2475,0.5313,0.2213*
%
%ADD37ROUNDEDRECTD37*%
G04:AMPARAMS|DCode=38|XSize=0.95mm|YSize=0.95mm|CornerRadius=0.2625mm|HoleSize=0mm|Usage=FLASHONLY|Rotation=0.000|XOffset=0mm|YOffset=0mm|HoleType=Round|Shape=RoundedRectangle|*
%AMROUNDEDRECTD38*
21,1,0.9500,0.4250,0,0,0.0*
21,1,0.4250,0.9500,0,0,0.0*
1,1,0.5250,0.2125,-0.2125*
1,1,0.5250,-0.2125,-0.2125*
1,1,0.5250,-0.2125,0.2125*
1,1,0.5250,0.2125,0.2125*
%
%ADD38ROUNDEDRECTD38*%
G04:AMPARAMS|DCode=39|XSize=1.1mm|YSize=1.5mm|CornerRadius=0.3mm|HoleSize=0mm|Usage=FLASHONLY|Rotation=270.000|XOffset=0mm|YOffset=0mm|HoleType=Round|Shape=RoundedRectangle|*
%AMROUNDEDRECTD39*
21,1,1.1000,0.9000,0,0,270.0*
21,1,0.5000,1.5000,0,0,270.0*
1,1,0.6000,-0.4500,-0.2500*
1,1,0.6000,-0.4500,0.2500*
1,1,0.6000,0.4500,0.2500*
1,1,0.6000,0.4500,-0.2500*
%
%ADD39ROUNDEDRECTD39*%
%ADD40O,4.1000X2.1000*%
G04:AMPARAMS|DCode=41|XSize=1.1mm|YSize=1.5mm|CornerRadius=0.3mm|HoleSize=0mm|Usage=FLASHONLY|Rotation=180.000|XOffset=0mm|YOffset=0mm|HoleType=Round|Shape=RoundedRectangle|*
%AMROUNDEDRECTD41*
21,1,1.1000,0.9000,0,0,180.0*
21,1,0.5000,1.5000,0,0,180.0*
1,1,0.6000,-0.2500,0.4500*
1,1,0.6000,0.2500,0.4500*
1,1,0.6000,0.2500,-0.4500*
1,1,0.6000,-0.2500,-0.4500*
%
%ADD41ROUNDEDRECTD41*%
G04:AMPARAMS|DCode=42|XSize=1.24mm|YSize=0.69mm|CornerRadius=0.1975mm|HoleSize=0mm|Usage=FLASHONLY|Rotation=270.000|XOffset=0mm|YOffset=0mm|HoleType=Round|Shape=RoundedRectangle|*
%AMROUNDEDRECTD42*
21,1,1.2400,0.2950,0,0,270.0*
21,1,0.8450,0.6900,0,0,270.0*
1,1,0.3950,-0.1475,-0.4225*
1,1,0.3950,-0.1475,0.4225*
1,1,0.3950,0.1475,0.4225*
1,1,0.3950,0.1475,-0.4225*
%
%ADD42ROUNDEDRECTD42*%
G04:AMPARAMS|DCode=43|XSize=3.9mm|YSize=2.1mm|CornerRadius=0.55mm|HoleSize=0mm|Usage=FLASHONLY|Rotation=270.000|XOffset=0mm|YOffset=0mm|HoleType=Round|Shape=RoundedRectangle|*
%AMROUNDEDRECTD43*
21,1,3.9000,1.0000,0,0,270.0*
21,1,2.8000,2.1000,0,0,270.0*
1,1,1.1000,-0.5000,-1.4000*
1,1,1.1000,-0.5000,1.4000*
1,1,1.1000,0.5000,1.4000*
1,1,1.1000,0.5000,-1.4000*
%
%ADD43ROUNDEDRECTD43*%
G04:AMPARAMS|DCode=44|XSize=1.6mm|YSize=2.1mm|CornerRadius=0.425mm|HoleSize=0mm|Usage=FLASHONLY|Rotation=270.000|XOffset=0mm|YOffset=0mm|HoleType=Round|Shape=RoundedRectangle|*
%AMROUNDEDRECTD44*
21,1,1.6000,1.2500,0,0,270.0*
21,1,0.7500,2.1000,0,0,270.0*
1,1,0.8500,-0.6250,-0.3750*
1,1,0.8500,-0.6250,0.3750*
1,1,0.8500,0.6250,0.3750*
1,1,0.8500,0.6250,-0.3750*
%
%ADD44ROUNDEDRECTD44*%
G04:AMPARAMS|DCode=45|XSize=1.65mm|YSize=1.4mm|CornerRadius=0.375mm|HoleSize=0mm|Usage=FLASHONLY|Rotation=90.000|XOffset=0mm|YOffset=0mm|HoleType=Round|Shape=RoundedRectangle|*
%AMROUNDEDRECTD45*
21,1,1.6500,0.6500,0,0,90.0*
21,1,0.9000,1.4000,0,0,90.0*
1,1,0.7500,0.3250,0.4500*
1,1,0.7500,0.3250,-0.4500*
1,1,0.7500,-0.3250,-0.4500*
1,1,0.7500,-0.3250,0.4500*
%
%ADD45ROUNDEDRECTD45*%
G04:AMPARAMS|DCode=46|XSize=2.0812mm|YSize=0.6334mm|CornerRadius=0.1834mm|HoleSize=0mm|Usage=FLASHONLY|Rotation=0.000|XOffset=0mm|YOffset=0mm|HoleType=Round|Shape=RoundedRectangle|*
%AMROUNDEDRECTD46*
21,1,2.0812,0.2667,0,0,0.0*
21,1,1.7145,0.6334,0,0,0.0*
1,1,0.3667,0.8573,-0.1333*
1,1,0.3667,-0.8573,-0.1333*
1,1,0.3667,-0.8573,0.1333*
1,1,0.3667,0.8573,0.1333*
%
%ADD46ROUNDEDRECTD46*%
G04:AMPARAMS|DCode=47|XSize=1.6mm|YSize=1.6mm|CornerRadius=0.35mm|HoleSize=0mm|Usage=FLASHONLY|Rotation=90.000|XOffset=0mm|YOffset=0mm|HoleType=Round|Shape=RoundedRectangle|*
%AMROUNDEDRECTD47*
21,1,1.6000,0.9000,0,0,90.0*
21,1,0.9000,1.6000,0,0,90.0*
1,1,0.7000,0.4500,0.4500*
1,1,0.7000,0.4500,-0.4500*
1,1,0.7000,-0.4500,-0.4500*
1,1,0.7000,-0.4500,0.4500*
%
%ADD47ROUNDEDRECTD47*%
%ADD48O,1.9000X1.2000*%
%ADD49O,1.5500X1.1500*%
%ADD50O,1.8000X2.1000*%
%ADD51R,1.8000X2.1000*%
%ADD52C,1.7000*%
G04:AMPARAMS|DCode=53|XSize=1.7mm|YSize=1.7mm|CornerRadius=0.45mm|HoleSize=0mm|Usage=FLASHONLY|Rotation=180.000|XOffset=0mm|YOffset=0mm|HoleType=Round|Shape=RoundedRectangle|*
%AMROUNDEDRECTD53*
21,1,1.7000,0.8000,0,0,180.0*
21,1,0.8000,1.7000,0,0,180.0*
1,1,0.9000,-0.4000,0.4000*
1,1,0.9000,0.4000,0.4000*
1,1,0.9000,0.4000,-0.4000*
1,1,0.9000,-0.4000,-0.4000*
%
%ADD53ROUNDEDRECTD53*%
%ADD54C,0.1000*%
G04:AMPARAMS|DCode=55|XSize=1.8mm|YSize=2.1mm|CornerRadius=0.475mm|HoleSize=0mm|Usage=FLASHONLY|Rotation=90.000|XOffset=0mm|YOffset=0mm|HoleType=Round|Shape=RoundedRectangle|*
%AMROUNDEDRECTD55*
21,1,1.8000,1.1500,0,0,90.0*
21,1,0.8500,2.1000,0,0,90.0*
1,1,0.9500,0.5750,0.4250*
1,1,0.9500,0.5750,-0.4250*
1,1,0.9500,-0.5750,-0.4250*
1,1,0.9500,-0.5750,0.4250*
%
%ADD55ROUNDEDRECTD55*%
%ADD56C,1.4000*%
G04:AMPARAMS|DCode=57|XSize=1.4mm|YSize=1.4mm|CornerRadius=0.375mm|HoleSize=0mm|Usage=FLASHONLY|Rotation=90.000|XOffset=0mm|YOffset=0mm|HoleType=Round|Shape=RoundedRectangle|*
%AMROUNDEDRECTD57*
21,1,1.4000,0.6500,0,0,90.0*
21,1,0.6500,1.4000,0,0,90.0*
1,1,0.7500,0.3250,0.3250*
1,1,0.7500,0.3250,-0.3250*
1,1,0.7500,-0.3250,-0.3250*
1,1,0.7500,-0.3250,0.3250*
%
%ADD57ROUNDEDRECTD57*%
G04:AMPARAMS|DCode=58|XSize=1.7mm|YSize=1.7mm|CornerRadius=0.45mm|HoleSize=0mm|Usage=FLASHONLY|Rotation=90.000|XOffset=0mm|YOffset=0mm|HoleType=Round|Shape=RoundedRectangle|*
%AMROUNDEDRECTD58*
21,1,1.7000,0.8000,0,0,90.0*
21,1,0.8000,1.7000,0,0,90.0*
1,1,0.9000,0.4000,0.4000*
1,1,0.9000,0.4000,-0.4000*
1,1,0.9000,-0.4000,-0.4000*
1,1,0.9000,-0.4000,0.4000*
%
%ADD58ROUNDEDRECTD58*%
%ADD59C,1.6080*%
%ADD60C,2.6500*%
%ADD61R,2.6500X2.6500*%
%ADD62O,1.9000X1.1000*%
%ADD63C,1.3000*%
%ADD64O,1.6240X2.0050*%
G36*
X722840Y433218D02*
X716266Y425522D01*
X711801Y429336D01*
X718375Y437032D01*
X722840Y433218D01*
D02*
G37*
G36*
X645137Y421850D02*
X638693Y421394D01*
X637860Y433162D01*
X644304Y433619D01*
X645137Y421850D01*
D02*
G37*
G36*
X676570Y419910D02*
X669037Y418194D01*
X666607Y428858D01*
X674139Y430574D01*
X676570Y419910D01*
D02*
G37*
G36*
X516000Y405000D02*
X515988Y404529D01*
X515951Y404059D01*
X515889Y403592D01*
X515803Y403129D01*
X515693Y402671D01*
X515560Y402219D01*
X515402Y401775D01*
X515222Y401339D01*
X515019Y400914D01*
X514794Y400500D01*
X514548Y400098D01*
X514281Y399710D01*
X513994Y399336D01*
X513688Y398978D01*
X513364Y398636D01*
X513022Y398312D01*
X512664Y398006D01*
X512290Y397719D01*
X511902Y397452D01*
X511500Y397206D01*
X511086Y396981D01*
X510661Y396778D01*
X510225Y396598D01*
X509781Y396441D01*
X509329Y396307D01*
X508871Y396197D01*
X508408Y396111D01*
X507941Y396049D01*
X507471Y396012D01*
X507000Y396000D01*
X506529Y396012D01*
X506059Y396049D01*
X505592Y396111D01*
X505129Y396197D01*
X504671Y396307D01*
X504219Y396441D01*
X503775Y396598D01*
X503339Y396778D01*
X502914Y396981D01*
X502500Y397206D01*
X502098Y397452D01*
X501710Y397719D01*
X501336Y398006D01*
X500978Y398312D01*
X500636Y398636D01*
X500312Y398978D01*
X500006Y399336D01*
X499719Y399710D01*
X499452Y400098D01*
X499206Y400500D01*
X498981Y400914D01*
X498778Y401339D01*
X498598Y401775D01*
X498441Y402219D01*
X498307Y402671D01*
X498197Y403129D01*
X498111Y403592D01*
X498049Y404059D01*
X498012Y404529D01*
X498000Y405000D01*
Y430000D01*
X516000D01*
Y405000D01*
D02*
G37*
G36*
X490600D02*
X490588Y404529D01*
X490551Y404059D01*
X490489Y403592D01*
X490403Y403129D01*
X490293Y402671D01*
X490159Y402219D01*
X490002Y401775D01*
X489822Y401339D01*
X489619Y400914D01*
X489394Y400500D01*
X489148Y400098D01*
X488881Y399710D01*
X488594Y399336D01*
X488288Y398978D01*
X487964Y398636D01*
X487622Y398312D01*
X487264Y398006D01*
X486890Y397719D01*
X486502Y397452D01*
X486100Y397206D01*
X485686Y396981D01*
X485261Y396778D01*
X484825Y396598D01*
X484381Y396441D01*
X483929Y396307D01*
X483471Y396197D01*
X483008Y396111D01*
X482541Y396049D01*
X482071Y396012D01*
X481600Y396000D01*
X481129Y396012D01*
X480659Y396049D01*
X480192Y396111D01*
X479729Y396197D01*
X479271Y396307D01*
X478819Y396441D01*
X478375Y396598D01*
X477939Y396778D01*
X477514Y396981D01*
X477100Y397206D01*
X476698Y397452D01*
X476310Y397719D01*
X475936Y398006D01*
X475578Y398312D01*
X475236Y398636D01*
X474912Y398978D01*
X474606Y399336D01*
X474319Y399710D01*
X474052Y400098D01*
X473806Y400500D01*
X473581Y400914D01*
X473378Y401339D01*
X473198Y401775D01*
X473041Y402219D01*
X472907Y402671D01*
X472797Y403129D01*
X472711Y403592D01*
X472649Y404059D01*
X472612Y404529D01*
X472600Y405000D01*
Y430000D01*
X490600D01*
Y405000D01*
D02*
G37*
G36*
X465200Y399000D02*
X465196Y398843D01*
X465184Y398686D01*
X465163Y398531D01*
X465135Y398376D01*
X465098Y398223D01*
X465053Y398073D01*
X465001Y397925D01*
X464941Y397780D01*
X464873Y397638D01*
X464798Y397500D01*
X464716Y397366D01*
X464627Y397237D01*
X464531Y397112D01*
X464429Y396993D01*
X464321Y396879D01*
X464207Y396771D01*
X464088Y396669D01*
X463963Y396573D01*
X463834Y396484D01*
X463700Y396402D01*
X463562Y396327D01*
X463420Y396259D01*
X463275Y396199D01*
X463127Y396147D01*
X462976Y396102D01*
X462824Y396065D01*
X462669Y396037D01*
X462514Y396016D01*
X462357Y396004D01*
X462200Y396000D01*
X450200D01*
X450043Y396004D01*
X449886Y396016D01*
X449731Y396037D01*
X449576Y396065D01*
X449423Y396102D01*
X449273Y396147D01*
X449125Y396199D01*
X448980Y396259D01*
X448838Y396327D01*
X448700Y396402D01*
X448566Y396484D01*
X448437Y396573D01*
X448312Y396669D01*
X448193Y396771D01*
X448079Y396879D01*
X447971Y396993D01*
X447869Y397112D01*
X447773Y397237D01*
X447684Y397366D01*
X447602Y397500D01*
X447527Y397638D01*
X447459Y397780D01*
X447399Y397925D01*
X447347Y398073D01*
X447302Y398223D01*
X447266Y398376D01*
X447237Y398531D01*
X447216Y398686D01*
X447204Y398843D01*
X447200Y399000D01*
Y430000D01*
X465200D01*
Y399000D01*
D02*
G37*
G36*
X439800Y405000D02*
X439788Y404529D01*
X439751Y404059D01*
X439689Y403592D01*
X439603Y403129D01*
X439493Y402671D01*
X439360Y402219D01*
X439202Y401775D01*
X439022Y401339D01*
X438819Y400914D01*
X438594Y400500D01*
X438348Y400098D01*
X438081Y399710D01*
X437794Y399336D01*
X437488Y398978D01*
X437164Y398636D01*
X436822Y398312D01*
X436464Y398006D01*
X436090Y397719D01*
X435702Y397452D01*
X435300Y397206D01*
X434886Y396981D01*
X434461Y396778D01*
X434025Y396598D01*
X433581Y396441D01*
X433129Y396307D01*
X432671Y396197D01*
X432208Y396111D01*
X431741Y396049D01*
X431271Y396012D01*
X430800Y396000D01*
X430329Y396012D01*
X429859Y396049D01*
X429392Y396111D01*
X428929Y396197D01*
X428471Y396307D01*
X428019Y396441D01*
X427575Y396598D01*
X427139Y396778D01*
X426714Y396981D01*
X426300Y397206D01*
X425898Y397452D01*
X425510Y397719D01*
X425136Y398006D01*
X424778Y398312D01*
X424436Y398636D01*
X424112Y398978D01*
X423806Y399336D01*
X423519Y399710D01*
X423252Y400098D01*
X423006Y400500D01*
X422781Y400914D01*
X422578Y401339D01*
X422398Y401775D01*
X422240Y402219D01*
X422107Y402671D01*
X421997Y403129D01*
X421911Y403592D01*
X421849Y404059D01*
X421812Y404529D01*
X421800Y405000D01*
Y430000D01*
X439800D01*
Y405000D01*
D02*
G37*
G36*
X414400D02*
X414388Y404529D01*
X414351Y404059D01*
X414289Y403592D01*
X414203Y403129D01*
X414093Y402671D01*
X413960Y402219D01*
X413802Y401775D01*
X413622Y401339D01*
X413419Y400914D01*
X413194Y400500D01*
X412948Y400098D01*
X412681Y399710D01*
X412394Y399336D01*
X412088Y398978D01*
X411764Y398636D01*
X411422Y398312D01*
X411064Y398006D01*
X410690Y397719D01*
X410302Y397452D01*
X409900Y397206D01*
X409486Y396981D01*
X409061Y396778D01*
X408625Y396598D01*
X408181Y396441D01*
X407729Y396307D01*
X407271Y396197D01*
X406808Y396111D01*
X406341Y396049D01*
X405871Y396012D01*
X405400Y396000D01*
X404929Y396012D01*
X404459Y396049D01*
X403992Y396111D01*
X403529Y396197D01*
X403071Y396307D01*
X402619Y396441D01*
X402175Y396598D01*
X401739Y396778D01*
X401314Y396981D01*
X400900Y397206D01*
X400498Y397452D01*
X400110Y397719D01*
X399736Y398006D01*
X399378Y398312D01*
X399036Y398636D01*
X398712Y398978D01*
X398406Y399336D01*
X398119Y399710D01*
X397852Y400098D01*
X397606Y400500D01*
X397381Y400914D01*
X397178Y401339D01*
X396998Y401775D01*
X396841Y402219D01*
X396707Y402671D01*
X396597Y403129D01*
X396511Y403592D01*
X396449Y404059D01*
X396412Y404529D01*
X396400Y405000D01*
Y430000D01*
X414400D01*
Y405000D01*
D02*
G37*
G36*
X389000D02*
X388988Y404529D01*
X388951Y404059D01*
X388889Y403592D01*
X388803Y403129D01*
X388693Y402671D01*
X388559Y402219D01*
X388402Y401775D01*
X388222Y401339D01*
X388019Y400914D01*
X387794Y400500D01*
X387548Y400098D01*
X387281Y399710D01*
X386994Y399336D01*
X386688Y398978D01*
X386364Y398636D01*
X386022Y398312D01*
X385664Y398006D01*
X385290Y397719D01*
X384902Y397452D01*
X384500Y397206D01*
X384086Y396981D01*
X383661Y396778D01*
X383225Y396598D01*
X382781Y396441D01*
X382329Y396307D01*
X381871Y396197D01*
X381408Y396111D01*
X380941Y396049D01*
X380471Y396012D01*
X380000Y396000D01*
X379529Y396012D01*
X379059Y396049D01*
X378592Y396111D01*
X378129Y396197D01*
X377671Y396307D01*
X377219Y396441D01*
X376775Y396598D01*
X376339Y396778D01*
X375914Y396981D01*
X375500Y397206D01*
X375098Y397452D01*
X374710Y397719D01*
X374336Y398006D01*
X373978Y398312D01*
X373636Y398636D01*
X373312Y398978D01*
X373006Y399336D01*
X372719Y399710D01*
X372452Y400098D01*
X372206Y400500D01*
X371981Y400914D01*
X371778Y401339D01*
X371598Y401775D01*
X371441Y402219D01*
X371307Y402671D01*
X371197Y403129D01*
X371111Y403592D01*
X371049Y404059D01*
X371012Y404529D01*
X371000Y405000D01*
Y430000D01*
X389000D01*
Y405000D01*
D02*
G37*
G36*
X363600D02*
X363588Y404529D01*
X363551Y404059D01*
X363489Y403592D01*
X363403Y403129D01*
X363293Y402671D01*
X363159Y402219D01*
X363002Y401775D01*
X362822Y401339D01*
X362619Y400914D01*
X362394Y400500D01*
X362148Y400098D01*
X361881Y399710D01*
X361594Y399336D01*
X361288Y398978D01*
X360964Y398636D01*
X360622Y398312D01*
X360264Y398006D01*
X359890Y397719D01*
X359502Y397452D01*
X359100Y397206D01*
X358686Y396981D01*
X358261Y396778D01*
X357825Y396598D01*
X357381Y396441D01*
X356929Y396307D01*
X356471Y396197D01*
X356008Y396111D01*
X355541Y396049D01*
X355071Y396012D01*
X354600Y396000D01*
X354129Y396012D01*
X353659Y396049D01*
X353192Y396111D01*
X352729Y396197D01*
X352271Y396307D01*
X351819Y396441D01*
X351375Y396598D01*
X350939Y396778D01*
X350514Y396981D01*
X350100Y397206D01*
X349698Y397452D01*
X349310Y397719D01*
X348936Y398006D01*
X348578Y398312D01*
X348236Y398636D01*
X347912Y398978D01*
X347606Y399336D01*
X347319Y399710D01*
X347052Y400098D01*
X346806Y400500D01*
X346581Y400914D01*
X346378Y401339D01*
X346198Y401775D01*
X346040Y402219D01*
X345907Y402671D01*
X345797Y403129D01*
X345711Y403592D01*
X345649Y404059D01*
X345612Y404529D01*
X345600Y405000D01*
Y430000D01*
X363600D01*
Y405000D01*
D02*
G37*
G36*
X338200Y399000D02*
X338196Y398843D01*
X338184Y398686D01*
X338163Y398531D01*
X338134Y398376D01*
X338098Y398223D01*
X338053Y398073D01*
X338001Y397925D01*
X337941Y397780D01*
X337873Y397638D01*
X337798Y397500D01*
X337716Y397366D01*
X337627Y397237D01*
X337531Y397112D01*
X337429Y396993D01*
X337321Y396879D01*
X337207Y396771D01*
X337088Y396669D01*
X336963Y396573D01*
X336834Y396484D01*
X336700Y396402D01*
X336562Y396327D01*
X336420Y396259D01*
X336275Y396199D01*
X336127Y396147D01*
X335976Y396102D01*
X335824Y396065D01*
X335669Y396037D01*
X335514Y396016D01*
X335357Y396004D01*
X335200Y396000D01*
X323200D01*
X323043Y396004D01*
X322886Y396016D01*
X322731Y396037D01*
X322576Y396065D01*
X322424Y396102D01*
X322273Y396147D01*
X322125Y396199D01*
X321980Y396259D01*
X321838Y396327D01*
X321700Y396402D01*
X321566Y396484D01*
X321437Y396573D01*
X321312Y396669D01*
X321193Y396771D01*
X321079Y396879D01*
X320971Y396993D01*
X320869Y397112D01*
X320773Y397237D01*
X320684Y397366D01*
X320602Y397500D01*
X320527Y397638D01*
X320459Y397780D01*
X320399Y397925D01*
X320347Y398073D01*
X320302Y398223D01*
X320266Y398376D01*
X320237Y398531D01*
X320216Y398686D01*
X320204Y398843D01*
X320200Y399000D01*
Y430000D01*
X338200D01*
Y399000D01*
D02*
G37*
G36*
X312800Y405000D02*
X312788Y404529D01*
X312751Y404059D01*
X312689Y403592D01*
X312603Y403129D01*
X312493Y402671D01*
X312360Y402219D01*
X312202Y401775D01*
X312022Y401339D01*
X311819Y400914D01*
X311594Y400500D01*
X311348Y400098D01*
X311081Y399710D01*
X310794Y399336D01*
X310488Y398978D01*
X310164Y398636D01*
X309822Y398312D01*
X309464Y398006D01*
X309090Y397719D01*
X308702Y397452D01*
X308300Y397206D01*
X307886Y396981D01*
X307461Y396778D01*
X307025Y396598D01*
X306581Y396441D01*
X306129Y396307D01*
X305671Y396197D01*
X305208Y396111D01*
X304741Y396049D01*
X304271Y396012D01*
X303800Y396000D01*
X303329Y396012D01*
X302859Y396049D01*
X302392Y396111D01*
X301929Y396197D01*
X301471Y396307D01*
X301019Y396441D01*
X300575Y396598D01*
X300139Y396778D01*
X299714Y396981D01*
X299300Y397206D01*
X298898Y397452D01*
X298510Y397719D01*
X298136Y398006D01*
X297778Y398312D01*
X297436Y398636D01*
X297112Y398978D01*
X296806Y399336D01*
X296519Y399710D01*
X296252Y400098D01*
X296006Y400500D01*
X295781Y400914D01*
X295578Y401339D01*
X295398Y401775D01*
X295240Y402219D01*
X295107Y402671D01*
X294997Y403129D01*
X294911Y403592D01*
X294849Y404059D01*
X294812Y404529D01*
X294800Y405000D01*
Y430000D01*
X312800D01*
Y405000D01*
D02*
G37*
G36*
X287400D02*
X287388Y404529D01*
X287351Y404059D01*
X287289Y403592D01*
X287203Y403129D01*
X287093Y402671D01*
X286959Y402219D01*
X286802Y401775D01*
X286622Y401339D01*
X286419Y400914D01*
X286194Y400500D01*
X285948Y400098D01*
X285681Y399710D01*
X285394Y399336D01*
X285088Y398978D01*
X284764Y398636D01*
X284422Y398312D01*
X284064Y398006D01*
X283690Y397719D01*
X283302Y397452D01*
X282900Y397206D01*
X282486Y396981D01*
X282061Y396778D01*
X281625Y396598D01*
X281181Y396441D01*
X280729Y396307D01*
X280271Y396197D01*
X279808Y396111D01*
X279341Y396049D01*
X278871Y396012D01*
X278400Y396000D01*
X277929Y396012D01*
X277459Y396049D01*
X276992Y396111D01*
X276529Y396197D01*
X276071Y396307D01*
X275619Y396441D01*
X275175Y396598D01*
X274739Y396778D01*
X274314Y396981D01*
X273900Y397206D01*
X273498Y397452D01*
X273110Y397719D01*
X272736Y398006D01*
X272378Y398312D01*
X272036Y398636D01*
X271712Y398978D01*
X271406Y399336D01*
X271119Y399710D01*
X270852Y400098D01*
X270606Y400500D01*
X270381Y400914D01*
X270178Y401339D01*
X269998Y401775D01*
X269841Y402219D01*
X269707Y402671D01*
X269597Y403129D01*
X269511Y403592D01*
X269449Y404059D01*
X269412Y404529D01*
X269400Y405000D01*
Y430000D01*
X287400D01*
Y405000D01*
D02*
G37*
G36*
X262000D02*
X261988Y404529D01*
X261951Y404059D01*
X261889Y403592D01*
X261803Y403129D01*
X261693Y402671D01*
X261560Y402219D01*
X261402Y401775D01*
X261222Y401339D01*
X261019Y400914D01*
X260794Y400500D01*
X260548Y400098D01*
X260281Y399710D01*
X259994Y399336D01*
X259688Y398978D01*
X259364Y398636D01*
X259022Y398312D01*
X258664Y398006D01*
X258290Y397719D01*
X257902Y397452D01*
X257500Y397206D01*
X257086Y396981D01*
X256661Y396778D01*
X256225Y396598D01*
X255781Y396441D01*
X255329Y396307D01*
X254871Y396197D01*
X254408Y396111D01*
X253941Y396049D01*
X253471Y396012D01*
X253000Y396000D01*
X252529Y396012D01*
X252059Y396049D01*
X251592Y396111D01*
X251129Y396197D01*
X250671Y396307D01*
X250219Y396441D01*
X249775Y396598D01*
X249339Y396778D01*
X248914Y396981D01*
X248500Y397206D01*
X248098Y397452D01*
X247710Y397719D01*
X247336Y398006D01*
X246978Y398312D01*
X246636Y398636D01*
X246312Y398978D01*
X246006Y399336D01*
X245719Y399710D01*
X245452Y400098D01*
X245206Y400500D01*
X244981Y400914D01*
X244778Y401339D01*
X244598Y401775D01*
X244440Y402219D01*
X244307Y402671D01*
X244197Y403129D01*
X244111Y403592D01*
X244049Y404059D01*
X244012Y404529D01*
X244000Y405000D01*
Y430000D01*
X262000D01*
Y405000D01*
D02*
G37*
G36*
X236600D02*
X236588Y404529D01*
X236551Y404059D01*
X236489Y403592D01*
X236403Y403129D01*
X236293Y402671D01*
X236159Y402219D01*
X236002Y401775D01*
X235822Y401339D01*
X235619Y400914D01*
X235394Y400500D01*
X235148Y400098D01*
X234881Y399710D01*
X234594Y399336D01*
X234288Y398978D01*
X233964Y398636D01*
X233622Y398312D01*
X233264Y398006D01*
X232890Y397719D01*
X232502Y397452D01*
X232100Y397206D01*
X231686Y396981D01*
X231261Y396778D01*
X230825Y396598D01*
X230381Y396441D01*
X229929Y396307D01*
X229471Y396197D01*
X229008Y396111D01*
X228541Y396049D01*
X228071Y396012D01*
X227600Y396000D01*
X227129Y396012D01*
X226659Y396049D01*
X226192Y396111D01*
X225729Y396197D01*
X225271Y396307D01*
X224819Y396441D01*
X224375Y396598D01*
X223939Y396778D01*
X223514Y396981D01*
X223100Y397206D01*
X222698Y397452D01*
X222310Y397719D01*
X221936Y398006D01*
X221578Y398312D01*
X221236Y398636D01*
X220912Y398978D01*
X220606Y399336D01*
X220319Y399710D01*
X220052Y400098D01*
X219806Y400500D01*
X219581Y400914D01*
X219378Y401339D01*
X219198Y401775D01*
X219041Y402219D01*
X218907Y402671D01*
X218797Y403129D01*
X218711Y403592D01*
X218649Y404059D01*
X218612Y404529D01*
X218600Y405000D01*
Y430000D01*
X236600D01*
Y405000D01*
D02*
G37*
G36*
X211200Y399000D02*
X211196Y398843D01*
X211184Y398686D01*
X211163Y398531D01*
X211134Y398376D01*
X211098Y398223D01*
X211053Y398073D01*
X211001Y397925D01*
X210941Y397780D01*
X210873Y397638D01*
X210798Y397500D01*
X210716Y397366D01*
X210627Y397237D01*
X210531Y397112D01*
X210429Y396993D01*
X210321Y396879D01*
X210207Y396771D01*
X210088Y396669D01*
X209963Y396573D01*
X209834Y396484D01*
X209700Y396402D01*
X209562Y396327D01*
X209420Y396259D01*
X209275Y396199D01*
X209127Y396147D01*
X208976Y396102D01*
X208824Y396065D01*
X208669Y396037D01*
X208514Y396016D01*
X208357Y396004D01*
X208200Y396000D01*
X196200D01*
X196043Y396004D01*
X195886Y396016D01*
X195731Y396037D01*
X195576Y396065D01*
X195424Y396102D01*
X195273Y396147D01*
X195125Y396199D01*
X194980Y396259D01*
X194838Y396327D01*
X194700Y396402D01*
X194566Y396484D01*
X194437Y396573D01*
X194312Y396669D01*
X194193Y396771D01*
X194079Y396879D01*
X193971Y396993D01*
X193869Y397112D01*
X193773Y397237D01*
X193684Y397366D01*
X193602Y397500D01*
X193527Y397638D01*
X193459Y397780D01*
X193399Y397925D01*
X193347Y398073D01*
X193302Y398223D01*
X193266Y398376D01*
X193237Y398531D01*
X193216Y398686D01*
X193204Y398843D01*
X193200Y399000D01*
Y430000D01*
X211200D01*
Y399000D01*
D02*
G37*
G36*
X185800Y405000D02*
X185788Y404529D01*
X185751Y404059D01*
X185689Y403592D01*
X185603Y403129D01*
X185493Y402671D01*
X185359Y402219D01*
X185202Y401775D01*
X185022Y401339D01*
X184819Y400914D01*
X184594Y400500D01*
X184348Y400098D01*
X184081Y399710D01*
X183794Y399336D01*
X183488Y398978D01*
X183164Y398636D01*
X182822Y398312D01*
X182464Y398006D01*
X182090Y397719D01*
X181702Y397452D01*
X181300Y397206D01*
X180886Y396981D01*
X180461Y396778D01*
X180025Y396598D01*
X179581Y396441D01*
X179129Y396307D01*
X178671Y396197D01*
X178208Y396111D01*
X177741Y396049D01*
X177271Y396012D01*
X176800Y396000D01*
X176329Y396012D01*
X175859Y396049D01*
X175392Y396111D01*
X174929Y396197D01*
X174471Y396307D01*
X174019Y396441D01*
X173575Y396598D01*
X173139Y396778D01*
X172714Y396981D01*
X172300Y397206D01*
X171898Y397452D01*
X171510Y397719D01*
X171136Y398006D01*
X170778Y398312D01*
X170436Y398636D01*
X170112Y398978D01*
X169806Y399336D01*
X169519Y399710D01*
X169252Y400098D01*
X169006Y400500D01*
X168781Y400914D01*
X168578Y401339D01*
X168398Y401775D01*
X168241Y402219D01*
X168107Y402671D01*
X167997Y403129D01*
X167911Y403592D01*
X167849Y404059D01*
X167812Y404529D01*
X167800Y405000D01*
Y430000D01*
X185800D01*
Y405000D01*
D02*
G37*
G36*
X160400D02*
X160388Y404529D01*
X160351Y404059D01*
X160289Y403592D01*
X160203Y403129D01*
X160093Y402671D01*
X159959Y402219D01*
X159802Y401775D01*
X159622Y401339D01*
X159419Y400914D01*
X159194Y400500D01*
X158948Y400098D01*
X158681Y399710D01*
X158394Y399336D01*
X158088Y398978D01*
X157764Y398636D01*
X157422Y398312D01*
X157064Y398006D01*
X156690Y397719D01*
X156302Y397452D01*
X155900Y397206D01*
X155486Y396981D01*
X155061Y396778D01*
X154625Y396598D01*
X154181Y396441D01*
X153729Y396307D01*
X153271Y396197D01*
X152808Y396111D01*
X152341Y396049D01*
X151871Y396012D01*
X151400Y396000D01*
X150929Y396012D01*
X150459Y396049D01*
X149992Y396111D01*
X149529Y396197D01*
X149071Y396307D01*
X148619Y396441D01*
X148175Y396598D01*
X147739Y396778D01*
X147314Y396981D01*
X146900Y397206D01*
X146498Y397452D01*
X146110Y397719D01*
X145736Y398006D01*
X145378Y398312D01*
X145036Y398636D01*
X144712Y398978D01*
X144406Y399336D01*
X144119Y399710D01*
X143852Y400098D01*
X143606Y400500D01*
X143381Y400914D01*
X143178Y401339D01*
X142998Y401775D01*
X142840Y402219D01*
X142707Y402671D01*
X142597Y403129D01*
X142511Y403592D01*
X142449Y404059D01*
X142412Y404529D01*
X142400Y405000D01*
Y430000D01*
X160400D01*
Y405000D01*
D02*
G37*
G36*
X135000D02*
X134988Y404529D01*
X134951Y404059D01*
X134889Y403592D01*
X134803Y403129D01*
X134693Y402671D01*
X134559Y402219D01*
X134402Y401775D01*
X134222Y401339D01*
X134019Y400914D01*
X133794Y400500D01*
X133548Y400098D01*
X133281Y399710D01*
X132994Y399336D01*
X132688Y398978D01*
X132364Y398636D01*
X132022Y398312D01*
X131664Y398006D01*
X131290Y397719D01*
X130902Y397452D01*
X130500Y397206D01*
X130086Y396981D01*
X129661Y396778D01*
X129225Y396598D01*
X128781Y396441D01*
X128329Y396307D01*
X127871Y396197D01*
X127408Y396111D01*
X126941Y396049D01*
X126471Y396012D01*
X126000Y396000D01*
X125529Y396012D01*
X125059Y396049D01*
X124592Y396111D01*
X124129Y396197D01*
X123671Y396307D01*
X123219Y396441D01*
X122775Y396598D01*
X122339Y396778D01*
X121914Y396981D01*
X121500Y397206D01*
X121098Y397452D01*
X120710Y397719D01*
X120336Y398006D01*
X119978Y398312D01*
X119636Y398636D01*
X119312Y398978D01*
X119006Y399336D01*
X118719Y399710D01*
X118452Y400098D01*
X118206Y400500D01*
X117981Y400914D01*
X117778Y401339D01*
X117598Y401775D01*
X117441Y402219D01*
X117307Y402671D01*
X117197Y403129D01*
X117111Y403592D01*
X117049Y404059D01*
X117012Y404529D01*
X117000Y405000D01*
Y430000D01*
X135000D01*
Y405000D01*
D02*
G37*
G36*
X109600D02*
X109588Y404529D01*
X109551Y404059D01*
X109489Y403592D01*
X109403Y403129D01*
X109293Y402671D01*
X109159Y402219D01*
X109002Y401775D01*
X108822Y401339D01*
X108619Y400914D01*
X108394Y400500D01*
X108148Y400098D01*
X107881Y399710D01*
X107594Y399336D01*
X107288Y398978D01*
X106964Y398636D01*
X106622Y398312D01*
X106264Y398006D01*
X105890Y397719D01*
X105502Y397452D01*
X105100Y397206D01*
X104686Y396981D01*
X104261Y396778D01*
X103825Y396598D01*
X103381Y396441D01*
X102929Y396307D01*
X102471Y396197D01*
X102008Y396111D01*
X101541Y396049D01*
X101071Y396012D01*
X100600Y396000D01*
X100129Y396012D01*
X99659Y396049D01*
X99192Y396111D01*
X98729Y396197D01*
X98271Y396307D01*
X97819Y396441D01*
X97375Y396598D01*
X96939Y396778D01*
X96514Y396981D01*
X96100Y397206D01*
X95698Y397452D01*
X95310Y397719D01*
X94936Y398006D01*
X94578Y398312D01*
X94236Y398636D01*
X93912Y398978D01*
X93606Y399336D01*
X93319Y399710D01*
X93052Y400098D01*
X92806Y400500D01*
X92581Y400914D01*
X92378Y401339D01*
X92198Y401775D01*
X92041Y402219D01*
X91907Y402671D01*
X91797Y403129D01*
X91711Y403592D01*
X91649Y404059D01*
X91612Y404529D01*
X91600Y405000D01*
Y430000D01*
X109600D01*
Y405000D01*
D02*
G37*
G36*
X84200Y399000D02*
X84196Y398843D01*
X84184Y398686D01*
X84163Y398531D01*
X84135Y398376D01*
X84098Y398223D01*
X84053Y398073D01*
X84001Y397925D01*
X83941Y397780D01*
X83873Y397638D01*
X83798Y397500D01*
X83716Y397366D01*
X83627Y397237D01*
X83531Y397112D01*
X83429Y396993D01*
X83321Y396879D01*
X83207Y396771D01*
X83088Y396669D01*
X82963Y396573D01*
X82834Y396484D01*
X82700Y396402D01*
X82562Y396327D01*
X82420Y396259D01*
X82275Y396199D01*
X82127Y396147D01*
X81976Y396102D01*
X81824Y396065D01*
X81669Y396037D01*
X81514Y396016D01*
X81357Y396004D01*
X81200Y396000D01*
X69200D01*
X69043Y396004D01*
X68886Y396016D01*
X68731Y396037D01*
X68576Y396065D01*
X68424Y396102D01*
X68273Y396147D01*
X68125Y396199D01*
X67980Y396259D01*
X67838Y396327D01*
X67700Y396402D01*
X67566Y396484D01*
X67437Y396573D01*
X67312Y396669D01*
X67193Y396771D01*
X67079Y396879D01*
X66971Y396993D01*
X66869Y397112D01*
X66773Y397237D01*
X66684Y397366D01*
X66602Y397500D01*
X66527Y397638D01*
X66459Y397780D01*
X66399Y397925D01*
X66347Y398073D01*
X66302Y398223D01*
X66266Y398376D01*
X66237Y398531D01*
X66216Y398686D01*
X66204Y398843D01*
X66200Y399000D01*
Y430000D01*
X84200D01*
Y399000D01*
D02*
G37*
G36*
X58800Y405000D02*
X58788Y404529D01*
X58751Y404059D01*
X58689Y403592D01*
X58603Y403129D01*
X58493Y402671D01*
X58359Y402219D01*
X58202Y401775D01*
X58022Y401339D01*
X57819Y400914D01*
X57594Y400500D01*
X57348Y400098D01*
X57081Y399710D01*
X56794Y399336D01*
X56488Y398978D01*
X56164Y398636D01*
X55822Y398312D01*
X55464Y398006D01*
X55090Y397719D01*
X54702Y397452D01*
X54300Y397206D01*
X53886Y396981D01*
X53461Y396778D01*
X53025Y396598D01*
X52581Y396441D01*
X52129Y396307D01*
X51671Y396197D01*
X51208Y396111D01*
X50741Y396049D01*
X50271Y396012D01*
X49800Y396000D01*
X49329Y396012D01*
X48859Y396049D01*
X48392Y396111D01*
X47929Y396197D01*
X47471Y396307D01*
X47019Y396441D01*
X46575Y396598D01*
X46139Y396778D01*
X45714Y396981D01*
X45300Y397206D01*
X44898Y397452D01*
X44510Y397719D01*
X44136Y398006D01*
X43778Y398312D01*
X43436Y398636D01*
X43112Y398978D01*
X42806Y399336D01*
X42519Y399710D01*
X42252Y400098D01*
X42006Y400500D01*
X41781Y400914D01*
X41578Y401339D01*
X41398Y401775D01*
X41241Y402219D01*
X41107Y402671D01*
X40997Y403129D01*
X40911Y403592D01*
X40849Y404059D01*
X40812Y404529D01*
X40800Y405000D01*
Y430000D01*
X58800D01*
Y405000D01*
D02*
G37*
G36*
X33400D02*
X33388Y404529D01*
X33351Y404059D01*
X33289Y403592D01*
X33203Y403129D01*
X33093Y402671D01*
X32959Y402219D01*
X32802Y401775D01*
X32622Y401339D01*
X32419Y400914D01*
X32194Y400500D01*
X31948Y400098D01*
X31681Y399710D01*
X31394Y399336D01*
X31088Y398978D01*
X30764Y398636D01*
X30422Y398312D01*
X30064Y398006D01*
X29690Y397719D01*
X29302Y397452D01*
X28900Y397206D01*
X28486Y396981D01*
X28061Y396778D01*
X27625Y396598D01*
X27181Y396441D01*
X26729Y396307D01*
X26271Y396197D01*
X25808Y396111D01*
X25341Y396049D01*
X24871Y396012D01*
X24400Y396000D01*
X23929Y396012D01*
X23459Y396049D01*
X22992Y396111D01*
X22529Y396197D01*
X22071Y396307D01*
X21619Y396441D01*
X21175Y396598D01*
X20739Y396778D01*
X20314Y396981D01*
X19900Y397206D01*
X19498Y397452D01*
X19110Y397719D01*
X18736Y398006D01*
X18378Y398312D01*
X18036Y398636D01*
X17712Y398978D01*
X17406Y399336D01*
X17119Y399710D01*
X16852Y400098D01*
X16606Y400500D01*
X16381Y400914D01*
X16178Y401339D01*
X15998Y401775D01*
X15841Y402219D01*
X15707Y402671D01*
X15597Y403129D01*
X15511Y403592D01*
X15449Y404059D01*
X15412Y404529D01*
X15400Y405000D01*
Y430000D01*
X33400D01*
Y405000D01*
D02*
G37*
G36*
X596624Y396460D02*
X589206Y395416D01*
X587397Y408270D01*
X594815Y409314D01*
X596624Y396460D01*
D02*
G37*
G36*
X529700Y332500D02*
X504700D01*
X504229Y332512D01*
X503759Y332549D01*
X503292Y332611D01*
X502829Y332697D01*
X502371Y332807D01*
X501919Y332940D01*
X501475Y333098D01*
X501039Y333278D01*
X500614Y333481D01*
X500200Y333706D01*
X499798Y333952D01*
X499410Y334219D01*
X499036Y334506D01*
X498678Y334812D01*
X498336Y335136D01*
X498012Y335478D01*
X497706Y335836D01*
X497419Y336210D01*
X497152Y336598D01*
X496906Y337000D01*
X496681Y337414D01*
X496478Y337839D01*
X496298Y338275D01*
X496141Y338719D01*
X496007Y339171D01*
X495897Y339629D01*
X495811Y340092D01*
X495749Y340559D01*
X495712Y341029D01*
X495700Y341500D01*
X495712Y341971D01*
X495749Y342441D01*
X495811Y342908D01*
X495897Y343371D01*
X496007Y343829D01*
X496141Y344281D01*
X496298Y344725D01*
X496478Y345161D01*
X496681Y345586D01*
X496906Y346000D01*
X497152Y346402D01*
X497419Y346790D01*
X497706Y347164D01*
X498012Y347522D01*
X498336Y347864D01*
X498678Y348188D01*
X499036Y348494D01*
X499410Y348781D01*
X499798Y349048D01*
X500200Y349294D01*
X500614Y349519D01*
X501039Y349722D01*
X501475Y349902D01*
X501919Y350060D01*
X502371Y350193D01*
X502829Y350303D01*
X503292Y350389D01*
X503759Y350451D01*
X504229Y350488D01*
X504700Y350500D01*
X529700D01*
Y332500D01*
D02*
G37*
G36*
X678967Y318746D02*
X677430D01*
X677832Y323044D01*
X673704Y323431D01*
X672950Y315382D01*
X677078Y314995D01*
X677426Y318703D01*
X678963D01*
X677469Y299796D01*
X666573Y294320D01*
X668517Y321516D01*
X679834Y329719D01*
X678967Y318746D01*
D02*
G37*
G36*
X638901Y321661D02*
X638509Y316674D01*
X636572D01*
X636994Y321169D01*
X632865Y321557D01*
X632111Y313507D01*
X636239Y313120D01*
X636568Y316631D01*
X638506D01*
X637298Y301275D01*
X626057Y296665D01*
X628687Y327725D01*
X638901Y321661D01*
D02*
G37*
G36*
X655551Y321100D02*
X648324Y314991D01*
X644533Y319475D01*
X651760Y325584D01*
X655551Y321100D01*
D02*
G37*
G36*
X529700Y307100D02*
X498700D01*
X498543Y307104D01*
X498386Y307116D01*
X498231Y307137D01*
X498076Y307166D01*
X497924Y307202D01*
X497773Y307247D01*
X497625Y307299D01*
X497480Y307359D01*
X497338Y307427D01*
X497200Y307502D01*
X497066Y307584D01*
X496937Y307673D01*
X496812Y307768D01*
X496693Y307871D01*
X496579Y307979D01*
X496471Y308093D01*
X496369Y308212D01*
X496273Y308337D01*
X496184Y308466D01*
X496102Y308600D01*
X496027Y308738D01*
X495959Y308880D01*
X495899Y309025D01*
X495847Y309173D01*
X495802Y309324D01*
X495766Y309476D01*
X495737Y309631D01*
X495716Y309786D01*
X495704Y309943D01*
X495700Y310100D01*
Y322100D01*
X495704Y322257D01*
X495716Y322414D01*
X495737Y322569D01*
X495766Y322724D01*
X495802Y322876D01*
X495847Y323027D01*
X495899Y323175D01*
X495959Y323320D01*
X496027Y323462D01*
X496102Y323600D01*
X496184Y323734D01*
X496273Y323863D01*
X496369Y323988D01*
X496471Y324107D01*
X496579Y324221D01*
X496693Y324329D01*
X496812Y324431D01*
X496937Y324527D01*
X497066Y324616D01*
X497200Y324698D01*
X497338Y324773D01*
X497480Y324841D01*
X497625Y324901D01*
X497773Y324953D01*
X497924Y324998D01*
X498076Y325034D01*
X498231Y325063D01*
X498386Y325084D01*
X498543Y325096D01*
X498700Y325100D01*
X529700D01*
Y307100D01*
D02*
G37*
G36*
Y281700D02*
X504700D01*
X504229Y281712D01*
X503759Y281749D01*
X503292Y281811D01*
X502829Y281897D01*
X502371Y282007D01*
X501919Y282141D01*
X501475Y282298D01*
X501039Y282478D01*
X500614Y282681D01*
X500200Y282906D01*
X499798Y283152D01*
X499410Y283419D01*
X499036Y283706D01*
X498678Y284012D01*
X498336Y284336D01*
X498012Y284678D01*
X497706Y285036D01*
X497419Y285410D01*
X497152Y285798D01*
X496906Y286200D01*
X496681Y286614D01*
X496478Y287039D01*
X496298Y287475D01*
X496141Y287919D01*
X496007Y288371D01*
X495897Y288829D01*
X495811Y289292D01*
X495749Y289759D01*
X495712Y290229D01*
X495700Y290700D01*
X495712Y291171D01*
X495749Y291641D01*
X495811Y292108D01*
X495897Y292571D01*
X496007Y293029D01*
X496141Y293481D01*
X496298Y293925D01*
X496478Y294361D01*
X496681Y294786D01*
X496906Y295200D01*
X497152Y295602D01*
X497419Y295990D01*
X497706Y296364D01*
X498012Y296722D01*
X498336Y297064D01*
X498678Y297388D01*
X499036Y297694D01*
X499410Y297981D01*
X499798Y298248D01*
X500200Y298494D01*
X500614Y298719D01*
X501039Y298922D01*
X501475Y299102D01*
X501919Y299259D01*
X502371Y299393D01*
X502829Y299503D01*
X503292Y299589D01*
X503759Y299651D01*
X504229Y299688D01*
X504700Y299700D01*
X529700D01*
Y281700D01*
D02*
G37*
G36*
X507471Y236188D02*
X507941Y236151D01*
X508408Y236089D01*
X508871Y236003D01*
X509329Y235893D01*
X509781Y235760D01*
X510225Y235602D01*
X510661Y235422D01*
X511086Y235219D01*
X511500Y234994D01*
X511902Y234748D01*
X512290Y234481D01*
X512664Y234194D01*
X513022Y233888D01*
X513364Y233564D01*
X513688Y233222D01*
X513994Y232864D01*
X514281Y232490D01*
X514548Y232102D01*
X514794Y231700D01*
X515019Y231286D01*
X515222Y230861D01*
X515402Y230425D01*
X515560Y229981D01*
X515693Y229529D01*
X515803Y229071D01*
X515889Y228608D01*
X515951Y228141D01*
X515988Y227671D01*
X516000Y227200D01*
Y202200D01*
X498000D01*
Y227200D01*
X498012Y227671D01*
X498049Y228141D01*
X498111Y228608D01*
X498197Y229071D01*
X498307Y229529D01*
X498441Y229981D01*
X498598Y230425D01*
X498778Y230861D01*
X498981Y231286D01*
X499206Y231700D01*
X499452Y232102D01*
X499719Y232490D01*
X500006Y232864D01*
X500312Y233222D01*
X500636Y233564D01*
X500978Y233888D01*
X501336Y234194D01*
X501710Y234481D01*
X502098Y234748D01*
X502500Y234994D01*
X502914Y235219D01*
X503339Y235422D01*
X503775Y235602D01*
X504219Y235760D01*
X504671Y235893D01*
X505129Y236003D01*
X505592Y236089D01*
X506059Y236151D01*
X506529Y236188D01*
X507000Y236200D01*
X507471Y236188D01*
D02*
G37*
G36*
X482071D02*
X482541Y236151D01*
X483008Y236089D01*
X483471Y236003D01*
X483929Y235893D01*
X484381Y235760D01*
X484825Y235602D01*
X485261Y235422D01*
X485686Y235219D01*
X486100Y234994D01*
X486502Y234748D01*
X486890Y234481D01*
X487264Y234194D01*
X487622Y233888D01*
X487964Y233564D01*
X488288Y233222D01*
X488594Y232864D01*
X488881Y232490D01*
X489148Y232102D01*
X489394Y231700D01*
X489619Y231286D01*
X489822Y230861D01*
X490002Y230425D01*
X490159Y229981D01*
X490293Y229529D01*
X490403Y229071D01*
X490489Y228608D01*
X490551Y228141D01*
X490588Y227671D01*
X490600Y227200D01*
Y202200D01*
X472600D01*
Y227200D01*
X472612Y227671D01*
X472649Y228141D01*
X472711Y228608D01*
X472797Y229071D01*
X472907Y229529D01*
X473041Y229981D01*
X473198Y230425D01*
X473378Y230861D01*
X473581Y231286D01*
X473806Y231700D01*
X474052Y232102D01*
X474319Y232490D01*
X474606Y232864D01*
X474912Y233222D01*
X475236Y233564D01*
X475578Y233888D01*
X475936Y234194D01*
X476310Y234481D01*
X476698Y234748D01*
X477100Y234994D01*
X477514Y235219D01*
X477939Y235422D01*
X478375Y235602D01*
X478819Y235760D01*
X479271Y235893D01*
X479729Y236003D01*
X480192Y236089D01*
X480659Y236151D01*
X481129Y236188D01*
X481600Y236200D01*
X482071Y236188D01*
D02*
G37*
G36*
X462357Y236196D02*
X462514Y236184D01*
X462669Y236163D01*
X462824Y236134D01*
X462976Y236098D01*
X463127Y236053D01*
X463275Y236001D01*
X463420Y235941D01*
X463562Y235873D01*
X463700Y235798D01*
X463834Y235716D01*
X463963Y235627D01*
X464088Y235531D01*
X464207Y235429D01*
X464321Y235321D01*
X464429Y235207D01*
X464531Y235088D01*
X464627Y234963D01*
X464716Y234834D01*
X464798Y234700D01*
X464873Y234562D01*
X464941Y234420D01*
X465001Y234275D01*
X465053Y234127D01*
X465098Y233976D01*
X465135Y233824D01*
X465163Y233669D01*
X465184Y233514D01*
X465196Y233357D01*
X465200Y233200D01*
Y202200D01*
X447200D01*
Y233200D01*
X447204Y233357D01*
X447216Y233514D01*
X447237Y233669D01*
X447266Y233824D01*
X447302Y233976D01*
X447347Y234127D01*
X447399Y234275D01*
X447459Y234420D01*
X447527Y234562D01*
X447602Y234700D01*
X447684Y234834D01*
X447773Y234963D01*
X447869Y235088D01*
X447971Y235207D01*
X448079Y235321D01*
X448193Y235429D01*
X448312Y235531D01*
X448437Y235627D01*
X448566Y235716D01*
X448700Y235798D01*
X448838Y235873D01*
X448980Y235941D01*
X449125Y236001D01*
X449273Y236053D01*
X449423Y236098D01*
X449576Y236134D01*
X449731Y236163D01*
X449886Y236184D01*
X450043Y236196D01*
X450200Y236200D01*
X462200D01*
X462357Y236196D01*
D02*
G37*
G36*
X431271Y236188D02*
X431741Y236151D01*
X432208Y236089D01*
X432671Y236003D01*
X433129Y235893D01*
X433581Y235760D01*
X434025Y235602D01*
X434461Y235422D01*
X434886Y235219D01*
X435300Y234994D01*
X435702Y234748D01*
X436090Y234481D01*
X436464Y234194D01*
X436822Y233888D01*
X437164Y233564D01*
X437488Y233222D01*
X437794Y232864D01*
X438081Y232490D01*
X438348Y232102D01*
X438594Y231700D01*
X438819Y231286D01*
X439022Y230861D01*
X439202Y230425D01*
X439360Y229981D01*
X439493Y229529D01*
X439603Y229071D01*
X439689Y228608D01*
X439751Y228141D01*
X439788Y227671D01*
X439800Y227200D01*
Y202200D01*
X421800D01*
Y227200D01*
X421812Y227671D01*
X421849Y228141D01*
X421911Y228608D01*
X421997Y229071D01*
X422107Y229529D01*
X422240Y229981D01*
X422398Y230425D01*
X422578Y230861D01*
X422781Y231286D01*
X423006Y231700D01*
X423252Y232102D01*
X423519Y232490D01*
X423806Y232864D01*
X424112Y233222D01*
X424436Y233564D01*
X424778Y233888D01*
X425136Y234194D01*
X425510Y234481D01*
X425898Y234748D01*
X426300Y234994D01*
X426714Y235219D01*
X427139Y235422D01*
X427575Y235602D01*
X428019Y235760D01*
X428471Y235893D01*
X428929Y236003D01*
X429392Y236089D01*
X429859Y236151D01*
X430329Y236188D01*
X430800Y236200D01*
X431271Y236188D01*
D02*
G37*
G36*
X405871D02*
X406341Y236151D01*
X406808Y236089D01*
X407271Y236003D01*
X407729Y235893D01*
X408181Y235760D01*
X408625Y235602D01*
X409061Y235422D01*
X409486Y235219D01*
X409900Y234994D01*
X410302Y234748D01*
X410690Y234481D01*
X411064Y234194D01*
X411422Y233888D01*
X411764Y233564D01*
X412088Y233222D01*
X412394Y232864D01*
X412681Y232490D01*
X412948Y232102D01*
X413194Y231700D01*
X413419Y231286D01*
X413622Y230861D01*
X413802Y230425D01*
X413960Y229981D01*
X414093Y229529D01*
X414203Y229071D01*
X414289Y228608D01*
X414351Y228141D01*
X414388Y227671D01*
X414400Y227200D01*
Y202200D01*
X396400D01*
Y227200D01*
X396412Y227671D01*
X396449Y228141D01*
X396511Y228608D01*
X396597Y229071D01*
X396707Y229529D01*
X396841Y229981D01*
X396998Y230425D01*
X397178Y230861D01*
X397381Y231286D01*
X397606Y231700D01*
X397852Y232102D01*
X398119Y232490D01*
X398406Y232864D01*
X398712Y233222D01*
X399036Y233564D01*
X399378Y233888D01*
X399736Y234194D01*
X400110Y234481D01*
X400498Y234748D01*
X400900Y234994D01*
X401314Y235219D01*
X401739Y235422D01*
X402175Y235602D01*
X402619Y235760D01*
X403071Y235893D01*
X403529Y236003D01*
X403992Y236089D01*
X404459Y236151D01*
X404929Y236188D01*
X405400Y236200D01*
X405871Y236188D01*
D02*
G37*
G36*
X380471D02*
X380941Y236151D01*
X381408Y236089D01*
X381871Y236003D01*
X382329Y235893D01*
X382781Y235760D01*
X383225Y235602D01*
X383661Y235422D01*
X384086Y235219D01*
X384500Y234994D01*
X384902Y234748D01*
X385290Y234481D01*
X385664Y234194D01*
X386022Y233888D01*
X386364Y233564D01*
X386688Y233222D01*
X386994Y232864D01*
X387281Y232490D01*
X387548Y232102D01*
X387794Y231700D01*
X388019Y231286D01*
X388222Y230861D01*
X388402Y230425D01*
X388559Y229981D01*
X388693Y229529D01*
X388803Y229071D01*
X388889Y228608D01*
X388951Y228141D01*
X388988Y227671D01*
X389000Y227200D01*
Y202200D01*
X371000D01*
Y227200D01*
X371012Y227671D01*
X371049Y228141D01*
X371111Y228608D01*
X371197Y229071D01*
X371307Y229529D01*
X371441Y229981D01*
X371598Y230425D01*
X371778Y230861D01*
X371981Y231286D01*
X372206Y231700D01*
X372452Y232102D01*
X372719Y232490D01*
X373006Y232864D01*
X373312Y233222D01*
X373636Y233564D01*
X373978Y233888D01*
X374336Y234194D01*
X374710Y234481D01*
X375098Y234748D01*
X375500Y234994D01*
X375914Y235219D01*
X376339Y235422D01*
X376775Y235602D01*
X377219Y235760D01*
X377671Y235893D01*
X378129Y236003D01*
X378592Y236089D01*
X379059Y236151D01*
X379529Y236188D01*
X380000Y236200D01*
X380471Y236188D01*
D02*
G37*
G36*
X355071D02*
X355541Y236151D01*
X356008Y236089D01*
X356471Y236003D01*
X356929Y235893D01*
X357381Y235760D01*
X357825Y235602D01*
X358261Y235422D01*
X358686Y235219D01*
X359100Y234994D01*
X359502Y234748D01*
X359890Y234481D01*
X360264Y234194D01*
X360622Y233888D01*
X360964Y233564D01*
X361288Y233222D01*
X361594Y232864D01*
X361881Y232490D01*
X362148Y232102D01*
X362394Y231700D01*
X362619Y231286D01*
X362822Y230861D01*
X363002Y230425D01*
X363159Y229981D01*
X363293Y229529D01*
X363403Y229071D01*
X363489Y228608D01*
X363551Y228141D01*
X363588Y227671D01*
X363600Y227200D01*
Y202200D01*
X345600D01*
Y227200D01*
X345612Y227671D01*
X345649Y228141D01*
X345711Y228608D01*
X345797Y229071D01*
X345907Y229529D01*
X346040Y229981D01*
X346198Y230425D01*
X346378Y230861D01*
X346581Y231286D01*
X346806Y231700D01*
X347052Y232102D01*
X347319Y232490D01*
X347606Y232864D01*
X347912Y233222D01*
X348236Y233564D01*
X348578Y233888D01*
X348936Y234194D01*
X349310Y234481D01*
X349698Y234748D01*
X350100Y234994D01*
X350514Y235219D01*
X350939Y235422D01*
X351375Y235602D01*
X351819Y235760D01*
X352271Y235893D01*
X352729Y236003D01*
X353192Y236089D01*
X353659Y236151D01*
X354129Y236188D01*
X354600Y236200D01*
X355071Y236188D01*
D02*
G37*
G36*
X335357Y236196D02*
X335514Y236184D01*
X335669Y236163D01*
X335824Y236134D01*
X335976Y236098D01*
X336127Y236053D01*
X336275Y236001D01*
X336420Y235941D01*
X336562Y235873D01*
X336700Y235798D01*
X336834Y235716D01*
X336963Y235627D01*
X337088Y235531D01*
X337207Y235429D01*
X337321Y235321D01*
X337429Y235207D01*
X337531Y235088D01*
X337627Y234963D01*
X337716Y234834D01*
X337798Y234700D01*
X337873Y234562D01*
X337941Y234420D01*
X338001Y234275D01*
X338053Y234127D01*
X338098Y233976D01*
X338134Y233824D01*
X338163Y233669D01*
X338184Y233514D01*
X338196Y233357D01*
X338200Y233200D01*
Y202200D01*
X320200D01*
Y233200D01*
X320204Y233357D01*
X320216Y233514D01*
X320237Y233669D01*
X320266Y233824D01*
X320302Y233976D01*
X320347Y234127D01*
X320399Y234275D01*
X320459Y234420D01*
X320527Y234562D01*
X320602Y234700D01*
X320684Y234834D01*
X320773Y234963D01*
X320869Y235088D01*
X320971Y235207D01*
X321079Y235321D01*
X321193Y235429D01*
X321312Y235531D01*
X321437Y235627D01*
X321566Y235716D01*
X321700Y235798D01*
X321838Y235873D01*
X321980Y235941D01*
X322125Y236001D01*
X322273Y236053D01*
X322424Y236098D01*
X322576Y236134D01*
X322731Y236163D01*
X322886Y236184D01*
X323043Y236196D01*
X323200Y236200D01*
X335200D01*
X335357Y236196D01*
D02*
G37*
G36*
X304271Y236188D02*
X304741Y236151D01*
X305208Y236089D01*
X305671Y236003D01*
X306129Y235893D01*
X306581Y235760D01*
X307025Y235602D01*
X307461Y235422D01*
X307886Y235219D01*
X308300Y234994D01*
X308702Y234748D01*
X309090Y234481D01*
X309464Y234194D01*
X309822Y233888D01*
X310164Y233564D01*
X310488Y233222D01*
X310794Y232864D01*
X311081Y232490D01*
X311348Y232102D01*
X311594Y231700D01*
X311819Y231286D01*
X312022Y230861D01*
X312202Y230425D01*
X312360Y229981D01*
X312493Y229529D01*
X312603Y229071D01*
X312689Y228608D01*
X312751Y228141D01*
X312788Y227671D01*
X312800Y227200D01*
Y202200D01*
X294800D01*
Y227200D01*
X294812Y227671D01*
X294849Y228141D01*
X294911Y228608D01*
X294997Y229071D01*
X295107Y229529D01*
X295240Y229981D01*
X295398Y230425D01*
X295578Y230861D01*
X295781Y231286D01*
X296006Y231700D01*
X296252Y232102D01*
X296519Y232490D01*
X296806Y232864D01*
X297112Y233222D01*
X297436Y233564D01*
X297778Y233888D01*
X298136Y234194D01*
X298510Y234481D01*
X298898Y234748D01*
X299300Y234994D01*
X299714Y235219D01*
X300139Y235422D01*
X300575Y235602D01*
X301019Y235760D01*
X301471Y235893D01*
X301929Y236003D01*
X302392Y236089D01*
X302859Y236151D01*
X303329Y236188D01*
X303800Y236200D01*
X304271Y236188D01*
D02*
G37*
G36*
X278871D02*
X279341Y236151D01*
X279808Y236089D01*
X280271Y236003D01*
X280729Y235893D01*
X281181Y235760D01*
X281625Y235602D01*
X282061Y235422D01*
X282486Y235219D01*
X282900Y234994D01*
X283302Y234748D01*
X283690Y234481D01*
X284064Y234194D01*
X284422Y233888D01*
X284764Y233564D01*
X285088Y233222D01*
X285394Y232864D01*
X285681Y232490D01*
X285948Y232102D01*
X286194Y231700D01*
X286419Y231286D01*
X286622Y230861D01*
X286802Y230425D01*
X286959Y229981D01*
X287093Y229529D01*
X287203Y229071D01*
X287289Y228608D01*
X287351Y228141D01*
X287388Y227671D01*
X287400Y227200D01*
Y202200D01*
X269400D01*
Y227200D01*
X269412Y227671D01*
X269449Y228141D01*
X269511Y228608D01*
X269597Y229071D01*
X269707Y229529D01*
X269841Y229981D01*
X269998Y230425D01*
X270178Y230861D01*
X270381Y231286D01*
X270606Y231700D01*
X270852Y232102D01*
X271119Y232490D01*
X271406Y232864D01*
X271712Y233222D01*
X272036Y233564D01*
X272378Y233888D01*
X272736Y234194D01*
X273110Y234481D01*
X273498Y234748D01*
X273900Y234994D01*
X274314Y235219D01*
X274739Y235422D01*
X275175Y235602D01*
X275619Y235760D01*
X276071Y235893D01*
X276529Y236003D01*
X276992Y236089D01*
X277459Y236151D01*
X277929Y236188D01*
X278400Y236200D01*
X278871Y236188D01*
D02*
G37*
G36*
X253471D02*
X253941Y236151D01*
X254408Y236089D01*
X254871Y236003D01*
X255329Y235893D01*
X255781Y235760D01*
X256225Y235602D01*
X256661Y235422D01*
X257086Y235219D01*
X257500Y234994D01*
X257902Y234748D01*
X258290Y234481D01*
X258664Y234194D01*
X259022Y233888D01*
X259364Y233564D01*
X259688Y233222D01*
X259994Y232864D01*
X260281Y232490D01*
X260548Y232102D01*
X260794Y231700D01*
X261019Y231286D01*
X261222Y230861D01*
X261402Y230425D01*
X261560Y229981D01*
X261693Y229529D01*
X261803Y229071D01*
X261889Y228608D01*
X261951Y228141D01*
X261988Y227671D01*
X262000Y227200D01*
Y202200D01*
X244000D01*
Y227200D01*
X244012Y227671D01*
X244049Y228141D01*
X244111Y228608D01*
X244197Y229071D01*
X244307Y229529D01*
X244440Y229981D01*
X244598Y230425D01*
X244778Y230861D01*
X244981Y231286D01*
X245206Y231700D01*
X245452Y232102D01*
X245719Y232490D01*
X246006Y232864D01*
X246312Y233222D01*
X246636Y233564D01*
X246978Y233888D01*
X247336Y234194D01*
X247710Y234481D01*
X248098Y234748D01*
X248500Y234994D01*
X248914Y235219D01*
X249339Y235422D01*
X249775Y235602D01*
X250219Y235760D01*
X250671Y235893D01*
X251129Y236003D01*
X251592Y236089D01*
X252059Y236151D01*
X252529Y236188D01*
X253000Y236200D01*
X253471Y236188D01*
D02*
G37*
G36*
X228071D02*
X228541Y236151D01*
X229008Y236089D01*
X229471Y236003D01*
X229929Y235893D01*
X230381Y235760D01*
X230825Y235602D01*
X231261Y235422D01*
X231686Y235219D01*
X232100Y234994D01*
X232502Y234748D01*
X232890Y234481D01*
X233264Y234194D01*
X233622Y233888D01*
X233964Y233564D01*
X234288Y233222D01*
X234594Y232864D01*
X234881Y232490D01*
X235148Y232102D01*
X235394Y231700D01*
X235619Y231286D01*
X235822Y230861D01*
X236002Y230425D01*
X236159Y229981D01*
X236293Y229529D01*
X236403Y229071D01*
X236489Y228608D01*
X236551Y228141D01*
X236588Y227671D01*
X236600Y227200D01*
Y202200D01*
X218600D01*
Y227200D01*
X218612Y227671D01*
X218649Y228141D01*
X218711Y228608D01*
X218797Y229071D01*
X218907Y229529D01*
X219041Y229981D01*
X219198Y230425D01*
X219378Y230861D01*
X219581Y231286D01*
X219806Y231700D01*
X220052Y232102D01*
X220319Y232490D01*
X220606Y232864D01*
X220912Y233222D01*
X221236Y233564D01*
X221578Y233888D01*
X221936Y234194D01*
X222310Y234481D01*
X222698Y234748D01*
X223100Y234994D01*
X223514Y235219D01*
X223939Y235422D01*
X224375Y235602D01*
X224819Y235760D01*
X225271Y235893D01*
X225729Y236003D01*
X226192Y236089D01*
X226659Y236151D01*
X227129Y236188D01*
X227600Y236200D01*
X228071Y236188D01*
D02*
G37*
G36*
X208357Y236196D02*
X208514Y236184D01*
X208669Y236163D01*
X208824Y236134D01*
X208976Y236098D01*
X209127Y236053D01*
X209275Y236001D01*
X209420Y235941D01*
X209562Y235873D01*
X209700Y235798D01*
X209834Y235716D01*
X209963Y235627D01*
X210088Y235531D01*
X210207Y235429D01*
X210321Y235321D01*
X210429Y235207D01*
X210531Y235088D01*
X210627Y234963D01*
X210716Y234834D01*
X210798Y234700D01*
X210873Y234562D01*
X210941Y234420D01*
X211001Y234275D01*
X211053Y234127D01*
X211098Y233976D01*
X211134Y233824D01*
X211163Y233669D01*
X211184Y233514D01*
X211196Y233357D01*
X211200Y233200D01*
Y202200D01*
X193200D01*
Y233200D01*
X193204Y233357D01*
X193216Y233514D01*
X193237Y233669D01*
X193266Y233824D01*
X193302Y233976D01*
X193347Y234127D01*
X193399Y234275D01*
X193459Y234420D01*
X193527Y234562D01*
X193602Y234700D01*
X193684Y234834D01*
X193773Y234963D01*
X193869Y235088D01*
X193971Y235207D01*
X194079Y235321D01*
X194193Y235429D01*
X194312Y235531D01*
X194437Y235627D01*
X194566Y235716D01*
X194700Y235798D01*
X194838Y235873D01*
X194980Y235941D01*
X195125Y236001D01*
X195273Y236053D01*
X195424Y236098D01*
X195576Y236134D01*
X195731Y236163D01*
X195886Y236184D01*
X196043Y236196D01*
X196200Y236200D01*
X208200D01*
X208357Y236196D01*
D02*
G37*
G36*
X177271Y236188D02*
X177741Y236151D01*
X178208Y236089D01*
X178671Y236003D01*
X179129Y235893D01*
X179581Y235760D01*
X180025Y235602D01*
X180461Y235422D01*
X180886Y235219D01*
X181300Y234994D01*
X181702Y234748D01*
X182090Y234481D01*
X182464Y234194D01*
X182822Y233888D01*
X183164Y233564D01*
X183488Y233222D01*
X183794Y232864D01*
X184081Y232490D01*
X184348Y232102D01*
X184594Y231700D01*
X184819Y231286D01*
X185022Y230861D01*
X185202Y230425D01*
X185359Y229981D01*
X185493Y229529D01*
X185603Y229071D01*
X185689Y228608D01*
X185751Y228141D01*
X185788Y227671D01*
X185800Y227200D01*
Y202200D01*
X167800D01*
Y227200D01*
X167812Y227671D01*
X167849Y228141D01*
X167911Y228608D01*
X167997Y229071D01*
X168107Y229529D01*
X168241Y229981D01*
X168398Y230425D01*
X168578Y230861D01*
X168781Y231286D01*
X169006Y231700D01*
X169252Y232102D01*
X169519Y232490D01*
X169806Y232864D01*
X170112Y233222D01*
X170436Y233564D01*
X170778Y233888D01*
X171136Y234194D01*
X171510Y234481D01*
X171898Y234748D01*
X172300Y234994D01*
X172714Y235219D01*
X173139Y235422D01*
X173575Y235602D01*
X174019Y235760D01*
X174471Y235893D01*
X174929Y236003D01*
X175392Y236089D01*
X175859Y236151D01*
X176329Y236188D01*
X176800Y236200D01*
X177271Y236188D01*
D02*
G37*
G36*
X151871D02*
X152341Y236151D01*
X152808Y236089D01*
X153271Y236003D01*
X153729Y235893D01*
X154181Y235760D01*
X154625Y235602D01*
X155061Y235422D01*
X155486Y235219D01*
X155900Y234994D01*
X156302Y234748D01*
X156690Y234481D01*
X157064Y234194D01*
X157422Y233888D01*
X157764Y233564D01*
X158088Y233222D01*
X158394Y232864D01*
X158681Y232490D01*
X158948Y232102D01*
X159194Y231700D01*
X159419Y231286D01*
X159622Y230861D01*
X159802Y230425D01*
X159959Y229981D01*
X160093Y229529D01*
X160203Y229071D01*
X160289Y228608D01*
X160351Y228141D01*
X160388Y227671D01*
X160400Y227200D01*
Y202200D01*
X142400D01*
Y227200D01*
X142412Y227671D01*
X142449Y228141D01*
X142511Y228608D01*
X142597Y229071D01*
X142707Y229529D01*
X142840Y229981D01*
X142998Y230425D01*
X143178Y230861D01*
X143381Y231286D01*
X143606Y231700D01*
X143852Y232102D01*
X144119Y232490D01*
X144406Y232864D01*
X144712Y233222D01*
X145036Y233564D01*
X145378Y233888D01*
X145736Y234194D01*
X146110Y234481D01*
X146498Y234748D01*
X146900Y234994D01*
X147314Y235219D01*
X147739Y235422D01*
X148175Y235602D01*
X148619Y235760D01*
X149071Y235893D01*
X149529Y236003D01*
X149992Y236089D01*
X150459Y236151D01*
X150929Y236188D01*
X151400Y236200D01*
X151871Y236188D01*
D02*
G37*
G36*
X126471D02*
X126941Y236151D01*
X127408Y236089D01*
X127871Y236003D01*
X128329Y235893D01*
X128781Y235760D01*
X129225Y235602D01*
X129661Y235422D01*
X130086Y235219D01*
X130500Y234994D01*
X130902Y234748D01*
X131290Y234481D01*
X131664Y234194D01*
X132022Y233888D01*
X132364Y233564D01*
X132688Y233222D01*
X132994Y232864D01*
X133281Y232490D01*
X133548Y232102D01*
X133794Y231700D01*
X134019Y231286D01*
X134222Y230861D01*
X134402Y230425D01*
X134559Y229981D01*
X134693Y229529D01*
X134803Y229071D01*
X134889Y228608D01*
X134951Y228141D01*
X134988Y227671D01*
X135000Y227200D01*
Y202200D01*
X117000D01*
Y227200D01*
X117012Y227671D01*
X117049Y228141D01*
X117111Y228608D01*
X117197Y229071D01*
X117307Y229529D01*
X117441Y229981D01*
X117598Y230425D01*
X117778Y230861D01*
X117981Y231286D01*
X118206Y231700D01*
X118452Y232102D01*
X118719Y232490D01*
X119006Y232864D01*
X119312Y233222D01*
X119636Y233564D01*
X119978Y233888D01*
X120336Y234194D01*
X120710Y234481D01*
X121098Y234748D01*
X121500Y234994D01*
X121914Y235219D01*
X122339Y235422D01*
X122775Y235602D01*
X123219Y235760D01*
X123671Y235893D01*
X124129Y236003D01*
X124592Y236089D01*
X125059Y236151D01*
X125529Y236188D01*
X126000Y236200D01*
X126471Y236188D01*
D02*
G37*
G36*
X101071D02*
X101541Y236151D01*
X102008Y236089D01*
X102471Y236003D01*
X102929Y235893D01*
X103381Y235760D01*
X103825Y235602D01*
X104261Y235422D01*
X104686Y235219D01*
X105100Y234994D01*
X105502Y234748D01*
X105890Y234481D01*
X106264Y234194D01*
X106622Y233888D01*
X106964Y233564D01*
X107288Y233222D01*
X107594Y232864D01*
X107881Y232490D01*
X108148Y232102D01*
X108394Y231700D01*
X108619Y231286D01*
X108822Y230861D01*
X109002Y230425D01*
X109159Y229981D01*
X109293Y229529D01*
X109403Y229071D01*
X109489Y228608D01*
X109551Y228141D01*
X109588Y227671D01*
X109600Y227200D01*
Y202200D01*
X91600D01*
Y227200D01*
X91612Y227671D01*
X91649Y228141D01*
X91711Y228608D01*
X91797Y229071D01*
X91907Y229529D01*
X92041Y229981D01*
X92198Y230425D01*
X92378Y230861D01*
X92581Y231286D01*
X92806Y231700D01*
X93052Y232102D01*
X93319Y232490D01*
X93606Y232864D01*
X93912Y233222D01*
X94236Y233564D01*
X94578Y233888D01*
X94936Y234194D01*
X95310Y234481D01*
X95698Y234748D01*
X96100Y234994D01*
X96514Y235219D01*
X96939Y235422D01*
X97375Y235602D01*
X97819Y235760D01*
X98271Y235893D01*
X98729Y236003D01*
X99192Y236089D01*
X99659Y236151D01*
X100129Y236188D01*
X100600Y236200D01*
X101071Y236188D01*
D02*
G37*
G36*
X81357Y236196D02*
X81514Y236184D01*
X81669Y236163D01*
X81824Y236134D01*
X81976Y236098D01*
X82127Y236053D01*
X82275Y236001D01*
X82420Y235941D01*
X82562Y235873D01*
X82700Y235798D01*
X82834Y235716D01*
X82963Y235627D01*
X83088Y235531D01*
X83207Y235429D01*
X83321Y235321D01*
X83429Y235207D01*
X83531Y235088D01*
X83627Y234963D01*
X83716Y234834D01*
X83798Y234700D01*
X83873Y234562D01*
X83941Y234420D01*
X84001Y234275D01*
X84053Y234127D01*
X84098Y233976D01*
X84135Y233824D01*
X84163Y233669D01*
X84184Y233514D01*
X84196Y233357D01*
X84200Y233200D01*
Y202200D01*
X66200D01*
Y233200D01*
X66204Y233357D01*
X66216Y233514D01*
X66237Y233669D01*
X66266Y233824D01*
X66302Y233976D01*
X66347Y234127D01*
X66399Y234275D01*
X66459Y234420D01*
X66527Y234562D01*
X66602Y234700D01*
X66684Y234834D01*
X66773Y234963D01*
X66869Y235088D01*
X66971Y235207D01*
X67079Y235321D01*
X67193Y235429D01*
X67312Y235531D01*
X67437Y235627D01*
X67566Y235716D01*
X67700Y235798D01*
X67838Y235873D01*
X67980Y235941D01*
X68125Y236001D01*
X68273Y236053D01*
X68424Y236098D01*
X68576Y236134D01*
X68731Y236163D01*
X68886Y236184D01*
X69043Y236196D01*
X69200Y236200D01*
X81200D01*
X81357Y236196D01*
D02*
G37*
G36*
X50271Y236188D02*
X50741Y236151D01*
X51208Y236089D01*
X51671Y236003D01*
X52129Y235893D01*
X52581Y235760D01*
X53025Y235602D01*
X53461Y235422D01*
X53886Y235219D01*
X54300Y234994D01*
X54702Y234748D01*
X55090Y234481D01*
X55464Y234194D01*
X55822Y233888D01*
X56164Y233564D01*
X56488Y233222D01*
X56794Y232864D01*
X57081Y232490D01*
X57348Y232102D01*
X57594Y231700D01*
X57819Y231286D01*
X58022Y230861D01*
X58202Y230425D01*
X58359Y229981D01*
X58493Y229529D01*
X58603Y229071D01*
X58689Y228608D01*
X58751Y228141D01*
X58788Y227671D01*
X58800Y227200D01*
Y202200D01*
X40800D01*
Y227200D01*
X40812Y227671D01*
X40849Y228141D01*
X40911Y228608D01*
X40997Y229071D01*
X41107Y229529D01*
X41241Y229981D01*
X41398Y230425D01*
X41578Y230861D01*
X41781Y231286D01*
X42006Y231700D01*
X42252Y232102D01*
X42519Y232490D01*
X42806Y232864D01*
X43112Y233222D01*
X43436Y233564D01*
X43778Y233888D01*
X44136Y234194D01*
X44510Y234481D01*
X44898Y234748D01*
X45300Y234994D01*
X45714Y235219D01*
X46139Y235422D01*
X46575Y235602D01*
X47019Y235760D01*
X47471Y235893D01*
X47929Y236003D01*
X48392Y236089D01*
X48859Y236151D01*
X49329Y236188D01*
X49800Y236200D01*
X50271Y236188D01*
D02*
G37*
G36*
X24871D02*
X25341Y236151D01*
X25808Y236089D01*
X26271Y236003D01*
X26729Y235893D01*
X27181Y235760D01*
X27625Y235602D01*
X28061Y235422D01*
X28486Y235219D01*
X28900Y234994D01*
X29302Y234748D01*
X29690Y234481D01*
X30064Y234194D01*
X30422Y233888D01*
X30764Y233564D01*
X31088Y233222D01*
X31394Y232864D01*
X31681Y232490D01*
X31948Y232102D01*
X32194Y231700D01*
X32419Y231286D01*
X32622Y230861D01*
X32802Y230425D01*
X32959Y229981D01*
X33093Y229529D01*
X33203Y229071D01*
X33289Y228608D01*
X33351Y228141D01*
X33388Y227671D01*
X33400Y227200D01*
Y202200D01*
X15400D01*
Y227200D01*
X15412Y227671D01*
X15449Y228141D01*
X15511Y228608D01*
X15597Y229071D01*
X15707Y229529D01*
X15841Y229981D01*
X15998Y230425D01*
X16178Y230861D01*
X16381Y231286D01*
X16606Y231700D01*
X16852Y232102D01*
X17119Y232490D01*
X17406Y232864D01*
X17712Y233222D01*
X18036Y233564D01*
X18378Y233888D01*
X18736Y234194D01*
X19110Y234481D01*
X19498Y234748D01*
X19900Y234994D01*
X20314Y235219D01*
X20739Y235422D01*
X21175Y235602D01*
X21619Y235760D01*
X22071Y235893D01*
X22529Y236003D01*
X22992Y236089D01*
X23459Y236151D01*
X23929Y236188D01*
X24400Y236200D01*
X24871Y236188D01*
D02*
G37*
D32*
X83000Y575000D02*
D03*
X97000D02*
D03*
X57000D02*
D03*
X43000D02*
D03*
X1063000Y85000D02*
D03*
X1077000D02*
D03*
X752000Y85000D02*
D03*
X738000D02*
D03*
X752000Y55000D02*
D03*
X738000D02*
D03*
X488000Y85000D02*
D03*
X502000D02*
D03*
Y55000D02*
D03*
X488000D02*
D03*
Y25000D02*
D03*
X502000D02*
D03*
X382000Y85000D02*
D03*
X368000D02*
D03*
Y55000D02*
D03*
X382000D02*
D03*
Y25000D02*
D03*
X368000D02*
D03*
X288000Y502000D02*
D03*
X274000D02*
D03*
X547000Y170000D02*
D03*
X533000D02*
D03*
X547000Y150000D02*
D03*
X533000D02*
D03*
X547000Y130000D02*
D03*
X533000D02*
D03*
D33*
X278000Y525000D02*
D03*
Y563000D02*
D03*
D34*
X72500Y169000D02*
D03*
Y151000D02*
D03*
X101500D02*
D03*
Y169000D02*
D03*
X160500D02*
D03*
Y151000D02*
D03*
X131500D02*
D03*
Y169000D02*
D03*
D35*
X16000Y91000D02*
D03*
X1099000Y681000D02*
D03*
X1103000Y94000D02*
D03*
D36*
X975400Y521500D02*
D03*
Y515000D02*
D03*
Y508500D02*
D03*
X994600D02*
D03*
Y515000D02*
D03*
Y521500D02*
D03*
D37*
X997550Y583500D02*
D03*
Y574000D02*
D03*
Y564500D02*
D03*
X972450D02*
D03*
Y574000D02*
D03*
Y583500D02*
D03*
X997550Y644500D02*
D03*
Y635000D02*
D03*
Y625500D02*
D03*
X972450D02*
D03*
Y635000D02*
D03*
Y644500D02*
D03*
X827550Y321500D02*
D03*
Y312000D02*
D03*
Y302500D02*
D03*
X802450D02*
D03*
Y312000D02*
D03*
Y321500D02*
D03*
X827550Y256500D02*
D03*
Y247000D02*
D03*
Y237500D02*
D03*
X802450D02*
D03*
Y247000D02*
D03*
Y256500D02*
D03*
X912550Y321500D02*
D03*
Y312000D02*
D03*
Y302500D02*
D03*
X887450D02*
D03*
Y312000D02*
D03*
Y321500D02*
D03*
X912550Y256500D02*
D03*
Y247000D02*
D03*
Y237500D02*
D03*
X887450D02*
D03*
Y247000D02*
D03*
Y256500D02*
D03*
X887450Y391500D02*
D03*
Y382000D02*
D03*
Y372500D02*
D03*
X912550D02*
D03*
Y382000D02*
D03*
Y391500D02*
D03*
X802450D02*
D03*
Y382000D02*
D03*
Y372500D02*
D03*
X827550D02*
D03*
Y382000D02*
D03*
Y391500D02*
D03*
D38*
X1020000Y572000D02*
D03*
Y586000D02*
D03*
X950000Y510000D02*
D03*
Y524000D02*
D03*
X1020000Y510000D02*
D03*
Y524000D02*
D03*
Y633000D02*
D03*
Y647000D02*
D03*
X883082Y174150D02*
D03*
Y188150D02*
D03*
X845000Y174150D02*
D03*
Y188150D02*
D03*
X661500Y196250D02*
D03*
Y182250D02*
D03*
X680000Y117000D02*
D03*
Y103000D02*
D03*
X720000Y117000D02*
D03*
Y103000D02*
D03*
X760000D02*
D03*
Y117000D02*
D03*
X800000D02*
D03*
Y103000D02*
D03*
X840000Y117000D02*
D03*
Y103000D02*
D03*
X300000Y153000D02*
D03*
Y167000D02*
D03*
X244000Y154000D02*
D03*
Y168000D02*
D03*
X880000Y117000D02*
D03*
Y103000D02*
D03*
X855000Y310000D02*
D03*
Y324000D02*
D03*
Y259000D02*
D03*
Y245000D02*
D03*
X809000Y587000D02*
D03*
Y573000D02*
D03*
X809000Y552000D02*
D03*
Y538000D02*
D03*
X704000Y555000D02*
D03*
Y569000D02*
D03*
X564000Y515000D02*
D03*
Y529000D02*
D03*
Y555000D02*
D03*
Y569000D02*
D03*
X419000Y555000D02*
D03*
Y569000D02*
D03*
Y515000D02*
D03*
Y529000D02*
D03*
X225000Y23000D02*
D03*
Y37000D02*
D03*
Y92000D02*
D03*
Y78000D02*
D03*
X96000Y92000D02*
D03*
Y78000D02*
D03*
Y23000D02*
D03*
Y37000D02*
D03*
X940000Y394000D02*
D03*
Y380000D02*
D03*
X855000Y394000D02*
D03*
Y380000D02*
D03*
X940000Y324000D02*
D03*
Y310000D02*
D03*
Y245000D02*
D03*
Y259000D02*
D03*
X719000Y529000D02*
D03*
Y515000D02*
D03*
X704000D02*
D03*
Y529000D02*
D03*
D39*
X908000Y194500D02*
D03*
Y175500D02*
D03*
X930000Y185000D02*
D03*
D40*
X95000Y510000D02*
D03*
Y466000D02*
D03*
X804000Y487000D02*
D03*
X659000Y487000D02*
D03*
X514000Y487000D02*
D03*
X369000D02*
D03*
D41*
X281500Y165000D02*
D03*
X262500D02*
D03*
X272000Y143000D02*
D03*
D42*
X778500Y557450D02*
D03*
X769000D02*
D03*
X759500D02*
D03*
Y532550D02*
D03*
X778500D02*
D03*
D43*
X612500Y542000D02*
D03*
X467500Y542000D02*
D03*
X322500D02*
D03*
D44*
X675500Y565000D02*
D03*
Y542000D02*
D03*
Y519000D02*
D03*
X530500Y565000D02*
D03*
Y542000D02*
D03*
Y519000D02*
D03*
X385500Y565000D02*
D03*
Y542000D02*
D03*
Y519000D02*
D03*
D45*
X123500Y10250D02*
D03*
X168500D02*
D03*
Y89750D02*
D03*
X123500D02*
D03*
X252500Y10250D02*
D03*
X297500D02*
D03*
Y89750D02*
D03*
X252500D02*
D03*
D46*
X629638Y196450D02*
D03*
Y183750D02*
D03*
Y171050D02*
D03*
Y158350D02*
D03*
Y145650D02*
D03*
Y132950D02*
D03*
Y120250D02*
D03*
Y107550D02*
D03*
X580362D02*
D03*
Y120250D02*
D03*
Y132950D02*
D03*
Y145650D02*
D03*
Y158350D02*
D03*
Y171050D02*
D03*
Y183750D02*
D03*
Y196450D02*
D03*
D47*
X22700Y306100D02*
D03*
Y326100D02*
D03*
X55700Y316100D02*
D03*
X90700Y291100D02*
D03*
X115700D02*
D03*
X140700D02*
D03*
D48*
X25700Y288850D02*
D03*
Y343350D02*
D03*
D49*
X56000Y291850D02*
D03*
Y340350D02*
D03*
D50*
X1010000Y40500D02*
D03*
X984600D02*
D03*
X1035400D02*
D03*
D51*
X959200D02*
D03*
D52*
X940900Y729700D02*
D03*
Y704300D02*
D03*
X966300Y729700D02*
D03*
Y704300D02*
D03*
X991700Y729700D02*
D03*
Y704300D02*
D03*
X1017100Y729700D02*
D03*
X997500Y388600D02*
D03*
X1022900D02*
D03*
X997500Y363200D02*
D03*
X1022900D02*
D03*
X997500Y337800D02*
D03*
X1022900D02*
D03*
X997500Y312400D02*
D03*
X1022900D02*
D03*
X997500Y287000D02*
D03*
X1022900D02*
D03*
X997500Y261600D02*
D03*
X1022900D02*
D03*
X997500Y236200D02*
D03*
X1022900D02*
D03*
X997500Y210800D02*
D03*
X1022900D02*
D03*
X997500Y185400D02*
D03*
X1022900D02*
D03*
X997500Y160000D02*
D03*
D53*
X1017100Y704300D02*
D03*
D54*
X1085000Y735000D02*
D03*
Y35000D02*
D03*
X35000D02*
D03*
Y735000D02*
D03*
D55*
X968000Y455000D02*
D03*
X810000Y24000D02*
D03*
X720000Y660000D02*
D03*
X420000D02*
D03*
D56*
X1048200Y611650D02*
D03*
X1068200D02*
D03*
X1048200Y591650D02*
D03*
X1068200D02*
D03*
X1048200Y571650D02*
D03*
X1068200D02*
D03*
X1048200Y551650D02*
D03*
X1068200D02*
D03*
X1048200Y531650D02*
D03*
X1068200D02*
D03*
X1048200Y511650D02*
D03*
X1068200D02*
D03*
X1048200Y491650D02*
D03*
X1068200D02*
D03*
X1048200Y471650D02*
D03*
X1068200D02*
D03*
X1048200Y451650D02*
D03*
X1068200D02*
D03*
X1048200Y431650D02*
D03*
D57*
X1068200D02*
D03*
D58*
X1022900Y160000D02*
D03*
D59*
X760000Y740500D02*
D03*
X870000D02*
D03*
X360000D02*
D03*
X250000D02*
D03*
D60*
X840000Y640500D02*
D03*
X330000D02*
D03*
D61*
X790000D02*
D03*
X280000D02*
D03*
D62*
X175000Y588000D02*
D03*
Y672000D02*
D03*
D63*
Y610000D02*
D03*
Y650000D02*
D03*
Y630000D02*
D03*
D64*
X507000Y405000D02*
D03*
X481600D02*
D03*
X456200D02*
D03*
X430800D02*
D03*
X405400D02*
D03*
X380000D02*
D03*
X354600D02*
D03*
X329200D02*
D03*
X303800D02*
D03*
X278400D02*
D03*
X253000D02*
D03*
X227600D02*
D03*
X202200D02*
D03*
X176800D02*
D03*
X151400D02*
D03*
X126000D02*
D03*
X100600D02*
D03*
X75200D02*
D03*
X49800D02*
D03*
X24400D02*
D03*
X507000Y227200D02*
D03*
X481600D02*
D03*
X456200D02*
D03*
X430800D02*
D03*
X405400D02*
D03*
X380000D02*
D03*
X354600D02*
D03*
X329200D02*
D03*
X303800D02*
D03*
X278400D02*
D03*
X253000D02*
D03*
X227600D02*
D03*
X202200D02*
D03*
X176800D02*
D03*
X151400D02*
D03*
X126000D02*
D03*
X100600D02*
D03*
X75200D02*
D03*
X49800D02*
D03*
X24400D02*
D03*
M02*
