G04*
G04 #@! TF.GenerationSoftware,Altium Limited,Altium Designer,23.3.1 (30)*
G04*
G04 Layer_Color=8388736*
%FSLAX44Y44*%
%MOMM*%
G71*
G04*
G04 #@! TF.SameCoordinates,93B2F360-A854-404C-8A8F-734AF7A26EB0*
G04*
G04*
G04 #@! TF.FilePolarity,Negative*
G04*
G01*
G75*
G04:AMPARAMS|DCode=21|XSize=0.95mm|YSize=0.95mm|CornerRadius=0.2625mm|HoleSize=0mm|Usage=FLASHONLY|Rotation=270.000|XOffset=0mm|YOffset=0mm|HoleType=Round|Shape=RoundedRectangle|*
%AMROUNDEDRECTD21*
21,1,0.9500,0.4250,0,0,270.0*
21,1,0.4250,0.9500,0,0,270.0*
1,1,0.5250,-0.2125,-0.2125*
1,1,0.5250,-0.2125,0.2125*
1,1,0.5250,0.2125,0.2125*
1,1,0.5250,0.2125,-0.2125*
%
%ADD21ROUNDEDRECTD21*%
%ADD22C,2.0000*%
G04:AMPARAMS|DCode=23|XSize=0.95mm|YSize=0.95mm|CornerRadius=0.2625mm|HoleSize=0mm|Usage=FLASHONLY|Rotation=180.000|XOffset=0mm|YOffset=0mm|HoleType=Round|Shape=RoundedRectangle|*
%AMROUNDEDRECTD23*
21,1,0.9500,0.4250,0,0,180.0*
21,1,0.4250,0.9500,0,0,180.0*
1,1,0.5250,-0.2125,0.2125*
1,1,0.5250,0.2125,0.2125*
1,1,0.5250,0.2125,-0.2125*
1,1,0.5250,-0.2125,-0.2125*
%
%ADD23ROUNDEDRECTD23*%
G04:AMPARAMS|DCode=24|XSize=1.1mm|YSize=1.5mm|CornerRadius=0.3mm|HoleSize=0mm|Usage=FLASHONLY|Rotation=0.000|XOffset=0mm|YOffset=0mm|HoleType=Round|Shape=RoundedRectangle|*
%AMROUNDEDRECTD24*
21,1,1.1000,0.9000,0,0,0.0*
21,1,0.5000,1.5000,0,0,0.0*
1,1,0.6000,0.2500,-0.4500*
1,1,0.6000,-0.2500,-0.4500*
1,1,0.6000,-0.2500,0.4500*
1,1,0.6000,0.2500,0.4500*
%
%ADD24ROUNDEDRECTD24*%
%ADD25C,0.2500*%
G04:AMPARAMS|DCode=26|XSize=1.8mm|YSize=2.1mm|CornerRadius=0.475mm|HoleSize=0mm|Usage=FLASHONLY|Rotation=90.000|XOffset=0mm|YOffset=0mm|HoleType=Round|Shape=RoundedRectangle|*
%AMROUNDEDRECTD26*
21,1,1.8000,1.1500,0,0,90.0*
21,1,0.8500,2.1000,0,0,90.0*
1,1,0.9500,0.5750,0.4250*
1,1,0.9500,0.5750,-0.4250*
1,1,0.9500,-0.5750,-0.4250*
1,1,0.9500,-0.5750,0.4250*
%
%ADD26ROUNDEDRECTD26*%
%ADD27C,1.4000*%
G04:AMPARAMS|DCode=28|XSize=1.4mm|YSize=1.4mm|CornerRadius=0.375mm|HoleSize=0mm|Usage=FLASHONLY|Rotation=90.000|XOffset=0mm|YOffset=0mm|HoleType=Round|Shape=RoundedRectangle|*
%AMROUNDEDRECTD28*
21,1,1.4000,0.6500,0,0,90.0*
21,1,0.6500,1.4000,0,0,90.0*
1,1,0.7500,0.3250,0.3250*
1,1,0.7500,0.3250,-0.3250*
1,1,0.7500,-0.3250,-0.3250*
1,1,0.7500,-0.3250,0.3250*
%
%ADD28ROUNDEDRECTD28*%
%ADD29C,0.1000*%
%ADD30C,1.7000*%
G04:AMPARAMS|DCode=31|XSize=1.7mm|YSize=1.7mm|CornerRadius=0.45mm|HoleSize=0mm|Usage=FLASHONLY|Rotation=90.000|XOffset=0mm|YOffset=0mm|HoleType=Round|Shape=RoundedRectangle|*
%AMROUNDEDRECTD31*
21,1,1.7000,0.8000,0,0,90.0*
21,1,0.8000,1.7000,0,0,90.0*
1,1,0.9000,0.4000,0.4000*
1,1,0.9000,0.4000,-0.4000*
1,1,0.9000,-0.4000,-0.4000*
1,1,0.9000,-0.4000,0.4000*
%
%ADD31ROUNDEDRECTD31*%
G36*
X142069Y680497D02*
X143566Y698167D01*
X149377Y694717D01*
X149153Y691880D01*
X148052D01*
X148291Y694438D01*
X145943Y694658D01*
X145513Y690078D01*
X147862Y689858D01*
X148049Y691856D01*
X149152D01*
X148465Y683119D01*
X142069Y680497D01*
D02*
G37*
G36*
X165120Y679162D02*
X166226Y694635D01*
X172664Y699302D01*
X172171Y693059D01*
X171296D01*
X171525Y695504D01*
X169177Y695724D01*
X168748Y691145D01*
X171096Y690925D01*
X171294Y693034D01*
X172169D01*
X171319Y682278D01*
X165120Y679162D01*
D02*
G37*
G36*
X154738Y690922D02*
X152581Y693474D01*
X156692Y696949D01*
X158849Y694398D01*
X154738Y690922D01*
D02*
G37*
G36*
X121104Y736678D02*
X120075Y743991D01*
X124295Y744585D01*
X125324Y737272D01*
X121104Y736678D01*
D02*
G37*
G36*
X149258Y751458D02*
X148784Y758153D01*
X152451Y758412D01*
X152924Y751717D01*
X149258Y751458D01*
D02*
G37*
G36*
X166521Y749637D02*
X165139Y755704D01*
X169424Y756680D01*
X170807Y750613D01*
X166521Y749637D01*
D02*
G37*
G36*
X193391Y753806D02*
X190851Y755976D01*
X194591Y760354D01*
X197131Y758185D01*
X193391Y753806D01*
D02*
G37*
D21*
X108000Y300000D02*
D03*
X122000D02*
D03*
X108000Y325000D02*
D03*
X122000D02*
D03*
X196500Y428000D02*
D03*
X182500Y428000D02*
D03*
D22*
X282000Y439250D02*
D03*
X28250Y670500D02*
D03*
X210000Y20000D02*
D03*
D23*
X147992Y462985D02*
D03*
Y448985D02*
D03*
X162242D02*
D03*
Y462985D02*
D03*
X180000Y505000D02*
D03*
Y491000D02*
D03*
X112000Y404000D02*
D03*
Y418000D02*
D03*
D24*
X138492Y402615D02*
D03*
X157492D02*
D03*
X147992Y424615D02*
D03*
D25*
X194200Y478000D02*
D03*
X198200Y474000D02*
D03*
Y478000D02*
D03*
X194200Y474000D02*
D03*
X202200Y478000D02*
D03*
X190200Y450000D02*
D03*
Y454000D02*
D03*
Y458000D02*
D03*
Y470000D02*
D03*
Y474000D02*
D03*
Y478000D02*
D03*
X186200Y450000D02*
D03*
Y454000D02*
D03*
Y458000D02*
D03*
Y462000D02*
D03*
Y466000D02*
D03*
Y470000D02*
D03*
Y474000D02*
D03*
Y478000D02*
D03*
X182200Y450000D02*
D03*
Y454000D02*
D03*
Y458000D02*
D03*
Y462000D02*
D03*
Y466000D02*
D03*
Y470000D02*
D03*
Y474000D02*
D03*
Y478000D02*
D03*
X206200Y450000D02*
D03*
Y462000D02*
D03*
Y466000D02*
D03*
Y470000D02*
D03*
Y474000D02*
D03*
Y478000D02*
D03*
X202200Y450000D02*
D03*
Y454000D02*
D03*
Y458000D02*
D03*
Y462000D02*
D03*
Y466000D02*
D03*
Y470000D02*
D03*
Y474000D02*
D03*
X198200Y450000D02*
D03*
Y454000D02*
D03*
Y458000D02*
D03*
Y462000D02*
D03*
Y466000D02*
D03*
Y470000D02*
D03*
X194200Y450000D02*
D03*
Y454000D02*
D03*
Y458000D02*
D03*
Y470000D02*
D03*
D26*
X250000Y320000D02*
D03*
Y220000D02*
D03*
Y420000D02*
D03*
Y520000D02*
D03*
D27*
X37800Y471650D02*
D03*
X57800Y451650D02*
D03*
Y611650D02*
D03*
X37800D02*
D03*
X57800Y591650D02*
D03*
X37800D02*
D03*
X57800Y571650D02*
D03*
X37800D02*
D03*
X57800Y551650D02*
D03*
X37800D02*
D03*
X57800Y531650D02*
D03*
X37800D02*
D03*
X57800Y511650D02*
D03*
X37800D02*
D03*
X57800Y491650D02*
D03*
X37800D02*
D03*
X57800Y471650D02*
D03*
X37800Y451650D02*
D03*
X57800Y431650D02*
D03*
D28*
X37800D02*
D03*
D29*
X260000Y730000D02*
D03*
Y40000D02*
D03*
X47500Y730000D02*
D03*
Y40000D02*
D03*
D30*
X74400Y160000D02*
D03*
X49000Y185400D02*
D03*
X74400D02*
D03*
X49000Y210800D02*
D03*
X74400D02*
D03*
X49000Y236200D02*
D03*
X74400D02*
D03*
X49000Y261600D02*
D03*
X74400D02*
D03*
X49000Y287000D02*
D03*
X74400D02*
D03*
X49000Y312400D02*
D03*
X74400D02*
D03*
X49000Y337800D02*
D03*
X74400D02*
D03*
X49000Y363200D02*
D03*
X74400D02*
D03*
X49000Y388600D02*
D03*
X74400D02*
D03*
D31*
X49000Y160000D02*
D03*
M02*
