M48
;Layer_Color=9474304
;FILE_FORMAT=4:4
METRIC,LZ
;TYPE=PLATED
T1F00S00C0.3000
T2F00S00C0.9000
T3F00S00C1.0000
T4F00S00C1.1000
T5F00S00C3.5000
%
T01
X00195Y0032
X00228292Y00369208
X00237542Y00404208
X00238792Y00445458
X0019625Y004425
X00189223Y00436145
X0017475Y0044675
X00176337Y00460545
X0017225Y00474
X001925Y0046425
X00206Y004885
X00216Y0048925
X00225792Y00490208
X00229Y00529
X00191Y00502
X00143042Y00501
X00162Y00525
X001635Y0042875
X00187292Y00398708
X0015124Y0036676
X0009725Y0034275
X00099792Y00393708
X00097292Y00423208
X00098542Y00473208
Y00501
X00098Y00529
T02
X000378Y0043165
Y0045165
Y0047165
Y0049165
Y0051165
Y0053165
Y0055165
Y0057165
Y0059165
Y0061165
X000578
Y0059165
Y0057165
Y0055165
Y0053165
Y0051165
Y0049165
Y0047165
Y0045165
Y0043165
T03
X00049Y0016
X000744
Y001854
X00049
Y002108
X000744
Y002362
X00049
Y002616
X000744
Y00287
X00049
Y003124
X000744
Y003378
X00049
Y003632
X000744
Y003886
X00049
T04
X0025Y0022
Y0032
Y0042
Y0052
T05
X000475Y0004
X0026
X000475Y0073
X0026
M30
