G04*
G04 #@! TF.GenerationSoftware,Altium Limited,Altium Designer,23.3.1 (30)*
G04*
G04 Layer_Physical_Order=1*
G04 Layer_Color=255*
%FSLAX44Y44*%
%MOMM*%
G71*
G04*
G04 #@! TF.SameCoordinates,93B2F360-A854-404C-8A8F-734AF7A26EB0*
G04*
G04*
G04 #@! TF.FilePolarity,Positive*
G04*
G01*
G75*
%ADD10C,0.2000*%
%ADD13C,0.1500*%
%ADD15C,0.1656*%
G04:AMPARAMS|DCode=17|XSize=0.85mm|YSize=0.85mm|CornerRadius=0.2125mm|HoleSize=0mm|Usage=FLASHONLY|Rotation=270.000|XOffset=0mm|YOffset=0mm|HoleType=Round|Shape=RoundedRectangle|*
%AMROUNDEDRECTD17*
21,1,0.8500,0.4250,0,0,270.0*
21,1,0.4250,0.8500,0,0,270.0*
1,1,0.4250,-0.2125,-0.2125*
1,1,0.4250,-0.2125,0.2125*
1,1,0.4250,0.2125,0.2125*
1,1,0.4250,0.2125,-0.2125*
%
%ADD17ROUNDEDRECTD17*%
G04:AMPARAMS|DCode=18|XSize=0.85mm|YSize=0.85mm|CornerRadius=0.2125mm|HoleSize=0mm|Usage=FLASHONLY|Rotation=180.000|XOffset=0mm|YOffset=0mm|HoleType=Round|Shape=RoundedRectangle|*
%AMROUNDEDRECTD18*
21,1,0.8500,0.4250,0,0,180.0*
21,1,0.4250,0.8500,0,0,180.0*
1,1,0.4250,-0.2125,0.2125*
1,1,0.4250,0.2125,0.2125*
1,1,0.4250,0.2125,-0.2125*
1,1,0.4250,-0.2125,-0.2125*
%
%ADD18ROUNDEDRECTD18*%
G04:AMPARAMS|DCode=19|XSize=1mm|YSize=1.4mm|CornerRadius=0.25mm|HoleSize=0mm|Usage=FLASHONLY|Rotation=0.000|XOffset=0mm|YOffset=0mm|HoleType=Round|Shape=RoundedRectangle|*
%AMROUNDEDRECTD19*
21,1,1.0000,0.9000,0,0,0.0*
21,1,0.5000,1.4000,0,0,0.0*
1,1,0.5000,0.2500,-0.4500*
1,1,0.5000,-0.2500,-0.4500*
1,1,0.5000,-0.2500,0.4500*
1,1,0.5000,0.2500,0.4500*
%
%ADD19ROUNDEDRECTD19*%
%ADD20C,0.1500*%
%ADD32C,1.0000*%
G04:AMPARAMS|DCode=33|XSize=1.7mm|YSize=2mm|CornerRadius=0.425mm|HoleSize=0mm|Usage=FLASHONLY|Rotation=90.000|XOffset=0mm|YOffset=0mm|HoleType=Round|Shape=RoundedRectangle|*
%AMROUNDEDRECTD33*
21,1,1.7000,1.1500,0,0,90.0*
21,1,0.8500,2.0000,0,0,90.0*
1,1,0.8500,0.5750,0.4250*
1,1,0.8500,0.5750,-0.4250*
1,1,0.8500,-0.5750,-0.4250*
1,1,0.8500,-0.5750,0.4250*
%
%ADD33ROUNDEDRECTD33*%
%ADD34C,1.3000*%
G04:AMPARAMS|DCode=35|XSize=1.3mm|YSize=1.3mm|CornerRadius=0.325mm|HoleSize=0mm|Usage=FLASHONLY|Rotation=90.000|XOffset=0mm|YOffset=0mm|HoleType=Round|Shape=RoundedRectangle|*
%AMROUNDEDRECTD35*
21,1,1.3000,0.6500,0,0,90.0*
21,1,0.6500,1.3000,0,0,90.0*
1,1,0.6500,0.3250,0.3250*
1,1,0.6500,0.3250,-0.3250*
1,1,0.6500,-0.3250,-0.3250*
1,1,0.6500,-0.3250,0.3250*
%
%ADD35ROUNDEDRECTD35*%
%ADD36C,1.6000*%
G04:AMPARAMS|DCode=37|XSize=1.6mm|YSize=1.6mm|CornerRadius=0.4mm|HoleSize=0mm|Usage=FLASHONLY|Rotation=90.000|XOffset=0mm|YOffset=0mm|HoleType=Round|Shape=RoundedRectangle|*
%AMROUNDEDRECTD37*
21,1,1.6000,0.8000,0,0,90.0*
21,1,0.8000,1.6000,0,0,90.0*
1,1,0.8000,0.4000,0.4000*
1,1,0.8000,0.4000,-0.4000*
1,1,0.8000,-0.4000,-0.4000*
1,1,0.8000,-0.4000,0.4000*
%
%ADD37ROUNDEDRECTD37*%
%ADD38C,0.7000*%
G36*
X93000Y533000D02*
X265000D01*
Y196750D01*
X93000D01*
Y145250D01*
X21500D01*
Y623250D01*
X93000D01*
Y533000D01*
D02*
G37*
G36*
X176621Y655304D02*
X130819Y660841D01*
X117049Y683963D01*
X134471Y712805D01*
X136477Y708876D01*
X149641Y716497D01*
X152066Y710088D01*
X154721Y712109D01*
X158936Y707202D01*
X162920Y714014D01*
X174553Y711676D01*
X194905Y691065D01*
X195771Y675996D01*
X176621Y655304D01*
D02*
G37*
G36*
X120075Y743991D02*
X121104Y736678D01*
X125324Y737272D01*
X124295Y744585D01*
X120075Y743991D01*
D02*
G37*
G36*
X148784Y758153D02*
X149258Y751458D01*
X152924Y751717D01*
X152451Y758412D01*
X148784Y758153D01*
D02*
G37*
G36*
X165139Y755704D02*
X166521Y749637D01*
X170807Y750613D01*
X169424Y756680D01*
X165139Y755704D01*
D02*
G37*
G36*
X194591Y760354D02*
X190851Y755976D01*
X193391Y753806D01*
X197131Y758185D01*
X194591Y760354D01*
D02*
G37*
%LPC*%
G36*
X57800Y620223D02*
X55581Y619931D01*
X53513Y619075D01*
X51738Y617712D01*
X50375Y615937D01*
X49519Y613869D01*
X49227Y611650D01*
X49519Y609431D01*
X50375Y607363D01*
X51738Y605588D01*
X53513Y604225D01*
X55581Y603369D01*
X57800Y603077D01*
X60019Y603369D01*
X62087Y604225D01*
X63862Y605588D01*
X65225Y607363D01*
X66081Y609431D01*
X66373Y611650D01*
X66081Y613869D01*
X65225Y615937D01*
X63862Y617712D01*
X62087Y619075D01*
X60019Y619931D01*
X57800Y620223D01*
D02*
G37*
G36*
X37800D02*
X35581Y619931D01*
X33513Y619075D01*
X31738Y617712D01*
X30375Y615937D01*
X29519Y613869D01*
X29227Y611650D01*
X29519Y609431D01*
X30375Y607363D01*
X31738Y605588D01*
X33513Y604225D01*
X35581Y603369D01*
X37800Y603077D01*
X40019Y603369D01*
X42087Y604225D01*
X43862Y605588D01*
X45225Y607363D01*
X46081Y609431D01*
X46373Y611650D01*
X46081Y613869D01*
X45225Y615937D01*
X43862Y617712D01*
X42087Y619075D01*
X40019Y619931D01*
X37800Y620223D01*
D02*
G37*
G36*
X58800Y600092D02*
Y592650D01*
X66242D01*
X66081Y593869D01*
X65225Y595937D01*
X63862Y597712D01*
X62087Y599075D01*
X60019Y599931D01*
X58800Y600092D01*
D02*
G37*
G36*
X56800D02*
X55581Y599931D01*
X53513Y599075D01*
X51738Y597712D01*
X50375Y595937D01*
X49519Y593869D01*
X49358Y592650D01*
X56800D01*
Y600092D01*
D02*
G37*
G36*
X66242Y590650D02*
X58800D01*
Y583208D01*
X60019Y583369D01*
X62087Y584225D01*
X63862Y585588D01*
X65225Y587363D01*
X66081Y589431D01*
X66242Y590650D01*
D02*
G37*
G36*
X56800D02*
X49358D01*
X49519Y589431D01*
X50375Y587363D01*
X51738Y585588D01*
X53513Y584225D01*
X55581Y583369D01*
X56800Y583208D01*
Y590650D01*
D02*
G37*
G36*
X37800Y600223D02*
X35581Y599931D01*
X33513Y599075D01*
X31738Y597712D01*
X30375Y595937D01*
X29519Y593869D01*
X29227Y591650D01*
X29519Y589431D01*
X30375Y587363D01*
X31738Y585588D01*
X33513Y584225D01*
X35581Y583369D01*
X37800Y583077D01*
X40019Y583369D01*
X42087Y584225D01*
X43862Y585588D01*
X45225Y587363D01*
X46081Y589431D01*
X46373Y591650D01*
X46081Y593869D01*
X45225Y595937D01*
X43862Y597712D01*
X42087Y599075D01*
X40019Y599931D01*
X37800Y600223D01*
D02*
G37*
G36*
X57800Y580223D02*
X55581Y579931D01*
X53513Y579075D01*
X51738Y577712D01*
X50375Y575937D01*
X49519Y573869D01*
X49227Y571650D01*
X49519Y569431D01*
X50375Y567363D01*
X51738Y565588D01*
X53513Y564225D01*
X55581Y563369D01*
X57800Y563077D01*
X60019Y563369D01*
X62087Y564225D01*
X63862Y565588D01*
X65225Y567363D01*
X66081Y569431D01*
X66373Y571650D01*
X66081Y573869D01*
X65225Y575937D01*
X63862Y577712D01*
X62087Y579075D01*
X60019Y579931D01*
X57800Y580223D01*
D02*
G37*
G36*
X37800D02*
X35581Y579931D01*
X33513Y579075D01*
X31738Y577712D01*
X30375Y575937D01*
X29519Y573869D01*
X29227Y571650D01*
X29519Y569431D01*
X30375Y567363D01*
X31738Y565588D01*
X33513Y564225D01*
X35581Y563369D01*
X37800Y563077D01*
X40019Y563369D01*
X42087Y564225D01*
X43862Y565588D01*
X45225Y567363D01*
X46081Y569431D01*
X46373Y571650D01*
X46081Y573869D01*
X45225Y575937D01*
X43862Y577712D01*
X42087Y579075D01*
X40019Y579931D01*
X37800Y580223D01*
D02*
G37*
G36*
X57800Y560223D02*
X55581Y559931D01*
X53513Y559075D01*
X51738Y557712D01*
X50375Y555937D01*
X49519Y553869D01*
X49227Y551650D01*
X49519Y549431D01*
X50375Y547363D01*
X51738Y545588D01*
X53513Y544225D01*
X55581Y543369D01*
X57800Y543077D01*
X60019Y543369D01*
X62087Y544225D01*
X63862Y545588D01*
X65225Y547363D01*
X66081Y549431D01*
X66373Y551650D01*
X66081Y553869D01*
X65225Y555937D01*
X63862Y557712D01*
X62087Y559075D01*
X60019Y559931D01*
X57800Y560223D01*
D02*
G37*
G36*
X37800D02*
X35581Y559931D01*
X33513Y559075D01*
X31738Y557712D01*
X30375Y555937D01*
X29519Y553869D01*
X29227Y551650D01*
X29519Y549431D01*
X30375Y547363D01*
X31738Y545588D01*
X33513Y544225D01*
X35581Y543369D01*
X37800Y543077D01*
X40019Y543369D01*
X42087Y544225D01*
X43862Y545588D01*
X45225Y547363D01*
X46081Y549431D01*
X46373Y551650D01*
X46081Y553869D01*
X45225Y555937D01*
X43862Y557712D01*
X42087Y559075D01*
X40019Y559931D01*
X37800Y560223D01*
D02*
G37*
G36*
X58800Y540092D02*
Y532650D01*
X66242D01*
X66081Y533869D01*
X65225Y535937D01*
X63862Y537712D01*
X62087Y539075D01*
X60019Y539931D01*
X58800Y540092D01*
D02*
G37*
G36*
X56800D02*
X55581Y539931D01*
X53513Y539075D01*
X51738Y537712D01*
X50375Y535937D01*
X49519Y533869D01*
X49358Y532650D01*
X56800D01*
Y540092D01*
D02*
G37*
G36*
X66242Y530650D02*
X58800D01*
Y523208D01*
X60019Y523369D01*
X62087Y524225D01*
X63862Y525588D01*
X65225Y527363D01*
X66081Y529431D01*
X66242Y530650D01*
D02*
G37*
G36*
X56800D02*
X49358D01*
X49519Y529431D01*
X50375Y527363D01*
X51738Y525588D01*
X53513Y524225D01*
X55581Y523369D01*
X56800Y523208D01*
Y530650D01*
D02*
G37*
G36*
X37800Y540223D02*
X35581Y539931D01*
X33513Y539075D01*
X31738Y537712D01*
X30375Y535937D01*
X29519Y533869D01*
X29227Y531650D01*
X29519Y529431D01*
X30375Y527363D01*
X31738Y525588D01*
X33513Y524225D01*
X35581Y523369D01*
X37800Y523077D01*
X40019Y523369D01*
X42087Y524225D01*
X43862Y525588D01*
X45225Y527363D01*
X46081Y529431D01*
X46373Y531650D01*
X46081Y533869D01*
X45225Y535937D01*
X43862Y537712D01*
X42087Y539075D01*
X40019Y539931D01*
X37800Y540223D01*
D02*
G37*
G36*
X255750Y530622D02*
X244250D01*
X241811Y530137D01*
X239744Y528756D01*
X238363Y526689D01*
X237878Y524250D01*
Y523059D01*
X172000D01*
X170830Y522826D01*
X169837Y522163D01*
X169837Y522163D01*
X145829Y498154D01*
X145166Y497162D01*
X144933Y495992D01*
X144933Y495992D01*
Y469130D01*
X144257Y468996D01*
X142893Y468084D01*
X141981Y466720D01*
X141661Y465110D01*
Y460860D01*
X141981Y459250D01*
X142893Y457886D01*
X144257Y456974D01*
X145867Y456654D01*
X150117D01*
X151726Y456974D01*
X153091Y457886D01*
X154002Y459250D01*
X154323Y460860D01*
Y460941D01*
X155911D01*
Y460860D01*
X156231Y459250D01*
X157143Y457886D01*
X158507Y456974D01*
X160117Y456654D01*
X164367D01*
X165976Y456974D01*
X166860Y457565D01*
X171830Y452594D01*
X171705Y451330D01*
X170785Y450715D01*
X169842Y449305D01*
X168573Y449690D01*
Y451110D01*
X168252Y452719D01*
X167341Y454084D01*
X165976Y454996D01*
X164367Y455316D01*
X163242D01*
Y448985D01*
Y442654D01*
X164367D01*
X165976Y442974D01*
X167341Y443886D01*
X168170Y445127D01*
X168656Y445167D01*
X169492Y444993D01*
X169569Y444604D01*
X170785Y442785D01*
X171441Y442346D01*
Y426500D01*
X171441Y426500D01*
X171441Y426500D01*
Y419905D01*
Y399419D01*
X135337Y363315D01*
X134674Y362323D01*
X134441Y361152D01*
X134441Y361152D01*
Y328059D01*
X128145D01*
X128011Y328735D01*
X127099Y330099D01*
X125735Y331011D01*
X124125Y331331D01*
X119875D01*
X118265Y331011D01*
X116901Y330099D01*
X115989Y328735D01*
X115669Y327125D01*
Y322875D01*
X115989Y321265D01*
X116901Y319901D01*
X118265Y318989D01*
X119875Y318669D01*
X124125D01*
X125735Y318989D01*
X127099Y319901D01*
X128011Y321265D01*
X128145Y321941D01*
X134441D01*
Y308767D01*
X129323Y303648D01*
X128855Y303679D01*
X127851Y303973D01*
X127099Y305099D01*
X125735Y306011D01*
X124125Y306331D01*
X119875D01*
X118265Y306011D01*
X116901Y305099D01*
X115989Y303734D01*
X115669Y302125D01*
Y297875D01*
X115989Y296266D01*
X116901Y294901D01*
X118265Y293989D01*
X119875Y293669D01*
X124125D01*
X125735Y293989D01*
X127099Y294901D01*
X128011Y296266D01*
X128145Y296941D01*
X130000D01*
X130000Y296941D01*
X131171Y297174D01*
X132163Y297837D01*
X139663Y305337D01*
X140326Y306329D01*
X140559Y307500D01*
X140559Y307500D01*
Y325250D01*
X140559Y325250D01*
X140559Y325250D01*
Y359885D01*
X176663Y395989D01*
X177326Y396982D01*
X177559Y398152D01*
X177559Y398153D01*
Y416846D01*
X237878D01*
Y415750D01*
X238363Y413311D01*
X239744Y411244D01*
X241811Y409863D01*
X244250Y409378D01*
X255750D01*
X258189Y409863D01*
X260256Y411244D01*
X261637Y413311D01*
X262122Y415750D01*
Y424250D01*
X261637Y426689D01*
X260256Y428756D01*
X258189Y430137D01*
X255750Y430622D01*
X244250D01*
X241811Y430137D01*
X239744Y428756D01*
X238363Y426689D01*
X237878Y424250D01*
Y422963D01*
X202988D01*
X202389Y424084D01*
X202511Y424266D01*
X202831Y425875D01*
Y427000D01*
X196500D01*
Y429000D01*
X202831D01*
Y430125D01*
X202511Y431735D01*
X201599Y433099D01*
X200235Y434011D01*
X198684Y434319D01*
Y440742D01*
X199076Y441329D01*
X199309Y442500D01*
X199076Y443671D01*
X198413Y444663D01*
X197421Y445326D01*
X196250Y445559D01*
X195079Y445326D01*
X194087Y444663D01*
X193462Y444038D01*
X193297Y443791D01*
X192027Y444176D01*
Y446617D01*
X192930Y447282D01*
X193240Y447387D01*
X194200Y447196D01*
X195273Y447410D01*
X196200Y448006D01*
X197127Y447410D01*
X198200Y447196D01*
X199273Y447410D01*
X200200Y448006D01*
X201127Y447410D01*
X202200Y447196D01*
X203273Y447410D01*
X204200Y448006D01*
X205127Y447410D01*
X206200Y447196D01*
X207273Y447410D01*
X208183Y448017D01*
X208790Y448927D01*
X209004Y450000D01*
X208790Y451073D01*
X208183Y451983D01*
X207273Y452590D01*
X206200Y452804D01*
X206055Y452775D01*
X204975Y453855D01*
X205004Y454000D01*
X204790Y455073D01*
X204183Y455983D01*
Y456017D01*
X204790Y456927D01*
X205004Y458000D01*
X204975Y458145D01*
X206055Y459225D01*
X206200Y459196D01*
X207273Y459410D01*
X208183Y460017D01*
X208790Y460927D01*
X209004Y462000D01*
X208790Y463073D01*
X208194Y464000D01*
X208790Y464927D01*
X209004Y466000D01*
X208790Y467073D01*
X208196Y467997D01*
X209015Y468849D01*
X217983Y477817D01*
X218590Y478727D01*
X218804Y479800D01*
Y484509D01*
X219965Y485285D01*
X221181Y487104D01*
X221608Y489250D01*
X221181Y491396D01*
X219965Y493215D01*
X218146Y494431D01*
X216000Y494858D01*
X213854Y494431D01*
X212035Y493215D01*
X211513Y492435D01*
X209986D01*
X209965Y492465D01*
X208146Y493681D01*
X206000Y494108D01*
X203854Y493681D01*
X202035Y492465D01*
X200819Y490646D01*
X200392Y488500D01*
X200819Y486354D01*
X202035Y484535D01*
X203854Y483319D01*
X205687Y482955D01*
X206247Y481745D01*
X205776Y480719D01*
X205127Y480590D01*
X204200Y479994D01*
X203273Y480591D01*
X202200Y480804D01*
X201127Y480590D01*
X200217Y479983D01*
X200183D01*
X199273Y480590D01*
X198200Y480804D01*
X197127Y480590D01*
X196200Y479994D01*
X195273Y480591D01*
X194200Y480804D01*
X193127Y480590D01*
X192200Y479994D01*
X191273Y480591D01*
X190200Y480804D01*
X189127Y480590D01*
X188217Y479983D01*
X188183D01*
X187273Y480590D01*
X186200Y480804D01*
X185127Y480590D01*
X184217Y479983D01*
X183351Y480815D01*
X182804Y481361D01*
Y484804D01*
X183734Y484989D01*
X185099Y485901D01*
X186011Y487266D01*
X186331Y488875D01*
Y493125D01*
X186011Y494734D01*
X185099Y496099D01*
X183734Y497011D01*
X183459Y497755D01*
X183734Y498989D01*
X185099Y499901D01*
X186011Y501265D01*
X186331Y502875D01*
Y504000D01*
X173669D01*
Y502875D01*
X173856Y501938D01*
X173989Y501265D01*
X173112Y500590D01*
X172202Y499983D01*
X170267Y498048D01*
X169660Y497138D01*
X169446Y496065D01*
Y478741D01*
X168285Y477965D01*
X167069Y476146D01*
X166642Y474000D01*
X167069Y471854D01*
X168285Y470035D01*
X170104Y468819D01*
X172250Y468392D01*
X174396Y468819D01*
X176215Y470035D01*
X177431Y471854D01*
X177858Y474000D01*
X177431Y476146D01*
X176215Y477965D01*
X175054Y478741D01*
Y484228D01*
X176084Y484916D01*
X177196Y484517D01*
Y480200D01*
X177410Y479127D01*
X178017Y478217D01*
X179385Y476849D01*
X180217Y475983D01*
X179610Y475073D01*
X179396Y474000D01*
X179610Y472927D01*
X180217Y472017D01*
Y471983D01*
X179610Y471073D01*
X179396Y470000D01*
X179610Y468927D01*
X180206Y468000D01*
X179610Y467073D01*
X179396Y466000D01*
X179610Y464927D01*
X180206Y464000D01*
X179610Y463073D01*
X179396Y462000D01*
X179610Y460927D01*
X180206Y460000D01*
X179610Y459073D01*
X179396Y458000D01*
X178288Y457059D01*
X176017D01*
X168573Y464503D01*
Y465110D01*
X168252Y466720D01*
X167341Y468084D01*
X165976Y468996D01*
X164367Y469316D01*
X160117D01*
X158507Y468996D01*
X157143Y468084D01*
X156458Y467059D01*
X153776D01*
X153091Y468084D01*
X151726Y468996D01*
X151050Y469130D01*
Y494725D01*
X173267Y516941D01*
X237878D01*
Y515750D01*
X238363Y513311D01*
X239744Y511244D01*
X241811Y509863D01*
X244250Y509378D01*
X255750D01*
X258189Y509863D01*
X260256Y511244D01*
X261637Y513311D01*
X262122Y515750D01*
Y524250D01*
X261637Y526689D01*
X260256Y528756D01*
X258189Y530137D01*
X255750Y530622D01*
D02*
G37*
G36*
X182125Y511331D02*
X181000D01*
Y506000D01*
X186331D01*
Y507125D01*
X186011Y508735D01*
X185099Y510099D01*
X183734Y511011D01*
X182125Y511331D01*
D02*
G37*
G36*
X179000D02*
X177875D01*
X176266Y511011D01*
X174901Y510099D01*
X173989Y508735D01*
X173669Y507125D01*
Y506000D01*
X179000D01*
Y511331D01*
D02*
G37*
G36*
X57800Y520223D02*
X55581Y519931D01*
X53513Y519075D01*
X51738Y517712D01*
X50375Y515937D01*
X49519Y513869D01*
X49227Y511650D01*
X49519Y509431D01*
X50375Y507363D01*
X51738Y505588D01*
X53513Y504225D01*
X55581Y503369D01*
X57800Y503077D01*
X60019Y503369D01*
X62087Y504225D01*
X63862Y505588D01*
X65225Y507363D01*
X66081Y509431D01*
X66373Y511650D01*
X66081Y513869D01*
X65225Y515937D01*
X63862Y517712D01*
X62087Y519075D01*
X60019Y519931D01*
X57800Y520223D01*
D02*
G37*
G36*
X37800D02*
X35581Y519931D01*
X33513Y519075D01*
X31738Y517712D01*
X30375Y515937D01*
X29519Y513869D01*
X29227Y511650D01*
X29519Y509431D01*
X30375Y507363D01*
X31738Y505588D01*
X33513Y504225D01*
X35581Y503369D01*
X37800Y503077D01*
X40019Y503369D01*
X42087Y504225D01*
X43862Y505588D01*
X45225Y507363D01*
X46081Y509431D01*
X46373Y511650D01*
X46081Y513869D01*
X45225Y515937D01*
X43862Y517712D01*
X42087Y519075D01*
X40019Y519931D01*
X37800Y520223D01*
D02*
G37*
G36*
X58800Y500092D02*
Y492650D01*
X66242D01*
X66081Y493869D01*
X65225Y495937D01*
X63862Y497712D01*
X62087Y499075D01*
X60019Y499931D01*
X58800Y500092D01*
D02*
G37*
G36*
X56800D02*
X55581Y499931D01*
X53513Y499075D01*
X51738Y497712D01*
X50375Y495937D01*
X49519Y493869D01*
X49358Y492650D01*
X56800D01*
Y500092D01*
D02*
G37*
G36*
X66242Y490650D02*
X58800D01*
Y483208D01*
X60019Y483369D01*
X62087Y484225D01*
X63862Y485588D01*
X65225Y487363D01*
X66081Y489431D01*
X66242Y490650D01*
D02*
G37*
G36*
X56800D02*
X49358D01*
X49519Y489431D01*
X50375Y487363D01*
X51738Y485588D01*
X53513Y484225D01*
X55581Y483369D01*
X56800Y483208D01*
Y490650D01*
D02*
G37*
G36*
X37800Y500223D02*
X35581Y499931D01*
X33513Y499075D01*
X31738Y497712D01*
X30375Y495937D01*
X29519Y493869D01*
X29227Y491650D01*
X29519Y489431D01*
X30375Y487363D01*
X31738Y485588D01*
X33513Y484225D01*
X35581Y483369D01*
X37800Y483077D01*
X40019Y483369D01*
X42087Y484225D01*
X43862Y485588D01*
X45225Y487363D01*
X46081Y489431D01*
X46373Y491650D01*
X46081Y493869D01*
X45225Y495937D01*
X43862Y497712D01*
X42087Y499075D01*
X40019Y499931D01*
X37800Y500223D01*
D02*
G37*
G36*
X38800Y480092D02*
Y472650D01*
X46242D01*
X46081Y473869D01*
X45225Y475937D01*
X43862Y477712D01*
X42087Y479075D01*
X40019Y479931D01*
X38800Y480092D01*
D02*
G37*
G36*
X36800D02*
X35581Y479931D01*
X33513Y479075D01*
X31738Y477712D01*
X30375Y475937D01*
X29519Y473869D01*
X29358Y472650D01*
X36800D01*
Y480092D01*
D02*
G37*
G36*
Y470650D02*
X29358D01*
X29519Y469431D01*
X30375Y467363D01*
X31738Y465588D01*
X33513Y464225D01*
X35581Y463369D01*
X36800Y463208D01*
Y470650D01*
D02*
G37*
G36*
X46242D02*
X38800D01*
Y463208D01*
X40019Y463369D01*
X42087Y464225D01*
X43862Y465588D01*
X45225Y467363D01*
X46081Y469431D01*
X46242Y470650D01*
D02*
G37*
G36*
X57800Y480223D02*
X55581Y479931D01*
X53513Y479075D01*
X51738Y477712D01*
X50375Y475937D01*
X49519Y473869D01*
X49227Y471650D01*
X49519Y469431D01*
X50375Y467363D01*
X51738Y465588D01*
X53513Y464225D01*
X55581Y463369D01*
X57800Y463077D01*
X60019Y463369D01*
X62087Y464225D01*
X63862Y465588D01*
X65225Y467363D01*
X66081Y469431D01*
X66373Y471650D01*
X66081Y473869D01*
X65225Y475937D01*
X63862Y477712D01*
X62087Y479075D01*
X60019Y479931D01*
X57800Y480223D01*
D02*
G37*
G36*
X58800Y460092D02*
Y452650D01*
X66242D01*
X66081Y453869D01*
X65225Y455937D01*
X63862Y457712D01*
X62087Y459075D01*
X60019Y459931D01*
X58800Y460092D01*
D02*
G37*
G36*
X56800D02*
X55581Y459931D01*
X53513Y459075D01*
X51738Y457712D01*
X50375Y455937D01*
X49519Y453869D01*
X49358Y452650D01*
X56800D01*
Y460092D01*
D02*
G37*
G36*
X161242Y455316D02*
X160117D01*
X158507Y454996D01*
X157143Y454084D01*
X156231Y452719D01*
X155911Y451110D01*
Y449985D01*
X161242D01*
Y455316D01*
D02*
G37*
G36*
X66242Y450650D02*
X58800D01*
Y443208D01*
X60019Y443369D01*
X62087Y444225D01*
X63862Y445588D01*
X65225Y447363D01*
X66081Y449431D01*
X66242Y450650D01*
D02*
G37*
G36*
X56800D02*
X49358D01*
X49519Y449431D01*
X50375Y447363D01*
X51738Y445588D01*
X53513Y444225D01*
X55581Y443369D01*
X56800Y443208D01*
Y450650D01*
D02*
G37*
G36*
X37800Y460223D02*
X35581Y459931D01*
X33513Y459075D01*
X31738Y457712D01*
X30375Y455937D01*
X29519Y453869D01*
X29227Y451650D01*
X29519Y449431D01*
X30375Y447363D01*
X31738Y445588D01*
X33513Y444225D01*
X35581Y443369D01*
X37800Y443077D01*
X40019Y443369D01*
X42087Y444225D01*
X43862Y445588D01*
X45225Y447363D01*
X46081Y449431D01*
X46373Y451650D01*
X46081Y453869D01*
X45225Y455937D01*
X43862Y457712D01*
X42087Y459075D01*
X40019Y459931D01*
X37800Y460223D01*
D02*
G37*
G36*
X161242Y447985D02*
X155911D01*
Y446860D01*
X156231Y445251D01*
X157143Y443886D01*
X158507Y442974D01*
X160117Y442654D01*
X161242D01*
Y447985D01*
D02*
G37*
G36*
X41050Y440253D02*
X38800D01*
Y432650D01*
X46403D01*
Y434900D01*
X45995Y436948D01*
X44835Y438685D01*
X43098Y439845D01*
X41050Y440253D01*
D02*
G37*
G36*
X36800D02*
X34550D01*
X32502Y439845D01*
X30765Y438685D01*
X29605Y436948D01*
X29197Y434900D01*
Y432650D01*
X36800D01*
Y440253D01*
D02*
G37*
G36*
X57800Y440223D02*
X55581Y439931D01*
X53513Y439075D01*
X51738Y437712D01*
X50375Y435937D01*
X49519Y433869D01*
X49227Y431650D01*
X49519Y429431D01*
X50375Y427363D01*
X51738Y425588D01*
X53513Y424225D01*
X55581Y423369D01*
X57800Y423077D01*
X60019Y423369D01*
X62087Y424225D01*
X63862Y425588D01*
X65225Y427363D01*
X66081Y429431D01*
X66373Y431650D01*
X66081Y433869D01*
X65225Y435937D01*
X63862Y437712D01*
X62087Y439075D01*
X60019Y439931D01*
X57800Y440223D01*
D02*
G37*
G36*
X46403Y430650D02*
X38800D01*
Y423047D01*
X41050D01*
X43098Y423455D01*
X44835Y424615D01*
X45995Y426352D01*
X46403Y428400D01*
Y430650D01*
D02*
G37*
G36*
X36800D02*
X29197D01*
Y428400D01*
X29605Y426352D01*
X30765Y424615D01*
X32502Y423455D01*
X34550Y423047D01*
X36800D01*
Y430650D01*
D02*
G37*
G36*
X114125Y424331D02*
X113000D01*
Y419000D01*
X118331D01*
Y420125D01*
X118011Y421735D01*
X117099Y423099D01*
X115735Y424011D01*
X114125Y424331D01*
D02*
G37*
G36*
X111000D02*
X109875D01*
X108265Y424011D01*
X106901Y423099D01*
X105989Y421735D01*
X105669Y420125D01*
Y419000D01*
X111000D01*
Y424331D01*
D02*
G37*
G36*
X150117Y455316D02*
X145867D01*
X144257Y454996D01*
X142893Y454084D01*
X141981Y452719D01*
X141661Y451110D01*
Y446860D01*
X141981Y445251D01*
X142893Y443886D01*
X144257Y442974D01*
X145441Y442739D01*
Y433694D01*
X143736Y433354D01*
X142247Y432360D01*
X141253Y430871D01*
X140904Y429115D01*
Y420115D01*
X141253Y418360D01*
X142247Y416871D01*
X143736Y415877D01*
X145492Y415527D01*
X150492D01*
X152247Y415877D01*
X153736Y416871D01*
X154731Y418360D01*
X155080Y420115D01*
Y429115D01*
X154731Y430871D01*
X153736Y432360D01*
X152247Y433354D01*
X151559Y433491D01*
Y442941D01*
X151726Y442974D01*
X153091Y443886D01*
X154002Y445251D01*
X154323Y446860D01*
Y451110D01*
X154002Y452719D01*
X153091Y454084D01*
X151726Y454996D01*
X150117Y455316D01*
D02*
G37*
G36*
X118331Y417000D02*
X113000D01*
Y411669D01*
X114125D01*
X115735Y411989D01*
X117099Y412901D01*
X118011Y414266D01*
X118331Y415875D01*
Y417000D01*
D02*
G37*
G36*
X111000D02*
X105669D01*
Y415875D01*
X105989Y414266D01*
X106901Y412901D01*
X108265Y411989D01*
X109875Y411669D01*
X111000D01*
Y417000D01*
D02*
G37*
G36*
X159992Y411703D02*
X158492D01*
Y403615D01*
X164580D01*
Y407115D01*
X164231Y408871D01*
X163236Y410360D01*
X161747Y411354D01*
X159992Y411703D01*
D02*
G37*
G36*
X156492D02*
X154992D01*
X153236Y411354D01*
X151747Y410360D01*
X150753Y408871D01*
X150403Y407115D01*
Y403615D01*
X156492D01*
Y411703D01*
D02*
G37*
G36*
X164580Y401615D02*
X158492D01*
Y393527D01*
X159992D01*
X161747Y393876D01*
X163236Y394871D01*
X164231Y396360D01*
X164580Y398115D01*
Y401615D01*
D02*
G37*
G36*
X156492D02*
X150403D01*
Y398115D01*
X150753Y396360D01*
X151747Y394871D01*
X153236Y393876D01*
X154992Y393527D01*
X156492D01*
Y401615D01*
D02*
G37*
G36*
X75400Y398555D02*
Y389600D01*
X84355D01*
X84143Y391211D01*
X83135Y393643D01*
X81532Y395732D01*
X79443Y397335D01*
X77010Y398343D01*
X75400Y398555D01*
D02*
G37*
G36*
X73400D02*
X71789Y398343D01*
X69357Y397335D01*
X67268Y395732D01*
X65665Y393643D01*
X64657Y391211D01*
X64445Y389600D01*
X73400D01*
Y398555D01*
D02*
G37*
G36*
X140992Y411703D02*
X135992D01*
X134236Y411354D01*
X132747Y410360D01*
X131753Y408871D01*
X131404Y407115D01*
Y398115D01*
X131753Y396360D01*
X132747Y394871D01*
X133978Y394049D01*
Y391058D01*
X129479Y386559D01*
X115059D01*
Y397855D01*
X115735Y397989D01*
X117099Y398901D01*
X118011Y400266D01*
X118331Y401875D01*
Y406125D01*
X118011Y407734D01*
X117099Y409099D01*
X115735Y410011D01*
X114125Y410331D01*
X109875D01*
X108265Y410011D01*
X106901Y409099D01*
X105989Y407734D01*
X105669Y406125D01*
Y401875D01*
X105989Y400266D01*
X106901Y398901D01*
X108265Y397989D01*
X108941Y397855D01*
Y384767D01*
X102608Y378434D01*
X79307D01*
X79054Y379704D01*
X79443Y379865D01*
X81532Y381468D01*
X83135Y383557D01*
X84143Y385989D01*
X84355Y387600D01*
X74400D01*
X64445D01*
X64657Y385989D01*
X65665Y383557D01*
X67268Y381468D01*
X69357Y379865D01*
X69746Y379704D01*
X69493Y378434D01*
X63492D01*
X57921Y384005D01*
X58743Y385989D01*
X59086Y388600D01*
X58743Y391211D01*
X57735Y393643D01*
X56132Y395732D01*
X54043Y397335D01*
X51610Y398343D01*
X49000Y398686D01*
X46389Y398343D01*
X43957Y397335D01*
X41868Y395732D01*
X40265Y393643D01*
X39257Y391211D01*
X38914Y388600D01*
X39257Y385989D01*
X40265Y383557D01*
X41868Y381468D01*
X43957Y379865D01*
X46389Y378857D01*
X49000Y378514D01*
X51610Y378857D01*
X53595Y379679D01*
X60062Y373212D01*
X60062Y373212D01*
X61054Y372549D01*
X62225Y372316D01*
X67768D01*
X68199Y371046D01*
X67268Y370332D01*
X65665Y368243D01*
X64657Y365811D01*
X64314Y363200D01*
X64657Y360589D01*
X65665Y358157D01*
X67268Y356068D01*
X69357Y354465D01*
X71789Y353457D01*
X74400Y353114D01*
X77010Y353457D01*
X79443Y354465D01*
X81532Y356068D01*
X83135Y358157D01*
X84143Y360589D01*
X84486Y363200D01*
X84143Y365811D01*
X83135Y368243D01*
X81532Y370332D01*
X80601Y371046D01*
X81032Y372316D01*
X103875D01*
X103875Y372316D01*
X105046Y372549D01*
X106038Y373212D01*
X113267Y380441D01*
X130746D01*
X130746Y380441D01*
X131917Y380674D01*
X132909Y381337D01*
X139200Y387628D01*
X139863Y388620D01*
X140096Y389790D01*
X140096Y389791D01*
Y393527D01*
X140992D01*
X142747Y393876D01*
X144236Y394871D01*
X145231Y396360D01*
X145580Y398115D01*
Y407115D01*
X145231Y408871D01*
X144236Y410360D01*
X142747Y411354D01*
X140992Y411703D01*
D02*
G37*
G36*
X49000Y373286D02*
X46389Y372943D01*
X43957Y371935D01*
X41868Y370332D01*
X40265Y368243D01*
X39257Y365811D01*
X38914Y363200D01*
X39257Y360589D01*
X40265Y358157D01*
X41868Y356068D01*
X43957Y354465D01*
X46389Y353457D01*
X49000Y353114D01*
X51610Y353457D01*
X54043Y354465D01*
X56132Y356068D01*
X57735Y358157D01*
X58743Y360589D01*
X59086Y363200D01*
X58743Y365811D01*
X57735Y368243D01*
X56132Y370332D01*
X54043Y371935D01*
X51610Y372943D01*
X49000Y373286D01*
D02*
G37*
G36*
X75400Y347755D02*
Y338800D01*
X84355D01*
X84143Y340410D01*
X83135Y342843D01*
X81532Y344932D01*
X79443Y346535D01*
X77010Y347543D01*
X75400Y347755D01*
D02*
G37*
G36*
X73400D02*
X71789Y347543D01*
X69357Y346535D01*
X67268Y344932D01*
X65665Y342843D01*
X64657Y340410D01*
X64445Y338800D01*
X73400D01*
Y347755D01*
D02*
G37*
G36*
X49000Y347886D02*
X46389Y347543D01*
X43957Y346535D01*
X41868Y344932D01*
X40265Y342843D01*
X39257Y340410D01*
X38914Y337800D01*
X39257Y335190D01*
X40265Y332757D01*
X41868Y330668D01*
X43957Y329065D01*
X46389Y328057D01*
X49000Y327714D01*
X51610Y328057D01*
X54043Y329065D01*
X56132Y330668D01*
X57735Y332757D01*
X58743Y335190D01*
X59086Y337800D01*
X58743Y340410D01*
X57735Y342843D01*
X56132Y344932D01*
X54043Y346535D01*
X51610Y347543D01*
X49000Y347886D01*
D02*
G37*
G36*
X255750Y330622D02*
X244250D01*
X241811Y330137D01*
X239744Y328756D01*
X238363Y326689D01*
X237878Y324250D01*
Y323059D01*
X199571D01*
X198965Y323965D01*
X197146Y325181D01*
X195000Y325608D01*
X192854Y325181D01*
X191035Y323965D01*
X189819Y322146D01*
X189392Y320000D01*
X189819Y317854D01*
X191035Y316035D01*
X192854Y314819D01*
X195000Y314392D01*
X197146Y314819D01*
X198965Y316035D01*
X199571Y316941D01*
X237878D01*
Y315750D01*
X238363Y313311D01*
X239744Y311244D01*
X241811Y309863D01*
X244250Y309378D01*
X255750D01*
X258189Y309863D01*
X260256Y311244D01*
X261637Y313311D01*
X262122Y315750D01*
Y324250D01*
X261637Y326689D01*
X260256Y328756D01*
X258189Y330137D01*
X255750Y330622D01*
D02*
G37*
G36*
X84355Y336800D02*
X74400D01*
X64445D01*
X64657Y335190D01*
X65665Y332757D01*
X67268Y330668D01*
X69013Y329329D01*
X68582Y328059D01*
X61600D01*
X60430Y327826D01*
X59437Y327163D01*
X59437Y327163D01*
X53595Y321321D01*
X51610Y322143D01*
X49000Y322486D01*
X46389Y322143D01*
X43957Y321135D01*
X41868Y319532D01*
X40265Y317443D01*
X39257Y315011D01*
X38914Y312400D01*
X39257Y309790D01*
X40265Y307357D01*
X41868Y305268D01*
X43957Y303665D01*
X46389Y302657D01*
X49000Y302314D01*
X51610Y302657D01*
X54043Y303665D01*
X56132Y305268D01*
X57735Y307357D01*
X58743Y309790D01*
X59086Y312400D01*
X58743Y315011D01*
X57921Y316995D01*
X62867Y321941D01*
X68321D01*
X68753Y320671D01*
X67268Y319532D01*
X65665Y317443D01*
X64657Y315011D01*
X64314Y312400D01*
X64657Y309790D01*
X65665Y307357D01*
X67268Y305268D01*
X68166Y304579D01*
X67735Y303309D01*
X65750D01*
X64579Y303076D01*
X63587Y302413D01*
X63587Y302413D01*
X59337Y298163D01*
X58674Y297171D01*
X58441Y296000D01*
X58441Y296000D01*
Y293209D01*
X57171Y292778D01*
X56132Y294132D01*
X54043Y295735D01*
X51610Y296743D01*
X49000Y297086D01*
X46389Y296743D01*
X43957Y295735D01*
X41868Y294132D01*
X40265Y292043D01*
X39257Y289611D01*
X38914Y287000D01*
X39257Y284389D01*
X40265Y281957D01*
X41868Y279868D01*
X43957Y278265D01*
X46389Y277257D01*
X49000Y276914D01*
X51610Y277257D01*
X54043Y278265D01*
X56132Y279868D01*
X57171Y281222D01*
X58441Y280791D01*
Y275367D01*
X53595Y270521D01*
X51610Y271343D01*
X49000Y271686D01*
X46389Y271343D01*
X43957Y270335D01*
X41868Y268732D01*
X40265Y266643D01*
X39257Y264210D01*
X38914Y261600D01*
X39257Y258990D01*
X40265Y256557D01*
X41868Y254468D01*
X43957Y252865D01*
X46389Y251857D01*
X49000Y251514D01*
X51610Y251857D01*
X54043Y252865D01*
X56132Y254468D01*
X57735Y256557D01*
X58743Y258990D01*
X59086Y261600D01*
X58743Y264210D01*
X57921Y266195D01*
X63663Y271937D01*
X63663Y271937D01*
X64326Y272929D01*
X64559Y274100D01*
Y281404D01*
X64984Y281616D01*
X65829Y281744D01*
X67268Y279868D01*
X69357Y278265D01*
X71789Y277257D01*
X74400Y276914D01*
X77010Y277257D01*
X79443Y278265D01*
X81532Y279868D01*
X83135Y281957D01*
X84143Y284389D01*
X84486Y287000D01*
X84143Y289611D01*
X83135Y292043D01*
X81532Y294132D01*
X79443Y295735D01*
X78993Y295921D01*
X79246Y297191D01*
X101805D01*
X101989Y296266D01*
X102901Y294901D01*
X104265Y293989D01*
X105875Y293669D01*
X110125D01*
X111735Y293989D01*
X113099Y294901D01*
X114011Y296266D01*
X114331Y297875D01*
Y302125D01*
X114011Y303734D01*
X113099Y305099D01*
X111735Y306011D01*
X110125Y306331D01*
X105875D01*
X104265Y306011D01*
X102901Y305099D01*
X101989Y303734D01*
X101905Y303309D01*
X81065D01*
X80634Y304579D01*
X81532Y305268D01*
X83135Y307357D01*
X84143Y309790D01*
X84486Y312400D01*
X84143Y315011D01*
X83135Y317443D01*
X81532Y319532D01*
X80047Y320671D01*
X80479Y321941D01*
X101855D01*
X101989Y321265D01*
X102901Y319901D01*
X104265Y318989D01*
X105875Y318669D01*
X110125D01*
X111735Y318989D01*
X113099Y319901D01*
X114011Y321265D01*
X114331Y322875D01*
Y327125D01*
X114011Y328735D01*
X113099Y330099D01*
X111735Y331011D01*
X110125Y331331D01*
X105875D01*
X104265Y331011D01*
X102901Y330099D01*
X101989Y328735D01*
X101855Y328059D01*
X80218D01*
X79787Y329329D01*
X81532Y330668D01*
X83135Y332757D01*
X84143Y335190D01*
X84355Y336800D01*
D02*
G37*
G36*
X75400Y271555D02*
Y262600D01*
X84355D01*
X84143Y264210D01*
X83135Y266643D01*
X81532Y268732D01*
X79443Y270335D01*
X77010Y271343D01*
X75400Y271555D01*
D02*
G37*
G36*
X73400D02*
X71789Y271343D01*
X69357Y270335D01*
X67268Y268732D01*
X65665Y266643D01*
X64657Y264210D01*
X64445Y262600D01*
X73400D01*
Y271555D01*
D02*
G37*
G36*
X84355Y260600D02*
X75400D01*
Y251645D01*
X77010Y251857D01*
X79443Y252865D01*
X81532Y254468D01*
X83135Y256557D01*
X84143Y258990D01*
X84355Y260600D01*
D02*
G37*
G36*
X73400D02*
X64445D01*
X64657Y258990D01*
X65665Y256557D01*
X67268Y254468D01*
X69357Y252865D01*
X71789Y251857D01*
X73400Y251645D01*
Y260600D01*
D02*
G37*
G36*
X74400Y246286D02*
X71789Y245943D01*
X69357Y244935D01*
X67268Y243332D01*
X65665Y241243D01*
X64657Y238811D01*
X64314Y236200D01*
X64657Y233589D01*
X65665Y231157D01*
X67268Y229068D01*
X69357Y227465D01*
X71789Y226457D01*
X74400Y226114D01*
X77010Y226457D01*
X79443Y227465D01*
X81532Y229068D01*
X83135Y231157D01*
X84143Y233589D01*
X84486Y236200D01*
X84143Y238811D01*
X83135Y241243D01*
X81532Y243332D01*
X79443Y244935D01*
X77010Y245943D01*
X74400Y246286D01*
D02*
G37*
G36*
X49000D02*
X46389Y245943D01*
X43957Y244935D01*
X41868Y243332D01*
X40265Y241243D01*
X39257Y238811D01*
X38914Y236200D01*
X39257Y233589D01*
X40265Y231157D01*
X41868Y229068D01*
X43957Y227465D01*
X46389Y226457D01*
X49000Y226114D01*
X51610Y226457D01*
X54043Y227465D01*
X56132Y229068D01*
X57735Y231157D01*
X58743Y233589D01*
X59086Y236200D01*
X58743Y238811D01*
X57735Y241243D01*
X56132Y243332D01*
X54043Y244935D01*
X51610Y245943D01*
X49000Y246286D01*
D02*
G37*
G36*
X255750Y230622D02*
X251000D01*
Y221000D01*
X262122D01*
Y224250D01*
X261637Y226689D01*
X260256Y228756D01*
X258189Y230137D01*
X255750Y230622D01*
D02*
G37*
G36*
X249000D02*
X244250D01*
X241811Y230137D01*
X239744Y228756D01*
X238363Y226689D01*
X237878Y224250D01*
Y221000D01*
X249000D01*
Y230622D01*
D02*
G37*
G36*
X75400Y220755D02*
Y211800D01*
X84355D01*
X84143Y213410D01*
X83135Y215843D01*
X81532Y217932D01*
X79443Y219535D01*
X77010Y220543D01*
X75400Y220755D01*
D02*
G37*
G36*
X73400D02*
X71789Y220543D01*
X69357Y219535D01*
X67268Y217932D01*
X65665Y215843D01*
X64657Y213410D01*
X64445Y211800D01*
X73400D01*
Y220755D01*
D02*
G37*
G36*
X262122Y219000D02*
X251000D01*
Y209378D01*
X255750D01*
X258189Y209863D01*
X260256Y211244D01*
X261637Y213311D01*
X262122Y215750D01*
Y219000D01*
D02*
G37*
G36*
X249000D02*
X237878D01*
Y215750D01*
X238363Y213311D01*
X239744Y211244D01*
X241811Y209863D01*
X244250Y209378D01*
X249000D01*
Y219000D01*
D02*
G37*
G36*
X84355Y209800D02*
X75400D01*
Y200845D01*
X77010Y201057D01*
X79443Y202065D01*
X81532Y203668D01*
X83135Y205757D01*
X84143Y208190D01*
X84355Y209800D01*
D02*
G37*
G36*
X73400D02*
X64445D01*
X64657Y208190D01*
X65665Y205757D01*
X67268Y203668D01*
X69357Y202065D01*
X71789Y201057D01*
X73400Y200845D01*
Y209800D01*
D02*
G37*
G36*
X49000Y220886D02*
X46389Y220543D01*
X43957Y219535D01*
X41868Y217932D01*
X40265Y215843D01*
X39257Y213410D01*
X38914Y210800D01*
X39257Y208190D01*
X40265Y205757D01*
X41868Y203668D01*
X43957Y202065D01*
X46389Y201057D01*
X49000Y200714D01*
X51610Y201057D01*
X54043Y202065D01*
X56132Y203668D01*
X57735Y205757D01*
X58743Y208190D01*
X59086Y210800D01*
X58743Y213410D01*
X57735Y215843D01*
X56132Y217932D01*
X54043Y219535D01*
X51610Y220543D01*
X49000Y220886D01*
D02*
G37*
G36*
X74400Y195486D02*
X71789Y195143D01*
X69357Y194135D01*
X67268Y192532D01*
X65665Y190443D01*
X64657Y188011D01*
X64314Y185400D01*
X64657Y182789D01*
X65665Y180357D01*
X67268Y178268D01*
X69357Y176665D01*
X71789Y175657D01*
X74400Y175314D01*
X77010Y175657D01*
X79443Y176665D01*
X81532Y178268D01*
X83135Y180357D01*
X84143Y182789D01*
X84486Y185400D01*
X84143Y188011D01*
X83135Y190443D01*
X81532Y192532D01*
X79443Y194135D01*
X77010Y195143D01*
X74400Y195486D01*
D02*
G37*
G36*
X49000D02*
X46389Y195143D01*
X43957Y194135D01*
X41868Y192532D01*
X40265Y190443D01*
X39257Y188011D01*
X38914Y185400D01*
X39257Y182789D01*
X40265Y180357D01*
X41868Y178268D01*
X43957Y176665D01*
X46389Y175657D01*
X49000Y175314D01*
X51610Y175657D01*
X54043Y176665D01*
X56132Y178268D01*
X57735Y180357D01*
X58743Y182789D01*
X59086Y185400D01*
X58743Y188011D01*
X57735Y190443D01*
X56132Y192532D01*
X54043Y194135D01*
X51610Y195143D01*
X49000Y195486D01*
D02*
G37*
G36*
X75400Y169955D02*
Y161000D01*
X84355D01*
X84143Y162610D01*
X83135Y165043D01*
X81532Y167132D01*
X79443Y168735D01*
X77010Y169743D01*
X75400Y169955D01*
D02*
G37*
G36*
X73400D02*
X71789Y169743D01*
X69357Y168735D01*
X67268Y167132D01*
X65665Y165043D01*
X64657Y162610D01*
X64445Y161000D01*
X73400D01*
Y169955D01*
D02*
G37*
G36*
X84355Y159000D02*
X75400D01*
Y150045D01*
X77010Y150257D01*
X79443Y151265D01*
X81532Y152868D01*
X83135Y154957D01*
X84143Y157389D01*
X84355Y159000D01*
D02*
G37*
G36*
X73400D02*
X64445D01*
X64657Y157389D01*
X65665Y154957D01*
X67268Y152868D01*
X69357Y151265D01*
X71789Y150257D01*
X73400Y150045D01*
Y159000D01*
D02*
G37*
G36*
X53000Y170117D02*
X45000D01*
X42659Y169652D01*
X40674Y168326D01*
X39348Y166341D01*
X38883Y164000D01*
Y156000D01*
X39348Y153659D01*
X40674Y151674D01*
X42659Y150348D01*
X45000Y149882D01*
X53000D01*
X55341Y150348D01*
X57326Y151674D01*
X58652Y153659D01*
X59117Y156000D01*
Y164000D01*
X58652Y166341D01*
X57326Y168326D01*
X55341Y169652D01*
X53000Y170117D01*
D02*
G37*
%LPD*%
D10*
X137500Y325250D02*
Y361152D01*
Y307500D02*
Y325250D01*
X122000Y325000D02*
X137250D01*
X137500Y325250D01*
Y361152D02*
X174500Y398152D01*
X130000Y300000D02*
X137500Y307500D01*
X122000Y300000D02*
X130000D01*
X61600Y325000D02*
X107342D01*
X65750Y300250D02*
X108469D01*
X62225Y375375D02*
X103875D01*
X112000Y383500D01*
X174500Y446500D02*
X174750Y446750D01*
X174500Y426500D02*
Y446500D01*
X147992Y464000D02*
Y495992D01*
Y464000D02*
X164828D01*
X147992Y495992D02*
X172000Y520000D01*
X148500Y424227D02*
Y450420D01*
X130746Y383500D02*
X137037Y389790D01*
Y404604D01*
X112000Y383500D02*
X130746D01*
X137037Y404604D02*
X138244Y405812D01*
X174500Y398152D02*
Y419905D01*
X164828Y464000D02*
X166000Y462828D01*
Y462750D02*
Y462828D01*
Y462750D02*
X174750Y454000D01*
X179500D01*
X49000Y388600D02*
X62225Y375375D01*
X112000Y383500D02*
Y404000D01*
X49000Y312400D02*
X61600Y325000D01*
X172000Y520000D02*
X250000D01*
X174500Y419905D02*
Y426500D01*
X176000Y428000D01*
X174500Y419905D02*
X249905D01*
X176000Y428000D02*
X182500D01*
X61500Y296000D02*
X65750Y300250D01*
X61500Y274100D02*
Y296000D01*
X49000Y261600D02*
X61500Y274100D01*
X195000Y320000D02*
X250000D01*
X195625Y428000D02*
Y441875D01*
X196250Y442500D01*
D13*
X174750Y446750D02*
X175216Y447216D01*
X179416D01*
X182200Y450000D01*
X172250Y474000D02*
Y496065D01*
X174185Y498000D02*
X179121D01*
X172250Y496065D02*
X174185Y498000D01*
X180000Y480200D02*
Y497121D01*
X179121Y498000D02*
X180000Y497121D01*
X179500Y454000D02*
X182200D01*
X180000Y480200D02*
X182200Y478000D01*
X206000Y487012D02*
X209250Y483762D01*
X206000Y487012D02*
Y488500D01*
X209250Y477050D02*
Y483762D01*
X216000Y479800D02*
Y488552D01*
Y489250D01*
X206200Y470000D02*
X216000Y479800D01*
X206200Y474000D02*
X209250Y477050D01*
X190200Y458000D02*
Y470000D01*
X189223Y436145D02*
Y446977D01*
X186200Y450000D02*
X189223Y446977D01*
X194056Y465207D02*
X197407D01*
X198200Y466000D01*
X194200Y458000D02*
Y462254D01*
D15*
X174553Y711676D02*
X194905Y691065D01*
X171896Y718602D02*
X174553Y711676D01*
X173006Y718720D02*
X178443Y728922D01*
X166148Y733587D02*
X171003Y737956D01*
X172306Y717534D02*
X173006Y718720D01*
X173711Y732941D02*
X178443Y728922D01*
X166148Y733587D02*
X171896Y718602D01*
X194905Y691065D02*
X195771Y675996D01*
X157738Y695724D02*
X162330Y698957D01*
X160676Y702701D02*
X166961Y709973D01*
X160676Y702701D02*
X162330Y698957D01*
X158936Y707202D02*
X162920Y714014D01*
X166961Y709973D01*
X161361Y732028D02*
X162920Y714014D01*
X161361Y732028D02*
X166615Y738840D01*
X122646Y737087D02*
X124468Y722732D01*
X180041Y740401D02*
X188669D01*
X165824Y745942D02*
X166615Y738840D01*
X168318Y750046D02*
X171003Y737956D01*
X173711Y732941D02*
X192258Y754799D01*
X140432Y722675D02*
X141121Y734678D01*
X151028Y751635D02*
X152123Y731162D01*
X147100Y727005D02*
X152123Y731162D01*
X188669Y740401D02*
X203129Y755328D01*
X136249Y738166D02*
X136952Y749076D01*
X136249Y738166D02*
X141121Y734678D01*
X151484Y743112D02*
X155472Y745942D01*
X147100Y727005D02*
X149641Y716497D01*
X154783Y763909D02*
X155472Y745942D01*
X124468Y722732D02*
X129549Y722444D01*
X117049Y683963D02*
X140432Y722675D01*
X136477Y708876D02*
X149641Y716497D01*
X152066Y710088D01*
X129549Y722444D02*
X136477Y708876D01*
X152066Y710088D02*
X154721Y712109D01*
X158936Y707202D01*
X117049Y683963D02*
X130819Y660841D01*
X176621Y655304D02*
X195771Y675996D01*
X130819Y660841D02*
X176621Y655304D01*
D17*
X108000Y300000D02*
D03*
X122000D02*
D03*
X108000Y325000D02*
D03*
X122000D02*
D03*
X196500Y428000D02*
D03*
X182500Y428000D02*
D03*
D18*
X147992Y462985D02*
D03*
Y448985D02*
D03*
X162242D02*
D03*
Y462985D02*
D03*
X180000Y505000D02*
D03*
Y491000D02*
D03*
X112000Y404000D02*
D03*
Y418000D02*
D03*
D19*
X138492Y402615D02*
D03*
X157492D02*
D03*
X147992Y424615D02*
D03*
D20*
X194200Y478000D02*
D03*
X198200Y474000D02*
D03*
Y478000D02*
D03*
X194200Y474000D02*
D03*
X202200Y478000D02*
D03*
X190200Y450000D02*
D03*
Y454000D02*
D03*
Y458000D02*
D03*
Y470000D02*
D03*
Y474000D02*
D03*
Y478000D02*
D03*
X186200Y450000D02*
D03*
Y454000D02*
D03*
Y458000D02*
D03*
Y462000D02*
D03*
Y466000D02*
D03*
Y470000D02*
D03*
Y474000D02*
D03*
Y478000D02*
D03*
X182200Y450000D02*
D03*
Y454000D02*
D03*
Y458000D02*
D03*
Y462000D02*
D03*
Y466000D02*
D03*
Y470000D02*
D03*
Y474000D02*
D03*
Y478000D02*
D03*
X206200Y450000D02*
D03*
Y462000D02*
D03*
Y466000D02*
D03*
Y470000D02*
D03*
Y474000D02*
D03*
Y478000D02*
D03*
X202200Y450000D02*
D03*
Y454000D02*
D03*
Y458000D02*
D03*
Y462000D02*
D03*
Y466000D02*
D03*
Y470000D02*
D03*
Y474000D02*
D03*
X198200Y450000D02*
D03*
Y454000D02*
D03*
Y458000D02*
D03*
Y462000D02*
D03*
Y466000D02*
D03*
Y470000D02*
D03*
X194200Y450000D02*
D03*
Y454000D02*
D03*
Y458000D02*
D03*
Y470000D02*
D03*
D32*
X282000Y439250D02*
D03*
X28250Y670500D02*
D03*
X210000Y20000D02*
D03*
D33*
X250000Y320000D02*
D03*
Y220000D02*
D03*
Y420000D02*
D03*
Y520000D02*
D03*
D34*
X37800Y471650D02*
D03*
X57800Y451650D02*
D03*
Y611650D02*
D03*
X37800D02*
D03*
X57800Y591650D02*
D03*
X37800D02*
D03*
X57800Y571650D02*
D03*
X37800D02*
D03*
X57800Y551650D02*
D03*
X37800D02*
D03*
X57800Y531650D02*
D03*
X37800D02*
D03*
X57800Y511650D02*
D03*
X37800D02*
D03*
X57800Y491650D02*
D03*
X37800D02*
D03*
X57800Y471650D02*
D03*
X37800Y451650D02*
D03*
X57800Y431650D02*
D03*
D35*
X37800D02*
D03*
D36*
X74400Y160000D02*
D03*
X49000Y185400D02*
D03*
X74400D02*
D03*
X49000Y210800D02*
D03*
X74400D02*
D03*
X49000Y236200D02*
D03*
X74400D02*
D03*
X49000Y261600D02*
D03*
X74400D02*
D03*
X49000Y287000D02*
D03*
X74400D02*
D03*
X49000Y312400D02*
D03*
X74400D02*
D03*
X49000Y337800D02*
D03*
X74400D02*
D03*
X49000Y363200D02*
D03*
X74400D02*
D03*
X49000Y388600D02*
D03*
X74400D02*
D03*
D37*
X49000Y160000D02*
D03*
D38*
X174750Y446750D02*
D03*
X163500Y428750D02*
D03*
X151240Y366760D02*
D03*
X176337Y460545D02*
D03*
X195000Y320000D02*
D03*
X162000Y525000D02*
D03*
X98000Y529000D02*
D03*
X229000D02*
D03*
X191000Y502000D02*
D03*
X98542Y501000D02*
D03*
X143042D02*
D03*
X206000Y488500D02*
D03*
X216000Y489250D02*
D03*
X228292Y369208D02*
D03*
X187292Y398708D02*
D03*
X238792Y445458D02*
D03*
X237542Y404208D02*
D03*
X97250Y342750D02*
D03*
X97292Y423208D02*
D03*
X99792Y393708D02*
D03*
X98542Y473208D02*
D03*
X225792Y490208D02*
D03*
X172250Y474000D02*
D03*
X196250Y442500D02*
D03*
X189223Y436145D02*
D03*
X192500Y464250D02*
D03*
M02*
