M48
;Layer_Color=9474304
;FILE_FORMAT=4:4
METRIC,LZ
;TYPE=PLATED
T1F00S00C0.3000
T2F00S00C0.9000
T3F00S00C1.0000
T4F00S00C1.1000
T5F00S00C3.5000
%
T01
X00038Y00007
X00017Y0007
X00016Y0013
X000945Y00137
X00119Y00145
X00103Y00195
X00116Y00241
X00014Y00223
X00092Y00069
X00144Y00238
X00161181Y00235154
X00201Y002373
X0023Y0021
X0029325Y001395
X00278Y0001
X00201Y002627
X00186Y00255
X00167Y00284
X0014425Y0031125
X0014325Y0034425
X00161Y00348
X001735Y0037375
X00147493Y00373993
X00145Y004
X0014625Y0042925
X0015625Y0045325
X00183682Y00446385
X0018525Y0043675
X0019625Y004285
X00199504Y003901
X00203Y0034575
X00199Y00322
X0022025Y00294
X0024275Y00345
X002615Y00328
X00261Y004255
X0025025Y0041625
X0024675Y00438
X0023275Y0044425
X0023575Y0046375
X00239Y004865
X0021625Y0048675
X00206Y0052125
X0017725
X0017Y00497
X001825Y0047
X0023375Y0052575
X00226253Y00537025
X0021925Y00547
X00209Y00586
X00238716Y00585484
X00252Y0057325
X002635Y005615
X0029375Y0054575
X00279375Y00522375
X0027575Y0041725
X0029375Y0061925
X001725Y006185
X0017Y0058375
X00152813Y00588574
X00137Y00583
X0014Y00601
X001565Y005515
X0011975Y0054875
X0010425Y0056225
X00111Y00585
X00112Y00611
X00075Y00599
X00085Y0058
X00088875Y00543375
X001275Y00518
X00128Y005015
X0013575Y005075
X001205Y004915
X0009325Y004835
X000905Y0046975
X0008625Y0043975
X000805Y00410296
X0007225Y0040825
X00038Y00408
X00014Y00411
X00015Y00446
Y00502
X00014Y00559
X00015Y00618
X000725Y0062665
X00101Y00416
X00103Y00399
X001045Y0038625
X001Y00353
Y0033
Y00319
Y00305
Y00292
X0006175Y0035675
X00015Y00323
X00136Y00451
T02
X000378Y0043165
Y0045165
Y0047165
Y0049165
Y0051165
Y0053165
Y0055165
Y0057165
Y0059165
Y0061165
X000578
Y0059165
Y0057165
Y0055165
Y0053165
Y0051165
Y0049165
Y0047165
Y0045165
Y0043165
T03
X00049Y0016
X000744
Y001854
X00049
Y002108
X000744
Y002362
X00049
Y002616
X000744
Y00287
X00049
Y003124
X000744
Y003378
X00049
Y003632
X000744
Y003886
X00049
T04
X000768Y00013
X001022
X001276
X0012Y00115
X002
X0028
Y00172
X00281Y002194
Y002448
X002292Y00013
X002038
X001784
X00153
X00281Y002702
Y002956
Y00321
Y003464
X002825Y0038325
X00284Y0049
X00279Y0061
T05
X000475Y0004
X0026
X000475Y0073
X0026
M30
