G04*
G04 #@! TF.GenerationSoftware,Altium Limited,Altium Designer,23.3.1 (30)*
G04*
G04 Layer_Physical_Order=2*
G04 Layer_Color=16711680*
%FSLAX44Y44*%
%MOMM*%
G71*
G04*
G04 #@! TF.SameCoordinates,DF4BE222-8F2C-4444-88BE-FDE14E9DB007*
G04*
G04*
G04 #@! TF.FilePolarity,Positive*
G04*
G01*
G75*
%ADD11C,0.2000*%
%ADD12C,0.2500*%
G04:AMPARAMS|DCode=16|XSize=0.85mm|YSize=0.85mm|CornerRadius=0.2125mm|HoleSize=0mm|Usage=FLASHONLY|Rotation=0.000|XOffset=0mm|YOffset=0mm|HoleType=Round|Shape=RoundedRectangle|*
%AMROUNDEDRECTD16*
21,1,0.8500,0.4250,0,0,0.0*
21,1,0.4250,0.8500,0,0,0.0*
1,1,0.4250,0.2125,-0.2125*
1,1,0.4250,-0.2125,-0.2125*
1,1,0.4250,-0.2125,0.2125*
1,1,0.4250,0.2125,0.2125*
%
%ADD16ROUNDEDRECTD16*%
G04:AMPARAMS|DCode=17|XSize=0.85mm|YSize=0.85mm|CornerRadius=0.2125mm|HoleSize=0mm|Usage=FLASHONLY|Rotation=90.000|XOffset=0mm|YOffset=0mm|HoleType=Round|Shape=RoundedRectangle|*
%AMROUNDEDRECTD17*
21,1,0.8500,0.4250,0,0,90.0*
21,1,0.4250,0.8500,0,0,90.0*
1,1,0.4250,0.2125,0.2125*
1,1,0.4250,0.2125,-0.2125*
1,1,0.4250,-0.2125,-0.2125*
1,1,0.4250,-0.2125,0.2125*
%
%ADD17ROUNDEDRECTD17*%
%ADD34C,1.0000*%
%ADD35O,1.7000X2.0000*%
%ADD36R,1.7000X2.0000*%
G04:AMPARAMS|DCode=37|XSize=1.7mm|YSize=2mm|CornerRadius=0.425mm|HoleSize=0mm|Usage=FLASHONLY|Rotation=90.000|XOffset=0mm|YOffset=0mm|HoleType=Round|Shape=RoundedRectangle|*
%AMROUNDEDRECTD37*
21,1,1.7000,1.1500,0,0,90.0*
21,1,0.8500,2.0000,0,0,90.0*
1,1,0.8500,0.5750,0.4250*
1,1,0.8500,0.5750,-0.4250*
1,1,0.8500,-0.5750,-0.4250*
1,1,0.8500,-0.5750,0.4250*
%
%ADD37ROUNDEDRECTD37*%
%ADD38O,2.0000X1.7000*%
%ADD39R,2.0000X1.7000*%
G04:AMPARAMS|DCode=40|XSize=1.7mm|YSize=2mm|CornerRadius=0.425mm|HoleSize=0mm|Usage=FLASHONLY|Rotation=180.000|XOffset=0mm|YOffset=0mm|HoleType=Round|Shape=RoundedRectangle|*
%AMROUNDEDRECTD40*
21,1,1.7000,1.1500,0,0,180.0*
21,1,0.8500,2.0000,0,0,180.0*
1,1,0.8500,-0.4250,0.5750*
1,1,0.8500,0.4250,0.5750*
1,1,0.8500,0.4250,-0.5750*
1,1,0.8500,-0.4250,-0.5750*
%
%ADD40ROUNDEDRECTD40*%
%ADD41C,1.3000*%
G04:AMPARAMS|DCode=42|XSize=1.3mm|YSize=1.3mm|CornerRadius=0.325mm|HoleSize=0mm|Usage=FLASHONLY|Rotation=90.000|XOffset=0mm|YOffset=0mm|HoleType=Round|Shape=RoundedRectangle|*
%AMROUNDEDRECTD42*
21,1,1.3000,0.6500,0,0,90.0*
21,1,0.6500,1.3000,0,0,90.0*
1,1,0.6500,0.3250,0.3250*
1,1,0.6500,0.3250,-0.3250*
1,1,0.6500,-0.3250,-0.3250*
1,1,0.6500,-0.3250,0.3250*
%
%ADD42ROUNDEDRECTD42*%
%ADD43C,1.6000*%
G04:AMPARAMS|DCode=44|XSize=1.6mm|YSize=1.6mm|CornerRadius=0.4mm|HoleSize=0mm|Usage=FLASHONLY|Rotation=90.000|XOffset=0mm|YOffset=0mm|HoleType=Round|Shape=RoundedRectangle|*
%AMROUNDEDRECTD44*
21,1,1.6000,0.8000,0,0,90.0*
21,1,0.8000,1.6000,0,0,90.0*
1,1,0.8000,0.4000,0.4000*
1,1,0.8000,0.4000,-0.4000*
1,1,0.8000,-0.4000,-0.4000*
1,1,0.8000,-0.4000,0.4000*
%
%ADD44ROUNDEDRECTD44*%
%ADD45C,0.7000*%
G04:AMPARAMS|DCode=46|XSize=1mm|YSize=1.4mm|CornerRadius=0.25mm|HoleSize=0mm|Usage=FLASHONLY|Rotation=180.000|XOffset=0mm|YOffset=0mm|HoleType=Round|Shape=RoundedRectangle|*
%AMROUNDEDRECTD46*
21,1,1.0000,0.9000,0,0,180.0*
21,1,0.5000,1.4000,0,0,180.0*
1,1,0.5000,-0.2500,0.4500*
1,1,0.5000,0.2500,0.4500*
1,1,0.5000,0.2500,-0.4500*
1,1,0.5000,-0.2500,-0.4500*
%
%ADD46ROUNDEDRECTD46*%
%ADD47R,1.0500X1.3000*%
G36*
X297451Y490309D02*
X297451Y489039D01*
X294622D01*
Y495750D01*
X294137Y498189D01*
X292756Y500256D01*
X290689Y501637D01*
X288250Y502122D01*
X285000D01*
Y490000D01*
X283000D01*
Y502122D01*
X279750D01*
X277311Y501637D01*
X277152Y501531D01*
X276032Y502130D01*
X276032Y510648D01*
X284442Y519058D01*
X284442Y519058D01*
X284884Y519720D01*
X285039Y520500D01*
Y525500D01*
X284884Y526280D01*
X284442Y526942D01*
X219442Y591942D01*
X218780Y592384D01*
X218000Y592539D01*
X208000D01*
X207220Y592384D01*
X206558Y591942D01*
X206558Y591942D01*
X158405Y543789D01*
X150187D01*
X149369Y545059D01*
X149581Y546125D01*
Y547250D01*
X143250D01*
Y549250D01*
X149581D01*
Y550375D01*
X149261Y551984D01*
X148349Y553349D01*
X147308Y554044D01*
X147236Y554313D01*
Y555187D01*
X147308Y555456D01*
X148349Y556151D01*
X149261Y557515D01*
X149924Y558191D01*
X151094Y558424D01*
X152087Y559087D01*
X154758Y561758D01*
X154758Y561758D01*
X155421Y562751D01*
X155654Y563921D01*
X155654Y563921D01*
Y570064D01*
X155654Y570064D01*
X155421Y571235D01*
X154758Y572227D01*
X152322Y574663D01*
X151330Y575326D01*
X150159Y575559D01*
X150159Y575559D01*
X89500D01*
X88329Y575326D01*
X87337Y574663D01*
X87337Y574663D01*
X73675Y561001D01*
X71959Y561081D01*
X65357Y567683D01*
X66081Y569431D01*
X66373Y571650D01*
X66081Y573869D01*
X65225Y575937D01*
X63862Y577712D01*
X62777Y578545D01*
X62750Y578981D01*
X62965Y580002D01*
X63691Y580487D01*
X67145Y583941D01*
X102233D01*
X102380Y583794D01*
X103373Y583131D01*
X104543Y582898D01*
X104543Y582898D01*
X105810D01*
X105819Y582854D01*
X107035Y581035D01*
X108854Y579819D01*
X111000Y579392D01*
X113146Y579819D01*
X114965Y581035D01*
X116181Y582854D01*
X116608Y585000D01*
X116181Y587146D01*
X115730Y587821D01*
X116328Y588941D01*
X118733D01*
X126837Y580837D01*
X126837Y580837D01*
X127830Y580174D01*
X129000Y579941D01*
X129000Y579941D01*
X132429D01*
X133035Y579035D01*
X134854Y577819D01*
X137000Y577392D01*
X139146Y577819D01*
X140965Y579035D01*
X142181Y580854D01*
X142608Y583000D01*
X142181Y585146D01*
X140965Y586965D01*
X139146Y588181D01*
X137000Y588608D01*
X134854Y588181D01*
X133035Y586965D01*
X132429Y586059D01*
X130267D01*
X122163Y594163D01*
X121171Y594826D01*
X120000Y595059D01*
X120000Y595059D01*
X71445D01*
X63101Y603403D01*
X63208Y605086D01*
X63862Y605588D01*
X65225Y607363D01*
X66081Y609431D01*
X66373Y611650D01*
X66081Y613869D01*
X65225Y615937D01*
X64829Y616452D01*
X65391Y617591D01*
X119083D01*
X134605Y602069D01*
X134392Y601000D01*
X134819Y598854D01*
X136035Y597035D01*
X137854Y595819D01*
X140000Y595392D01*
X142146Y595819D01*
X143965Y597035D01*
X145181Y598854D01*
X145608Y601000D01*
X145181Y603146D01*
X143965Y604965D01*
X142146Y606181D01*
X140000Y606608D01*
X138931Y606395D01*
X122513Y622813D01*
X121521Y623476D01*
X120350Y623709D01*
X120350Y623709D01*
X34072D01*
X34072Y623709D01*
X32902Y623476D01*
X31909Y622813D01*
X31909Y622813D01*
X19637Y610541D01*
X18974Y609548D01*
X18741Y608378D01*
X18741Y608378D01*
Y139200D01*
X18741Y139200D01*
X18974Y138029D01*
X19637Y137037D01*
X86605Y70069D01*
X86392Y69000D01*
X86819Y66854D01*
X88035Y65035D01*
X89854Y63819D01*
X92000Y63392D01*
X94146Y63819D01*
X95965Y65035D01*
X97148Y66804D01*
X97203Y66861D01*
X98560Y67279D01*
X99141Y66821D01*
Y24598D01*
X96905Y23672D01*
X94711Y21989D01*
X93028Y19795D01*
X91970Y17241D01*
X91609Y14500D01*
Y11500D01*
X91970Y8759D01*
X93028Y6205D01*
X94711Y4011D01*
X95050Y3752D01*
X94642Y2549D01*
X84358D01*
X83950Y3752D01*
X84289Y4011D01*
X85972Y6205D01*
X87030Y8759D01*
X87391Y11500D01*
Y12000D01*
X76800D01*
X66209D01*
Y11500D01*
X66570Y8759D01*
X67628Y6205D01*
X69311Y4011D01*
X69650Y3752D01*
X69242Y2549D01*
X42500D01*
X42500Y2549D01*
X42499Y2549D01*
X42221D01*
X37626Y2910D01*
X37320Y2951D01*
X32465Y4116D01*
X27757Y6066D01*
X23501Y8675D01*
X23256Y8863D01*
X19751Y11856D01*
X19356Y12251D01*
X16362Y15756D01*
X16175Y16001D01*
X13566Y20257D01*
X11616Y24965D01*
X10451Y29820D01*
X10410Y30126D01*
X10125Y33750D01*
X10049Y35000D01*
X10049Y35000D01*
X10049Y36248D01*
Y630000D01*
X297451D01*
Y490309D01*
D02*
G37*
G36*
X52531Y578321D02*
X51738Y577712D01*
X50375Y575937D01*
X49519Y573869D01*
X49227Y571650D01*
X49519Y569431D01*
X50375Y567363D01*
X51738Y565588D01*
X53513Y564225D01*
X55581Y563369D01*
X57800Y563077D01*
X60019Y563369D01*
X60727Y563662D01*
X67441Y556948D01*
Y553269D01*
X66171Y553185D01*
X66081Y553869D01*
X65225Y555937D01*
X63862Y557712D01*
X62087Y559075D01*
X60019Y559931D01*
X57800Y560223D01*
X55581Y559931D01*
X53513Y559075D01*
X51738Y557712D01*
X50375Y555937D01*
X49519Y553869D01*
X49227Y551650D01*
X49519Y549431D01*
X50375Y547363D01*
X51738Y545588D01*
X53513Y544225D01*
X55581Y543369D01*
X57800Y543077D01*
X60019Y543369D01*
X61247Y543877D01*
X63941Y541183D01*
Y539253D01*
X62671Y538626D01*
X62087Y539075D01*
X60019Y539931D01*
X58800Y540092D01*
Y531650D01*
Y523208D01*
X60019Y523369D01*
X62087Y524225D01*
X62671Y524674D01*
X63941Y524048D01*
Y519253D01*
X62671Y518626D01*
X62087Y519075D01*
X60019Y519931D01*
X57800Y520223D01*
X55581Y519931D01*
X53513Y519075D01*
X51738Y517712D01*
X50375Y515937D01*
X49519Y513869D01*
X49227Y511650D01*
X49519Y509431D01*
X50375Y507363D01*
X51738Y505588D01*
X53513Y504225D01*
X55581Y503369D01*
X57800Y503077D01*
X60019Y503369D01*
X62087Y504225D01*
X62671Y504674D01*
X63941Y504048D01*
Y499253D01*
X62671Y498626D01*
X62087Y499075D01*
X60019Y499931D01*
X58800Y500092D01*
Y491650D01*
Y483208D01*
X60019Y483369D01*
X62087Y484225D01*
X62671Y484674D01*
X63941Y484048D01*
Y479253D01*
X62671Y478626D01*
X62087Y479075D01*
X60019Y479931D01*
X57800Y480223D01*
X55581Y479931D01*
X53513Y479075D01*
X51738Y477712D01*
X50375Y475937D01*
X49519Y473869D01*
X49227Y471650D01*
X49519Y469431D01*
X50375Y467363D01*
X51738Y465588D01*
X53513Y464225D01*
X55581Y463369D01*
X57800Y463077D01*
X60019Y463369D01*
X62087Y464225D01*
X62671Y464674D01*
X63941Y464048D01*
Y459253D01*
X62671Y458626D01*
X62087Y459075D01*
X60019Y459931D01*
X58800Y460092D01*
Y451650D01*
Y443208D01*
X60019Y443369D01*
X62087Y444225D01*
X62671Y444674D01*
X63941Y444048D01*
Y439253D01*
X62671Y438626D01*
X62087Y439075D01*
X60019Y439931D01*
X57800Y440223D01*
X55581Y439931D01*
X53513Y439075D01*
X51738Y437712D01*
X50375Y435937D01*
X49519Y433869D01*
X49227Y431650D01*
X49519Y429431D01*
X50375Y427363D01*
X51738Y425588D01*
X53513Y424225D01*
X55581Y423369D01*
X57800Y423077D01*
X60019Y423369D01*
X62087Y424225D01*
X62671Y424674D01*
X63941Y424048D01*
Y413500D01*
X63941Y413500D01*
X64174Y412329D01*
X64837Y411337D01*
X66855Y409319D01*
X66642Y408250D01*
X67069Y406104D01*
X68285Y404285D01*
X70104Y403069D01*
X72250Y402642D01*
X74396Y403069D01*
X76215Y404285D01*
X77259Y405847D01*
X78354Y405116D01*
X80500Y404689D01*
X82171Y405021D01*
X83441Y404236D01*
Y395330D01*
X82171Y394899D01*
X81532Y395732D01*
X79443Y397335D01*
X77010Y398343D01*
X75400Y398555D01*
Y388600D01*
Y378645D01*
X77010Y378857D01*
X79443Y379865D01*
X81532Y381468D01*
X82171Y382301D01*
X83441Y381870D01*
Y369930D01*
X82171Y369499D01*
X81532Y370332D01*
X79443Y371935D01*
X77010Y372943D01*
X74400Y373286D01*
X71789Y372943D01*
X69357Y371935D01*
X67268Y370332D01*
X65665Y368243D01*
X64657Y365811D01*
X64314Y363200D01*
X64657Y360589D01*
X65665Y358157D01*
X67268Y356068D01*
X69357Y354465D01*
X71789Y353457D01*
X74400Y353114D01*
X77010Y353457D01*
X79443Y354465D01*
X81532Y356068D01*
X82171Y356901D01*
X83441Y356470D01*
Y344530D01*
X82171Y344099D01*
X81532Y344932D01*
X79443Y346535D01*
X77010Y347543D01*
X75400Y347755D01*
Y337800D01*
Y327845D01*
X77010Y328057D01*
X79443Y329065D01*
X81532Y330668D01*
X82171Y331501D01*
X83441Y331070D01*
Y319130D01*
X82171Y318699D01*
X81532Y319532D01*
X79443Y321135D01*
X77010Y322143D01*
X74400Y322486D01*
X71789Y322143D01*
X69357Y321135D01*
X67268Y319532D01*
X65665Y317443D01*
X64657Y315011D01*
X64314Y312400D01*
X64657Y309790D01*
X65665Y307357D01*
X67268Y305268D01*
X69357Y303665D01*
X71789Y302657D01*
X74400Y302314D01*
X77010Y302657D01*
X79443Y303665D01*
X81532Y305268D01*
X82171Y306101D01*
X83441Y305670D01*
Y293730D01*
X82171Y293299D01*
X81532Y294132D01*
X79443Y295735D01*
X77010Y296743D01*
X74400Y297086D01*
X71789Y296743D01*
X69357Y295735D01*
X67268Y294132D01*
X65665Y292043D01*
X64657Y289611D01*
X64314Y287000D01*
X64657Y284389D01*
X65665Y281957D01*
X67268Y279868D01*
X69357Y278265D01*
X71789Y277257D01*
X74400Y276914D01*
X77010Y277257D01*
X79443Y278265D01*
X81532Y279868D01*
X82171Y280701D01*
X83441Y280270D01*
Y268330D01*
X82171Y267899D01*
X81532Y268732D01*
X79443Y270335D01*
X77010Y271343D01*
X75400Y271555D01*
Y261600D01*
Y251645D01*
X77010Y251857D01*
X79443Y252865D01*
X81532Y254468D01*
X82171Y255301D01*
X83441Y254870D01*
Y242930D01*
X82171Y242499D01*
X81532Y243332D01*
X79443Y244935D01*
X77010Y245943D01*
X74400Y246286D01*
X71789Y245943D01*
X69357Y244935D01*
X67268Y243332D01*
X65665Y241243D01*
X64657Y238811D01*
X64314Y236200D01*
X64657Y233589D01*
X65665Y231157D01*
X67268Y229068D01*
X69357Y227465D01*
X71789Y226457D01*
X74400Y226114D01*
X77010Y226457D01*
X79443Y227465D01*
X81532Y229068D01*
X82171Y229901D01*
X83441Y229470D01*
Y217530D01*
X82171Y217099D01*
X81532Y217932D01*
X79443Y219535D01*
X77010Y220543D01*
X75400Y220755D01*
Y210800D01*
X74400D01*
Y209800D01*
X64445D01*
X64657Y208190D01*
X65665Y205757D01*
X67268Y203668D01*
X67764Y203288D01*
X67333Y202017D01*
X62559D01*
X61388Y201785D01*
X60396Y201122D01*
X60396Y201122D01*
X53595Y194321D01*
X51610Y195143D01*
X49000Y195486D01*
X46389Y195143D01*
X43957Y194135D01*
X41868Y192532D01*
X40265Y190443D01*
X39257Y188011D01*
X38914Y185400D01*
X39257Y182789D01*
X40265Y180357D01*
X41868Y178268D01*
X43957Y176665D01*
X46389Y175657D01*
X49000Y175314D01*
X51610Y175657D01*
X54043Y176665D01*
X56132Y178268D01*
X57735Y180357D01*
X58743Y182789D01*
X59086Y185400D01*
X58743Y188011D01*
X57921Y189995D01*
X63826Y195900D01*
X70299D01*
X70552Y194630D01*
X69357Y194135D01*
X67268Y192532D01*
X65665Y190443D01*
X64657Y188011D01*
X64314Y185400D01*
X64657Y182789D01*
X65665Y180357D01*
X67268Y178268D01*
X69357Y176665D01*
X71789Y175657D01*
X74400Y175314D01*
X77010Y175657D01*
X79443Y176665D01*
X81532Y178268D01*
X83135Y180357D01*
X84143Y182789D01*
X84486Y185400D01*
X84143Y188011D01*
X83321Y189995D01*
X92163Y198837D01*
X92163Y198837D01*
X92826Y199829D01*
X93059Y201000D01*
X93059Y201000D01*
Y284121D01*
X94329Y284987D01*
X94461Y284961D01*
X135000D01*
X135000Y284961D01*
X135780Y285116D01*
X136442Y285558D01*
X136442Y285558D01*
X138192Y287308D01*
X138192Y287308D01*
X138634Y287970D01*
X138789Y288750D01*
Y436000D01*
X138634Y436780D01*
X138192Y437442D01*
X138192Y437442D01*
X119138Y456496D01*
X119624Y457669D01*
X121125D01*
X122734Y457989D01*
X124099Y458901D01*
X125011Y460266D01*
X125145Y460941D01*
X127750D01*
Y457000D01*
X142250D01*
Y461946D01*
X142872Y462941D01*
X144043Y463174D01*
X144980Y463800D01*
X145539Y463687D01*
X146250Y463393D01*
Y457000D01*
X152500D01*
Y465500D01*
Y474000D01*
X148059D01*
Y480000D01*
X160750D01*
Y485441D01*
X164233D01*
X166352Y483323D01*
X166321Y482855D01*
X166027Y481851D01*
X164901Y481099D01*
X163989Y479734D01*
X163669Y478125D01*
Y473875D01*
X163989Y472266D01*
X164901Y470901D01*
X166266Y469989D01*
X167875Y469669D01*
X172125D01*
X173734Y469989D01*
X175099Y470901D01*
X176011Y472266D01*
X176331Y473875D01*
Y478125D01*
X176011Y479734D01*
X175099Y481099D01*
X173734Y482011D01*
X173059Y482145D01*
Y484000D01*
X173059Y484000D01*
X172826Y485171D01*
X172163Y486163D01*
X172163Y486163D01*
X167663Y490663D01*
X166670Y491326D01*
X165500Y491559D01*
X165500Y491559D01*
X160750D01*
Y497000D01*
X156559D01*
Y500000D01*
X156559Y500000D01*
X156326Y501171D01*
X155663Y502163D01*
X155663Y502163D01*
X151308Y506518D01*
X151794Y507691D01*
X155355D01*
X155489Y507015D01*
X156401Y505651D01*
X157766Y504739D01*
X159375Y504419D01*
X163625D01*
X165235Y504739D01*
X165930Y505204D01*
X169738Y501395D01*
X170731Y500732D01*
X171901Y500499D01*
X171901Y500499D01*
X180406D01*
X180406Y500499D01*
X181576Y500732D01*
X182568Y501395D01*
X187392Y506219D01*
X188019Y506111D01*
X188713Y505743D01*
X189011Y504244D01*
X190006Y502756D01*
X191494Y501761D01*
X193250Y501412D01*
X198250D01*
X200006Y501761D01*
X201494Y502756D01*
X202489Y504244D01*
X202838Y506000D01*
Y515000D01*
X202489Y516756D01*
X201494Y518244D01*
X200006Y519239D01*
X198250Y519588D01*
X196434D01*
X195948Y520761D01*
X208897Y533711D01*
X221853D01*
X222288Y533059D01*
X222940Y532624D01*
Y484497D01*
X223192Y483229D01*
X223910Y482154D01*
X242936Y463127D01*
Y442067D01*
X242785Y441965D01*
X242349Y441314D01*
X221588D01*
Y442000D01*
X221239Y443756D01*
X220244Y445244D01*
X218756Y446239D01*
X217000Y446588D01*
X212000D01*
X210244Y446239D01*
X208756Y445244D01*
X207761Y443756D01*
X207412Y442000D01*
Y433000D01*
X207761Y431244D01*
X208756Y429756D01*
X210244Y428761D01*
X212000Y428412D01*
X217000D01*
X218756Y428761D01*
X220244Y429756D01*
X221239Y431244D01*
X221588Y433000D01*
Y434686D01*
X242349D01*
X242785Y434035D01*
X244604Y432819D01*
X246750Y432392D01*
X248896Y432819D01*
X250715Y434035D01*
X251931Y435854D01*
X252358Y438000D01*
X251931Y440146D01*
X250715Y441965D01*
X249564Y442735D01*
Y464500D01*
X249311Y465768D01*
X248593Y466843D01*
X229567Y485869D01*
Y532624D01*
X230219Y533059D01*
X231434Y534879D01*
X231861Y537025D01*
X231434Y539171D01*
X230219Y540990D01*
X228399Y542206D01*
X226253Y542632D01*
X224107Y542206D01*
X222288Y540990D01*
X221853Y540338D01*
X207525D01*
X206257Y540086D01*
X205182Y539368D01*
X181567Y515754D01*
X180599Y515849D01*
X179235Y516761D01*
X177625Y517081D01*
X173375D01*
X171765Y516761D01*
X170401Y515849D01*
X169489Y514484D01*
X169291Y513487D01*
X168118Y512806D01*
X167899Y512792D01*
X167831Y512829D01*
Y512875D01*
X167511Y514484D01*
X166599Y515849D01*
X166566Y516182D01*
X204845Y554461D01*
X225655D01*
X243711Y536405D01*
X243711Y477250D01*
X243711Y477250D01*
X243866Y476470D01*
X244308Y475808D01*
X266211Y453905D01*
Y427595D01*
X265058Y426442D01*
X264616Y425780D01*
X264461Y425000D01*
Y424812D01*
X263934Y423540D01*
X262960Y422566D01*
X261688Y422039D01*
X261500D01*
X260720Y421884D01*
X260058Y421442D01*
X260058Y421442D01*
X253667Y415051D01*
X253225Y414390D01*
X253184Y414290D01*
X252210Y413316D01*
X252110Y413275D01*
X251449Y412833D01*
X245093Y406477D01*
X243849Y406599D01*
X242484Y407511D01*
X240875Y407831D01*
X239750D01*
Y401500D01*
X238750D01*
Y400500D01*
X232419D01*
Y399375D01*
X232739Y397766D01*
X233651Y396401D01*
X233773Y395157D01*
X231161Y392545D01*
X229990Y393170D01*
X230081Y393625D01*
Y397875D01*
X229761Y399484D01*
X228849Y400849D01*
X227484Y401761D01*
X226934Y401870D01*
Y406498D01*
X228256Y406761D01*
X229744Y407756D01*
X230739Y409244D01*
X231088Y411000D01*
Y412441D01*
X232605D01*
X232739Y411766D01*
X233651Y410401D01*
X235016Y409489D01*
X236625Y409169D01*
X240875D01*
X242484Y409489D01*
X243849Y410401D01*
X244761Y411766D01*
X245081Y413375D01*
Y417625D01*
X244761Y419235D01*
X243849Y420599D01*
X242484Y421511D01*
X240875Y421831D01*
X236625D01*
X235016Y421511D01*
X233651Y420599D01*
X232739Y419235D01*
X232605Y418559D01*
X231088D01*
Y420000D01*
X230739Y421756D01*
X229744Y423244D01*
X228256Y424239D01*
X226500Y424588D01*
X221500D01*
X219744Y424239D01*
X218256Y423244D01*
X217261Y421756D01*
X216912Y420000D01*
Y411000D01*
X217261Y409244D01*
X218256Y407756D01*
X219744Y406761D01*
X220816Y406548D01*
Y401920D01*
X220016Y401761D01*
X218651Y400849D01*
X217739Y399484D01*
X217419Y397875D01*
Y393625D01*
X217739Y392015D01*
X218651Y390651D01*
X220016Y389739D01*
X221625Y389419D01*
X225875D01*
X226330Y389510D01*
X226955Y388339D01*
X225655Y387039D01*
X201563D01*
X200782Y386884D01*
X200192Y386640D01*
X198815D01*
X198225Y386884D01*
X197445Y387039D01*
X193750D01*
X193750Y387039D01*
X192970Y386884D01*
X192308Y386442D01*
X164058Y358192D01*
X163616Y357530D01*
X163461Y356750D01*
Y354382D01*
X162191Y353371D01*
X161000Y353608D01*
X158854Y353181D01*
X157035Y351965D01*
X155819Y350146D01*
X155392Y348000D01*
X155819Y345854D01*
X157035Y344035D01*
X157941Y343429D01*
Y301000D01*
X157941Y301000D01*
X157941Y301000D01*
Y239604D01*
X157216Y239119D01*
X156000Y237300D01*
X155573Y235154D01*
X156000Y233008D01*
X157216Y231189D01*
X159035Y229973D01*
X161181Y229546D01*
X163327Y229973D01*
X165146Y231189D01*
X166362Y233008D01*
X166789Y235154D01*
X166362Y237300D01*
X165146Y239119D01*
X164059Y239846D01*
Y292148D01*
X165232Y292634D01*
X193719Y264147D01*
X193883Y264037D01*
X194021Y263898D01*
X194210Y263819D01*
X194381Y263705D01*
X195145Y263046D01*
X195392Y262700D01*
X195819Y260554D01*
X197035Y258735D01*
X197941Y258129D01*
Y241871D01*
X197035Y241265D01*
X195819Y239446D01*
X195392Y237300D01*
X195819Y235154D01*
X197035Y233335D01*
X198854Y232119D01*
X201000Y231692D01*
X203146Y232119D01*
X204965Y233335D01*
X206181Y235154D01*
X206608Y237300D01*
X206181Y239446D01*
X204965Y241265D01*
X204059Y241871D01*
Y252148D01*
X205232Y252634D01*
X263961Y193905D01*
Y160000D01*
X264116Y159220D01*
X264558Y158558D01*
X265220Y158116D01*
X266000Y157961D01*
X297451D01*
Y35000D01*
X297451Y35000D01*
Y34720D01*
X297090Y30128D01*
X297049Y29818D01*
X295884Y24965D01*
X293934Y20257D01*
X291326Y16001D01*
X291136Y15755D01*
X288144Y12251D01*
X287749Y11856D01*
X284245Y8863D01*
X283999Y8675D01*
X279743Y6066D01*
X275035Y4116D01*
X270180Y2951D01*
X269874Y2910D01*
X266258Y2626D01*
X265000Y2549D01*
X265000Y2549D01*
X263764Y2549D01*
X239700D01*
Y25000D01*
X218700D01*
Y2549D01*
X211358D01*
X210950Y3752D01*
X211289Y4011D01*
X212972Y6205D01*
X214030Y8759D01*
X214391Y11500D01*
Y14500D01*
X214030Y17241D01*
X212972Y19795D01*
X211289Y21989D01*
X209095Y23672D01*
X206541Y24730D01*
X203800Y25091D01*
X201059Y24730D01*
X198505Y23672D01*
X196311Y21989D01*
X194628Y19795D01*
X193570Y17241D01*
X193209Y14500D01*
Y11500D01*
X193570Y8759D01*
X194628Y6205D01*
X196311Y4011D01*
X196650Y3752D01*
X196242Y2549D01*
X185958D01*
X185550Y3752D01*
X185889Y4011D01*
X187572Y6205D01*
X188630Y8759D01*
X188991Y11500D01*
Y14500D01*
X188630Y17241D01*
X187572Y19795D01*
X185889Y21989D01*
X183695Y23672D01*
X181459Y24598D01*
Y100600D01*
X181226Y101770D01*
X180563Y102763D01*
X136163Y147163D01*
X135170Y147826D01*
X134000Y148059D01*
X134000Y148059D01*
X123571D01*
X122965Y148965D01*
X121146Y150181D01*
X119000Y150608D01*
X116854Y150181D01*
X115035Y148965D01*
X113819Y147146D01*
X113392Y145000D01*
X113819Y142854D01*
X115035Y141035D01*
X116854Y139819D01*
X119000Y139392D01*
X121146Y139819D01*
X122965Y141035D01*
X123571Y141941D01*
X132733D01*
X175341Y99333D01*
Y24598D01*
X173105Y23672D01*
X170911Y21989D01*
X169228Y19795D01*
X168170Y17241D01*
X167809Y14500D01*
Y11500D01*
X168170Y8759D01*
X169228Y6205D01*
X170911Y4011D01*
X171250Y3752D01*
X170842Y2549D01*
X160558D01*
X160150Y3752D01*
X160489Y4011D01*
X162172Y6205D01*
X163230Y8759D01*
X163591Y11500D01*
Y14500D01*
X163230Y17241D01*
X162172Y19795D01*
X160489Y21989D01*
X158295Y23672D01*
X156059Y24598D01*
Y26000D01*
X156059Y26000D01*
X155826Y27171D01*
X155163Y28163D01*
X155163Y28163D01*
X31859Y151467D01*
Y422473D01*
X33129Y423330D01*
X34550Y423047D01*
X36800D01*
Y431650D01*
Y440253D01*
X34550D01*
X33129Y439970D01*
X31859Y440827D01*
Y444059D01*
X32998Y444621D01*
X33513Y444225D01*
X35581Y443369D01*
X37800Y443077D01*
X40019Y443369D01*
X42087Y444225D01*
X43862Y445588D01*
X45225Y447363D01*
X46081Y449431D01*
X46373Y451650D01*
X46081Y453869D01*
X45225Y455937D01*
X43862Y457712D01*
X42087Y459075D01*
X40019Y459931D01*
X37800Y460223D01*
X35581Y459931D01*
X33513Y459075D01*
X32998Y458679D01*
X31859Y459241D01*
Y464059D01*
X32998Y464621D01*
X33513Y464225D01*
X35581Y463369D01*
X36800Y463208D01*
Y471650D01*
Y480092D01*
X35581Y479931D01*
X33513Y479075D01*
X32998Y478679D01*
X31859Y479241D01*
Y484059D01*
X32998Y484621D01*
X33513Y484225D01*
X35581Y483369D01*
X37800Y483077D01*
X40019Y483369D01*
X42087Y484225D01*
X43862Y485588D01*
X45225Y487363D01*
X46081Y489431D01*
X46373Y491650D01*
X46081Y493869D01*
X45225Y495937D01*
X43862Y497712D01*
X42087Y499075D01*
X40019Y499931D01*
X37800Y500223D01*
X35581Y499931D01*
X33513Y499075D01*
X32998Y498679D01*
X31859Y499241D01*
Y504059D01*
X32998Y504621D01*
X33513Y504225D01*
X35581Y503369D01*
X37800Y503077D01*
X40019Y503369D01*
X42087Y504225D01*
X43862Y505588D01*
X45225Y507363D01*
X46081Y509431D01*
X46373Y511650D01*
X46081Y513869D01*
X45225Y515937D01*
X43862Y517712D01*
X42087Y519075D01*
X40019Y519931D01*
X37800Y520223D01*
X35581Y519931D01*
X33513Y519075D01*
X32998Y518679D01*
X31859Y519241D01*
Y524059D01*
X32998Y524621D01*
X33513Y524225D01*
X35581Y523369D01*
X37800Y523077D01*
X40019Y523369D01*
X42087Y524225D01*
X43862Y525588D01*
X45225Y527363D01*
X46081Y529431D01*
X46373Y531650D01*
X46081Y533869D01*
X45225Y535937D01*
X43862Y537712D01*
X42087Y539075D01*
X40019Y539931D01*
X37800Y540223D01*
X35581Y539931D01*
X33513Y539075D01*
X32998Y538679D01*
X31859Y539241D01*
Y544059D01*
X32998Y544621D01*
X33513Y544225D01*
X35581Y543369D01*
X37800Y543077D01*
X40019Y543369D01*
X42087Y544225D01*
X43862Y545588D01*
X45225Y547363D01*
X46081Y549431D01*
X46373Y551650D01*
X46081Y553869D01*
X45225Y555937D01*
X43862Y557712D01*
X42087Y559075D01*
X40019Y559931D01*
X37800Y560223D01*
X35581Y559931D01*
X33513Y559075D01*
X32998Y558679D01*
X31859Y559241D01*
Y564059D01*
X32998Y564621D01*
X33513Y564225D01*
X35581Y563369D01*
X37800Y563077D01*
X40019Y563369D01*
X42087Y564225D01*
X43862Y565588D01*
X45225Y567363D01*
X46081Y569431D01*
X46373Y571650D01*
X46081Y573869D01*
X45225Y575937D01*
X43862Y577712D01*
X43069Y578321D01*
X43500Y579591D01*
X52100D01*
X52531Y578321D01*
D02*
G37*
G36*
X116691Y559733D02*
Y553321D01*
X115785Y552715D01*
X114569Y550896D01*
X114142Y548750D01*
X114569Y546604D01*
X115601Y545059D01*
X115163Y543789D01*
X96358Y543789D01*
X92907Y547241D01*
X92840Y547340D01*
X92741Y547407D01*
X92205Y547942D01*
X91544Y548384D01*
X91166Y548459D01*
X91021Y548556D01*
X88875Y548983D01*
X86729Y548556D01*
X84910Y547340D01*
X83694Y545521D01*
X83267Y543375D01*
X83694Y541229D01*
X84910Y539410D01*
X86256Y538511D01*
X95711Y529055D01*
Y493793D01*
X89582Y487664D01*
X89285Y487465D01*
X89086Y487168D01*
X89058Y487140D01*
X88616Y486478D01*
X88612Y486459D01*
X88069Y485646D01*
X87642Y483500D01*
X88069Y481354D01*
X88610Y480544D01*
X88616Y480516D01*
X89058Y479854D01*
X89058Y479854D01*
X89098Y479815D01*
X89285Y479535D01*
X89565Y479348D01*
X92473Y476440D01*
X92469Y473523D01*
X92469Y473522D01*
X92469Y473520D01*
X92547Y473126D01*
X92623Y472743D01*
X92624Y472741D01*
X92624Y472740D01*
X92840Y472416D01*
X93064Y472080D01*
X93065Y472080D01*
X93066Y472079D01*
X93434Y471710D01*
X93961Y470438D01*
Y469062D01*
X93434Y467790D01*
X93055Y467411D01*
X92836Y467082D01*
X92615Y466752D01*
X92614Y466751D01*
X92613Y466750D01*
X92536Y466360D01*
X92458Y465972D01*
X92422Y439416D01*
X92422Y439415D01*
X92422Y439414D01*
X92500Y439019D01*
X92576Y438636D01*
X92577Y438635D01*
X92577Y438633D01*
X92797Y438305D01*
X93017Y437974D01*
X93019Y437973D01*
X93019Y437972D01*
X106961Y424030D01*
Y396845D01*
X99558Y389442D01*
X99116Y388780D01*
X98961Y388000D01*
Y386595D01*
X98892Y386250D01*
X98961Y385906D01*
Y385000D01*
X98961Y385000D01*
X99116Y384220D01*
X99558Y383558D01*
X99937Y383179D01*
X100535Y382285D01*
X101429Y381687D01*
X106961Y376155D01*
Y336289D01*
X94461D01*
X94329Y336263D01*
X93059Y337129D01*
Y415900D01*
X92826Y417070D01*
X92163Y418062D01*
X92163Y418062D01*
X80559Y429666D01*
Y553233D01*
X92517Y565191D01*
X111233D01*
X116691Y559733D01*
D02*
G37*
G36*
X133349Y513712D02*
X133104Y512347D01*
X131785Y511465D01*
X130569Y509646D01*
X130142Y507500D01*
X128963Y506916D01*
X128000Y507108D01*
X125854Y506681D01*
X124035Y505465D01*
X122819Y503646D01*
X122392Y501500D01*
X122819Y499354D01*
X124035Y497535D01*
X125854Y496319D01*
X127750Y495942D01*
Y489500D01*
X135000D01*
Y488500D01*
X136000D01*
Y480000D01*
X141941D01*
Y474000D01*
X127750D01*
Y467059D01*
X125145D01*
X125011Y467734D01*
X124099Y469099D01*
X122734Y470011D01*
X121125Y470331D01*
X117946D01*
X117553Y471000D01*
X117946Y471669D01*
X118000D01*
Y478000D01*
Y484331D01*
X116875D01*
X116039Y485017D01*
Y500588D01*
X126093Y510642D01*
X126204Y510809D01*
X126347Y510951D01*
X126423Y511137D01*
X126535Y511304D01*
X126963Y511945D01*
X127500Y512392D01*
X127843Y512461D01*
X129646Y512819D01*
X131465Y514035D01*
X131559Y514175D01*
X132869Y514265D01*
X133349Y513712D01*
D02*
G37*
G36*
X283000Y525500D02*
Y520500D01*
X273993Y511493D01*
X273993Y498383D01*
X273863Y498189D01*
X273378Y495750D01*
Y484250D01*
X273863Y481811D01*
X275244Y479744D01*
X277311Y478363D01*
X279750Y477878D01*
X288250D01*
X290689Y478363D01*
X292756Y479744D01*
X294137Y481811D01*
X294622Y484250D01*
Y487000D01*
X297451D01*
Y404701D01*
X286623Y393872D01*
X276750D01*
X274311Y393387D01*
X272244Y392006D01*
X270863Y389939D01*
X270378Y387500D01*
Y379000D01*
X270605Y377855D01*
X247750Y355000D01*
X199500D01*
X190250Y345750D01*
Y312500D01*
X224500Y278250D01*
X270841D01*
X271467Y276980D01*
X270328Y275495D01*
X269270Y272941D01*
X269041Y271200D01*
X281000D01*
X292959D01*
X292730Y272941D01*
X291672Y275495D01*
X290532Y276980D01*
X291159Y278250D01*
X295750D01*
X297451Y276549D01*
Y160000D01*
X266000D01*
Y194750D01*
X204059Y256691D01*
Y258014D01*
X204116Y258037D01*
X205663Y259585D01*
X206500Y261606D01*
Y263794D01*
X205663Y265816D01*
X204116Y267363D01*
X202094Y268200D01*
X199906D01*
X197885Y267363D01*
X196340Y265818D01*
X195161Y265589D01*
X165500Y295250D01*
Y344722D01*
X165663Y344884D01*
X166500Y346906D01*
Y349094D01*
X165663Y351115D01*
X165500Y351278D01*
Y356750D01*
X193750Y385000D01*
X197445D01*
X198410Y384600D01*
X200598D01*
X201563Y385000D01*
X226500D01*
X236669Y395169D01*
X240875D01*
X242484Y395489D01*
X243849Y396401D01*
X244761Y397766D01*
X245081Y399375D01*
Y403581D01*
X252891Y411391D01*
X253365Y411587D01*
X254913Y413134D01*
X255109Y413609D01*
X261500Y420000D01*
X262094D01*
X264116Y420837D01*
X265663Y422384D01*
X266500Y424406D01*
Y425000D01*
X268250Y426750D01*
Y454750D01*
X245750Y477250D01*
X245750Y537250D01*
X226500Y556500D01*
X204000D01*
X164422Y516922D01*
X163625Y517081D01*
X159375D01*
X157766Y516761D01*
X156401Y515849D01*
X155489Y514484D01*
X155393Y514000D01*
X142326D01*
X136163Y520163D01*
X135170Y520826D01*
X134000Y521059D01*
X134000Y521059D01*
X132186D01*
X132163Y521115D01*
X130616Y522663D01*
X128594Y523500D01*
X126406D01*
X124384Y522663D01*
X122837Y521115D01*
X122000Y519094D01*
Y516906D01*
X122837Y514884D01*
X124384Y513337D01*
X124403Y513330D01*
X124651Y512084D01*
X114000Y501433D01*
Y483165D01*
X113901Y483099D01*
X112989Y481735D01*
X112669Y480125D01*
Y475875D01*
X112989Y474266D01*
X113901Y472901D01*
X114000Y472835D01*
Y469165D01*
X113901Y469099D01*
X112989Y467734D01*
X112669Y466125D01*
Y461875D01*
X112989Y460266D01*
X113901Y458901D01*
X114000Y458835D01*
Y458750D01*
X136750Y436000D01*
Y288750D01*
X135000Y287000D01*
X94461D01*
Y334250D01*
X109000D01*
Y377000D01*
X101000Y385000D01*
X101000Y388000D01*
X109000Y396000D01*
Y424875D01*
X94461Y439414D01*
X94497Y465969D01*
X95163Y466634D01*
X96000Y468656D01*
Y470844D01*
X95163Y472865D01*
X94508Y473520D01*
X94513Y477283D01*
X90500Y481296D01*
X90500Y485698D01*
X97750Y492948D01*
Y529900D01*
X87000Y540650D01*
X87000Y545500D01*
X88000Y546500D01*
X90764D01*
X95514Y541750D01*
X159250Y541750D01*
X208000Y590500D01*
X218000D01*
X283000Y525500D01*
D02*
G37*
G36*
X297451Y400158D02*
X297451Y281046D01*
X297173Y280771D01*
X296181Y280203D01*
X295750Y280289D01*
X291159D01*
X290833Y280224D01*
X290503Y280181D01*
X290445Y280147D01*
X290378Y280134D01*
X290102Y279949D01*
X289814Y279783D01*
X289773Y279729D01*
X289717Y279692D01*
X289631Y279564D01*
X289363Y279382D01*
X288109Y279131D01*
X287795Y279372D01*
X285241Y280430D01*
X282500Y280791D01*
X279500D01*
X276759Y280430D01*
X274205Y279372D01*
X273890Y279131D01*
X272637Y279382D01*
X272369Y279564D01*
X272283Y279692D01*
X272227Y279729D01*
X272186Y279783D01*
X271898Y279949D01*
X271622Y280134D01*
X271555Y280147D01*
X271497Y280181D01*
X271167Y280224D01*
X270841Y280289D01*
X225345D01*
X192289Y313345D01*
Y344905D01*
X200345Y352961D01*
X247750D01*
X248530Y353116D01*
X249192Y353558D01*
X270689Y375055D01*
X271952Y374930D01*
X272244Y374494D01*
X274311Y373113D01*
X276750Y372628D01*
X288250D01*
X290689Y373113D01*
X292756Y374494D01*
X294137Y376561D01*
X294622Y379000D01*
Y387500D01*
X294137Y389939D01*
X292756Y392006D01*
X290766Y393336D01*
X290574Y393549D01*
X290250Y394617D01*
X296278Y400644D01*
X297451Y400158D01*
D02*
G37*
%LPC*%
G36*
X284750Y620622D02*
X273250D01*
X270811Y620137D01*
X268744Y618756D01*
X267363Y616689D01*
X266877Y614250D01*
Y605750D01*
X267363Y603311D01*
X268744Y601244D01*
X270811Y599863D01*
X273250Y599378D01*
X284750D01*
X287189Y599863D01*
X289256Y601244D01*
X290637Y603311D01*
X291122Y605750D01*
Y614250D01*
X290637Y616689D01*
X289256Y618756D01*
X287189Y620137D01*
X284750Y620622D01*
D02*
G37*
G36*
X47500Y60097D02*
X43579Y59711D01*
X39809Y58567D01*
X36335Y56710D01*
X33289Y54211D01*
X30790Y51165D01*
X28933Y47691D01*
X27789Y43921D01*
X27403Y40000D01*
X27789Y36079D01*
X28933Y32309D01*
X30790Y28835D01*
X33289Y25789D01*
X36335Y23290D01*
X39809Y21433D01*
X43579Y20289D01*
X47500Y19903D01*
X51421Y20289D01*
X55191Y21433D01*
X58665Y23290D01*
X61711Y25789D01*
X64210Y28835D01*
X66067Y32309D01*
X67211Y36079D01*
X67597Y40000D01*
X67211Y43921D01*
X66067Y47691D01*
X64210Y51165D01*
X61711Y54211D01*
X58665Y56710D01*
X55191Y58567D01*
X51421Y59711D01*
X47500Y60097D01*
D02*
G37*
G36*
X77800Y24959D02*
Y14000D01*
X87391D01*
Y14500D01*
X87030Y17241D01*
X85972Y19795D01*
X84289Y21989D01*
X82095Y23672D01*
X79541Y24730D01*
X77800Y24959D01*
D02*
G37*
G36*
X75800D02*
X74059Y24730D01*
X71505Y23672D01*
X69311Y21989D01*
X67628Y19795D01*
X66570Y17241D01*
X66209Y14500D01*
Y14000D01*
X75800D01*
Y24959D01*
D02*
G37*
G36*
X56800Y540092D02*
X55581Y539931D01*
X53513Y539075D01*
X51738Y537712D01*
X50375Y535937D01*
X49519Y533869D01*
X49358Y532650D01*
X56800D01*
Y540092D01*
D02*
G37*
G36*
Y530650D02*
X49358D01*
X49519Y529431D01*
X50375Y527363D01*
X51738Y525588D01*
X53513Y524225D01*
X55581Y523369D01*
X56800Y523208D01*
Y530650D01*
D02*
G37*
G36*
X56800Y500092D02*
X55581Y499931D01*
X53513Y499075D01*
X51738Y497712D01*
X50375Y495937D01*
X49519Y493869D01*
X49358Y492650D01*
X56800D01*
Y500092D01*
D02*
G37*
G36*
X188750Y497588D02*
X187250D01*
Y489500D01*
X193338D01*
Y493000D01*
X192989Y494756D01*
X191994Y496244D01*
X190506Y497239D01*
X188750Y497588D01*
D02*
G37*
G36*
X185250D02*
X183750D01*
X181994Y497239D01*
X180506Y496244D01*
X179511Y494756D01*
X179162Y493000D01*
Y489500D01*
X185250D01*
Y497588D01*
D02*
G37*
G36*
X56800Y490650D02*
X49358D01*
X49519Y489431D01*
X50375Y487363D01*
X51738Y485588D01*
X53513Y484225D01*
X55581Y483369D01*
X56800Y483208D01*
Y490650D01*
D02*
G37*
G36*
X193338Y487500D02*
X187250D01*
Y479412D01*
X188750D01*
X190506Y479761D01*
X191994Y480756D01*
X192989Y482244D01*
X193338Y484000D01*
Y487500D01*
D02*
G37*
G36*
X185250D02*
X179162D01*
Y484000D01*
X179511Y482244D01*
X180506Y480756D01*
X181994Y479761D01*
X183750Y479412D01*
X185250D01*
Y487500D01*
D02*
G37*
G36*
X38800Y480092D02*
Y472650D01*
X46242D01*
X46081Y473869D01*
X45225Y475937D01*
X43862Y477712D01*
X42087Y479075D01*
X40019Y479931D01*
X38800Y480092D01*
D02*
G37*
G36*
X193125Y477331D02*
X192000D01*
Y472000D01*
X197331D01*
Y473125D01*
X197011Y474734D01*
X196099Y476099D01*
X194734Y477011D01*
X193125Y477331D01*
D02*
G37*
G36*
X190000D02*
X188875D01*
X187265Y477011D01*
X185901Y476099D01*
X184989Y474734D01*
X184669Y473125D01*
Y472000D01*
X190000D01*
Y477331D01*
D02*
G37*
G36*
X160750Y474000D02*
X154500D01*
Y466500D01*
X160750D01*
Y474000D01*
D02*
G37*
G36*
X197331Y470000D02*
X192000D01*
Y464669D01*
X193125D01*
X194734Y464989D01*
X196099Y465901D01*
X197011Y467266D01*
X197331Y468875D01*
Y470000D01*
D02*
G37*
G36*
X190000D02*
X184669D01*
Y468875D01*
X184989Y467266D01*
X185901Y465901D01*
X187265Y464989D01*
X188875Y464669D01*
X190000D01*
Y470000D01*
D02*
G37*
G36*
X46242Y470650D02*
X38800D01*
Y463208D01*
X40019Y463369D01*
X42087Y464225D01*
X43862Y465588D01*
X45225Y467363D01*
X46081Y469431D01*
X46242Y470650D01*
D02*
G37*
G36*
X172125Y468331D02*
X171000D01*
Y463000D01*
X176331D01*
Y464125D01*
X176011Y465734D01*
X175099Y467099D01*
X173734Y468011D01*
X172125Y468331D01*
D02*
G37*
G36*
X169000D02*
X167875D01*
X166266Y468011D01*
X164901Y467099D01*
X163989Y465734D01*
X163669Y464125D01*
Y463000D01*
X169000D01*
Y468331D01*
D02*
G37*
G36*
X207750Y497588D02*
X202750D01*
X200994Y497239D01*
X199506Y496244D01*
X198511Y494756D01*
X198162Y493000D01*
Y484000D01*
X198511Y482244D01*
X199506Y480756D01*
X200994Y479761D01*
X201315Y479697D01*
X202191Y478896D01*
X202269Y478505D01*
X201464Y477050D01*
X201266Y477011D01*
X199901Y476099D01*
X198989Y474734D01*
X198669Y473125D01*
Y468875D01*
X198989Y467266D01*
X199901Y465901D01*
X201266Y464989D01*
X202875Y464669D01*
X207125D01*
X208734Y464989D01*
X210099Y465901D01*
X211011Y467266D01*
X211145Y467941D01*
X213840D01*
Y464166D01*
X210668Y460994D01*
X209599Y461099D01*
X208235Y462011D01*
X206625Y462331D01*
X202375D01*
X200765Y462011D01*
X199401Y461099D01*
X198489Y459734D01*
X198169Y458125D01*
Y453875D01*
X198489Y452266D01*
X199401Y450901D01*
X200765Y449989D01*
X202375Y449669D01*
X206625D01*
X208235Y449989D01*
X209599Y450901D01*
X210511Y452266D01*
X210768Y453557D01*
X211749Y453753D01*
X212741Y454416D01*
X219062Y460736D01*
X219062Y460736D01*
X219725Y461728D01*
X219958Y462899D01*
Y475601D01*
X219958Y475601D01*
X219725Y476772D01*
X219062Y477764D01*
X216938Y479888D01*
X215946Y480551D01*
X214775Y480784D01*
X214775Y480783D01*
X212360D01*
X211761Y481903D01*
X211989Y482244D01*
X212338Y484000D01*
Y493000D01*
X211989Y494756D01*
X210994Y496244D01*
X209506Y497239D01*
X207750Y497588D01*
D02*
G37*
G36*
X192625Y462331D02*
X188375D01*
X186765Y462011D01*
X185401Y461099D01*
X184489Y459734D01*
X184355Y459059D01*
X181750D01*
X181750Y459059D01*
X180579Y458826D01*
X179587Y458163D01*
X179587Y458163D01*
X174396Y452972D01*
X173733Y451979D01*
X173500Y450809D01*
X173500Y450809D01*
Y439691D01*
X173500Y439691D01*
X173733Y438521D01*
X174396Y437528D01*
X176587Y435337D01*
X176587Y435337D01*
X177579Y434674D01*
X178750Y434441D01*
X180178D01*
X181285Y432785D01*
X182191Y432179D01*
Y413125D01*
X182191Y413125D01*
X182424Y411954D01*
X183087Y410962D01*
X200337Y393712D01*
X200337Y393712D01*
X201329Y393049D01*
X202500Y392816D01*
X203638Y392524D01*
X203739Y392015D01*
X204651Y390651D01*
X206015Y389739D01*
X207625Y389419D01*
X211875D01*
X213484Y389739D01*
X214849Y390651D01*
X215761Y392015D01*
X216081Y393625D01*
Y397875D01*
X215761Y399484D01*
X214849Y400849D01*
X213484Y401761D01*
X211875Y402081D01*
X207625D01*
X206015Y401761D01*
X204651Y400849D01*
X204249Y400248D01*
X202655Y400046D01*
X188309Y414392D01*
Y432179D01*
X189215Y432785D01*
X190431Y434604D01*
X190858Y436750D01*
X190431Y438896D01*
X189215Y440715D01*
X187396Y441931D01*
X185250Y442358D01*
X183104Y441931D01*
X181285Y440715D01*
X180157Y441196D01*
X179618Y441710D01*
Y449542D01*
X183017Y452941D01*
X184355D01*
X184489Y452266D01*
X185401Y450901D01*
X186765Y449989D01*
X188375Y449669D01*
X192625D01*
X194235Y449989D01*
X195599Y450901D01*
X196511Y452266D01*
X196831Y453875D01*
Y458125D01*
X196511Y459734D01*
X195599Y461099D01*
X194235Y462011D01*
X192625Y462331D01*
D02*
G37*
G36*
X160750Y464500D02*
X154500D01*
Y457000D01*
X160750D01*
Y464500D01*
D02*
G37*
G36*
X176331Y461000D02*
X171000D01*
Y455669D01*
X172125D01*
X173734Y455989D01*
X175099Y456901D01*
X176011Y458265D01*
X176331Y459875D01*
Y461000D01*
D02*
G37*
G36*
X169000D02*
X163669D01*
Y459875D01*
X163989Y458265D01*
X164901Y456901D01*
X166266Y455989D01*
X167875Y455669D01*
X169000D01*
Y461000D01*
D02*
G37*
G36*
X56800Y460092D02*
X55581Y459931D01*
X53513Y459075D01*
X51738Y457712D01*
X50375Y455937D01*
X49519Y453869D01*
X49358Y452650D01*
X56800D01*
Y460092D01*
D02*
G37*
G36*
Y450650D02*
X49358D01*
X49519Y449431D01*
X50375Y447363D01*
X51738Y445588D01*
X53513Y444225D01*
X55581Y443369D01*
X56800Y443208D01*
Y450650D01*
D02*
G37*
G36*
X41050Y440253D02*
X38800D01*
Y432650D01*
X46403D01*
Y434900D01*
X45995Y436948D01*
X44835Y438685D01*
X43098Y439845D01*
X41050Y440253D01*
D02*
G37*
G36*
X46403Y430650D02*
X38800D01*
Y423047D01*
X41050D01*
X43098Y423455D01*
X44835Y424615D01*
X45995Y426352D01*
X46403Y428400D01*
Y430650D01*
D02*
G37*
G36*
X207500Y424588D02*
X207000D01*
Y417500D01*
X212088D01*
Y420000D01*
X211739Y421756D01*
X210744Y423244D01*
X209256Y424239D01*
X207500Y424588D01*
D02*
G37*
G36*
X203000D02*
X202500D01*
X200744Y424239D01*
X199256Y423244D01*
X198261Y421756D01*
X197912Y420000D01*
Y417500D01*
X203000D01*
Y424588D01*
D02*
G37*
G36*
X212088Y413500D02*
X207000D01*
Y406412D01*
X207500D01*
X209256Y406761D01*
X210744Y407756D01*
X211739Y409244D01*
X212088Y411000D01*
Y413500D01*
D02*
G37*
G36*
X203000D02*
X197912D01*
Y411000D01*
X198261Y409244D01*
X199256Y407756D01*
X200744Y406761D01*
X202500Y406412D01*
X203000D01*
Y413500D01*
D02*
G37*
G36*
X237750Y407831D02*
X236625D01*
X235016Y407511D01*
X233651Y406599D01*
X232739Y405234D01*
X232419Y403625D01*
Y402500D01*
X237750D01*
Y407831D01*
D02*
G37*
G36*
X73400Y398555D02*
X71789Y398343D01*
X69357Y397335D01*
X67268Y395732D01*
X65665Y393643D01*
X64657Y391211D01*
X64445Y389600D01*
X73400D01*
Y398555D01*
D02*
G37*
G36*
Y387600D02*
X64445D01*
X64657Y385989D01*
X65665Y383557D01*
X67268Y381468D01*
X69357Y379865D01*
X71789Y378857D01*
X73400Y378645D01*
Y387600D01*
D02*
G37*
G36*
X49000Y398686D02*
X46389Y398343D01*
X43957Y397335D01*
X41868Y395732D01*
X40265Y393643D01*
X39257Y391211D01*
X38914Y388600D01*
X39257Y385989D01*
X40265Y383557D01*
X41868Y381468D01*
X43957Y379865D01*
X46389Y378857D01*
X49000Y378514D01*
X51610Y378857D01*
X54043Y379865D01*
X56132Y381468D01*
X57735Y383557D01*
X58743Y385989D01*
X59086Y388600D01*
X58743Y391211D01*
X57735Y393643D01*
X56132Y395732D01*
X54043Y397335D01*
X51610Y398343D01*
X49000Y398686D01*
D02*
G37*
G36*
Y373286D02*
X46389Y372943D01*
X43957Y371935D01*
X41868Y370332D01*
X40265Y368243D01*
X39257Y365811D01*
X38914Y363200D01*
X39257Y360589D01*
X40265Y358157D01*
X41868Y356068D01*
X43957Y354465D01*
X46389Y353457D01*
X49000Y353114D01*
X51610Y353457D01*
X54043Y354465D01*
X56132Y356068D01*
X57735Y358157D01*
X58743Y360589D01*
X59086Y363200D01*
X58743Y365811D01*
X57735Y368243D01*
X56132Y370332D01*
X54043Y371935D01*
X51610Y372943D01*
X49000Y373286D01*
D02*
G37*
G36*
X73400Y347755D02*
X71789Y347543D01*
X69357Y346535D01*
X67268Y344932D01*
X65665Y342843D01*
X64657Y340410D01*
X64445Y338800D01*
X73400D01*
Y347755D01*
D02*
G37*
G36*
Y336800D02*
X64445D01*
X64657Y335190D01*
X65665Y332757D01*
X67268Y330668D01*
X69357Y329065D01*
X71789Y328057D01*
X73400Y327845D01*
Y336800D01*
D02*
G37*
G36*
X49000Y347886D02*
X46389Y347543D01*
X43957Y346535D01*
X41868Y344932D01*
X40265Y342843D01*
X39257Y340410D01*
X38914Y337800D01*
X39257Y335190D01*
X40265Y332757D01*
X41868Y330668D01*
X43957Y329065D01*
X46389Y328057D01*
X49000Y327714D01*
X51610Y328057D01*
X54043Y329065D01*
X56132Y330668D01*
X57735Y332757D01*
X58743Y335190D01*
X59086Y337800D01*
X58743Y340410D01*
X57735Y342843D01*
X56132Y344932D01*
X54043Y346535D01*
X51610Y347543D01*
X49000Y347886D01*
D02*
G37*
G36*
Y322486D02*
X46389Y322143D01*
X43957Y321135D01*
X41868Y319532D01*
X40265Y317443D01*
X39257Y315011D01*
X38914Y312400D01*
X39257Y309790D01*
X40265Y307357D01*
X41868Y305268D01*
X43957Y303665D01*
X46389Y302657D01*
X49000Y302314D01*
X51610Y302657D01*
X54043Y303665D01*
X56132Y305268D01*
X57735Y307357D01*
X58743Y309790D01*
X59086Y312400D01*
X58743Y315011D01*
X57735Y317443D01*
X56132Y319532D01*
X54043Y321135D01*
X51610Y322143D01*
X49000Y322486D01*
D02*
G37*
G36*
Y297086D02*
X46389Y296743D01*
X43957Y295735D01*
X41868Y294132D01*
X40265Y292043D01*
X39257Y289611D01*
X38914Y287000D01*
X39257Y284389D01*
X40265Y281957D01*
X41868Y279868D01*
X43957Y278265D01*
X46389Y277257D01*
X49000Y276914D01*
X51610Y277257D01*
X54043Y278265D01*
X56132Y279868D01*
X57735Y281957D01*
X58743Y284389D01*
X59086Y287000D01*
X58743Y289611D01*
X57735Y292043D01*
X56132Y294132D01*
X54043Y295735D01*
X51610Y296743D01*
X49000Y297086D01*
D02*
G37*
G36*
X73400Y271555D02*
X71789Y271343D01*
X69357Y270335D01*
X67268Y268732D01*
X65665Y266643D01*
X64657Y264210D01*
X64445Y262600D01*
X73400D01*
Y271555D01*
D02*
G37*
G36*
Y260600D02*
X64445D01*
X64657Y258990D01*
X65665Y256557D01*
X67268Y254468D01*
X69357Y252865D01*
X71789Y251857D01*
X73400Y251645D01*
Y260600D01*
D02*
G37*
G36*
X49000Y271686D02*
X46389Y271343D01*
X43957Y270335D01*
X41868Y268732D01*
X40265Y266643D01*
X39257Y264210D01*
X38914Y261600D01*
X39257Y258990D01*
X40265Y256557D01*
X41868Y254468D01*
X43957Y252865D01*
X46389Y251857D01*
X49000Y251514D01*
X51610Y251857D01*
X54043Y252865D01*
X56132Y254468D01*
X57735Y256557D01*
X58743Y258990D01*
X59086Y261600D01*
X58743Y264210D01*
X57735Y266643D01*
X56132Y268732D01*
X54043Y270335D01*
X51610Y271343D01*
X49000Y271686D01*
D02*
G37*
G36*
Y246286D02*
X46389Y245943D01*
X43957Y244935D01*
X41868Y243332D01*
X40265Y241243D01*
X39257Y238811D01*
X38914Y236200D01*
X39257Y233589D01*
X40265Y231157D01*
X41868Y229068D01*
X43957Y227465D01*
X46389Y226457D01*
X49000Y226114D01*
X51610Y226457D01*
X54043Y227465D01*
X56132Y229068D01*
X57735Y231157D01*
X58743Y233589D01*
X59086Y236200D01*
X58743Y238811D01*
X57735Y241243D01*
X56132Y243332D01*
X54043Y244935D01*
X51610Y245943D01*
X49000Y246286D01*
D02*
G37*
G36*
X73400Y220755D02*
X71789Y220543D01*
X69357Y219535D01*
X67268Y217932D01*
X65665Y215843D01*
X64657Y213410D01*
X64445Y211800D01*
X73400D01*
Y220755D01*
D02*
G37*
G36*
X49000Y220886D02*
X46389Y220543D01*
X43957Y219535D01*
X41868Y217932D01*
X40265Y215843D01*
X39257Y213410D01*
X38914Y210800D01*
X39257Y208190D01*
X40265Y205757D01*
X41868Y203668D01*
X43957Y202065D01*
X46389Y201057D01*
X49000Y200714D01*
X51610Y201057D01*
X54043Y202065D01*
X56132Y203668D01*
X57735Y205757D01*
X58743Y208190D01*
X59086Y210800D01*
X58743Y213410D01*
X57735Y215843D01*
X56132Y217932D01*
X54043Y219535D01*
X51610Y220543D01*
X49000Y220886D01*
D02*
G37*
G36*
X75400Y169955D02*
Y161000D01*
X84355D01*
X84143Y162610D01*
X83135Y165043D01*
X81532Y167132D01*
X79443Y168735D01*
X77010Y169743D01*
X75400Y169955D01*
D02*
G37*
G36*
X73400D02*
X71789Y169743D01*
X69357Y168735D01*
X67268Y167132D01*
X65665Y165043D01*
X64657Y162610D01*
X64445Y161000D01*
X73400D01*
Y169955D01*
D02*
G37*
G36*
X84355Y159000D02*
X75400D01*
Y150045D01*
X77010Y150257D01*
X79443Y151265D01*
X81532Y152868D01*
X83135Y154957D01*
X84143Y157389D01*
X84355Y159000D01*
D02*
G37*
G36*
X73400D02*
X64445D01*
X64657Y157389D01*
X65665Y154957D01*
X67268Y152868D01*
X69357Y151265D01*
X71789Y150257D01*
X73400Y150045D01*
Y159000D01*
D02*
G37*
G36*
X53000Y170117D02*
X45000D01*
X42659Y169652D01*
X40674Y168326D01*
X39348Y166341D01*
X38883Y164000D01*
Y156000D01*
X39348Y153659D01*
X40674Y151674D01*
X42659Y150348D01*
X45000Y149882D01*
X53000D01*
X55341Y150348D01*
X57326Y151674D01*
X58652Y153659D01*
X59117Y156000D01*
Y164000D01*
X58652Y166341D01*
X57326Y168326D01*
X55341Y169652D01*
X53000Y170117D01*
D02*
G37*
G36*
X125750Y125622D02*
X121000D01*
Y116000D01*
X132122D01*
Y119250D01*
X131637Y121689D01*
X130256Y123756D01*
X128189Y125137D01*
X125750Y125622D01*
D02*
G37*
G36*
X285750D02*
X281000D01*
Y116000D01*
X292122D01*
Y119250D01*
X291637Y121689D01*
X290256Y123756D01*
X288189Y125137D01*
X285750Y125622D01*
D02*
G37*
G36*
X205750D02*
X201000D01*
Y116000D01*
X212122D01*
Y119250D01*
X211637Y121689D01*
X210256Y123756D01*
X208189Y125137D01*
X205750Y125622D01*
D02*
G37*
G36*
X119000D02*
X114250D01*
X111811Y125137D01*
X109744Y123756D01*
X108363Y121689D01*
X107878Y119250D01*
Y116000D01*
X119000D01*
Y125622D01*
D02*
G37*
G36*
X279000D02*
X274250D01*
X271811Y125137D01*
X269744Y123756D01*
X268363Y121689D01*
X267878Y119250D01*
Y116000D01*
X279000D01*
Y125622D01*
D02*
G37*
G36*
X199000D02*
X194250D01*
X191811Y125137D01*
X189744Y123756D01*
X188363Y121689D01*
X187878Y119250D01*
Y116000D01*
X199000D01*
Y125622D01*
D02*
G37*
G36*
X292122Y114000D02*
X281000D01*
Y104378D01*
X285750D01*
X288189Y104863D01*
X290256Y106244D01*
X291637Y108311D01*
X292122Y110750D01*
Y114000D01*
D02*
G37*
G36*
X279000D02*
X267878D01*
Y110750D01*
X268363Y108311D01*
X269744Y106244D01*
X271811Y104863D01*
X274250Y104378D01*
X279000D01*
Y114000D01*
D02*
G37*
G36*
X212122D02*
X201000D01*
Y104378D01*
X205750D01*
X208189Y104863D01*
X210256Y106244D01*
X211637Y108311D01*
X212122Y110750D01*
Y114000D01*
D02*
G37*
G36*
X199000D02*
X187878D01*
Y110750D01*
X188363Y108311D01*
X189744Y106244D01*
X191811Y104863D01*
X194250Y104378D01*
X199000D01*
Y114000D01*
D02*
G37*
G36*
X132122D02*
X121000D01*
Y104378D01*
X125750D01*
X128189Y104863D01*
X130256Y106244D01*
X131637Y108311D01*
X132122Y110750D01*
Y114000D01*
D02*
G37*
G36*
X119000D02*
X107878D01*
Y110750D01*
X108363Y108311D01*
X109744Y106244D01*
X111811Y104863D01*
X114250Y104378D01*
X119000D01*
Y114000D01*
D02*
G37*
G36*
X286985Y85000D02*
X285015D01*
X283083Y84616D01*
X281263Y83862D01*
X279625Y82767D01*
X278232Y81375D01*
X277138Y79737D01*
X276384Y77917D01*
X276000Y75985D01*
Y74015D01*
X276384Y72083D01*
X277138Y70263D01*
X278232Y68625D01*
X279625Y67232D01*
X281263Y66138D01*
X283083Y65384D01*
X285015Y65000D01*
X286985D01*
X288917Y65384D01*
X290737Y66138D01*
X292375Y67232D01*
X293768Y68625D01*
X294862Y70263D01*
X295616Y72083D01*
X296000Y74015D01*
Y75985D01*
X295616Y77917D01*
X294862Y79737D01*
X293768Y81375D01*
X292375Y82767D01*
X290737Y83862D01*
X288917Y84616D01*
X286985Y85000D01*
D02*
G37*
G36*
X260000Y60097D02*
X256079Y59711D01*
X252309Y58567D01*
X248835Y56710D01*
X245789Y54211D01*
X243290Y51165D01*
X241433Y47691D01*
X240289Y43921D01*
X239903Y40000D01*
X240289Y36079D01*
X241433Y32309D01*
X243290Y28835D01*
X245789Y25789D01*
X248835Y23290D01*
X252309Y21433D01*
X256079Y20289D01*
X260000Y19903D01*
X263921Y20289D01*
X267691Y21433D01*
X271165Y23290D01*
X274211Y25789D01*
X276710Y28835D01*
X278567Y32309D01*
X279711Y36079D01*
X280097Y40000D01*
X279711Y43921D01*
X278567Y47691D01*
X276710Y51165D01*
X274211Y54211D01*
X271165Y56710D01*
X267691Y58567D01*
X263921Y59711D01*
X260000Y60097D01*
D02*
G37*
G36*
X134000Y487500D02*
X127750D01*
Y480000D01*
X134000D01*
Y487500D01*
D02*
G37*
G36*
X121125Y484331D02*
X120000D01*
Y479000D01*
X125331D01*
Y480125D01*
X125011Y481735D01*
X124099Y483099D01*
X122734Y484011D01*
X121125Y484331D01*
D02*
G37*
G36*
X125331Y477000D02*
X120000D01*
Y471669D01*
X121125D01*
X122734Y471989D01*
X124099Y472901D01*
X125011Y474266D01*
X125331Y475875D01*
Y477000D01*
D02*
G37*
G36*
X292959Y269200D02*
X282000D01*
Y259609D01*
X282500D01*
X285241Y259970D01*
X287795Y261028D01*
X289989Y262711D01*
X291672Y264905D01*
X292730Y267459D01*
X292959Y269200D01*
D02*
G37*
G36*
X280000D02*
X269041D01*
X269270Y267459D01*
X270328Y264905D01*
X272011Y262711D01*
X274205Y261028D01*
X276759Y259970D01*
X279500Y259609D01*
X280000D01*
Y269200D01*
D02*
G37*
G36*
X282500Y255391D02*
X279500D01*
X276759Y255030D01*
X274205Y253972D01*
X272011Y252289D01*
X270328Y250095D01*
X269270Y247541D01*
X268909Y244800D01*
X269270Y242059D01*
X270328Y239505D01*
X272011Y237311D01*
X274205Y235628D01*
X276759Y234570D01*
X279500Y234209D01*
X282500D01*
X285241Y234570D01*
X287795Y235628D01*
X289989Y237311D01*
X291672Y239505D01*
X292730Y242059D01*
X293091Y244800D01*
X292730Y247541D01*
X291672Y250095D01*
X289989Y252289D01*
X287795Y253972D01*
X285241Y255030D01*
X282500Y255391D01*
D02*
G37*
G36*
Y229991D02*
X279500D01*
X276759Y229630D01*
X274205Y228572D01*
X272011Y226889D01*
X270328Y224695D01*
X269270Y222141D01*
X268909Y219400D01*
X269270Y216659D01*
X270328Y214105D01*
X272011Y211911D01*
X274205Y210228D01*
X276759Y209170D01*
X279500Y208809D01*
X282500D01*
X285241Y209170D01*
X287795Y210228D01*
X289989Y211911D01*
X291672Y214105D01*
X292730Y216659D01*
X293091Y219400D01*
X292730Y222141D01*
X291672Y224695D01*
X289989Y226889D01*
X287795Y228572D01*
X285241Y229630D01*
X282500Y229991D01*
D02*
G37*
G36*
X285750Y182622D02*
X281000D01*
Y173000D01*
X292122D01*
Y176250D01*
X291637Y178689D01*
X290256Y180756D01*
X288189Y182137D01*
X285750Y182622D01*
D02*
G37*
G36*
X279000D02*
X274250D01*
X271811Y182137D01*
X269744Y180756D01*
X268363Y178689D01*
X267878Y176250D01*
Y173000D01*
X279000D01*
Y182622D01*
D02*
G37*
G36*
X292122Y171000D02*
X281000D01*
Y161378D01*
X285750D01*
X288189Y161863D01*
X290256Y163244D01*
X291637Y165311D01*
X292122Y167750D01*
Y171000D01*
D02*
G37*
G36*
X279000D02*
X267878D01*
Y167750D01*
X268363Y165311D01*
X269744Y163244D01*
X271811Y161863D01*
X274250Y161378D01*
X279000D01*
Y171000D01*
D02*
G37*
G36*
X293000Y356900D02*
X269000D01*
Y335900D01*
X293000D01*
Y356900D01*
D02*
G37*
G36*
X282500Y331591D02*
X279500D01*
X276759Y331230D01*
X274205Y330172D01*
X272011Y328489D01*
X270328Y326295D01*
X269270Y323741D01*
X268909Y321000D01*
X269270Y318259D01*
X270328Y315705D01*
X272011Y313511D01*
X274205Y311828D01*
X276759Y310770D01*
X279500Y310409D01*
X282500D01*
X285241Y310770D01*
X287795Y311828D01*
X289989Y313511D01*
X291672Y315705D01*
X292730Y318259D01*
X293091Y321000D01*
X292730Y323741D01*
X291672Y326295D01*
X289989Y328489D01*
X287795Y330172D01*
X285241Y331230D01*
X282500Y331591D01*
D02*
G37*
G36*
Y306191D02*
X279500D01*
X276759Y305830D01*
X274205Y304772D01*
X272011Y303089D01*
X270328Y300895D01*
X269270Y298341D01*
X268909Y295600D01*
X269270Y292859D01*
X270328Y290305D01*
X272011Y288111D01*
X274205Y286428D01*
X276759Y285370D01*
X279500Y285009D01*
X282500D01*
X285241Y285370D01*
X287795Y286428D01*
X289989Y288111D01*
X291672Y290305D01*
X292730Y292859D01*
X293091Y295600D01*
X292730Y298341D01*
X291672Y300895D01*
X289989Y303089D01*
X287795Y304772D01*
X285241Y305830D01*
X282500Y306191D01*
D02*
G37*
%LPD*%
D11*
X120350Y620650D02*
X140000Y601000D01*
X34072Y620650D02*
X120350D01*
X65878Y587000D02*
X103500D01*
X110043Y585957D02*
X111000Y585000D01*
X104543Y585957D02*
X110043D01*
X103500Y587000D02*
X104543Y585957D01*
X61528Y582650D02*
X65878Y587000D01*
X35420Y582650D02*
X61528D01*
X28800Y576030D02*
X35420Y582650D01*
X28800Y150200D02*
Y576030D01*
X25300Y145700D02*
Y596300D01*
X31021Y602021D01*
X21800Y608378D02*
X34072Y620650D01*
X21800Y139200D02*
Y608378D01*
X60157Y602021D02*
X70178Y592000D01*
X31021Y602021D02*
X60157D01*
X70178Y592000D02*
X120000D01*
X150159Y572500D02*
X152595Y570064D01*
X74000Y557000D02*
X89500Y572500D01*
X150159D01*
X25300Y145700D02*
X102200Y68800D01*
X21800Y139200D02*
X92000Y69000D01*
X28800Y150200D02*
X153000Y26000D01*
Y13000D02*
Y26000D01*
X102200Y13000D02*
Y68800D01*
X161000Y235335D02*
Y301000D01*
X161000Y301000D01*
X161000Y235335D02*
X161181Y235154D01*
X161000Y301000D02*
Y348000D01*
X201000Y237300D02*
Y262700D01*
X119000Y145000D02*
X134000D01*
X178400Y100600D01*
Y13000D02*
Y100600D01*
X120000Y592000D02*
X129000Y583000D01*
X137000D01*
X62559Y198959D02*
X79959D01*
X49000Y185400D02*
X49000D01*
X62559Y198959D01*
X79959D02*
X86500Y205500D01*
X90000Y201000D02*
Y415900D01*
X74400Y185400D02*
X90000Y201000D01*
X86500Y205500D02*
Y414450D01*
X77500Y428400D02*
X90000Y415900D01*
X77500Y428400D02*
Y554500D01*
X80500Y410296D02*
Y410611D01*
X67000Y413500D02*
X72250Y408250D01*
X70500Y420611D02*
X80500Y410611D01*
X67000Y413500D02*
Y542450D01*
X171901Y503558D02*
X180406D01*
X186769Y509922D01*
X195172D01*
X166854Y508606D02*
X171901Y503558D01*
X195172Y509922D02*
X195750Y510500D01*
X161500Y510750D02*
X163644Y508606D01*
X166854D01*
X176559Y450809D02*
X181750Y456000D01*
X176559Y439691D02*
X178750Y437500D01*
X176559Y439691D02*
Y450809D01*
X214775Y477725D02*
X216899Y475601D01*
X206422Y477725D02*
X214775D01*
X205250Y478896D02*
Y488500D01*
Y478896D02*
X206422Y477725D01*
X216899Y462899D02*
Y475601D01*
X205000Y471000D02*
X216149D01*
X210578Y456578D02*
X216899Y462899D01*
X204500Y456000D02*
X205079Y456578D01*
X210578D01*
X184500Y437500D02*
X185250Y436750D01*
X178750Y437500D02*
X184500D01*
X181750Y456000D02*
X190500D01*
X146250Y507250D02*
X153500Y500000D01*
X136000Y507250D02*
X146250D01*
X134000Y518000D02*
X141250Y510750D01*
X161500D01*
X135750Y507500D02*
X136000Y507250D01*
X127500Y518000D02*
X134000D01*
X127500Y518000D02*
X127500Y518000D01*
X185250Y413125D02*
Y436750D01*
X202500Y395875D02*
X208125D01*
X185250Y413125D02*
X202500Y395875D01*
X77500Y554500D02*
X91250Y568250D01*
X57800Y570914D02*
X70500Y558214D01*
X74000Y426950D02*
Y557000D01*
X70500Y420611D02*
Y558214D01*
X57800Y551650D02*
X67000Y542450D01*
X74000Y426950D02*
X86500Y414450D01*
X112500Y568250D02*
X119750Y561000D01*
X91250Y568250D02*
X112500D01*
X120000Y561250D02*
X129250D01*
X152595Y563921D02*
Y570064D01*
X149924Y561250D02*
X152595Y563921D01*
X143250Y561250D02*
X149924D01*
X119750Y548750D02*
Y561000D01*
X57800Y570914D02*
Y571650D01*
X153500Y488500D02*
Y500000D01*
X128000Y501500D02*
X142500D01*
X145000Y499000D01*
X119750Y548750D02*
X119864Y548636D01*
X126636D01*
X223875Y415375D02*
X224000Y415500D01*
X238750D01*
X223750Y395750D02*
X223875Y395875D01*
Y415375D01*
X135500Y466000D02*
X142872D01*
X145000Y468128D02*
Y499000D01*
X142872Y466000D02*
X145000Y468128D01*
X119000Y464000D02*
X133500D01*
X135000Y465500D01*
X135500Y466000D01*
X170000Y476000D02*
Y484000D01*
X165500Y488500D02*
X170000Y484000D01*
X153500Y488500D02*
X165500D01*
X208125Y395875D02*
X208250Y395750D01*
D12*
X215000Y438000D02*
X246750D01*
X214500Y437500D02*
X215000Y438000D01*
X246250Y438500D02*
Y464500D01*
X226253Y484497D02*
X246250Y464500D01*
X175500Y510750D02*
X176285Y511535D01*
X182036D02*
X207525Y537025D01*
X226253D01*
X176285Y511535D02*
X182036D01*
X226253Y484497D02*
Y537025D01*
D16*
X119000Y478000D02*
D03*
Y464000D02*
D03*
X170000Y462000D02*
D03*
Y476000D02*
D03*
X238750Y401500D02*
D03*
Y415500D02*
D03*
D17*
X175500Y510750D02*
D03*
X161500D02*
D03*
X191000Y471000D02*
D03*
X205000D02*
D03*
X190500Y456000D02*
D03*
X204500D02*
D03*
X143250Y561250D02*
D03*
X129250D02*
D03*
Y548250D02*
D03*
X143250D02*
D03*
X223750Y395750D02*
D03*
X209750D02*
D03*
D34*
X286000Y75000D02*
D03*
X28000Y670000D02*
D03*
D35*
X76800Y13000D02*
D03*
X102200D02*
D03*
X178400D02*
D03*
X203800D02*
D03*
X153000D02*
D03*
X127600D02*
D03*
D36*
X229200D02*
D03*
D37*
X280000Y172000D02*
D03*
X200000Y115000D02*
D03*
X120000D02*
D03*
X279000Y610000D02*
D03*
X282500Y383250D02*
D03*
X280000Y115000D02*
D03*
D38*
X281000Y244800D02*
D03*
Y270200D02*
D03*
Y321000D02*
D03*
Y295600D02*
D03*
Y219400D02*
D03*
D39*
Y346400D02*
D03*
D40*
X284000Y490000D02*
D03*
D41*
X57800Y611650D02*
D03*
X37800D02*
D03*
X57800Y591650D02*
D03*
X37800D02*
D03*
X57800Y571650D02*
D03*
X37800D02*
D03*
X57800Y551650D02*
D03*
X37800D02*
D03*
X57800Y531650D02*
D03*
X37800D02*
D03*
X57800Y511650D02*
D03*
X37800D02*
D03*
X57800Y491650D02*
D03*
X37800D02*
D03*
X57800Y471650D02*
D03*
X37800D02*
D03*
X57800Y451650D02*
D03*
X37800D02*
D03*
X57800Y431650D02*
D03*
D42*
X37800D02*
D03*
D43*
X74400Y160000D02*
D03*
X49000Y185400D02*
D03*
X74400D02*
D03*
X49000Y210800D02*
D03*
X74400D02*
D03*
X49000Y236200D02*
D03*
X74400D02*
D03*
X49000Y261600D02*
D03*
X74400D02*
D03*
X49000Y287000D02*
D03*
X74400D02*
D03*
X49000Y312400D02*
D03*
X74400D02*
D03*
X49000Y337800D02*
D03*
X74400D02*
D03*
X49000Y363200D02*
D03*
X74400D02*
D03*
X49000Y388600D02*
D03*
X74400D02*
D03*
D44*
X49000Y160000D02*
D03*
D45*
X278000Y10000D02*
D03*
X17000Y70000D02*
D03*
X38000Y7000D02*
D03*
X14000Y559000D02*
D03*
X15000Y446000D02*
D03*
Y502000D02*
D03*
X116000Y241000D02*
D03*
X144000Y238000D02*
D03*
X103000Y195000D02*
D03*
X100000Y319000D02*
D03*
Y305000D02*
D03*
Y292000D02*
D03*
Y330000D02*
D03*
X72500Y626650D02*
D03*
X85000Y580000D02*
D03*
X111000Y585000D02*
D03*
X75000Y599000D02*
D03*
X38000Y408000D02*
D03*
X14000Y411000D02*
D03*
Y223000D02*
D03*
X161181Y235154D02*
D03*
X201000Y237300D02*
D03*
Y262700D02*
D03*
X92000Y69000D02*
D03*
X16000Y130000D02*
D03*
X112000Y611000D02*
D03*
X119000Y145000D02*
D03*
X72250Y408250D02*
D03*
X80500Y410296D02*
D03*
X137000Y583000D02*
D03*
X88875Y543375D02*
D03*
X104250Y562250D02*
D03*
X140000Y601000D02*
D03*
X15000Y323000D02*
D03*
X167000Y284000D02*
D03*
X161000Y348000D02*
D03*
X186000Y255000D02*
D03*
X147493Y373993D02*
D03*
X239000Y486500D02*
D03*
X232750Y444250D02*
D03*
X170000Y497000D02*
D03*
X206000Y521250D02*
D03*
X246750Y438000D02*
D03*
X196250Y428500D02*
D03*
X235750Y463750D02*
D03*
X183682Y446385D02*
D03*
X216250Y486750D02*
D03*
X199504Y390100D02*
D03*
X185250Y436750D02*
D03*
X233750Y525750D02*
D03*
X250250Y416250D02*
D03*
X93250Y483500D02*
D03*
X226253Y537025D02*
D03*
X61750Y356750D02*
D03*
X152813Y588574D02*
D03*
X15000Y618000D02*
D03*
X156250Y453250D02*
D03*
X182500Y470000D02*
D03*
X293750Y545750D02*
D03*
X172500Y618500D02*
D03*
X230000Y210000D02*
D03*
X94500Y137000D02*
D03*
X173500Y373750D02*
D03*
X261000Y425500D02*
D03*
X293250Y139500D02*
D03*
X261500Y328000D02*
D03*
X220250Y294000D02*
D03*
X199000Y322000D02*
D03*
X242750Y345000D02*
D03*
X203000Y345750D02*
D03*
X104500Y386250D02*
D03*
X144250Y311250D02*
D03*
X143250Y344250D02*
D03*
X100000Y353000D02*
D03*
X145000Y400000D02*
D03*
X146250Y429250D02*
D03*
X101000Y416000D02*
D03*
X86250Y439750D02*
D03*
X90500Y469750D02*
D03*
X293750Y619250D02*
D03*
X238716Y585484D02*
D03*
X156500Y551500D02*
D03*
X170000Y583750D02*
D03*
X263500Y561500D02*
D03*
X252000Y573250D02*
D03*
X177250Y521250D02*
D03*
X219250Y547000D02*
D03*
X136000Y451000D02*
D03*
X120500Y491500D02*
D03*
X275750Y417250D02*
D03*
X127500Y518000D02*
D03*
X135750Y507500D02*
D03*
X128000Y501500D02*
D03*
X119750Y548750D02*
D03*
X103000Y399000D02*
D03*
X279375Y522375D02*
D03*
X209000Y586000D02*
D03*
D46*
X195750Y510500D02*
D03*
X186250Y488500D02*
D03*
X205250D02*
D03*
X214500Y437500D02*
D03*
X205000Y415500D02*
D03*
X224000D02*
D03*
D47*
X153500Y488500D02*
D03*
X135000D02*
D03*
Y465500D02*
D03*
X153500D02*
D03*
M02*
