G04*
G04 #@! TF.GenerationSoftware,Altium Limited,Altium Designer,23.3.1 (30)*
G04*
G04 Layer_Color=32896*
%FSLAX44Y44*%
%MOMM*%
G71*
G04*
G04 #@! TF.SameCoordinates,DF4BE222-8F2C-4444-88BE-FDE14E9DB007*
G04*
G04*
G04 #@! TF.FilePolarity,Positive*
G04*
G01*
G75*
%ADD11C,0.2000*%
%ADD50C,0.5000*%
%ADD51C,0.1524*%
G36*
X137266Y92789D02*
X137406Y92769D01*
X137506Y92729D01*
X137586Y92709D01*
X137626Y92689D01*
X137646Y92669D01*
X137786Y92569D01*
X137885Y92449D01*
X137945Y92309D01*
X138005Y92189D01*
X138025Y92069D01*
X138045Y91969D01*
Y82094D01*
X138025Y81854D01*
X137985Y81655D01*
X137905Y81475D01*
X137845Y81315D01*
X137766Y81175D01*
X137685Y81075D01*
X137646Y81015D01*
X137626Y80995D01*
X137466Y80835D01*
X137326Y80715D01*
X137186Y80595D01*
X137046Y80515D01*
X136946Y80455D01*
X136866Y80415D01*
X136806Y80395D01*
X136786D01*
X136606Y80335D01*
X136426Y80315D01*
X136266D01*
X136126Y80335D01*
X136006Y80355D01*
X135926Y80375D01*
X135866Y80395D01*
X135847D01*
X135726Y80515D01*
X135647Y80635D01*
X135587Y80775D01*
X135547Y80915D01*
X135527Y81035D01*
X135507Y81135D01*
Y84853D01*
X119155Y79276D01*
X118935Y79216D01*
X118735Y79196D01*
X118575D01*
X118435Y79216D01*
X118335Y79256D01*
X118255Y79296D01*
X118216Y79316D01*
X118195Y79336D01*
X118096Y79456D01*
X118016Y79576D01*
X117956Y79716D01*
X117916Y79836D01*
X117896Y79955D01*
X117876Y80055D01*
Y80135D01*
X117896Y80335D01*
X117936Y80535D01*
X117976Y80715D01*
X118055Y80875D01*
X118116Y80995D01*
X118155Y81115D01*
X118195Y81175D01*
X118216Y81195D01*
X118355Y81355D01*
X118515Y81475D01*
X118655Y81595D01*
X118815Y81675D01*
X118955Y81755D01*
X119055Y81795D01*
X119135Y81834D01*
X119155D01*
X135507Y87412D01*
Y91030D01*
X135527Y91270D01*
X135567Y91470D01*
X135647Y91650D01*
X135726Y91829D01*
X135787Y91949D01*
X135866Y92049D01*
X135906Y92109D01*
X135926Y92129D01*
X136086Y92289D01*
X136246Y92429D01*
X136386Y92529D01*
X136506Y92609D01*
X136626Y92669D01*
X136706Y92709D01*
X136766Y92749D01*
X136786D01*
X136966Y92789D01*
X137126Y92809D01*
X137266Y92789D01*
D02*
G37*
G36*
X112962Y84053D02*
X113102Y84033D01*
X113202Y83993D01*
X113302Y83953D01*
X113342Y83933D01*
X113362Y83913D01*
X113482Y83793D01*
X113582Y83673D01*
X113642Y83554D01*
X113702Y83414D01*
X113722Y83314D01*
X113742Y83214D01*
Y83134D01*
X113722Y82934D01*
X113662Y82734D01*
X113602Y82534D01*
X113522Y82374D01*
X113422Y82234D01*
X113362Y82134D01*
X113302Y82054D01*
X113282Y82034D01*
X105846Y74598D01*
X113282Y72219D01*
X113442Y72099D01*
X113542Y71960D01*
X113622Y71820D01*
X113682Y71700D01*
X113722Y71580D01*
X113742Y71480D01*
Y71400D01*
X113722Y71200D01*
X113682Y71000D01*
X113602Y70820D01*
X113542Y70660D01*
X113462Y70520D01*
X113382Y70420D01*
X113342Y70340D01*
X113322Y70320D01*
X113162Y70140D01*
X113022Y70001D01*
X112882Y69901D01*
X112742Y69801D01*
X112622Y69741D01*
X112542Y69701D01*
X112482Y69661D01*
X112462D01*
X112303Y69621D01*
X112142Y69601D01*
X112003D01*
X111883Y69621D01*
X111783Y69641D01*
X111703Y69681D01*
X111663Y69701D01*
X111643D01*
X103567Y72539D01*
X94831Y69561D01*
X94612Y69501D01*
X94432Y69481D01*
X94272D01*
X94132Y69501D01*
X94032Y69541D01*
X93952Y69581D01*
X93912Y69601D01*
X93892Y69621D01*
X93792Y69741D01*
X93712Y69861D01*
X93652Y70001D01*
X93612Y70121D01*
X93592Y70240D01*
X93572Y70340D01*
Y70420D01*
X93592Y70620D01*
X93632Y70820D01*
X93672Y71000D01*
X93752Y71160D01*
X93812Y71280D01*
X93852Y71400D01*
X93892Y71460D01*
X93912Y71480D01*
X94052Y71640D01*
X94192Y71760D01*
X94352Y71880D01*
X94492Y71960D01*
X94632Y72039D01*
X94731Y72080D01*
X94811Y72119D01*
X94831D01*
X103567Y75098D01*
X111643Y83434D01*
X111803Y83594D01*
X111963Y83714D01*
X112103Y83813D01*
X112222Y83893D01*
X112323Y83953D01*
X112402Y83993D01*
X112442Y84013D01*
X112462D01*
X112642Y84053D01*
X112822Y84073D01*
X112962Y84053D01*
D02*
G37*
G36*
X160130Y78356D02*
X160150D01*
X160170D01*
X160370Y78296D01*
X160510Y78236D01*
X160590Y78156D01*
X160610Y78136D01*
X160910Y77777D01*
X161170Y77397D01*
X161389Y77017D01*
X161589Y76677D01*
X161729Y76377D01*
X161789Y76257D01*
X161829Y76137D01*
X161869Y76057D01*
X161889Y75998D01*
X161909Y75957D01*
Y75938D01*
X162049Y75458D01*
X162169Y74998D01*
X162249Y74538D01*
X162289Y74138D01*
X162329Y73779D01*
Y73639D01*
X162349Y73499D01*
Y73259D01*
X162309Y72519D01*
X162229Y71820D01*
X162089Y71180D01*
X162029Y70900D01*
X161949Y70640D01*
X161869Y70380D01*
X161809Y70180D01*
X161729Y69981D01*
X161669Y69821D01*
X161629Y69701D01*
X161589Y69601D01*
X161549Y69541D01*
Y69521D01*
X161409Y69201D01*
X161269Y68901D01*
X161110Y68641D01*
X160970Y68381D01*
X160810Y68141D01*
X160670Y67922D01*
X160530Y67742D01*
X160410Y67562D01*
X160270Y67402D01*
X160170Y67282D01*
X160070Y67162D01*
X159970Y67062D01*
X159910Y67002D01*
X159850Y66942D01*
X159830Y66922D01*
X159810Y66902D01*
X159430Y66602D01*
X159071Y66342D01*
X158711Y66122D01*
X158391Y65943D01*
X158111Y65803D01*
X157911Y65723D01*
X157831Y65683D01*
X157771Y65663D01*
X157731Y65643D01*
X157711D01*
X157392Y65543D01*
X157072Y65483D01*
X156792Y65463D01*
X156532Y65443D01*
X156312D01*
X156152D01*
X156052Y65463D01*
X156012D01*
X155732Y65523D01*
X155492Y65623D01*
X155273Y65723D01*
X155113Y65823D01*
X154973Y65903D01*
X154873Y65983D01*
X154813Y66042D01*
X154793Y66062D01*
X149356Y71560D01*
X149196Y71680D01*
X149036Y71800D01*
X148896Y71880D01*
X148756Y71940D01*
X148656Y71979D01*
X148576Y72000D01*
X148516Y72020D01*
X148496D01*
X148236D01*
X147996D01*
X147776Y71979D01*
X147597Y71960D01*
X147437Y71919D01*
X147317Y71900D01*
X147237Y71860D01*
X147217D01*
X147017Y71780D01*
X146817Y71700D01*
X146757Y71660D01*
X146697Y71640D01*
X146657Y71600D01*
X146637D01*
X146437Y71460D01*
X146277Y71360D01*
X146177Y71280D01*
X146157Y71240D01*
X146137D01*
X145957Y71060D01*
X145797Y70900D01*
X145658Y70720D01*
X145538Y70560D01*
X145458Y70440D01*
X145398Y70340D01*
X145378Y70260D01*
X145358Y70240D01*
X145118Y69621D01*
X144938Y69021D01*
X144798Y68501D01*
X144758Y68241D01*
X144718Y68021D01*
X144678Y67822D01*
X144658Y67642D01*
X144638Y67482D01*
Y67342D01*
X144618Y67242D01*
Y67102D01*
X144638Y66722D01*
X144678Y66382D01*
X144738Y66062D01*
X144798Y65783D01*
X144858Y65543D01*
X144918Y65383D01*
X144958Y65263D01*
X144978Y65243D01*
Y65223D01*
X145118Y64903D01*
X145298Y64603D01*
X145458Y64323D01*
X145638Y64064D01*
X145777Y63844D01*
X145897Y63684D01*
X145997Y63584D01*
X146017Y63544D01*
X146097Y63444D01*
X146137Y63324D01*
X146217Y63124D01*
Y63044D01*
X146237Y62984D01*
Y62924D01*
X146217Y62724D01*
X146177Y62544D01*
X146117Y62364D01*
X146037Y62204D01*
X145957Y62065D01*
X145897Y61965D01*
X145857Y61905D01*
X145837Y61885D01*
X145697Y61725D01*
X145538Y61585D01*
X145378Y61465D01*
X145238Y61385D01*
X145118Y61305D01*
X145018Y61265D01*
X144938Y61225D01*
X144918D01*
X144678Y61165D01*
X144478D01*
X144298Y61205D01*
X144158Y61265D01*
X144038Y61325D01*
X143958Y61405D01*
X143898Y61445D01*
X143878Y61465D01*
X143679Y61705D01*
X143519Y61905D01*
X143379Y62085D01*
X143259Y62245D01*
X143159Y62364D01*
X143099Y62464D01*
X143059Y62524D01*
X143039Y62544D01*
X142939Y62724D01*
X142819Y62924D01*
X142739Y63124D01*
X142659Y63304D01*
X142599Y63484D01*
X142539Y63624D01*
X142519Y63704D01*
X142499Y63744D01*
X142359Y64144D01*
X142259Y64563D01*
X142179Y64983D01*
X142139Y65363D01*
X142099Y65703D01*
Y65843D01*
X142079Y65963D01*
Y66203D01*
X142099Y66562D01*
X142119Y66942D01*
X142159Y67302D01*
X142199Y67622D01*
X142239Y67902D01*
X142279Y68122D01*
X142299Y68201D01*
X142319Y68261D01*
Y68321D01*
X142479Y68801D01*
X142619Y69261D01*
X142759Y69681D01*
X142899Y70040D01*
X143019Y70360D01*
X143059Y70480D01*
X143099Y70580D01*
X143139Y70660D01*
X143159Y70720D01*
X143179Y70760D01*
Y70780D01*
X143419Y71260D01*
X143699Y71680D01*
X143978Y72059D01*
X144258Y72399D01*
X144498Y72659D01*
X144698Y72859D01*
X144778Y72919D01*
X144838Y72979D01*
X144858Y72999D01*
X144878Y73019D01*
X145298Y73339D01*
X145717Y73619D01*
X146117Y73859D01*
X146497Y74039D01*
X146817Y74198D01*
X146937Y74258D01*
X147057Y74298D01*
X147157Y74338D01*
X147217Y74358D01*
X147257Y74378D01*
X147277D01*
X147716Y74518D01*
X148156Y74598D01*
X148556Y74638D01*
X148916D01*
X149216D01*
X149336D01*
X149436Y74618D01*
X149515D01*
X149576Y74598D01*
X149615D01*
X149635D01*
X150055Y74518D01*
X150415Y74398D01*
X150715Y74238D01*
X150975Y74098D01*
X151175Y73959D01*
X151315Y73839D01*
X151414Y73779D01*
X151434Y73739D01*
X156792Y68321D01*
X156932Y68201D01*
X157092Y68122D01*
X157232Y68102D01*
X157392Y68081D01*
X157511D01*
X157611Y68102D01*
X157691Y68122D01*
X157711D01*
X157891Y68201D01*
X158011Y68261D01*
X158091Y68301D01*
X158111Y68321D01*
X158591Y68701D01*
X158871Y69041D01*
X158971Y69181D01*
X159071Y69321D01*
X159131Y69441D01*
X159191Y69521D01*
X159230Y69581D01*
Y69601D01*
X159430Y70140D01*
X159590Y70660D01*
X159690Y71120D01*
X159770Y71540D01*
X159790Y71740D01*
X159810Y71900D01*
X159830Y72039D01*
X159850Y72159D01*
Y72399D01*
X159830Y72799D01*
X159810Y73159D01*
X159750Y73519D01*
X159690Y73839D01*
X159610Y74158D01*
X159510Y74438D01*
X159410Y74698D01*
X159311Y74938D01*
X159211Y75138D01*
X159111Y75338D01*
X159031Y75478D01*
X158931Y75618D01*
X158871Y75718D01*
X158811Y75798D01*
X158791Y75837D01*
X158771Y75858D01*
X158611Y75978D01*
X158511Y76117D01*
X158431Y76237D01*
X158371Y76357D01*
X158331Y76457D01*
X158311Y76537D01*
Y76597D01*
X158331Y76797D01*
X158371Y76977D01*
X158451Y77157D01*
X158531Y77317D01*
X158591Y77437D01*
X158671Y77557D01*
X158711Y77617D01*
X158731Y77637D01*
X158891Y77817D01*
X159051Y77976D01*
X159211Y78096D01*
X159351Y78176D01*
X159470Y78236D01*
X159550Y78296D01*
X159610Y78316D01*
X159630D01*
X159850Y78356D01*
X160010Y78376D01*
X160130Y78356D01*
D02*
G37*
G36*
X185813Y75218D02*
X185933Y75198D01*
X186053Y75158D01*
X186133Y75118D01*
X186173Y75098D01*
X186193Y75078D01*
X186333Y74978D01*
X186433Y74858D01*
X186493Y74738D01*
X186553Y74618D01*
X186573Y74498D01*
X186593Y74418D01*
Y74338D01*
X186573Y74158D01*
X186533Y73959D01*
X186473Y73779D01*
X186393Y73619D01*
X186313Y73479D01*
X186253Y73359D01*
X186213Y73279D01*
X186193Y73259D01*
X178157Y62844D01*
X185353Y65303D01*
X185573Y65363D01*
X185753Y65383D01*
X185913Y65363D01*
X186053Y65343D01*
X186153Y65303D01*
X186233Y65263D01*
X186273Y65243D01*
X186293Y65223D01*
X186393Y65103D01*
X186473Y64983D01*
X186513Y64843D01*
X186553Y64723D01*
X186573Y64603D01*
X186593Y64523D01*
Y64443D01*
X186573Y64263D01*
X186533Y64083D01*
X186473Y63904D01*
X186413Y63744D01*
X186333Y63624D01*
X186273Y63504D01*
X186233Y63444D01*
X186213Y63424D01*
X186073Y63244D01*
X185933Y63104D01*
X185793Y62984D01*
X185653Y62884D01*
X185533Y62824D01*
X185433Y62784D01*
X185373Y62744D01*
X185353D01*
X167702Y56727D01*
X167482Y56667D01*
X167282Y56647D01*
X167122Y56667D01*
X166983Y56687D01*
X166883Y56707D01*
X166803Y56747D01*
X166763Y56767D01*
X166743Y56787D01*
X166643Y56907D01*
X166563Y57027D01*
X166503Y57167D01*
X166463Y57287D01*
X166443Y57407D01*
X166423Y57507D01*
Y57587D01*
X166443Y57787D01*
X166483Y57987D01*
X166523Y58167D01*
X166603Y58327D01*
X166663Y58446D01*
X166703Y58566D01*
X166743Y58626D01*
X166763Y58646D01*
X166903Y58806D01*
X167043Y58926D01*
X167202Y59046D01*
X167342Y59126D01*
X167482Y59206D01*
X167582Y59246D01*
X167662Y59286D01*
X167682D01*
X175019Y61785D01*
X177137Y64463D01*
X167043Y66602D01*
X166843Y66702D01*
X166683Y66822D01*
X166583Y66962D01*
X166503Y67102D01*
X166463Y67222D01*
X166443Y67342D01*
X166423Y67422D01*
Y67442D01*
X166443Y67642D01*
X166483Y67842D01*
X166543Y68021D01*
X166623Y68201D01*
X166683Y68321D01*
X166743Y68441D01*
X166783Y68501D01*
X166803Y68521D01*
X166943Y68701D01*
X167083Y68841D01*
X167222Y68981D01*
X167362Y69061D01*
X167502Y69141D01*
X167602Y69181D01*
X167662Y69221D01*
X167682D01*
X168282Y69261D01*
X178757Y66842D01*
X184434Y74518D01*
X184614Y74698D01*
X184793Y74858D01*
X184933Y74978D01*
X185053Y75058D01*
X185153Y75118D01*
X185233Y75158D01*
X185273Y75178D01*
X185293D01*
X185473Y75218D01*
X185653Y75238D01*
X185813Y75218D01*
D02*
G37*
G36*
X135827Y76397D02*
X135847D01*
X135866D01*
X136066Y76337D01*
X136206Y76277D01*
X136286Y76197D01*
X136306Y76177D01*
X136606Y75818D01*
X136866Y75438D01*
X137086Y75058D01*
X137286Y74718D01*
X137426Y74418D01*
X137486Y74298D01*
X137526Y74178D01*
X137566Y74098D01*
X137586Y74039D01*
X137606Y73998D01*
Y73979D01*
X137746Y73499D01*
X137865Y73039D01*
X137945Y72579D01*
X137985Y72179D01*
X138025Y71820D01*
Y71680D01*
X138045Y71540D01*
Y71300D01*
X138005Y70560D01*
X137925Y69861D01*
X137786Y69221D01*
X137725Y68941D01*
X137646Y68681D01*
X137566Y68421D01*
X137506Y68221D01*
X137426Y68021D01*
X137366Y67862D01*
X137326Y67742D01*
X137286Y67642D01*
X137246Y67582D01*
Y67562D01*
X137106Y67242D01*
X136966Y66942D01*
X136806Y66682D01*
X136666Y66422D01*
X136506Y66182D01*
X136366Y65963D01*
X136226Y65783D01*
X136106Y65603D01*
X135966Y65443D01*
X135866Y65323D01*
X135766Y65203D01*
X135667Y65103D01*
X135607Y65043D01*
X135547Y64983D01*
X135527Y64963D01*
X135507Y64943D01*
X135127Y64643D01*
X134767Y64383D01*
X134407Y64163D01*
X134087Y63984D01*
X133807Y63844D01*
X133608Y63764D01*
X133528Y63724D01*
X133468Y63704D01*
X133428Y63684D01*
X133408D01*
X133088Y63584D01*
X132768Y63524D01*
X132488Y63504D01*
X132228Y63484D01*
X132008D01*
X131848D01*
X131749Y63504D01*
X131709D01*
X131429Y63564D01*
X131189Y63664D01*
X130969Y63764D01*
X130809Y63864D01*
X130669Y63944D01*
X130569Y64024D01*
X130509Y64083D01*
X130489Y64103D01*
X125052Y69601D01*
X124892Y69721D01*
X124732Y69841D01*
X124592Y69921D01*
X124452Y69981D01*
X124352Y70020D01*
X124272Y70040D01*
X124212Y70061D01*
X124192D01*
X123933D01*
X123693D01*
X123473Y70020D01*
X123293Y70001D01*
X123133Y69960D01*
X123013Y69941D01*
X122933Y69901D01*
X122913D01*
X122713Y69821D01*
X122513Y69741D01*
X122453Y69701D01*
X122393Y69681D01*
X122353Y69641D01*
X122333D01*
X122134Y69501D01*
X121973Y69401D01*
X121874Y69321D01*
X121854Y69281D01*
X121834D01*
X121654Y69101D01*
X121494Y68941D01*
X121354Y68761D01*
X121234Y68601D01*
X121154Y68481D01*
X121094Y68381D01*
X121074Y68301D01*
X121054Y68281D01*
X120814Y67662D01*
X120634Y67062D01*
X120494Y66542D01*
X120454Y66282D01*
X120414Y66062D01*
X120374Y65863D01*
X120354Y65683D01*
X120334Y65523D01*
Y65383D01*
X120314Y65283D01*
Y65143D01*
X120334Y64763D01*
X120374Y64423D01*
X120434Y64103D01*
X120494Y63824D01*
X120554Y63584D01*
X120614Y63424D01*
X120654Y63304D01*
X120674Y63284D01*
Y63264D01*
X120814Y62944D01*
X120994Y62644D01*
X121154Y62364D01*
X121334Y62105D01*
X121474Y61885D01*
X121594Y61725D01*
X121694Y61625D01*
X121714Y61585D01*
X121794Y61485D01*
X121834Y61365D01*
X121914Y61165D01*
Y61085D01*
X121934Y61025D01*
Y60965D01*
X121914Y60765D01*
X121874Y60585D01*
X121814Y60405D01*
X121734Y60245D01*
X121654Y60106D01*
X121594Y60006D01*
X121554Y59946D01*
X121534Y59926D01*
X121394Y59766D01*
X121234Y59626D01*
X121074Y59506D01*
X120934Y59426D01*
X120814Y59346D01*
X120714Y59306D01*
X120634Y59266D01*
X120614D01*
X120374Y59206D01*
X120175D01*
X119995Y59246D01*
X119855Y59306D01*
X119735Y59366D01*
X119655Y59446D01*
X119595Y59486D01*
X119575Y59506D01*
X119375Y59746D01*
X119215Y59946D01*
X119075Y60126D01*
X118955Y60286D01*
X118855Y60405D01*
X118795Y60505D01*
X118755Y60565D01*
X118735Y60585D01*
X118635Y60765D01*
X118515Y60965D01*
X118435Y61165D01*
X118355Y61345D01*
X118295Y61525D01*
X118236Y61665D01*
X118216Y61745D01*
X118195Y61785D01*
X118055Y62185D01*
X117956Y62604D01*
X117876Y63024D01*
X117836Y63404D01*
X117796Y63744D01*
Y63884D01*
X117776Y64004D01*
Y64243D01*
X117796Y64603D01*
X117816Y64983D01*
X117856Y65343D01*
X117896Y65663D01*
X117936Y65943D01*
X117976Y66163D01*
X117996Y66242D01*
X118016Y66302D01*
Y66362D01*
X118175Y66842D01*
X118315Y67302D01*
X118455Y67722D01*
X118595Y68081D01*
X118715Y68401D01*
X118755Y68521D01*
X118795Y68621D01*
X118835Y68701D01*
X118855Y68761D01*
X118875Y68801D01*
Y68821D01*
X119115Y69301D01*
X119395Y69721D01*
X119675Y70100D01*
X119955Y70440D01*
X120195Y70700D01*
X120394Y70900D01*
X120474Y70960D01*
X120534Y71020D01*
X120554Y71040D01*
X120574Y71060D01*
X120994Y71380D01*
X121414Y71660D01*
X121814Y71900D01*
X122193Y72080D01*
X122513Y72239D01*
X122633Y72299D01*
X122753Y72339D01*
X122853Y72379D01*
X122913Y72399D01*
X122953Y72419D01*
X122973D01*
X123413Y72559D01*
X123853Y72639D01*
X124252Y72679D01*
X124612D01*
X124912D01*
X125032D01*
X125132Y72659D01*
X125212D01*
X125272Y72639D01*
X125312D01*
X125332D01*
X125752Y72559D01*
X126111Y72439D01*
X126411Y72279D01*
X126671Y72139D01*
X126871Y72000D01*
X127011Y71880D01*
X127111Y71820D01*
X127131Y71780D01*
X132488Y66362D01*
X132628Y66242D01*
X132788Y66163D01*
X132928Y66143D01*
X133088Y66122D01*
X133208D01*
X133308Y66143D01*
X133388Y66163D01*
X133408D01*
X133588Y66242D01*
X133708Y66302D01*
X133787Y66342D01*
X133807Y66362D01*
X134287Y66742D01*
X134567Y67082D01*
X134667Y67222D01*
X134767Y67362D01*
X134827Y67482D01*
X134887Y67562D01*
X134927Y67622D01*
Y67642D01*
X135127Y68181D01*
X135287Y68701D01*
X135387Y69161D01*
X135467Y69581D01*
X135487Y69781D01*
X135507Y69941D01*
X135527Y70080D01*
X135547Y70200D01*
Y70440D01*
X135527Y70840D01*
X135507Y71200D01*
X135447Y71560D01*
X135387Y71880D01*
X135307Y72199D01*
X135207Y72479D01*
X135107Y72739D01*
X135007Y72979D01*
X134907Y73179D01*
X134807Y73379D01*
X134727Y73519D01*
X134627Y73659D01*
X134567Y73759D01*
X134507Y73839D01*
X134487Y73878D01*
X134467Y73899D01*
X134307Y74019D01*
X134207Y74158D01*
X134127Y74278D01*
X134067Y74398D01*
X134027Y74498D01*
X134007Y74578D01*
Y74638D01*
X134027Y74838D01*
X134067Y75018D01*
X134147Y75198D01*
X134227Y75358D01*
X134287Y75478D01*
X134367Y75598D01*
X134407Y75658D01*
X134427Y75678D01*
X134587Y75858D01*
X134747Y76017D01*
X134907Y76137D01*
X135047Y76217D01*
X135167Y76277D01*
X135247Y76337D01*
X135307Y76357D01*
X135327D01*
X135547Y76397D01*
X135707Y76417D01*
X135827Y76397D01*
D02*
G37*
G36*
X87039Y80515D02*
X87259Y80475D01*
X87459Y80435D01*
X87659Y80375D01*
X87819Y80315D01*
X87959Y80275D01*
X88079Y80215D01*
X88179Y80175D01*
X88239Y80135D01*
X88279Y80095D01*
X88299D01*
X88519Y79935D01*
X88699Y79756D01*
X88878Y79556D01*
X89018Y79356D01*
X89138Y79156D01*
X89238Y78936D01*
X89378Y78516D01*
X89478Y78136D01*
X89498Y77976D01*
X89518Y77817D01*
X89538Y77697D01*
Y70680D01*
X89518Y70460D01*
X89478Y70240D01*
X89418Y70040D01*
X89338Y69881D01*
X89138Y69581D01*
X88918Y69361D01*
X88679Y69181D01*
X88479Y69061D01*
X88399Y69021D01*
X88339Y69001D01*
X88299Y68981D01*
X88279D01*
X70648Y62964D01*
X70428Y62904D01*
X70228Y62884D01*
X70048D01*
X69908Y62924D01*
X69788Y62984D01*
X69688Y63044D01*
X69528Y63244D01*
X69428Y63444D01*
X69388Y63624D01*
X69368Y63704D01*
Y70680D01*
X69388Y71000D01*
X69428Y71320D01*
X69488Y71640D01*
X69568Y71940D01*
X69768Y72519D01*
X69868Y72779D01*
X69988Y73039D01*
X70108Y73259D01*
X70208Y73459D01*
X70328Y73639D01*
X70408Y73799D01*
X70488Y73918D01*
X70548Y73998D01*
X70588Y74058D01*
X70608Y74078D01*
X70848Y74378D01*
X71087Y74658D01*
X71347Y74898D01*
X71587Y75138D01*
X71847Y75338D01*
X72087Y75518D01*
X72327Y75678D01*
X72567Y75818D01*
X72767Y75938D01*
X72966Y76037D01*
X73146Y76137D01*
X73286Y76197D01*
X73426Y76257D01*
X73506Y76297D01*
X73566Y76317D01*
X73586D01*
X85340Y80335D01*
X85660Y80435D01*
X85960Y80495D01*
X86260Y80535D01*
X86520D01*
X87039Y80515D01*
D02*
G37*
G36*
X208298Y76237D02*
X208517Y76197D01*
X208717Y76157D01*
X208917Y76097D01*
X209077Y76037D01*
X209217Y75998D01*
X209337Y75938D01*
X209437Y75897D01*
X209497Y75858D01*
X209537Y75818D01*
X209557D01*
X209777Y75658D01*
X209957Y75478D01*
X210137Y75278D01*
X210277Y75078D01*
X210396Y74878D01*
X210496Y74658D01*
X210636Y74238D01*
X210736Y73859D01*
X210756Y73699D01*
X210776Y73539D01*
X210796Y73419D01*
Y69341D01*
X210776Y69001D01*
X210736Y68681D01*
X210676Y68361D01*
X210596Y68061D01*
X210396Y67482D01*
X210296Y67222D01*
X210177Y66962D01*
X210057Y66742D01*
X209957Y66542D01*
X209837Y66362D01*
X209757Y66203D01*
X209677Y66083D01*
X209617Y66003D01*
X209577Y65943D01*
X209557Y65923D01*
X209317Y65623D01*
X209077Y65363D01*
X208837Y65103D01*
X208577Y64883D01*
X208337Y64683D01*
X208078Y64503D01*
X207858Y64343D01*
X207618Y64204D01*
X207418Y64083D01*
X207218Y63984D01*
X207038Y63884D01*
X206898Y63824D01*
X206758Y63764D01*
X206678Y63724D01*
X206618Y63704D01*
X206598D01*
X194844Y59686D01*
X194525Y59586D01*
X194205Y59526D01*
X193905Y59486D01*
X193625Y59466D01*
X193365D01*
X193105Y59486D01*
X192885Y59526D01*
X192686Y59566D01*
X192486Y59626D01*
X192326Y59686D01*
X192186Y59726D01*
X192066Y59786D01*
X191966Y59826D01*
X191906Y59866D01*
X191866Y59906D01*
X191846D01*
X191626Y60066D01*
X191446Y60265D01*
X191286Y60465D01*
X191146Y60665D01*
X191026Y60885D01*
X190926Y61085D01*
X190786Y61505D01*
X190686Y61885D01*
X190667Y62065D01*
X190646Y62204D01*
X190627Y62324D01*
Y66402D01*
X190646Y66722D01*
X190686Y67042D01*
X190746Y67362D01*
X190826Y67662D01*
X191026Y68241D01*
X191126Y68501D01*
X191246Y68761D01*
X191366Y68981D01*
X191466Y69181D01*
X191586Y69361D01*
X191666Y69521D01*
X191746Y69641D01*
X191806Y69721D01*
X191846Y69781D01*
X191866Y69801D01*
X192106Y70100D01*
X192346Y70380D01*
X192605Y70620D01*
X192845Y70860D01*
X193105Y71060D01*
X193345Y71240D01*
X193585Y71400D01*
X193825Y71540D01*
X194025Y71660D01*
X194225Y71760D01*
X194405Y71860D01*
X194545Y71919D01*
X194685Y71979D01*
X194764Y72020D01*
X194824Y72039D01*
X194844D01*
X206598Y76057D01*
X206918Y76157D01*
X207218Y76217D01*
X207518Y76257D01*
X207778D01*
X208298Y76237D01*
D02*
G37*
G36*
X234420Y67282D02*
X234520Y67242D01*
X234600Y67202D01*
X234640Y67182D01*
X234660Y67162D01*
X234780Y67042D01*
X234860Y66922D01*
X234920Y66802D01*
X234960Y66682D01*
X234980Y66562D01*
X235000Y66482D01*
Y66402D01*
X234980Y66222D01*
X234940Y66023D01*
X234880Y65863D01*
X234820Y65703D01*
X234760Y65563D01*
X234700Y65463D01*
X234660Y65383D01*
X234640Y65363D01*
X234480Y65183D01*
X234320Y65043D01*
X234180Y64943D01*
X234040Y64843D01*
X233920Y64783D01*
X233820Y64743D01*
X233761Y64703D01*
X233741D01*
X216110Y58686D01*
X215890Y58626D01*
X215690Y58606D01*
X215530D01*
X215390Y58626D01*
X215290Y58666D01*
X215210Y58706D01*
X215170Y58726D01*
X215150Y58746D01*
X215050Y58866D01*
X214970Y58986D01*
X214910Y59126D01*
X214870Y59246D01*
X214850Y59366D01*
X214830Y59466D01*
Y59546D01*
X214850Y59746D01*
X214890Y59946D01*
X214930Y60126D01*
X215010Y60286D01*
X215070Y60405D01*
X215110Y60525D01*
X215150Y60585D01*
X215170Y60605D01*
X215310Y60765D01*
X215470Y60885D01*
X215610Y61005D01*
X215770Y61085D01*
X215910Y61165D01*
X216010Y61205D01*
X216090Y61245D01*
X216110D01*
X233741Y67262D01*
X233960Y67322D01*
X234140D01*
X234300D01*
X234420Y67282D01*
D02*
G37*
G36*
X135547Y60545D02*
X135766Y60505D01*
X135966Y60465D01*
X136166Y60405D01*
X136326Y60345D01*
X136466Y60306D01*
X136586Y60245D01*
X136686Y60205D01*
X136746Y60166D01*
X136786Y60126D01*
X136806D01*
X137026Y59966D01*
X137206Y59786D01*
X137386Y59586D01*
X137526Y59386D01*
X137646Y59186D01*
X137746Y58966D01*
X137885Y58546D01*
X137985Y58167D01*
X138005Y58007D01*
X138025Y57847D01*
X138045Y57727D01*
Y50710D01*
X138025Y50490D01*
X137985Y50271D01*
X137925Y50071D01*
X137845Y49911D01*
X137646Y49611D01*
X137426Y49391D01*
X137186Y49211D01*
X136986Y49091D01*
X136906Y49051D01*
X136846Y49031D01*
X136806Y49011D01*
X136786D01*
X119155Y42994D01*
X118935Y42934D01*
X118735Y42914D01*
X118575D01*
X118435Y42934D01*
X118335Y42974D01*
X118255Y43014D01*
X118216Y43034D01*
X118195Y43054D01*
X118096Y43174D01*
X118016Y43294D01*
X117956Y43434D01*
X117916Y43554D01*
X117896Y43674D01*
X117876Y43774D01*
Y43854D01*
X117896Y44054D01*
X117936Y44254D01*
X117976Y44434D01*
X118055Y44594D01*
X118116Y44713D01*
X118155Y44833D01*
X118195Y44893D01*
X118216Y44913D01*
X118355Y45073D01*
X118515Y45193D01*
X118655Y45313D01*
X118815Y45393D01*
X118955Y45473D01*
X119055Y45513D01*
X119135Y45553D01*
X119155D01*
X125712Y47792D01*
Y50690D01*
X118455Y52749D01*
X118335Y52809D01*
X118236Y52869D01*
X118076Y52969D01*
X117996Y53049D01*
X117976Y53089D01*
X117916Y53249D01*
X117896Y53409D01*
X117876Y53549D01*
Y53589D01*
X117896Y53789D01*
X117936Y53969D01*
X117976Y54149D01*
X118055Y54309D01*
X118116Y54429D01*
X118155Y54548D01*
X118195Y54608D01*
X118216Y54628D01*
X118375Y54808D01*
X118535Y54968D01*
X118695Y55088D01*
X118835Y55188D01*
X118975Y55268D01*
X119075Y55308D01*
X119135Y55348D01*
X119155D01*
X119595Y55388D01*
X119775D01*
X125712Y53469D01*
Y53369D01*
X125732Y53689D01*
X125772Y54009D01*
X125832Y54328D01*
X125912Y54628D01*
X126111Y55208D01*
X126211Y55468D01*
X126331Y55728D01*
X126451Y55948D01*
X126551Y56148D01*
X126671Y56328D01*
X126751Y56487D01*
X126831Y56607D01*
X126891Y56687D01*
X126931Y56747D01*
X126951Y56767D01*
X127191Y57067D01*
X127431Y57347D01*
X127691Y57587D01*
X127930Y57827D01*
X128190Y58027D01*
X128430Y58207D01*
X128670Y58366D01*
X128910Y58526D01*
X129110Y58646D01*
X129310Y58746D01*
X129490Y58846D01*
X129630Y58906D01*
X129770Y58966D01*
X129850Y59006D01*
X129909Y59026D01*
X129930D01*
X133848Y60365D01*
X134167Y60465D01*
X134467Y60525D01*
X134767Y60565D01*
X135027D01*
X135547Y60545D01*
D02*
G37*
G36*
X111243Y65443D02*
X111463Y65403D01*
X111663Y65363D01*
X111863Y65303D01*
X112023Y65243D01*
X112163Y65203D01*
X112282Y65143D01*
X112382Y65103D01*
X112442Y65063D01*
X112482Y65023D01*
X112502D01*
X112722Y64863D01*
X112902Y64683D01*
X113082Y64483D01*
X113222Y64283D01*
X113342Y64083D01*
X113442Y63864D01*
X113582Y63444D01*
X113682Y63064D01*
X113702Y62904D01*
X113722Y62744D01*
X113742Y62624D01*
Y55608D01*
X113722Y55388D01*
X113682Y55168D01*
X113622Y54968D01*
X113542Y54808D01*
X113342Y54508D01*
X113122Y54289D01*
X112882Y54109D01*
X112682Y53989D01*
X112602Y53949D01*
X112542Y53929D01*
X112502Y53909D01*
X112482D01*
X94851Y47892D01*
X94632Y47832D01*
X94432Y47812D01*
X94252D01*
X94112Y47852D01*
X93992Y47912D01*
X93892Y47972D01*
X93732Y48172D01*
X93632Y48372D01*
X93592Y48552D01*
X93572Y48631D01*
Y55608D01*
X93592Y55928D01*
X93632Y56248D01*
X93692Y56567D01*
X93772Y56867D01*
X93972Y57447D01*
X94072Y57707D01*
X94192Y57967D01*
X94312Y58186D01*
X94412Y58386D01*
X94531Y58566D01*
X94612Y58726D01*
X94691Y58846D01*
X94751Y58926D01*
X94791Y58986D01*
X94811Y59006D01*
X95051Y59306D01*
X95291Y59586D01*
X95551Y59826D01*
X95791Y60066D01*
X96051Y60265D01*
X96291Y60445D01*
X96531Y60605D01*
X96770Y60745D01*
X96970Y60865D01*
X97170Y60965D01*
X97350Y61065D01*
X97490Y61125D01*
X97630Y61185D01*
X97710Y61225D01*
X97770Y61245D01*
X97790D01*
X109544Y65263D01*
X109864Y65363D01*
X110164Y65423D01*
X110463Y65463D01*
X110723D01*
X111243Y65443D01*
D02*
G37*
G36*
X88978Y65643D02*
X89098Y65603D01*
X89178Y65563D01*
X89218Y65543D01*
X89238Y65523D01*
X89338Y65403D01*
X89418Y65283D01*
X89458Y65143D01*
X89498Y65023D01*
X89518Y64923D01*
X89538Y64843D01*
Y64763D01*
X89518Y64583D01*
X89478Y64383D01*
X89418Y64223D01*
X89358Y64064D01*
X89298Y63924D01*
X89238Y63824D01*
X89198Y63744D01*
X89178Y63724D01*
X89018Y63544D01*
X88858Y63404D01*
X88699Y63304D01*
X88559Y63204D01*
X88439Y63144D01*
X88339Y63104D01*
X88279Y63064D01*
X88259D01*
X74846Y58486D01*
X88858Y55828D01*
X89078Y55748D01*
X89258Y55628D01*
X89378Y55468D01*
X89458Y55328D01*
X89498Y55168D01*
X89538Y55048D01*
Y54928D01*
X89518Y54748D01*
X89478Y54568D01*
X89438Y54408D01*
X89378Y54268D01*
X89298Y54149D01*
X89258Y54069D01*
X89218Y54009D01*
X89198Y53989D01*
X89038Y53809D01*
X88878Y53649D01*
X88699Y53529D01*
X88539Y53429D01*
X88399Y53349D01*
X88279Y53289D01*
X88199Y53269D01*
X88179Y53249D01*
X70648Y47272D01*
X70428Y47212D01*
X70228Y47192D01*
X70068D01*
X69928Y47212D01*
X69828Y47252D01*
X69748Y47292D01*
X69708Y47312D01*
X69688Y47332D01*
X69588Y47452D01*
X69508Y47572D01*
X69448Y47712D01*
X69408Y47832D01*
X69388Y47952D01*
X69368Y48052D01*
Y48132D01*
X69388Y48332D01*
X69428Y48531D01*
X69468Y48711D01*
X69548Y48871D01*
X69608Y48991D01*
X69648Y49111D01*
X69688Y49171D01*
X69708Y49191D01*
X69848Y49351D01*
X69988Y49471D01*
X70148Y49591D01*
X70288Y49671D01*
X70428Y49751D01*
X70528Y49791D01*
X70608Y49831D01*
X70628D01*
X84061Y54408D01*
X69968Y57067D01*
X69768Y57147D01*
X69628Y57267D01*
X69508Y57407D01*
X69448Y57567D01*
X69408Y57727D01*
X69388Y57847D01*
X69368Y57927D01*
Y57967D01*
X69388Y58167D01*
X69428Y58347D01*
X69448Y58466D01*
X69468Y58486D01*
Y58506D01*
X69748Y58966D01*
X69908Y59146D01*
X70088Y59286D01*
X70268Y59406D01*
X70408Y59486D01*
X70548Y59566D01*
X70648Y59606D01*
X70728Y59646D01*
X70748D01*
X88279Y65623D01*
X88499Y65683D01*
X88679D01*
X88838D01*
X88978Y65643D01*
D02*
G37*
G36*
X185953Y59426D02*
X186053Y59386D01*
X186133Y59366D01*
X186173Y59346D01*
X186193Y59326D01*
X186333Y59226D01*
X186433Y59106D01*
X186493Y58966D01*
X186553Y58846D01*
X186573Y58726D01*
X186593Y58626D01*
Y53649D01*
X186573Y53309D01*
X186533Y52989D01*
X186473Y52669D01*
X186393Y52369D01*
X186193Y51790D01*
X186093Y51530D01*
X185973Y51270D01*
X185853Y51050D01*
X185753Y50850D01*
X185633Y50670D01*
X185553Y50511D01*
X185473Y50391D01*
X185413Y50311D01*
X185373Y50251D01*
X185353Y50231D01*
X185113Y49931D01*
X184874Y49671D01*
X184634Y49411D01*
X184374Y49191D01*
X184134Y48991D01*
X183874Y48811D01*
X183654Y48651D01*
X183414Y48512D01*
X183214Y48391D01*
X183014Y48292D01*
X182834Y48192D01*
X182695Y48132D01*
X182555Y48072D01*
X182475Y48032D01*
X182415Y48012D01*
X182395D01*
X170641Y43994D01*
X170321Y43894D01*
X170001Y43834D01*
X169701Y43794D01*
X169421Y43774D01*
X169161D01*
X168902Y43794D01*
X168682Y43834D01*
X168482Y43874D01*
X168282Y43934D01*
X168122Y43994D01*
X167982Y44034D01*
X167862Y44094D01*
X167762Y44134D01*
X167702Y44174D01*
X167662Y44214D01*
X167642D01*
X167422Y44374D01*
X167243Y44573D01*
X167083Y44753D01*
X166943Y44973D01*
X166823Y45173D01*
X166723Y45393D01*
X166583Y45813D01*
X166483Y46193D01*
X166463Y46353D01*
X166443Y46493D01*
X166423Y46613D01*
Y51670D01*
X166443Y51910D01*
X166483Y52110D01*
X166563Y52290D01*
X166643Y52470D01*
X166703Y52589D01*
X166783Y52689D01*
X166823Y52749D01*
X166843Y52769D01*
X167003Y52929D01*
X167162Y53069D01*
X167302Y53169D01*
X167422Y53269D01*
X167542Y53329D01*
X167622Y53369D01*
X167682Y53389D01*
X167702D01*
X167882Y53429D01*
X168042Y53449D01*
X168182Y53429D01*
X168322Y53409D01*
X168422Y53369D01*
X168502Y53349D01*
X168542Y53329D01*
X168562Y53309D01*
X168702Y53209D01*
X168802Y53089D01*
X168862Y52969D01*
X168922Y52849D01*
X168942Y52729D01*
X168962Y52629D01*
Y47652D01*
X168982Y47412D01*
X169022Y47232D01*
Y47152D01*
X169042Y47092D01*
X169062Y47052D01*
Y47032D01*
X169181Y46872D01*
X169301Y46732D01*
X169401Y46652D01*
X169441Y46613D01*
X169621Y46533D01*
X169821Y46473D01*
X170021Y46452D01*
X170221Y46473D01*
X170381Y46493D01*
X170521Y46512D01*
X170601Y46553D01*
X170641D01*
X182395Y50570D01*
X182635Y50670D01*
X182834Y50770D01*
X182915Y50830D01*
X182974Y50850D01*
X183014Y50890D01*
X183034D01*
X183154Y50990D01*
X183274Y51090D01*
X183514Y51330D01*
X183614Y51430D01*
X183694Y51510D01*
X183754Y51570D01*
X183774Y51590D01*
X183874Y51790D01*
X183934Y51990D01*
X183994Y52190D01*
X184014Y52369D01*
X184034Y52529D01*
X184054Y52669D01*
Y57687D01*
X184074Y57907D01*
X184114Y58127D01*
X184194Y58306D01*
X184274Y58466D01*
X184334Y58586D01*
X184414Y58686D01*
X184454Y58746D01*
X184474Y58766D01*
X184634Y58926D01*
X184793Y59066D01*
X184933Y59166D01*
X185053Y59266D01*
X185173Y59326D01*
X185253Y59366D01*
X185313Y59386D01*
X185333D01*
X185513Y59426D01*
X185673Y59446D01*
X185813D01*
X185953Y59426D01*
D02*
G37*
G36*
X161809Y63344D02*
X161889Y63304D01*
X161949Y63284D01*
X161969D01*
X162109Y63184D01*
X162209Y63084D01*
X162289Y62964D01*
X162329Y62844D01*
X162369Y62744D01*
X162389Y62664D01*
Y62584D01*
X162349Y62284D01*
X162249Y62005D01*
X162129Y61745D01*
X161969Y61525D01*
X161809Y61345D01*
X161689Y61185D01*
X161589Y61105D01*
X161549Y61065D01*
X153393Y53549D01*
X161609Y51550D01*
X161749Y51490D01*
X161889Y51430D01*
X161989Y51370D01*
X162069Y51310D01*
X162169Y51230D01*
X162209Y51210D01*
Y51190D01*
X162309Y51010D01*
X162369Y50830D01*
X162389Y50750D01*
Y50630D01*
X162369Y50451D01*
X162329Y50271D01*
X162269Y50111D01*
X162209Y49971D01*
X162129Y49851D01*
X162069Y49771D01*
X162029Y49711D01*
X162009Y49691D01*
X161849Y49511D01*
X161689Y49371D01*
X161509Y49251D01*
X161350Y49151D01*
X161189Y49071D01*
X161070Y49011D01*
X160990Y48991D01*
X160970Y48971D01*
X143439Y42994D01*
X143219Y42934D01*
X143039Y42914D01*
X142879D01*
X142739Y42934D01*
X142639Y42974D01*
X142559Y43014D01*
X142519Y43034D01*
X142499Y43054D01*
X142399Y43174D01*
X142319Y43294D01*
X142259Y43434D01*
X142219Y43554D01*
X142199Y43674D01*
X142179Y43774D01*
Y43854D01*
X142199Y44054D01*
X142239Y44254D01*
X142279Y44434D01*
X142359Y44594D01*
X142419Y44713D01*
X142459Y44833D01*
X142499Y44893D01*
X142519Y44913D01*
X142659Y45073D01*
X142819Y45193D01*
X142959Y45313D01*
X143119Y45393D01*
X143259Y45473D01*
X143359Y45513D01*
X143439Y45553D01*
X143459D01*
X157132Y50211D01*
X150435Y51490D01*
X150195Y51590D01*
X150035Y51710D01*
X149915Y51850D01*
X149815Y51990D01*
X149775Y52110D01*
X149755Y52210D01*
X149735Y52290D01*
Y52309D01*
X149755Y52429D01*
X149775Y52569D01*
X149875Y52809D01*
X150015Y53049D01*
X150175Y53269D01*
X150315Y53469D01*
X150455Y53609D01*
X150555Y53709D01*
X150595Y53749D01*
X157132Y59406D01*
X143459Y54748D01*
X143239Y54688D01*
X143039Y54668D01*
X142879Y54688D01*
X142739Y54708D01*
X142639Y54768D01*
X142559Y54808D01*
X142519Y54828D01*
X142499Y54848D01*
X142399Y54968D01*
X142319Y55108D01*
X142259Y55228D01*
X142219Y55348D01*
X142199Y55448D01*
X142179Y55528D01*
Y55608D01*
X142199Y55808D01*
X142239Y56008D01*
X142279Y56168D01*
X142339Y56328D01*
X142399Y56467D01*
X142459Y56567D01*
X142479Y56627D01*
X142499Y56647D01*
X142639Y56807D01*
X142799Y56947D01*
X142959Y57067D01*
X143099Y57147D01*
X143239Y57227D01*
X143339Y57267D01*
X143419Y57307D01*
X143439D01*
X160970Y63284D01*
X161189Y63344D01*
X161369Y63364D01*
X161549D01*
X161689D01*
X161809Y63344D01*
D02*
G37*
G36*
X232501Y60545D02*
X232721Y60505D01*
X232921Y60465D01*
X233121Y60405D01*
X233281Y60345D01*
X233421Y60306D01*
X233541Y60245D01*
X233641Y60205D01*
X233701Y60166D01*
X233741Y60126D01*
X233761D01*
X233980Y59966D01*
X234160Y59786D01*
X234340Y59586D01*
X234480Y59386D01*
X234600Y59186D01*
X234700Y58966D01*
X234840Y58546D01*
X234940Y58167D01*
X234960Y58007D01*
X234980Y57847D01*
X235000Y57727D01*
Y50710D01*
X234980Y50490D01*
X234940Y50271D01*
X234880Y50071D01*
X234800Y49911D01*
X234600Y49611D01*
X234380Y49391D01*
X234140Y49211D01*
X233941Y49091D01*
X233860Y49051D01*
X233801Y49031D01*
X233761Y49011D01*
X233741D01*
X216110Y42994D01*
X215890Y42934D01*
X215690Y42914D01*
X215510D01*
X215370Y42954D01*
X215250Y43014D01*
X215150Y43074D01*
X214990Y43274D01*
X214890Y43474D01*
X214850Y43654D01*
X214830Y43734D01*
Y50710D01*
X214850Y51030D01*
X214890Y51350D01*
X214950Y51670D01*
X215030Y51970D01*
X215230Y52549D01*
X215330Y52809D01*
X215450Y53069D01*
X215570Y53289D01*
X215670Y53489D01*
X215790Y53669D01*
X215870Y53829D01*
X215950Y53949D01*
X216010Y54029D01*
X216050Y54089D01*
X216070Y54109D01*
X216309Y54408D01*
X216549Y54688D01*
X216809Y54928D01*
X217049Y55168D01*
X217309Y55368D01*
X217549Y55548D01*
X217789Y55708D01*
X218029Y55848D01*
X218228Y55968D01*
X218428Y56068D01*
X218608Y56168D01*
X218748Y56227D01*
X218888Y56287D01*
X218968Y56328D01*
X219028Y56347D01*
X219048D01*
X230802Y60365D01*
X231122Y60465D01*
X231422Y60525D01*
X231722Y60565D01*
X231982D01*
X232501Y60545D01*
D02*
G37*
G36*
X208298D02*
X208517Y60505D01*
X208717Y60465D01*
X208917Y60405D01*
X209077Y60345D01*
X209217Y60306D01*
X209337Y60245D01*
X209437Y60205D01*
X209497Y60166D01*
X209537Y60126D01*
X209557D01*
X209777Y59966D01*
X209957Y59786D01*
X210137Y59586D01*
X210277Y59386D01*
X210396Y59186D01*
X210496Y58966D01*
X210636Y58546D01*
X210736Y58167D01*
X210756Y58007D01*
X210776Y57847D01*
X210796Y57727D01*
Y50710D01*
X210776Y50490D01*
X210736Y50271D01*
X210676Y50071D01*
X210596Y49911D01*
X210396Y49611D01*
X210177Y49391D01*
X209937Y49211D01*
X209737Y49091D01*
X209657Y49051D01*
X209597Y49031D01*
X209557Y49011D01*
X209537D01*
X191906Y42994D01*
X191686Y42934D01*
X191486Y42914D01*
X191306D01*
X191166Y42954D01*
X191046Y43014D01*
X190946Y43074D01*
X190786Y43274D01*
X190686Y43474D01*
X190646Y43654D01*
X190627Y43734D01*
Y50710D01*
X190646Y51030D01*
X190686Y51350D01*
X190746Y51670D01*
X190826Y51970D01*
X191026Y52549D01*
X191126Y52809D01*
X191246Y53069D01*
X191366Y53289D01*
X191466Y53489D01*
X191586Y53669D01*
X191666Y53829D01*
X191746Y53949D01*
X191806Y54029D01*
X191846Y54089D01*
X191866Y54109D01*
X192106Y54408D01*
X192346Y54688D01*
X192605Y54928D01*
X192845Y55168D01*
X193105Y55368D01*
X193345Y55548D01*
X193585Y55708D01*
X193825Y55848D01*
X194025Y55968D01*
X194225Y56068D01*
X194405Y56168D01*
X194545Y56227D01*
X194685Y56287D01*
X194764Y56328D01*
X194824Y56347D01*
X194844D01*
X206598Y60365D01*
X206918Y60465D01*
X207218Y60525D01*
X207518Y60565D01*
X207778D01*
X208298Y60545D01*
D02*
G37*
G36*
X88758Y49991D02*
X88898Y49971D01*
X88998Y49931D01*
X89078Y49911D01*
X89118Y49891D01*
X89138Y49871D01*
X89278Y49771D01*
X89378Y49651D01*
X89438Y49511D01*
X89498Y49391D01*
X89518Y49271D01*
X89538Y49171D01*
Y42235D01*
X89518Y41895D01*
X89478Y41575D01*
X89418Y41255D01*
X89338Y40955D01*
X89138Y40376D01*
X89038Y40116D01*
X88918Y39856D01*
X88799Y39636D01*
X88699Y39436D01*
X88579Y39256D01*
X88499Y39096D01*
X88419Y38976D01*
X88359Y38896D01*
X88319Y38836D01*
X88299Y38816D01*
X88059Y38517D01*
X87819Y38257D01*
X87579Y37997D01*
X87319Y37777D01*
X87079Y37577D01*
X86819Y37397D01*
X86600Y37237D01*
X86360Y37097D01*
X86160Y36977D01*
X85960Y36877D01*
X85780Y36778D01*
X85640Y36718D01*
X85500Y36658D01*
X85420Y36618D01*
X85360Y36598D01*
X85340D01*
X73586Y32580D01*
X73266Y32480D01*
X72947Y32420D01*
X72647Y32380D01*
X72367Y32360D01*
X72107D01*
X71847Y32380D01*
X71627Y32420D01*
X71427Y32460D01*
X71227Y32520D01*
X71068Y32580D01*
X70928Y32620D01*
X70808Y32680D01*
X70708Y32720D01*
X70648Y32759D01*
X70608Y32799D01*
X70588D01*
X70368Y32959D01*
X70188Y33159D01*
X70028Y33359D01*
X69888Y33559D01*
X69768Y33779D01*
X69668Y33979D01*
X69528Y34399D01*
X69428Y34778D01*
X69408Y34958D01*
X69388Y35098D01*
X69368Y35218D01*
Y42235D01*
X69388Y42475D01*
X69428Y42674D01*
X69488Y42874D01*
X69568Y43034D01*
X69768Y43334D01*
X70008Y43574D01*
X70248Y43734D01*
X70448Y43854D01*
X70528Y43894D01*
X70588Y43914D01*
X70628Y43934D01*
X70648D01*
X80443Y47272D01*
X80663Y47332D01*
X80863Y47372D01*
X81022Y47352D01*
X81162Y47332D01*
X81302Y47272D01*
X81402Y47192D01*
X81542Y47012D01*
X81642Y46812D01*
X81682Y46632D01*
X81702Y46553D01*
Y44474D01*
X81682Y44254D01*
X81642Y44034D01*
X81562Y43854D01*
X81502Y43694D01*
X81422Y43554D01*
X81342Y43454D01*
X81302Y43394D01*
X81282Y43374D01*
X81122Y43214D01*
X80982Y43074D01*
X80843Y42974D01*
X80723Y42894D01*
X80603Y42834D01*
X80523Y42794D01*
X80463Y42754D01*
X80443D01*
X80243Y42714D01*
X80063Y42695D01*
X79903D01*
X79763Y42714D01*
X79663Y42734D01*
X79583Y42754D01*
X79523Y42794D01*
X79503D01*
X79383Y42894D01*
X79303Y43014D01*
X79243Y43154D01*
X79203Y43274D01*
X79183Y43394D01*
X79163Y43494D01*
Y44274D01*
X71907Y41815D01*
Y36238D01*
X71927Y36018D01*
X71967Y35818D01*
Y35738D01*
X71987Y35678D01*
X72007Y35658D01*
Y35638D01*
X72127Y35458D01*
X72247Y35318D01*
X72347Y35238D01*
X72387Y35198D01*
X72567Y35118D01*
X72767Y35058D01*
X72966Y35038D01*
X73166Y35058D01*
X73326Y35078D01*
X73466Y35098D01*
X73546Y35138D01*
X73586D01*
X85340Y39156D01*
X85580Y39256D01*
X85780Y39356D01*
X85860Y39416D01*
X85920Y39436D01*
X85960Y39476D01*
X85980D01*
X86100Y39576D01*
X86220Y39676D01*
X86460Y39916D01*
X86560Y40016D01*
X86640Y40096D01*
X86679Y40156D01*
X86699Y40176D01*
X86799Y40376D01*
X86879Y40575D01*
X86919Y40775D01*
X86959Y40955D01*
X86979Y41115D01*
X86999Y41255D01*
Y48232D01*
X87019Y48471D01*
X87059Y48671D01*
X87139Y48851D01*
X87219Y49031D01*
X87279Y49151D01*
X87359Y49251D01*
X87399Y49311D01*
X87419Y49331D01*
X87579Y49491D01*
X87739Y49631D01*
X87879Y49731D01*
X87999Y49811D01*
X88119Y49871D01*
X88199Y49911D01*
X88259Y49951D01*
X88279D01*
X88459Y49991D01*
X88618Y50011D01*
X88758Y49991D01*
D02*
G37*
G36*
X111243Y49751D02*
X111463Y49711D01*
X111663Y49671D01*
X111863Y49611D01*
X112023Y49551D01*
X112163Y49511D01*
X112282Y49451D01*
X112382Y49411D01*
X112442Y49371D01*
X112482Y49331D01*
X112502D01*
X112722Y49171D01*
X112902Y48991D01*
X113082Y48791D01*
X113222Y48591D01*
X113342Y48391D01*
X113442Y48172D01*
X113582Y47752D01*
X113682Y47372D01*
X113702Y47212D01*
X113722Y47052D01*
X113742Y46932D01*
Y39916D01*
X113722Y39696D01*
X113682Y39476D01*
X113622Y39276D01*
X113542Y39116D01*
X113342Y38816D01*
X113122Y38596D01*
X112882Y38417D01*
X112682Y38297D01*
X112602Y38257D01*
X112542Y38237D01*
X112502Y38217D01*
X112482D01*
X94851Y32200D01*
X94632Y32140D01*
X94432Y32120D01*
X94272D01*
X94132Y32140D01*
X94032Y32180D01*
X93952Y32220D01*
X93912Y32240D01*
X93892Y32260D01*
X93792Y32380D01*
X93712Y32500D01*
X93652Y32640D01*
X93612Y32759D01*
X93592Y32880D01*
X93572Y32979D01*
Y33059D01*
X93592Y33259D01*
X93632Y33459D01*
X93672Y33639D01*
X93752Y33799D01*
X93812Y33919D01*
X93852Y34039D01*
X93892Y34099D01*
X93912Y34119D01*
X94052Y34279D01*
X94212Y34399D01*
X94352Y34519D01*
X94511Y34599D01*
X94651Y34678D01*
X94751Y34718D01*
X94831Y34759D01*
X94851D01*
X101408Y36997D01*
Y39896D01*
X94152Y41955D01*
X94032Y42015D01*
X93932Y42075D01*
X93772Y42175D01*
X93692Y42255D01*
X93672Y42295D01*
X93612Y42455D01*
X93592Y42614D01*
X93572Y42754D01*
Y42794D01*
X93592Y42994D01*
X93632Y43174D01*
X93672Y43354D01*
X93752Y43514D01*
X93812Y43634D01*
X93852Y43754D01*
X93892Y43814D01*
X93912Y43834D01*
X94072Y44014D01*
X94232Y44174D01*
X94392Y44294D01*
X94531Y44394D01*
X94671Y44474D01*
X94771Y44514D01*
X94831Y44553D01*
X94851D01*
X95291Y44594D01*
X95471D01*
X101408Y42674D01*
Y42575D01*
X101428Y42894D01*
X101468Y43214D01*
X101528Y43534D01*
X101608Y43834D01*
X101808Y44414D01*
X101908Y44673D01*
X102028Y44933D01*
X102148Y45153D01*
X102248Y45353D01*
X102367Y45533D01*
X102448Y45693D01*
X102528Y45813D01*
X102587Y45893D01*
X102627Y45953D01*
X102647Y45973D01*
X102887Y46273D01*
X103127Y46553D01*
X103387Y46792D01*
X103627Y47032D01*
X103887Y47232D01*
X104127Y47412D01*
X104367Y47572D01*
X104606Y47732D01*
X104806Y47852D01*
X105006Y47952D01*
X105186Y48052D01*
X105326Y48112D01*
X105466Y48172D01*
X105546Y48212D01*
X105606Y48232D01*
X105626D01*
X109544Y49571D01*
X109864Y49671D01*
X110164Y49731D01*
X110463Y49771D01*
X110723D01*
X111243Y49751D01*
D02*
G37*
G36*
X185813Y45713D02*
X185953Y45693D01*
X186053Y45653D01*
X186133Y45633D01*
X186173Y45613D01*
X186193Y45593D01*
X186333Y45493D01*
X186433Y45373D01*
X186493Y45233D01*
X186553Y45113D01*
X186573Y44993D01*
X186593Y44893D01*
Y35018D01*
X186573Y34778D01*
X186533Y34579D01*
X186453Y34399D01*
X186393Y34239D01*
X186313Y34099D01*
X186233Y33999D01*
X186193Y33939D01*
X186173Y33919D01*
X186013Y33759D01*
X185873Y33639D01*
X185733Y33519D01*
X185593Y33439D01*
X185493Y33379D01*
X185413Y33339D01*
X185353Y33319D01*
X185333D01*
X185153Y33259D01*
X184973Y33239D01*
X184813D01*
X184674Y33259D01*
X184554Y33279D01*
X184474Y33299D01*
X184414Y33319D01*
X184394D01*
X184274Y33439D01*
X184194Y33559D01*
X184134Y33699D01*
X184094Y33839D01*
X184074Y33959D01*
X184054Y34059D01*
Y37777D01*
X167702Y32200D01*
X167482Y32140D01*
X167282Y32120D01*
X167122D01*
X166983Y32140D01*
X166883Y32180D01*
X166803Y32220D01*
X166763Y32240D01*
X166743Y32260D01*
X166643Y32380D01*
X166563Y32500D01*
X166503Y32640D01*
X166463Y32759D01*
X166443Y32880D01*
X166423Y32979D01*
Y33059D01*
X166443Y33259D01*
X166483Y33459D01*
X166523Y33639D01*
X166603Y33799D01*
X166663Y33919D01*
X166703Y34039D01*
X166743Y34099D01*
X166763Y34119D01*
X166903Y34279D01*
X167063Y34399D01*
X167202Y34519D01*
X167362Y34599D01*
X167502Y34678D01*
X167602Y34718D01*
X167682Y34759D01*
X167702D01*
X184054Y40336D01*
Y43954D01*
X184074Y44194D01*
X184114Y44394D01*
X184194Y44573D01*
X184274Y44753D01*
X184334Y44873D01*
X184414Y44973D01*
X184454Y45033D01*
X184474Y45053D01*
X184634Y45213D01*
X184793Y45353D01*
X184933Y45453D01*
X185053Y45533D01*
X185173Y45593D01*
X185253Y45633D01*
X185313Y45673D01*
X185333D01*
X185513Y45713D01*
X185673Y45733D01*
X185813Y45713D01*
D02*
G37*
G36*
X234220D02*
X234360Y45693D01*
X234460Y45653D01*
X234540Y45633D01*
X234580Y45613D01*
X234600Y45593D01*
X234740Y45493D01*
X234840Y45373D01*
X234900Y45233D01*
X234960Y45113D01*
X234980Y44993D01*
X235000Y44893D01*
Y35018D01*
X234980Y34778D01*
X234940Y34579D01*
X234860Y34399D01*
X234800Y34239D01*
X234720Y34099D01*
X234640Y33999D01*
X234600Y33939D01*
X234580Y33919D01*
X234420Y33759D01*
X234280Y33639D01*
X234140Y33519D01*
X234000Y33439D01*
X233901Y33379D01*
X233820Y33339D01*
X233761Y33319D01*
X233741D01*
X233561Y33259D01*
X233381Y33239D01*
X233221D01*
X233081Y33259D01*
X232961Y33279D01*
X232881Y33299D01*
X232821Y33319D01*
X232801D01*
X232681Y33439D01*
X232601Y33559D01*
X232541Y33699D01*
X232501Y33839D01*
X232481Y33959D01*
X232461Y34059D01*
Y37777D01*
X216110Y32200D01*
X215890Y32140D01*
X215690Y32120D01*
X215530D01*
X215390Y32140D01*
X215290Y32180D01*
X215210Y32220D01*
X215170Y32240D01*
X215150Y32260D01*
X215050Y32380D01*
X214970Y32500D01*
X214910Y32640D01*
X214870Y32759D01*
X214850Y32880D01*
X214830Y32979D01*
Y33059D01*
X214850Y33259D01*
X214890Y33459D01*
X214930Y33639D01*
X215010Y33799D01*
X215070Y33919D01*
X215110Y34039D01*
X215150Y34099D01*
X215170Y34119D01*
X215310Y34279D01*
X215470Y34399D01*
X215610Y34519D01*
X215770Y34599D01*
X215910Y34678D01*
X216010Y34718D01*
X216090Y34759D01*
X216110D01*
X232461Y40336D01*
Y43954D01*
X232481Y44194D01*
X232521Y44394D01*
X232601Y44573D01*
X232681Y44753D01*
X232741Y44873D01*
X232821Y44973D01*
X232861Y45033D01*
X232881Y45053D01*
X233041Y45213D01*
X233201Y45353D01*
X233341Y45453D01*
X233461Y45533D01*
X233581Y45593D01*
X233661Y45633D01*
X233721Y45673D01*
X233741D01*
X233920Y45713D01*
X234080Y45733D01*
X234220Y45713D01*
D02*
G37*
G36*
X210017D02*
X210157Y45693D01*
X210257Y45653D01*
X210336Y45633D01*
X210376Y45613D01*
X210396Y45593D01*
X210536Y45493D01*
X210636Y45373D01*
X210696Y45233D01*
X210756Y45113D01*
X210776Y44993D01*
X210796Y44893D01*
Y35018D01*
X210776Y34778D01*
X210736Y34579D01*
X210656Y34399D01*
X210596Y34239D01*
X210516Y34099D01*
X210436Y33999D01*
X210396Y33939D01*
X210376Y33919D01*
X210217Y33759D01*
X210077Y33639D01*
X209937Y33519D01*
X209797Y33439D01*
X209697Y33379D01*
X209617Y33339D01*
X209557Y33319D01*
X209537D01*
X209357Y33259D01*
X209177Y33239D01*
X209017D01*
X208877Y33259D01*
X208757Y33279D01*
X208677Y33299D01*
X208617Y33319D01*
X208597D01*
X208477Y33439D01*
X208398Y33559D01*
X208337Y33699D01*
X208298Y33839D01*
X208277Y33959D01*
X208258Y34059D01*
Y37777D01*
X191906Y32200D01*
X191686Y32140D01*
X191486Y32120D01*
X191326D01*
X191186Y32140D01*
X191086Y32180D01*
X191006Y32220D01*
X190966Y32240D01*
X190946Y32260D01*
X190846Y32380D01*
X190767Y32500D01*
X190707Y32640D01*
X190667Y32759D01*
X190646Y32880D01*
X190627Y32979D01*
Y33059D01*
X190646Y33259D01*
X190686Y33459D01*
X190727Y33639D01*
X190807Y33799D01*
X190866Y33919D01*
X190906Y34039D01*
X190946Y34099D01*
X190966Y34119D01*
X191106Y34279D01*
X191266Y34399D01*
X191406Y34519D01*
X191566Y34599D01*
X191706Y34678D01*
X191806Y34718D01*
X191886Y34759D01*
X191906D01*
X208258Y40336D01*
Y43954D01*
X208277Y44194D01*
X208318Y44394D01*
X208398Y44573D01*
X208477Y44753D01*
X208537Y44873D01*
X208617Y44973D01*
X208657Y45033D01*
X208677Y45053D01*
X208837Y45213D01*
X208997Y45353D01*
X209137Y45453D01*
X209257Y45533D01*
X209377Y45593D01*
X209457Y45633D01*
X209517Y45673D01*
X209537D01*
X209717Y45713D01*
X209877Y45733D01*
X210017Y45713D01*
D02*
G37*
G36*
X161569D02*
X161709Y45693D01*
X161809Y45653D01*
X161889Y45633D01*
X161929Y45613D01*
X161949Y45593D01*
X162089Y45493D01*
X162189Y45373D01*
X162249Y45233D01*
X162309Y45113D01*
X162329Y44993D01*
X162349Y44893D01*
Y35018D01*
X162329Y34778D01*
X162289Y34579D01*
X162209Y34399D01*
X162149Y34239D01*
X162069Y34099D01*
X161989Y33999D01*
X161949Y33939D01*
X161929Y33919D01*
X161769Y33759D01*
X161629Y33639D01*
X161489Y33519D01*
X161350Y33439D01*
X161250Y33379D01*
X161170Y33339D01*
X161110Y33319D01*
X161090D01*
X160910Y33259D01*
X160730Y33239D01*
X160570D01*
X160430Y33259D01*
X160310Y33279D01*
X160230Y33299D01*
X160170Y33319D01*
X160150D01*
X160030Y33439D01*
X159950Y33559D01*
X159890Y33699D01*
X159850Y33839D01*
X159830Y33959D01*
X159810Y34059D01*
Y37777D01*
X143459Y32200D01*
X143239Y32140D01*
X143039Y32120D01*
X142879D01*
X142739Y32140D01*
X142639Y32180D01*
X142559Y32220D01*
X142519Y32240D01*
X142499Y32260D01*
X142399Y32380D01*
X142319Y32500D01*
X142259Y32640D01*
X142219Y32759D01*
X142199Y32880D01*
X142179Y32979D01*
Y33059D01*
X142199Y33259D01*
X142239Y33459D01*
X142279Y33639D01*
X142359Y33799D01*
X142419Y33919D01*
X142459Y34039D01*
X142499Y34099D01*
X142519Y34119D01*
X142659Y34279D01*
X142819Y34399D01*
X142959Y34519D01*
X143119Y34599D01*
X143259Y34678D01*
X143359Y34718D01*
X143439Y34759D01*
X143459D01*
X159810Y40336D01*
Y43954D01*
X159830Y44194D01*
X159870Y44394D01*
X159950Y44573D01*
X160030Y44753D01*
X160090Y44873D01*
X160170Y44973D01*
X160210Y45033D01*
X160230Y45053D01*
X160390Y45213D01*
X160550Y45353D01*
X160690Y45453D01*
X160810Y45533D01*
X160930Y45593D01*
X161010Y45633D01*
X161070Y45673D01*
X161090D01*
X161269Y45713D01*
X161429Y45733D01*
X161569Y45713D01*
D02*
G37*
G36*
X137266D02*
X137406Y45693D01*
X137506Y45653D01*
X137586Y45633D01*
X137626Y45613D01*
X137646Y45593D01*
X137786Y45493D01*
X137885Y45373D01*
X137945Y45233D01*
X138005Y45113D01*
X138025Y44993D01*
X138045Y44893D01*
Y35018D01*
X138025Y34778D01*
X137985Y34579D01*
X137905Y34399D01*
X137845Y34239D01*
X137766Y34099D01*
X137685Y33999D01*
X137646Y33939D01*
X137626Y33919D01*
X137466Y33759D01*
X137326Y33639D01*
X137186Y33519D01*
X137046Y33439D01*
X136946Y33379D01*
X136866Y33339D01*
X136806Y33319D01*
X136786D01*
X136606Y33259D01*
X136426Y33239D01*
X136266D01*
X136126Y33259D01*
X136006Y33279D01*
X135926Y33299D01*
X135866Y33319D01*
X135847D01*
X135726Y33439D01*
X135647Y33559D01*
X135587Y33699D01*
X135547Y33839D01*
X135527Y33959D01*
X135507Y34059D01*
Y37777D01*
X119155Y32200D01*
X118935Y32140D01*
X118735Y32120D01*
X118575D01*
X118435Y32140D01*
X118335Y32180D01*
X118255Y32220D01*
X118216Y32240D01*
X118195Y32260D01*
X118096Y32380D01*
X118016Y32500D01*
X117956Y32640D01*
X117916Y32759D01*
X117896Y32880D01*
X117876Y32979D01*
Y33059D01*
X117896Y33259D01*
X117936Y33459D01*
X117976Y33639D01*
X118055Y33799D01*
X118116Y33919D01*
X118155Y34039D01*
X118195Y34099D01*
X118216Y34119D01*
X118355Y34279D01*
X118515Y34399D01*
X118655Y34519D01*
X118815Y34599D01*
X118955Y34678D01*
X119055Y34718D01*
X119135Y34759D01*
X119155D01*
X135507Y40336D01*
Y43954D01*
X135527Y44194D01*
X135567Y44394D01*
X135647Y44573D01*
X135726Y44753D01*
X135787Y44873D01*
X135866Y44973D01*
X135906Y45033D01*
X135926Y45053D01*
X136086Y45213D01*
X136246Y45353D01*
X136386Y45453D01*
X136506Y45533D01*
X136626Y45593D01*
X136706Y45633D01*
X136766Y45673D01*
X136786D01*
X136966Y45713D01*
X137126Y45733D01*
X137266Y45713D01*
D02*
G37*
G36*
X217309Y511276D02*
X217467Y511233D01*
X217524Y511219D01*
X217568Y511190D01*
X217596Y511175D01*
X217610D01*
X217768Y511089D01*
X217912Y511003D01*
X217969Y510975D01*
X218012Y510946D01*
X218027Y510917D01*
X218041D01*
X221844Y508090D01*
X221973Y507975D01*
X222074Y507860D01*
X222145Y507760D01*
X222203Y507674D01*
X222246Y507588D01*
X222275Y507530D01*
X222303Y507487D01*
Y507473D01*
X222332Y507344D01*
X222346Y507215D01*
Y507100D01*
X222318Y506999D01*
X222303Y506913D01*
X222275Y506856D01*
X222260Y506813D01*
X222246Y506799D01*
X222160Y506712D01*
X222074Y506655D01*
X221973Y506598D01*
X221887Y506569D01*
X221801Y506554D01*
X221744Y506540D01*
X221686D01*
X221557Y506554D01*
X221428Y506583D01*
X221299Y506626D01*
X221198Y506684D01*
X221098Y506727D01*
X221026Y506770D01*
X220983Y506799D01*
X220969Y506813D01*
X219189Y508377D01*
X222849Y497614D01*
X222892Y497456D01*
X222906Y497327D01*
Y497212D01*
X222892Y497112D01*
X222863Y497040D01*
X222834Y496982D01*
X222820Y496954D01*
X222806Y496939D01*
X222719Y496868D01*
X222633Y496810D01*
X222533Y496767D01*
X222447Y496738D01*
X222361Y496724D01*
X222289Y496710D01*
X222232D01*
X222088Y496724D01*
X221945Y496753D01*
X221815Y496782D01*
X221700Y496839D01*
X221614Y496882D01*
X221528Y496911D01*
X221485Y496939D01*
X221471Y496954D01*
X221356Y497054D01*
X221270Y497169D01*
X221184Y497269D01*
X221126Y497384D01*
X221069Y497485D01*
X221040Y497556D01*
X221012Y497614D01*
Y497628D01*
X216692Y510286D01*
X216649Y510444D01*
X216635Y510587D01*
X216620Y510702D01*
X216635Y510802D01*
X216649Y510888D01*
X216663Y510946D01*
X216678Y510989D01*
Y511003D01*
X216764Y511104D01*
X216836Y511175D01*
X216922Y511219D01*
X216993Y511262D01*
X217051Y511276D01*
X217094Y511290D01*
X217137D01*
X217309Y511276D01*
D02*
G37*
G36*
X244189Y511175D02*
X244332Y511147D01*
X244461Y511104D01*
X244576Y511046D01*
X244662Y510989D01*
X244734Y510946D01*
X244791Y510917D01*
X244806Y510903D01*
X244935Y510788D01*
X245035Y510688D01*
X245121Y510573D01*
X245179Y510487D01*
X245236Y510401D01*
X245265Y510329D01*
X245294Y510286D01*
Y510271D01*
X245337Y509999D01*
X245380Y497442D01*
X245365Y497312D01*
X245337Y497198D01*
X245308Y497097D01*
X245265Y497025D01*
X245150Y496882D01*
X245035Y496796D01*
X244921Y496753D01*
X244834Y496724D01*
X244763Y496710D01*
X244734D01*
X244605Y496738D01*
X244490Y496782D01*
X244389Y496810D01*
X244303Y496853D01*
X244232Y496882D01*
X244189Y496911D01*
X244160Y496925D01*
X244146D01*
X243945Y497112D01*
X243787Y497284D01*
X243729Y497355D01*
X243686Y497413D01*
X243658Y497442D01*
X243643Y497456D01*
X235162Y509999D01*
X235004Y510300D01*
X234975Y510429D01*
X234961Y510558D01*
Y510673D01*
X234990Y510759D01*
X235004Y510845D01*
X235033Y510903D01*
X235047Y510932D01*
X235061Y510946D01*
X235162Y511032D01*
X235262Y511089D01*
X235348Y511133D01*
X235449Y511161D01*
X235521Y511175D01*
X235592Y511190D01*
X235650D01*
X235750Y511175D01*
X235851Y511161D01*
X236023Y511104D01*
X236095Y511061D01*
X236152Y511032D01*
X236195Y511018D01*
X236209Y511003D01*
X236410Y510860D01*
X236554Y510716D01*
X236611Y510659D01*
X236654Y510602D01*
X236683Y510573D01*
X236697Y510558D01*
X243586Y500183D01*
X243399Y510602D01*
X243414Y510731D01*
X243442Y510831D01*
X243485Y510917D01*
X243528Y510989D01*
X243557Y511046D01*
X243600Y511075D01*
X243615Y511104D01*
X243629D01*
X243830Y511190D01*
X244045D01*
X244189Y511175D01*
D02*
G37*
G36*
X231560D02*
X231703Y511147D01*
X231832Y511089D01*
X231947Y511046D01*
X232048Y510989D01*
X232119Y510932D01*
X232162Y510903D01*
X232177Y510888D01*
X232292Y510774D01*
X232378Y510673D01*
X232464Y510573D01*
X232521Y510472D01*
X232564Y510401D01*
X232593Y510343D01*
X232607Y510300D01*
Y510286D01*
X232650Y510157D01*
X232665Y510027D01*
Y509913D01*
X232650Y509812D01*
X232636Y509726D01*
X232622Y509669D01*
X232607Y509626D01*
Y509611D01*
X232521Y509525D01*
X232435Y509468D01*
X232335Y509425D01*
X232234Y509396D01*
X232148Y509382D01*
X232076Y509367D01*
X229407D01*
X233411Y497628D01*
X233454Y497470D01*
X233468Y497327D01*
Y497212D01*
X233454Y497112D01*
X233425Y497040D01*
X233397Y496982D01*
X233382Y496954D01*
X233368Y496939D01*
X233282Y496868D01*
X233196Y496810D01*
X233095Y496767D01*
X233009Y496738D01*
X232923Y496724D01*
X232851Y496710D01*
X232794D01*
X232650Y496724D01*
X232507Y496753D01*
X232378Y496782D01*
X232263Y496839D01*
X232177Y496882D01*
X232091Y496911D01*
X232048Y496939D01*
X232033Y496954D01*
X231919Y497054D01*
X231832Y497169D01*
X231746Y497269D01*
X231689Y497384D01*
X231631Y497485D01*
X231603Y497556D01*
X231574Y497614D01*
Y497628D01*
X227570Y509367D01*
X224973D01*
X224800Y509382D01*
X224657Y509410D01*
X224528Y509468D01*
X224398Y509525D01*
X224312Y509568D01*
X224241Y509626D01*
X224198Y509654D01*
X224183Y509669D01*
X224069Y509784D01*
X223968Y509898D01*
X223896Y509999D01*
X223839Y510085D01*
X223796Y510171D01*
X223767Y510228D01*
X223738Y510271D01*
Y510286D01*
X223710Y510415D01*
X223695Y510530D01*
X223710Y510630D01*
X223724Y510731D01*
X223753Y510802D01*
X223767Y510860D01*
X223781Y510888D01*
X223796Y510903D01*
X223867Y511003D01*
X223954Y511075D01*
X224054Y511118D01*
X224140Y511161D01*
X224226Y511175D01*
X224298Y511190D01*
X231388D01*
X231560Y511175D01*
D02*
G37*
G36*
X225891Y475226D02*
X226049Y475197D01*
X226192Y475154D01*
X226307Y475097D01*
X226523Y474953D01*
X226680Y474795D01*
X226810Y474623D01*
X226896Y474479D01*
X226924Y474422D01*
X226939Y474379D01*
X226953Y474350D01*
Y474336D01*
X227441Y472930D01*
X227484Y472772D01*
X227498Y472628D01*
Y472513D01*
X227484Y472413D01*
X227455Y472341D01*
X227427Y472284D01*
X227412Y472255D01*
X227398Y472241D01*
X227312Y472169D01*
X227226Y472112D01*
X227125Y472068D01*
X227039Y472040D01*
X226967Y472025D01*
X226896Y472011D01*
X226838D01*
X226695Y472025D01*
X226551Y472054D01*
X226422Y472083D01*
X226293Y472140D01*
X226207Y472183D01*
X226121Y472212D01*
X226078Y472241D01*
X226063Y472255D01*
X225948Y472355D01*
X225862Y472470D01*
X225776Y472571D01*
X225719Y472686D01*
X225661Y472786D01*
X225633Y472858D01*
X225604Y472915D01*
Y472930D01*
X225432Y473418D01*
X221873D01*
X229034Y461922D01*
X229091Y461836D01*
X229134Y461750D01*
X229163Y461664D01*
X229177Y461650D01*
Y461635D01*
X229221Y461492D01*
X229235Y461363D01*
X229221Y461248D01*
X229206Y461162D01*
X229192Y461090D01*
X229163Y461033D01*
X229149Y461004D01*
X229134Y460990D01*
X229048Y460918D01*
X228962Y460860D01*
X228862Y460817D01*
X228776Y460789D01*
X228689Y460774D01*
X228618Y460760D01*
X228546D01*
X228431Y460774D01*
X228316Y460789D01*
X228115Y460860D01*
X228029Y460903D01*
X227972Y460932D01*
X227929Y460947D01*
X227915Y460961D01*
X227800Y461047D01*
X227699Y461119D01*
X227613Y461205D01*
X227541Y461277D01*
X227484Y461348D01*
X227455Y461406D01*
X227427Y461434D01*
Y461449D01*
X219605Y474106D01*
X219447Y474451D01*
X219419Y474594D01*
X219404Y474709D01*
X219419Y474824D01*
X219447Y474910D01*
X219491Y474982D01*
X219548Y475053D01*
X219677Y475140D01*
X219835Y475197D01*
X219964Y475226D01*
X220021Y475240D01*
X225733D01*
X225891Y475226D01*
D02*
G37*
G36*
X237157D02*
X237314Y475197D01*
X237458Y475154D01*
X237573Y475097D01*
X237788Y474953D01*
X237946Y474795D01*
X238075Y474623D01*
X238161Y474479D01*
X238190Y474422D01*
X238204Y474379D01*
X238218Y474350D01*
Y474336D01*
X242538Y461678D01*
X242581Y461521D01*
X242596Y461377D01*
Y461262D01*
X242581Y461162D01*
X242553Y461090D01*
X242524Y461033D01*
X242509Y461004D01*
X242495Y460990D01*
X242409Y460918D01*
X242323Y460860D01*
X242222Y460817D01*
X242136Y460789D01*
X242050Y460774D01*
X241978Y460760D01*
X241921D01*
X241778Y460774D01*
X241634Y460803D01*
X241505Y460832D01*
X241390Y460889D01*
X241304Y460932D01*
X241218Y460961D01*
X241175Y460990D01*
X241161Y461004D01*
X241046Y461104D01*
X240960Y461219D01*
X240874Y461320D01*
X240816Y461434D01*
X240759Y461535D01*
X240730Y461607D01*
X240701Y461664D01*
Y461678D01*
X239094Y466385D01*
X237013D01*
X235535Y461176D01*
X235492Y461090D01*
X235449Y461018D01*
X235377Y460903D01*
X235320Y460846D01*
X235291Y460832D01*
X235176Y460789D01*
X235061Y460774D01*
X234961Y460760D01*
X234932D01*
X234789Y460774D01*
X234660Y460803D01*
X234530Y460832D01*
X234415Y460889D01*
X234329Y460932D01*
X234243Y460961D01*
X234200Y460990D01*
X234186Y461004D01*
X234057Y461119D01*
X233942Y461233D01*
X233856Y461348D01*
X233784Y461449D01*
X233727Y461549D01*
X233698Y461621D01*
X233669Y461664D01*
Y461678D01*
X233641Y461994D01*
Y462123D01*
X235018Y466385D01*
X235090D01*
X234860Y466400D01*
X234631Y466429D01*
X234401Y466472D01*
X234186Y466529D01*
X233770Y466673D01*
X233583Y466744D01*
X233397Y466830D01*
X233239Y466917D01*
X233095Y466988D01*
X232966Y467074D01*
X232851Y467132D01*
X232765Y467189D01*
X232708Y467232D01*
X232665Y467261D01*
X232650Y467275D01*
X232435Y467448D01*
X232234Y467620D01*
X232062Y467806D01*
X231890Y467979D01*
X231746Y468165D01*
X231617Y468337D01*
X231502Y468509D01*
X231388Y468682D01*
X231301Y468825D01*
X231230Y468969D01*
X231158Y469098D01*
X231115Y469198D01*
X231072Y469299D01*
X231043Y469356D01*
X231029Y469399D01*
Y469414D01*
X230067Y472226D01*
X229995Y472456D01*
X229952Y472671D01*
X229924Y472887D01*
Y473073D01*
X229938Y473446D01*
X229967Y473604D01*
X229995Y473748D01*
X230039Y473891D01*
X230082Y474006D01*
X230110Y474106D01*
X230153Y474193D01*
X230182Y474264D01*
X230211Y474307D01*
X230239Y474336D01*
Y474350D01*
X230354Y474508D01*
X230483Y474637D01*
X230627Y474767D01*
X230770Y474867D01*
X230914Y474953D01*
X231072Y475025D01*
X231373Y475125D01*
X231646Y475197D01*
X231761Y475211D01*
X231875Y475226D01*
X231961Y475240D01*
X236999D01*
X237157Y475226D01*
D02*
G37*
G36*
X237135Y493226D02*
X237293Y493197D01*
X237436Y493154D01*
X237551Y493097D01*
X237766Y492953D01*
X237924Y492795D01*
X238053Y492623D01*
X238140Y492480D01*
X238168Y492422D01*
X238183Y492379D01*
X238197Y492350D01*
Y492336D01*
X242517Y479678D01*
X242560Y479520D01*
X242574Y479377D01*
Y479262D01*
X242560Y479162D01*
X242531Y479090D01*
X242502Y479033D01*
X242488Y479004D01*
X242474Y478989D01*
X242388Y478918D01*
X242301Y478860D01*
X242201Y478817D01*
X242115Y478789D01*
X242029Y478774D01*
X241957Y478760D01*
X241900D01*
X241756Y478774D01*
X241612Y478803D01*
X241483Y478832D01*
X241369Y478889D01*
X241283Y478932D01*
X241196Y478961D01*
X241153Y478989D01*
X241139Y479004D01*
X241024Y479104D01*
X240938Y479219D01*
X240852Y479320D01*
X240795Y479434D01*
X240737Y479535D01*
X240708Y479607D01*
X240680Y479664D01*
Y479678D01*
X239072Y484385D01*
X236992D01*
X235513Y479176D01*
X235470Y479090D01*
X235427Y479018D01*
X235355Y478903D01*
X235298Y478846D01*
X235269Y478832D01*
X235155Y478789D01*
X235040Y478774D01*
X234939Y478760D01*
X234911D01*
X234767Y478774D01*
X234638Y478803D01*
X234509Y478832D01*
X234394Y478889D01*
X234308Y478932D01*
X234222Y478961D01*
X234179Y478989D01*
X234164Y479004D01*
X234035Y479119D01*
X233920Y479234D01*
X233834Y479348D01*
X233763Y479449D01*
X233705Y479549D01*
X233676Y479621D01*
X233648Y479664D01*
Y479678D01*
X233619Y479994D01*
Y480123D01*
X234997Y484385D01*
X235068D01*
X234839Y484400D01*
X234609Y484429D01*
X234380Y484472D01*
X234164Y484529D01*
X233748Y484673D01*
X233562Y484744D01*
X233375Y484830D01*
X233217Y484916D01*
X233074Y484988D01*
X232945Y485074D01*
X232830Y485132D01*
X232744Y485189D01*
X232686Y485232D01*
X232643Y485261D01*
X232629Y485275D01*
X232414Y485448D01*
X232213Y485620D01*
X232040Y485806D01*
X231868Y485979D01*
X231725Y486165D01*
X231595Y486337D01*
X231481Y486510D01*
X231366Y486682D01*
X231280Y486825D01*
X231208Y486969D01*
X231136Y487098D01*
X231093Y487198D01*
X231050Y487299D01*
X231021Y487356D01*
X231007Y487399D01*
Y487414D01*
X230046Y490226D01*
X229974Y490456D01*
X229931Y490671D01*
X229902Y490886D01*
Y491073D01*
X229916Y491446D01*
X229945Y491604D01*
X229974Y491748D01*
X230017Y491891D01*
X230060Y492006D01*
X230089Y492106D01*
X230132Y492192D01*
X230160Y492264D01*
X230189Y492307D01*
X230218Y492336D01*
Y492350D01*
X230333Y492508D01*
X230462Y492637D01*
X230605Y492766D01*
X230749Y492867D01*
X230892Y492953D01*
X231050Y493025D01*
X231352Y493125D01*
X231624Y493197D01*
X231739Y493211D01*
X231854Y493226D01*
X231940Y493240D01*
X236977D01*
X237135Y493226D01*
D02*
G37*
G36*
X225870D02*
X226027Y493197D01*
X226171Y493154D01*
X226286Y493097D01*
X226501Y492953D01*
X226659Y492795D01*
X226788Y492623D01*
X226874Y492480D01*
X226903Y492422D01*
X226917Y492379D01*
X226931Y492350D01*
Y492336D01*
X228855Y486710D01*
X228898Y486553D01*
X228912Y486409D01*
Y486280D01*
X228898Y486179D01*
X228855Y486093D01*
X228797Y486021D01*
X228668Y485907D01*
X228524Y485835D01*
X228395Y485806D01*
X228338Y485792D01*
X225439D01*
X225152Y485763D01*
X224922Y485706D01*
X224721Y485620D01*
X224549Y485519D01*
X224434Y485404D01*
X224348Y485318D01*
X224291Y485261D01*
X224277Y485232D01*
X224219Y485132D01*
X224176Y485017D01*
X224104Y484787D01*
X224090Y484558D01*
X224104Y484357D01*
X224119Y484170D01*
X224147Y484027D01*
X224162Y483969D01*
X224176Y483926D01*
X224190Y483912D01*
Y483898D01*
X224664Y482491D01*
X224793Y482190D01*
X224951Y481931D01*
X225123Y481688D01*
X225281Y481487D01*
X225439Y481329D01*
X225583Y481214D01*
X225669Y481142D01*
X225683Y481114D01*
X225697D01*
X225970Y480941D01*
X226243Y480812D01*
X226501Y480712D01*
X226731Y480654D01*
X226917Y480611D01*
X227075Y480597D01*
X227132Y480583D01*
X230017D01*
X230175Y480568D01*
X230333Y480540D01*
X230462Y480482D01*
X230577Y480439D01*
X230677Y480382D01*
X230749Y480324D01*
X230792Y480295D01*
X230806Y480281D01*
X230921Y480166D01*
X231021Y480066D01*
X231093Y479965D01*
X231151Y479879D01*
X231194Y479793D01*
X231222Y479736D01*
X231251Y479693D01*
Y479678D01*
X231280Y479535D01*
X231294Y479406D01*
Y479291D01*
X231280Y479190D01*
X231266Y479119D01*
X231251Y479061D01*
X231222Y479018D01*
Y479004D01*
X231151Y478918D01*
X231050Y478860D01*
X230964Y478817D01*
X230864Y478789D01*
X230777Y478774D01*
X230706Y478760D01*
X227821D01*
X227534Y478774D01*
X227247Y478803D01*
X226975Y478860D01*
X226702Y478932D01*
X226200Y479104D01*
X225970Y479205D01*
X225740Y479305D01*
X225539Y479406D01*
X225367Y479506D01*
X225209Y479592D01*
X225080Y479678D01*
X224965Y479750D01*
X224894Y479808D01*
X224836Y479836D01*
X224822Y479851D01*
X224549Y480066D01*
X224305Y480281D01*
X224090Y480511D01*
X223889Y480726D01*
X223703Y480956D01*
X223545Y481171D01*
X223401Y481386D01*
X223272Y481587D01*
X223157Y481774D01*
X223071Y481946D01*
X222985Y482104D01*
X222927Y482233D01*
X222885Y482348D01*
X222856Y482419D01*
X222827Y482477D01*
Y482491D01*
X222353Y483898D01*
X222267Y484185D01*
X222210Y484443D01*
X222181Y484701D01*
X222167Y484945D01*
Y485175D01*
X222181Y485390D01*
X222210Y485591D01*
X222253Y485778D01*
X222296Y485935D01*
X222353Y486079D01*
X222397Y486208D01*
X222454Y486323D01*
X222497Y486395D01*
X222526Y486466D01*
X222540Y486495D01*
X222554Y486510D01*
X222698Y486710D01*
X222856Y486868D01*
X223028Y487026D01*
X223215Y487155D01*
X223401Y487256D01*
X223588Y487342D01*
X223774Y487414D01*
X223961Y487471D01*
X224133Y487528D01*
X224291Y487557D01*
X224434Y487586D01*
X224564Y487600D01*
X224664Y487615D01*
X226702D01*
X225410Y491418D01*
X220703D01*
X220531Y491432D01*
X220387Y491461D01*
X220258Y491518D01*
X220129Y491575D01*
X220043Y491618D01*
X219971Y491676D01*
X219928Y491704D01*
X219914Y491719D01*
X219799Y491834D01*
X219699Y491949D01*
X219627Y492049D01*
X219569Y492135D01*
X219526Y492221D01*
X219498Y492279D01*
X219469Y492322D01*
Y492336D01*
X219440Y492465D01*
X219426Y492580D01*
X219440Y492680D01*
X219455Y492781D01*
X219483Y492853D01*
X219498Y492910D01*
X219512Y492939D01*
X219526Y492953D01*
X219598Y493054D01*
X219684Y493125D01*
X219785Y493168D01*
X219871Y493211D01*
X219957Y493226D01*
X220029Y493240D01*
X225712D01*
X225870Y493226D01*
D02*
G37*
G36*
X176697Y534226D02*
X176855Y534197D01*
X176999Y534154D01*
X177113Y534097D01*
X177329Y533953D01*
X177487Y533795D01*
X177616Y533623D01*
X177702Y533479D01*
X177731Y533422D01*
X177745Y533379D01*
X177759Y533350D01*
Y533336D01*
X182079Y520678D01*
X182122Y520521D01*
X182136Y520377D01*
Y520262D01*
X182122Y520162D01*
X182093Y520090D01*
X182065Y520033D01*
X182050Y520004D01*
X182036Y519990D01*
X181950Y519918D01*
X181864Y519860D01*
X181763Y519817D01*
X181677Y519789D01*
X181591Y519774D01*
X181519Y519760D01*
X181462D01*
X181318Y519774D01*
X181175Y519803D01*
X181046Y519832D01*
X180931Y519889D01*
X180845Y519932D01*
X180759Y519961D01*
X180716Y519990D01*
X180701Y520004D01*
X180586Y520104D01*
X180500Y520219D01*
X180414Y520320D01*
X180357Y520434D01*
X180299Y520535D01*
X180271Y520607D01*
X180242Y520664D01*
Y520678D01*
X178635Y525386D01*
X176554D01*
X175076Y520176D01*
X175033Y520090D01*
X174990Y520018D01*
X174918Y519903D01*
X174860Y519846D01*
X174832Y519832D01*
X174717Y519789D01*
X174602Y519774D01*
X174502Y519760D01*
X174473D01*
X174329Y519774D01*
X174200Y519803D01*
X174071Y519832D01*
X173956Y519889D01*
X173870Y519932D01*
X173784Y519961D01*
X173741Y519990D01*
X173727Y520004D01*
X173598Y520119D01*
X173483Y520233D01*
X173397Y520348D01*
X173325Y520449D01*
X173267Y520549D01*
X173239Y520621D01*
X173210Y520664D01*
Y520678D01*
X173181Y520994D01*
Y521123D01*
X174559Y525386D01*
X174631D01*
X174401Y525400D01*
X174172Y525429D01*
X173942Y525472D01*
X173727Y525529D01*
X173311Y525672D01*
X173124Y525744D01*
X172937Y525830D01*
X172780Y525916D01*
X172636Y525988D01*
X172507Y526074D01*
X172392Y526132D01*
X172306Y526189D01*
X172248Y526232D01*
X172206Y526261D01*
X172191Y526275D01*
X171976Y526447D01*
X171775Y526620D01*
X171603Y526806D01*
X171430Y526978D01*
X171287Y527165D01*
X171158Y527337D01*
X171043Y527509D01*
X170928Y527682D01*
X170842Y527825D01*
X170770Y527969D01*
X170699Y528098D01*
X170656Y528198D01*
X170613Y528299D01*
X170584Y528356D01*
X170569Y528399D01*
Y528414D01*
X169608Y531226D01*
X169536Y531456D01*
X169493Y531671D01*
X169464Y531886D01*
Y532073D01*
X169479Y532446D01*
X169508Y532604D01*
X169536Y532748D01*
X169579Y532891D01*
X169622Y533006D01*
X169651Y533106D01*
X169694Y533192D01*
X169723Y533264D01*
X169751Y533307D01*
X169780Y533336D01*
Y533350D01*
X169895Y533508D01*
X170024Y533637D01*
X170168Y533767D01*
X170311Y533867D01*
X170455Y533953D01*
X170613Y534025D01*
X170914Y534125D01*
X171187Y534197D01*
X171301Y534211D01*
X171416Y534226D01*
X171502Y534240D01*
X176539D01*
X176697Y534226D01*
D02*
G37*
G36*
X165518Y534197D02*
X165661Y534168D01*
X165791Y534111D01*
X165905Y534068D01*
X166006Y534011D01*
X166078Y533953D01*
X166121Y533924D01*
X166135Y533910D01*
X166250Y533795D01*
X166350Y533695D01*
X166422Y533594D01*
X166479Y533508D01*
X166523Y533422D01*
X166551Y533365D01*
X166580Y533322D01*
Y533307D01*
X166609Y533164D01*
X166623Y533035D01*
Y532920D01*
X166609Y532819D01*
X166594Y532748D01*
X166580Y532690D01*
X166551Y532647D01*
Y532633D01*
X166479Y532547D01*
X166393Y532489D01*
X166293Y532446D01*
X166207Y532417D01*
X166121Y532403D01*
X166049Y532389D01*
X163164D01*
X162863Y532360D01*
X162605Y532303D01*
X162389Y532202D01*
X162232Y532102D01*
X162102Y532001D01*
X162016Y531901D01*
X161973Y531843D01*
X161959Y531815D01*
X161873Y531614D01*
X161844Y531413D01*
X161830Y531198D01*
X161844Y530997D01*
X161873Y530825D01*
X161901Y530681D01*
X161916Y530624D01*
X161930Y530581D01*
X161945Y530566D01*
Y530552D01*
X162059Y530265D01*
X162203Y530006D01*
X162361Y529763D01*
X162519Y529576D01*
X162648Y529404D01*
X162763Y529289D01*
X162849Y529217D01*
X162863Y529188D01*
X162877D01*
X163150Y529002D01*
X163437Y528858D01*
X163695Y528758D01*
X163939Y528686D01*
X164140Y528643D01*
X164298Y528629D01*
X164356Y528615D01*
X165848D01*
X166020Y528600D01*
X166178Y528571D01*
X166307Y528514D01*
X166422Y528471D01*
X166523Y528414D01*
X166594Y528356D01*
X166637Y528327D01*
X166652Y528313D01*
X166766Y528198D01*
X166852Y528098D01*
X166939Y527997D01*
X166996Y527897D01*
X167039Y527825D01*
X167068Y527768D01*
X167082Y527725D01*
Y527710D01*
X167111Y527581D01*
X167125Y527452D01*
Y527337D01*
X167111Y527237D01*
X167097Y527151D01*
X167082Y527093D01*
X167068Y527050D01*
Y527036D01*
X166982Y526950D01*
X166896Y526892D01*
X166795Y526849D01*
X166709Y526821D01*
X166623Y526806D01*
X166551Y526792D01*
X165073D01*
X164786Y526763D01*
X164556Y526706D01*
X164356Y526605D01*
X164183Y526505D01*
X164069Y526404D01*
X163982Y526304D01*
X163925Y526247D01*
X163911Y526218D01*
X163853Y526117D01*
X163810Y526003D01*
X163738Y525773D01*
X163724Y525558D01*
X163738Y525342D01*
X163753Y525170D01*
X163781Y525027D01*
X163796Y524969D01*
X163810Y524926D01*
X163825Y524912D01*
Y524898D01*
X164298Y523491D01*
X164413Y523204D01*
X164571Y522946D01*
X164743Y522702D01*
X164915Y522515D01*
X165073Y522343D01*
X165202Y522228D01*
X165288Y522156D01*
X165303Y522128D01*
X165317D01*
X165590Y521941D01*
X165862Y521812D01*
X166121Y521712D01*
X166350Y521654D01*
X166551Y521611D01*
X166709Y521597D01*
X166766Y521582D01*
X169651D01*
X169823Y521568D01*
X169967Y521539D01*
X170110Y521482D01*
X170225Y521439D01*
X170326Y521382D01*
X170397Y521324D01*
X170440Y521296D01*
X170455Y521281D01*
X170569Y521166D01*
X170656Y521066D01*
X170742Y520965D01*
X170799Y520865D01*
X170842Y520793D01*
X170871Y520736D01*
X170885Y520693D01*
Y520678D01*
X170914Y520549D01*
X170928Y520420D01*
Y520305D01*
X170914Y520205D01*
X170900Y520119D01*
X170885Y520061D01*
X170871Y520018D01*
Y520004D01*
X170785Y519918D01*
X170699Y519860D01*
X170598Y519817D01*
X170498Y519789D01*
X170412Y519774D01*
X170340Y519760D01*
X167455D01*
X167168Y519774D01*
X166881Y519803D01*
X166609Y519860D01*
X166336Y519932D01*
X165834Y520104D01*
X165604Y520205D01*
X165374Y520305D01*
X165173Y520406D01*
X165001Y520506D01*
X164843Y520592D01*
X164714Y520678D01*
X164599Y520750D01*
X164528Y520807D01*
X164470Y520836D01*
X164456Y520851D01*
X164183Y521066D01*
X163939Y521281D01*
X163724Y521511D01*
X163523Y521726D01*
X163337Y521956D01*
X163179Y522171D01*
X163035Y522386D01*
X162906Y522587D01*
X162791Y522774D01*
X162705Y522946D01*
X162619Y523104D01*
X162562Y523233D01*
X162519Y523348D01*
X162490Y523419D01*
X162461Y523477D01*
Y523491D01*
X161988Y524898D01*
X161887Y525213D01*
X161830Y525529D01*
X161801Y525802D01*
Y526046D01*
Y526261D01*
X161815Y526419D01*
Y526476D01*
X161830Y526519D01*
Y526534D01*
Y526548D01*
X161901Y526821D01*
X161973Y527050D01*
X162074Y527251D01*
X162174Y527409D01*
X162260Y527524D01*
X162332Y527610D01*
X162389Y527653D01*
X162404Y527667D01*
X162117Y527840D01*
X161844Y528040D01*
X161600Y528241D01*
X161385Y528428D01*
X161227Y528600D01*
X161098Y528729D01*
X161040Y528787D01*
X161012Y528830D01*
X160983Y528844D01*
Y528858D01*
X160768Y529146D01*
X160581Y529447D01*
X160423Y529720D01*
X160294Y529978D01*
X160194Y530193D01*
X160151Y530294D01*
X160122Y530365D01*
X160093Y530437D01*
X160079Y530480D01*
X160065Y530509D01*
Y530523D01*
X159978Y530796D01*
X159921Y531054D01*
X159892Y531312D01*
X159864Y531556D01*
Y531786D01*
X159878Y532001D01*
X159907Y532202D01*
X159935Y532389D01*
X159964Y532561D01*
X160007Y532705D01*
X160050Y532834D01*
X160093Y532948D01*
X160122Y533035D01*
X160151Y533092D01*
X160165Y533135D01*
X160179Y533149D01*
X160308Y533336D01*
X160452Y533494D01*
X160624Y533637D01*
X160811Y533767D01*
X160997Y533867D01*
X161198Y533953D01*
X161399Y534025D01*
X161600Y534082D01*
X161787Y534125D01*
X161959Y534154D01*
X162117Y534183D01*
X162260Y534197D01*
X162375Y534211D01*
X165360D01*
X165518Y534197D01*
D02*
G37*
G36*
X164046Y422211D02*
X164189Y422197D01*
X164333Y422168D01*
X164462Y422140D01*
X164548Y422125D01*
X164605Y422097D01*
X164634D01*
X164821Y422039D01*
X165007Y421967D01*
X165194Y421881D01*
X165366Y421795D01*
X165524Y421724D01*
X165639Y421666D01*
X165725Y421623D01*
X165739Y421609D01*
X165753D01*
X166084Y421436D01*
X166399Y421250D01*
X166686Y421049D01*
X166945Y420848D01*
X167160Y420676D01*
X167246Y420590D01*
X167318Y420518D01*
X167375Y420461D01*
X167418Y420432D01*
X167447Y420403D01*
X167461Y420389D01*
X167547Y420288D01*
X167605Y420188D01*
X167662Y420102D01*
X167705Y420030D01*
X167734Y419973D01*
X167748Y419930D01*
X167763Y419915D01*
Y419901D01*
X167791Y419757D01*
X167806Y419643D01*
X167791Y419528D01*
X167777Y419427D01*
X167748Y419356D01*
X167719Y419298D01*
X167705Y419269D01*
X167691Y419255D01*
X167605Y419169D01*
X167519Y419112D01*
X167418Y419068D01*
X167318Y419040D01*
X167232Y419025D01*
X167160Y419011D01*
X167102D01*
X166701Y419083D01*
X166500Y419212D01*
X166342Y419341D01*
X166284Y419384D01*
X166227Y419427D01*
X166213Y419442D01*
X166198Y419456D01*
X166040Y419614D01*
X165868Y419743D01*
X165696Y419872D01*
X165538Y419973D01*
X165395Y420073D01*
X165280Y420131D01*
X165208Y420174D01*
X165179Y420188D01*
X165007Y420260D01*
X164835Y420317D01*
X164677Y420360D01*
X164534Y420389D01*
X164404Y420403D01*
X164318Y420418D01*
X164060D01*
X163916Y420389D01*
X163773Y420360D01*
X163658Y420331D01*
X163558Y420303D01*
X163486Y420274D01*
X163443Y420260D01*
X163428Y420245D01*
X163299Y420174D01*
X163185Y420102D01*
X163099Y420030D01*
X163012Y419958D01*
X162955Y419901D01*
X162912Y419843D01*
X162883Y419815D01*
X162869Y419800D01*
X162797Y419686D01*
X162740Y419571D01*
X162668Y419327D01*
X162625Y419083D01*
Y418868D01*
X162654Y418667D01*
X162668Y418523D01*
X162682Y418466D01*
X162697Y418423D01*
X162711Y418394D01*
Y418380D01*
X162783Y418208D01*
X162869Y418035D01*
X162955Y417877D01*
X163055Y417734D01*
X163141Y417605D01*
X163199Y417519D01*
X163256Y417461D01*
X163271Y417433D01*
X171264Y409166D01*
X171379Y409037D01*
X171465Y408922D01*
X171537Y408808D01*
X171594Y408722D01*
X171637Y408635D01*
X171666Y408578D01*
X171680Y408549D01*
Y408535D01*
X171723Y408406D01*
Y408277D01*
Y408176D01*
X171680Y408090D01*
X171637Y408018D01*
X171580Y407947D01*
X171436Y407860D01*
X171264Y407803D01*
X171121Y407774D01*
X171063Y407760D01*
X165352D01*
X165179Y407774D01*
X165036Y407803D01*
X164907Y407860D01*
X164778Y407918D01*
X164691Y407961D01*
X164620Y408018D01*
X164577Y408047D01*
X164562Y408061D01*
X164447Y408176D01*
X164347Y408291D01*
X164275Y408391D01*
X164203Y408478D01*
X164160Y408564D01*
X164132Y408621D01*
X164117Y408664D01*
Y408678D01*
X164089Y408808D01*
X164074Y408922D01*
X164089Y409023D01*
X164103Y409123D01*
X164132Y409195D01*
X164146Y409252D01*
X164160Y409281D01*
X164175Y409296D01*
X164247Y409396D01*
X164333Y409468D01*
X164419Y409511D01*
X164505Y409554D01*
X164591Y409568D01*
X164663Y409582D01*
X168868D01*
X162008Y416500D01*
X161735Y416844D01*
X161491Y417188D01*
X161305Y417490D01*
X161147Y417777D01*
X161032Y418007D01*
X160989Y418107D01*
X160946Y418193D01*
X160917Y418265D01*
X160903Y418308D01*
X160888Y418337D01*
Y418351D01*
X160802Y418638D01*
X160745Y418925D01*
X160716Y419183D01*
X160702Y419442D01*
X160716Y419686D01*
X160745Y419901D01*
X160788Y420116D01*
X160831Y420303D01*
X160888Y420475D01*
X160946Y420633D01*
X161003Y420762D01*
X161061Y420877D01*
X161104Y420963D01*
X161147Y421020D01*
X161161Y421063D01*
X161175Y421078D01*
X161333Y421279D01*
X161520Y421465D01*
X161706Y421623D01*
X161907Y421752D01*
X162123Y421867D01*
X162338Y421953D01*
X162539Y422039D01*
X162740Y422097D01*
X162941Y422140D01*
X163127Y422183D01*
X163285Y422211D01*
X163428Y422226D01*
X163543D01*
X163644Y422240D01*
X163715D01*
X164046Y422211D01*
D02*
G37*
G36*
X190107Y422226D02*
X190250Y422197D01*
X190380Y422154D01*
X190494Y422097D01*
X190581Y422039D01*
X190652Y421996D01*
X190710Y421967D01*
X190724Y421953D01*
X190853Y421838D01*
X190954Y421738D01*
X191040Y421623D01*
X191097Y421537D01*
X191155Y421451D01*
X191183Y421379D01*
X191212Y421336D01*
Y421322D01*
X191255Y421049D01*
X191298Y408492D01*
X191284Y408363D01*
X191255Y408248D01*
X191226Y408147D01*
X191183Y408076D01*
X191069Y407932D01*
X190954Y407846D01*
X190839Y407803D01*
X190753Y407774D01*
X190681Y407760D01*
X190652D01*
X190523Y407789D01*
X190408Y407832D01*
X190308Y407860D01*
X190222Y407904D01*
X190150Y407932D01*
X190107Y407961D01*
X190078Y407975D01*
X190064D01*
X189863Y408162D01*
X189705Y408334D01*
X189648Y408406D01*
X189605Y408463D01*
X189576Y408492D01*
X189562Y408506D01*
X181080Y421049D01*
X180922Y421350D01*
X180894Y421479D01*
X180879Y421609D01*
Y421724D01*
X180908Y421810D01*
X180922Y421896D01*
X180951Y421953D01*
X180965Y421982D01*
X180980Y421996D01*
X181080Y422082D01*
X181181Y422140D01*
X181267Y422183D01*
X181367Y422211D01*
X181439Y422226D01*
X181511Y422240D01*
X181568D01*
X181669Y422226D01*
X181769Y422211D01*
X181941Y422154D01*
X182013Y422111D01*
X182071Y422082D01*
X182113Y422068D01*
X182128Y422053D01*
X182329Y421910D01*
X182472Y421767D01*
X182530Y421709D01*
X182573Y421652D01*
X182602Y421623D01*
X182616Y421609D01*
X189504Y411233D01*
X189318Y421652D01*
X189332Y421781D01*
X189361Y421881D01*
X189404Y421967D01*
X189447Y422039D01*
X189476Y422097D01*
X189519Y422125D01*
X189533Y422154D01*
X189547D01*
X189748Y422240D01*
X189963D01*
X190107Y422226D01*
D02*
G37*
G36*
X177478D02*
X177622Y422197D01*
X177751Y422140D01*
X177866Y422097D01*
X177966Y422039D01*
X178038Y421982D01*
X178081Y421953D01*
X178095Y421939D01*
X178210Y421824D01*
X178296Y421724D01*
X178382Y421623D01*
X178440Y421523D01*
X178483Y421451D01*
X178511Y421393D01*
X178526Y421350D01*
Y421336D01*
X178569Y421207D01*
X178583Y421078D01*
Y420963D01*
X178569Y420862D01*
X178554Y420776D01*
X178540Y420719D01*
X178526Y420676D01*
Y420662D01*
X178440Y420575D01*
X178354Y420518D01*
X178253Y420475D01*
X178153Y420446D01*
X178067Y420432D01*
X177995Y420418D01*
X175326D01*
X179329Y408678D01*
X179373Y408521D01*
X179387Y408377D01*
Y408262D01*
X179373Y408162D01*
X179344Y408090D01*
X179315Y408033D01*
X179301Y408004D01*
X179286Y407990D01*
X179200Y407918D01*
X179114Y407860D01*
X179014Y407817D01*
X178928Y407789D01*
X178841Y407774D01*
X178770Y407760D01*
X178712D01*
X178569Y407774D01*
X178425Y407803D01*
X178296Y407832D01*
X178181Y407889D01*
X178095Y407932D01*
X178009Y407961D01*
X177966Y407990D01*
X177952Y408004D01*
X177837Y408104D01*
X177751Y408219D01*
X177665Y408320D01*
X177607Y408434D01*
X177550Y408535D01*
X177521Y408607D01*
X177493Y408664D01*
Y408678D01*
X173489Y420418D01*
X170891D01*
X170719Y420432D01*
X170575Y420461D01*
X170446Y420518D01*
X170317Y420575D01*
X170231Y420618D01*
X170159Y420676D01*
X170116Y420704D01*
X170102Y420719D01*
X169987Y420834D01*
X169886Y420948D01*
X169815Y421049D01*
X169757Y421135D01*
X169714Y421221D01*
X169686Y421279D01*
X169657Y421322D01*
Y421336D01*
X169628Y421465D01*
X169614Y421580D01*
X169628Y421680D01*
X169643Y421781D01*
X169671Y421853D01*
X169686Y421910D01*
X169700Y421939D01*
X169714Y421953D01*
X169786Y422053D01*
X169872Y422125D01*
X169973Y422168D01*
X170059Y422211D01*
X170145Y422226D01*
X170217Y422240D01*
X177306D01*
X177478Y422226D01*
D02*
G37*
G36*
X262425Y419226D02*
X262582Y419197D01*
X262726Y419154D01*
X262841Y419097D01*
X263056Y418953D01*
X263214Y418795D01*
X263343Y418623D01*
X263429Y418479D01*
X263458Y418422D01*
X263472Y418379D01*
X263487Y418350D01*
Y418336D01*
X267806Y405678D01*
X267849Y405521D01*
X267864Y405377D01*
Y405262D01*
X267849Y405162D01*
X267821Y405090D01*
X267792Y405033D01*
X267778Y405004D01*
X267763Y404990D01*
X267677Y404918D01*
X267591Y404860D01*
X267491Y404817D01*
X267404Y404789D01*
X267318Y404774D01*
X267247Y404760D01*
X267189D01*
X267046Y404774D01*
X266902Y404803D01*
X266773Y404832D01*
X266658Y404889D01*
X266572Y404932D01*
X266486Y404961D01*
X266443Y404990D01*
X266429Y405004D01*
X266314Y405104D01*
X266228Y405219D01*
X266142Y405320D01*
X266084Y405434D01*
X266027Y405535D01*
X265998Y405607D01*
X265969Y405664D01*
Y405678D01*
X264362Y410386D01*
X262281D01*
X260803Y405176D01*
X260760Y405090D01*
X260717Y405018D01*
X260645Y404903D01*
X260588Y404846D01*
X260559Y404832D01*
X260444Y404789D01*
X260329Y404774D01*
X260229Y404760D01*
X260200D01*
X260057Y404774D01*
X259928Y404803D01*
X259798Y404832D01*
X259684Y404889D01*
X259597Y404932D01*
X259511Y404961D01*
X259468Y404990D01*
X259454Y405004D01*
X259325Y405119D01*
X259210Y405233D01*
X259124Y405348D01*
X259052Y405449D01*
X258995Y405549D01*
X258966Y405621D01*
X258937Y405664D01*
Y405678D01*
X258909Y405994D01*
Y406123D01*
X260286Y410386D01*
X260358D01*
X260128Y410400D01*
X259899Y410429D01*
X259669Y410472D01*
X259454Y410529D01*
X259038Y410672D01*
X258851Y410744D01*
X258665Y410830D01*
X258507Y410916D01*
X258363Y410988D01*
X258234Y411074D01*
X258119Y411132D01*
X258033Y411189D01*
X257976Y411232D01*
X257933Y411261D01*
X257918Y411275D01*
X257703Y411447D01*
X257502Y411620D01*
X257330Y411806D01*
X257158Y411978D01*
X257014Y412165D01*
X256885Y412337D01*
X256770Y412509D01*
X256656Y412682D01*
X256569Y412825D01*
X256498Y412969D01*
X256426Y413098D01*
X256383Y413198D01*
X256340Y413299D01*
X256311Y413356D01*
X256297Y413399D01*
Y413414D01*
X255335Y416226D01*
X255264Y416456D01*
X255221Y416671D01*
X255192Y416886D01*
Y417073D01*
X255206Y417446D01*
X255235Y417604D01*
X255264Y417748D01*
X255307Y417891D01*
X255350Y418006D01*
X255378Y418106D01*
X255421Y418192D01*
X255450Y418264D01*
X255479Y418307D01*
X255508Y418336D01*
Y418350D01*
X255622Y418508D01*
X255751Y418637D01*
X255895Y418767D01*
X256038Y418867D01*
X256182Y418953D01*
X256340Y419025D01*
X256641Y419125D01*
X256914Y419197D01*
X257029Y419211D01*
X257143Y419226D01*
X257230Y419240D01*
X262267D01*
X262425Y419226D01*
D02*
G37*
G36*
X247155Y419154D02*
X247744Y418910D01*
X248303Y418637D01*
X248562Y418494D01*
X248820Y418350D01*
X249049Y418221D01*
X249265Y418092D01*
X249466Y417963D01*
X249638Y417848D01*
X249796Y417748D01*
X249925Y417662D01*
X250025Y417590D01*
X250112Y417532D01*
X250155Y417504D01*
X250169Y417489D01*
X250671Y417073D01*
X251145Y416642D01*
X251561Y416198D01*
X251747Y415997D01*
X251920Y415796D01*
X252078Y415595D01*
X252221Y415423D01*
X252350Y415279D01*
X252451Y415136D01*
X252523Y415035D01*
X252594Y414949D01*
X252623Y414892D01*
X252637Y414877D01*
X252867Y414576D01*
X253097Y414275D01*
X253297Y413973D01*
X253484Y413657D01*
X253671Y413356D01*
X253828Y413055D01*
X253972Y412768D01*
X254115Y412509D01*
X254230Y412251D01*
X254331Y412021D01*
X254417Y411806D01*
X254489Y411634D01*
X254546Y411491D01*
X254589Y411376D01*
X254603Y411318D01*
X254618Y411290D01*
X255823Y407774D01*
X255895Y407544D01*
X255938Y407314D01*
X255967Y407099D01*
X255981Y406898D01*
X255967Y406712D01*
X255952Y406525D01*
X255938Y406367D01*
X255895Y406224D01*
X255866Y406080D01*
X255823Y405965D01*
X255780Y405865D01*
X255737Y405779D01*
X255708Y405707D01*
X255680Y405664D01*
X255651Y405635D01*
Y405621D01*
X255536Y405463D01*
X255393Y405334D01*
X255264Y405219D01*
X255106Y405119D01*
X254962Y405047D01*
X254804Y404975D01*
X254503Y404875D01*
X254230Y404803D01*
X254115Y404789D01*
X254015Y404774D01*
X253929Y404760D01*
X252408D01*
X252178Y404774D01*
X251948Y404803D01*
X251719Y404846D01*
X251504Y404903D01*
X251087Y405047D01*
X250901Y405119D01*
X250714Y405205D01*
X250556Y405291D01*
X250413Y405363D01*
X250284Y405449D01*
X250169Y405506D01*
X250083Y405564D01*
X250025Y405607D01*
X249982Y405635D01*
X249968Y405650D01*
X249753Y405822D01*
X249552Y405994D01*
X249380Y406181D01*
X249207Y406353D01*
X249064Y406539D01*
X248935Y406712D01*
X248820Y406884D01*
X248720Y407056D01*
X248633Y407200D01*
X248562Y407343D01*
X248490Y407472D01*
X248447Y407573D01*
X248404Y407673D01*
X248375Y407731D01*
X248361Y407774D01*
Y407788D01*
X247399Y410601D01*
X247327Y410830D01*
X247284Y411046D01*
X247256Y411261D01*
X247241Y411462D01*
Y411648D01*
X247270Y411821D01*
X247284Y411978D01*
X247327Y412136D01*
X247356Y412266D01*
X247399Y412380D01*
X247442Y412481D01*
X247485Y412567D01*
X247514Y412639D01*
X247543Y412682D01*
X247571Y412710D01*
Y412725D01*
X247686Y412883D01*
X247815Y413012D01*
X247959Y413141D01*
X248117Y413241D01*
X248260Y413327D01*
X248418Y413399D01*
X248705Y413500D01*
X248978Y413571D01*
X249093Y413586D01*
X249193Y413600D01*
X249279Y413615D01*
X251733D01*
X251475Y413916D01*
X251130Y414389D01*
X250815Y414777D01*
X250485Y415150D01*
X250169Y415466D01*
X249882Y415738D01*
X249624Y415968D01*
X249523Y416054D01*
X249423Y416126D01*
X249351Y416183D01*
X249293Y416241D01*
X249265Y416255D01*
X249251Y416269D01*
X249035Y416413D01*
X248849Y416542D01*
X248662Y416657D01*
X248519Y416757D01*
X248404Y416829D01*
X248303Y416886D01*
X248246Y416915D01*
X248232Y416930D01*
X247988Y417059D01*
X247873Y417116D01*
X247787Y417159D01*
X247701Y417202D01*
X247643Y417231D01*
X247614Y417245D01*
X247600D01*
X247399Y417331D01*
X247213Y417403D01*
X247141Y417432D01*
X247083Y417461D01*
X247040Y417475D01*
X247026D01*
X246882Y417547D01*
X246768Y417618D01*
X246667Y417676D01*
X246595Y417733D01*
X246538Y417776D01*
X246481Y417819D01*
X246466Y417834D01*
X246452Y417848D01*
X246337Y417991D01*
X246251Y418135D01*
X246222Y418207D01*
X246194Y418250D01*
X246179Y418279D01*
Y418293D01*
X246151Y418422D01*
X246136Y418537D01*
Y418652D01*
Y418752D01*
X246165Y418824D01*
X246179Y418881D01*
X246194Y418924D01*
Y418939D01*
X246280Y419039D01*
X246366Y419111D01*
X246466Y419168D01*
X246567Y419197D01*
X246653Y419226D01*
X246725Y419240D01*
X246782D01*
X247155Y419154D01*
D02*
G37*
G36*
X186092Y402226D02*
X186250Y402197D01*
X186393Y402154D01*
X186508Y402097D01*
X186723Y401953D01*
X186881Y401795D01*
X187010Y401623D01*
X187097Y401479D01*
X187125Y401422D01*
X187140Y401379D01*
X187154Y401350D01*
Y401336D01*
X191474Y388678D01*
X191517Y388521D01*
X191531Y388377D01*
Y388262D01*
X191517Y388162D01*
X191488Y388090D01*
X191459Y388033D01*
X191445Y388004D01*
X191431Y387990D01*
X191344Y387918D01*
X191258Y387860D01*
X191158Y387817D01*
X191072Y387789D01*
X190986Y387774D01*
X190914Y387760D01*
X190856D01*
X190713Y387774D01*
X190569Y387803D01*
X190440Y387832D01*
X190326Y387889D01*
X190239Y387932D01*
X190153Y387961D01*
X190110Y387990D01*
X190096Y388004D01*
X189981Y388104D01*
X189895Y388219D01*
X189809Y388320D01*
X189751Y388434D01*
X189694Y388535D01*
X189665Y388607D01*
X189637Y388664D01*
Y388678D01*
X188029Y393386D01*
X185949D01*
X184470Y388176D01*
X184427Y388090D01*
X184384Y388018D01*
X184312Y387903D01*
X184255Y387846D01*
X184226Y387832D01*
X184111Y387789D01*
X183997Y387774D01*
X183896Y387760D01*
X183868D01*
X183724Y387774D01*
X183595Y387803D01*
X183466Y387832D01*
X183351Y387889D01*
X183265Y387932D01*
X183179Y387961D01*
X183136Y387990D01*
X183121Y388004D01*
X182992Y388119D01*
X182877Y388233D01*
X182791Y388348D01*
X182719Y388449D01*
X182662Y388549D01*
X182633Y388621D01*
X182605Y388664D01*
Y388678D01*
X182576Y388994D01*
Y389123D01*
X183954Y393386D01*
X184025D01*
X183796Y393400D01*
X183566Y393429D01*
X183337Y393472D01*
X183121Y393529D01*
X182705Y393672D01*
X182519Y393744D01*
X182332Y393830D01*
X182174Y393917D01*
X182031Y393988D01*
X181901Y394074D01*
X181787Y394132D01*
X181701Y394189D01*
X181643Y394232D01*
X181600Y394261D01*
X181586Y394275D01*
X181371Y394448D01*
X181170Y394620D01*
X180997Y394806D01*
X180825Y394978D01*
X180682Y395165D01*
X180553Y395337D01*
X180438Y395509D01*
X180323Y395682D01*
X180237Y395825D01*
X180165Y395969D01*
X180093Y396098D01*
X180050Y396198D01*
X180007Y396299D01*
X179979Y396356D01*
X179964Y396399D01*
Y396414D01*
X179003Y399226D01*
X178931Y399456D01*
X178888Y399671D01*
X178859Y399887D01*
Y400073D01*
X178873Y400446D01*
X178902Y400604D01*
X178931Y400748D01*
X178974Y400891D01*
X179017Y401006D01*
X179046Y401106D01*
X179089Y401193D01*
X179117Y401264D01*
X179146Y401307D01*
X179175Y401336D01*
Y401350D01*
X179290Y401508D01*
X179419Y401637D01*
X179562Y401767D01*
X179706Y401867D01*
X179849Y401953D01*
X180007Y402025D01*
X180308Y402125D01*
X180581Y402197D01*
X180696Y402211D01*
X180811Y402226D01*
X180897Y402240D01*
X185934D01*
X186092Y402226D01*
D02*
G37*
G36*
X171483D02*
X171798Y402183D01*
X172100Y402125D01*
X172387Y402053D01*
X172674Y401967D01*
X172932Y401867D01*
X173190Y401752D01*
X173420Y401652D01*
X173621Y401537D01*
X173808Y401422D01*
X173980Y401322D01*
X174109Y401236D01*
X174224Y401164D01*
X174296Y401106D01*
X174353Y401063D01*
X174367Y401049D01*
X174597Y400848D01*
X174812Y400633D01*
X174999Y400418D01*
X175171Y400202D01*
X175329Y399987D01*
X175487Y399786D01*
X175616Y399585D01*
X175716Y399384D01*
X175817Y399212D01*
X175903Y399040D01*
X175975Y398896D01*
X176032Y398767D01*
X176075Y398667D01*
X176104Y398595D01*
X176132Y398537D01*
Y398523D01*
X176218Y398222D01*
X176290Y397920D01*
X176333Y397648D01*
X176348Y397404D01*
X176362Y397203D01*
Y397045D01*
Y396988D01*
Y396945D01*
Y396930D01*
Y396916D01*
X176319Y396643D01*
X176262Y396414D01*
X176175Y396227D01*
X176089Y396083D01*
X176003Y395969D01*
X175946Y395883D01*
X175888Y395840D01*
X175874Y395825D01*
X176262Y395624D01*
X176620Y395395D01*
X176950Y395151D01*
X177237Y394907D01*
X177467Y394692D01*
X177553Y394591D01*
X177639Y394505D01*
X177697Y394448D01*
X177740Y394390D01*
X177768Y394361D01*
X177783Y394347D01*
X178070Y393960D01*
X178328Y393586D01*
X178529Y393228D01*
X178701Y392898D01*
X178773Y392740D01*
X178830Y392611D01*
X178888Y392496D01*
X178931Y392395D01*
X178960Y392309D01*
X178988Y392252D01*
X179003Y392209D01*
Y392194D01*
X179103Y391864D01*
X179175Y391534D01*
X179232Y391233D01*
X179261Y390946D01*
X179275Y390673D01*
X179261Y390429D01*
X179247Y390185D01*
X179203Y389970D01*
X179175Y389783D01*
X179132Y389611D01*
X179089Y389468D01*
X179046Y389353D01*
X179003Y389252D01*
X178974Y389181D01*
X178945Y389138D01*
Y389123D01*
X178787Y388879D01*
X178601Y388678D01*
X178386Y388492D01*
X178170Y388334D01*
X177926Y388205D01*
X177697Y388090D01*
X177453Y388004D01*
X177223Y387932D01*
X176993Y387875D01*
X176778Y387832D01*
X176592Y387803D01*
X176419Y387789D01*
X176290Y387774D01*
X176175Y387760D01*
X176089D01*
X175702Y387774D01*
X175329Y387817D01*
X174970Y387889D01*
X174625Y387961D01*
X174296Y388061D01*
X173994Y388176D01*
X173707Y388291D01*
X173449Y388420D01*
X173219Y388549D01*
X173018Y388664D01*
X172832Y388779D01*
X172674Y388879D01*
X172559Y388965D01*
X172473Y389023D01*
X172416Y389066D01*
X172401Y389080D01*
X172100Y389338D01*
X171827Y389611D01*
X171569Y389884D01*
X171339Y390142D01*
X171124Y390415D01*
X170952Y390673D01*
X170779Y390917D01*
X170636Y391161D01*
X170507Y391376D01*
X170406Y391577D01*
X170320Y391749D01*
X170249Y391907D01*
X170205Y392022D01*
X170162Y392123D01*
X170134Y392180D01*
Y392194D01*
X170019Y392611D01*
X169933Y393012D01*
X169890Y393386D01*
X169875Y393716D01*
Y393845D01*
Y393974D01*
Y394089D01*
X169890Y394189D01*
Y394261D01*
X169904Y394318D01*
Y394347D01*
Y394361D01*
X169990Y394720D01*
X170105Y395022D01*
X170249Y395266D01*
X170406Y395466D01*
X170550Y395624D01*
X170679Y395725D01*
X170765Y395797D01*
X170779Y395811D01*
X170794D01*
X170550Y395954D01*
X170320Y396127D01*
X170105Y396313D01*
X169918Y396485D01*
X169760Y396658D01*
X169646Y396787D01*
X169603Y396844D01*
X169574Y396887D01*
X169545Y396902D01*
Y396916D01*
X169344Y397203D01*
X169172Y397490D01*
X169014Y397763D01*
X168899Y398007D01*
X168799Y398222D01*
X168742Y398380D01*
X168713Y398437D01*
X168699Y398480D01*
X168684Y398509D01*
Y398523D01*
X168598Y398796D01*
X168541Y399054D01*
X168498Y399313D01*
X168483Y399542D01*
X168469Y399772D01*
X168483Y399973D01*
X168498Y400173D01*
X168526Y400346D01*
X168555Y400504D01*
X168584Y400647D01*
X168627Y400776D01*
X168655Y400877D01*
X168699Y400963D01*
X168713Y401020D01*
X168742Y401049D01*
Y401063D01*
X168885Y401264D01*
X169043Y401451D01*
X169215Y401609D01*
X169402Y401738D01*
X169603Y401853D01*
X169804Y401953D01*
X170005Y402025D01*
X170205Y402097D01*
X170392Y402140D01*
X170564Y402183D01*
X170736Y402211D01*
X170866Y402226D01*
X170995D01*
X171081Y402240D01*
X171153D01*
X171483Y402226D01*
D02*
G37*
G36*
X226593Y548438D02*
X226762Y548401D01*
X226912Y548363D01*
X227043Y548307D01*
X227156Y548232D01*
X227231Y548195D01*
X227287Y548157D01*
X227306Y548138D01*
X227474Y547988D01*
X227624Y547838D01*
X227737Y547670D01*
X227831Y547520D01*
X227906Y547388D01*
X227962Y547276D01*
X227980Y547201D01*
X227999Y547182D01*
X233604Y530743D01*
X233660Y530536D01*
X233679Y530349D01*
Y530199D01*
X233660Y530068D01*
X233623Y529974D01*
X233585Y529899D01*
X233567Y529862D01*
X233548Y529843D01*
X233435Y529749D01*
X233323Y529674D01*
X233192Y529618D01*
X233079Y529580D01*
X232967Y529562D01*
X232873Y529543D01*
X232798D01*
X232611Y529562D01*
X232423Y529599D01*
X232254Y529637D01*
X232104Y529712D01*
X231992Y529768D01*
X231880Y529805D01*
X231823Y529843D01*
X231805Y529862D01*
X231655Y529993D01*
X231542Y530124D01*
X231430Y530274D01*
X231355Y530405D01*
X231280Y530536D01*
X231242Y530630D01*
X231205Y530705D01*
Y530724D01*
X226912Y543321D01*
X224419Y530105D01*
X224344Y529918D01*
X224231Y529787D01*
X224100Y529674D01*
X223950Y529618D01*
X223800Y529580D01*
X223688Y529562D01*
X223613Y529543D01*
X223575D01*
X223388Y529562D01*
X223219Y529599D01*
X223107Y529618D01*
X223088Y529637D01*
X223069D01*
X222638Y529899D01*
X222469Y530049D01*
X222338Y530218D01*
X222226Y530387D01*
X222151Y530518D01*
X222076Y530649D01*
X222038Y530743D01*
X222001Y530818D01*
Y530836D01*
X216396Y547276D01*
X216340Y547482D01*
Y547651D01*
Y547801D01*
X216377Y547932D01*
X216415Y548045D01*
X216452Y548120D01*
X216471Y548157D01*
X216490Y548176D01*
X216602Y548270D01*
X216715Y548344D01*
X216846Y548382D01*
X216958Y548419D01*
X217052Y548438D01*
X217127Y548457D01*
X217202D01*
X217371Y548438D01*
X217558Y548401D01*
X217708Y548344D01*
X217858Y548288D01*
X217989Y548232D01*
X218083Y548176D01*
X218158Y548138D01*
X218177Y548120D01*
X218346Y547970D01*
X218477Y547820D01*
X218570Y547670D01*
X218664Y547538D01*
X218720Y547426D01*
X218758Y547332D01*
X218795Y547276D01*
Y547257D01*
X223088Y534679D01*
X225581Y547820D01*
X225656Y548026D01*
X225769Y548195D01*
X225919Y548307D01*
X226050Y548382D01*
X226200Y548419D01*
X226312Y548457D01*
X226425D01*
X226593Y548438D01*
D02*
G37*
G36*
X238647D02*
X238946Y548401D01*
X239246Y548344D01*
X239527Y548270D01*
X240071Y548082D01*
X240315Y547988D01*
X240558Y547876D01*
X240765Y547763D01*
X240952Y547670D01*
X241121Y547557D01*
X241271Y547482D01*
X241383Y547407D01*
X241458Y547351D01*
X241514Y547313D01*
X241533Y547295D01*
X241814Y547070D01*
X242058Y546845D01*
X242302Y546620D01*
X242508Y546376D01*
X242696Y546151D01*
X242864Y545908D01*
X243014Y545701D01*
X243145Y545476D01*
X243258Y545289D01*
X243352Y545102D01*
X243445Y544933D01*
X243501Y544802D01*
X243558Y544670D01*
X243595Y544595D01*
X243614Y544539D01*
Y544520D01*
X247382Y533498D01*
X247475Y533198D01*
X247532Y532898D01*
X247569Y532617D01*
X247588Y532355D01*
Y532111D01*
X247569Y531867D01*
X247532Y531661D01*
X247494Y531474D01*
X247438Y531286D01*
X247382Y531136D01*
X247344Y531005D01*
X247288Y530893D01*
X247251Y530799D01*
X247213Y530743D01*
X247176Y530705D01*
Y530686D01*
X247026Y530480D01*
X246838Y530312D01*
X246651Y530162D01*
X246463Y530030D01*
X246257Y529918D01*
X246070Y529824D01*
X245676Y529693D01*
X245320Y529599D01*
X245151Y529580D01*
X245020Y529562D01*
X244907Y529543D01*
X238328D01*
X238103Y529562D01*
X237915Y529599D01*
X237728Y529655D01*
X237578Y529730D01*
X237297Y529918D01*
X237072Y530143D01*
X236922Y530368D01*
X236810Y530555D01*
X236772Y530630D01*
X236753Y530686D01*
X236735Y530724D01*
Y530743D01*
X233604Y539928D01*
X233548Y540134D01*
X233510Y540322D01*
X233529Y540471D01*
X233548Y540603D01*
X233604Y540734D01*
X233679Y540828D01*
X233848Y540959D01*
X234035Y541053D01*
X234204Y541090D01*
X234279Y541109D01*
X236228D01*
X236435Y541090D01*
X236641Y541053D01*
X236810Y540978D01*
X236959Y540921D01*
X237091Y540846D01*
X237184Y540771D01*
X237241Y540734D01*
X237259Y540715D01*
X237409Y540565D01*
X237540Y540434D01*
X237634Y540303D01*
X237709Y540190D01*
X237766Y540078D01*
X237803Y540003D01*
X237840Y539947D01*
Y539928D01*
X237878Y539740D01*
X237897Y539572D01*
Y539422D01*
X237878Y539291D01*
X237859Y539197D01*
X237840Y539122D01*
X237803Y539066D01*
Y539047D01*
X237709Y538934D01*
X237597Y538859D01*
X237466Y538803D01*
X237353Y538766D01*
X237241Y538747D01*
X237147Y538728D01*
X236416D01*
X238722Y531924D01*
X243951D01*
X244158Y531942D01*
X244345Y531980D01*
X244420D01*
X244476Y531999D01*
X244495Y532017D01*
X244514D01*
X244683Y532130D01*
X244814Y532242D01*
X244889Y532336D01*
X244926Y532374D01*
X245001Y532542D01*
X245057Y532730D01*
X245076Y532917D01*
X245057Y533105D01*
X245039Y533255D01*
X245020Y533386D01*
X244982Y533461D01*
Y533498D01*
X241215Y544520D01*
X241121Y544745D01*
X241027Y544933D01*
X240971Y545008D01*
X240952Y545064D01*
X240915Y545102D01*
Y545120D01*
X240821Y545233D01*
X240727Y545345D01*
X240502Y545570D01*
X240409Y545664D01*
X240334Y545739D01*
X240277Y545776D01*
X240259Y545795D01*
X240071Y545889D01*
X239884Y545964D01*
X239696Y546001D01*
X239527Y546039D01*
X239378Y546058D01*
X239246Y546076D01*
X232704D01*
X232479Y546095D01*
X232292Y546133D01*
X232123Y546208D01*
X231954Y546283D01*
X231842Y546339D01*
X231748Y546414D01*
X231692Y546451D01*
X231673Y546470D01*
X231523Y546620D01*
X231392Y546770D01*
X231298Y546901D01*
X231223Y547014D01*
X231167Y547126D01*
X231130Y547201D01*
X231092Y547257D01*
Y547276D01*
X231055Y547445D01*
X231036Y547595D01*
X231055Y547726D01*
X231073Y547857D01*
X231111Y547951D01*
X231130Y548026D01*
X231148Y548063D01*
X231167Y548082D01*
X231261Y548213D01*
X231373Y548307D01*
X231505Y548363D01*
X231617Y548419D01*
X231730Y548438D01*
X231823Y548457D01*
X238328D01*
X238647Y548438D01*
D02*
G37*
G36*
X211860D02*
X212066Y548401D01*
X212253Y548344D01*
X212403Y548270D01*
X212684Y548082D01*
X212891Y547876D01*
X213059Y547651D01*
X213172Y547463D01*
X213209Y547388D01*
X213228Y547332D01*
X213247Y547295D01*
Y547276D01*
X218889Y530743D01*
X218945Y530536D01*
X218964Y530349D01*
Y530180D01*
X218927Y530049D01*
X218870Y529937D01*
X218814Y529843D01*
X218627Y529693D01*
X218439Y529599D01*
X218270Y529562D01*
X218195Y529543D01*
X211653D01*
X211353Y529562D01*
X211054Y529599D01*
X210754Y529655D01*
X210473Y529730D01*
X209929Y529918D01*
X209685Y530012D01*
X209442Y530124D01*
X209235Y530237D01*
X209048Y530330D01*
X208879Y530443D01*
X208729Y530518D01*
X208617Y530593D01*
X208542Y530649D01*
X208486Y530686D01*
X208467Y530705D01*
X208186Y530930D01*
X207923Y531155D01*
X207698Y531399D01*
X207473Y531624D01*
X207286Y531867D01*
X207117Y532092D01*
X206967Y532317D01*
X206836Y532542D01*
X206723Y532730D01*
X206630Y532917D01*
X206536Y533086D01*
X206480Y533217D01*
X206423Y533348D01*
X206386Y533423D01*
X206367Y533479D01*
Y533498D01*
X202600Y544520D01*
X202506Y544820D01*
X202449Y545102D01*
X202412Y545383D01*
Y545626D01*
X202431Y546114D01*
X202468Y546320D01*
X202506Y546507D01*
X202562Y546695D01*
X202618Y546845D01*
X202656Y546976D01*
X202712Y547089D01*
X202750Y547182D01*
X202787Y547239D01*
X202824Y547276D01*
Y547295D01*
X202974Y547501D01*
X203143Y547670D01*
X203331Y547838D01*
X203518Y547970D01*
X203706Y548082D01*
X203912Y548176D01*
X204305Y548307D01*
X204662Y548401D01*
X204811Y548419D01*
X204961Y548438D01*
X205074Y548457D01*
X211653D01*
X211860Y548438D01*
D02*
G37*
G36*
X165070Y571276D02*
X165228Y571233D01*
X165286Y571218D01*
X165329Y571190D01*
X165357Y571175D01*
X165372D01*
X165530Y571089D01*
X165673Y571003D01*
X165731Y570975D01*
X165774Y570946D01*
X165788Y570917D01*
X165802D01*
X169605Y568090D01*
X169734Y567975D01*
X169835Y567860D01*
X169907Y567760D01*
X169964Y567674D01*
X170007Y567588D01*
X170036Y567530D01*
X170065Y567487D01*
Y567473D01*
X170093Y567344D01*
X170108Y567215D01*
Y567100D01*
X170079Y566999D01*
X170065Y566913D01*
X170036Y566856D01*
X170021Y566813D01*
X170007Y566798D01*
X169921Y566712D01*
X169835Y566655D01*
X169734Y566598D01*
X169648Y566569D01*
X169562Y566554D01*
X169505Y566540D01*
X169447D01*
X169318Y566554D01*
X169189Y566583D01*
X169060Y566626D01*
X168960Y566684D01*
X168859Y566727D01*
X168787Y566770D01*
X168744Y566798D01*
X168730Y566813D01*
X166950Y568377D01*
X170610Y557614D01*
X170653Y557456D01*
X170667Y557327D01*
Y557212D01*
X170653Y557112D01*
X170624Y557040D01*
X170595Y556982D01*
X170581Y556954D01*
X170567Y556939D01*
X170481Y556867D01*
X170395Y556810D01*
X170294Y556767D01*
X170208Y556738D01*
X170122Y556724D01*
X170050Y556710D01*
X169993D01*
X169849Y556724D01*
X169706Y556753D01*
X169577Y556781D01*
X169462Y556839D01*
X169376Y556882D01*
X169290Y556911D01*
X169247Y556939D01*
X169232Y556954D01*
X169117Y557054D01*
X169031Y557169D01*
X168945Y557269D01*
X168888Y557384D01*
X168830Y557485D01*
X168802Y557556D01*
X168773Y557614D01*
Y557628D01*
X164453Y570286D01*
X164410Y570444D01*
X164396Y570587D01*
X164382Y570702D01*
X164396Y570802D01*
X164410Y570888D01*
X164425Y570946D01*
X164439Y570989D01*
Y571003D01*
X164525Y571104D01*
X164597Y571175D01*
X164683Y571218D01*
X164755Y571262D01*
X164812Y571276D01*
X164855Y571290D01*
X164898D01*
X165070Y571276D01*
D02*
G37*
G36*
X179307Y571175D02*
X179464Y571147D01*
X179608Y571104D01*
X179723Y571046D01*
X179938Y570903D01*
X180096Y570745D01*
X180225Y570573D01*
X180311Y570429D01*
X180340Y570372D01*
X180354Y570329D01*
X180369Y570300D01*
Y570286D01*
X184688Y557628D01*
X184731Y557470D01*
X184746Y557327D01*
Y557212D01*
X184731Y557112D01*
X184703Y557040D01*
X184674Y556982D01*
X184660Y556954D01*
X184645Y556939D01*
X184559Y556867D01*
X184473Y556810D01*
X184373Y556767D01*
X184286Y556738D01*
X184200Y556724D01*
X184128Y556710D01*
X184071D01*
X183928Y556724D01*
X183784Y556753D01*
X183655Y556781D01*
X183540Y556839D01*
X183454Y556882D01*
X183368Y556911D01*
X183325Y556939D01*
X183311Y556954D01*
X183196Y557054D01*
X183110Y557169D01*
X183023Y557269D01*
X182966Y557384D01*
X182909Y557485D01*
X182880Y557556D01*
X182851Y557614D01*
Y557628D01*
X181244Y562335D01*
X179163D01*
X177685Y557126D01*
X177642Y557040D01*
X177599Y556968D01*
X177527Y556853D01*
X177470Y556796D01*
X177441Y556781D01*
X177326Y556738D01*
X177211Y556724D01*
X177111Y556710D01*
X177082D01*
X176939Y556724D01*
X176810Y556753D01*
X176680Y556781D01*
X176566Y556839D01*
X176479Y556882D01*
X176393Y556911D01*
X176350Y556939D01*
X176336Y556954D01*
X176207Y557068D01*
X176092Y557183D01*
X176006Y557298D01*
X175934Y557398D01*
X175877Y557499D01*
X175848Y557571D01*
X175819Y557614D01*
Y557628D01*
X175791Y557944D01*
Y558073D01*
X177168Y562335D01*
X177240D01*
X177010Y562350D01*
X176781Y562378D01*
X176551Y562421D01*
X176336Y562479D01*
X175920Y562622D01*
X175733Y562694D01*
X175547Y562780D01*
X175389Y562866D01*
X175245Y562938D01*
X175116Y563024D01*
X175001Y563082D01*
X174915Y563139D01*
X174858Y563182D01*
X174815Y563211D01*
X174800Y563225D01*
X174585Y563397D01*
X174384Y563569D01*
X174212Y563756D01*
X174040Y563928D01*
X173896Y564115D01*
X173767Y564287D01*
X173652Y564459D01*
X173538Y564631D01*
X173451Y564775D01*
X173380Y564919D01*
X173308Y565048D01*
X173265Y565148D01*
X173222Y565248D01*
X173193Y565306D01*
X173179Y565349D01*
Y565363D01*
X172217Y568176D01*
X172146Y568406D01*
X172102Y568621D01*
X172074Y568836D01*
Y569023D01*
X172088Y569396D01*
X172117Y569554D01*
X172146Y569697D01*
X172188Y569841D01*
X172232Y569956D01*
X172260Y570056D01*
X172303Y570142D01*
X172332Y570214D01*
X172361Y570257D01*
X172389Y570286D01*
Y570300D01*
X172504Y570458D01*
X172633Y570587D01*
X172777Y570716D01*
X172920Y570817D01*
X173064Y570903D01*
X173222Y570975D01*
X173523Y571075D01*
X173796Y571147D01*
X173911Y571161D01*
X174025Y571175D01*
X174111Y571190D01*
X179149D01*
X179307Y571175D01*
D02*
G37*
G36*
X158699D02*
X158957Y571147D01*
X159201Y571104D01*
X159445Y571032D01*
X159904Y570874D01*
X160119Y570788D01*
X160306Y570688D01*
X160492Y570601D01*
X160650Y570501D01*
X160794Y570415D01*
X160909Y570343D01*
X161009Y570271D01*
X161081Y570228D01*
X161124Y570200D01*
X161138Y570185D01*
X161368Y569999D01*
X161583Y569798D01*
X161784Y569611D01*
X161956Y569410D01*
X162114Y569209D01*
X162258Y569023D01*
X162387Y568836D01*
X162487Y568664D01*
X162588Y568506D01*
X162659Y568348D01*
X162731Y568219D01*
X162789Y568104D01*
X162832Y568018D01*
X162846Y567947D01*
X162875Y567904D01*
Y567889D01*
X165558Y560010D01*
X165630Y559752D01*
X165688Y559508D01*
X165716Y559278D01*
X165731Y559049D01*
Y558848D01*
X165716Y558661D01*
X165688Y558475D01*
X165644Y558317D01*
X165616Y558159D01*
X165558Y558030D01*
X165515Y557929D01*
X165472Y557829D01*
X165443Y557757D01*
X165415Y557700D01*
X165386Y557671D01*
Y557657D01*
X165257Y557485D01*
X165114Y557341D01*
X164956Y557212D01*
X164798Y557112D01*
X164625Y557011D01*
X164453Y556939D01*
X164138Y556824D01*
X163836Y556767D01*
X163707Y556738D01*
X163592Y556724D01*
X163506Y556710D01*
X162530D01*
X162272Y556724D01*
X162014Y556753D01*
X161770Y556796D01*
X161526Y556867D01*
X161081Y557025D01*
X160866Y557112D01*
X160679Y557198D01*
X160507Y557284D01*
X160349Y557384D01*
X160205Y557456D01*
X160091Y557528D01*
X159990Y557599D01*
X159918Y557643D01*
X159875Y557671D01*
X159861Y557686D01*
X159631Y557872D01*
X159416Y558073D01*
X159215Y558274D01*
X159029Y558461D01*
X158871Y558661D01*
X158727Y558862D01*
X158598Y559049D01*
X158483Y559221D01*
X158397Y559379D01*
X158311Y559537D01*
X158239Y559666D01*
X158182Y559781D01*
X158153Y559881D01*
X158125Y559953D01*
X158096Y559996D01*
Y560010D01*
X155412Y567889D01*
X155340Y568147D01*
X155283Y568377D01*
X155254Y568607D01*
Y568822D01*
Y569037D01*
X155269Y569224D01*
X155297Y569396D01*
X155340Y569568D01*
X155384Y569712D01*
X155427Y569841D01*
X155470Y569956D01*
X155513Y570042D01*
X155556Y570113D01*
X155584Y570171D01*
X155599Y570200D01*
X155613Y570214D01*
X155742Y570386D01*
X155886Y570530D01*
X156044Y570673D01*
X156201Y570774D01*
X156359Y570874D01*
X156532Y570946D01*
X156847Y571075D01*
X157149Y571132D01*
X157278Y571161D01*
X157393Y571175D01*
X157479Y571190D01*
X158440D01*
X158699Y571175D01*
D02*
G37*
G36*
X174279Y552226D02*
X174509Y552197D01*
X174738Y552154D01*
X174954Y552097D01*
X175370Y551953D01*
X175556Y551881D01*
X175743Y551795D01*
X175901Y551709D01*
X176044Y551637D01*
X176173Y551551D01*
X176288Y551494D01*
X176374Y551436D01*
X176432Y551393D01*
X176475Y551365D01*
X176489Y551350D01*
X176705Y551178D01*
X176891Y551006D01*
X177078Y550834D01*
X177236Y550647D01*
X177379Y550475D01*
X177508Y550288D01*
X177623Y550131D01*
X177723Y549958D01*
X177810Y549815D01*
X177881Y549671D01*
X177953Y549542D01*
X177996Y549442D01*
X178039Y549341D01*
X178068Y549284D01*
X178082Y549241D01*
Y549226D01*
X180967Y540788D01*
X181038Y540558D01*
X181082Y540329D01*
X181110Y540113D01*
X181125Y539913D01*
Y539726D01*
X181110Y539539D01*
X181082Y539382D01*
X181053Y539238D01*
X181010Y539095D01*
X180967Y538980D01*
X180938Y538879D01*
X180895Y538793D01*
X180866Y538722D01*
X180838Y538678D01*
X180809Y538650D01*
Y538635D01*
X180694Y538478D01*
X180551Y538348D01*
X180421Y538233D01*
X180264Y538133D01*
X180120Y538047D01*
X179962Y537975D01*
X179661Y537875D01*
X179388Y537803D01*
X179273Y537789D01*
X179173Y537774D01*
X179087Y537760D01*
X175456D01*
X175284Y537774D01*
X175140Y537803D01*
X175011Y537860D01*
X174882Y537918D01*
X174796Y537961D01*
X174724Y538018D01*
X174681Y538047D01*
X174667Y538061D01*
X174552Y538176D01*
X174451Y538291D01*
X174380Y538391D01*
X174308Y538478D01*
X174265Y538564D01*
X174236Y538621D01*
X174222Y538664D01*
Y538678D01*
X174193Y538808D01*
X174179Y538922D01*
X174193Y539023D01*
X174207Y539123D01*
X174236Y539195D01*
X174251Y539252D01*
X174265Y539281D01*
X174279Y539296D01*
X174351Y539396D01*
X174437Y539468D01*
X174523Y539511D01*
X174609Y539554D01*
X174695Y539568D01*
X174767Y539582D01*
X178340D01*
X178513Y539597D01*
X178642Y539626D01*
X178699D01*
X178742Y539640D01*
X178771Y539654D01*
X178785D01*
X178900Y539740D01*
X179001Y539827D01*
X179058Y539898D01*
X179087Y539927D01*
X179144Y540056D01*
X179187Y540200D01*
X179202Y540343D01*
X179187Y540487D01*
X179173Y540601D01*
X179158Y540702D01*
X179130Y540759D01*
Y540788D01*
X176245Y549226D01*
X176173Y549399D01*
X176102Y549542D01*
X176059Y549599D01*
X176044Y549643D01*
X176016Y549671D01*
Y549686D01*
X175944Y549772D01*
X175872Y549858D01*
X175700Y550030D01*
X175628Y550102D01*
X175571Y550159D01*
X175528Y550202D01*
X175513Y550217D01*
X175370Y550288D01*
X175226Y550331D01*
X175083Y550374D01*
X174954Y550389D01*
X174839Y550403D01*
X174738Y550418D01*
X171136D01*
X170978Y550432D01*
X170821Y550461D01*
X170691Y550518D01*
X170577Y550575D01*
X170490Y550618D01*
X170419Y550676D01*
X170376Y550704D01*
X170361Y550719D01*
X170247Y550834D01*
X170146Y550948D01*
X170074Y551049D01*
X170003Y551135D01*
X169960Y551221D01*
X169931Y551279D01*
X169916Y551322D01*
Y551336D01*
X169888Y551465D01*
X169873Y551580D01*
Y551680D01*
X169888Y551781D01*
X169916Y551853D01*
X169931Y551910D01*
X169945Y551939D01*
X169960Y551953D01*
X170031Y552053D01*
X170117Y552125D01*
X170218Y552168D01*
X170304Y552211D01*
X170390Y552226D01*
X170462Y552240D01*
X174035D01*
X174279Y552226D01*
D02*
G37*
G36*
X166530Y552197D02*
X166673Y552168D01*
X166802Y552111D01*
X166917Y552068D01*
X167018Y552010D01*
X167089Y551953D01*
X167132Y551924D01*
X167147Y551910D01*
X167262Y551795D01*
X167362Y551695D01*
X167434Y551594D01*
X167491Y551508D01*
X167534Y551422D01*
X167563Y551365D01*
X167592Y551322D01*
Y551307D01*
X167620Y551164D01*
X167635Y551035D01*
Y550920D01*
X167620Y550819D01*
X167606Y550748D01*
X167592Y550690D01*
X167563Y550647D01*
Y550633D01*
X167491Y550547D01*
X167405Y550489D01*
X167305Y550446D01*
X167218Y550418D01*
X167132Y550403D01*
X167061Y550389D01*
X164176D01*
X163875Y550360D01*
X163616Y550303D01*
X163401Y550202D01*
X163243Y550102D01*
X163114Y550001D01*
X163028Y549901D01*
X162985Y549843D01*
X162971Y549815D01*
X162885Y549614D01*
X162856Y549413D01*
X162841Y549198D01*
X162856Y548997D01*
X162885Y548825D01*
X162913Y548681D01*
X162927Y548624D01*
X162942Y548581D01*
X162956Y548566D01*
Y548552D01*
X163071Y548265D01*
X163215Y548007D01*
X163372Y547763D01*
X163530Y547576D01*
X163659Y547404D01*
X163774Y547289D01*
X163860Y547217D01*
X163875Y547188D01*
X163889D01*
X164162Y547002D01*
X164449Y546858D01*
X164707Y546758D01*
X164951Y546686D01*
X165152Y546643D01*
X165310Y546629D01*
X165367Y546614D01*
X166860D01*
X167032Y546600D01*
X167190Y546571D01*
X167319Y546514D01*
X167434Y546471D01*
X167534Y546414D01*
X167606Y546356D01*
X167649Y546328D01*
X167663Y546313D01*
X167778Y546198D01*
X167864Y546098D01*
X167950Y545997D01*
X168008Y545897D01*
X168051Y545825D01*
X168079Y545768D01*
X168094Y545725D01*
Y545710D01*
X168123Y545581D01*
X168137Y545452D01*
Y545337D01*
X168123Y545237D01*
X168108Y545151D01*
X168094Y545093D01*
X168079Y545050D01*
Y545036D01*
X167993Y544950D01*
X167907Y544892D01*
X167807Y544849D01*
X167721Y544821D01*
X167635Y544806D01*
X167563Y544792D01*
X166085D01*
X165798Y544763D01*
X165568Y544706D01*
X165367Y544605D01*
X165195Y544505D01*
X165080Y544404D01*
X164994Y544304D01*
X164937Y544247D01*
X164922Y544218D01*
X164865Y544117D01*
X164822Y544003D01*
X164750Y543773D01*
X164736Y543558D01*
X164750Y543343D01*
X164764Y543170D01*
X164793Y543027D01*
X164807Y542969D01*
X164822Y542926D01*
X164836Y542912D01*
Y542898D01*
X165310Y541491D01*
X165425Y541204D01*
X165583Y540946D01*
X165755Y540702D01*
X165927Y540515D01*
X166085Y540343D01*
X166214Y540228D01*
X166300Y540157D01*
X166314Y540128D01*
X166329D01*
X166601Y539941D01*
X166874Y539812D01*
X167132Y539712D01*
X167362Y539654D01*
X167563Y539611D01*
X167721Y539597D01*
X167778Y539582D01*
X170663D01*
X170835Y539568D01*
X170978Y539539D01*
X171122Y539482D01*
X171237Y539439D01*
X171337Y539382D01*
X171409Y539324D01*
X171452Y539296D01*
X171466Y539281D01*
X171581Y539166D01*
X171667Y539066D01*
X171753Y538965D01*
X171811Y538865D01*
X171854Y538793D01*
X171883Y538736D01*
X171897Y538693D01*
Y538678D01*
X171926Y538549D01*
X171940Y538420D01*
Y538305D01*
X171926Y538205D01*
X171911Y538119D01*
X171897Y538061D01*
X171883Y538018D01*
Y538004D01*
X171796Y537918D01*
X171710Y537860D01*
X171610Y537817D01*
X171509Y537789D01*
X171423Y537774D01*
X171352Y537760D01*
X168467D01*
X168180Y537774D01*
X167893Y537803D01*
X167620Y537860D01*
X167348Y537932D01*
X166845Y538104D01*
X166616Y538205D01*
X166386Y538305D01*
X166185Y538406D01*
X166013Y538506D01*
X165855Y538592D01*
X165726Y538678D01*
X165611Y538750D01*
X165539Y538808D01*
X165482Y538836D01*
X165468Y538851D01*
X165195Y539066D01*
X164951Y539281D01*
X164736Y539511D01*
X164535Y539726D01*
X164348Y539956D01*
X164190Y540171D01*
X164047Y540386D01*
X163918Y540587D01*
X163803Y540774D01*
X163717Y540946D01*
X163631Y541104D01*
X163573Y541233D01*
X163530Y541348D01*
X163502Y541419D01*
X163473Y541477D01*
Y541491D01*
X162999Y542898D01*
X162899Y543213D01*
X162841Y543529D01*
X162813Y543802D01*
Y544046D01*
Y544261D01*
X162827Y544419D01*
Y544476D01*
X162841Y544519D01*
Y544534D01*
Y544548D01*
X162913Y544821D01*
X162985Y545050D01*
X163085Y545251D01*
X163186Y545409D01*
X163272Y545524D01*
X163344Y545610D01*
X163401Y545653D01*
X163416Y545667D01*
X163129Y545840D01*
X162856Y546040D01*
X162612Y546241D01*
X162397Y546428D01*
X162239Y546600D01*
X162110Y546729D01*
X162052Y546787D01*
X162023Y546830D01*
X161995Y546844D01*
Y546858D01*
X161779Y547146D01*
X161593Y547447D01*
X161435Y547719D01*
X161306Y547978D01*
X161205Y548193D01*
X161162Y548294D01*
X161134Y548365D01*
X161105Y548437D01*
X161091Y548480D01*
X161076Y548509D01*
Y548523D01*
X160990Y548796D01*
X160933Y549054D01*
X160904Y549313D01*
X160875Y549557D01*
Y549786D01*
X160890Y550001D01*
X160918Y550202D01*
X160947Y550389D01*
X160976Y550561D01*
X161019Y550704D01*
X161062Y550834D01*
X161105Y550948D01*
X161134Y551035D01*
X161162Y551092D01*
X161177Y551135D01*
X161191Y551149D01*
X161320Y551336D01*
X161464Y551494D01*
X161636Y551637D01*
X161822Y551767D01*
X162009Y551867D01*
X162210Y551953D01*
X162411Y552025D01*
X162612Y552082D01*
X162798Y552125D01*
X162971Y552154D01*
X163129Y552183D01*
X163272Y552197D01*
X163387Y552211D01*
X166372D01*
X166530Y552197D01*
D02*
G37*
G36*
X126782Y521276D02*
X126940Y521233D01*
X126997Y521218D01*
X127040Y521190D01*
X127069Y521175D01*
X127084D01*
X127241Y521089D01*
X127385Y521003D01*
X127442Y520975D01*
X127485Y520946D01*
X127500Y520917D01*
X127514D01*
X131317Y518090D01*
X131446Y517975D01*
X131547Y517860D01*
X131618Y517760D01*
X131676Y517674D01*
X131719Y517588D01*
X131748Y517530D01*
X131776Y517487D01*
Y517473D01*
X131805Y517344D01*
X131819Y517215D01*
Y517100D01*
X131791Y516999D01*
X131776Y516913D01*
X131748Y516856D01*
X131733Y516813D01*
X131719Y516798D01*
X131633Y516712D01*
X131547Y516655D01*
X131446Y516598D01*
X131360Y516569D01*
X131274Y516554D01*
X131217Y516540D01*
X131159D01*
X131030Y516554D01*
X130901Y516583D01*
X130772Y516626D01*
X130671Y516684D01*
X130571Y516727D01*
X130499Y516770D01*
X130456Y516798D01*
X130442Y516813D01*
X128662Y518377D01*
X132322Y507614D01*
X132365Y507456D01*
X132379Y507327D01*
Y507212D01*
X132365Y507112D01*
X132336Y507040D01*
X132307Y506982D01*
X132293Y506954D01*
X132278Y506939D01*
X132192Y506867D01*
X132106Y506810D01*
X132006Y506767D01*
X131920Y506738D01*
X131834Y506724D01*
X131762Y506710D01*
X131705D01*
X131561Y506724D01*
X131418Y506753D01*
X131288Y506781D01*
X131173Y506839D01*
X131087Y506882D01*
X131001Y506911D01*
X130958Y506939D01*
X130944Y506954D01*
X130829Y507054D01*
X130743Y507169D01*
X130657Y507269D01*
X130599Y507384D01*
X130542Y507485D01*
X130513Y507556D01*
X130485Y507614D01*
Y507628D01*
X126165Y520286D01*
X126122Y520444D01*
X126108Y520587D01*
X126093Y520702D01*
X126108Y520802D01*
X126122Y520888D01*
X126136Y520946D01*
X126151Y520989D01*
Y521003D01*
X126237Y521104D01*
X126308Y521175D01*
X126395Y521218D01*
X126466Y521262D01*
X126524Y521276D01*
X126567Y521290D01*
X126610D01*
X126782Y521276D01*
D02*
G37*
G36*
X142367Y521175D02*
X142511Y521147D01*
X142640Y521089D01*
X142755Y521046D01*
X142855Y520989D01*
X142927Y520932D01*
X142970Y520903D01*
X142984Y520888D01*
X143099Y520774D01*
X143200Y520673D01*
X143271Y520573D01*
X143329Y520472D01*
X143372Y520401D01*
X143401Y520343D01*
X143429Y520300D01*
Y520286D01*
X143458Y520157D01*
X143472Y520027D01*
Y519913D01*
X143458Y519812D01*
X143444Y519726D01*
X143429Y519669D01*
X143415Y519626D01*
Y519611D01*
X143329Y519525D01*
X143243Y519468D01*
X143142Y519425D01*
X143042Y519396D01*
X142956Y519382D01*
X142884Y519367D01*
X135924D01*
X147433Y508102D01*
X147548Y507973D01*
X147634Y507858D01*
X147720Y507743D01*
X147778Y507657D01*
X147821Y507585D01*
X147849Y507528D01*
X147864Y507499D01*
Y507485D01*
X147892Y507355D01*
X147907Y507226D01*
X147892Y507126D01*
X147864Y507040D01*
X147806Y506968D01*
X147749Y506896D01*
X147591Y506810D01*
X147433Y506753D01*
X147275Y506724D01*
X147218Y506710D01*
X138693D01*
X138521Y506724D01*
X138378Y506753D01*
X138249Y506810D01*
X138119Y506867D01*
X138033Y506911D01*
X137962Y506968D01*
X137919Y506997D01*
X137904Y507011D01*
X137789Y507126D01*
X137689Y507241D01*
X137617Y507341D01*
X137560Y507427D01*
X137517Y507513D01*
X137488Y507571D01*
X137459Y507614D01*
Y507628D01*
X137430Y507743D01*
X137416Y507858D01*
Y507958D01*
X137430Y508044D01*
X137459Y508130D01*
X137474Y508188D01*
X137502Y508217D01*
Y508231D01*
X137574Y508331D01*
X137646Y508403D01*
X137746Y508461D01*
X137847Y508489D01*
X137933Y508518D01*
X138005Y508532D01*
X144965D01*
X133470Y519769D01*
X133341Y519898D01*
X133254Y520027D01*
X133168Y520142D01*
X133111Y520228D01*
X133068Y520314D01*
X133039Y520372D01*
X133025Y520401D01*
Y520415D01*
X132996Y520558D01*
X132982Y520673D01*
X132996Y520774D01*
X133025Y520860D01*
X133082Y520932D01*
X133140Y521003D01*
X133297Y521089D01*
X133455Y521147D01*
X133599Y521175D01*
X133671Y521190D01*
X142195D01*
X142367Y521175D01*
D02*
G37*
G36*
X164408Y447226D02*
X164638Y447197D01*
X164868Y447154D01*
X165083Y447097D01*
X165499Y446953D01*
X165686Y446881D01*
X165872Y446795D01*
X166030Y446709D01*
X166173Y446637D01*
X166303Y446551D01*
X166418Y446494D01*
X166504Y446436D01*
X166561Y446393D01*
X166604Y446365D01*
X166618Y446350D01*
X166834Y446178D01*
X167020Y446006D01*
X167207Y445834D01*
X167365Y445647D01*
X167508Y445475D01*
X167637Y445288D01*
X167752Y445131D01*
X167853Y444958D01*
X167939Y444815D01*
X168011Y444671D01*
X168082Y444542D01*
X168125Y444442D01*
X168168Y444341D01*
X168197Y444284D01*
X168211Y444241D01*
Y444226D01*
X171096Y435788D01*
X171168Y435558D01*
X171211Y435329D01*
X171239Y435113D01*
X171254Y434913D01*
Y434726D01*
X171239Y434539D01*
X171211Y434382D01*
X171182Y434238D01*
X171139Y434095D01*
X171096Y433980D01*
X171067Y433879D01*
X171024Y433793D01*
X170996Y433722D01*
X170967Y433678D01*
X170938Y433650D01*
Y433635D01*
X170823Y433478D01*
X170680Y433348D01*
X170551Y433233D01*
X170393Y433133D01*
X170249Y433047D01*
X170091Y432975D01*
X169790Y432875D01*
X169517Y432803D01*
X169403Y432789D01*
X169302Y432774D01*
X169216Y432760D01*
X165585D01*
X165413Y432774D01*
X165269Y432803D01*
X165140Y432860D01*
X165011Y432918D01*
X164925Y432961D01*
X164853Y433018D01*
X164810Y433047D01*
X164796Y433061D01*
X164681Y433176D01*
X164581Y433291D01*
X164509Y433391D01*
X164437Y433478D01*
X164394Y433564D01*
X164365Y433621D01*
X164351Y433664D01*
Y433678D01*
X164322Y433808D01*
X164308Y433922D01*
X164322Y434023D01*
X164337Y434123D01*
X164365Y434195D01*
X164380Y434252D01*
X164394Y434281D01*
X164408Y434296D01*
X164480Y434396D01*
X164566Y434468D01*
X164652Y434511D01*
X164738Y434554D01*
X164825Y434568D01*
X164896Y434582D01*
X168470D01*
X168642Y434597D01*
X168771Y434626D01*
X168829D01*
X168871Y434640D01*
X168900Y434654D01*
X168915D01*
X169029Y434740D01*
X169130Y434827D01*
X169187Y434898D01*
X169216Y434927D01*
X169273Y435056D01*
X169316Y435200D01*
X169331Y435343D01*
X169316Y435487D01*
X169302Y435601D01*
X169288Y435702D01*
X169259Y435759D01*
Y435788D01*
X166374Y444226D01*
X166303Y444399D01*
X166231Y444542D01*
X166188Y444599D01*
X166173Y444643D01*
X166145Y444671D01*
Y444686D01*
X166073Y444772D01*
X166001Y444858D01*
X165829Y445030D01*
X165757Y445102D01*
X165700Y445159D01*
X165657Y445202D01*
X165643Y445217D01*
X165499Y445288D01*
X165355Y445331D01*
X165212Y445374D01*
X165083Y445389D01*
X164968Y445403D01*
X164868Y445418D01*
X161266D01*
X161108Y445432D01*
X160950Y445461D01*
X160821Y445518D01*
X160706Y445575D01*
X160620Y445618D01*
X160548Y445676D01*
X160505Y445704D01*
X160490Y445719D01*
X160376Y445834D01*
X160275Y445948D01*
X160203Y446049D01*
X160132Y446135D01*
X160089Y446221D01*
X160060Y446279D01*
X160046Y446322D01*
Y446336D01*
X160017Y446465D01*
X160003Y446580D01*
Y446680D01*
X160017Y446781D01*
X160046Y446853D01*
X160060Y446910D01*
X160074Y446939D01*
X160089Y446953D01*
X160161Y447053D01*
X160247Y447125D01*
X160347Y447168D01*
X160433Y447211D01*
X160519Y447226D01*
X160591Y447240D01*
X164164D01*
X164408Y447226D01*
D02*
G37*
G36*
X154535D02*
X154779Y447197D01*
X154994Y447154D01*
X155224Y447097D01*
X155640Y446953D01*
X155827Y446881D01*
X155999Y446795D01*
X156171Y446709D01*
X156314Y446637D01*
X156444Y446551D01*
X156558Y446494D01*
X156644Y446436D01*
X156702Y446393D01*
X156745Y446365D01*
X156759Y446350D01*
X156974Y446178D01*
X157161Y446006D01*
X157348Y445819D01*
X157506Y445647D01*
X157649Y445461D01*
X157778Y445288D01*
X157893Y445116D01*
X157993Y444958D01*
X158080Y444800D01*
X158151Y444671D01*
X158223Y444542D01*
X158266Y444427D01*
X158309Y444341D01*
X158338Y444284D01*
X158352Y444241D01*
Y444226D01*
X159314Y441414D01*
X159385Y441184D01*
X159429Y440954D01*
X159457Y440739D01*
X159472Y440524D01*
Y440337D01*
X159457Y440165D01*
X159429Y439993D01*
X159400Y439849D01*
X159357Y439706D01*
X159328Y439591D01*
X159285Y439491D01*
X159242Y439404D01*
X159213Y439333D01*
X159185Y439290D01*
X159156Y439261D01*
Y439247D01*
X159027Y439089D01*
X158898Y438960D01*
X158754Y438845D01*
X158611Y438744D01*
X158453Y438673D01*
X158309Y438601D01*
X158008Y438500D01*
X157735Y438429D01*
X157620Y438414D01*
X157520Y438400D01*
X157434Y438386D01*
X154994D01*
X155281Y438055D01*
X155654Y437524D01*
X155970Y437137D01*
X156300Y436778D01*
X156630Y436434D01*
X156931Y436147D01*
X157061Y436018D01*
X157190Y435888D01*
X157305Y435788D01*
X157405Y435702D01*
X157477Y435644D01*
X157549Y435587D01*
X157577Y435558D01*
X157592Y435544D01*
X157936Y435343D01*
X158108Y435243D01*
X158252Y435157D01*
X158395Y435085D01*
X158496Y435027D01*
X158553Y434999D01*
X158582Y434984D01*
X158984Y434783D01*
X159170Y434697D01*
X159342Y434640D01*
X159486Y434582D01*
X159601Y434539D01*
X159672Y434511D01*
X159701Y434496D01*
X159830Y434439D01*
X159945Y434367D01*
X160046Y434310D01*
X160132Y434252D01*
X160189Y434195D01*
X160232Y434166D01*
X160261Y434138D01*
X160275Y434123D01*
X160390Y433980D01*
X160476Y433836D01*
X160505Y433793D01*
X160519Y433750D01*
X160534Y433722D01*
Y433707D01*
X160562Y433578D01*
X160577Y433449D01*
Y433334D01*
X160562Y433233D01*
X160534Y433162D01*
X160519Y433104D01*
X160490Y433061D01*
Y433047D01*
X160419Y432947D01*
X160333Y432875D01*
X160232Y432832D01*
X160146Y432803D01*
X160074Y432774D01*
X160003Y432760D01*
X159945D01*
X159572Y432817D01*
X158998Y433047D01*
X158453Y433305D01*
X158194Y433434D01*
X157950Y433578D01*
X157721Y433707D01*
X157506Y433836D01*
X157319Y433951D01*
X157132Y434066D01*
X156989Y434166D01*
X156860Y434252D01*
X156759Y434324D01*
X156673Y434382D01*
X156630Y434410D01*
X156616Y434425D01*
X156114Y434841D01*
X155640Y435271D01*
X155209Y435716D01*
X155023Y435917D01*
X154851Y436118D01*
X154678Y436305D01*
X154535Y436477D01*
X154420Y436620D01*
X154320Y436749D01*
X154234Y436864D01*
X154162Y436936D01*
X154133Y436993D01*
X154119Y437008D01*
X153875Y437324D01*
X153645Y437639D01*
X153444Y437955D01*
X153243Y438271D01*
X153057Y438586D01*
X152899Y438902D01*
X152741Y439189D01*
X152612Y439476D01*
X152497Y439734D01*
X152382Y439964D01*
X152296Y440179D01*
X152224Y440366D01*
X152167Y440509D01*
X152124Y440624D01*
X152110Y440682D01*
X152095Y440710D01*
X150890Y444226D01*
X150818Y444456D01*
X150775Y444671D01*
X150746Y444887D01*
Y445073D01*
X150761Y445446D01*
X150789Y445604D01*
X150818Y445748D01*
X150861Y445891D01*
X150904Y446006D01*
X150933Y446106D01*
X150976Y446193D01*
X151004Y446264D01*
X151033Y446307D01*
X151062Y446336D01*
Y446350D01*
X151177Y446508D01*
X151306Y446637D01*
X151449Y446767D01*
X151593Y446867D01*
X151736Y446953D01*
X151894Y447025D01*
X152196Y447125D01*
X152468Y447197D01*
X152583Y447211D01*
X152698Y447226D01*
X152784Y447240D01*
X154305D01*
X154535Y447226D01*
D02*
G37*
G36*
X90519Y478276D02*
X90676Y478233D01*
X90734Y478219D01*
X90777Y478190D01*
X90806Y478176D01*
X90820D01*
X90978Y478089D01*
X91121Y478003D01*
X91179Y477975D01*
X91222Y477946D01*
X91236Y477917D01*
X91250D01*
X95054Y475090D01*
X95183Y474975D01*
X95283Y474860D01*
X95355Y474760D01*
X95412Y474674D01*
X95455Y474588D01*
X95484Y474530D01*
X95513Y474487D01*
Y474473D01*
X95541Y474344D01*
X95556Y474215D01*
Y474100D01*
X95527Y473999D01*
X95513Y473913D01*
X95484Y473856D01*
X95470Y473813D01*
X95455Y473798D01*
X95369Y473712D01*
X95283Y473655D01*
X95183Y473597D01*
X95097Y473569D01*
X95010Y473554D01*
X94953Y473540D01*
X94896D01*
X94767Y473554D01*
X94637Y473583D01*
X94508Y473626D01*
X94408Y473684D01*
X94307Y473727D01*
X94235Y473770D01*
X94192Y473798D01*
X94178Y473813D01*
X92399Y475377D01*
X96058Y464614D01*
X96101Y464456D01*
X96116Y464327D01*
Y464212D01*
X96101Y464112D01*
X96072Y464040D01*
X96044Y463982D01*
X96029Y463954D01*
X96015Y463939D01*
X95929Y463868D01*
X95843Y463810D01*
X95742Y463767D01*
X95656Y463738D01*
X95570Y463724D01*
X95498Y463710D01*
X95441D01*
X95297Y463724D01*
X95154Y463753D01*
X95025Y463781D01*
X94910Y463839D01*
X94824Y463882D01*
X94738Y463911D01*
X94695Y463939D01*
X94680Y463954D01*
X94565Y464054D01*
X94479Y464169D01*
X94393Y464269D01*
X94336Y464384D01*
X94278Y464485D01*
X94250Y464556D01*
X94221Y464614D01*
Y464628D01*
X89902Y477286D01*
X89858Y477444D01*
X89844Y477587D01*
X89830Y477702D01*
X89844Y477802D01*
X89858Y477888D01*
X89873Y477946D01*
X89887Y477989D01*
Y478003D01*
X89973Y478104D01*
X90045Y478176D01*
X90131Y478219D01*
X90203Y478262D01*
X90260Y478276D01*
X90303Y478290D01*
X90346D01*
X90519Y478276D01*
D02*
G37*
G36*
X101325Y478176D02*
X101554Y478147D01*
X101784Y478104D01*
X101999Y478046D01*
X102416Y477903D01*
X102602Y477831D01*
X102789Y477745D01*
X102947Y477659D01*
X103090Y477587D01*
X103219Y477501D01*
X103334Y477444D01*
X103420Y477386D01*
X103477Y477343D01*
X103521Y477314D01*
X103535Y477300D01*
X103750Y477128D01*
X103937Y476956D01*
X104123Y476783D01*
X104281Y476597D01*
X104425Y476425D01*
X104554Y476238D01*
X104669Y476080D01*
X104769Y475908D01*
X104855Y475765D01*
X104927Y475621D01*
X104999Y475492D01*
X105042Y475391D01*
X105085Y475291D01*
X105113Y475233D01*
X105128Y475191D01*
Y475176D01*
X108012Y466738D01*
X108084Y466508D01*
X108127Y466278D01*
X108156Y466063D01*
X108170Y465862D01*
Y465676D01*
X108156Y465489D01*
X108127Y465331D01*
X108098Y465188D01*
X108055Y465044D01*
X108012Y464930D01*
X107984Y464829D01*
X107941Y464743D01*
X107912Y464671D01*
X107883Y464628D01*
X107855Y464599D01*
Y464585D01*
X107740Y464427D01*
X107596Y464298D01*
X107467Y464183D01*
X107309Y464083D01*
X107166Y463997D01*
X107008Y463925D01*
X106706Y463825D01*
X106434Y463753D01*
X106319Y463738D01*
X106219Y463724D01*
X106132Y463710D01*
X102502D01*
X102329Y463724D01*
X102186Y463753D01*
X102057Y463810D01*
X101928Y463868D01*
X101841Y463911D01*
X101770Y463968D01*
X101727Y463997D01*
X101712Y464011D01*
X101597Y464126D01*
X101497Y464241D01*
X101425Y464341D01*
X101354Y464427D01*
X101311Y464513D01*
X101282Y464571D01*
X101267Y464614D01*
Y464628D01*
X101239Y464757D01*
X101224Y464872D01*
X101239Y464973D01*
X101253Y465073D01*
X101282Y465145D01*
X101296Y465202D01*
X101311Y465231D01*
X101325Y465245D01*
X101397Y465346D01*
X101483Y465418D01*
X101569Y465461D01*
X101655Y465504D01*
X101741Y465518D01*
X101813Y465532D01*
X105386D01*
X105558Y465547D01*
X105688Y465575D01*
X105745D01*
X105788Y465590D01*
X105817Y465604D01*
X105831D01*
X105946Y465690D01*
X106046Y465776D01*
X106104Y465848D01*
X106132Y465877D01*
X106190Y466006D01*
X106233Y466149D01*
X106247Y466293D01*
X106233Y466436D01*
X106219Y466551D01*
X106204Y466652D01*
X106175Y466709D01*
Y466738D01*
X103291Y475176D01*
X103219Y475348D01*
X103147Y475492D01*
X103104Y475549D01*
X103090Y475592D01*
X103061Y475621D01*
Y475635D01*
X102990Y475722D01*
X102918Y475808D01*
X102746Y475980D01*
X102674Y476051D01*
X102617Y476109D01*
X102573Y476152D01*
X102559Y476166D01*
X102416Y476238D01*
X102272Y476281D01*
X102128Y476324D01*
X101999Y476339D01*
X101885Y476353D01*
X101784Y476367D01*
X98182D01*
X98024Y476382D01*
X97866Y476410D01*
X97737Y476468D01*
X97622Y476525D01*
X97536Y476568D01*
X97464Y476626D01*
X97421Y476654D01*
X97407Y476669D01*
X97292Y476783D01*
X97192Y476898D01*
X97120Y476999D01*
X97048Y477085D01*
X97005Y477171D01*
X96976Y477228D01*
X96962Y477271D01*
Y477286D01*
X96933Y477415D01*
X96919Y477530D01*
Y477630D01*
X96933Y477731D01*
X96962Y477802D01*
X96976Y477860D01*
X96991Y477888D01*
X97005Y477903D01*
X97077Y478003D01*
X97163Y478075D01*
X97263Y478118D01*
X97350Y478161D01*
X97436Y478176D01*
X97507Y478190D01*
X101081D01*
X101325Y478176D01*
D02*
G37*
%LPC*%
G36*
X85940Y77856D02*
X85760D01*
X85580Y77836D01*
X85460Y77817D01*
X85380Y77777D01*
X85340D01*
X73586Y73759D01*
X73326Y73659D01*
X73067Y73519D01*
X72867Y73379D01*
X72687Y73219D01*
X72547Y73079D01*
X72447Y72959D01*
X72387Y72879D01*
X72367Y72859D01*
X72207Y72619D01*
X72107Y72379D01*
X72027Y72159D01*
X71967Y71960D01*
X71927Y71780D01*
X71907Y71660D01*
Y65963D01*
X86999Y71100D01*
Y76677D01*
X86979Y76937D01*
X86919Y77137D01*
X86840Y77317D01*
X86760Y77457D01*
X86679Y77557D01*
X86600Y77637D01*
X86540Y77677D01*
X86520Y77697D01*
X86340Y77797D01*
X86140Y77836D01*
X85940Y77856D01*
D02*
G37*
G36*
X207198Y73579D02*
X207018D01*
X206838Y73559D01*
X206718Y73539D01*
X206638Y73499D01*
X206598D01*
X194844Y69481D01*
X194585Y69381D01*
X194325Y69241D01*
X194125Y69101D01*
X193945Y68941D01*
X193805Y68801D01*
X193705Y68681D01*
X193645Y68601D01*
X193625Y68581D01*
X193465Y68341D01*
X193365Y68102D01*
X193285Y67882D01*
X193225Y67682D01*
X193185Y67502D01*
X193165Y67382D01*
Y63344D01*
X193185Y63124D01*
X193225Y62924D01*
Y62844D01*
X193245Y62784D01*
X193265Y62764D01*
Y62744D01*
X193385Y62564D01*
X193505Y62424D01*
X193605Y62344D01*
X193645Y62304D01*
X193825Y62224D01*
X194025Y62165D01*
X194225Y62144D01*
X194425Y62165D01*
X194585Y62185D01*
X194725Y62204D01*
X194804Y62245D01*
X194844D01*
X206598Y66262D01*
X206838Y66362D01*
X207038Y66462D01*
X207118Y66522D01*
X207178Y66542D01*
X207218Y66582D01*
X207238D01*
X207358Y66682D01*
X207478Y66782D01*
X207718Y67022D01*
X207818Y67122D01*
X207898Y67202D01*
X207938Y67262D01*
X207958Y67282D01*
X208058Y67482D01*
X208138Y67682D01*
X208178Y67882D01*
X208218Y68061D01*
X208238Y68221D01*
X208258Y68361D01*
Y72399D01*
X208238Y72659D01*
X208178Y72859D01*
X208098Y73039D01*
X208018Y73179D01*
X207938Y73279D01*
X207858Y73359D01*
X207798Y73399D01*
X207778Y73419D01*
X207598Y73519D01*
X207398Y73559D01*
X207198Y73579D01*
D02*
G37*
G36*
X134447Y57887D02*
X134267D01*
X134087Y57867D01*
X133967Y57847D01*
X133888Y57807D01*
X133848D01*
X129930Y56467D01*
X129670Y56347D01*
X129410Y56208D01*
X129210Y56068D01*
X129030Y55908D01*
X128890Y55768D01*
X128790Y55648D01*
X128730Y55568D01*
X128710Y55548D01*
X128550Y55308D01*
X128450Y55068D01*
X128370Y54848D01*
X128310Y54648D01*
X128270Y54468D01*
X128250Y54349D01*
Y48651D01*
X135507Y51130D01*
Y56707D01*
X135487Y56967D01*
X135427Y57167D01*
X135347Y57347D01*
X135267Y57487D01*
X135187Y57587D01*
X135107Y57667D01*
X135047Y57707D01*
X135027Y57727D01*
X134847Y57827D01*
X134647Y57867D01*
X134447Y57887D01*
D02*
G37*
G36*
X110144Y62784D02*
X109964D01*
X109784Y62764D01*
X109664Y62744D01*
X109584Y62704D01*
X109544D01*
X97790Y58686D01*
X97530Y58586D01*
X97270Y58446D01*
X97070Y58306D01*
X96890Y58147D01*
X96750Y58007D01*
X96650Y57887D01*
X96590Y57807D01*
X96571Y57787D01*
X96411Y57547D01*
X96311Y57307D01*
X96231Y57087D01*
X96171Y56887D01*
X96131Y56707D01*
X96111Y56587D01*
Y50890D01*
X111203Y56028D01*
Y61605D01*
X111183Y61865D01*
X111123Y62065D01*
X111043Y62245D01*
X110963Y62384D01*
X110883Y62484D01*
X110803Y62564D01*
X110743Y62604D01*
X110723Y62624D01*
X110543Y62724D01*
X110344Y62764D01*
X110144Y62784D01*
D02*
G37*
G36*
X231402Y57887D02*
X231222D01*
X231042Y57867D01*
X230922Y57847D01*
X230842Y57807D01*
X230802D01*
X219048Y53789D01*
X218788Y53689D01*
X218528Y53549D01*
X218328Y53409D01*
X218148Y53249D01*
X218009Y53109D01*
X217909Y52989D01*
X217849Y52909D01*
X217829Y52889D01*
X217669Y52649D01*
X217569Y52410D01*
X217489Y52190D01*
X217429Y51990D01*
X217389Y51810D01*
X217369Y51690D01*
Y45993D01*
X232461Y51130D01*
Y56707D01*
X232441Y56967D01*
X232381Y57167D01*
X232301Y57347D01*
X232221Y57487D01*
X232141Y57587D01*
X232061Y57667D01*
X232001Y57707D01*
X231982Y57727D01*
X231801Y57827D01*
X231602Y57867D01*
X231402Y57887D01*
D02*
G37*
G36*
X207198D02*
X207018D01*
X206838Y57867D01*
X206718Y57847D01*
X206638Y57807D01*
X206598D01*
X194844Y53789D01*
X194585Y53689D01*
X194325Y53549D01*
X194125Y53409D01*
X193945Y53249D01*
X193805Y53109D01*
X193705Y52989D01*
X193645Y52909D01*
X193625Y52889D01*
X193465Y52649D01*
X193365Y52410D01*
X193285Y52190D01*
X193225Y51990D01*
X193185Y51810D01*
X193165Y51690D01*
Y45993D01*
X208258Y51130D01*
Y56707D01*
X208238Y56967D01*
X208178Y57167D01*
X208098Y57347D01*
X208018Y57487D01*
X207938Y57587D01*
X207858Y57667D01*
X207798Y57707D01*
X207778Y57727D01*
X207598Y57827D01*
X207398Y57867D01*
X207198Y57887D01*
D02*
G37*
G36*
X110144Y47092D02*
X109964D01*
X109784Y47072D01*
X109664Y47052D01*
X109584Y47012D01*
X109544D01*
X105626Y45673D01*
X105366Y45553D01*
X105106Y45413D01*
X104906Y45273D01*
X104726Y45113D01*
X104586Y44973D01*
X104487Y44853D01*
X104426Y44773D01*
X104406Y44753D01*
X104247Y44514D01*
X104147Y44274D01*
X104067Y44054D01*
X104007Y43854D01*
X103967Y43674D01*
X103947Y43554D01*
Y37857D01*
X111203Y40336D01*
Y45913D01*
X111183Y46173D01*
X111123Y46373D01*
X111043Y46553D01*
X110963Y46692D01*
X110883Y46792D01*
X110803Y46872D01*
X110743Y46912D01*
X110723Y46932D01*
X110543Y47032D01*
X110344Y47072D01*
X110144Y47092D01*
D02*
G37*
G36*
X236697Y473418D02*
X232693D01*
X232507Y473403D01*
X232363Y473360D01*
X232234Y473303D01*
X232134Y473245D01*
X232062Y473188D01*
X232005Y473130D01*
X231976Y473087D01*
X231961Y473073D01*
X231890Y472944D01*
X231861Y472800D01*
X231847Y472657D01*
Y472528D01*
X231861Y472399D01*
X231875Y472313D01*
X231904Y472255D01*
Y472226D01*
X232866Y469414D01*
X232952Y469227D01*
X233052Y469040D01*
X233153Y468897D01*
X233267Y468768D01*
X233368Y468667D01*
X233454Y468596D01*
X233511Y468553D01*
X233526Y468538D01*
X233698Y468423D01*
X233870Y468352D01*
X234028Y468294D01*
X234172Y468251D01*
X234301Y468223D01*
X234387Y468208D01*
X238477D01*
X236697Y473418D01*
D02*
G37*
G36*
X236676Y491418D02*
X232672D01*
X232485Y491403D01*
X232342Y491360D01*
X232213Y491303D01*
X232112Y491245D01*
X232040Y491188D01*
X231983Y491130D01*
X231954Y491087D01*
X231940Y491073D01*
X231868Y490944D01*
X231840Y490800D01*
X231825Y490657D01*
Y490528D01*
X231840Y490399D01*
X231854Y490312D01*
X231883Y490255D01*
Y490226D01*
X232844Y487414D01*
X232930Y487227D01*
X233031Y487040D01*
X233131Y486897D01*
X233246Y486768D01*
X233346Y486667D01*
X233433Y486596D01*
X233490Y486553D01*
X233504Y486538D01*
X233676Y486423D01*
X233849Y486352D01*
X234007Y486294D01*
X234150Y486251D01*
X234279Y486222D01*
X234365Y486208D01*
X238455D01*
X236676Y491418D01*
D02*
G37*
G36*
X176238Y532417D02*
X172234D01*
X172048Y532403D01*
X171904Y532360D01*
X171775Y532303D01*
X171674Y532245D01*
X171603Y532188D01*
X171545Y532131D01*
X171517Y532087D01*
X171502Y532073D01*
X171430Y531944D01*
X171402Y531800D01*
X171388Y531657D01*
Y531528D01*
X171402Y531399D01*
X171416Y531312D01*
X171445Y531255D01*
Y531226D01*
X172406Y528414D01*
X172493Y528227D01*
X172593Y528040D01*
X172693Y527897D01*
X172808Y527768D01*
X172909Y527667D01*
X172995Y527596D01*
X173052Y527552D01*
X173067Y527538D01*
X173239Y527423D01*
X173411Y527352D01*
X173569Y527294D01*
X173712Y527251D01*
X173841Y527222D01*
X173928Y527208D01*
X178018D01*
X176238Y532417D01*
D02*
G37*
G36*
X261965Y417417D02*
X257962D01*
X257775Y417403D01*
X257631Y417360D01*
X257502Y417303D01*
X257402Y417245D01*
X257330Y417188D01*
X257273Y417131D01*
X257244Y417087D01*
X257230Y417073D01*
X257158Y416944D01*
X257129Y416800D01*
X257115Y416657D01*
Y416528D01*
X257129Y416399D01*
X257143Y416312D01*
X257172Y416255D01*
Y416226D01*
X258134Y413414D01*
X258220Y413227D01*
X258320Y413040D01*
X258421Y412897D01*
X258536Y412768D01*
X258636Y412667D01*
X258722Y412596D01*
X258780Y412552D01*
X258794Y412538D01*
X258966Y412423D01*
X259138Y412352D01*
X259296Y412294D01*
X259440Y412251D01*
X259569Y412222D01*
X259655Y412208D01*
X263745D01*
X261965Y417417D01*
D02*
G37*
G36*
X252594Y411792D02*
X250025D01*
X249839Y411778D01*
X249681Y411735D01*
X249552Y411677D01*
X249451Y411620D01*
X249380Y411562D01*
X249322Y411505D01*
X249293Y411462D01*
X249279Y411447D01*
X249222Y411318D01*
X249179Y411175D01*
X249164Y411031D01*
X249179Y410902D01*
X249193Y410773D01*
X249207Y410687D01*
X249222Y410630D01*
X249236Y410601D01*
X250198Y407788D01*
X250269Y407601D01*
X250370Y407415D01*
X250470Y407271D01*
X250585Y407142D01*
X250686Y407042D01*
X250772Y406970D01*
X250829Y406927D01*
X250843Y406913D01*
X251016Y406798D01*
X251188Y406726D01*
X251346Y406669D01*
X251489Y406626D01*
X251618Y406597D01*
X251705Y406582D01*
X253197D01*
X253355Y406597D01*
X253498Y406626D01*
X253556D01*
X253599Y406640D01*
X253613Y406654D01*
X253627D01*
X253757Y406740D01*
X253857Y406827D01*
X253915Y406898D01*
X253943Y406927D01*
X254001Y407056D01*
X254044Y407200D01*
X254058Y407343D01*
X254044Y407487D01*
X254029Y407601D01*
X254015Y407702D01*
X253986Y407759D01*
Y407788D01*
X252766Y411361D01*
X252594Y411792D01*
D02*
G37*
G36*
X185633Y400418D02*
X181629D01*
X181442Y400403D01*
X181299Y400360D01*
X181170Y400303D01*
X181069Y400245D01*
X180997Y400188D01*
X180940Y400131D01*
X180911Y400087D01*
X180897Y400073D01*
X180825Y399944D01*
X180797Y399800D01*
X180782Y399657D01*
Y399528D01*
X180797Y399399D01*
X180811Y399313D01*
X180840Y399255D01*
Y399226D01*
X181801Y396414D01*
X181887Y396227D01*
X181988Y396040D01*
X182088Y395897D01*
X182203Y395768D01*
X182303Y395667D01*
X182389Y395596D01*
X182447Y395552D01*
X182461Y395538D01*
X182633Y395423D01*
X182806Y395352D01*
X182964Y395294D01*
X183107Y395251D01*
X183236Y395223D01*
X183322Y395208D01*
X187412D01*
X185633Y400418D01*
D02*
G37*
G36*
X171856D02*
X171770D01*
X171454Y400389D01*
X171196Y400331D01*
X170995Y400231D01*
X170823Y400131D01*
X170708Y400030D01*
X170622Y399930D01*
X170579Y399872D01*
X170564Y399843D01*
X170478Y399628D01*
X170435Y399399D01*
X170421Y399183D01*
X170435Y398968D01*
X170449Y398796D01*
X170478Y398652D01*
X170492Y398595D01*
X170507Y398552D01*
X170521Y398537D01*
Y398523D01*
X170636Y398251D01*
X170779Y397992D01*
X170923Y397763D01*
X171081Y397562D01*
X171224Y397404D01*
X171339Y397289D01*
X171425Y397217D01*
X171440Y397188D01*
X171454D01*
X171741Y397002D01*
X172014Y396858D01*
X172286Y396758D01*
X172530Y396686D01*
X172746Y396643D01*
X172832Y396629D01*
X172918D01*
X172975Y396614D01*
X173219D01*
X173377Y396643D01*
X173635Y396701D01*
X173836Y396787D01*
X173994Y396887D01*
X174109Y396988D01*
X174195Y397074D01*
X174238Y397131D01*
X174252Y397160D01*
X174338Y397389D01*
X174396Y397619D01*
X174410Y397849D01*
X174396Y398064D01*
X174367Y398251D01*
X174338Y398394D01*
X174324Y398451D01*
X174310Y398494D01*
X174296Y398509D01*
Y398523D01*
X174181Y398796D01*
X174037Y399040D01*
X173894Y399269D01*
X173736Y399456D01*
X173592Y399614D01*
X173477Y399729D01*
X173406Y399800D01*
X173377Y399829D01*
X173090Y400030D01*
X172803Y400173D01*
X172530Y400274D01*
X172286Y400346D01*
X172071Y400389D01*
X171913Y400403D01*
X171856Y400418D01*
D02*
G37*
G36*
X173808Y394792D02*
X173693D01*
X173463Y394778D01*
X173262Y394763D01*
X173076Y394720D01*
X172903Y394663D01*
X172760Y394605D01*
X172616Y394534D01*
X172502Y394462D01*
X172387Y394390D01*
X172301Y394318D01*
X172215Y394247D01*
X172100Y394117D01*
X172028Y394017D01*
X172014Y394003D01*
Y393988D01*
X171942Y393845D01*
X171899Y393687D01*
X171841Y393386D01*
X171827Y393084D01*
X171841Y392797D01*
X171884Y392553D01*
X171899Y392453D01*
X171928Y392367D01*
X171942Y392295D01*
X171956Y392237D01*
X171971Y392209D01*
Y392194D01*
X172129Y391807D01*
X172329Y391463D01*
X172530Y391147D01*
X172746Y390888D01*
X172932Y390673D01*
X173018Y390587D01*
X173090Y390515D01*
X173147Y390458D01*
X173190Y390415D01*
X173219Y390401D01*
X173234Y390386D01*
X173420Y390243D01*
X173621Y390128D01*
X173808Y390013D01*
X174008Y389927D01*
X174382Y389783D01*
X174726Y389683D01*
X174884Y389654D01*
X175013Y389626D01*
X175142Y389611D01*
X175257Y389597D01*
X175343Y389582D01*
X175458D01*
X175673Y389597D01*
X175874Y389611D01*
X176061Y389654D01*
X176233Y389712D01*
X176391Y389769D01*
X176520Y389841D01*
X176649Y389913D01*
X176749Y389984D01*
X176922Y390128D01*
X177051Y390257D01*
X177108Y390358D01*
X177137Y390372D01*
Y390386D01*
X177209Y390530D01*
X177252Y390673D01*
X177295Y390831D01*
X177309Y390975D01*
X177323Y391276D01*
X177295Y391563D01*
X177266Y391821D01*
X177237Y391922D01*
X177223Y392022D01*
X177194Y392094D01*
X177180Y392151D01*
X177166Y392180D01*
Y392194D01*
X177008Y392582D01*
X176821Y392926D01*
X176606Y393228D01*
X176405Y393486D01*
X176218Y393701D01*
X176132Y393787D01*
X176061Y393859D01*
X176003Y393917D01*
X175960Y393960D01*
X175931Y393974D01*
X175917Y393988D01*
X175731Y394132D01*
X175530Y394261D01*
X175343Y394361D01*
X175142Y394448D01*
X174769Y394591D01*
X174425Y394692D01*
X174267Y394720D01*
X174138Y394749D01*
X174008Y394763D01*
X173894Y394778D01*
X173808Y394792D01*
D02*
G37*
G36*
X211260Y546076D02*
X206030D01*
X205786Y546058D01*
X205599Y546001D01*
X205430Y545926D01*
X205299Y545851D01*
X205205Y545776D01*
X205130Y545701D01*
X205093Y545645D01*
X205074Y545626D01*
X204980Y545458D01*
X204943Y545270D01*
X204924Y545083D01*
Y544914D01*
X204943Y544745D01*
X204961Y544633D01*
X204999Y544558D01*
Y544520D01*
X208767Y533498D01*
X208860Y533255D01*
X208992Y533011D01*
X209123Y532823D01*
X209273Y532655D01*
X209404Y532523D01*
X209517Y532430D01*
X209592Y532374D01*
X209610Y532355D01*
X209835Y532205D01*
X210060Y532111D01*
X210266Y532036D01*
X210454Y531980D01*
X210622Y531942D01*
X210735Y531924D01*
X216077D01*
X211260Y546076D01*
D02*
G37*
G36*
X178847Y569367D02*
X174843D01*
X174657Y569353D01*
X174513Y569310D01*
X174384Y569253D01*
X174284Y569195D01*
X174212Y569138D01*
X174155Y569080D01*
X174126Y569037D01*
X174111Y569023D01*
X174040Y568894D01*
X174011Y568750D01*
X173997Y568607D01*
Y568478D01*
X174011Y568348D01*
X174025Y568262D01*
X174054Y568205D01*
Y568176D01*
X175016Y565363D01*
X175102Y565177D01*
X175202Y564990D01*
X175303Y564847D01*
X175417Y564717D01*
X175518Y564617D01*
X175604Y564545D01*
X175661Y564502D01*
X175676Y564488D01*
X175848Y564373D01*
X176020Y564301D01*
X176178Y564244D01*
X176322Y564201D01*
X176451Y564172D01*
X176537Y564158D01*
X180627D01*
X178847Y569367D01*
D02*
G37*
G36*
X159172D02*
X158225D01*
X158010Y569353D01*
X157823Y569296D01*
X157665Y569224D01*
X157550Y569152D01*
X157450Y569066D01*
X157393Y568994D01*
X157350Y568937D01*
X157335Y568922D01*
X157249Y568750D01*
X157206Y568578D01*
X157177Y568406D01*
Y568248D01*
X157206Y568104D01*
X157220Y567990D01*
X157235Y567918D01*
X157249Y567889D01*
X159933Y560010D01*
X160033Y559781D01*
X160148Y559566D01*
X160277Y559393D01*
X160421Y559235D01*
X160536Y559121D01*
X160636Y559020D01*
X160708Y558963D01*
X160736Y558948D01*
X160952Y558805D01*
X161167Y558704D01*
X161368Y558633D01*
X161540Y558590D01*
X161698Y558561D01*
X161813Y558532D01*
X162760D01*
X162975Y558547D01*
X163147Y558604D01*
X163305Y558676D01*
X163434Y558747D01*
X163521Y558834D01*
X163592Y558891D01*
X163635Y558948D01*
X163650Y558963D01*
X163736Y559135D01*
X163779Y559307D01*
X163793Y559479D01*
Y559652D01*
X163779Y559795D01*
X163750Y559910D01*
X163736Y559982D01*
X163721Y560010D01*
X161038Y567889D01*
X160952Y568119D01*
X160837Y568320D01*
X160708Y568492D01*
X160578Y568650D01*
X160449Y568764D01*
X160349Y568865D01*
X160292Y568922D01*
X160263Y568937D01*
X160048Y569080D01*
X159832Y569181D01*
X159631Y569267D01*
X159445Y569310D01*
X159287Y569339D01*
X159172Y569367D01*
D02*
G37*
G36*
X155008Y445418D02*
X153516D01*
X153329Y445403D01*
X153186Y445360D01*
X153057Y445303D01*
X152956Y445245D01*
X152885Y445188D01*
X152827Y445131D01*
X152798Y445088D01*
X152784Y445073D01*
X152712Y444944D01*
X152684Y444800D01*
X152669Y444657D01*
Y444528D01*
X152684Y444399D01*
X152698Y444313D01*
X152727Y444255D01*
Y444226D01*
X153932Y440710D01*
X154061Y440337D01*
X154104Y440208D01*
X156702D01*
X156860Y440223D01*
X157003Y440251D01*
X157046D01*
X157089Y440266D01*
X157118Y440280D01*
X157132D01*
X157247Y440366D01*
X157348Y440452D01*
X157405Y440524D01*
X157434Y440552D01*
X157506Y440682D01*
X157534Y440825D01*
X157549Y440969D01*
X157534Y441112D01*
X157520Y441227D01*
X157506Y441328D01*
X157477Y441385D01*
Y441414D01*
X156515Y444226D01*
X156444Y444399D01*
X156372Y444542D01*
X156329Y444599D01*
X156314Y444643D01*
X156286Y444671D01*
Y444686D01*
X156214Y444772D01*
X156142Y444858D01*
X155970Y445030D01*
X155898Y445102D01*
X155841Y445159D01*
X155798Y445188D01*
X155783Y445202D01*
X155640Y445274D01*
X155496Y445331D01*
X155353Y445360D01*
X155224Y445389D01*
X155109Y445403D01*
X155008Y445418D01*
D02*
G37*
%LPD*%
D11*
X282000Y507000D02*
G03*
X278464Y515536I-12071J0D01*
G01*
X286950Y518950D02*
G03*
X282000Y507000I11950J-11950D01*
G01*
X273020Y532980D02*
G03*
X258487Y539000I-14533J-14533D01*
G01*
X282000Y511300D02*
G03*
X273020Y532980I-30661J0D01*
G01*
X275000Y519000D02*
X278464Y515536D01*
X251000Y539000D02*
X258487D01*
X282000Y507000D02*
Y511300D01*
X126750Y498000D02*
X161750D01*
X126750Y456250D02*
Y498000D01*
X161750Y456250D02*
Y498000D01*
X126750Y456250D02*
X161750Y456250D01*
D50*
X129250Y452000D02*
D03*
D51*
X209974Y497646D02*
Y506104D01*
X203250D02*
X209974D01*
X181526Y497646D02*
Y506104D01*
X188250D01*
X228724Y424646D02*
Y433104D01*
X222000D02*
X228724D01*
X200276Y424646D02*
Y433104D01*
X207000D01*
M02*
