M48
;Layer_Color=9474304
;FILE_FORMAT=4:4
METRIC,LZ
;TYPE=PLATED
T1F00S00C0.3000
T2F00S00C0.9000
T3F00S00C1.0000
T4F00S00C1.1000
T5F00S00C3.5000
%
T01
X000155Y0019525
X00119Y0024125
X001405Y00212
X001725Y001975
X0015675Y002975
X0017325Y003675
X00198Y003655
X00201882Y00405618
X00219Y0041825
X0023075Y004325
X00241Y0045225
X0025025Y0045775
X002695Y0044225
X002465Y004135
X002245Y00397
X00175Y004085
X001605Y00408
X001805Y004525
Y004675
Y004825
X001955
X002105
Y004675
Y004525
X001955
Y004675
X001375Y00458
X001585Y00506
X0016525Y005301
X0014925Y0052825
X00163656Y0055925
X0018475Y0054625
X0020625Y00568
X002565Y0056625
X0026Y0052575
X0022725Y0051525
X0023025Y00502
X001355Y0051775
X001315Y0056225
X0007475Y00564
X0007225Y00613
X0001525Y0059025
X0002325Y0051675
X0010625Y0049275
X001075Y00471
X001255Y004265
X0013425Y0036475
X0010075Y0028125
X00039Y002995
X0001625Y0027275
X000155Y00378
T02
X000378Y0043165
Y0045165
Y0047165
Y0049165
Y0051165
Y0053165
Y0055165
Y0057165
Y0059165
Y0061165
X000578
Y0059165
Y0057165
Y0055165
Y0053165
Y0051165
Y0049165
Y0047165
Y0045165
Y0043165
T03
X00049Y0016
X000744
Y001854
X00049
Y002108
X000744
Y002362
X00049
Y002616
X000744
Y00287
X00049
Y003124
X000744
Y003378
X00049
Y003632
X000744
Y003886
X00049
T04
X0016Y0016
Y0024
Y0032
Y00392
T05
X000475Y0004
X0026
X000475Y0073
X0026
M30
