G04*
G04 #@! TF.GenerationSoftware,Altium Limited,Altium Designer,23.3.1 (30)*
G04*
G04 Layer_Physical_Order=2*
G04 Layer_Color=16711680*
%FSLAX44Y44*%
%MOMM*%
G71*
G04*
G04 #@! TF.SameCoordinates,73034098-7AF1-4D24-A32C-B869409C610D*
G04*
G04*
G04 #@! TF.FilePolarity,Positive*
G04*
G01*
G75*
%ADD37C,0.1500*%
%ADD38C,0.1250*%
%ADD40R,2.0000X1.7000*%
%ADD41C,1.3000*%
G04:AMPARAMS|DCode=42|XSize=1.3mm|YSize=1.3mm|CornerRadius=0.325mm|HoleSize=0mm|Usage=FLASHONLY|Rotation=90.000|XOffset=0mm|YOffset=0mm|HoleType=Round|Shape=RoundedRectangle|*
%AMROUNDEDRECTD42*
21,1,1.3000,0.6500,0,0,90.0*
21,1,0.6500,1.3000,0,0,90.0*
1,1,0.6500,0.3250,0.3250*
1,1,0.6500,0.3250,-0.3250*
1,1,0.6500,-0.3250,-0.3250*
1,1,0.6500,-0.3250,0.3250*
%
%ADD42ROUNDEDRECTD42*%
%ADD43C,1.6000*%
G04:AMPARAMS|DCode=44|XSize=1.6mm|YSize=1.6mm|CornerRadius=0.4mm|HoleSize=0mm|Usage=FLASHONLY|Rotation=90.000|XOffset=0mm|YOffset=0mm|HoleType=Round|Shape=RoundedRectangle|*
%AMROUNDEDRECTD44*
21,1,1.6000,0.8000,0,0,90.0*
21,1,0.8000,1.6000,0,0,90.0*
1,1,0.8000,0.4000,0.4000*
1,1,0.8000,0.4000,-0.4000*
1,1,0.8000,-0.4000,-0.4000*
1,1,0.8000,-0.4000,0.4000*
%
%ADD44ROUNDEDRECTD44*%
%ADD45C,0.7000*%
G36*
X283000Y145250D02*
X21500D01*
Y623250D01*
X283000D01*
Y145250D01*
D02*
G37*
%LPC*%
G36*
X58919Y620150D02*
X56681D01*
X54519Y619571D01*
X52581Y618452D01*
X50998Y616869D01*
X49879Y614931D01*
X49300Y612769D01*
Y610531D01*
X49879Y608369D01*
X50998Y606431D01*
X52581Y604848D01*
X54519Y603729D01*
X56681Y603150D01*
X58919D01*
X61081Y603729D01*
X63019Y604848D01*
X64602Y606431D01*
X65721Y608369D01*
X66300Y610531D01*
Y612769D01*
X65721Y614931D01*
X64602Y616869D01*
X63019Y618452D01*
X61081Y619571D01*
X58919Y620150D01*
D02*
G37*
G36*
X38919D02*
X36681D01*
X34519Y619571D01*
X32581Y618452D01*
X30998Y616869D01*
X29879Y614931D01*
X29300Y612769D01*
Y610531D01*
X29879Y608369D01*
X30998Y606431D01*
X32581Y604848D01*
X34519Y603729D01*
X36681Y603150D01*
X38919D01*
X41081Y603729D01*
X43019Y604848D01*
X44602Y606431D01*
X45721Y608369D01*
X46300Y610531D01*
Y612769D01*
X45721Y614931D01*
X44602Y616869D01*
X43019Y618452D01*
X41081Y619571D01*
X38919Y620150D01*
D02*
G37*
G36*
X117217Y601505D02*
X117217Y601505D01*
X117216Y601505D01*
X116722Y601495D01*
X116706Y601491D01*
X116689Y601494D01*
X116318Y601405D01*
X115945Y601322D01*
X115932Y601313D01*
X115915Y601309D01*
X115426Y601084D01*
X115419Y601079D01*
X115411Y601077D01*
X115096Y600846D01*
X114781Y600617D01*
X114777Y600611D01*
X114770Y600606D01*
X114341Y600135D01*
X114310Y600084D01*
X114263Y600045D01*
X108938Y593473D01*
X108770Y593154D01*
X108589Y592840D01*
X108584Y592802D01*
X108567Y592769D01*
X108534Y592409D01*
X108488Y592051D01*
X108497Y592014D01*
X108494Y591977D01*
X108601Y591631D01*
X108695Y591283D01*
X109103Y590461D01*
X109111Y590450D01*
X109115Y590437D01*
X109526Y589636D01*
X109534Y589626D01*
X109537Y589614D01*
X109952Y588828D01*
X109959Y588820D01*
X109962Y588809D01*
X110359Y588076D01*
X110394Y587989D01*
X110404Y587924D01*
X109877Y586539D01*
X109792Y586476D01*
X109584Y586391D01*
X108645Y586020D01*
X107830Y585718D01*
X107236Y585529D01*
X106949Y585470D01*
X106608Y585451D01*
X106280Y585458D01*
X105954Y585483D01*
X105597Y585514D01*
X105550Y585509D01*
X105505Y585521D01*
X105115Y585538D01*
X105031Y585525D01*
X104946Y585538D01*
X104496Y585520D01*
X104407Y585499D01*
X104316Y585505D01*
X103762Y585434D01*
X103690Y585410D01*
X103614Y585409D01*
X102915Y585267D01*
X102868Y585247D01*
X102818Y585244D01*
X102296Y585111D01*
X102260Y585093D01*
X102219Y585090D01*
X101750Y584950D01*
X101714Y584931D01*
X101673Y584926D01*
X101242Y584778D01*
X101211Y584761D01*
X101177Y584755D01*
X100767Y584600D01*
X100739Y584582D01*
X100706Y584575D01*
X100262Y584390D01*
X97188Y587523D01*
X98118Y591348D01*
X98123Y591484D01*
X98164Y591615D01*
X98225Y592189D01*
X98222Y592219D01*
X98230Y592249D01*
X98186Y592614D01*
X98153Y592981D01*
X98138Y593008D01*
X98135Y593039D01*
X97991Y593477D01*
X97963Y593526D01*
X97954Y593582D01*
X97769Y593871D01*
X97600Y594170D01*
X97556Y594205D01*
X97526Y594253D01*
X97234Y594558D01*
X96913Y594782D01*
X96594Y595009D01*
X96210Y595180D01*
X95887Y595254D01*
X95569Y595349D01*
X95149Y595389D01*
X94827Y595356D01*
X94504Y595347D01*
X94105Y595256D01*
X93757Y595100D01*
X93405Y594950D01*
X93083Y594729D01*
X93024Y594669D01*
X92950Y594629D01*
X92748Y594385D01*
X92527Y594159D01*
X92496Y594081D01*
X92442Y594016D01*
X92253Y593667D01*
X92178Y593424D01*
X92070Y593194D01*
X90395Y586533D01*
X90385Y586334D01*
X90336Y586141D01*
X90365Y585941D01*
X90355Y585738D01*
X90422Y585550D01*
X90451Y585353D01*
X90555Y585180D01*
X90623Y584989D01*
X90757Y584841D01*
X90859Y584670D01*
X94986Y580096D01*
X94236Y578994D01*
X94188Y578881D01*
X94112Y578786D01*
X93522Y577649D01*
X93483Y577512D01*
X93410Y577389D01*
X93001Y576231D01*
X92979Y576082D01*
X92922Y575942D01*
X92687Y574738D01*
X92688Y574595D01*
X92652Y574456D01*
X92585Y573180D01*
X92603Y573057D01*
X92587Y572933D01*
X92677Y571628D01*
X86809Y569805D01*
X86588Y569685D01*
X86352Y569598D01*
X86241Y569496D01*
X86110Y569425D01*
X85951Y569229D01*
X85766Y569059D01*
X85703Y568923D01*
X85609Y568806D01*
X85538Y568565D01*
X85432Y568337D01*
X83809Y561631D01*
X83800Y561406D01*
X83752Y561187D01*
X83745Y560787D01*
X83758Y560714D01*
X83748Y560640D01*
X83828Y560325D01*
X83886Y560004D01*
X83926Y559941D01*
X83945Y559869D01*
X84101Y559544D01*
X84111Y559530D01*
X84116Y559513D01*
X84350Y559212D01*
X84578Y558907D01*
X84593Y558898D01*
X84603Y558885D01*
X84878Y558646D01*
X85174Y558478D01*
X85459Y558292D01*
X85807Y558154D01*
X86117Y558096D01*
X86422Y558014D01*
X86796Y557988D01*
X87139Y558032D01*
X87485Y558058D01*
X87841Y558158D01*
X87855Y558165D01*
X87871Y558166D01*
X88210Y558344D01*
X88551Y558517D01*
X88561Y558529D01*
X88575Y558536D01*
X88868Y558773D01*
X88904Y558816D01*
X88952Y558845D01*
X89157Y559120D01*
X89377Y559385D01*
X89394Y559438D01*
X89427Y559483D01*
X89612Y559871D01*
X89664Y560076D01*
X89753Y560268D01*
X90687Y564138D01*
X91065Y564237D01*
X92037Y564484D01*
X93060Y564740D01*
X94067Y564987D01*
X94996Y565212D01*
X95095Y565236D01*
X95614Y564583D01*
X95641Y564560D01*
X95659Y564528D01*
X96208Y563884D01*
X96258Y563844D01*
X96293Y563790D01*
X96833Y563231D01*
X96904Y563182D01*
X96957Y563114D01*
X97533Y562609D01*
X97611Y562564D01*
X97672Y562498D01*
X98330Y562017D01*
X98400Y561984D01*
X98456Y561932D01*
X99242Y561443D01*
X99294Y561423D01*
X99336Y561387D01*
X100294Y560860D01*
X100327Y560850D01*
X100355Y560828D01*
X100976Y560513D01*
X101163Y560405D01*
X101241Y560233D01*
X101274Y560187D01*
X101290Y560132D01*
X101516Y559699D01*
X101568Y559634D01*
X101598Y559556D01*
X101968Y558968D01*
X102011Y558923D01*
X102036Y558866D01*
X102254Y558563D01*
X102347Y558330D01*
X102357Y558274D01*
X102198Y557183D01*
X101982Y556865D01*
X101367Y556459D01*
X101362Y556455D01*
X101356Y556452D01*
X100555Y555916D01*
X100548Y555909D01*
X100539Y555905D01*
X99744Y555362D01*
X99734Y555353D01*
X99722Y555347D01*
X98944Y554801D01*
X98724Y554571D01*
X98486Y554359D01*
X98451Y554285D01*
X98394Y554225D01*
X98279Y553929D01*
X98141Y553642D01*
X98136Y553560D01*
X98107Y553483D01*
X98114Y553165D01*
X98096Y552848D01*
X99291Y544366D01*
X99338Y544231D01*
X99350Y544088D01*
X99509Y543536D01*
X99523Y543508D01*
X99526Y543478D01*
X99705Y543156D01*
X99873Y542829D01*
X99897Y542809D01*
X99912Y542782D01*
X100239Y542395D01*
X100244Y542391D01*
X100247Y542385D01*
X100557Y542142D01*
X100861Y541900D01*
X100868Y541898D01*
X100873Y541893D01*
X101307Y541673D01*
X101659Y541575D01*
X102007Y541465D01*
X102486Y541412D01*
X102844Y541444D01*
X103202Y541461D01*
X103662Y541575D01*
X103662D01*
X103662Y541575D01*
X103665Y541576D01*
X104020Y541744D01*
X104382Y541914D01*
X104768Y542198D01*
X104800Y542233D01*
X104841Y542255D01*
X105066Y542526D01*
X105304Y542786D01*
X105320Y542831D01*
X105350Y542867D01*
X105596Y543321D01*
X105606Y543353D01*
X105626Y543378D01*
X105723Y543731D01*
X105832Y544081D01*
X105829Y544114D01*
X105837Y544145D01*
X105883Y544770D01*
X105860Y544951D01*
X105877Y545133D01*
X105224Y551296D01*
X108196Y553074D01*
X108736Y552693D01*
X108778Y552674D01*
X108812Y552643D01*
X109822Y551996D01*
X109857Y551982D01*
X109884Y551957D01*
X110971Y551316D01*
X111004Y551304D01*
X111031Y551282D01*
X112138Y550678D01*
X112175Y550666D01*
X112206Y550642D01*
X113278Y550108D01*
X113326Y550095D01*
X113367Y550067D01*
X113579Y549974D01*
X110859Y539437D01*
X110854Y539330D01*
X110817Y539229D01*
X110831Y538936D01*
X110815Y538643D01*
X110850Y538541D01*
X110855Y538434D01*
X110981Y538169D01*
X111077Y537892D01*
X111149Y537812D01*
X111195Y537715D01*
X111412Y537517D01*
X111608Y537298D01*
X111704Y537252D01*
X111784Y537180D01*
X120186Y532129D01*
X120338Y532075D01*
X120473Y531987D01*
X120832Y531841D01*
X121055Y531799D01*
X121268Y531719D01*
X121443Y531725D01*
X121614Y531693D01*
X121836Y531739D01*
X122064Y531747D01*
X122403Y531827D01*
X122484Y531864D01*
X122573Y531875D01*
X122844Y532028D01*
X123127Y532157D01*
X123188Y532223D01*
X123266Y532267D01*
X123559Y532519D01*
X123762Y532779D01*
X123983Y533025D01*
X124204Y533398D01*
X124293Y533651D01*
X124414Y533891D01*
X124536Y534331D01*
X124557Y534612D01*
X124611Y534888D01*
X124608Y535344D01*
X124537Y535690D01*
X124482Y536038D01*
X124328Y536455D01*
X124304Y536494D01*
X124295Y536540D01*
X124097Y536833D01*
X123913Y537133D01*
X123875Y537161D01*
X123849Y537199D01*
X123518Y537527D01*
X123325Y537654D01*
X123155Y537812D01*
X118087Y540941D01*
X119680Y546886D01*
X120239Y548007D01*
X121267Y547785D01*
X121291Y547785D01*
X121313Y547776D01*
X122311Y547584D01*
X122337Y547585D01*
X122362Y547575D01*
X122523Y547549D01*
X122724Y547492D01*
X123526Y546911D01*
X123727Y546408D01*
X123802Y546211D01*
X123840Y546004D01*
X123944Y545844D01*
X124012Y545665D01*
X124157Y545513D01*
X124272Y545336D01*
X132269Y537077D01*
X131755Y535119D01*
X131742Y534905D01*
X131691Y534698D01*
X131669Y534228D01*
X131682Y534140D01*
X131668Y534052D01*
X131741Y533749D01*
X131787Y533441D01*
X131833Y533364D01*
X131853Y533278D01*
X132023Y532910D01*
X132045Y532880D01*
X132055Y532844D01*
X132278Y532559D01*
X132490Y532266D01*
X132522Y532246D01*
X132545Y532217D01*
X132852Y531953D01*
X133141Y531790D01*
X133419Y531608D01*
X133808Y531451D01*
X134078Y531400D01*
X134339Y531316D01*
X134755Y531268D01*
X135036Y531292D01*
X135319Y531282D01*
X135708Y531346D01*
X136053Y531476D01*
X136401Y531595D01*
X136708Y531773D01*
X136807Y531861D01*
X136926Y531920D01*
X137103Y532122D01*
X137305Y532300D01*
X137363Y532419D01*
X137450Y532519D01*
X137620Y532813D01*
X137706Y533068D01*
X137825Y533310D01*
X139048Y537940D01*
X139064Y538193D01*
X139116Y538442D01*
X139088Y538587D01*
X139098Y538734D01*
X139015Y538974D01*
X138968Y539224D01*
X138887Y539347D01*
X138839Y539486D01*
X138671Y539677D01*
X138532Y539889D01*
X132067Y546475D01*
X132102Y546711D01*
X132597Y547748D01*
X134056Y548119D01*
X134120Y548149D01*
X134191Y548158D01*
X136123Y548793D01*
X136198Y548835D01*
X136283Y548853D01*
X138323Y549719D01*
X138407Y549776D01*
X138505Y549807D01*
X140585Y550945D01*
X140676Y551021D01*
X140784Y551069D01*
X142836Y552520D01*
X142928Y552617D01*
X143042Y552687D01*
X144997Y554493D01*
X145106Y554642D01*
X145243Y554765D01*
X145922Y555667D01*
X145926Y555676D01*
X145932Y555681D01*
X146671Y556663D01*
X146746Y556818D01*
X146853Y556953D01*
X147870Y558923D01*
X147919Y559095D01*
X148005Y559252D01*
X148639Y561289D01*
X148658Y561460D01*
X148714Y561623D01*
X148997Y563724D01*
X148987Y563880D01*
X149015Y564034D01*
X148975Y566195D01*
X148947Y566326D01*
X148953Y566460D01*
X148621Y568677D01*
X148583Y568781D01*
X148576Y568892D01*
X147981Y571161D01*
X147941Y571242D01*
X147928Y571331D01*
X147099Y573648D01*
X147016Y573785D01*
X146969Y573937D01*
X146240Y575273D01*
X146185Y575339D01*
X146153Y575419D01*
X145338Y576656D01*
X145282Y576712D01*
X145247Y576783D01*
X144360Y577928D01*
X144307Y577975D01*
X144271Y578036D01*
X143328Y579096D01*
X143279Y579133D01*
X143244Y579184D01*
X142259Y580167D01*
X142215Y580196D01*
X142184Y580238D01*
X141601Y580762D01*
X141853Y582111D01*
X141884Y582156D01*
X150453Y584492D01*
X150680Y584604D01*
X150920Y584684D01*
X151033Y584780D01*
X151165Y584846D01*
X151331Y585038D01*
X151523Y585203D01*
X151590Y585335D01*
X151687Y585447D01*
X151768Y585687D01*
X151882Y585913D01*
X153190Y590625D01*
X153211Y590908D01*
X153265Y591185D01*
X153262Y591543D01*
X153232Y591689D01*
X153239Y591837D01*
X153152Y592075D01*
X153101Y592323D01*
X153018Y592445D01*
X152967Y592585D01*
X152779Y592896D01*
X152519Y593180D01*
X152263Y593467D01*
X151941Y593709D01*
X151684Y593834D01*
X151442Y593986D01*
X151039Y594140D01*
X150778Y594185D01*
X150525Y594263D01*
X150092Y594309D01*
X149785Y594281D01*
X149476Y594281D01*
X149065Y594198D01*
X149056Y594194D01*
X149046Y594194D01*
X148689Y594041D01*
X148331Y593892D01*
X148324Y593885D01*
X148315Y593881D01*
X147977Y593650D01*
X147913Y593585D01*
X147832Y593541D01*
X147636Y593302D01*
X147420Y593081D01*
X147386Y592996D01*
X147328Y592925D01*
X147115Y592525D01*
X147051Y592311D01*
X146950Y592110D01*
X146438Y590258D01*
X146181Y590186D01*
X144646Y589754D01*
X143002Y589293D01*
X143000Y589292D01*
X142999Y589292D01*
X141308Y588815D01*
X141305Y588813D01*
X141301Y588813D01*
X139627Y588334D01*
X139621Y588331D01*
X139615Y588330D01*
X138019Y587864D01*
X138011Y587859D01*
X138002Y587858D01*
X136547Y587419D01*
X136533Y587411D01*
X136518Y587410D01*
X135266Y587011D01*
X135054Y586894D01*
X134827Y586811D01*
X134709Y586704D01*
X134570Y586627D01*
X134419Y586437D01*
X134240Y586274D01*
X133945Y586013D01*
X132790Y586085D01*
X132629Y586157D01*
X132611Y586161D01*
X132596Y586172D01*
X131596Y586600D01*
X131572Y586605D01*
X131550Y586619D01*
X130561Y587015D01*
X130768Y588268D01*
X132290Y593950D01*
X137813Y593969D01*
X137999Y594007D01*
X138190Y594006D01*
X138666Y594097D01*
X138694Y594108D01*
X138723Y594109D01*
X139061Y594258D01*
X139403Y594397D01*
X139424Y594417D01*
X139451Y594429D01*
X139790Y594666D01*
X139802Y594678D01*
X139817Y594685D01*
X140077Y594965D01*
X140341Y595241D01*
X140347Y595256D01*
X140358Y595268D01*
X140563Y595602D01*
X140689Y595941D01*
X140828Y596276D01*
X140903Y596658D01*
X140902Y596995D01*
X140922Y597332D01*
X140870Y597711D01*
X140751Y598053D01*
X140644Y598400D01*
X140467Y598727D01*
X140444Y598755D01*
X140432Y598790D01*
X140191Y599061D01*
X139960Y599340D01*
X139927Y599357D01*
X139903Y599384D01*
X139605Y599610D01*
X139532Y599645D01*
X139473Y599701D01*
X139176Y599817D01*
X138889Y599956D01*
X138807Y599961D01*
X138732Y599991D01*
X138316Y600064D01*
X138120Y600060D01*
X137927Y600095D01*
X128584Y599946D01*
X128477Y599923D01*
X128367Y599931D01*
X128091Y599840D01*
X127806Y599778D01*
X127716Y599716D01*
X127612Y599681D01*
X127391Y599491D01*
X127152Y599326D01*
X127092Y599233D01*
X127009Y599162D01*
X126878Y598902D01*
X126721Y598657D01*
X126701Y598549D01*
X126651Y598451D01*
X124228Y589691D01*
X123800Y588506D01*
X123230Y588557D01*
X123190Y588553D01*
X123152Y588562D01*
X122583Y588592D01*
X122552Y588587D01*
X122520Y588594D01*
X121950Y588606D01*
X121925Y588602D01*
X121901Y588607D01*
X121327Y588605D01*
X121310Y588601D01*
X121294Y588604D01*
X120714Y588593D01*
X120709Y588592D01*
X120705Y588593D01*
X120221Y588582D01*
X119690Y588570D01*
X119686Y588569D01*
X119683Y588570D01*
X119123Y588555D01*
X119117Y588554D01*
X119111Y588555D01*
X118538Y588537D01*
X118529Y588535D01*
X118520Y588536D01*
X117952Y588513D01*
X117938Y588510D01*
X117924Y588512D01*
X117624Y588496D01*
X115917Y591354D01*
X119467Y596200D01*
X119520Y596314D01*
X119601Y596409D01*
X119932Y596999D01*
X119938Y597018D01*
X119951Y597033D01*
X120061Y597395D01*
X120178Y597755D01*
X120176Y597775D01*
X120182Y597794D01*
X120234Y598327D01*
X120227Y598398D01*
X120243Y598468D01*
X120189Y598792D01*
X120157Y599119D01*
X120123Y599182D01*
X120111Y599252D01*
X119942Y599696D01*
X119918Y599735D01*
X119908Y599780D01*
X119707Y600071D01*
X119520Y600370D01*
X119482Y600397D01*
X119456Y600435D01*
X119122Y600759D01*
X119117Y600762D01*
X119114Y600767D01*
X118781Y600979D01*
X118454Y601190D01*
X118448Y601191D01*
X118443Y601195D01*
X118001Y601367D01*
X118000Y601367D01*
X118000Y601367D01*
X117597Y601438D01*
X117217Y601505D01*
D02*
G37*
G36*
X58919Y600150D02*
X58800D01*
Y592650D01*
X66300D01*
Y592769D01*
X65721Y594931D01*
X64602Y596869D01*
X63019Y598452D01*
X61081Y599571D01*
X58919Y600150D01*
D02*
G37*
G36*
X56800D02*
X56681D01*
X54519Y599571D01*
X52581Y598452D01*
X50998Y596869D01*
X49879Y594931D01*
X49300Y592769D01*
Y592650D01*
X56800D01*
Y600150D01*
D02*
G37*
G36*
X66300Y590650D02*
X58800D01*
Y583150D01*
X58919D01*
X61081Y583729D01*
X63019Y584848D01*
X64602Y586431D01*
X65721Y588369D01*
X66300Y590531D01*
Y590650D01*
D02*
G37*
G36*
X56800D02*
X49300D01*
Y590531D01*
X49879Y588369D01*
X50998Y586431D01*
X52581Y584848D01*
X54519Y583729D01*
X56681Y583150D01*
X56800D01*
Y590650D01*
D02*
G37*
G36*
X38919Y600150D02*
X36681D01*
X34519Y599571D01*
X32581Y598452D01*
X30998Y596869D01*
X29879Y594931D01*
X29300Y592769D01*
Y590531D01*
X29879Y588369D01*
X30998Y586431D01*
X32581Y584848D01*
X34519Y583729D01*
X36681Y583150D01*
X38919D01*
X41081Y583729D01*
X43019Y584848D01*
X44602Y586431D01*
X45721Y588369D01*
X46300Y590531D01*
Y592769D01*
X45721Y594931D01*
X44602Y596869D01*
X43019Y598452D01*
X41081Y599571D01*
X38919Y600150D01*
D02*
G37*
G36*
X58919Y580150D02*
X56681D01*
X54519Y579571D01*
X52581Y578452D01*
X50998Y576869D01*
X49879Y574931D01*
X49300Y572769D01*
Y570531D01*
X49879Y568369D01*
X50998Y566431D01*
X52581Y564848D01*
X54519Y563729D01*
X56681Y563150D01*
X58919D01*
X61081Y563729D01*
X63019Y564848D01*
X64602Y566431D01*
X65721Y568369D01*
X66300Y570531D01*
Y572769D01*
X65721Y574931D01*
X64602Y576869D01*
X63019Y578452D01*
X61081Y579571D01*
X58919Y580150D01*
D02*
G37*
G36*
X38919D02*
X36681D01*
X34519Y579571D01*
X32581Y578452D01*
X30998Y576869D01*
X29879Y574931D01*
X29300Y572769D01*
Y570531D01*
X29879Y568369D01*
X30998Y566431D01*
X32581Y564848D01*
X34519Y563729D01*
X36681Y563150D01*
X38919D01*
X41081Y563729D01*
X43019Y564848D01*
X44602Y566431D01*
X45721Y568369D01*
X46300Y570531D01*
Y572769D01*
X45721Y574931D01*
X44602Y576869D01*
X43019Y578452D01*
X41081Y579571D01*
X38919Y580150D01*
D02*
G37*
G36*
X58919Y560150D02*
X56681D01*
X54519Y559571D01*
X52581Y558452D01*
X50998Y556869D01*
X49879Y554931D01*
X49300Y552769D01*
Y550531D01*
X49879Y548369D01*
X50998Y546431D01*
X52581Y544848D01*
X54519Y543729D01*
X56681Y543150D01*
X58919D01*
X61081Y543729D01*
X63019Y544848D01*
X64602Y546431D01*
X65721Y548369D01*
X66300Y550531D01*
Y552769D01*
X65721Y554931D01*
X64602Y556869D01*
X63019Y558452D01*
X61081Y559571D01*
X58919Y560150D01*
D02*
G37*
G36*
X38919D02*
X36681D01*
X34519Y559571D01*
X32581Y558452D01*
X30998Y556869D01*
X29879Y554931D01*
X29300Y552769D01*
Y550531D01*
X29879Y548369D01*
X30998Y546431D01*
X32581Y544848D01*
X34519Y543729D01*
X36681Y543150D01*
X38919D01*
X41081Y543729D01*
X43019Y544848D01*
X44602Y546431D01*
X45721Y548369D01*
X46300Y550531D01*
Y552769D01*
X45721Y554931D01*
X44602Y556869D01*
X43019Y558452D01*
X41081Y559571D01*
X38919Y560150D01*
D02*
G37*
G36*
X58919Y540150D02*
X58800D01*
Y532650D01*
X66300D01*
Y532769D01*
X65721Y534931D01*
X64602Y536869D01*
X63019Y538452D01*
X61081Y539571D01*
X58919Y540150D01*
D02*
G37*
G36*
X56800D02*
X56681D01*
X54519Y539571D01*
X52581Y538452D01*
X50998Y536869D01*
X49879Y534931D01*
X49300Y532769D01*
Y532650D01*
X56800D01*
Y540150D01*
D02*
G37*
G36*
X66300Y530650D02*
X58800D01*
Y523150D01*
X58919D01*
X61081Y523729D01*
X63019Y524848D01*
X64602Y526431D01*
X65721Y528369D01*
X66300Y530531D01*
Y530650D01*
D02*
G37*
G36*
X56800D02*
X49300D01*
Y530531D01*
X49879Y528369D01*
X50998Y526431D01*
X52581Y524848D01*
X54519Y523729D01*
X56681Y523150D01*
X56800D01*
Y530650D01*
D02*
G37*
G36*
X38919Y540150D02*
X36681D01*
X34519Y539571D01*
X32581Y538452D01*
X30998Y536869D01*
X29879Y534931D01*
X29300Y532769D01*
Y530531D01*
X29879Y528369D01*
X30998Y526431D01*
X32581Y524848D01*
X34519Y523729D01*
X36681Y523150D01*
X38919D01*
X41081Y523729D01*
X43019Y524848D01*
X44602Y526431D01*
X45721Y528369D01*
X46300Y530531D01*
Y532769D01*
X45721Y534931D01*
X44602Y536869D01*
X43019Y538452D01*
X41081Y539571D01*
X38919Y540150D01*
D02*
G37*
G36*
X222500Y538789D02*
X221720Y538634D01*
X221058Y538192D01*
X204631Y521764D01*
X184004D01*
X184003Y521764D01*
X183223Y521609D01*
X182561Y521167D01*
X181460Y520066D01*
X180188Y519539D01*
X178812D01*
X177540Y520066D01*
X176566Y521040D01*
X176026Y522342D01*
X175884Y523059D01*
X175442Y523720D01*
X175442Y523720D01*
X170057Y529105D01*
X169396Y529547D01*
X168615Y529702D01*
X162384D01*
X161604Y529547D01*
X160943Y529105D01*
X117808Y485970D01*
X117366Y485308D01*
X117211Y484528D01*
Y453807D01*
X117366Y453027D01*
X117495Y452834D01*
Y452713D01*
X118333Y450692D01*
X119880Y449145D01*
X121901Y448307D01*
X124089D01*
X126111Y449145D01*
X127658Y450692D01*
X128495Y452713D01*
Y454901D01*
X128475Y454949D01*
Y476341D01*
X160095Y507961D01*
X168222D01*
X169002Y508116D01*
X169664Y508558D01*
X170290Y509184D01*
X171562Y509711D01*
X172938D01*
X174210Y509184D01*
X174836Y508558D01*
X175498Y508116D01*
X176278Y507961D01*
X193655D01*
X205322Y496294D01*
Y486100D01*
X204337Y485116D01*
X203500Y483094D01*
Y480906D01*
X204337Y478885D01*
X205322Y477900D01*
Y474889D01*
X205477Y474109D01*
X205919Y473447D01*
X205919Y473447D01*
X213726Y465640D01*
X213893Y465528D01*
X214035Y465386D01*
X214221Y465309D01*
X214388Y465198D01*
X214585Y465159D01*
X214771Y465082D01*
X214971Y465082D01*
X215168Y465043D01*
X215365Y465082D01*
X215566Y465082D01*
X215735Y465116D01*
X215921Y465192D01*
X215949Y465198D01*
X215949Y465198D01*
X216118Y465232D01*
X216285Y465343D01*
X216471Y465420D01*
X216612Y465562D01*
X216779Y465674D01*
X218040Y466934D01*
X219312Y467461D01*
X220688D01*
X221960Y466934D01*
X222934Y465960D01*
X223461Y464688D01*
Y463312D01*
X222934Y462040D01*
X221674Y460779D01*
X221562Y460612D01*
X221420Y460471D01*
X221343Y460285D01*
X221231Y460118D01*
X221198Y459949D01*
X221198Y459949D01*
X221192Y459921D01*
X221116Y459735D01*
X221082Y459566D01*
X221082Y459365D01*
X221043Y459168D01*
X221082Y458971D01*
X221082Y458771D01*
X221159Y458585D01*
X221198Y458388D01*
X221309Y458221D01*
X221386Y458036D01*
X221528Y457893D01*
X221640Y457726D01*
X221711Y457655D01*
Y443845D01*
X207041Y429175D01*
X200240Y435975D01*
X200250Y436000D01*
Y438188D01*
X199413Y440210D01*
X197866Y441757D01*
X195844Y442594D01*
X193656D01*
X191635Y441757D01*
X190087Y440210D01*
X189250Y438188D01*
Y436000D01*
X190087Y433979D01*
X191635Y432431D01*
X193656Y431594D01*
X195844D01*
X196443Y431842D01*
X203076Y425209D01*
X125308Y347442D01*
X124866Y346780D01*
X124711Y346000D01*
Y277000D01*
X124866Y276220D01*
X125308Y275558D01*
X125970Y275116D01*
X126750Y274961D01*
X149750D01*
X150530Y275116D01*
X151192Y275558D01*
X151634Y276220D01*
X151789Y277000D01*
Y345405D01*
X236692Y430308D01*
X237134Y430970D01*
X237289Y431750D01*
Y466000D01*
X237134Y466780D01*
X236692Y467442D01*
X236692Y467442D01*
X221451Y482683D01*
Y504567D01*
X229345Y512461D01*
X276000D01*
X276780Y512616D01*
X277442Y513058D01*
X277884Y513720D01*
X278039Y514500D01*
Y517000D01*
X280000D01*
Y538000D01*
X257570D01*
X257442Y538192D01*
X256780Y538634D01*
X256000Y538789D01*
X222500D01*
X222500Y538789D01*
D02*
G37*
G36*
X58919Y520150D02*
X56681D01*
X54519Y519571D01*
X52581Y518452D01*
X50998Y516869D01*
X49879Y514931D01*
X49300Y512769D01*
Y510531D01*
X49879Y508369D01*
X50998Y506431D01*
X52581Y504848D01*
X54519Y503729D01*
X56681Y503150D01*
X58919D01*
X61081Y503729D01*
X63019Y504848D01*
X64602Y506431D01*
X65721Y508369D01*
X66300Y510531D01*
Y512769D01*
X65721Y514931D01*
X64602Y516869D01*
X63019Y518452D01*
X61081Y519571D01*
X58919Y520150D01*
D02*
G37*
G36*
X38919D02*
X36681D01*
X34519Y519571D01*
X32581Y518452D01*
X30998Y516869D01*
X29879Y514931D01*
X29300Y512769D01*
Y510531D01*
X29879Y508369D01*
X30998Y506431D01*
X32581Y504848D01*
X34519Y503729D01*
X36681Y503150D01*
X38919D01*
X41081Y503729D01*
X43019Y504848D01*
X44602Y506431D01*
X45721Y508369D01*
X46300Y510531D01*
Y512769D01*
X45721Y514931D01*
X44602Y516869D01*
X43019Y518452D01*
X41081Y519571D01*
X38919Y520150D01*
D02*
G37*
G36*
X58919Y500150D02*
X58800D01*
Y492650D01*
X66300D01*
Y492769D01*
X65721Y494931D01*
X64602Y496869D01*
X63019Y498452D01*
X61081Y499571D01*
X58919Y500150D01*
D02*
G37*
G36*
X56800D02*
X56681D01*
X54519Y499571D01*
X52581Y498452D01*
X50998Y496869D01*
X49879Y494931D01*
X49300Y492769D01*
Y492650D01*
X56800D01*
Y500150D01*
D02*
G37*
G36*
X66300Y490650D02*
X58800D01*
Y483150D01*
X58919D01*
X61081Y483729D01*
X63019Y484848D01*
X64602Y486431D01*
X65721Y488369D01*
X66300Y490531D01*
Y490650D01*
D02*
G37*
G36*
X56800D02*
X49300D01*
Y490531D01*
X49879Y488369D01*
X50998Y486431D01*
X52581Y484848D01*
X54519Y483729D01*
X56681Y483150D01*
X56800D01*
Y490650D01*
D02*
G37*
G36*
X38919Y500150D02*
X36681D01*
X34519Y499571D01*
X32581Y498452D01*
X30998Y496869D01*
X29879Y494931D01*
X29300Y492769D01*
Y490531D01*
X29879Y488369D01*
X30998Y486431D01*
X32581Y484848D01*
X34519Y483729D01*
X36681Y483150D01*
X38919D01*
X41081Y483729D01*
X43019Y484848D01*
X44602Y486431D01*
X45721Y488369D01*
X46300Y490531D01*
Y492769D01*
X45721Y494931D01*
X44602Y496869D01*
X43019Y498452D01*
X41081Y499571D01*
X38919Y500150D01*
D02*
G37*
G36*
Y480150D02*
X38800D01*
Y472650D01*
X46300D01*
Y472769D01*
X45721Y474931D01*
X44602Y476869D01*
X43019Y478452D01*
X41081Y479571D01*
X38919Y480150D01*
D02*
G37*
G36*
X36800D02*
X36681D01*
X34519Y479571D01*
X32581Y478452D01*
X30998Y476869D01*
X29879Y474931D01*
X29300Y472769D01*
Y472650D01*
X36800D01*
Y480150D01*
D02*
G37*
G36*
X46300Y470650D02*
X38800D01*
Y463150D01*
X38919D01*
X41081Y463729D01*
X43019Y464848D01*
X44602Y466431D01*
X45721Y468369D01*
X46300Y470531D01*
Y470650D01*
D02*
G37*
G36*
X36800D02*
X29300D01*
Y470531D01*
X29879Y468369D01*
X30998Y466431D01*
X32581Y464848D01*
X34519Y463729D01*
X36681Y463150D01*
X36800D01*
Y470650D01*
D02*
G37*
G36*
X58919Y460150D02*
X58800D01*
Y452650D01*
X66300D01*
Y452769D01*
X65721Y454931D01*
X64602Y456869D01*
X63019Y458452D01*
X61081Y459571D01*
X58919Y460150D01*
D02*
G37*
G36*
X56800D02*
X56681D01*
X54519Y459571D01*
X52581Y458452D01*
X50998Y456869D01*
X49879Y454931D01*
X49300Y452769D01*
Y452650D01*
X56800D01*
Y460150D01*
D02*
G37*
G36*
X280000Y464500D02*
X256000D01*
Y443500D01*
X280000D01*
Y464500D01*
D02*
G37*
G36*
X66300Y450650D02*
X58800D01*
Y443150D01*
X58919D01*
X61081Y443729D01*
X63019Y444848D01*
X64602Y446431D01*
X65721Y448369D01*
X66300Y450531D01*
Y450650D01*
D02*
G37*
G36*
X56800D02*
X49300D01*
Y450531D01*
X49879Y448369D01*
X50998Y446431D01*
X52581Y444848D01*
X54519Y443729D01*
X56681Y443150D01*
X56800D01*
Y450650D01*
D02*
G37*
G36*
X38919Y460150D02*
X36681D01*
X34519Y459571D01*
X32581Y458452D01*
X30998Y456869D01*
X29879Y454931D01*
X29300Y452769D01*
Y450531D01*
X29879Y448369D01*
X30998Y446431D01*
X32581Y444848D01*
X34519Y443729D01*
X36681Y443150D01*
X38919D01*
X41081Y443729D01*
X43019Y444848D01*
X44602Y446431D01*
X45721Y448369D01*
X46300Y450531D01*
Y452769D01*
X45721Y454931D01*
X44602Y456869D01*
X43019Y458452D01*
X41081Y459571D01*
X38919Y460150D01*
D02*
G37*
G36*
X41050Y440253D02*
X38800D01*
Y432650D01*
X46403D01*
Y434900D01*
X45995Y436948D01*
X44835Y438685D01*
X43098Y439845D01*
X41050Y440253D01*
D02*
G37*
G36*
X36800D02*
X34550D01*
X32502Y439845D01*
X30765Y438685D01*
X29605Y436948D01*
X29197Y434900D01*
Y432650D01*
X36800D01*
Y440253D01*
D02*
G37*
G36*
X58919Y440150D02*
X56681D01*
X54519Y439571D01*
X52581Y438452D01*
X50998Y436869D01*
X49879Y434931D01*
X49300Y432769D01*
Y430531D01*
X49879Y428369D01*
X50998Y426431D01*
X52581Y424848D01*
X54519Y423729D01*
X56681Y423150D01*
X58919D01*
X61081Y423729D01*
X63019Y424848D01*
X64602Y426431D01*
X65721Y428369D01*
X66300Y430531D01*
Y432769D01*
X65721Y434931D01*
X64602Y436869D01*
X63019Y438452D01*
X61081Y439571D01*
X58919Y440150D01*
D02*
G37*
G36*
X46403Y430650D02*
X38800D01*
Y423047D01*
X41050D01*
X43098Y423455D01*
X44835Y424615D01*
X45995Y426352D01*
X46403Y428400D01*
Y430650D01*
D02*
G37*
G36*
X36800D02*
X29197D01*
Y428400D01*
X29605Y426352D01*
X30765Y424615D01*
X32502Y423455D01*
X34550Y423047D01*
X36800D01*
Y430650D01*
D02*
G37*
G36*
X58919Y480150D02*
X56681D01*
X54519Y479571D01*
X52581Y478452D01*
X50998Y476869D01*
X49879Y474931D01*
X49300Y472769D01*
Y470531D01*
X49879Y468369D01*
X50998Y466431D01*
X52581Y464848D01*
X54519Y463729D01*
X56681Y463150D01*
X58919D01*
X61081Y463729D01*
X61623Y464042D01*
X99807Y425858D01*
X99808Y425858D01*
X100676Y425277D01*
X101700Y425074D01*
X168259D01*
X168337Y424884D01*
X169884Y423337D01*
X171906Y422500D01*
X174094D01*
X176115Y423337D01*
X177663Y424884D01*
X178500Y426906D01*
Y429094D01*
X177663Y431115D01*
X176115Y432663D01*
X174094Y433500D01*
X171906D01*
X169884Y432663D01*
X168337Y431115D01*
X168052Y430426D01*
X102809D01*
X65408Y467827D01*
X65721Y468369D01*
X66300Y470531D01*
Y472769D01*
X65721Y474931D01*
X64602Y476869D01*
X63019Y478452D01*
X61081Y479571D01*
X58919Y480150D01*
D02*
G37*
G36*
X75717Y398600D02*
X75400D01*
Y389600D01*
X84400D01*
Y389916D01*
X83719Y392460D01*
X82402Y394740D01*
X80540Y396602D01*
X78260Y397919D01*
X75717Y398600D01*
D02*
G37*
G36*
X73400D02*
X73084D01*
X70540Y397919D01*
X68260Y396602D01*
X66398Y394740D01*
X65082Y392460D01*
X64400Y389916D01*
Y389600D01*
X73400D01*
Y398600D01*
D02*
G37*
G36*
X84400Y387600D02*
X75400D01*
Y378600D01*
X75717D01*
X78260Y379282D01*
X80540Y380598D01*
X82402Y382460D01*
X83719Y384740D01*
X84400Y387284D01*
Y387600D01*
D02*
G37*
G36*
X73400D02*
X64400D01*
Y387284D01*
X65082Y384740D01*
X66398Y382460D01*
X68260Y380598D01*
X70540Y379282D01*
X73084Y378600D01*
X73400D01*
Y387600D01*
D02*
G37*
G36*
X50317Y398600D02*
X47684D01*
X45140Y397919D01*
X42860Y396602D01*
X40998Y394740D01*
X39681Y392460D01*
X39000Y389916D01*
Y387284D01*
X39681Y384740D01*
X40998Y382460D01*
X42860Y380598D01*
X45140Y379282D01*
X47684Y378600D01*
X50317D01*
X52860Y379282D01*
X55140Y380598D01*
X57002Y382460D01*
X58319Y384740D01*
X59000Y387284D01*
Y389916D01*
X58319Y392460D01*
X57002Y394740D01*
X55140Y396602D01*
X52860Y397919D01*
X50317Y398600D01*
D02*
G37*
G36*
X75717Y373200D02*
X73084D01*
X70540Y372519D01*
X68260Y371202D01*
X66398Y369340D01*
X65082Y367060D01*
X64400Y364516D01*
Y361884D01*
X65082Y359340D01*
X66398Y357060D01*
X68260Y355198D01*
X70540Y353881D01*
X73084Y353200D01*
X75717D01*
X78260Y353881D01*
X80540Y355198D01*
X82402Y357060D01*
X83719Y359340D01*
X84400Y361884D01*
Y364516D01*
X83719Y367060D01*
X82402Y369340D01*
X80540Y371202D01*
X78260Y372519D01*
X75717Y373200D01*
D02*
G37*
G36*
X50317D02*
X47684D01*
X45140Y372519D01*
X42860Y371202D01*
X40998Y369340D01*
X39681Y367060D01*
X39000Y364516D01*
Y361884D01*
X39681Y359340D01*
X40998Y357060D01*
X42860Y355198D01*
X45140Y353881D01*
X47684Y353200D01*
X50317D01*
X52860Y353881D01*
X55140Y355198D01*
X57002Y357060D01*
X58319Y359340D01*
X59000Y361884D01*
Y364516D01*
X58319Y367060D01*
X57002Y369340D01*
X55140Y371202D01*
X52860Y372519D01*
X50317Y373200D01*
D02*
G37*
G36*
X75717Y347800D02*
X75400D01*
Y338800D01*
X84400D01*
Y339117D01*
X83719Y341660D01*
X82402Y343940D01*
X80540Y345802D01*
X78260Y347118D01*
X75717Y347800D01*
D02*
G37*
G36*
X73400D02*
X73084D01*
X70540Y347118D01*
X68260Y345802D01*
X66398Y343940D01*
X65082Y341660D01*
X64400Y339117D01*
Y338800D01*
X73400D01*
Y347800D01*
D02*
G37*
G36*
X84400Y336800D02*
X75400D01*
Y327800D01*
X75717D01*
X78260Y328481D01*
X80540Y329798D01*
X82402Y331660D01*
X83719Y333940D01*
X84400Y336483D01*
Y336800D01*
D02*
G37*
G36*
X73400D02*
X64400D01*
Y336483D01*
X65082Y333940D01*
X66398Y331660D01*
X68260Y329798D01*
X70540Y328481D01*
X73084Y327800D01*
X73400D01*
Y336800D01*
D02*
G37*
G36*
X50317Y347800D02*
X47684D01*
X45140Y347118D01*
X42860Y345802D01*
X40998Y343940D01*
X39681Y341660D01*
X39000Y339117D01*
Y336483D01*
X39681Y333940D01*
X40998Y331660D01*
X42860Y329798D01*
X45140Y328481D01*
X47684Y327800D01*
X50317D01*
X52860Y328481D01*
X55140Y329798D01*
X57002Y331660D01*
X58319Y333940D01*
X59000Y336483D01*
Y339117D01*
X58319Y341660D01*
X57002Y343940D01*
X55140Y345802D01*
X52860Y347118D01*
X50317Y347800D01*
D02*
G37*
G36*
X280000Y340500D02*
X256000D01*
Y319500D01*
X280000D01*
Y340500D01*
D02*
G37*
G36*
X75717Y322400D02*
X73084D01*
X70540Y321718D01*
X68260Y320402D01*
X66398Y318540D01*
X65082Y316260D01*
X64400Y313717D01*
Y311084D01*
X65082Y308540D01*
X66398Y306260D01*
X68260Y304398D01*
X70540Y303081D01*
X73084Y302400D01*
X75717D01*
X78260Y303081D01*
X80540Y304398D01*
X82402Y306260D01*
X83719Y308540D01*
X84400Y311084D01*
Y313717D01*
X83719Y316260D01*
X82402Y318540D01*
X80540Y320402D01*
X78260Y321718D01*
X75717Y322400D01*
D02*
G37*
G36*
X50317D02*
X47684D01*
X45140Y321718D01*
X42860Y320402D01*
X40998Y318540D01*
X39681Y316260D01*
X39000Y313717D01*
Y311084D01*
X39681Y308540D01*
X40998Y306260D01*
X42860Y304398D01*
X45140Y303081D01*
X47684Y302400D01*
X50317D01*
X52860Y303081D01*
X55140Y304398D01*
X57002Y306260D01*
X58319Y308540D01*
X59000Y311084D01*
Y313717D01*
X58319Y316260D01*
X57002Y318540D01*
X55140Y320402D01*
X52860Y321718D01*
X50317Y322400D01*
D02*
G37*
G36*
X75717Y297000D02*
X73084D01*
X70540Y296318D01*
X68260Y295002D01*
X66398Y293140D01*
X65082Y290860D01*
X64400Y288316D01*
Y285683D01*
X65082Y283140D01*
X66398Y280860D01*
X68260Y278998D01*
X70540Y277682D01*
X73084Y277000D01*
X75717D01*
X78260Y277682D01*
X80540Y278998D01*
X82402Y280860D01*
X83719Y283140D01*
X84400Y285683D01*
Y288316D01*
X83719Y290860D01*
X82402Y293140D01*
X80540Y295002D01*
X78260Y296318D01*
X75717Y297000D01*
D02*
G37*
G36*
X50317D02*
X47684D01*
X45140Y296318D01*
X42860Y295002D01*
X40998Y293140D01*
X39681Y290860D01*
X39000Y288316D01*
Y285683D01*
X39681Y283140D01*
X40998Y280860D01*
X42860Y278998D01*
X45140Y277682D01*
X47684Y277000D01*
X50317D01*
X52860Y277682D01*
X55140Y278998D01*
X57002Y280860D01*
X58319Y283140D01*
X59000Y285683D01*
Y288316D01*
X58319Y290860D01*
X57002Y293140D01*
X55140Y295002D01*
X52860Y296318D01*
X50317Y297000D01*
D02*
G37*
G36*
X75717Y271600D02*
X75400D01*
Y262600D01*
X84400D01*
Y262917D01*
X83719Y265460D01*
X82402Y267740D01*
X80540Y269602D01*
X78260Y270919D01*
X75717Y271600D01*
D02*
G37*
G36*
X73400D02*
X73084D01*
X70540Y270919D01*
X68260Y269602D01*
X66398Y267740D01*
X65082Y265460D01*
X64400Y262917D01*
Y262600D01*
X73400D01*
Y271600D01*
D02*
G37*
G36*
X84400Y260600D02*
X75400D01*
Y251600D01*
X75717D01*
X78260Y252281D01*
X80540Y253598D01*
X82402Y255460D01*
X83719Y257740D01*
X84400Y260284D01*
Y260600D01*
D02*
G37*
G36*
X73400D02*
X64400D01*
Y260284D01*
X65082Y257740D01*
X66398Y255460D01*
X68260Y253598D01*
X70540Y252281D01*
X73084Y251600D01*
X73400D01*
Y260600D01*
D02*
G37*
G36*
X50317Y271600D02*
X47684D01*
X45140Y270919D01*
X42860Y269602D01*
X40998Y267740D01*
X39681Y265460D01*
X39000Y262917D01*
Y260284D01*
X39681Y257740D01*
X40998Y255460D01*
X42860Y253598D01*
X45140Y252281D01*
X47684Y251600D01*
X50317D01*
X52860Y252281D01*
X55140Y253598D01*
X57002Y255460D01*
X58319Y257740D01*
X59000Y260284D01*
Y262917D01*
X58319Y265460D01*
X57002Y267740D01*
X55140Y269602D01*
X52860Y270919D01*
X50317Y271600D01*
D02*
G37*
G36*
X280000Y241750D02*
X269000D01*
Y232250D01*
X280000D01*
Y241750D01*
D02*
G37*
G36*
X267000D02*
X256000D01*
Y232250D01*
X267000D01*
Y241750D01*
D02*
G37*
G36*
X75717Y246200D02*
X73084D01*
X70540Y245518D01*
X68260Y244202D01*
X66398Y242340D01*
X65082Y240060D01*
X64400Y237516D01*
Y234883D01*
X65082Y232340D01*
X66398Y230060D01*
X68260Y228198D01*
X70540Y226882D01*
X73084Y226200D01*
X75717D01*
X78260Y226882D01*
X80540Y228198D01*
X82402Y230060D01*
X83719Y232340D01*
X84400Y234883D01*
Y237516D01*
X83719Y240060D01*
X82402Y242340D01*
X80540Y244202D01*
X78260Y245518D01*
X75717Y246200D01*
D02*
G37*
G36*
X50317D02*
X47684D01*
X45140Y245518D01*
X42860Y244202D01*
X40998Y242340D01*
X39681Y240060D01*
X39000Y237516D01*
Y234883D01*
X39681Y232340D01*
X40998Y230060D01*
X42860Y228198D01*
X45140Y226882D01*
X47684Y226200D01*
X50317D01*
X52860Y226882D01*
X55140Y228198D01*
X57002Y230060D01*
X58319Y232340D01*
X59000Y234883D01*
Y237516D01*
X58319Y240060D01*
X57002Y242340D01*
X55140Y244202D01*
X52860Y245518D01*
X50317Y246200D01*
D02*
G37*
G36*
X280000Y230250D02*
X269000D01*
Y220750D01*
X280000D01*
Y230250D01*
D02*
G37*
G36*
X267000D02*
X256000D01*
Y220750D01*
X267000D01*
Y230250D01*
D02*
G37*
G36*
X75717Y220800D02*
X75400D01*
Y211800D01*
X84400D01*
Y212117D01*
X83719Y214660D01*
X82402Y216940D01*
X80540Y218802D01*
X78260Y220119D01*
X75717Y220800D01*
D02*
G37*
G36*
X73400D02*
X73084D01*
X70540Y220119D01*
X68260Y218802D01*
X66398Y216940D01*
X65082Y214660D01*
X64400Y212117D01*
Y211800D01*
X73400D01*
Y220800D01*
D02*
G37*
G36*
X84400Y209800D02*
X75400D01*
Y200800D01*
X75717D01*
X78260Y201481D01*
X80540Y202798D01*
X82402Y204660D01*
X83719Y206940D01*
X84400Y209484D01*
Y209800D01*
D02*
G37*
G36*
X73400D02*
X64400D01*
Y209484D01*
X65082Y206940D01*
X66398Y204660D01*
X68260Y202798D01*
X70540Y201481D01*
X73084Y200800D01*
X73400D01*
Y209800D01*
D02*
G37*
G36*
X50317Y220800D02*
X47684D01*
X45140Y220119D01*
X42860Y218802D01*
X40998Y216940D01*
X39681Y214660D01*
X39000Y212117D01*
Y209484D01*
X39681Y206940D01*
X40998Y204660D01*
X42860Y202798D01*
X45140Y201481D01*
X47684Y200800D01*
X50317D01*
X52860Y201481D01*
X55140Y202798D01*
X57002Y204660D01*
X58319Y206940D01*
X59000Y209484D01*
Y212117D01*
X58319Y214660D01*
X57002Y216940D01*
X55140Y218802D01*
X52860Y220119D01*
X50317Y220800D01*
D02*
G37*
G36*
X75717Y195400D02*
X73084D01*
X70540Y194718D01*
X68260Y193402D01*
X66398Y191540D01*
X65082Y189260D01*
X64400Y186716D01*
Y184083D01*
X65082Y181540D01*
X66398Y179260D01*
X68260Y177398D01*
X70540Y176082D01*
X73084Y175400D01*
X75717D01*
X78260Y176082D01*
X80540Y177398D01*
X82402Y179260D01*
X83719Y181540D01*
X84400Y184083D01*
Y186716D01*
X83719Y189260D01*
X82402Y191540D01*
X80540Y193402D01*
X78260Y194718D01*
X75717Y195400D01*
D02*
G37*
G36*
X50317D02*
X47684D01*
X45140Y194718D01*
X42860Y193402D01*
X40998Y191540D01*
X39681Y189260D01*
X39000Y186716D01*
Y184083D01*
X39681Y181540D01*
X40998Y179260D01*
X42860Y177398D01*
X45140Y176082D01*
X47684Y175400D01*
X50317D01*
X52860Y176082D01*
X55140Y177398D01*
X57002Y179260D01*
X58319Y181540D01*
X59000Y184083D01*
Y186716D01*
X58319Y189260D01*
X57002Y191540D01*
X55140Y193402D01*
X52860Y194718D01*
X50317Y195400D01*
D02*
G37*
G36*
X75717Y170000D02*
X75400D01*
Y161000D01*
X84400D01*
Y161317D01*
X83719Y163860D01*
X82402Y166140D01*
X80540Y168002D01*
X78260Y169319D01*
X75717Y170000D01*
D02*
G37*
G36*
X73400D02*
X73084D01*
X70540Y169319D01*
X68260Y168002D01*
X66398Y166140D01*
X65082Y163860D01*
X64400Y161317D01*
Y161000D01*
X73400D01*
Y170000D01*
D02*
G37*
G36*
X84400Y159000D02*
X75400D01*
Y150000D01*
X75717D01*
X78260Y150681D01*
X80540Y151998D01*
X82402Y153860D01*
X83719Y156140D01*
X84400Y158684D01*
Y159000D01*
D02*
G37*
G36*
X73400D02*
X64400D01*
Y158684D01*
X65082Y156140D01*
X66398Y153860D01*
X68260Y151998D01*
X70540Y150681D01*
X73084Y150000D01*
X73400D01*
Y159000D01*
D02*
G37*
G36*
X53000Y170117D02*
X45000D01*
X42659Y169652D01*
X40674Y168326D01*
X39348Y166341D01*
X38883Y164000D01*
Y156000D01*
X39348Y153659D01*
X40674Y151674D01*
X42659Y150348D01*
X45000Y149882D01*
X53000D01*
X55341Y150348D01*
X57326Y151674D01*
X58652Y153659D01*
X59117Y156000D01*
Y164000D01*
X58652Y166341D01*
X57326Y168326D01*
X55341Y169652D01*
X53000Y170117D01*
D02*
G37*
%LPD*%
G36*
X117703Y599295D02*
X118036Y598971D01*
X118205Y598527D01*
X118153Y597995D01*
X117822Y597405D01*
X113474Y591469D01*
X116523Y586361D01*
X116978Y586408D01*
X117488Y586446D01*
X118035Y586476D01*
X118603Y586499D01*
X119175Y586517D01*
X119735Y586531D01*
X120267Y586543D01*
X120753Y586554D01*
X121333Y586566D01*
X121908Y586567D01*
X122478Y586555D01*
X123047Y586526D01*
X123617Y586475D01*
X124191Y586397D01*
X124772Y586289D01*
X125363Y586147D01*
X128617Y597907D01*
X137960Y598056D01*
X138375Y597983D01*
X138673Y597758D01*
X138850Y597431D01*
X138902Y597052D01*
X138827Y596671D01*
X138621Y596337D01*
X138282Y596100D01*
X137806Y596008D01*
X130724Y595984D01*
X127977Y585731D01*
X128855Y585463D01*
X129804Y585121D01*
X130793Y584726D01*
X131793Y584297D01*
X132774Y583857D01*
X133705Y583424D01*
X134556Y583021D01*
X135298Y582668D01*
X135885Y585068D01*
X137137Y585467D01*
X138592Y585906D01*
X140188Y586373D01*
X141862Y586852D01*
X143553Y587330D01*
X145197Y587791D01*
X146733Y588222D01*
X148097Y588609D01*
X148915Y591567D01*
X149128Y591967D01*
X149467Y592199D01*
X149878Y592281D01*
X150311Y592235D01*
X150714Y592081D01*
X151035Y591839D01*
X151223Y591529D01*
X151225Y591171D01*
X149917Y586459D01*
X138229Y583273D01*
X137771Y581262D01*
X138788Y580476D01*
X139809Y579632D01*
X140820Y578722D01*
X141804Y577741D01*
X142748Y576680D01*
X143635Y575534D01*
X144450Y574297D01*
X145179Y572961D01*
X146008Y570644D01*
X146604Y568374D01*
X146936Y566157D01*
X146976Y563997D01*
X146692Y561895D01*
X146058Y559858D01*
X145041Y557889D01*
X144303Y556907D01*
X141407Y557683D01*
X143904Y561194D01*
X141772Y561824D01*
X142352Y563987D01*
X144553Y563396D01*
X144568Y565046D01*
X144509Y566513D01*
X144358Y567847D01*
X144094Y569096D01*
X143698Y570310D01*
X143150Y571536D01*
X142430Y572824D01*
X141518Y574222D01*
X139591Y576501D01*
X137183Y578536D01*
X134405Y580299D01*
X131368Y581760D01*
X128182Y582892D01*
X124959Y583665D01*
X121808Y584051D01*
X118841Y584021D01*
X117141Y583815D01*
X115593Y583540D01*
X114186Y583209D01*
X112906Y582836D01*
X111738Y582431D01*
X110672Y582009D01*
X109693Y581582D01*
X108788Y581161D01*
X106809Y573510D01*
X142336Y563991D01*
X141757Y561828D01*
X141182Y561998D01*
X136572Y563294D01*
X130734Y564907D01*
X124331Y566659D01*
X118022Y568372D01*
X112469Y569870D01*
X108334Y570976D01*
X106278Y571511D01*
X106079Y570772D01*
X105833Y569860D01*
X105558Y568828D01*
X105268Y567730D01*
X104980Y566622D01*
X104862Y566152D01*
X102662Y566742D01*
X106479Y580989D01*
X104800Y580933D01*
X103259Y580665D01*
X101864Y580183D01*
X100622Y579485D01*
X99542Y578569D01*
X98631Y577433D01*
X97897Y576073D01*
X97347Y574490D01*
X97115Y573060D01*
X97161Y571616D01*
X97465Y570200D01*
X98010Y568854D01*
X98774Y567620D01*
X99740Y566542D01*
X100889Y565661D01*
X102201Y565020D01*
X102658Y566726D01*
X104858Y566137D01*
X104711Y565557D01*
X104477Y564590D01*
X104293Y563774D01*
X108165Y558962D01*
X113145Y555325D01*
X118834Y552918D01*
X124831Y551794D01*
X130737Y552006D01*
X136151Y553608D01*
X140674Y556653D01*
X141397Y557670D01*
X144292Y556894D01*
X143614Y555991D01*
X141658Y554185D01*
X139607Y552734D01*
X137527Y551596D01*
X135486Y550730D01*
X133554Y550095D01*
X131798Y549649D01*
X130287Y549351D01*
X129088Y549159D01*
X128589Y547107D01*
X137077Y538461D01*
X135853Y533831D01*
X135683Y533537D01*
X135377Y533358D01*
X134987Y533294D01*
X134571Y533342D01*
X134182Y533499D01*
X133875Y533763D01*
X133706Y534131D01*
X133728Y534601D01*
X134533Y537671D01*
X125737Y546754D01*
X126281Y549166D01*
X125455Y549216D01*
X124579Y549304D01*
X123657Y549428D01*
X122695Y549587D01*
X121697Y549779D01*
X120669Y550000D01*
X119617Y550251D01*
X118544Y550528D01*
X115724Y540003D01*
X122084Y536077D01*
X122415Y535749D01*
X122569Y535332D01*
X122571Y534877D01*
X122449Y534437D01*
X122229Y534064D01*
X121935Y533812D01*
X121596Y533732D01*
X121237Y533877D01*
X112834Y538927D01*
X116004Y551208D01*
X115168Y551503D01*
X114187Y551934D01*
X113115Y552467D01*
X112008Y553072D01*
X110921Y553713D01*
X109911Y554360D01*
X109033Y554979D01*
X108342Y555538D01*
X103058Y552377D01*
X103849Y544918D01*
X103804Y544293D01*
X103557Y543839D01*
X103172Y543555D01*
X102709Y543439D01*
X102229Y543492D01*
X101796Y543712D01*
X101469Y544099D01*
X101310Y544651D01*
X100115Y553132D01*
X100894Y553678D01*
X101688Y554221D01*
X102490Y554757D01*
X103287Y555284D01*
X104071Y555797D01*
X104830Y556294D01*
X105555Y556771D01*
X106236Y557227D01*
X105573Y557870D01*
X104913Y558549D01*
X104592Y558904D01*
X104279Y559273D01*
X103979Y559656D01*
X103694Y560054D01*
X103324Y560642D01*
X103098Y561075D01*
X102955Y561392D01*
X102830Y561633D01*
X102663Y561839D01*
X102390Y562050D01*
X101949Y562306D01*
X101277Y562647D01*
X100319Y563174D01*
X99534Y563663D01*
X98876Y564144D01*
X98300Y564648D01*
X97760Y565207D01*
X97210Y565851D01*
X96606Y566612D01*
X95902Y567519D01*
X95312Y567383D01*
X94518Y567194D01*
X93582Y566968D01*
X92568Y566718D01*
X91538Y566461D01*
X90556Y566212D01*
X89686Y565984D01*
X88989Y565795D01*
X87770Y560747D01*
X87586Y560359D01*
X87293Y560122D01*
X86936Y560022D01*
X86561Y560048D01*
X86214Y560187D01*
X85940Y560425D01*
X85784Y560751D01*
X85791Y561151D01*
X87414Y567857D01*
X94966Y570204D01*
X94716Y571700D01*
X94622Y573073D01*
X94689Y574348D01*
X94923Y575552D01*
X95332Y576710D01*
X95922Y577847D01*
X96699Y578990D01*
X97671Y580163D01*
X92373Y586036D01*
X94047Y592697D01*
X94236Y593047D01*
X94558Y593268D01*
X94957Y593359D01*
X95377Y593319D01*
X95761Y593147D01*
X96053Y592842D01*
X96197Y592404D01*
X96136Y591830D01*
X94939Y586904D01*
X99775Y581974D01*
X100679Y582355D01*
X101491Y582693D01*
X101900Y582848D01*
X102332Y582996D01*
X102801Y583135D01*
X103323Y583269D01*
X104022Y583411D01*
X104576Y583483D01*
X105026Y583500D01*
X105416Y583483D01*
X105787Y583450D01*
X106181Y583420D01*
X106642Y583411D01*
X107211Y583442D01*
X107753Y583553D01*
X108494Y583789D01*
X109375Y584116D01*
X110341Y584498D01*
X111336Y584901D01*
X112301Y585292D01*
X113181Y585636D01*
X113918Y585897D01*
X113472Y586684D01*
X113033Y587461D01*
X112601Y588232D01*
X112176Y589003D01*
X111756Y589780D01*
X111341Y590566D01*
X110930Y591367D01*
X110522Y592189D01*
X115848Y598761D01*
X116277Y599231D01*
X116766Y599456D01*
X117261Y599467D01*
X117703Y599295D01*
D02*
G37*
G36*
X103081Y578534D02*
X103499Y578223D01*
X103786Y577781D01*
X103915Y577273D01*
X103932Y577061D01*
X103595Y576318D01*
X103095Y576000D01*
X102496Y575897D01*
X101973Y576019D01*
X101553Y576313D01*
X101263Y576725D01*
X101131Y577203D01*
X101184Y577695D01*
X101379Y578027D01*
X102102Y578541D01*
X102558Y578650D01*
X103081Y578534D01*
D02*
G37*
G36*
X101161Y571618D02*
X101606Y571336D01*
X101932Y570921D01*
X102109Y570434D01*
X102033Y569957D01*
X101884Y569490D01*
X101420Y569156D01*
X100838Y569027D01*
X100307Y569120D01*
X99862Y569385D01*
X99534Y569771D01*
X99356Y570230D01*
X99428Y570689D01*
X99579Y571162D01*
X100046Y571536D01*
X100631Y571706D01*
X101161Y571618D01*
D02*
G37*
G36*
X256000Y528500D02*
X268000D01*
Y527500D01*
X269000D01*
Y517000D01*
X276000D01*
Y514500D01*
X228500D01*
X219412Y505412D01*
Y481838D01*
X235250Y466000D01*
Y431750D01*
X149750Y346250D01*
Y277000D01*
X126750D01*
Y346000D01*
X223750Y443000D01*
Y458500D01*
X223082Y459168D01*
X223116Y459337D01*
X224663Y460885D01*
X225500Y462906D01*
Y465094D01*
X224663Y467116D01*
X223116Y468663D01*
X221094Y469500D01*
X218906D01*
X216884Y468663D01*
X215337Y467116D01*
X215168Y467082D01*
X207361Y474889D01*
Y497139D01*
X194500Y510000D01*
X176278D01*
X175366Y510913D01*
X173344Y511750D01*
X171156D01*
X169135Y510913D01*
X168222Y510000D01*
X159250D01*
X126436Y477186D01*
Y453807D01*
X119250D01*
Y484528D01*
X162384Y527663D01*
X168615D01*
X174000Y522278D01*
Y521906D01*
X174837Y519884D01*
X176385Y518337D01*
X178406Y517500D01*
X180594D01*
X182616Y518337D01*
X184003Y519725D01*
X205475D01*
X222500Y536750D01*
X256000D01*
Y528500D01*
D02*
G37*
%LPC*%
G36*
X267000Y526500D02*
X256000D01*
Y517000D01*
X267000D01*
Y526500D01*
D02*
G37*
%LPD*%
D37*
X194750Y437094D02*
X195156D01*
X212000Y420250D01*
D38*
X101700Y427750D02*
X172750D01*
X173000Y428000D01*
X57800Y471650D02*
X101700Y427750D01*
D40*
X268000Y527500D02*
D03*
Y231250D02*
D03*
Y454000D02*
D03*
Y330000D02*
D03*
D41*
X37800Y471650D02*
D03*
X57800Y451650D02*
D03*
Y611650D02*
D03*
X37800D02*
D03*
X57800Y591650D02*
D03*
X37800D02*
D03*
X57800Y571650D02*
D03*
X37800D02*
D03*
X57800Y551650D02*
D03*
X37800D02*
D03*
X57800Y531650D02*
D03*
X37800D02*
D03*
X57800Y511650D02*
D03*
X37800D02*
D03*
X57800Y491650D02*
D03*
X37800D02*
D03*
X57800Y471650D02*
D03*
X37800Y451650D02*
D03*
X57800Y431650D02*
D03*
D42*
X37800D02*
D03*
D43*
X74400Y160000D02*
D03*
X49000Y185400D02*
D03*
X74400D02*
D03*
X49000Y210800D02*
D03*
X74400D02*
D03*
X49000Y236200D02*
D03*
X74400D02*
D03*
X49000Y261600D02*
D03*
X74400D02*
D03*
X49000Y287000D02*
D03*
X74400D02*
D03*
X49000Y312400D02*
D03*
X74400D02*
D03*
X49000Y337800D02*
D03*
X74400D02*
D03*
X49000Y363200D02*
D03*
X74400D02*
D03*
X49000Y388600D02*
D03*
X74400D02*
D03*
D44*
X49000Y160000D02*
D03*
D45*
X101052Y389948D02*
D03*
X128000Y419000D02*
D03*
X137352Y406648D02*
D03*
X214750Y397750D02*
D03*
X220000Y464000D02*
D03*
X209000Y482000D02*
D03*
X173000Y428000D02*
D03*
X185887Y434169D02*
D03*
X269000Y428000D02*
D03*
X278000Y472000D02*
D03*
X276000Y505000D02*
D03*
X245000Y543000D02*
D03*
X121000Y276000D02*
D03*
X89000Y365000D02*
D03*
X95000Y321000D02*
D03*
X111000Y340000D02*
D03*
X108750Y366750D02*
D03*
X145000Y285500D02*
D03*
X232000Y412000D02*
D03*
X167000Y297750D02*
D03*
X109000Y295000D02*
D03*
X151500Y434500D02*
D03*
X90250Y430500D02*
D03*
X95250Y504000D02*
D03*
X103250Y531500D02*
D03*
X236750Y503000D02*
D03*
X182750Y362750D02*
D03*
X165000Y348500D02*
D03*
X127500Y358750D02*
D03*
X141500Y375500D02*
D03*
X208000Y533250D02*
D03*
X237750Y479750D02*
D03*
X194750Y437094D02*
D03*
X144750Y307500D02*
D03*
X172250Y506250D02*
D03*
X196000Y498750D02*
D03*
X134000Y472500D02*
D03*
X133250Y508250D02*
D03*
X153250Y528000D02*
D03*
X113093Y486894D02*
D03*
X109500Y459500D02*
D03*
X156750Y486000D02*
D03*
X185250Y485750D02*
D03*
X185000Y458250D02*
D03*
X157250Y459000D02*
D03*
X122995Y453807D02*
D03*
X122750Y439750D02*
D03*
X179500Y523000D02*
D03*
X165500D02*
D03*
M02*
