G04*
G04 #@! TF.GenerationSoftware,Altium Limited,Altium Designer,23.3.1 (30)*
G04*
G04 Layer_Color=8388736*
%FSLAX44Y44*%
%MOMM*%
G71*
G04*
G04 #@! TF.SameCoordinates,73034098-7AF1-4D24-A32C-B869409C610D*
G04*
G04*
G04 #@! TF.FilePolarity,Negative*
G04*
G01*
G75*
G04:AMPARAMS|DCode=21|XSize=0.95mm|YSize=0.95mm|CornerRadius=0.2625mm|HoleSize=0mm|Usage=FLASHONLY|Rotation=270.000|XOffset=0mm|YOffset=0mm|HoleType=Round|Shape=RoundedRectangle|*
%AMROUNDEDRECTD21*
21,1,0.9500,0.4250,0,0,270.0*
21,1,0.4250,0.9500,0,0,270.0*
1,1,0.5250,-0.2125,-0.2125*
1,1,0.5250,-0.2125,0.2125*
1,1,0.5250,0.2125,0.2125*
1,1,0.5250,0.2125,-0.2125*
%
%ADD21ROUNDEDRECTD21*%
%ADD22C,2.0000*%
%ADD23R,3.7000X3.7000*%
G04:AMPARAMS|DCode=24|XSize=0.86mm|YSize=0.25mm|CornerRadius=0.0688mm|HoleSize=0mm|Usage=FLASHONLY|Rotation=180.000|XOffset=0mm|YOffset=0mm|HoleType=Round|Shape=RoundedRectangle|*
%AMROUNDEDRECTD24*
21,1,0.8600,0.1125,0,0,180.0*
21,1,0.7225,0.2500,0,0,180.0*
1,1,0.1375,-0.3613,0.0563*
1,1,0.1375,0.3613,0.0563*
1,1,0.1375,0.3613,-0.0563*
1,1,0.1375,-0.3613,-0.0563*
%
%ADD24ROUNDEDRECTD24*%
G04:AMPARAMS|DCode=25|XSize=0.86mm|YSize=0.25mm|CornerRadius=0.0688mm|HoleSize=0mm|Usage=FLASHONLY|Rotation=270.000|XOffset=0mm|YOffset=0mm|HoleType=Round|Shape=RoundedRectangle|*
%AMROUNDEDRECTD25*
21,1,0.8600,0.1125,0,0,270.0*
21,1,0.7225,0.2500,0,0,270.0*
1,1,0.1375,-0.0563,-0.3613*
1,1,0.1375,-0.0563,0.3613*
1,1,0.1375,0.0563,0.3613*
1,1,0.1375,0.0563,-0.3613*
%
%ADD25ROUNDEDRECTD25*%
G04:AMPARAMS|DCode=26|XSize=0.95mm|YSize=0.95mm|CornerRadius=0.2625mm|HoleSize=0mm|Usage=FLASHONLY|Rotation=0.000|XOffset=0mm|YOffset=0mm|HoleType=Round|Shape=RoundedRectangle|*
%AMROUNDEDRECTD26*
21,1,0.9500,0.4250,0,0,0.0*
21,1,0.4250,0.9500,0,0,0.0*
1,1,0.5250,0.2125,-0.2125*
1,1,0.5250,-0.2125,-0.2125*
1,1,0.5250,-0.2125,0.2125*
1,1,0.5250,0.2125,0.2125*
%
%ADD26ROUNDEDRECTD26*%
G04:AMPARAMS|DCode=27|XSize=1.1mm|YSize=1.5mm|CornerRadius=0.3mm|HoleSize=0mm|Usage=FLASHONLY|Rotation=270.000|XOffset=0mm|YOffset=0mm|HoleType=Round|Shape=RoundedRectangle|*
%AMROUNDEDRECTD27*
21,1,1.1000,0.9000,0,0,270.0*
21,1,0.5000,1.5000,0,0,270.0*
1,1,0.6000,-0.4500,-0.2500*
1,1,0.6000,-0.4500,0.2500*
1,1,0.6000,0.4500,0.2500*
1,1,0.6000,0.4500,-0.2500*
%
%ADD27ROUNDEDRECTD27*%
%ADD28R,2.1000X1.8000*%
%ADD29C,1.4000*%
G04:AMPARAMS|DCode=30|XSize=1.4mm|YSize=1.4mm|CornerRadius=0.375mm|HoleSize=0mm|Usage=FLASHONLY|Rotation=90.000|XOffset=0mm|YOffset=0mm|HoleType=Round|Shape=RoundedRectangle|*
%AMROUNDEDRECTD30*
21,1,1.4000,0.6500,0,0,90.0*
21,1,0.6500,1.4000,0,0,90.0*
1,1,0.7500,0.3250,0.3250*
1,1,0.7500,0.3250,-0.3250*
1,1,0.7500,-0.3250,-0.3250*
1,1,0.7500,-0.3250,0.3250*
%
%ADD30ROUNDEDRECTD30*%
%ADD31C,0.1000*%
%ADD32C,1.7000*%
G04:AMPARAMS|DCode=33|XSize=1.7mm|YSize=1.7mm|CornerRadius=0.45mm|HoleSize=0mm|Usage=FLASHONLY|Rotation=90.000|XOffset=0mm|YOffset=0mm|HoleType=Round|Shape=RoundedRectangle|*
%AMROUNDEDRECTD33*
21,1,1.7000,0.8000,0,0,90.0*
21,1,0.8000,1.7000,0,0,90.0*
1,1,0.9000,0.4000,0.4000*
1,1,0.9000,0.4000,-0.4000*
1,1,0.9000,-0.4000,-0.4000*
1,1,0.9000,-0.4000,0.4000*
%
%ADD33ROUNDEDRECTD33*%
G36*
X142069Y680497D02*
X143566Y698167D01*
X149377Y694717D01*
X149153Y691880D01*
X148052D01*
X148291Y694438D01*
X145943Y694658D01*
X145513Y690078D01*
X147862Y689858D01*
X148049Y691856D01*
X149152D01*
X148465Y683119D01*
X142069Y680497D01*
D02*
G37*
G36*
X165120Y679162D02*
X166226Y694635D01*
X172664Y699302D01*
X172171Y693059D01*
X171296D01*
X171525Y695504D01*
X169177Y695724D01*
X168748Y691145D01*
X171096Y690925D01*
X171294Y693034D01*
X172169D01*
X171319Y682278D01*
X165120Y679162D01*
D02*
G37*
G36*
X154738Y690922D02*
X152581Y693474D01*
X156692Y696949D01*
X158849Y694398D01*
X154738Y690922D01*
D02*
G37*
G36*
X121104Y736678D02*
X120075Y743991D01*
X124295Y744585D01*
X125324Y737272D01*
X121104Y736678D01*
D02*
G37*
G36*
X149258Y751458D02*
X148784Y758153D01*
X152451Y758412D01*
X152924Y751717D01*
X149258Y751458D01*
D02*
G37*
G36*
X166521Y749637D02*
X165139Y755704D01*
X169424Y756680D01*
X170807Y750613D01*
X166521Y749637D01*
D02*
G37*
G36*
X193391Y753806D02*
X190851Y755976D01*
X194591Y760354D01*
X197131Y758185D01*
X193391Y753806D01*
D02*
G37*
D21*
X119000Y286000D02*
D03*
X133000D02*
D03*
X132750Y308000D02*
D03*
X118750D02*
D03*
X179500Y513750D02*
D03*
X165500Y513750D02*
D03*
D22*
X28250Y670500D02*
D03*
X210000Y20000D02*
D03*
D23*
X170750Y472000D02*
D03*
D24*
X195500Y490000D02*
D03*
Y486000D02*
D03*
Y482000D02*
D03*
Y478000D02*
D03*
Y474000D02*
D03*
Y470000D02*
D03*
Y466000D02*
D03*
Y462000D02*
D03*
Y458000D02*
D03*
Y454000D02*
D03*
X146000Y490000D02*
D03*
Y486000D02*
D03*
Y482000D02*
D03*
Y478000D02*
D03*
Y474000D02*
D03*
Y470000D02*
D03*
Y466000D02*
D03*
Y462000D02*
D03*
Y458000D02*
D03*
Y454000D02*
D03*
D25*
X188750Y447250D02*
D03*
Y496750D02*
D03*
X184750D02*
D03*
Y447250D02*
D03*
X180750Y496750D02*
D03*
Y447250D02*
D03*
X176750Y496750D02*
D03*
X172750D02*
D03*
X152750D02*
D03*
X156750D02*
D03*
X160750D02*
D03*
X164750D02*
D03*
X168750D02*
D03*
X176750Y447250D02*
D03*
X172750D02*
D03*
X168750D02*
D03*
X164750D02*
D03*
X160750D02*
D03*
X156750D02*
D03*
X152750D02*
D03*
D26*
X210000Y454670D02*
D03*
Y468670D02*
D03*
X132250Y439750D02*
D03*
Y453750D02*
D03*
X153500Y415250D02*
D03*
Y401250D02*
D03*
X210000Y426000D02*
D03*
Y440000D02*
D03*
D27*
X173750Y416750D02*
D03*
Y397750D02*
D03*
X195750Y407250D02*
D03*
D28*
X268000Y527500D02*
D03*
Y231250D02*
D03*
Y454000D02*
D03*
Y330000D02*
D03*
D29*
X37800Y471650D02*
D03*
X57800Y451650D02*
D03*
Y611650D02*
D03*
X37800D02*
D03*
X57800Y591650D02*
D03*
X37800D02*
D03*
X57800Y571650D02*
D03*
X37800D02*
D03*
X57800Y551650D02*
D03*
X37800D02*
D03*
X57800Y531650D02*
D03*
X37800D02*
D03*
X57800Y511650D02*
D03*
X37800D02*
D03*
X57800Y491650D02*
D03*
X37800D02*
D03*
X57800Y471650D02*
D03*
X37800Y451650D02*
D03*
X57800Y431650D02*
D03*
D30*
X37800D02*
D03*
D31*
X260000Y730000D02*
D03*
Y40000D02*
D03*
X47500Y730000D02*
D03*
Y40000D02*
D03*
D32*
X74400Y160000D02*
D03*
X49000Y185400D02*
D03*
X74400D02*
D03*
X49000Y210800D02*
D03*
X74400D02*
D03*
X49000Y236200D02*
D03*
X74400D02*
D03*
X49000Y261600D02*
D03*
X74400D02*
D03*
X49000Y287000D02*
D03*
X74400D02*
D03*
X49000Y312400D02*
D03*
X74400D02*
D03*
X49000Y337800D02*
D03*
X74400D02*
D03*
X49000Y363200D02*
D03*
X74400D02*
D03*
X49000Y388600D02*
D03*
X74400D02*
D03*
D33*
X49000Y160000D02*
D03*
M02*
