G04*
G04 #@! TF.GenerationSoftware,Altium Limited,Altium Designer,23.3.1 (30)*
G04*
G04 Layer_Color=16711935*
%FSLAX44Y44*%
%MOMM*%
G71*
G04*
G04 #@! TF.SameCoordinates,73034098-7AF1-4D24-A32C-B869409C610D*
G04*
G04*
G04 #@! TF.FilePolarity,Negative*
G04*
G01*
G75*
%ADD28R,2.1000X1.8000*%
%ADD29C,1.4000*%
G04:AMPARAMS|DCode=30|XSize=1.4mm|YSize=1.4mm|CornerRadius=0.375mm|HoleSize=0mm|Usage=FLASHONLY|Rotation=90.000|XOffset=0mm|YOffset=0mm|HoleType=Round|Shape=RoundedRectangle|*
%AMROUNDEDRECTD30*
21,1,1.4000,0.6500,0,0,90.0*
21,1,0.6500,1.4000,0,0,90.0*
1,1,0.7500,0.3250,0.3250*
1,1,0.7500,0.3250,-0.3250*
1,1,0.7500,-0.3250,-0.3250*
1,1,0.7500,-0.3250,0.3250*
%
%ADD30ROUNDEDRECTD30*%
%ADD31C,0.1000*%
%ADD32C,1.7000*%
G04:AMPARAMS|DCode=33|XSize=1.7mm|YSize=1.7mm|CornerRadius=0.45mm|HoleSize=0mm|Usage=FLASHONLY|Rotation=90.000|XOffset=0mm|YOffset=0mm|HoleType=Round|Shape=RoundedRectangle|*
%AMROUNDEDRECTD33*
21,1,1.7000,0.8000,0,0,90.0*
21,1,0.8000,1.7000,0,0,90.0*
1,1,0.9000,0.4000,0.4000*
1,1,0.9000,0.4000,-0.4000*
1,1,0.9000,-0.4000,-0.4000*
1,1,0.9000,-0.4000,0.4000*
%
%ADD33ROUNDEDRECTD33*%
D28*
X268000Y527500D02*
D03*
Y231250D02*
D03*
Y454000D02*
D03*
Y330000D02*
D03*
D29*
X37800Y471650D02*
D03*
X57800Y451650D02*
D03*
Y611650D02*
D03*
X37800D02*
D03*
X57800Y591650D02*
D03*
X37800D02*
D03*
X57800Y571650D02*
D03*
X37800D02*
D03*
X57800Y551650D02*
D03*
X37800D02*
D03*
X57800Y531650D02*
D03*
X37800D02*
D03*
X57800Y511650D02*
D03*
X37800D02*
D03*
X57800Y491650D02*
D03*
X37800D02*
D03*
X57800Y471650D02*
D03*
X37800Y451650D02*
D03*
X57800Y431650D02*
D03*
D30*
X37800D02*
D03*
D31*
X260000Y730000D02*
D03*
Y40000D02*
D03*
X47500Y730000D02*
D03*
Y40000D02*
D03*
D32*
X74400Y160000D02*
D03*
X49000Y185400D02*
D03*
X74400D02*
D03*
X49000Y210800D02*
D03*
X74400D02*
D03*
X49000Y236200D02*
D03*
X74400D02*
D03*
X49000Y261600D02*
D03*
X74400D02*
D03*
X49000Y287000D02*
D03*
X74400D02*
D03*
X49000Y312400D02*
D03*
X74400D02*
D03*
X49000Y337800D02*
D03*
X74400D02*
D03*
X49000Y363200D02*
D03*
X74400D02*
D03*
X49000Y388600D02*
D03*
X74400D02*
D03*
D33*
X49000Y160000D02*
D03*
M02*
