M48
;Layer_Color=9474304
;FILE_FORMAT=4:4
METRIC,LZ
;TYPE=PLATED
T1F00S00C0.3000
T2F00S00C0.9000
T3F00S00C1.0000
T4F00S00C1.1000
T5F00S00C3.5000
%
T01
X00145Y002855
X0014475Y003075
X00167Y0029775
X00165Y003485
X0018275Y0036275
X001415Y003755
X00137352Y00406648
X001515Y004345
X00173Y00428
X00185887Y00434169
X0019475Y00437094
X00185Y0045825
X0018525Y0048575
X00196Y0049875
X00209Y00482
X0022Y00464
X0023775Y0047975
X0023675Y00503
X00276Y00505
X00278Y00472
X00269Y00428
X00232Y00412
X0021475Y0039775
X0015725Y00459
X0015675Y00486
X0017225Y0050625
X001655Y00523
X001795
X0015325Y00528
X00208Y0053325
X00245Y00543
X0013325Y0050825
X00134Y004725
X00122995Y00453807
X0012275Y0043975
X00128Y00419
X0009025Y004305
X001095Y004595
X00113093Y00486894
X0009525Y00504
X0010325Y005315
X00101052Y00389948
X0010875Y0036675
X00089Y00365
X001275Y0035875
X00111Y0034
X00095Y00321
X00109Y00295
X00121Y00276
T02
X000378Y0043165
Y0045165
Y0047165
Y0049165
Y0051165
Y0053165
Y0055165
Y0057165
Y0059165
Y0061165
X000578
Y0059165
Y0057165
Y0055165
Y0053165
Y0051165
Y0049165
Y0047165
Y0045165
Y0043165
T03
X00049Y0016
X000744
Y001854
X00049
Y002108
X000744
Y002362
X00049
Y002616
X000744
Y00287
X00049
Y003124
X000744
Y003378
X00049
Y003632
X000744
Y003886
X00049
T04
X00268Y0023125
Y0033
Y00454
Y005275
T05
X000475Y0004
X0026
X000475Y0073
X0026
M30
