G04*
G04 #@! TF.GenerationSoftware,Altium Limited,Altium Designer,23.3.1 (30)*
G04*
G04 Layer_Color=8388736*
%FSLAX44Y44*%
%MOMM*%
G71*
G04*
G04 #@! TF.SameCoordinates,41E75030-AC82-498C-80ED-DFD746C42E25*
G04*
G04*
G04 #@! TF.FilePolarity,Negative*
G04*
G01*
G75*
%ADD15O,3.1000X1.5000*%
%ADD16C,2.0000*%
G04:AMPARAMS|DCode=17|XSize=1.1mm|YSize=1.5mm|CornerRadius=0.3mm|HoleSize=0mm|Usage=FLASHONLY|Rotation=270.000|XOffset=0mm|YOffset=0mm|HoleType=Round|Shape=RoundedRectangle|*
%AMROUNDEDRECTD17*
21,1,1.1000,0.9000,0,0,270.0*
21,1,0.5000,1.5000,0,0,270.0*
1,1,0.6000,-0.4500,-0.2500*
1,1,0.6000,-0.4500,0.2500*
1,1,0.6000,0.4500,0.2500*
1,1,0.6000,0.4500,-0.2500*
%
%ADD17ROUNDEDRECTD17*%
G04:AMPARAMS|DCode=18|XSize=0.95mm|YSize=0.95mm|CornerRadius=0.2625mm|HoleSize=0mm|Usage=FLASHONLY|Rotation=0.000|XOffset=0mm|YOffset=0mm|HoleType=Round|Shape=RoundedRectangle|*
%AMROUNDEDRECTD18*
21,1,0.9500,0.4250,0,0,0.0*
21,1,0.4250,0.9500,0,0,0.0*
1,1,0.5250,0.2125,-0.2125*
1,1,0.5250,-0.2125,-0.2125*
1,1,0.5250,-0.2125,0.2125*
1,1,0.5250,0.2125,0.2125*
%
%ADD18ROUNDEDRECTD18*%
%ADD19C,0.1000*%
G04:AMPARAMS|DCode=20|XSize=1.8mm|YSize=2.1mm|CornerRadius=0.475mm|HoleSize=0mm|Usage=FLASHONLY|Rotation=90.000|XOffset=0mm|YOffset=0mm|HoleType=Round|Shape=RoundedRectangle|*
%AMROUNDEDRECTD20*
21,1,1.8000,1.1500,0,0,90.0*
21,1,0.8500,2.1000,0,0,90.0*
1,1,0.9500,0.5750,0.4250*
1,1,0.9500,0.5750,-0.4250*
1,1,0.9500,-0.5750,-0.4250*
1,1,0.9500,-0.5750,0.4250*
%
%ADD20ROUNDEDRECTD20*%
%ADD21C,1.4000*%
G04:AMPARAMS|DCode=22|XSize=1.4mm|YSize=1.4mm|CornerRadius=0.375mm|HoleSize=0mm|Usage=FLASHONLY|Rotation=90.000|XOffset=0mm|YOffset=0mm|HoleType=Round|Shape=RoundedRectangle|*
%AMROUNDEDRECTD22*
21,1,1.4000,0.6500,0,0,90.0*
21,1,0.6500,1.4000,0,0,90.0*
1,1,0.7500,0.3250,0.3250*
1,1,0.7500,0.3250,-0.3250*
1,1,0.7500,-0.3250,-0.3250*
1,1,0.7500,-0.3250,0.3250*
%
%ADD22ROUNDEDRECTD22*%
%ADD23C,1.7000*%
G04:AMPARAMS|DCode=24|XSize=1.7mm|YSize=1.7mm|CornerRadius=0.45mm|HoleSize=0mm|Usage=FLASHONLY|Rotation=90.000|XOffset=0mm|YOffset=0mm|HoleType=Round|Shape=RoundedRectangle|*
%AMROUNDEDRECTD24*
21,1,1.7000,0.8000,0,0,90.0*
21,1,0.8000,1.7000,0,0,90.0*
1,1,0.9000,0.4000,0.4000*
1,1,0.9000,0.4000,-0.4000*
1,1,0.9000,-0.4000,-0.4000*
1,1,0.9000,-0.4000,0.4000*
%
%ADD24ROUNDEDRECTD24*%
G36*
X142069Y680497D02*
X143566Y698167D01*
X149377Y694717D01*
X149153Y691880D01*
X148052D01*
X148291Y694438D01*
X145943Y694658D01*
X145513Y690078D01*
X147862Y689858D01*
X148049Y691856D01*
X149152D01*
X148465Y683119D01*
X142069Y680497D01*
D02*
G37*
G36*
X165120Y679162D02*
X166226Y694635D01*
X172664Y699302D01*
X172171Y693059D01*
X171296D01*
X171525Y695504D01*
X169177Y695724D01*
X168748Y691145D01*
X171096Y690925D01*
X171294Y693034D01*
X172169D01*
X171319Y682278D01*
X165120Y679162D01*
D02*
G37*
G36*
X154738Y690922D02*
X152581Y693474D01*
X156692Y696949D01*
X158849Y694398D01*
X154738Y690922D01*
D02*
G37*
G36*
X121104Y736678D02*
X120075Y743991D01*
X124295Y744585D01*
X125324Y737272D01*
X121104Y736678D01*
D02*
G37*
G36*
X149258Y751458D02*
X148784Y758153D01*
X152451Y758412D01*
X152924Y751717D01*
X149258Y751458D01*
D02*
G37*
G36*
X166521Y749637D02*
X165139Y755704D01*
X169424Y756680D01*
X170807Y750613D01*
X166521Y749637D01*
D02*
G37*
G36*
X193391Y753806D02*
X190851Y755976D01*
X194591Y760354D01*
X197131Y758185D01*
X193391Y753806D01*
D02*
G37*
D15*
X279000Y400000D02*
D03*
Y213000D02*
D03*
Y321000D02*
D03*
X162000Y612000D02*
D03*
X279000D02*
D03*
X162000Y594000D02*
D03*
X279000Y576000D02*
D03*
X162000D02*
D03*
X279000Y375000D02*
D03*
X162000Y558000D02*
D03*
X279000D02*
D03*
X162000Y540000D02*
D03*
Y522000D02*
D03*
X279000D02*
D03*
X162000Y504000D02*
D03*
X279000Y486000D02*
D03*
Y468000D02*
D03*
X162000D02*
D03*
Y450000D02*
D03*
X279000D02*
D03*
X159000Y401000D02*
D03*
X279000Y594000D02*
D03*
Y294000D02*
D03*
Y348000D02*
D03*
Y276000D02*
D03*
Y106000D02*
D03*
Y258000D02*
D03*
Y186000D02*
D03*
Y240000D02*
D03*
Y540000D02*
D03*
Y132000D02*
D03*
Y168000D02*
D03*
X144000Y315000D02*
D03*
X279000Y504000D02*
D03*
X144000Y297000D02*
D03*
X279000Y150000D02*
D03*
X144000Y279000D02*
D03*
X279000Y80000D02*
D03*
X144000Y261000D02*
D03*
D16*
X98000Y18500D02*
D03*
X28250Y670500D02*
D03*
X210000Y20000D02*
D03*
D17*
X188750Y388000D02*
D03*
Y369000D02*
D03*
X210750Y378500D02*
D03*
D18*
X148750Y382500D02*
D03*
Y368500D02*
D03*
X167750D02*
D03*
Y382500D02*
D03*
D19*
X260000Y730000D02*
D03*
Y40000D02*
D03*
X47500Y730000D02*
D03*
Y40000D02*
D03*
D20*
X200000Y596000D02*
D03*
X150000Y100000D02*
D03*
X162000Y425000D02*
D03*
X280000D02*
D03*
D21*
X37800Y471650D02*
D03*
X57800Y451650D02*
D03*
Y611650D02*
D03*
X37800D02*
D03*
X57800Y591650D02*
D03*
X37800D02*
D03*
X57800Y571650D02*
D03*
X37800D02*
D03*
X57800Y551650D02*
D03*
X37800D02*
D03*
X57800Y531650D02*
D03*
X37800D02*
D03*
X57800Y511650D02*
D03*
X37800D02*
D03*
X57800Y491650D02*
D03*
X37800D02*
D03*
X57800Y471650D02*
D03*
X37800Y451650D02*
D03*
X57800Y431650D02*
D03*
D22*
X37800D02*
D03*
D23*
X74400Y160000D02*
D03*
X49000Y185400D02*
D03*
X74400D02*
D03*
X49000Y210800D02*
D03*
X74400D02*
D03*
X49000Y236200D02*
D03*
X74400D02*
D03*
X49000Y261600D02*
D03*
X74400D02*
D03*
X49000Y287000D02*
D03*
X74400D02*
D03*
X49000Y312400D02*
D03*
X74400D02*
D03*
X49000Y337800D02*
D03*
X74400D02*
D03*
X49000Y363200D02*
D03*
X74400D02*
D03*
X49000Y388600D02*
D03*
X74400D02*
D03*
D24*
X49000Y160000D02*
D03*
M02*
