M48
;Layer_Color=9474304
;FILE_FORMAT=4:4
METRIC,LZ
;TYPE=PLATED
T1F00S00C0.3000
T2F00S00C0.9000
T3F00S00C1.0000
T4F00S00C1.1000
T5F00S00C3.5000
%
T01
X00258Y000795
X002575Y00213
X0025725Y0032125
X0025475Y0037475
X00177Y0036175
X00139Y004495
X00198Y00522
Y00558
Y00576
X0025475Y00594
Y0053975
X00255Y00504
X0025525Y00468
T02
X000378Y0043165
Y0045165
Y0047165
Y0049165
Y0051165
Y0053165
Y0055165
Y0057165
Y0059165
Y0061165
X000578
Y0059165
Y0057165
Y0055165
Y0053165
Y0051165
Y0049165
Y0047165
Y0045165
Y0043165
T03
X00049Y0016
X000744
Y001854
X00049
Y002108
X000744
Y002362
X00049
Y002616
X000744
Y00287
X00049
Y003124
X000744
Y003378
X00049
Y003632
X000744
Y003886
X00049
T04
X0015Y001
X00162Y00425
X0028
X002Y00596
T05
X000475Y0004
X0026
X000475Y0073
X0026
M30
