G04*
G04 #@! TF.GenerationSoftware,Altium Limited,Altium Designer,23.3.1 (30)*
G04*
G04 Layer_Color=8388736*
%FSLAX44Y44*%
%MOMM*%
G71*
G04*
G04 #@! TF.SameCoordinates,E7C39D28-7B35-4B43-AE6B-8B00C768E268*
G04*
G04*
G04 #@! TF.FilePolarity,Negative*
G04*
G01*
G75*
G04:AMPARAMS|DCode=22|XSize=0.95mm|YSize=0.95mm|CornerRadius=0.2625mm|HoleSize=0mm|Usage=FLASHONLY|Rotation=180.000|XOffset=0mm|YOffset=0mm|HoleType=Round|Shape=RoundedRectangle|*
%AMROUNDEDRECTD22*
21,1,0.9500,0.4250,0,0,180.0*
21,1,0.4250,0.9500,0,0,180.0*
1,1,0.5250,-0.2125,0.2125*
1,1,0.5250,0.2125,0.2125*
1,1,0.5250,0.2125,-0.2125*
1,1,0.5250,-0.2125,-0.2125*
%
%ADD22ROUNDEDRECTD22*%
G04:AMPARAMS|DCode=23|XSize=1.3mm|YSize=1.57mm|CornerRadius=0.35mm|HoleSize=0mm|Usage=FLASHONLY|Rotation=0.000|XOffset=0mm|YOffset=0mm|HoleType=Round|Shape=RoundedRectangle|*
%AMROUNDEDRECTD23*
21,1,1.3000,0.8700,0,0,0.0*
21,1,0.6000,1.5700,0,0,0.0*
1,1,0.7000,0.3000,-0.4350*
1,1,0.7000,-0.3000,-0.4350*
1,1,0.7000,-0.3000,0.4350*
1,1,0.7000,0.3000,0.4350*
%
%ADD23ROUNDEDRECTD23*%
%ADD24O,0.2490X0.8600*%
%ADD25O,0.8600X0.2490*%
%ADD26R,4.3500X4.3500*%
G04:AMPARAMS|DCode=27|XSize=1.1mm|YSize=1.5mm|CornerRadius=0.3mm|HoleSize=0mm|Usage=FLASHONLY|Rotation=90.000|XOffset=0mm|YOffset=0mm|HoleType=Round|Shape=RoundedRectangle|*
%AMROUNDEDRECTD27*
21,1,1.1000,0.9000,0,0,90.0*
21,1,0.5000,1.5000,0,0,90.0*
1,1,0.6000,0.4500,0.2500*
1,1,0.6000,0.4500,-0.2500*
1,1,0.6000,-0.4500,-0.2500*
1,1,0.6000,-0.4500,0.2500*
%
%ADD27ROUNDEDRECTD27*%
%ADD28C,2.0000*%
%ADD29R,1.1500X1.4000*%
G04:AMPARAMS|DCode=30|XSize=0.95mm|YSize=0.95mm|CornerRadius=0.2625mm|HoleSize=0mm|Usage=FLASHONLY|Rotation=90.000|XOffset=0mm|YOffset=0mm|HoleType=Round|Shape=RoundedRectangle|*
%AMROUNDEDRECTD30*
21,1,0.9500,0.4250,0,0,90.0*
21,1,0.4250,0.9500,0,0,90.0*
1,1,0.5250,0.2125,0.2125*
1,1,0.5250,0.2125,-0.2125*
1,1,0.5250,-0.2125,-0.2125*
1,1,0.5250,-0.2125,0.2125*
%
%ADD30ROUNDEDRECTD30*%
%ADD31O,1.8000X2.1000*%
%ADD32R,1.8000X2.1000*%
G04:AMPARAMS|DCode=33|XSize=1.8mm|YSize=2.1mm|CornerRadius=0.475mm|HoleSize=0mm|Usage=FLASHONLY|Rotation=90.000|XOffset=0mm|YOffset=0mm|HoleType=Round|Shape=RoundedRectangle|*
%AMROUNDEDRECTD33*
21,1,1.8000,1.1500,0,0,90.0*
21,1,0.8500,2.1000,0,0,90.0*
1,1,0.9500,0.5750,0.4250*
1,1,0.9500,0.5750,-0.4250*
1,1,0.9500,-0.5750,-0.4250*
1,1,0.9500,-0.5750,0.4250*
%
%ADD33ROUNDEDRECTD33*%
%ADD34C,1.4000*%
G04:AMPARAMS|DCode=35|XSize=1.4mm|YSize=1.4mm|CornerRadius=0.375mm|HoleSize=0mm|Usage=FLASHONLY|Rotation=90.000|XOffset=0mm|YOffset=0mm|HoleType=Round|Shape=RoundedRectangle|*
%AMROUNDEDRECTD35*
21,1,1.4000,0.6500,0,0,90.0*
21,1,0.6500,1.4000,0,0,90.0*
1,1,0.7500,0.3250,0.3250*
1,1,0.7500,0.3250,-0.3250*
1,1,0.7500,-0.3250,-0.3250*
1,1,0.7500,-0.3250,0.3250*
%
%ADD35ROUNDEDRECTD35*%
%ADD36C,0.1000*%
%ADD37C,1.7000*%
G04:AMPARAMS|DCode=38|XSize=1.7mm|YSize=1.7mm|CornerRadius=0.45mm|HoleSize=0mm|Usage=FLASHONLY|Rotation=90.000|XOffset=0mm|YOffset=0mm|HoleType=Round|Shape=RoundedRectangle|*
%AMROUNDEDRECTD38*
21,1,1.7000,0.8000,0,0,90.0*
21,1,0.8000,1.7000,0,0,90.0*
1,1,0.9000,0.4000,0.4000*
1,1,0.9000,0.4000,-0.4000*
1,1,0.9000,-0.4000,-0.4000*
1,1,0.9000,-0.4000,0.4000*
%
%ADD38ROUNDEDRECTD38*%
G36*
X142900Y680963D02*
X144397Y698633D01*
X150208Y695183D01*
X149985Y692346D01*
X148883D01*
X149122Y694903D01*
X146774Y695124D01*
X146344Y690544D01*
X148693Y690324D01*
X148881Y692322D01*
X149983D01*
X149296Y683585D01*
X142900Y680963D01*
D02*
G37*
G36*
X165951Y679628D02*
X167057Y695101D01*
X173496Y699768D01*
X173002Y693524D01*
X172127D01*
X172357Y695970D01*
X170008Y696190D01*
X169579Y691611D01*
X171927Y691391D01*
X172125Y693500D01*
X173000D01*
X172150Y682744D01*
X165951Y679628D01*
D02*
G37*
G36*
X155569Y691388D02*
X153412Y693940D01*
X157523Y697415D01*
X159680Y694864D01*
X155569Y691388D01*
D02*
G37*
G36*
X121935Y737144D02*
X120906Y744457D01*
X125126Y745051D01*
X126156Y737738D01*
X121935Y737144D01*
D02*
G37*
G36*
X150090Y751924D02*
X149615Y758619D01*
X153282Y758878D01*
X153756Y752183D01*
X150090Y751924D01*
D02*
G37*
G36*
X167353Y750102D02*
X165970Y756170D01*
X170256Y757146D01*
X171638Y751079D01*
X167353Y750102D01*
D02*
G37*
G36*
X194223Y754272D02*
X191682Y756441D01*
X195422Y760820D01*
X197962Y758651D01*
X194223Y754272D01*
D02*
G37*
D22*
X291000Y466923D02*
D03*
Y452923D02*
D03*
Y490000D02*
D03*
Y504000D02*
D03*
X234000Y483083D02*
D03*
Y497083D02*
D03*
X159000Y433000D02*
D03*
Y447000D02*
D03*
X107000D02*
D03*
Y433000D02*
D03*
X216000Y482500D02*
D03*
Y496500D02*
D03*
D23*
X218150Y528250D02*
D03*
X235350D02*
D03*
D24*
X143250Y476000D02*
D03*
X147250D02*
D03*
X151250D02*
D03*
X155250D02*
D03*
X159250D02*
D03*
X163250D02*
D03*
X167250D02*
D03*
X171250D02*
D03*
X175250D02*
D03*
X179250D02*
D03*
X183250D02*
D03*
X187250D02*
D03*
X151250Y535000D02*
D03*
X159250D02*
D03*
X163250D02*
D03*
X167250D02*
D03*
X171250D02*
D03*
X155250D02*
D03*
X147250D02*
D03*
X143250D02*
D03*
X175250D02*
D03*
X179250D02*
D03*
X183250D02*
D03*
X187250D02*
D03*
D25*
X194750Y523500D02*
D03*
Y511500D02*
D03*
Y515500D02*
D03*
Y519500D02*
D03*
Y527500D02*
D03*
Y507500D02*
D03*
Y483500D02*
D03*
Y487500D02*
D03*
Y491500D02*
D03*
Y495500D02*
D03*
Y499500D02*
D03*
Y503500D02*
D03*
X135750D02*
D03*
Y483500D02*
D03*
Y487500D02*
D03*
Y491500D02*
D03*
Y495500D02*
D03*
Y499500D02*
D03*
Y507500D02*
D03*
Y511500D02*
D03*
Y515500D02*
D03*
Y519500D02*
D03*
Y523500D02*
D03*
Y527500D02*
D03*
D26*
X165250Y505500D02*
D03*
D27*
X252000Y488750D02*
D03*
X274000Y498250D02*
D03*
Y479250D02*
D03*
D28*
X286000Y75000D02*
D03*
X28000Y670000D02*
D03*
D29*
X143000Y451250D02*
D03*
X124500D02*
D03*
Y428250D02*
D03*
X143000D02*
D03*
D30*
X165500Y410000D02*
D03*
X151500D02*
D03*
X151250Y391000D02*
D03*
X165250D02*
D03*
X245750Y512000D02*
D03*
X231750D02*
D03*
X146000Y552499D02*
D03*
X132000D02*
D03*
D31*
X116800Y25000D02*
D03*
X142200D02*
D03*
X193000D02*
D03*
X167600D02*
D03*
X91400D02*
D03*
X182550Y310000D02*
D03*
D32*
X218400Y25000D02*
D03*
X207950Y310000D02*
D03*
D33*
X284250D02*
D03*
X239000Y427000D02*
D03*
X270500Y225500D02*
D03*
X275000Y624750D02*
D03*
X122000Y156000D02*
D03*
X263000Y542000D02*
D03*
X216000Y370000D02*
D03*
D34*
X57800Y611650D02*
D03*
X37800D02*
D03*
X57800Y591650D02*
D03*
X37800D02*
D03*
X57800Y571650D02*
D03*
X37800D02*
D03*
X57800Y551650D02*
D03*
X37800D02*
D03*
X57800Y531650D02*
D03*
X37800D02*
D03*
X57800Y511650D02*
D03*
X37800D02*
D03*
X57800Y491650D02*
D03*
X37800D02*
D03*
X57800Y471650D02*
D03*
X37800D02*
D03*
X57800Y451650D02*
D03*
X37800D02*
D03*
X57800Y431650D02*
D03*
D35*
X37800D02*
D03*
D36*
X260000Y730000D02*
D03*
Y40000D02*
D03*
X47500Y730000D02*
D03*
Y40000D02*
D03*
D37*
X74400Y160000D02*
D03*
X49000Y185400D02*
D03*
X74400D02*
D03*
X49000Y210800D02*
D03*
X74400D02*
D03*
X49000Y236200D02*
D03*
X74400D02*
D03*
X49000Y261600D02*
D03*
X74400D02*
D03*
X49000Y287000D02*
D03*
X74400D02*
D03*
X49000Y312400D02*
D03*
X74400D02*
D03*
X49000Y337800D02*
D03*
X74400D02*
D03*
X49000Y363200D02*
D03*
X74400D02*
D03*
X49000Y388600D02*
D03*
X74400D02*
D03*
D38*
X49000Y160000D02*
D03*
M02*
