M48
;Layer_Color=9474304
;FILE_FORMAT=4:4
METRIC,LZ
;TYPE=PLATED
T1F00S00C0.3000
T2F00S00C0.9000
T3F00S00C1.0000
T4F00S00C1.1000
T5F00S00C3.5000
%
T01
X00015Y00062
X00014Y00129
X00116699Y00173699
X00152Y00213
X00193Y00216
X00244Y00162
X00293Y00204
Y00091
X00195Y00092
X00168Y00093
X00169Y0004425
X00205Y00044
X0018825Y0000625
X002345Y0000925
X00228Y00269
X00227Y00295
X00152Y00269
X00157075Y00363296
X00168Y004005
X0017725Y004
X002Y004
X0022825Y0039625
X0025Y00413
X00269Y00433
X00278Y00465
X00256396Y00499612
X0024625Y005215
X00225Y00491
X00227Y00472
X00229Y00441
X0016925Y0044625
X0017Y0041975
X00166Y00494
Y00513
X00183Y00523
X00148
X00159Y00544
X00166Y00552
X00163Y006
X00196Y00626
X00214Y00576
Y00542
X0020725Y005035
X0020375Y00494
X00198Y00477
X00183Y00488
X00148
X00294Y00515
Y00576
X00256
X00275476Y00378401
X00293Y00382
X00133Y00411
X000975Y0044
X00104Y00485
X0009575Y0051175
X00132Y00536
Y00565
X00133Y00612
X000755Y0061175
X00076Y00561
X00135Y00474
X00039Y00376
X00014Y00649
X0009
X0016
X0023
X00294
T02
X000378Y0043165
Y0045165
Y0047165
Y0049165
Y0051165
Y0053165
Y0055165
Y0057165
Y0059165
Y0061165
X000578
Y0059165
Y0057165
Y0055165
Y0053165
Y0051165
Y0049165
Y0047165
Y0045165
Y0043165
T03
X00049Y0016
X000744
Y001854
X00049
Y002108
X000744
Y002362
X00049
Y002616
X000744
Y00287
X00049
Y003124
X000744
Y003378
X00049
Y003632
X000744
Y003886
X00049
T04
X000914Y00025
X001168
X00122Y00156
X001422Y00025
X001676
X00193
X002184
X002705Y002255
X0028425Y0031
X0020795
X0018255
X00216Y0037
X00239Y00427
X00263Y00542
X00275Y0062475
T05
X000475Y0004
X0026
X000475Y0073
X0026
M30
