G04*
G04 #@! TF.GenerationSoftware,Altium Limited,Altium Designer,23.3.1 (30)*
G04*
G04 Layer_Physical_Order=1*
G04 Layer_Color=255*
%FSLAX44Y44*%
%MOMM*%
G71*
G04*
G04 #@! TF.SameCoordinates,E7C39D28-7B35-4B43-AE6B-8B00C768E268*
G04*
G04*
G04 #@! TF.FilePolarity,Positive*
G04*
G01*
G75*
%ADD10C,0.2000*%
G04:AMPARAMS|DCode=15|XSize=0.85mm|YSize=0.85mm|CornerRadius=0.2125mm|HoleSize=0mm|Usage=FLASHONLY|Rotation=180.000|XOffset=0mm|YOffset=0mm|HoleType=Round|Shape=RoundedRectangle|*
%AMROUNDEDRECTD15*
21,1,0.8500,0.4250,0,0,180.0*
21,1,0.4250,0.8500,0,0,180.0*
1,1,0.4250,-0.2125,0.2125*
1,1,0.4250,0.2125,0.2125*
1,1,0.4250,0.2125,-0.2125*
1,1,0.4250,-0.2125,-0.2125*
%
%ADD15ROUNDEDRECTD15*%
G04:AMPARAMS|DCode=16|XSize=1.2mm|YSize=1.47mm|CornerRadius=0.3mm|HoleSize=0mm|Usage=FLASHONLY|Rotation=0.000|XOffset=0mm|YOffset=0mm|HoleType=Round|Shape=RoundedRectangle|*
%AMROUNDEDRECTD16*
21,1,1.2000,0.8700,0,0,0.0*
21,1,0.6000,1.4700,0,0,0.0*
1,1,0.6000,0.3000,-0.4350*
1,1,0.6000,-0.3000,-0.4350*
1,1,0.6000,-0.3000,0.4350*
1,1,0.6000,0.3000,0.4350*
%
%ADD16ROUNDEDRECTD16*%
%ADD17O,0.1990X0.8100*%
%ADD18O,0.8100X0.1990*%
G04:AMPARAMS|DCode=19|XSize=1mm|YSize=1.4mm|CornerRadius=0.25mm|HoleSize=0mm|Usage=FLASHONLY|Rotation=90.000|XOffset=0mm|YOffset=0mm|HoleType=Round|Shape=RoundedRectangle|*
%AMROUNDEDRECTD19*
21,1,1.0000,0.9000,0,0,90.0*
21,1,0.5000,1.4000,0,0,90.0*
1,1,0.5000,0.4500,0.2500*
1,1,0.5000,0.4500,-0.2500*
1,1,0.5000,-0.4500,-0.2500*
1,1,0.5000,-0.4500,0.2500*
%
%ADD19ROUNDEDRECTD19*%
%ADD20R,1.0500X1.3000*%
G04:AMPARAMS|DCode=21|XSize=0.85mm|YSize=0.85mm|CornerRadius=0.2125mm|HoleSize=0mm|Usage=FLASHONLY|Rotation=90.000|XOffset=0mm|YOffset=0mm|HoleType=Round|Shape=RoundedRectangle|*
%AMROUNDEDRECTD21*
21,1,0.8500,0.4250,0,0,90.0*
21,1,0.4250,0.8500,0,0,90.0*
1,1,0.4250,0.2125,0.2125*
1,1,0.4250,0.2125,-0.2125*
1,1,0.4250,-0.2125,-0.2125*
1,1,0.4250,-0.2125,0.2125*
%
%ADD21ROUNDEDRECTD21*%
%ADD39R,4.3000X4.3000*%
%ADD40C,1.0000*%
%ADD41C,0.1500*%
%ADD42C,0.1250*%
%ADD43C,0.3000*%
%ADD44C,0.2500*%
%ADD45O,1.7000X2.0000*%
%ADD46R,1.7000X2.0000*%
G04:AMPARAMS|DCode=47|XSize=1.7mm|YSize=2mm|CornerRadius=0.425mm|HoleSize=0mm|Usage=FLASHONLY|Rotation=90.000|XOffset=0mm|YOffset=0mm|HoleType=Round|Shape=RoundedRectangle|*
%AMROUNDEDRECTD47*
21,1,1.7000,1.1500,0,0,90.0*
21,1,0.8500,2.0000,0,0,90.0*
1,1,0.8500,0.5750,0.4250*
1,1,0.8500,0.5750,-0.4250*
1,1,0.8500,-0.5750,-0.4250*
1,1,0.8500,-0.5750,0.4250*
%
%ADD47ROUNDEDRECTD47*%
%ADD48C,1.3000*%
G04:AMPARAMS|DCode=49|XSize=1.3mm|YSize=1.3mm|CornerRadius=0.325mm|HoleSize=0mm|Usage=FLASHONLY|Rotation=90.000|XOffset=0mm|YOffset=0mm|HoleType=Round|Shape=RoundedRectangle|*
%AMROUNDEDRECTD49*
21,1,1.3000,0.6500,0,0,90.0*
21,1,0.6500,1.3000,0,0,90.0*
1,1,0.6500,0.3250,0.3250*
1,1,0.6500,0.3250,-0.3250*
1,1,0.6500,-0.3250,-0.3250*
1,1,0.6500,-0.3250,0.3250*
%
%ADD49ROUNDEDRECTD49*%
%ADD50C,1.6000*%
G04:AMPARAMS|DCode=51|XSize=1.6mm|YSize=1.6mm|CornerRadius=0.4mm|HoleSize=0mm|Usage=FLASHONLY|Rotation=90.000|XOffset=0mm|YOffset=0mm|HoleType=Round|Shape=RoundedRectangle|*
%AMROUNDEDRECTD51*
21,1,1.6000,0.8000,0,0,90.0*
21,1,0.8000,1.6000,0,0,90.0*
1,1,0.8000,0.4000,0.4000*
1,1,0.8000,0.4000,-0.4000*
1,1,0.8000,-0.4000,-0.4000*
1,1,0.8000,-0.4000,0.4000*
%
%ADD51ROUNDEDRECTD51*%
%ADD52C,0.7000*%
G36*
X197962Y758651D02*
X194223Y754272D01*
X191682Y756441D01*
X195422Y760820D01*
X197962Y758651D01*
D02*
G37*
G36*
X153756Y752183D02*
X150090Y751924D01*
X149615Y758619D01*
X153282Y758878D01*
X153756Y752183D01*
D02*
G37*
G36*
X171638Y751079D02*
X167353Y750102D01*
X165970Y756170D01*
X170256Y757146D01*
X171638Y751079D01*
D02*
G37*
G36*
X126156Y737738D02*
X121935Y737144D01*
X120906Y744457D01*
X125126Y745051D01*
X126156Y737738D01*
D02*
G37*
G36*
X152897Y710554D02*
X155553Y712575D01*
X159767Y707667D01*
X163751Y714480D01*
X175384Y712142D01*
X195736Y691531D01*
X196602Y676462D01*
X177452Y655770D01*
X131650Y661307D01*
X117881Y684429D01*
X135302Y713271D01*
X137308Y709342D01*
X150472Y716963D01*
X152897Y710554D01*
D02*
G37*
G36*
X297451Y509362D02*
X296181Y508976D01*
X296099Y509099D01*
X294734Y510011D01*
X293125Y510331D01*
X292000D01*
Y504000D01*
Y497669D01*
X293125D01*
X294734Y497989D01*
X296099Y498901D01*
X296181Y499024D01*
X297451Y498638D01*
Y495362D01*
X296181Y494976D01*
X296099Y495099D01*
X294734Y496011D01*
X293125Y496331D01*
X288875D01*
X287265Y496011D01*
X285901Y495099D01*
X284989Y493735D01*
X284669Y492125D01*
Y487875D01*
X284989Y486265D01*
X285901Y484901D01*
X287265Y483989D01*
X287941Y483855D01*
Y482309D01*
X282977D01*
X282739Y483506D01*
X281744Y484994D01*
X280256Y485989D01*
X278500Y486338D01*
X269500D01*
X267744Y485989D01*
X266256Y484994D01*
X265261Y483506D01*
X264912Y481750D01*
Y476750D01*
X265261Y474994D01*
X266256Y473506D01*
X267744Y472511D01*
X269500Y472162D01*
X278500D01*
X280256Y472511D01*
X281744Y473506D01*
X282739Y474994D01*
X282977Y476191D01*
X287941D01*
Y473068D01*
X287265Y472934D01*
X285901Y472022D01*
X284989Y470658D01*
X284669Y469048D01*
Y455331D01*
X284716Y455284D01*
X284669Y455048D01*
Y450798D01*
X284989Y449189D01*
X285901Y447824D01*
X287265Y446912D01*
X287941Y446778D01*
Y395191D01*
X276627Y383877D01*
X276570Y383901D01*
X274382D01*
X272361Y383063D01*
X270814Y381516D01*
X269977Y379495D01*
Y377307D01*
X270814Y375285D01*
X272361Y373738D01*
X274382Y372901D01*
X276570D01*
X278592Y373738D01*
X280139Y375285D01*
X280977Y377307D01*
Y379495D01*
X280953Y379551D01*
X291701Y390299D01*
X297451Y384549D01*
Y315338D01*
X296181Y315213D01*
X295887Y316689D01*
X294506Y318756D01*
X292439Y320137D01*
X290000Y320622D01*
X285250D01*
Y310000D01*
Y299378D01*
X290000D01*
X292439Y299863D01*
X294506Y301244D01*
X295887Y303311D01*
X296181Y304787D01*
X297451Y304662D01*
Y35000D01*
X297451Y35000D01*
Y34720D01*
X297090Y30128D01*
X297049Y29818D01*
X295884Y24965D01*
X293934Y20257D01*
X291326Y16001D01*
X291136Y15755D01*
X288144Y12251D01*
X287749Y11856D01*
X284245Y8863D01*
X283999Y8675D01*
X279743Y6066D01*
X275035Y4116D01*
X270180Y2951D01*
X269874Y2910D01*
X266239Y2625D01*
X265000Y2549D01*
X263746Y2549D01*
X263731Y2549D01*
X42500Y2549D01*
X42499Y2549D01*
X42220D01*
X37627Y2910D01*
X37319Y2951D01*
X32465Y4116D01*
X27757Y6066D01*
X23501Y8674D01*
X23255Y8863D01*
X19751Y11856D01*
X19356Y12251D01*
X16363Y15756D01*
X16175Y16001D01*
X13566Y20257D01*
X11616Y24965D01*
X10451Y29820D01*
X10410Y30126D01*
X10125Y33750D01*
X10049Y35000D01*
X10049Y35000D01*
X10049Y36248D01*
Y136689D01*
X11222Y137175D01*
X111510Y36888D01*
X111179Y35422D01*
X109311Y33989D01*
X107628Y31795D01*
X106570Y29241D01*
X106209Y26500D01*
Y23500D01*
X106570Y20759D01*
X107628Y18205D01*
X109311Y16011D01*
X111505Y14328D01*
X114059Y13270D01*
X116800Y12909D01*
X119541Y13270D01*
X122095Y14328D01*
X124289Y16011D01*
X125972Y18205D01*
X127030Y20759D01*
X127042Y20855D01*
X127826Y21416D01*
X131570D01*
X131970Y20759D01*
X133028Y18205D01*
X134711Y16011D01*
X136905Y14328D01*
X139459Y13270D01*
X142200Y12909D01*
X144941Y13270D01*
X147495Y14328D01*
X149689Y16011D01*
X151372Y18205D01*
X152430Y20759D01*
X152830Y21416D01*
X154324D01*
Y16992D01*
X154324Y16991D01*
X154527Y15967D01*
X155107Y15099D01*
X160355Y9851D01*
X161223Y9271D01*
X162248Y9067D01*
X162248Y9067D01*
X201359D01*
X201359Y9067D01*
X202383Y9271D01*
X203251Y9851D01*
X206839Y13439D01*
X207900Y13000D01*
Y13000D01*
X228900D01*
Y28103D01*
X230170Y28355D01*
X231224Y25809D01*
X233323Y22175D01*
X235878Y18845D01*
X238845Y15878D01*
X242175Y13323D01*
X245809Y11224D01*
X249687Y9618D01*
X253741Y8532D01*
X257902Y7984D01*
X262098D01*
X266259Y8532D01*
X270313Y9618D01*
X274191Y11224D01*
X277825Y13323D01*
X281155Y15878D01*
X284122Y18845D01*
X286677Y22175D01*
X288776Y25809D01*
X290382Y29687D01*
X291468Y33741D01*
X292016Y37902D01*
Y42098D01*
X291468Y46259D01*
X290382Y50313D01*
X288776Y54191D01*
X286677Y57825D01*
X284122Y61155D01*
X281155Y64122D01*
X277825Y66677D01*
X274191Y68776D01*
X270313Y70382D01*
X266259Y71468D01*
X262098Y72016D01*
X257902D01*
X253741Y71468D01*
X249687Y70382D01*
X245809Y68776D01*
X242175Y66677D01*
X238845Y64122D01*
X235878Y61155D01*
X233323Y57825D01*
X231224Y54191D01*
X229618Y50313D01*
X228532Y46259D01*
X227984Y42098D01*
Y37902D01*
X227194Y37000D01*
X207900D01*
Y21648D01*
X207733Y21615D01*
X206865Y21035D01*
X206865Y21035D01*
X202908Y17078D01*
X201951Y17917D01*
X202172Y18205D01*
X203230Y20759D01*
X203591Y23500D01*
Y26500D01*
X203230Y29241D01*
X202172Y31795D01*
X200489Y33989D01*
X198295Y35672D01*
X195741Y36730D01*
X193000Y37091D01*
X190259Y36730D01*
X187705Y35672D01*
X186804Y34981D01*
X184426Y37359D01*
Y233641D01*
X262393Y311607D01*
X262393Y311607D01*
X262973Y312476D01*
X263176Y313500D01*
Y428035D01*
X263176Y428036D01*
X262973Y429060D01*
X262393Y429928D01*
X262393Y429928D01*
X217325Y474996D01*
X217811Y476169D01*
X218125D01*
X219734Y476489D01*
X221099Y477401D01*
X222011Y478765D01*
X222331Y480375D01*
Y481500D01*
X216000D01*
Y482500D01*
X215000D01*
Y488831D01*
X213875D01*
X213236Y489500D01*
X213710Y489997D01*
X214095Y490169D01*
X218125D01*
X219734Y490489D01*
X221099Y491401D01*
X222011Y492766D01*
X222331Y494375D01*
Y498625D01*
X222011Y500234D01*
X221099Y501599D01*
X219734Y502511D01*
X218804Y502696D01*
Y503180D01*
X218590Y504253D01*
X217983Y505162D01*
X218407Y506406D01*
X218476Y506465D01*
X219125Y506336D01*
X222280D01*
X227711Y500905D01*
Y499418D01*
X227669Y499208D01*
Y494958D01*
X227989Y493349D01*
X228901Y491984D01*
X230266Y491073D01*
X231875Y490752D01*
X234086D01*
X234131Y490684D01*
X233452Y489414D01*
X231875D01*
X230266Y489094D01*
X228901Y488182D01*
X227989Y486818D01*
X227669Y485208D01*
Y484083D01*
X234000D01*
X240558D01*
X241601Y484515D01*
X243308Y482808D01*
X243308Y482808D01*
X243969Y482366D01*
X244750Y482211D01*
X245445D01*
X245744Y482011D01*
X247500Y481662D01*
X256500D01*
X258256Y482011D01*
X259744Y483006D01*
X260739Y484494D01*
X261088Y486250D01*
Y491250D01*
X260739Y493006D01*
X259744Y494494D01*
X258256Y495489D01*
X256500Y495838D01*
X251546D01*
X242857Y504527D01*
X243482Y505698D01*
X243625Y505669D01*
X244750D01*
Y512000D01*
Y518331D01*
X243625D01*
X242603Y518128D01*
X241558Y518935D01*
X241541Y519369D01*
X241698Y520124D01*
X241955Y520295D01*
X243060Y521949D01*
X243448Y523900D01*
Y524681D01*
X245329D01*
X246695Y524953D01*
X247852Y525727D01*
X254318Y532192D01*
X254811Y531863D01*
X257250Y531378D01*
X268750D01*
X271189Y531863D01*
X273256Y533244D01*
X274637Y535311D01*
X275123Y537750D01*
Y546250D01*
X274637Y548689D01*
X273256Y550756D01*
X271189Y552137D01*
X268750Y552622D01*
X257250D01*
X254811Y552137D01*
X252744Y550756D01*
X251363Y548689D01*
X250878Y546250D01*
Y538845D01*
X244693Y532661D01*
X244546Y532654D01*
X243347Y533110D01*
X243060Y534551D01*
X241955Y536205D01*
X240301Y537310D01*
X238350Y537698D01*
X215150D01*
X213199Y537310D01*
X211584Y536231D01*
X211346Y536277D01*
X210314Y536649D01*
Y604506D01*
X210314Y604506D01*
X210159Y605286D01*
X209717Y605948D01*
X171773Y643892D01*
X171111Y644334D01*
X170331Y644489D01*
X25581D01*
X24801Y644334D01*
X24139Y643892D01*
X11222Y630975D01*
X10049Y631461D01*
Y653000D01*
X297451D01*
Y509362D01*
D02*
G37*
G36*
X154986Y616911D02*
X168292Y603605D01*
Y589045D01*
X143178Y563931D01*
X142736Y563270D01*
X142581Y562489D01*
Y558830D01*
X142630Y558582D01*
X142266Y558510D01*
X140901Y557598D01*
X139989Y556233D01*
X139669Y554624D01*
Y550374D01*
X139989Y548764D01*
X140901Y547400D01*
X142266Y546488D01*
X142630Y546416D01*
X142581Y546168D01*
Y541700D01*
X142719Y541003D01*
X142081Y540876D01*
X141091Y540214D01*
X140429Y539224D01*
X140196Y538055D01*
Y531945D01*
X140279Y531528D01*
X139222Y530471D01*
X138805Y530554D01*
X132695D01*
X131526Y530321D01*
X130536Y529659D01*
X129874Y528669D01*
X129641Y527500D01*
X129874Y526331D01*
X130429Y525500D01*
X129874Y524669D01*
X129641Y523500D01*
X129874Y522331D01*
X130429Y521500D01*
X129874Y520669D01*
X129641Y519500D01*
X129874Y518331D01*
X130429Y517500D01*
X129874Y516669D01*
X129641Y515500D01*
X129874Y514331D01*
X130429Y513500D01*
X129874Y512669D01*
X129641Y511500D01*
X129874Y510331D01*
X130429Y509500D01*
X129874Y508669D01*
X129641Y507500D01*
X129874Y506331D01*
X130429Y505500D01*
X129874Y504669D01*
X129641Y503500D01*
X129874Y502331D01*
X130429Y501500D01*
X129874Y500669D01*
X129641Y499500D01*
X129874Y498331D01*
X130429Y497500D01*
X129874Y496669D01*
X129641Y495500D01*
X129874Y494331D01*
X130429Y493500D01*
X129874Y492669D01*
X129641Y491500D01*
X129874Y490331D01*
X130429Y489500D01*
X129874Y488669D01*
X129641Y487500D01*
X129874Y486331D01*
X130429Y485500D01*
X129874Y484669D01*
X129641Y483500D01*
X129874Y482331D01*
X130536Y481341D01*
X131526Y480679D01*
X132695Y480446D01*
X138805D01*
X139222Y480529D01*
X140279Y479472D01*
X140196Y479055D01*
Y472945D01*
X140429Y471776D01*
X141091Y470786D01*
X141650Y470412D01*
X141982Y468947D01*
X140839Y467804D01*
X129000D01*
X127927Y467590D01*
X127017Y466983D01*
X122517Y462483D01*
X121910Y461573D01*
X121696Y460500D01*
Y459750D01*
X117250D01*
Y456644D01*
X108177D01*
X107104Y456431D01*
X106194Y455823D01*
X105017Y454646D01*
X104410Y453736D01*
X104306Y453218D01*
X103265Y453011D01*
X101901Y452099D01*
X100989Y450734D01*
X100669Y449125D01*
Y444875D01*
X100989Y443265D01*
X101901Y441901D01*
X103265Y440989D01*
X104875Y440669D01*
X109125D01*
X110735Y440989D01*
X112099Y441901D01*
X113011Y443265D01*
X113331Y444875D01*
Y449125D01*
X113203Y449767D01*
X114220Y451037D01*
X117250D01*
Y442750D01*
X130946D01*
Y436750D01*
X125500D01*
Y428250D01*
Y419750D01*
X131750D01*
Y423685D01*
X133020Y424211D01*
X133767Y423464D01*
X134677Y422856D01*
X135750Y422642D01*
Y419750D01*
X150250D01*
Y422620D01*
X157828D01*
X158901Y422834D01*
X159811Y423442D01*
X160983Y424613D01*
X161590Y425523D01*
X161804Y426596D01*
Y426804D01*
X162735Y426989D01*
X164099Y427901D01*
X165011Y429266D01*
X165331Y430875D01*
Y435125D01*
X165011Y436735D01*
X164099Y438099D01*
X162735Y439011D01*
X161125Y439331D01*
X156875D01*
X155266Y439011D01*
X153901Y438099D01*
X152989Y436735D01*
X152669Y435125D01*
Y430875D01*
X152943Y429498D01*
X152271Y428228D01*
X150250D01*
Y436750D01*
X136554D01*
Y442750D01*
X142000D01*
Y451250D01*
X143000D01*
Y452250D01*
X150250D01*
Y459750D01*
X147875D01*
X147389Y460923D01*
X153233Y466767D01*
X154461Y466888D01*
X158368Y462981D01*
X158368Y462981D01*
X159236Y462401D01*
X160261Y462198D01*
X160261Y462198D01*
X164767D01*
X174574Y452391D01*
Y412676D01*
X171721D01*
X171511Y413735D01*
X170599Y415099D01*
X169235Y416011D01*
X167625Y416331D01*
X163375D01*
X161765Y416011D01*
X160401Y415099D01*
X159489Y413735D01*
X159169Y412125D01*
Y407875D01*
X159489Y406265D01*
X160401Y404901D01*
X161765Y403989D01*
X163375Y403669D01*
X167625D01*
X169235Y403989D01*
X170599Y404901D01*
X171511Y406265D01*
X171721Y407324D01*
X174574D01*
Y404845D01*
X174135Y404663D01*
X172587Y403116D01*
X171750Y401094D01*
Y398906D01*
X172587Y396884D01*
X173232Y396240D01*
X172336Y395343D01*
X170728Y395531D01*
X170349Y396099D01*
X168985Y397011D01*
X167375Y397331D01*
X163125D01*
X162324Y397172D01*
X162182Y397182D01*
X160926Y398000D01*
X160899Y398047D01*
X160457Y398708D01*
X157023Y402142D01*
X156361Y402584D01*
X155581Y402739D01*
X155460D01*
X155234Y403989D01*
X156599Y404901D01*
X157511Y406265D01*
X157831Y407875D01*
Y409000D01*
X151500D01*
X145169D01*
Y407875D01*
X145489Y406265D01*
X146401Y404901D01*
X147766Y403989D01*
X147540Y402739D01*
X129775D01*
X107019Y425496D01*
X107505Y426669D01*
X109125D01*
X110735Y426989D01*
X112099Y427901D01*
X113011Y429266D01*
X113331Y430875D01*
Y432000D01*
X107000D01*
Y433000D01*
X106000D01*
Y439331D01*
X104875D01*
X103265Y439011D01*
X101901Y438099D01*
X100989Y436735D01*
X100669Y435125D01*
Y433505D01*
X99496Y433019D01*
X95162Y437353D01*
X94994Y437465D01*
X94965Y437494D01*
X94853Y437662D01*
X93620Y438895D01*
X93620Y455153D01*
X93465Y455934D01*
X93023Y456595D01*
X93023Y456595D01*
X63895Y485724D01*
X64602Y486431D01*
X65721Y488369D01*
X66300Y490531D01*
Y490650D01*
X57800D01*
X49300D01*
Y490531D01*
X49430Y490047D01*
X48657Y489039D01*
X46943D01*
X46170Y490047D01*
X46300Y490531D01*
Y492769D01*
X45721Y494931D01*
X44602Y496869D01*
X43019Y498452D01*
X41081Y499571D01*
X38919Y500150D01*
X36681D01*
Y503150D01*
X38919D01*
X41081Y503729D01*
X43019Y504848D01*
X44602Y506431D01*
X45721Y508369D01*
X46300Y510531D01*
Y512769D01*
X45721Y514931D01*
X46300Y515510D01*
Y599300D01*
X50150Y603150D01*
X61321D01*
X75082Y616911D01*
X154986Y616911D01*
D02*
G37*
G36*
X208275Y604506D02*
Y530779D01*
X202090Y524594D01*
X200847Y524840D01*
X200403Y525998D01*
X200626Y526331D01*
X200859Y527500D01*
X200626Y528669D01*
X199964Y529659D01*
X198974Y530321D01*
X197805Y530554D01*
X195202D01*
X195135Y540321D01*
X195055Y552012D01*
X187565Y559450D01*
X166081D01*
X163726Y557096D01*
X162035Y555965D01*
X160904Y554274D01*
X158081Y551450D01*
Y549425D01*
X156854Y549181D01*
X155035Y547965D01*
X153819Y546146D01*
X153392Y544000D01*
X153819Y541854D01*
X153840Y541823D01*
X153953Y541378D01*
X152843Y540593D01*
X152419Y540876D01*
X151250Y541109D01*
X151185Y541096D01*
X150581Y541700D01*
X144620D01*
Y546168D01*
X145000D01*
Y552499D01*
Y558830D01*
X144620D01*
Y562489D01*
X170331Y588200D01*
Y604450D01*
X155831Y618950D01*
X62249Y618950D01*
X62087Y619075D01*
X60019Y619931D01*
X57800Y620223D01*
X55581Y619931D01*
X53513Y619075D01*
X53351Y618950D01*
X42249Y618950D01*
X42087Y619075D01*
X40019Y619931D01*
X37800Y620223D01*
X35581Y619931D01*
X33513Y619075D01*
X33351Y618950D01*
X31960D01*
X29081Y616071D01*
Y493700D01*
X29448Y493333D01*
X29227Y491650D01*
X29519Y489431D01*
X30375Y487363D01*
X31738Y485588D01*
X33513Y484225D01*
X35581Y483369D01*
X37800Y483077D01*
X40019Y483369D01*
X42087Y484225D01*
X43862Y485588D01*
X44946Y487000D01*
X50654D01*
X51738Y485588D01*
X53513Y484225D01*
X55581Y483369D01*
X57800Y483077D01*
X60019Y483369D01*
X62087Y484225D01*
X62326Y484409D01*
X91581Y455153D01*
X91581Y438050D01*
X93411Y436219D01*
X93535Y436035D01*
X93720Y435911D01*
X128931Y400700D01*
X155581D01*
X159015Y397266D01*
Y393607D01*
X158919Y393125D01*
Y388875D01*
X159239Y387266D01*
X160151Y385901D01*
X161516Y384989D01*
X163125Y384669D01*
X167375D01*
X168985Y384989D01*
X170349Y385901D01*
X170395Y385970D01*
X170605Y386057D01*
X173624Y389077D01*
X173671Y389108D01*
X178356Y393793D01*
X178356Y393793D01*
X178387Y393839D01*
X179360Y394812D01*
X179396Y394819D01*
X181215Y396035D01*
X182431Y397854D01*
X182858Y400000D01*
X182581Y401391D01*
Y469342D01*
X183250Y469891D01*
X184419Y470124D01*
X185250Y470679D01*
X186081Y470124D01*
X186250Y470090D01*
Y472673D01*
X186304Y472945D01*
Y476000D01*
X187250D01*
Y477000D01*
X190304D01*
Y477618D01*
X191885D01*
X192392Y477000D01*
X192819Y474854D01*
X193885Y473259D01*
Y385850D01*
X185839Y377804D01*
X115611D01*
X65467Y427948D01*
X66081Y429431D01*
X66373Y431650D01*
X66081Y433869D01*
X65225Y435937D01*
X63862Y437712D01*
X62087Y439075D01*
X60019Y439931D01*
X57800Y440223D01*
X55581Y439931D01*
X53513Y439075D01*
X51738Y437712D01*
X50375Y435937D01*
X49987Y435000D01*
X46383D01*
X45995Y436948D01*
X44835Y438685D01*
X43098Y439845D01*
X41050Y440253D01*
X34550D01*
X32502Y439845D01*
X30765Y438685D01*
X29605Y436948D01*
X29197Y434900D01*
Y428400D01*
X29605Y426352D01*
X30765Y424615D01*
X31960Y423816D01*
X31960Y397331D01*
Y384989D01*
X31960Y349040D01*
X39648Y341352D01*
X39257Y340410D01*
X38914Y337800D01*
X39257Y335190D01*
X40265Y332757D01*
X41868Y330668D01*
X43957Y329065D01*
X46389Y328057D01*
X49000Y327714D01*
X51610Y328057D01*
X52552Y328448D01*
X60406Y320594D01*
Y297000D01*
X49655D01*
X49000Y297086D01*
X48345Y297000D01*
X40000D01*
Y296500D01*
X39010D01*
Y287731D01*
X38914Y287000D01*
X39010Y286269D01*
Y262331D01*
X38914Y261600D01*
X39010Y260869D01*
Y236931D01*
X38914Y236200D01*
X39010Y235469D01*
Y211531D01*
X38914Y210800D01*
X39010Y210069D01*
Y186131D01*
X38914Y185400D01*
X39010Y184669D01*
Y164641D01*
X38883Y164000D01*
Y156000D01*
X39348Y153659D01*
X40674Y151674D01*
X42659Y150348D01*
X43607Y150160D01*
X49767Y144000D01*
X89000D01*
X102685Y157685D01*
X109878D01*
Y157000D01*
X122000D01*
X134122D01*
Y157685D01*
X136530D01*
X154324Y139891D01*
Y23456D01*
X152830D01*
X152791Y23500D01*
Y24000D01*
X142200D01*
X131609D01*
Y23500D01*
X131571Y23456D01*
X127826D01*
X127391Y23891D01*
Y26500D01*
X127030Y29241D01*
X125972Y31795D01*
X124289Y33989D01*
X122095Y35672D01*
X119541Y36730D01*
X116800Y37091D01*
X114494Y36787D01*
X10081Y141200D01*
Y626950D01*
X25581Y642450D01*
X170331D01*
X208275Y604506D01*
D02*
G37*
G36*
X221053Y532094D02*
X220964Y526928D01*
X221893Y526000D01*
X222500D01*
Y521500D01*
X211600D01*
X209889Y519789D01*
X209436D01*
X209436Y519789D01*
X208656Y519634D01*
X207994Y519192D01*
X207616Y518814D01*
X202017D01*
X200861Y519499D01*
X200748Y520058D01*
X200626Y520669D01*
X201678Y521381D01*
X202023Y521611D01*
X205678Y525266D01*
X205736Y525353D01*
X213383Y533000D01*
X220163D01*
X221053Y532094D01*
D02*
G37*
G36*
X239250Y519000D02*
X236000Y515750D01*
Y508500D01*
X253393Y491107D01*
Y484250D01*
X244750Y484250D01*
X233250Y495750D01*
X229750D01*
Y501750D01*
X223125Y508375D01*
X219125D01*
X213250Y514250D01*
X207950D01*
X207680Y514304D01*
X202951D01*
X201876Y515558D01*
X201971Y516159D01*
X202017Y516186D01*
X206500D01*
X207768Y516439D01*
X208843Y517157D01*
X209436Y517750D01*
X228500D01*
X230000Y519250D01*
Y526000D01*
X233000D01*
Y530500D01*
X239250D01*
Y519000D01*
D02*
G37*
G36*
X201469Y480700D02*
Y477104D01*
X201469Y477104D01*
X201673Y476080D01*
X202253Y475212D01*
X236324Y441141D01*
Y437622D01*
X233250D01*
X230811Y437137D01*
X228744Y435756D01*
X227363Y433689D01*
X226877Y431250D01*
Y422750D01*
X227363Y420311D01*
X227757Y419722D01*
X197098Y389063D01*
X195924Y389549D01*
Y473259D01*
X195885Y473456D01*
Y473656D01*
X195808Y473842D01*
X195769Y474039D01*
X195658Y474206D01*
X195581Y474391D01*
X194740Y475650D01*
X194392Y477398D01*
X194354Y477491D01*
X194344Y477592D01*
X194202Y477856D01*
X194088Y478133D01*
X194016Y478204D01*
X193969Y478294D01*
X193462Y478911D01*
X193384Y478975D01*
X193327Y479060D01*
X193153Y479176D01*
X193130Y479327D01*
X193628Y480446D01*
X197805D01*
X198974Y480679D01*
X199964Y481341D01*
X200010Y481409D01*
X200266Y481468D01*
X201469Y480700D01*
D02*
G37*
G36*
X49300Y432769D02*
Y430531D01*
X49879Y428369D01*
X50998Y426431D01*
X52581Y424848D01*
X54519Y423729D01*
X56681Y423150D01*
X58919D01*
X61081Y423729D01*
X61509Y423976D01*
X111253Y374232D01*
X110767Y373059D01*
X87267D01*
X83163Y377163D01*
X82170Y377826D01*
X81000Y378059D01*
X81000Y378059D01*
X78906D01*
X78306Y379210D01*
X78342Y379329D01*
X80540Y380598D01*
X82402Y382460D01*
X83719Y384740D01*
X84400Y387284D01*
Y387600D01*
X74400D01*
X64400D01*
Y387284D01*
X65082Y384740D01*
X66398Y382460D01*
X68260Y380598D01*
X70458Y379329D01*
X70494Y379210D01*
X69894Y378059D01*
X63867D01*
X57904Y384022D01*
X58319Y384740D01*
X59000Y387284D01*
Y389916D01*
X58319Y392460D01*
X57002Y394740D01*
X55140Y396602D01*
X52860Y397919D01*
X50317Y398600D01*
X47684D01*
X45140Y397919D01*
X42860Y396602D01*
X40998Y394740D01*
X39681Y392460D01*
X39000Y389916D01*
Y387284D01*
X39681Y384740D01*
X40998Y382460D01*
X42860Y380598D01*
X45140Y379282D01*
X47684Y378600D01*
X50317D01*
X52860Y379282D01*
X53578Y379696D01*
X60437Y372837D01*
X60437Y372837D01*
X61429Y372174D01*
X62600Y371941D01*
X67203D01*
X67729Y370671D01*
X66398Y369340D01*
X65082Y367060D01*
X64400Y364516D01*
Y361884D01*
X65082Y359340D01*
X66398Y357060D01*
X68260Y355198D01*
X70540Y353881D01*
X73084Y353200D01*
X75717D01*
X78260Y353881D01*
X80540Y355198D01*
X82402Y357060D01*
X83719Y359340D01*
X84400Y361884D01*
Y364516D01*
X83938Y366243D01*
X84393Y366718D01*
X85013Y367138D01*
X86000Y366941D01*
X203878D01*
Y365750D01*
X204363Y363311D01*
X205744Y361244D01*
X207811Y359863D01*
X210250Y359378D01*
X221750D01*
X224189Y359863D01*
X226256Y361244D01*
X227637Y363311D01*
X228123Y365750D01*
Y374250D01*
X227637Y376689D01*
X226256Y378756D01*
X224189Y380137D01*
X221750Y380622D01*
X210250D01*
X207811Y380137D01*
X205744Y378756D01*
X204363Y376689D01*
X203878Y374250D01*
Y373059D01*
X190683D01*
X190197Y374232D01*
X232493Y416528D01*
X233250Y416378D01*
X234750D01*
Y319715D01*
X227839Y312804D01*
X218450D01*
Y322000D01*
X197450D01*
Y298000D01*
X218450D01*
Y307196D01*
X229000D01*
X230073Y307410D01*
X230983Y308017D01*
X239536Y316571D01*
X240144Y317481D01*
X240358Y318554D01*
Y416378D01*
X244750D01*
X247189Y416863D01*
X249256Y418244D01*
X250637Y420311D01*
X251122Y422750D01*
Y428433D01*
X252296Y428919D01*
X255324Y425891D01*
Y315644D01*
X177358Y237678D01*
X176777Y236810D01*
X176574Y235786D01*
X176574Y235785D01*
Y37759D01*
X173796Y34981D01*
X172895Y35672D01*
X170341Y36730D01*
X167600Y37091D01*
X164859Y36730D01*
X162305Y35672D01*
X160946Y34629D01*
X159676Y35256D01*
Y141000D01*
X159473Y142024D01*
X158892Y142893D01*
X158892Y142893D01*
X114493Y187292D01*
X113624Y187873D01*
X112600Y188076D01*
X112600Y188076D01*
X84036D01*
X83719Y189260D01*
X82402Y191540D01*
X80540Y193402D01*
X78260Y194718D01*
X75717Y195400D01*
X73084D01*
X70540Y194718D01*
X68260Y193402D01*
X66398Y191540D01*
X65082Y189260D01*
X64400Y186716D01*
Y184083D01*
X65082Y181540D01*
X66398Y179260D01*
X68260Y177398D01*
X70540Y176082D01*
X73084Y175400D01*
X75717D01*
X78260Y176082D01*
X80540Y177398D01*
X82402Y179260D01*
X83719Y181540D01*
X84036Y182724D01*
X111491D01*
X126419Y167796D01*
X125933Y166622D01*
X116250D01*
X113811Y166137D01*
X111744Y164756D01*
X110363Y162689D01*
X109878Y160250D01*
Y159724D01*
X102685D01*
X101904Y159569D01*
X101243Y159127D01*
X88155Y146039D01*
X61052D01*
X61042Y146044D01*
X60000Y147309D01*
X60000Y294961D01*
X60406D01*
X61186Y295116D01*
X61848Y295558D01*
X62290Y296220D01*
X62445Y297000D01*
Y320594D01*
X62290Y321374D01*
X61848Y322036D01*
X61848Y322036D01*
X55293Y328591D01*
X55511Y330169D01*
X57002Y331660D01*
X58319Y333940D01*
X59000Y336483D01*
Y339117D01*
X58319Y341660D01*
X57002Y343940D01*
X55140Y345802D01*
X52860Y347118D01*
X50317Y347800D01*
X47684D01*
X45140Y347118D01*
X42860Y345802D01*
X40998Y343940D01*
X40066Y343817D01*
X33999Y349884D01*
X33999Y384989D01*
Y397331D01*
X33999Y422005D01*
X35269Y423047D01*
X36800D01*
Y431650D01*
X37800D01*
Y432650D01*
X46403D01*
Y432961D01*
X49153D01*
X49300Y432769D01*
D02*
G37*
%LPC*%
G36*
X280750Y635372D02*
X276000D01*
Y625750D01*
X287122D01*
Y629000D01*
X286637Y631439D01*
X285256Y633506D01*
X283189Y634887D01*
X280750Y635372D01*
D02*
G37*
G36*
X274000D02*
X269250D01*
X266811Y634887D01*
X264744Y633506D01*
X263363Y631439D01*
X262878Y629000D01*
Y625750D01*
X274000D01*
Y635372D01*
D02*
G37*
G36*
X287122Y623750D02*
X276000D01*
Y614128D01*
X280750D01*
X283189Y614613D01*
X285256Y615994D01*
X286637Y618061D01*
X287122Y620500D01*
Y623750D01*
D02*
G37*
G36*
X274000D02*
X262878D01*
Y620500D01*
X263363Y618061D01*
X264744Y615994D01*
X266811Y614613D01*
X269250Y614128D01*
X274000D01*
Y623750D01*
D02*
G37*
G36*
X247875Y518331D02*
X246750D01*
Y513000D01*
X252081D01*
Y514125D01*
X251761Y515734D01*
X250849Y517099D01*
X249485Y518011D01*
X247875Y518331D01*
D02*
G37*
G36*
X252081Y511000D02*
X246750D01*
Y505669D01*
X247875D01*
X249485Y505989D01*
X250849Y506901D01*
X251761Y508265D01*
X252081Y509875D01*
Y511000D01*
D02*
G37*
G36*
X290000Y510331D02*
X288875D01*
X287265Y510011D01*
X285901Y509099D01*
X284989Y507734D01*
X284669Y506125D01*
Y505000D01*
X290000D01*
Y510331D01*
D02*
G37*
G36*
X278500Y505338D02*
X275000D01*
Y499250D01*
X283088D01*
Y500750D01*
X282739Y502506D01*
X281744Y503994D01*
X280256Y504989D01*
X278500Y505338D01*
D02*
G37*
G36*
X273000D02*
X269500D01*
X267744Y504989D01*
X266256Y503994D01*
X265261Y502506D01*
X264912Y500750D01*
Y499250D01*
X273000D01*
Y505338D01*
D02*
G37*
G36*
X290000Y503000D02*
X284669D01*
Y501875D01*
X284989Y500266D01*
X285901Y498901D01*
X287265Y497989D01*
X288875Y497669D01*
X290000D01*
Y503000D01*
D02*
G37*
G36*
X283088Y497250D02*
X275000D01*
Y491162D01*
X278500D01*
X280256Y491511D01*
X281744Y492506D01*
X282739Y493994D01*
X283088Y495750D01*
Y497250D01*
D02*
G37*
G36*
X273000D02*
X264912D01*
Y495750D01*
X265261Y493994D01*
X266256Y492506D01*
X267744Y491511D01*
X269500Y491162D01*
X273000D01*
Y497250D01*
D02*
G37*
G36*
X218125Y488831D02*
X217000D01*
Y483500D01*
X222331D01*
Y484625D01*
X222011Y486235D01*
X221099Y487599D01*
X219734Y488511D01*
X218125Y488831D01*
D02*
G37*
G36*
X240331Y482083D02*
X235000D01*
Y476753D01*
X236125D01*
X237735Y477073D01*
X239099Y477984D01*
X240011Y479349D01*
X240331Y480958D01*
Y482083D01*
D02*
G37*
G36*
X233000D02*
X227669D01*
Y480958D01*
X227989Y479349D01*
X228901Y477984D01*
X230266Y477073D01*
X231875Y476753D01*
X233000D01*
Y482083D01*
D02*
G37*
G36*
X283250Y320622D02*
X278500D01*
X276061Y320137D01*
X273994Y318756D01*
X272613Y316689D01*
X272127Y314250D01*
Y311000D01*
X283250D01*
Y320622D01*
D02*
G37*
G36*
Y309000D02*
X272127D01*
Y305750D01*
X272613Y303311D01*
X273994Y301244D01*
X276061Y299863D01*
X278500Y299378D01*
X283250D01*
Y309000D01*
D02*
G37*
G36*
X276250Y236122D02*
X271500D01*
Y226500D01*
X282622D01*
Y229750D01*
X282137Y232189D01*
X280756Y234256D01*
X278689Y235637D01*
X276250Y236122D01*
D02*
G37*
G36*
X269500D02*
X264750D01*
X262311Y235637D01*
X260244Y234256D01*
X258863Y232189D01*
X258377Y229750D01*
Y226500D01*
X269500D01*
Y236122D01*
D02*
G37*
G36*
X282622Y224500D02*
X271500D01*
Y214878D01*
X276250D01*
X278689Y215363D01*
X280756Y216744D01*
X282137Y218811D01*
X282622Y221250D01*
Y224500D01*
D02*
G37*
G36*
X269500D02*
X258377D01*
Y221250D01*
X258863Y218811D01*
X260244Y216744D01*
X262311Y215363D01*
X264750Y214878D01*
X269500D01*
Y224500D01*
D02*
G37*
G36*
X286985Y85000D02*
X285015D01*
X283083Y84616D01*
X281263Y83862D01*
X279625Y82767D01*
X278232Y81375D01*
X277138Y79737D01*
X276384Y77917D01*
X276000Y75985D01*
Y74015D01*
X276384Y72083D01*
X277138Y70263D01*
X278232Y68625D01*
X279625Y67232D01*
X281263Y66138D01*
X283083Y65384D01*
X285015Y65000D01*
X286985D01*
X288917Y65384D01*
X290737Y66138D01*
X292375Y67232D01*
X293768Y68625D01*
X294862Y70263D01*
X295616Y72083D01*
X296000Y74015D01*
Y75985D01*
X295616Y77917D01*
X294862Y79737D01*
X293768Y81375D01*
X292375Y82767D01*
X290737Y83862D01*
X288917Y84616D01*
X286985Y85000D01*
D02*
G37*
G36*
X92400Y36959D02*
Y26000D01*
X101991D01*
Y26500D01*
X101630Y29241D01*
X100572Y31795D01*
X98889Y33989D01*
X96695Y35672D01*
X94141Y36730D01*
X92400Y36959D01*
D02*
G37*
G36*
X90400D02*
X88659Y36730D01*
X86105Y35672D01*
X83911Y33989D01*
X82228Y31795D01*
X81170Y29241D01*
X80809Y26500D01*
Y26000D01*
X90400D01*
Y36959D01*
D02*
G37*
G36*
X101991Y24000D02*
X92400D01*
Y13041D01*
X94141Y13270D01*
X96695Y14328D01*
X98889Y16011D01*
X100572Y18205D01*
X101630Y20759D01*
X101991Y23500D01*
Y24000D01*
D02*
G37*
G36*
X90400D02*
X80809D01*
Y23500D01*
X81170Y20759D01*
X82228Y18205D01*
X83911Y16011D01*
X86105Y14328D01*
X88659Y13270D01*
X90400Y13041D01*
Y24000D01*
D02*
G37*
G36*
X49598Y72016D02*
X45402D01*
X41241Y71468D01*
X37187Y70382D01*
X33310Y68776D01*
X29675Y66677D01*
X26345Y64122D01*
X23378Y61155D01*
X20823Y57825D01*
X18724Y54191D01*
X17118Y50313D01*
X16032Y46259D01*
X15484Y42098D01*
Y37902D01*
X16032Y33741D01*
X17118Y29687D01*
X18724Y25809D01*
X20823Y22175D01*
X23378Y18845D01*
X26345Y15878D01*
X29675Y13323D01*
X33310Y11224D01*
X37187Y9618D01*
X41241Y8532D01*
X45402Y7984D01*
X49598D01*
X53759Y8532D01*
X57813Y9618D01*
X61691Y11224D01*
X65325Y13323D01*
X68655Y15878D01*
X71622Y18845D01*
X74177Y22175D01*
X76276Y25809D01*
X77882Y29687D01*
X78968Y33741D01*
X79516Y37902D01*
Y42098D01*
X78968Y46259D01*
X77882Y50313D01*
X76276Y54191D01*
X74177Y57825D01*
X71622Y61155D01*
X68655Y64122D01*
X65325Y66677D01*
X61691Y68776D01*
X57813Y70382D01*
X53759Y71468D01*
X49598Y72016D01*
D02*
G37*
G36*
X58919Y600150D02*
X58800D01*
Y592650D01*
X66300D01*
Y592769D01*
X65721Y594931D01*
X64602Y596869D01*
X63019Y598452D01*
X61081Y599571D01*
X58919Y600150D01*
D02*
G37*
G36*
X56800D02*
X56681D01*
X54519Y599571D01*
X52581Y598452D01*
X50998Y596869D01*
X49879Y594931D01*
X49300Y592769D01*
Y592650D01*
X56800D01*
Y600150D01*
D02*
G37*
G36*
X66300Y590650D02*
X58800D01*
Y583150D01*
X58919D01*
X61081Y583729D01*
X63019Y584848D01*
X64602Y586431D01*
X65721Y588369D01*
X66300Y590531D01*
Y590650D01*
D02*
G37*
G36*
X56800D02*
X49300D01*
Y590531D01*
X49879Y588369D01*
X50998Y586431D01*
X52581Y584848D01*
X54519Y583729D01*
X56681Y583150D01*
X56800D01*
Y590650D01*
D02*
G37*
G36*
X58919Y580150D02*
X56681D01*
X54519Y579571D01*
X52581Y578452D01*
X50998Y576869D01*
X49879Y574931D01*
X49300Y572769D01*
Y570531D01*
X49879Y568369D01*
X50998Y566431D01*
X52581Y564848D01*
X54519Y563729D01*
X56681Y563150D01*
X58919D01*
X61081Y563729D01*
X63019Y564848D01*
X64602Y566431D01*
X65721Y568369D01*
X66300Y570531D01*
Y572769D01*
X65721Y574931D01*
X64602Y576869D01*
X63019Y578452D01*
X61081Y579571D01*
X58919Y580150D01*
D02*
G37*
G36*
X134125Y558830D02*
X133000D01*
Y553499D01*
X138331D01*
Y554624D01*
X138011Y556233D01*
X137099Y557598D01*
X135735Y558510D01*
X134125Y558830D01*
D02*
G37*
G36*
X131000D02*
X129875D01*
X128265Y558510D01*
X126901Y557598D01*
X125989Y556233D01*
X125669Y554624D01*
Y553499D01*
X131000D01*
Y558830D01*
D02*
G37*
G36*
X138331Y551499D02*
X133000D01*
Y546168D01*
X134125D01*
X135735Y546488D01*
X137099Y547400D01*
X138011Y548764D01*
X138331Y550374D01*
Y551499D01*
D02*
G37*
G36*
X131000D02*
X125669D01*
Y550374D01*
X125989Y548764D01*
X126901Y547400D01*
X128265Y546488D01*
X129875Y546168D01*
X131000D01*
Y551499D01*
D02*
G37*
G36*
X58919Y560150D02*
X56681D01*
X54519Y559571D01*
X52581Y558452D01*
X50998Y556869D01*
X49879Y554931D01*
X49300Y552769D01*
Y550531D01*
X49879Y548369D01*
X50998Y546431D01*
X52581Y544848D01*
X54519Y543729D01*
X56681Y543150D01*
X58919D01*
X61081Y543729D01*
X63019Y544848D01*
X64602Y546431D01*
X65721Y548369D01*
X66300Y550531D01*
Y552769D01*
X65721Y554931D01*
X64602Y556869D01*
X63019Y558452D01*
X61081Y559571D01*
X58919Y560150D01*
D02*
G37*
G36*
Y540150D02*
X58800D01*
Y532650D01*
X66300D01*
Y532769D01*
X65721Y534931D01*
X64602Y536869D01*
X63019Y538452D01*
X61081Y539571D01*
X58919Y540150D01*
D02*
G37*
G36*
X56800D02*
X56681D01*
X54519Y539571D01*
X52581Y538452D01*
X50998Y536869D01*
X49879Y534931D01*
X49300Y532769D01*
Y532650D01*
X56800D01*
Y540150D01*
D02*
G37*
G36*
X66300Y530650D02*
X58800D01*
Y523150D01*
X58919D01*
X61081Y523729D01*
X63019Y524848D01*
X64602Y526431D01*
X65721Y528369D01*
X66300Y530531D01*
Y530650D01*
D02*
G37*
G36*
X56800D02*
X49300D01*
Y530531D01*
X49879Y528369D01*
X50998Y526431D01*
X52581Y524848D01*
X54519Y523729D01*
X56681Y523150D01*
X56800D01*
Y530650D01*
D02*
G37*
G36*
X58919Y520150D02*
X56681D01*
X54519Y519571D01*
X52581Y518452D01*
X50998Y516869D01*
X49879Y514931D01*
X49300Y512769D01*
Y510531D01*
X49879Y508369D01*
X50998Y506431D01*
X52581Y504848D01*
X54519Y503729D01*
X56681Y503150D01*
X58919D01*
X61081Y503729D01*
X63019Y504848D01*
X64602Y506431D01*
X65721Y508369D01*
X66300Y510531D01*
Y512769D01*
X65721Y514931D01*
X64602Y516869D01*
X63019Y518452D01*
X61081Y519571D01*
X58919Y520150D01*
D02*
G37*
G36*
Y500150D02*
X58800D01*
Y492650D01*
X66300D01*
Y492769D01*
X65721Y494931D01*
X64602Y496869D01*
X63019Y498452D01*
X61081Y499571D01*
X58919Y500150D01*
D02*
G37*
G36*
X56800D02*
X56681D01*
X54519Y499571D01*
X52581Y498452D01*
X50998Y496869D01*
X49879Y494931D01*
X49300Y492769D01*
Y492650D01*
X56800D01*
Y500150D01*
D02*
G37*
G36*
X161125Y453331D02*
X160000D01*
Y448000D01*
X165331D01*
Y449125D01*
X165011Y450734D01*
X164099Y452099D01*
X162735Y453011D01*
X161125Y453331D01*
D02*
G37*
G36*
X158000D02*
X156875D01*
X155266Y453011D01*
X153901Y452099D01*
X152989Y450734D01*
X152669Y449125D01*
Y448000D01*
X158000D01*
Y453331D01*
D02*
G37*
G36*
X150250Y450250D02*
X144000D01*
Y442750D01*
X150250D01*
Y450250D01*
D02*
G37*
G36*
X165331Y446000D02*
X160000D01*
Y440669D01*
X161125D01*
X162735Y440989D01*
X164099Y441901D01*
X165011Y443265D01*
X165331Y444875D01*
Y446000D01*
D02*
G37*
G36*
X158000D02*
X152669D01*
Y444875D01*
X152989Y443265D01*
X153901Y441901D01*
X155266Y440989D01*
X156875Y440669D01*
X158000D01*
Y446000D01*
D02*
G37*
G36*
X109125Y439331D02*
X108000D01*
Y434000D01*
X113331D01*
Y435125D01*
X113011Y436735D01*
X112099Y438099D01*
X110735Y439011D01*
X109125Y439331D01*
D02*
G37*
G36*
X123500Y436750D02*
X117250D01*
Y429250D01*
X123500D01*
Y436750D01*
D02*
G37*
G36*
Y427250D02*
X117250D01*
Y419750D01*
X123500D01*
Y427250D01*
D02*
G37*
G36*
X153625Y416331D02*
X152500D01*
Y411000D01*
X157831D01*
Y412125D01*
X157511Y413735D01*
X156599Y415099D01*
X155234Y416011D01*
X153625Y416331D01*
D02*
G37*
G36*
X150500D02*
X149375D01*
X147766Y416011D01*
X146401Y415099D01*
X145489Y413735D01*
X145169Y412125D01*
Y411000D01*
X150500D01*
Y416331D01*
D02*
G37*
G36*
X148125Y558830D02*
X147000D01*
Y553499D01*
X152331D01*
Y554624D01*
X152011Y556233D01*
X151099Y557598D01*
X149734Y558510D01*
X148125Y558830D01*
D02*
G37*
G36*
X152331Y551499D02*
X147000D01*
Y546168D01*
X148125D01*
X149734Y546488D01*
X151099Y547400D01*
X152011Y548764D01*
X152331Y550374D01*
Y551499D01*
D02*
G37*
G36*
X190304Y475000D02*
X188250D01*
Y470090D01*
X188419Y470124D01*
X189409Y470786D01*
X190071Y471776D01*
X190304Y472945D01*
Y475000D01*
D02*
G37*
G36*
X57800Y480223D02*
X55581Y479931D01*
X53513Y479075D01*
X51738Y477712D01*
X50375Y475937D01*
X49519Y473869D01*
X49227Y471650D01*
X49519Y469431D01*
X50375Y467363D01*
X51738Y465588D01*
X53513Y464225D01*
X55581Y463369D01*
X57800Y463077D01*
X60019Y463369D01*
X62087Y464225D01*
X63862Y465588D01*
X65225Y467363D01*
X66081Y469431D01*
X66373Y471650D01*
X66081Y473869D01*
X65225Y475937D01*
X63862Y477712D01*
X62087Y479075D01*
X60019Y479931D01*
X57800Y480223D01*
D02*
G37*
G36*
X37800D02*
X35581Y479931D01*
X33513Y479075D01*
X31738Y477712D01*
X30375Y475937D01*
X29519Y473869D01*
X29227Y471650D01*
X29519Y469431D01*
X30375Y467363D01*
X31738Y465588D01*
X33513Y464225D01*
X35581Y463369D01*
X37800Y463077D01*
X40019Y463369D01*
X42087Y464225D01*
X43862Y465588D01*
X45225Y467363D01*
X46081Y469431D01*
X46373Y471650D01*
X46081Y473869D01*
X45225Y475937D01*
X43862Y477712D01*
X42087Y479075D01*
X40019Y479931D01*
X37800Y480223D01*
D02*
G37*
G36*
X57800Y460223D02*
X55581Y459931D01*
X53513Y459075D01*
X51738Y457712D01*
X50375Y455937D01*
X49519Y453869D01*
X49227Y451650D01*
X49519Y449431D01*
X50375Y447363D01*
X51738Y445588D01*
X53513Y444225D01*
X55581Y443369D01*
X57800Y443077D01*
X60019Y443369D01*
X62087Y444225D01*
X63862Y445588D01*
X65225Y447363D01*
X66081Y449431D01*
X66373Y451650D01*
X66081Y453869D01*
X65225Y455937D01*
X63862Y457712D01*
X62087Y459075D01*
X60019Y459931D01*
X57800Y460223D01*
D02*
G37*
G36*
X37800D02*
X35581Y459931D01*
X33513Y459075D01*
X31738Y457712D01*
X30375Y455937D01*
X29519Y453869D01*
X29227Y451650D01*
X29519Y449431D01*
X30375Y447363D01*
X31738Y445588D01*
X33513Y444225D01*
X35581Y443369D01*
X37800Y443077D01*
X40019Y443369D01*
X42087Y444225D01*
X43862Y445588D01*
X45225Y447363D01*
X46081Y449431D01*
X46373Y451650D01*
X46081Y453869D01*
X45225Y455937D01*
X43862Y457712D01*
X42087Y459075D01*
X40019Y459931D01*
X37800Y460223D01*
D02*
G37*
G36*
X153375Y397331D02*
X152250D01*
Y392000D01*
X157581D01*
Y393125D01*
X157261Y394734D01*
X156349Y396099D01*
X154985Y397011D01*
X153375Y397331D01*
D02*
G37*
G36*
X150250D02*
X149125D01*
X147515Y397011D01*
X146151Y396099D01*
X145239Y394734D01*
X144919Y393125D01*
Y392000D01*
X150250D01*
Y397331D01*
D02*
G37*
G36*
X157581Y390000D02*
X152250D01*
Y384669D01*
X153375D01*
X154985Y384989D01*
X156349Y385901D01*
X157261Y387266D01*
X157581Y388875D01*
Y390000D01*
D02*
G37*
G36*
X150250D02*
X144919D01*
Y388875D01*
X145239Y387266D01*
X146151Y385901D01*
X147515Y384989D01*
X149125Y384669D01*
X150250D01*
Y390000D01*
D02*
G37*
G36*
X50000Y322355D02*
Y313400D01*
X58955D01*
X58743Y315011D01*
X57735Y317443D01*
X56132Y319532D01*
X54043Y321135D01*
X51610Y322143D01*
X50000Y322355D01*
D02*
G37*
G36*
X48000D02*
X46389Y322143D01*
X43957Y321135D01*
X41868Y319532D01*
X40265Y317443D01*
X39257Y315011D01*
X39045Y313400D01*
X48000D01*
Y322355D01*
D02*
G37*
G36*
X58955Y311400D02*
X50000D01*
Y302445D01*
X51610Y302657D01*
X54043Y303665D01*
X56132Y305268D01*
X57735Y307357D01*
X58743Y309790D01*
X58955Y311400D01*
D02*
G37*
G36*
X48000D02*
X39045D01*
X39257Y309790D01*
X40265Y307357D01*
X41868Y305268D01*
X43957Y303665D01*
X46389Y302657D01*
X48000Y302445D01*
Y311400D01*
D02*
G37*
G36*
X134122Y155000D02*
X123000D01*
Y145378D01*
X127750D01*
X130189Y145863D01*
X132256Y147244D01*
X133637Y149311D01*
X134122Y151750D01*
Y155000D01*
D02*
G37*
G36*
X121000D02*
X109878D01*
Y151750D01*
X110363Y149311D01*
X111744Y147244D01*
X113811Y145863D01*
X116250Y145378D01*
X121000D01*
Y155000D01*
D02*
G37*
G36*
X143200Y36959D02*
Y26000D01*
X152791D01*
Y26500D01*
X152430Y29241D01*
X151372Y31795D01*
X149689Y33989D01*
X147495Y35672D01*
X144941Y36730D01*
X143200Y36959D01*
D02*
G37*
G36*
X141200D02*
X139459Y36730D01*
X136905Y35672D01*
X134711Y33989D01*
X133028Y31795D01*
X131970Y29241D01*
X131609Y26500D01*
Y26000D01*
X141200D01*
Y36959D01*
D02*
G37*
G36*
X46403Y430650D02*
X38800D01*
Y423047D01*
X41050D01*
X43098Y423455D01*
X44835Y424615D01*
X45995Y426352D01*
X46403Y428400D01*
Y430650D01*
D02*
G37*
G36*
X75717Y398600D02*
X75400D01*
Y389600D01*
X84400D01*
Y389916D01*
X83719Y392460D01*
X82402Y394740D01*
X80540Y396602D01*
X78260Y397919D01*
X75717Y398600D01*
D02*
G37*
G36*
X73400D02*
X73084D01*
X70540Y397919D01*
X68260Y396602D01*
X66398Y394740D01*
X65082Y392460D01*
X64400Y389916D01*
Y389600D01*
X73400D01*
Y398600D01*
D02*
G37*
G36*
X50317Y373200D02*
X47684D01*
X45140Y372519D01*
X42860Y371202D01*
X40998Y369340D01*
X39681Y367060D01*
X39000Y364516D01*
Y361884D01*
X39681Y359340D01*
X40998Y357060D01*
X42860Y355198D01*
X45140Y353881D01*
X47684Y353200D01*
X50317D01*
X52860Y353881D01*
X55140Y355198D01*
X57002Y357060D01*
X58319Y359340D01*
X59000Y361884D01*
Y364516D01*
X58319Y367060D01*
X57002Y369340D01*
X55140Y371202D01*
X52860Y372519D01*
X50317Y373200D01*
D02*
G37*
G36*
X75717Y347800D02*
X75400D01*
Y338800D01*
X84400D01*
Y339117D01*
X83719Y341660D01*
X82402Y343940D01*
X80540Y345802D01*
X78260Y347118D01*
X75717Y347800D01*
D02*
G37*
G36*
X73400D02*
X73084D01*
X70540Y347118D01*
X68260Y345802D01*
X66398Y343940D01*
X65082Y341660D01*
X64400Y339117D01*
Y338800D01*
X73400D01*
Y347800D01*
D02*
G37*
G36*
X84400Y336800D02*
X75400D01*
Y327800D01*
X75717D01*
X78260Y328481D01*
X80540Y329798D01*
X82402Y331660D01*
X83719Y333940D01*
X84400Y336483D01*
Y336800D01*
D02*
G37*
G36*
X73400D02*
X64400D01*
Y336483D01*
X65082Y333940D01*
X66398Y331660D01*
X68260Y329798D01*
X70540Y328481D01*
X73084Y327800D01*
X73400D01*
Y336800D01*
D02*
G37*
G36*
X183550Y321959D02*
Y311000D01*
X193141D01*
Y311500D01*
X192780Y314241D01*
X191722Y316795D01*
X190039Y318989D01*
X187845Y320672D01*
X185291Y321730D01*
X183550Y321959D01*
D02*
G37*
G36*
X181550D02*
X179809Y321730D01*
X177255Y320672D01*
X175061Y318989D01*
X173378Y316795D01*
X172320Y314241D01*
X171959Y311500D01*
Y311000D01*
X181550D01*
Y321959D01*
D02*
G37*
G36*
X75717Y322400D02*
X73084D01*
X70540Y321718D01*
X68260Y320402D01*
X66398Y318540D01*
X65082Y316260D01*
X64400Y313717D01*
Y311084D01*
X65082Y308540D01*
X66398Y306260D01*
X68260Y304398D01*
X70540Y303081D01*
X73084Y302400D01*
X75717D01*
X78260Y303081D01*
X80540Y304398D01*
X82402Y306260D01*
X83719Y308540D01*
X84400Y311084D01*
Y313717D01*
X83719Y316260D01*
X82402Y318540D01*
X80540Y320402D01*
X78260Y321718D01*
X75717Y322400D01*
D02*
G37*
G36*
X193141Y309000D02*
X183550D01*
Y298041D01*
X185291Y298270D01*
X187845Y299328D01*
X190039Y301011D01*
X191722Y303205D01*
X192780Y305759D01*
X193141Y308500D01*
Y309000D01*
D02*
G37*
G36*
X181550D02*
X171959D01*
Y308500D01*
X172320Y305759D01*
X173378Y303205D01*
X175061Y301011D01*
X177255Y299328D01*
X179809Y298270D01*
X181550Y298041D01*
Y309000D01*
D02*
G37*
G36*
X75717Y297000D02*
X73084D01*
X70540Y296318D01*
X68260Y295002D01*
X66398Y293140D01*
X65082Y290860D01*
X64400Y288316D01*
Y285683D01*
X65082Y283140D01*
X66398Y280860D01*
X68260Y278998D01*
X70540Y277682D01*
X73084Y277000D01*
X75717D01*
X78260Y277682D01*
X80540Y278998D01*
X82402Y280860D01*
X83719Y283140D01*
X84400Y285683D01*
Y288316D01*
X83719Y290860D01*
X82402Y293140D01*
X80540Y295002D01*
X78260Y296318D01*
X75717Y297000D01*
D02*
G37*
G36*
Y271600D02*
X75400D01*
Y262600D01*
X84400D01*
Y262917D01*
X83719Y265460D01*
X82402Y267740D01*
X80540Y269602D01*
X78260Y270919D01*
X75717Y271600D01*
D02*
G37*
G36*
X73400D02*
X73084D01*
X70540Y270919D01*
X68260Y269602D01*
X66398Y267740D01*
X65082Y265460D01*
X64400Y262917D01*
Y262600D01*
X73400D01*
Y271600D01*
D02*
G37*
G36*
X84400Y260600D02*
X75400D01*
Y251600D01*
X75717D01*
X78260Y252281D01*
X80540Y253598D01*
X82402Y255460D01*
X83719Y257740D01*
X84400Y260284D01*
Y260600D01*
D02*
G37*
G36*
X73400D02*
X64400D01*
Y260284D01*
X65082Y257740D01*
X66398Y255460D01*
X68260Y253598D01*
X70540Y252281D01*
X73084Y251600D01*
X73400D01*
Y260600D01*
D02*
G37*
G36*
X75717Y246200D02*
X73084D01*
X70540Y245518D01*
X68260Y244202D01*
X66398Y242340D01*
X65082Y240060D01*
X64400Y237516D01*
Y234883D01*
X65082Y232340D01*
X66398Y230060D01*
X68260Y228198D01*
X70540Y226882D01*
X73084Y226200D01*
X75717D01*
X78260Y226882D01*
X80540Y228198D01*
X82402Y230060D01*
X83719Y232340D01*
X84400Y234883D01*
Y237516D01*
X83719Y240060D01*
X82402Y242340D01*
X80540Y244202D01*
X78260Y245518D01*
X75717Y246200D01*
D02*
G37*
G36*
Y220800D02*
X75400D01*
Y211800D01*
X84400D01*
Y212117D01*
X83719Y214660D01*
X82402Y216940D01*
X80540Y218802D01*
X78260Y220119D01*
X75717Y220800D01*
D02*
G37*
G36*
X73400D02*
X73084D01*
X70540Y220119D01*
X68260Y218802D01*
X66398Y216940D01*
X65082Y214660D01*
X64400Y212117D01*
Y211800D01*
X73400D01*
Y220800D01*
D02*
G37*
G36*
X84400Y209800D02*
X75400D01*
Y200800D01*
X75717D01*
X78260Y201481D01*
X80540Y202798D01*
X82402Y204660D01*
X83719Y206940D01*
X84400Y209484D01*
Y209800D01*
D02*
G37*
G36*
X73400D02*
X64400D01*
Y209484D01*
X65082Y206940D01*
X66398Y204660D01*
X68260Y202798D01*
X70540Y201481D01*
X73084Y200800D01*
X73400D01*
Y209800D01*
D02*
G37*
G36*
X75717Y170000D02*
X75400D01*
Y161000D01*
X84400D01*
Y161317D01*
X83719Y163860D01*
X82402Y166140D01*
X80540Y168002D01*
X78260Y169319D01*
X75717Y170000D01*
D02*
G37*
G36*
X73400D02*
X73084D01*
X70540Y169319D01*
X68260Y168002D01*
X66398Y166140D01*
X65082Y163860D01*
X64400Y161317D01*
Y161000D01*
X73400D01*
Y170000D01*
D02*
G37*
G36*
X84400Y159000D02*
X75400D01*
Y150000D01*
X75717D01*
X78260Y150681D01*
X80540Y151998D01*
X82402Y153860D01*
X83719Y156140D01*
X84400Y158684D01*
Y159000D01*
D02*
G37*
G36*
X73400D02*
X64400D01*
Y158684D01*
X65082Y156140D01*
X66398Y153860D01*
X68260Y151998D01*
X70540Y150681D01*
X73084Y150000D01*
X73400D01*
Y159000D01*
D02*
G37*
%LPD*%
D10*
X49000Y388600D02*
X62600Y375000D01*
X81000D01*
X86000Y370000D01*
X216000D01*
X275476Y378401D02*
X291000Y393924D01*
Y452923D01*
Y468923D02*
Y479250D01*
X291057D01*
X274000D02*
X291000D01*
X270250D02*
X274000D01*
X291000D02*
Y490000D01*
X289000Y488000D02*
X291000Y490000D01*
D15*
Y466923D02*
D03*
Y452923D02*
D03*
Y490000D02*
D03*
Y504000D02*
D03*
X234000Y483083D02*
D03*
Y497083D02*
D03*
X159000Y433000D02*
D03*
Y447000D02*
D03*
X107000D02*
D03*
Y433000D02*
D03*
X216000Y482500D02*
D03*
Y496500D02*
D03*
D16*
X218150Y528250D02*
D03*
X235350D02*
D03*
D17*
X143250Y476000D02*
D03*
X147250D02*
D03*
X151250D02*
D03*
X155250D02*
D03*
X159250D02*
D03*
X163250D02*
D03*
X167250D02*
D03*
X171250D02*
D03*
X175250D02*
D03*
X179250D02*
D03*
X183250D02*
D03*
X187250D02*
D03*
X151250Y535000D02*
D03*
X159250D02*
D03*
X163250D02*
D03*
X167250D02*
D03*
X171250D02*
D03*
X155250D02*
D03*
X147250D02*
D03*
X143250D02*
D03*
X175250D02*
D03*
X179250D02*
D03*
X183250D02*
D03*
X187250D02*
D03*
D18*
X194750Y523500D02*
D03*
Y511500D02*
D03*
Y515500D02*
D03*
Y519500D02*
D03*
Y527500D02*
D03*
Y507500D02*
D03*
Y483500D02*
D03*
Y487500D02*
D03*
Y491500D02*
D03*
Y495500D02*
D03*
Y499500D02*
D03*
Y503500D02*
D03*
X135750D02*
D03*
Y483500D02*
D03*
Y487500D02*
D03*
Y491500D02*
D03*
Y495500D02*
D03*
Y499500D02*
D03*
Y507500D02*
D03*
Y511500D02*
D03*
Y515500D02*
D03*
Y519500D02*
D03*
Y523500D02*
D03*
Y527500D02*
D03*
D19*
X252000Y488750D02*
D03*
X274000Y498250D02*
D03*
Y479250D02*
D03*
D20*
X143000Y451250D02*
D03*
X124500D02*
D03*
Y428250D02*
D03*
X143000D02*
D03*
D21*
X165500Y410000D02*
D03*
X151500D02*
D03*
X151250Y391000D02*
D03*
X165250D02*
D03*
X245750Y512000D02*
D03*
X231750D02*
D03*
X146000Y552499D02*
D03*
X132000D02*
D03*
D39*
X165250Y505500D02*
D03*
D40*
X286000Y75000D02*
D03*
X28000Y670000D02*
D03*
D41*
X229000Y310000D02*
X237554Y318554D01*
X207950Y310000D02*
X229000D01*
X187000Y375000D02*
X237554Y425554D01*
X114450Y375000D02*
X187000D01*
X237554Y425554D02*
X239000Y427000D01*
X163250Y540472D02*
X166000Y543222D01*
Y552000D01*
X159000Y544000D02*
X159156Y543844D01*
Y535094D02*
Y543844D01*
X163250Y535000D02*
Y540472D01*
X159156Y535094D02*
X159250Y535000D01*
X149313Y545345D02*
X155250Y539408D01*
Y535000D02*
Y539408D01*
X57871Y431579D02*
X114450Y375000D01*
X237554Y318554D02*
Y425554D01*
X140196Y425446D02*
X143000Y428250D01*
X133750Y427446D02*
Y458000D01*
X135750Y425446D02*
X140196D01*
X133750Y427446D02*
X135750Y425446D01*
X121910Y453840D02*
X124500Y451250D01*
X108177Y453840D02*
X121910D01*
X107000Y452663D02*
X108177Y453840D01*
X107000Y447000D02*
Y452663D01*
X143000Y428250D02*
X145826Y425424D01*
X159000Y426596D02*
Y433000D01*
X145826Y425424D02*
X157828D01*
X159000Y426596D01*
X207680Y511500D02*
X216000Y503180D01*
X194656Y515406D02*
X194750Y515500D01*
X187250Y476000D02*
X187250Y476000D01*
X187250Y466250D02*
Y476000D01*
X194750Y511500D02*
X207680D01*
X216000Y496500D02*
Y503180D01*
X133750Y458000D02*
X137000Y461250D01*
X143750D01*
X142000Y465000D02*
X147250Y470250D01*
X129000Y465000D02*
X142000D01*
X151250Y468750D02*
Y476000D01*
X143750Y461250D02*
X151250Y468750D01*
X147250Y470250D02*
Y476000D01*
X124500Y451250D02*
Y460500D01*
X129000Y465000D01*
X203695Y527248D02*
Y528618D01*
X200040Y523594D02*
X203695Y527248D01*
X194750Y515500D02*
X201000D01*
X194750Y519500D02*
X201250D01*
X194844Y523594D02*
X200040D01*
X194750Y523500D02*
X194844Y523594D01*
D42*
X74400Y185400D02*
X112600D01*
X157000Y141000D01*
Y16991D02*
Y141000D01*
X142973Y482125D02*
X187527D01*
X188625Y483223D01*
X201359Y11744D02*
X208757Y19142D01*
X214042D01*
X218400Y23500D01*
Y25000D01*
X162248Y11744D02*
X201359D01*
X157000Y16991D02*
X162248Y11744D01*
X179250Y36650D02*
Y235786D01*
X167600Y25000D02*
X179250Y36650D01*
X258000Y314536D02*
Y427000D01*
X181750Y36250D02*
Y234750D01*
X179250Y235786D02*
X258000Y314536D01*
X260500Y313500D02*
Y428036D01*
X181750Y234750D02*
X260500Y313500D01*
X188625Y514625D02*
X189406Y515406D01*
X188625Y483223D02*
Y514625D01*
X209146Y479390D02*
X260500Y428036D01*
X206646Y478354D02*
X258000Y427000D01*
X165250Y391000D02*
X171778D01*
X176463Y399213D02*
X177250Y400000D01*
X176463Y395685D02*
Y399213D01*
X171778Y391000D02*
X176463Y395685D01*
X177250Y400000D02*
Y410000D01*
X239000Y427000D02*
Y442250D01*
X204146Y477104D02*
X239000Y442250D01*
X204146Y477104D02*
Y482854D01*
X209146Y479390D02*
Y500048D01*
X206646Y478354D02*
Y490393D01*
X207250Y501944D02*
X209146Y500048D01*
X199594Y487406D02*
X204146Y482854D01*
X203750Y493289D02*
Y494000D01*
Y493289D02*
X206646Y490393D01*
X207250Y501944D02*
Y503500D01*
X199491D02*
X203771Y499220D01*
Y494021D02*
Y499220D01*
X203750Y494000D02*
X203771Y494021D01*
X194750Y503500D02*
X199491D01*
X203115Y507500D02*
X207115Y503500D01*
X194750Y507500D02*
X203115D01*
X207115Y503500D02*
X207250D01*
X155250Y469885D02*
Y476000D01*
Y469885D02*
X160261Y464874D01*
X165876D01*
X177250Y453500D01*
X141598Y483500D02*
X141875Y483223D01*
X135750Y483500D02*
X141598D01*
X142973Y482125D02*
X143250Y481848D01*
Y476000D02*
Y481848D01*
X135750Y491500D02*
X135892Y491358D01*
X140605D01*
X141875Y483223D02*
Y490089D01*
X140605Y491358D02*
X141875Y490089D01*
Y483223D02*
X142973Y482125D01*
X189406Y515406D02*
X194656D01*
X177250Y410000D02*
Y453500D01*
X165500Y410000D02*
X177250D01*
X181750Y36250D02*
X193000Y25000D01*
X194750Y487500D02*
X194844Y487406D01*
X199594D01*
D43*
X235350Y528250D02*
X245329D01*
X253777Y536698D01*
X261198D01*
X262750Y538250D01*
D44*
X201000Y515500D02*
X211786D01*
X206500Y519500D02*
X209250Y522250D01*
X201250Y519500D02*
X206500D01*
X209250Y522250D02*
Y525243D01*
X211007Y527000D01*
X216900D01*
X218150Y528250D01*
D45*
X116800Y25000D02*
D03*
X142200D02*
D03*
X193000D02*
D03*
X167600D02*
D03*
X91400D02*
D03*
X182550Y310000D02*
D03*
D46*
X218400Y25000D02*
D03*
X207950Y310000D02*
D03*
D47*
X284250D02*
D03*
X239000Y427000D02*
D03*
X270500Y225500D02*
D03*
X275000Y624750D02*
D03*
X122000Y156000D02*
D03*
X263000Y542000D02*
D03*
X216000Y370000D02*
D03*
D48*
X57800Y611650D02*
D03*
X37800D02*
D03*
X57800Y591650D02*
D03*
X37800D02*
D03*
X57800Y571650D02*
D03*
X37800D02*
D03*
X57800Y551650D02*
D03*
X37800D02*
D03*
X57800Y531650D02*
D03*
X37800D02*
D03*
X57800Y511650D02*
D03*
X37800D02*
D03*
X57800Y491650D02*
D03*
X37800D02*
D03*
X57800Y471650D02*
D03*
X37800D02*
D03*
X57800Y451650D02*
D03*
X37800D02*
D03*
X57800Y431650D02*
D03*
D49*
X37800D02*
D03*
D50*
X74400Y160000D02*
D03*
X49000Y185400D02*
D03*
X74400D02*
D03*
X49000Y210800D02*
D03*
X74400D02*
D03*
X49000Y236200D02*
D03*
X74400D02*
D03*
X49000Y261600D02*
D03*
X74400D02*
D03*
X49000Y287000D02*
D03*
X74400D02*
D03*
X49000Y312400D02*
D03*
X74400D02*
D03*
X49000Y337800D02*
D03*
X74400D02*
D03*
X49000Y363200D02*
D03*
X74400D02*
D03*
X49000Y388600D02*
D03*
X74400D02*
D03*
D51*
X49000Y160000D02*
D03*
D52*
X116699Y173699D02*
D03*
X157075Y363296D02*
D03*
X39000Y376000D02*
D03*
X228000Y269000D02*
D03*
X205000Y44000D02*
D03*
X166000Y494000D02*
D03*
Y513000D02*
D03*
X183000Y488000D02*
D03*
X148000D02*
D03*
Y523000D02*
D03*
X183000D02*
D03*
X166000Y552000D02*
D03*
X159000Y544000D02*
D03*
X14000Y129000D02*
D03*
X168000Y93000D02*
D03*
X188250Y6250D02*
D03*
X269000Y433000D02*
D03*
X196000Y626000D02*
D03*
X152000Y269000D02*
D03*
X275476Y378401D02*
D03*
X227000Y472000D02*
D03*
X250000Y413000D02*
D03*
X229000Y441000D02*
D03*
X177250Y400000D02*
D03*
X76000Y561000D02*
D03*
X132000Y565000D02*
D03*
X228250Y396250D02*
D03*
X203750Y494000D02*
D03*
X207250Y503500D02*
D03*
X135000Y474000D02*
D03*
X168000Y400500D02*
D03*
X170000Y419750D02*
D03*
X132000Y536000D02*
D03*
X152000Y213000D02*
D03*
X193000Y216000D02*
D03*
X227000Y295000D02*
D03*
X293000Y204000D02*
D03*
Y382000D02*
D03*
X256000Y576000D02*
D03*
X214000D02*
D03*
X230000Y649000D02*
D03*
X160000D02*
D03*
X90000D02*
D03*
X214000Y542000D02*
D03*
X133000Y612000D02*
D03*
X75500Y611750D02*
D03*
X163000Y600000D02*
D03*
X95750Y511750D02*
D03*
X104000Y485000D02*
D03*
X133000Y411000D02*
D03*
X97500Y440000D02*
D03*
X169250Y446250D02*
D03*
X198000Y477000D02*
D03*
X200000Y400000D02*
D03*
X278000Y465000D02*
D03*
X256396Y499612D02*
D03*
X246250Y521500D02*
D03*
X294000Y649000D02*
D03*
Y576000D02*
D03*
Y515000D02*
D03*
X195000Y92000D02*
D03*
X244000Y162000D02*
D03*
X293000Y91000D02*
D03*
X234500Y9250D02*
D03*
X169000Y44250D02*
D03*
X225000Y491000D02*
D03*
X14000Y649000D02*
D03*
X15000Y62000D02*
D03*
M02*
