G04*
G04 #@! TF.GenerationSoftware,Altium Limited,Altium Designer,23.3.1 (30)*
G04*
G04 Layer_Physical_Order=2*
G04 Layer_Color=16711680*
%FSLAX44Y44*%
%MOMM*%
G71*
G04*
G04 #@! TF.SameCoordinates,E7C39D28-7B35-4B43-AE6B-8B00C768E268*
G04*
G04*
G04 #@! TF.FilePolarity,Positive*
G04*
G01*
G75*
%ADD10C,0.2000*%
%ADD40C,1.0000*%
%ADD41C,0.1500*%
%ADD42C,0.1250*%
%ADD45O,1.7000X2.0000*%
%ADD46R,1.7000X2.0000*%
G04:AMPARAMS|DCode=47|XSize=1.7mm|YSize=2mm|CornerRadius=0.425mm|HoleSize=0mm|Usage=FLASHONLY|Rotation=90.000|XOffset=0mm|YOffset=0mm|HoleType=Round|Shape=RoundedRectangle|*
%AMROUNDEDRECTD47*
21,1,1.7000,1.1500,0,0,90.0*
21,1,0.8500,2.0000,0,0,90.0*
1,1,0.8500,0.5750,0.4250*
1,1,0.8500,0.5750,-0.4250*
1,1,0.8500,-0.5750,-0.4250*
1,1,0.8500,-0.5750,0.4250*
%
%ADD47ROUNDEDRECTD47*%
%ADD48C,1.3000*%
G04:AMPARAMS|DCode=49|XSize=1.3mm|YSize=1.3mm|CornerRadius=0.325mm|HoleSize=0mm|Usage=FLASHONLY|Rotation=90.000|XOffset=0mm|YOffset=0mm|HoleType=Round|Shape=RoundedRectangle|*
%AMROUNDEDRECTD49*
21,1,1.3000,0.6500,0,0,90.0*
21,1,0.6500,1.3000,0,0,90.0*
1,1,0.6500,0.3250,0.3250*
1,1,0.6500,0.3250,-0.3250*
1,1,0.6500,-0.3250,-0.3250*
1,1,0.6500,-0.3250,0.3250*
%
%ADD49ROUNDEDRECTD49*%
%ADD50C,1.6000*%
G04:AMPARAMS|DCode=51|XSize=1.6mm|YSize=1.6mm|CornerRadius=0.4mm|HoleSize=0mm|Usage=FLASHONLY|Rotation=90.000|XOffset=0mm|YOffset=0mm|HoleType=Round|Shape=RoundedRectangle|*
%AMROUNDEDRECTD51*
21,1,1.6000,0.8000,0,0,90.0*
21,1,0.8000,1.6000,0,0,90.0*
1,1,0.8000,0.4000,0.4000*
1,1,0.8000,0.4000,-0.4000*
1,1,0.8000,-0.4000,-0.4000*
1,1,0.8000,-0.4000,0.4000*
%
%ADD51ROUNDEDRECTD51*%
%ADD52C,0.7000*%
G36*
X297451Y315338D02*
X296181Y315213D01*
X295887Y316689D01*
X294506Y318756D01*
X292439Y320137D01*
X290000Y320622D01*
X285250D01*
Y310000D01*
Y299378D01*
X290000D01*
X292439Y299863D01*
X294506Y301244D01*
X295887Y303311D01*
X296181Y304787D01*
X297451Y304662D01*
Y35000D01*
X297451Y35000D01*
Y34720D01*
X297090Y30128D01*
X297049Y29818D01*
X295884Y24965D01*
X293934Y20257D01*
X291326Y16001D01*
X291136Y15755D01*
X288144Y12251D01*
X287749Y11856D01*
X284245Y8863D01*
X283999Y8675D01*
X279743Y6066D01*
X275035Y4116D01*
X270180Y2951D01*
X269874Y2910D01*
X266239Y2625D01*
X265000Y2549D01*
X263746Y2549D01*
X263731Y2549D01*
X42500Y2549D01*
X42499Y2549D01*
X42220D01*
X37627Y2910D01*
X37319Y2951D01*
X32465Y4116D01*
X27757Y6066D01*
X23501Y8674D01*
X23255Y8863D01*
X19751Y11856D01*
X19356Y12251D01*
X16363Y15756D01*
X16175Y16001D01*
X13566Y20257D01*
X11616Y24965D01*
X10451Y29820D01*
X10410Y30126D01*
X10125Y33750D01*
X10049Y35000D01*
X10049Y35000D01*
X10049Y36248D01*
Y653000D01*
X297451D01*
X297451Y315338D01*
D02*
G37*
%LPC*%
G36*
X280750Y635372D02*
X276000D01*
Y625750D01*
X287122D01*
Y629000D01*
X286637Y631439D01*
X285256Y633506D01*
X283189Y634887D01*
X280750Y635372D01*
D02*
G37*
G36*
X274000D02*
X269250D01*
X266811Y634887D01*
X264744Y633506D01*
X263363Y631439D01*
X262878Y629000D01*
Y625750D01*
X274000D01*
Y635372D01*
D02*
G37*
G36*
X287122Y623750D02*
X276000D01*
Y614128D01*
X280750D01*
X283189Y614613D01*
X285256Y615994D01*
X286637Y618061D01*
X287122Y620500D01*
Y623750D01*
D02*
G37*
G36*
X274000D02*
X262878D01*
Y620500D01*
X263363Y618061D01*
X264744Y615994D01*
X266811Y614613D01*
X269250Y614128D01*
X274000D01*
Y623750D01*
D02*
G37*
G36*
X58919Y620150D02*
X56681D01*
X54519Y619571D01*
X52581Y618452D01*
X50998Y616869D01*
X49879Y614931D01*
X49300Y612769D01*
Y610531D01*
X49879Y608369D01*
X50998Y606431D01*
X52581Y604848D01*
X54519Y603729D01*
X56681Y603150D01*
X58919D01*
X61081Y603729D01*
X63019Y604848D01*
X64602Y606431D01*
X65721Y608369D01*
X66300Y610531D01*
Y612769D01*
X65721Y614931D01*
X64602Y616869D01*
X63019Y618452D01*
X61081Y619571D01*
X58919Y620150D01*
D02*
G37*
G36*
X38919D02*
X36681D01*
X34519Y619571D01*
X32581Y618452D01*
X30998Y616869D01*
X29879Y614931D01*
X29300Y612769D01*
Y610531D01*
X29879Y608369D01*
X30998Y606431D01*
X32581Y604848D01*
X34519Y603729D01*
X36681Y603150D01*
X38919D01*
X41081Y603729D01*
X43019Y604848D01*
X44602Y606431D01*
X45721Y608369D01*
X46300Y610531D01*
Y612769D01*
X45721Y614931D01*
X44602Y616869D01*
X43019Y618452D01*
X41081Y619571D01*
X38919Y620150D01*
D02*
G37*
G36*
X58919Y600150D02*
X58800D01*
Y592650D01*
X66300D01*
Y592769D01*
X65721Y594931D01*
X64602Y596869D01*
X63019Y598452D01*
X61081Y599571D01*
X58919Y600150D01*
D02*
G37*
G36*
X56800D02*
X56681D01*
X54519Y599571D01*
X52581Y598452D01*
X50998Y596869D01*
X49879Y594931D01*
X49300Y592769D01*
Y592650D01*
X56800D01*
Y600150D01*
D02*
G37*
G36*
X66300Y590650D02*
X58800D01*
Y583150D01*
X58919D01*
X61081Y583729D01*
X63019Y584848D01*
X64602Y586431D01*
X65721Y588369D01*
X66300Y590531D01*
Y590650D01*
D02*
G37*
G36*
X56800D02*
X49300D01*
Y590531D01*
X49879Y588369D01*
X50998Y586431D01*
X52581Y584848D01*
X54519Y583729D01*
X56681Y583150D01*
X56800D01*
Y590650D01*
D02*
G37*
G36*
X38919Y600150D02*
X36681D01*
X34519Y599571D01*
X32581Y598452D01*
X30998Y596869D01*
X29879Y594931D01*
X29300Y592769D01*
Y590531D01*
X29879Y588369D01*
X30998Y586431D01*
X32581Y584848D01*
X34519Y583729D01*
X36681Y583150D01*
X38919D01*
X41081Y583729D01*
X43019Y584848D01*
X44602Y586431D01*
X45721Y588369D01*
X46300Y590531D01*
Y592769D01*
X45721Y594931D01*
X44602Y596869D01*
X43019Y598452D01*
X41081Y599571D01*
X38919Y600150D01*
D02*
G37*
G36*
X58919Y580150D02*
X56681D01*
X54519Y579571D01*
X52581Y578452D01*
X50998Y576869D01*
X49879Y574931D01*
X49300Y572769D01*
Y570531D01*
X49879Y568369D01*
X50126Y567941D01*
X45798Y563613D01*
X45190Y562703D01*
X44977Y561630D01*
Y558290D01*
X43707Y557764D01*
X43019Y558452D01*
X41081Y559571D01*
X38919Y560150D01*
X36681D01*
X34519Y559571D01*
X32581Y558452D01*
X30998Y556869D01*
X29879Y554931D01*
X29300Y552769D01*
Y550531D01*
X29879Y548369D01*
X30998Y546431D01*
X32581Y544848D01*
X34519Y543729D01*
X36681Y543150D01*
X38919D01*
X41081Y543729D01*
X43019Y544848D01*
X44602Y546431D01*
X44813Y546797D01*
X46356Y546929D01*
X52803Y540482D01*
X53152Y540248D01*
X53162Y538787D01*
X52581Y538452D01*
X50998Y536869D01*
X49879Y534931D01*
X49300Y532769D01*
Y532650D01*
X57800D01*
X66300D01*
Y532769D01*
X65721Y534931D01*
X64602Y536869D01*
X63080Y538391D01*
X63099Y538669D01*
X63465Y539660D01*
X155561D01*
X155885Y539337D01*
X157906Y538500D01*
X160094D01*
X162115Y539337D01*
X163663Y540885D01*
X164500Y542906D01*
Y545094D01*
X164348Y545461D01*
X165292Y546500D01*
X167094D01*
X169116Y547337D01*
X170663Y548885D01*
X171500Y550906D01*
Y553094D01*
X170663Y555116D01*
X169116Y556663D01*
X167094Y557500D01*
X164906D01*
X162885Y556663D01*
X161337Y555116D01*
X161136Y554629D01*
X65802D01*
X65721Y554931D01*
X64602Y556869D01*
X63019Y558452D01*
X61081Y559571D01*
X58919Y560150D01*
X56681D01*
X54519Y559571D01*
X52581Y558452D01*
X51854Y557725D01*
X50584Y558251D01*
Y560469D01*
X54092Y563976D01*
X54519Y563729D01*
X56681Y563150D01*
X58919D01*
X61081Y563729D01*
X63019Y564848D01*
X64602Y566431D01*
X65721Y568369D01*
X66300Y570531D01*
Y572769D01*
X65721Y574931D01*
X64602Y576869D01*
X63019Y578452D01*
X61081Y579571D01*
X58919Y580150D01*
D02*
G37*
G36*
X38919D02*
X36681D01*
X34519Y579571D01*
X32581Y578452D01*
X30998Y576869D01*
X29879Y574931D01*
X29300Y572769D01*
Y570531D01*
X29879Y568369D01*
X30998Y566431D01*
X32581Y564848D01*
X34519Y563729D01*
X36681Y563150D01*
X38919D01*
X41081Y563729D01*
X43019Y564848D01*
X44602Y566431D01*
X45721Y568369D01*
X46300Y570531D01*
Y572769D01*
X45721Y574931D01*
X44602Y576869D01*
X43019Y578452D01*
X41081Y579571D01*
X38919Y580150D01*
D02*
G37*
G36*
X268750Y552622D02*
X257250D01*
X254811Y552137D01*
X252744Y550756D01*
X251363Y548689D01*
X250878Y546250D01*
Y537750D01*
X251363Y535311D01*
X252744Y533244D01*
X254811Y531863D01*
X257250Y531378D01*
X268750D01*
X271189Y531863D01*
X273256Y533244D01*
X274637Y535311D01*
X275123Y537750D01*
Y546250D01*
X274637Y548689D01*
X273256Y550756D01*
X271189Y552137D01*
X268750Y552622D01*
D02*
G37*
G36*
X66300Y530650D02*
X58800D01*
Y523150D01*
X58919D01*
X61081Y523729D01*
X63019Y524848D01*
X64602Y526431D01*
X65721Y528369D01*
X66300Y530531D01*
Y530650D01*
D02*
G37*
G36*
X56800D02*
X49300D01*
Y530531D01*
X49879Y528369D01*
X50998Y526431D01*
X52581Y524848D01*
X54519Y523729D01*
X56681Y523150D01*
X56800D01*
Y530650D01*
D02*
G37*
G36*
X38919Y540150D02*
X36681D01*
X34519Y539571D01*
X32581Y538452D01*
X30998Y536869D01*
X29879Y534931D01*
X29300Y532769D01*
Y530531D01*
X29879Y528369D01*
X30998Y526431D01*
X32581Y524848D01*
X34519Y523729D01*
X36681Y523150D01*
X38919D01*
X41081Y523729D01*
X43019Y524848D01*
X44602Y526431D01*
X45721Y528369D01*
X46300Y530531D01*
Y532769D01*
X45721Y534931D01*
X44602Y536869D01*
X43019Y538452D01*
X41081Y539571D01*
X38919Y540150D01*
D02*
G37*
G36*
X58919Y520150D02*
X56681D01*
X54519Y519571D01*
X52581Y518452D01*
X50998Y516869D01*
X49879Y514931D01*
X49300Y512769D01*
Y510531D01*
X49879Y508369D01*
X50556Y507197D01*
X49823Y505926D01*
X47309D01*
X45408Y507827D01*
X45721Y508369D01*
X46300Y510531D01*
Y512769D01*
X45721Y514931D01*
X44602Y516869D01*
X43019Y518452D01*
X41081Y519571D01*
X38919Y520150D01*
X36681D01*
X34519Y519571D01*
X32581Y518452D01*
X30998Y516869D01*
X29879Y514931D01*
X29300Y512769D01*
Y510531D01*
X29879Y508369D01*
X30998Y506431D01*
X32581Y504848D01*
X34519Y503729D01*
X36681Y503150D01*
X38919D01*
X41081Y503729D01*
X41623Y504042D01*
X44015Y501650D01*
X41623Y499258D01*
X41081Y499571D01*
X38919Y500150D01*
X36681D01*
X34519Y499571D01*
X32581Y498452D01*
X30998Y496869D01*
X29879Y494931D01*
X29300Y492769D01*
Y490531D01*
X29879Y488369D01*
X30998Y486431D01*
X32581Y484848D01*
X34519Y483729D01*
X36681Y483150D01*
X38919D01*
X41081Y483729D01*
X43019Y484848D01*
X44602Y486431D01*
X45721Y488369D01*
X46300Y490531D01*
Y492769D01*
X45721Y494931D01*
X45408Y495473D01*
X48009Y498074D01*
X50543D01*
X50791Y497475D01*
X50960Y496804D01*
X49879Y494931D01*
X49300Y492769D01*
Y492650D01*
X57800D01*
X66300D01*
Y492769D01*
X65721Y494931D01*
X64640Y496804D01*
X64809Y497475D01*
X65057Y498074D01*
X195891D01*
X198432Y495533D01*
X198250Y495094D01*
Y492906D01*
X199087Y490885D01*
X200634Y489337D01*
X202656Y488500D01*
X204844D01*
X206866Y489337D01*
X208413Y490885D01*
X209250Y492906D01*
Y495094D01*
X208539Y496811D01*
X208471Y497225D01*
X209037Y498287D01*
X210366Y498837D01*
X211913Y500384D01*
X212750Y502406D01*
Y504594D01*
X211913Y506615D01*
X210366Y508163D01*
X208344Y509000D01*
X206156D01*
X204135Y508163D01*
X202587Y506615D01*
X202302Y505926D01*
X65777D01*
X65044Y507196D01*
X65721Y508369D01*
X66300Y510531D01*
Y512769D01*
X65721Y514931D01*
X64602Y516869D01*
X63019Y518452D01*
X61081Y519571D01*
X58919Y520150D01*
D02*
G37*
G36*
X66300Y490650D02*
X58800D01*
Y483150D01*
X58919D01*
X61081Y483729D01*
X63019Y484848D01*
X64602Y486431D01*
X65721Y488369D01*
X66300Y490531D01*
Y490650D01*
D02*
G37*
G36*
X56800D02*
X49300D01*
Y490531D01*
X49879Y488369D01*
X50998Y486431D01*
X52581Y484848D01*
X54519Y483729D01*
X56681Y483150D01*
X56800D01*
Y490650D01*
D02*
G37*
G36*
X38919Y480150D02*
X38800D01*
Y472650D01*
X46300D01*
Y472769D01*
X45721Y474931D01*
X44602Y476869D01*
X43019Y478452D01*
X41081Y479571D01*
X38919Y480150D01*
D02*
G37*
G36*
X36800D02*
X36681D01*
X34519Y479571D01*
X32581Y478452D01*
X30998Y476869D01*
X29879Y474931D01*
X29300Y472769D01*
Y472650D01*
X36800D01*
Y480150D01*
D02*
G37*
G36*
X58919D02*
X56681D01*
X54519Y479571D01*
X52581Y478452D01*
X50998Y476869D01*
X49879Y474931D01*
X49300Y472769D01*
Y470531D01*
X49879Y468369D01*
X50998Y466431D01*
X52581Y464848D01*
X54519Y463729D01*
X56681Y463150D01*
X58919D01*
X61081Y463729D01*
X63019Y464848D01*
X64602Y466431D01*
X65721Y468369D01*
X66300Y470531D01*
Y472769D01*
X65721Y474931D01*
X64602Y476869D01*
X63019Y478452D01*
X61081Y479571D01*
X58919Y480150D01*
D02*
G37*
G36*
X46300Y470650D02*
X38800D01*
Y463150D01*
X38919D01*
X41081Y463729D01*
X43019Y464848D01*
X44602Y466431D01*
X45721Y468369D01*
X46300Y470531D01*
Y470650D01*
D02*
G37*
G36*
X36800D02*
X29300D01*
Y470531D01*
X29879Y468369D01*
X30998Y466431D01*
X32581Y464848D01*
X34519Y463729D01*
X36681Y463150D01*
X36800D01*
Y470650D01*
D02*
G37*
G36*
X58919Y460150D02*
X56681D01*
X54519Y459571D01*
X52581Y458452D01*
X50998Y456869D01*
X49879Y454931D01*
X49300Y452769D01*
Y450531D01*
X49879Y448369D01*
X50998Y446431D01*
X52581Y444848D01*
X54519Y443729D01*
X56681Y443150D01*
X58919D01*
X61081Y443729D01*
X63019Y444848D01*
X64602Y446431D01*
X65721Y448369D01*
X66300Y450531D01*
Y452769D01*
X65721Y454931D01*
X64602Y456869D01*
X63019Y458452D01*
X61081Y459571D01*
X58919Y460150D01*
D02*
G37*
G36*
X38919D02*
X36681D01*
X34519Y459571D01*
X32581Y458452D01*
X30998Y456869D01*
X29879Y454931D01*
X29300Y452769D01*
Y450531D01*
X29879Y448369D01*
X30998Y446431D01*
X32581Y444848D01*
X34519Y443729D01*
X36681Y443150D01*
X38919D01*
X41081Y443729D01*
X43019Y444848D01*
X44602Y446431D01*
X45721Y448369D01*
X46300Y450531D01*
Y452769D01*
X45721Y454931D01*
X44602Y456869D01*
X43019Y458452D01*
X41081Y459571D01*
X38919Y460150D01*
D02*
G37*
G36*
X41050Y440253D02*
X38800D01*
Y432650D01*
X46403D01*
Y434900D01*
X45995Y436948D01*
X44835Y438685D01*
X43098Y439845D01*
X41050Y440253D01*
D02*
G37*
G36*
X36800D02*
X34550D01*
X32502Y439845D01*
X30765Y438685D01*
X29605Y436948D01*
X29197Y434900D01*
Y432650D01*
X36800D01*
Y440253D01*
D02*
G37*
G36*
X58919Y440150D02*
X56681D01*
X54519Y439571D01*
X52581Y438452D01*
X50998Y436869D01*
X49879Y434931D01*
X49300Y432769D01*
Y430531D01*
X49879Y428369D01*
X50998Y426431D01*
X52581Y424848D01*
X54519Y423729D01*
X56681Y423150D01*
X58919D01*
X61081Y423729D01*
X63019Y424848D01*
X64602Y426431D01*
X65721Y428369D01*
X66300Y430531D01*
Y432769D01*
X65721Y434931D01*
X64602Y436869D01*
X63019Y438452D01*
X61081Y439571D01*
X58919Y440150D01*
D02*
G37*
G36*
X46403Y430650D02*
X38800D01*
Y423047D01*
X41050D01*
X43098Y423455D01*
X44835Y424615D01*
X45995Y426352D01*
X46403Y428400D01*
Y430650D01*
D02*
G37*
G36*
X36800D02*
X29197D01*
Y428400D01*
X29605Y426352D01*
X30765Y424615D01*
X32502Y423455D01*
X34550Y423047D01*
X36800D01*
Y430650D01*
D02*
G37*
G36*
X244750Y437622D02*
X233250D01*
X230811Y437137D01*
X228744Y435756D01*
X227363Y433689D01*
X226877Y431250D01*
Y422750D01*
X227363Y420311D01*
X228744Y418244D01*
X230811Y416863D01*
X233250Y416378D01*
X244750D01*
X247189Y416863D01*
X249256Y418244D01*
X250637Y420311D01*
X251122Y422750D01*
Y431250D01*
X250637Y433689D01*
X249256Y435756D01*
X247189Y437137D01*
X244750Y437622D01*
D02*
G37*
G36*
X178344Y405500D02*
X176156D01*
X174135Y404663D01*
X172587Y403116D01*
X171750Y401094D01*
Y398906D01*
X171932Y398467D01*
X165107Y391642D01*
X164527Y390774D01*
X164324Y389750D01*
X164324Y389750D01*
Y276109D01*
X81079Y192864D01*
X80540Y193402D01*
X78260Y194718D01*
X75717Y195400D01*
X73084D01*
X70540Y194718D01*
X68260Y193402D01*
X66398Y191540D01*
X65082Y189260D01*
X64400Y186716D01*
Y184083D01*
X65082Y181540D01*
X66398Y179260D01*
X68260Y177398D01*
X70540Y176082D01*
X73084Y175400D01*
X75717D01*
X78260Y176082D01*
X80540Y177398D01*
X82402Y179260D01*
X83719Y181540D01*
X84400Y184083D01*
Y186716D01*
X83999Y188214D01*
X168892Y273107D01*
X168892Y273107D01*
X169473Y273976D01*
X169676Y275000D01*
X169676Y275000D01*
Y388641D01*
X175717Y394682D01*
X176156Y394500D01*
X178344D01*
X180366Y395337D01*
X181913Y396884D01*
X182750Y398906D01*
Y401094D01*
X181913Y403116D01*
X180366Y404663D01*
X178344Y405500D01*
D02*
G37*
G36*
X75717Y398600D02*
X75400D01*
Y389600D01*
X84400D01*
Y389916D01*
X83719Y392460D01*
X82402Y394740D01*
X80540Y396602D01*
X78260Y397919D01*
X75717Y398600D01*
D02*
G37*
G36*
X73400D02*
X73084D01*
X70540Y397919D01*
X68260Y396602D01*
X66398Y394740D01*
X65082Y392460D01*
X64400Y389916D01*
Y389600D01*
X73400D01*
Y398600D01*
D02*
G37*
G36*
X84400Y387600D02*
X75400D01*
Y378600D01*
X75717D01*
X78260Y379282D01*
X80540Y380598D01*
X82402Y382460D01*
X83719Y384740D01*
X84400Y387284D01*
Y387600D01*
D02*
G37*
G36*
X73400D02*
X64400D01*
Y387284D01*
X65082Y384740D01*
X66398Y382460D01*
X68260Y380598D01*
X70540Y379282D01*
X73084Y378600D01*
X73400D01*
Y387600D01*
D02*
G37*
G36*
X50317Y398600D02*
X47684D01*
X45140Y397919D01*
X42860Y396602D01*
X40998Y394740D01*
X39681Y392460D01*
X39000Y389916D01*
Y387284D01*
X39681Y384740D01*
X40998Y382460D01*
X42860Y380598D01*
X45140Y379282D01*
X47684Y378600D01*
X50317D01*
X52860Y379282D01*
X55140Y380598D01*
X57002Y382460D01*
X58319Y384740D01*
X59000Y387284D01*
Y389916D01*
X58319Y392460D01*
X57002Y394740D01*
X55140Y396602D01*
X52860Y397919D01*
X50317Y398600D01*
D02*
G37*
G36*
X276570Y383901D02*
X274382D01*
X272361Y383063D01*
X270814Y381516D01*
X269977Y379495D01*
Y377307D01*
X270000Y377250D01*
X265809Y373059D01*
X228123D01*
Y374250D01*
X227637Y376689D01*
X226256Y378756D01*
X224189Y380137D01*
X221750Y380622D01*
X210250D01*
X207811Y380137D01*
X205744Y378756D01*
X204363Y376689D01*
X203878Y374250D01*
Y365750D01*
X204363Y363311D01*
X205744Y361244D01*
X207811Y359863D01*
X210250Y359378D01*
X221750D01*
X224189Y359863D01*
X226256Y361244D01*
X227637Y363311D01*
X228123Y365750D01*
Y366941D01*
X267076D01*
X267076Y366941D01*
X268246Y367174D01*
X269239Y367837D01*
X274326Y372924D01*
X274382Y372901D01*
X276570D01*
X278592Y373738D01*
X280139Y375285D01*
X280977Y377307D01*
Y379495D01*
X280139Y381516D01*
X278592Y383063D01*
X276570Y383901D01*
D02*
G37*
G36*
X75717Y373200D02*
X73084D01*
X70540Y372519D01*
X68260Y371202D01*
X66398Y369340D01*
X65082Y367060D01*
X64400Y364516D01*
Y361884D01*
X65082Y359340D01*
X66398Y357060D01*
X68260Y355198D01*
X70540Y353881D01*
X73084Y353200D01*
X75717D01*
X78260Y353881D01*
X80540Y355198D01*
X82402Y357060D01*
X83719Y359340D01*
X84400Y361884D01*
Y364516D01*
X83719Y367060D01*
X82402Y369340D01*
X80540Y371202D01*
X78260Y372519D01*
X75717Y373200D01*
D02*
G37*
G36*
X50317D02*
X47684D01*
X45140Y372519D01*
X42860Y371202D01*
X40998Y369340D01*
X39681Y367060D01*
X39000Y364516D01*
Y361884D01*
X39681Y359340D01*
X40998Y357060D01*
X42860Y355198D01*
X45140Y353881D01*
X47684Y353200D01*
X50317D01*
X52860Y353881D01*
X55140Y355198D01*
X57002Y357060D01*
X58319Y359340D01*
X59000Y361884D01*
Y364516D01*
X58319Y367060D01*
X57002Y369340D01*
X55140Y371202D01*
X52860Y372519D01*
X50317Y373200D01*
D02*
G37*
G36*
X75717Y347800D02*
X75400D01*
Y338800D01*
X84400D01*
Y339117D01*
X83719Y341660D01*
X82402Y343940D01*
X80540Y345802D01*
X78260Y347118D01*
X75717Y347800D01*
D02*
G37*
G36*
X73400D02*
X73084D01*
X70540Y347118D01*
X68260Y345802D01*
X66398Y343940D01*
X65082Y341660D01*
X64400Y339117D01*
Y338800D01*
X73400D01*
Y347800D01*
D02*
G37*
G36*
X84400Y336800D02*
X75400D01*
Y327800D01*
X75717D01*
X78260Y328481D01*
X80540Y329798D01*
X82402Y331660D01*
X83719Y333940D01*
X84400Y336483D01*
Y336800D01*
D02*
G37*
G36*
X73400D02*
X64400D01*
Y336483D01*
X65082Y333940D01*
X66398Y331660D01*
X68260Y329798D01*
X70540Y328481D01*
X73084Y327800D01*
X73400D01*
Y336800D01*
D02*
G37*
G36*
X50317Y347800D02*
X47684D01*
X45140Y347118D01*
X42860Y345802D01*
X40998Y343940D01*
X39681Y341660D01*
X39000Y339117D01*
Y336483D01*
X39681Y333940D01*
X40998Y331660D01*
X42860Y329798D01*
X45140Y328481D01*
X47684Y327800D01*
X50317D01*
X52860Y328481D01*
X55140Y329798D01*
X57002Y331660D01*
X58319Y333940D01*
X59000Y336483D01*
Y339117D01*
X58319Y341660D01*
X57002Y343940D01*
X55140Y345802D01*
X52860Y347118D01*
X50317Y347800D01*
D02*
G37*
G36*
X283250Y320622D02*
X278500D01*
X276061Y320137D01*
X273994Y318756D01*
X272613Y316689D01*
X272127Y314250D01*
Y311000D01*
X283250D01*
Y320622D01*
D02*
G37*
G36*
X183550Y321959D02*
Y311000D01*
X193141D01*
Y311500D01*
X192780Y314241D01*
X191722Y316795D01*
X190039Y318989D01*
X187845Y320672D01*
X185291Y321730D01*
X183550Y321959D01*
D02*
G37*
G36*
X181550D02*
X179809Y321730D01*
X177255Y320672D01*
X175061Y318989D01*
X173378Y316795D01*
X172320Y314241D01*
X171959Y311500D01*
Y311000D01*
X181550D01*
Y321959D01*
D02*
G37*
G36*
X75717Y322400D02*
X73084D01*
X70540Y321718D01*
X68260Y320402D01*
X66398Y318540D01*
X65082Y316260D01*
X64400Y313717D01*
Y311084D01*
X65082Y308540D01*
X66398Y306260D01*
X68260Y304398D01*
X70540Y303081D01*
X73084Y302400D01*
X75717D01*
X78260Y303081D01*
X80540Y304398D01*
X82402Y306260D01*
X83719Y308540D01*
X84400Y311084D01*
Y313717D01*
X83719Y316260D01*
X82402Y318540D01*
X80540Y320402D01*
X78260Y321718D01*
X75717Y322400D01*
D02*
G37*
G36*
X50317D02*
X47684D01*
X45140Y321718D01*
X42860Y320402D01*
X40998Y318540D01*
X39681Y316260D01*
X39000Y313717D01*
Y311084D01*
X39681Y308540D01*
X40998Y306260D01*
X42860Y304398D01*
X45140Y303081D01*
X47684Y302400D01*
X50317D01*
X52860Y303081D01*
X55140Y304398D01*
X57002Y306260D01*
X58319Y308540D01*
X59000Y311084D01*
Y313717D01*
X58319Y316260D01*
X57002Y318540D01*
X55140Y320402D01*
X52860Y321718D01*
X50317Y322400D01*
D02*
G37*
G36*
X283250Y309000D02*
X272127D01*
Y305750D01*
X272613Y303311D01*
X273994Y301244D01*
X276061Y299863D01*
X278500Y299378D01*
X283250D01*
Y309000D01*
D02*
G37*
G36*
X193141Y309000D02*
X183550D01*
Y298041D01*
X185291Y298270D01*
X187845Y299328D01*
X190039Y301011D01*
X191722Y303205D01*
X192780Y305759D01*
X193141Y308500D01*
Y309000D01*
D02*
G37*
G36*
X181550D02*
X171959D01*
Y308500D01*
X172320Y305759D01*
X173378Y303205D01*
X175061Y301011D01*
X177255Y299328D01*
X179809Y298270D01*
X181550Y298041D01*
Y309000D01*
D02*
G37*
G36*
X218450Y322000D02*
X197450D01*
Y298000D01*
X218450D01*
Y322000D01*
D02*
G37*
G36*
X75717Y297000D02*
X73084D01*
X70540Y296318D01*
X68260Y295002D01*
X66398Y293140D01*
X65082Y290860D01*
X64400Y288316D01*
Y285683D01*
X65082Y283140D01*
X66398Y280860D01*
X68260Y278998D01*
X70540Y277682D01*
X73084Y277000D01*
X75717D01*
X78260Y277682D01*
X80540Y278998D01*
X82402Y280860D01*
X83719Y283140D01*
X84400Y285683D01*
Y288316D01*
X83719Y290860D01*
X82402Y293140D01*
X80540Y295002D01*
X78260Y296318D01*
X75717Y297000D01*
D02*
G37*
G36*
X50317D02*
X47684D01*
X45140Y296318D01*
X42860Y295002D01*
X40998Y293140D01*
X39681Y290860D01*
X39000Y288316D01*
Y285683D01*
X39681Y283140D01*
X40998Y280860D01*
X42860Y278998D01*
X45140Y277682D01*
X47684Y277000D01*
X50317D01*
X52860Y277682D01*
X55140Y278998D01*
X57002Y280860D01*
X58319Y283140D01*
X59000Y285683D01*
Y288316D01*
X58319Y290860D01*
X57002Y293140D01*
X55140Y295002D01*
X52860Y296318D01*
X50317Y297000D01*
D02*
G37*
G36*
X75717Y271600D02*
X75400D01*
Y262600D01*
X84400D01*
Y262917D01*
X83719Y265460D01*
X82402Y267740D01*
X80540Y269602D01*
X78260Y270919D01*
X75717Y271600D01*
D02*
G37*
G36*
X73400D02*
X73084D01*
X70540Y270919D01*
X68260Y269602D01*
X66398Y267740D01*
X65082Y265460D01*
X64400Y262917D01*
Y262600D01*
X73400D01*
Y271600D01*
D02*
G37*
G36*
X84400Y260600D02*
X75400D01*
Y251600D01*
X75717D01*
X78260Y252281D01*
X80540Y253598D01*
X82402Y255460D01*
X83719Y257740D01*
X84400Y260284D01*
Y260600D01*
D02*
G37*
G36*
X73400D02*
X64400D01*
Y260284D01*
X65082Y257740D01*
X66398Y255460D01*
X68260Y253598D01*
X70540Y252281D01*
X73084Y251600D01*
X73400D01*
Y260600D01*
D02*
G37*
G36*
X50317Y271600D02*
X47684D01*
X45140Y270919D01*
X42860Y269602D01*
X40998Y267740D01*
X39681Y265460D01*
X39000Y262917D01*
Y260284D01*
X39681Y257740D01*
X40998Y255460D01*
X42860Y253598D01*
X45140Y252281D01*
X47684Y251600D01*
X50317D01*
X52860Y252281D01*
X55140Y253598D01*
X57002Y255460D01*
X58319Y257740D01*
X59000Y260284D01*
Y262917D01*
X58319Y265460D01*
X57002Y267740D01*
X55140Y269602D01*
X52860Y270919D01*
X50317Y271600D01*
D02*
G37*
G36*
X276250Y236122D02*
X271500D01*
Y226500D01*
X282622D01*
Y229750D01*
X282137Y232189D01*
X280756Y234256D01*
X278689Y235637D01*
X276250Y236122D01*
D02*
G37*
G36*
X269500D02*
X264750D01*
X262311Y235637D01*
X260244Y234256D01*
X258863Y232189D01*
X258377Y229750D01*
Y226500D01*
X269500D01*
Y236122D01*
D02*
G37*
G36*
X75717Y246200D02*
X73084D01*
X70540Y245518D01*
X68260Y244202D01*
X66398Y242340D01*
X65082Y240060D01*
X64400Y237516D01*
Y234883D01*
X65082Y232340D01*
X66398Y230060D01*
X68260Y228198D01*
X70540Y226882D01*
X73084Y226200D01*
X75717D01*
X78260Y226882D01*
X80540Y228198D01*
X82402Y230060D01*
X83719Y232340D01*
X84400Y234883D01*
Y237516D01*
X83719Y240060D01*
X82402Y242340D01*
X80540Y244202D01*
X78260Y245518D01*
X75717Y246200D01*
D02*
G37*
G36*
X50317D02*
X47684D01*
X45140Y245518D01*
X42860Y244202D01*
X40998Y242340D01*
X39681Y240060D01*
X39000Y237516D01*
Y234883D01*
X39681Y232340D01*
X40998Y230060D01*
X42860Y228198D01*
X45140Y226882D01*
X47684Y226200D01*
X50317D01*
X52860Y226882D01*
X55140Y228198D01*
X57002Y230060D01*
X58319Y232340D01*
X59000Y234883D01*
Y237516D01*
X58319Y240060D01*
X57002Y242340D01*
X55140Y244202D01*
X52860Y245518D01*
X50317Y246200D01*
D02*
G37*
G36*
X282622Y224500D02*
X271500D01*
Y214878D01*
X276250D01*
X278689Y215363D01*
X280756Y216744D01*
X282137Y218811D01*
X282622Y221250D01*
Y224500D01*
D02*
G37*
G36*
X269500D02*
X258377D01*
Y221250D01*
X258863Y218811D01*
X260244Y216744D01*
X262311Y215363D01*
X264750Y214878D01*
X269500D01*
Y224500D01*
D02*
G37*
G36*
X75717Y220800D02*
X75400D01*
Y211800D01*
X84400D01*
Y212117D01*
X83719Y214660D01*
X82402Y216940D01*
X80540Y218802D01*
X78260Y220119D01*
X75717Y220800D01*
D02*
G37*
G36*
X73400D02*
X73084D01*
X70540Y220119D01*
X68260Y218802D01*
X66398Y216940D01*
X65082Y214660D01*
X64400Y212117D01*
Y211800D01*
X73400D01*
Y220800D01*
D02*
G37*
G36*
X84400Y209800D02*
X75400D01*
Y200800D01*
X75717D01*
X78260Y201481D01*
X80540Y202798D01*
X82402Y204660D01*
X83719Y206940D01*
X84400Y209484D01*
Y209800D01*
D02*
G37*
G36*
X73400D02*
X64400D01*
Y209484D01*
X65082Y206940D01*
X66398Y204660D01*
X68260Y202798D01*
X70540Y201481D01*
X73084Y200800D01*
X73400D01*
Y209800D01*
D02*
G37*
G36*
X50317Y220800D02*
X47684D01*
X45140Y220119D01*
X42860Y218802D01*
X40998Y216940D01*
X39681Y214660D01*
X39000Y212117D01*
Y209484D01*
X39681Y206940D01*
X40998Y204660D01*
X42860Y202798D01*
X45140Y201481D01*
X47684Y200800D01*
X50317D01*
X52860Y201481D01*
X55140Y202798D01*
X57002Y204660D01*
X58319Y206940D01*
X59000Y209484D01*
Y212117D01*
X58319Y214660D01*
X57002Y216940D01*
X55140Y218802D01*
X52860Y220119D01*
X50317Y220800D01*
D02*
G37*
G36*
Y195400D02*
X47684D01*
X45140Y194718D01*
X42860Y193402D01*
X40998Y191540D01*
X39681Y189260D01*
X39000Y186716D01*
Y184083D01*
X39681Y181540D01*
X40998Y179260D01*
X42860Y177398D01*
X45140Y176082D01*
X47684Y175400D01*
X50317D01*
X52860Y176082D01*
X55140Y177398D01*
X57002Y179260D01*
X58319Y181540D01*
X59000Y184083D01*
Y186716D01*
X58319Y189260D01*
X57002Y191540D01*
X55140Y193402D01*
X52860Y194718D01*
X50317Y195400D01*
D02*
G37*
G36*
X75717Y170000D02*
X75400D01*
Y161000D01*
X84400D01*
Y161317D01*
X83719Y163860D01*
X82402Y166140D01*
X80540Y168002D01*
X78260Y169319D01*
X75717Y170000D01*
D02*
G37*
G36*
X73400D02*
X73084D01*
X70540Y169319D01*
X68260Y168002D01*
X66398Y166140D01*
X65082Y163860D01*
X64400Y161317D01*
Y161000D01*
X73400D01*
Y170000D01*
D02*
G37*
G36*
X84400Y159000D02*
X75400D01*
Y150000D01*
X75717D01*
X78260Y150681D01*
X80540Y151998D01*
X82402Y153860D01*
X83719Y156140D01*
X84400Y158684D01*
Y159000D01*
D02*
G37*
G36*
X73400D02*
X64400D01*
Y158684D01*
X65082Y156140D01*
X66398Y153860D01*
X68260Y151998D01*
X70540Y150681D01*
X73084Y150000D01*
X73400D01*
Y159000D01*
D02*
G37*
G36*
X53000Y170117D02*
X45000D01*
X42659Y169652D01*
X40674Y168326D01*
X39348Y166341D01*
X38883Y164000D01*
Y156000D01*
X39348Y153659D01*
X40674Y151674D01*
X42659Y150348D01*
X45000Y149882D01*
X53000D01*
X55341Y150348D01*
X57326Y151674D01*
X58652Y153659D01*
X59117Y156000D01*
Y164000D01*
X58652Y166341D01*
X57326Y168326D01*
X55341Y169652D01*
X53000Y170117D01*
D02*
G37*
G36*
X127750Y166622D02*
X116250D01*
X113811Y166137D01*
X111744Y164756D01*
X110363Y162689D01*
X109878Y160250D01*
Y151750D01*
X110363Y149311D01*
X111744Y147244D01*
X113811Y145863D01*
X116250Y145378D01*
X127750D01*
X130189Y145863D01*
X132256Y147244D01*
X133637Y149311D01*
X134122Y151750D01*
Y160250D01*
X133637Y162689D01*
X132256Y164756D01*
X130189Y166137D01*
X127750Y166622D01*
D02*
G37*
G36*
X286985Y85000D02*
X285015D01*
X283083Y84616D01*
X281263Y83862D01*
X279625Y82767D01*
X278232Y81375D01*
X277138Y79737D01*
X276384Y77917D01*
X276000Y75985D01*
Y74015D01*
X276384Y72083D01*
X277138Y70263D01*
X278232Y68625D01*
X279625Y67232D01*
X281263Y66138D01*
X283083Y65384D01*
X285015Y65000D01*
X286985D01*
X288917Y65384D01*
X290737Y66138D01*
X292375Y67232D01*
X293768Y68625D01*
X294862Y70263D01*
X295616Y72083D01*
X296000Y74015D01*
Y75985D01*
X295616Y77917D01*
X294862Y79737D01*
X293768Y81375D01*
X292375Y82767D01*
X290737Y83862D01*
X288917Y84616D01*
X286985Y85000D01*
D02*
G37*
G36*
X92400Y36959D02*
Y26000D01*
X101991D01*
Y26500D01*
X101630Y29241D01*
X100572Y31795D01*
X98889Y33989D01*
X96695Y35672D01*
X94141Y36730D01*
X92400Y36959D01*
D02*
G37*
G36*
X90400D02*
X88659Y36730D01*
X86105Y35672D01*
X83911Y33989D01*
X82228Y31795D01*
X81170Y29241D01*
X80809Y26500D01*
Y26000D01*
X90400D01*
Y36959D01*
D02*
G37*
G36*
X101991Y24000D02*
X92400D01*
Y13041D01*
X94141Y13270D01*
X96695Y14328D01*
X98889Y16011D01*
X100572Y18205D01*
X101630Y20759D01*
X101991Y23500D01*
Y24000D01*
D02*
G37*
G36*
X90400D02*
X80809D01*
Y23500D01*
X81170Y20759D01*
X82228Y18205D01*
X83911Y16011D01*
X86105Y14328D01*
X88659Y13270D01*
X90400Y13041D01*
Y24000D01*
D02*
G37*
G36*
X193000Y37091D02*
X190259Y36730D01*
X187705Y35672D01*
X185511Y33989D01*
X183828Y31795D01*
X182770Y29241D01*
X182409Y26500D01*
Y23500D01*
X182770Y20759D01*
X183828Y18205D01*
X185511Y16011D01*
X187705Y14328D01*
X190259Y13270D01*
X193000Y12909D01*
X195741Y13270D01*
X198295Y14328D01*
X200489Y16011D01*
X202172Y18205D01*
X203230Y20759D01*
X203591Y23500D01*
Y26500D01*
X203230Y29241D01*
X202172Y31795D01*
X200489Y33989D01*
X198295Y35672D01*
X195741Y36730D01*
X193000Y37091D01*
D02*
G37*
G36*
X167600D02*
X164859Y36730D01*
X162305Y35672D01*
X160111Y33989D01*
X158428Y31795D01*
X157370Y29241D01*
X157009Y26500D01*
Y23500D01*
X157370Y20759D01*
X158428Y18205D01*
X160111Y16011D01*
X162305Y14328D01*
X164859Y13270D01*
X167600Y12909D01*
X170341Y13270D01*
X172895Y14328D01*
X175089Y16011D01*
X176772Y18205D01*
X177830Y20759D01*
X178191Y23500D01*
Y26500D01*
X177830Y29241D01*
X176772Y31795D01*
X175089Y33989D01*
X172895Y35672D01*
X170341Y36730D01*
X167600Y37091D01*
D02*
G37*
G36*
X142200D02*
X139459Y36730D01*
X136905Y35672D01*
X134711Y33989D01*
X133028Y31795D01*
X131970Y29241D01*
X131609Y26500D01*
Y23500D01*
X131970Y20759D01*
X133028Y18205D01*
X134711Y16011D01*
X136905Y14328D01*
X139459Y13270D01*
X142200Y12909D01*
X144941Y13270D01*
X147495Y14328D01*
X149689Y16011D01*
X151372Y18205D01*
X152430Y20759D01*
X152791Y23500D01*
Y26500D01*
X152430Y29241D01*
X151372Y31795D01*
X149689Y33989D01*
X147495Y35672D01*
X144941Y36730D01*
X142200Y37091D01*
D02*
G37*
G36*
X116800D02*
X114059Y36730D01*
X111505Y35672D01*
X109311Y33989D01*
X107628Y31795D01*
X106570Y29241D01*
X106209Y26500D01*
Y23500D01*
X106570Y20759D01*
X107628Y18205D01*
X109311Y16011D01*
X111505Y14328D01*
X114059Y13270D01*
X116800Y12909D01*
X119541Y13270D01*
X122095Y14328D01*
X124289Y16011D01*
X125972Y18205D01*
X127030Y20759D01*
X127391Y23500D01*
Y26500D01*
X127030Y29241D01*
X125972Y31795D01*
X124289Y33989D01*
X122095Y35672D01*
X119541Y36730D01*
X116800Y37091D01*
D02*
G37*
G36*
X262098Y72016D02*
X257902D01*
X253741Y71468D01*
X249687Y70382D01*
X245809Y68776D01*
X242175Y66677D01*
X238845Y64122D01*
X235878Y61155D01*
X233323Y57825D01*
X231224Y54191D01*
X229618Y50313D01*
X228532Y46259D01*
X227984Y42098D01*
Y37902D01*
X227194Y37000D01*
X207900D01*
Y13000D01*
X228900D01*
Y28103D01*
X230170Y28355D01*
X231224Y25809D01*
X233323Y22175D01*
X235878Y18845D01*
X238845Y15878D01*
X242175Y13323D01*
X245809Y11224D01*
X249687Y9618D01*
X253741Y8532D01*
X257902Y7984D01*
X262098D01*
X266259Y8532D01*
X270313Y9618D01*
X274191Y11224D01*
X277825Y13323D01*
X281155Y15878D01*
X284122Y18845D01*
X286677Y22175D01*
X288776Y25809D01*
X290382Y29687D01*
X291468Y33741D01*
X292016Y37902D01*
Y42098D01*
X291468Y46259D01*
X290382Y50313D01*
X288776Y54191D01*
X286677Y57825D01*
X284122Y61155D01*
X281155Y64122D01*
X277825Y66677D01*
X274191Y68776D01*
X270313Y70382D01*
X266259Y71468D01*
X262098Y72016D01*
D02*
G37*
G36*
X49598D02*
X45402D01*
X41241Y71468D01*
X37187Y70382D01*
X33310Y68776D01*
X29675Y66677D01*
X26345Y64122D01*
X23378Y61155D01*
X20823Y57825D01*
X18724Y54191D01*
X17118Y50313D01*
X16032Y46259D01*
X15484Y42098D01*
Y37902D01*
X16032Y33741D01*
X17118Y29687D01*
X18724Y25809D01*
X20823Y22175D01*
X23378Y18845D01*
X26345Y15878D01*
X29675Y13323D01*
X33310Y11224D01*
X37187Y9618D01*
X41241Y8532D01*
X45402Y7984D01*
X49598D01*
X53759Y8532D01*
X57813Y9618D01*
X61691Y11224D01*
X65325Y13323D01*
X68655Y15878D01*
X71622Y18845D01*
X74177Y22175D01*
X76276Y25809D01*
X77882Y29687D01*
X78968Y33741D01*
X79516Y37902D01*
Y42098D01*
X78968Y46259D01*
X77882Y50313D01*
X76276Y54191D01*
X74177Y57825D01*
X71622Y61155D01*
X68655Y64122D01*
X65325Y66677D01*
X61691Y68776D01*
X57813Y70382D01*
X53759Y71468D01*
X49598Y72016D01*
D02*
G37*
%LPD*%
D10*
X216000Y370000D02*
X267076D01*
X275476Y378401D01*
D40*
X28000Y670000D02*
D03*
X286000Y75000D02*
D03*
D41*
X47780Y549470D02*
X54786Y542464D01*
X155976D01*
X157512Y544000D01*
X159000D01*
X57800Y551650D02*
X57975Y551825D01*
X165825D02*
X166000Y552000D01*
X57975Y551825D02*
X165825D01*
X47780Y561630D02*
X57800Y571650D01*
X47780Y549470D02*
Y561630D01*
D42*
X167000Y275000D02*
Y389750D01*
X177250Y400000D01*
X77400Y185400D02*
X167000Y275000D01*
X74400Y185400D02*
X77400D01*
X46900Y500750D02*
X197000D01*
X203750Y494000D01*
X207000Y503250D02*
X207250Y503500D01*
X46200Y503250D02*
X207000D01*
X37800Y511650D02*
X46200Y503250D01*
X37800Y491650D02*
X46900Y500750D01*
D45*
X116800Y25000D02*
D03*
X142200D02*
D03*
X193000D02*
D03*
X167600D02*
D03*
X91400D02*
D03*
X182550Y310000D02*
D03*
D46*
X218400Y25000D02*
D03*
X207950Y310000D02*
D03*
D47*
X284250D02*
D03*
X239000Y427000D02*
D03*
X270500Y225500D02*
D03*
X275000Y624750D02*
D03*
X122000Y156000D02*
D03*
X263000Y542000D02*
D03*
X216000Y370000D02*
D03*
D48*
X57800Y611650D02*
D03*
X37800D02*
D03*
X57800Y591650D02*
D03*
X37800D02*
D03*
X57800Y571650D02*
D03*
X37800D02*
D03*
X57800Y551650D02*
D03*
X37800D02*
D03*
X57800Y531650D02*
D03*
X37800D02*
D03*
X57800Y511650D02*
D03*
X37800D02*
D03*
X57800Y491650D02*
D03*
X37800D02*
D03*
X57800Y471650D02*
D03*
X37800D02*
D03*
X57800Y451650D02*
D03*
X37800D02*
D03*
X57800Y431650D02*
D03*
D49*
X37800D02*
D03*
D50*
X74400Y160000D02*
D03*
X49000Y185400D02*
D03*
X74400D02*
D03*
X49000Y210800D02*
D03*
X74400D02*
D03*
X49000Y236200D02*
D03*
X74400D02*
D03*
X49000Y261600D02*
D03*
X74400D02*
D03*
X49000Y287000D02*
D03*
X74400D02*
D03*
X49000Y312400D02*
D03*
X74400D02*
D03*
X49000Y337800D02*
D03*
X74400D02*
D03*
X49000Y363200D02*
D03*
X74400D02*
D03*
X49000Y388600D02*
D03*
X74400D02*
D03*
D51*
X49000Y160000D02*
D03*
D52*
X116699Y173699D02*
D03*
X157075Y363296D02*
D03*
X39000Y376000D02*
D03*
X228000Y269000D02*
D03*
X205000Y44000D02*
D03*
X166000Y494000D02*
D03*
Y513000D02*
D03*
X183000Y488000D02*
D03*
X148000D02*
D03*
Y523000D02*
D03*
X183000D02*
D03*
X166000Y552000D02*
D03*
X159000Y544000D02*
D03*
X14000Y129000D02*
D03*
X168000Y93000D02*
D03*
X188250Y6250D02*
D03*
X269000Y433000D02*
D03*
X196000Y626000D02*
D03*
X152000Y269000D02*
D03*
X275476Y378401D02*
D03*
X227000Y472000D02*
D03*
X250000Y413000D02*
D03*
X229000Y441000D02*
D03*
X177250Y400000D02*
D03*
X76000Y561000D02*
D03*
X132000Y565000D02*
D03*
X228250Y396250D02*
D03*
X203750Y494000D02*
D03*
X207250Y503500D02*
D03*
X135000Y474000D02*
D03*
X168000Y400500D02*
D03*
X170000Y419750D02*
D03*
X132000Y536000D02*
D03*
X152000Y213000D02*
D03*
X193000Y216000D02*
D03*
X227000Y295000D02*
D03*
X293000Y204000D02*
D03*
Y382000D02*
D03*
X256000Y576000D02*
D03*
X214000D02*
D03*
X230000Y649000D02*
D03*
X160000D02*
D03*
X90000D02*
D03*
X214000Y542000D02*
D03*
X133000Y612000D02*
D03*
X75500Y611750D02*
D03*
X163000Y600000D02*
D03*
X95750Y511750D02*
D03*
X104000Y485000D02*
D03*
X133000Y411000D02*
D03*
X97500Y440000D02*
D03*
X169250Y446250D02*
D03*
X198000Y477000D02*
D03*
X200000Y400000D02*
D03*
X278000Y465000D02*
D03*
X256396Y499612D02*
D03*
X246250Y521500D02*
D03*
X294000Y649000D02*
D03*
Y576000D02*
D03*
Y515000D02*
D03*
X195000Y92000D02*
D03*
X244000Y162000D02*
D03*
X293000Y91000D02*
D03*
X234500Y9250D02*
D03*
X169000Y44250D02*
D03*
X225000Y491000D02*
D03*
X14000Y649000D02*
D03*
X15000Y62000D02*
D03*
M02*
