G04*
G04 #@! TF.GenerationSoftware,Altium Limited,Altium Designer,23.3.1 (30)*
G04*
G04 Layer_Color=8421504*
%FSLAX44Y44*%
%MOMM*%
G71*
G04*
G04 #@! TF.SameCoordinates,E7C39D28-7B35-4B43-AE6B-8B00C768E268*
G04*
G04*
G04 #@! TF.FilePolarity,Positive*
G04*
G01*
G75*
G04:AMPARAMS|DCode=15|XSize=0.85mm|YSize=0.85mm|CornerRadius=0.2125mm|HoleSize=0mm|Usage=FLASHONLY|Rotation=180.000|XOffset=0mm|YOffset=0mm|HoleType=Round|Shape=RoundedRectangle|*
%AMROUNDEDRECTD15*
21,1,0.8500,0.4250,0,0,180.0*
21,1,0.4250,0.8500,0,0,180.0*
1,1,0.4250,-0.2125,0.2125*
1,1,0.4250,0.2125,0.2125*
1,1,0.4250,0.2125,-0.2125*
1,1,0.4250,-0.2125,-0.2125*
%
%ADD15ROUNDEDRECTD15*%
G04:AMPARAMS|DCode=16|XSize=1.2mm|YSize=1.47mm|CornerRadius=0.3mm|HoleSize=0mm|Usage=FLASHONLY|Rotation=0.000|XOffset=0mm|YOffset=0mm|HoleType=Round|Shape=RoundedRectangle|*
%AMROUNDEDRECTD16*
21,1,1.2000,0.8700,0,0,0.0*
21,1,0.6000,1.4700,0,0,0.0*
1,1,0.6000,0.3000,-0.4350*
1,1,0.6000,-0.3000,-0.4350*
1,1,0.6000,-0.3000,0.4350*
1,1,0.6000,0.3000,0.4350*
%
%ADD16ROUNDEDRECTD16*%
%ADD17O,0.1990X0.8100*%
%ADD18O,0.8100X0.1990*%
G04:AMPARAMS|DCode=19|XSize=1mm|YSize=1.4mm|CornerRadius=0.25mm|HoleSize=0mm|Usage=FLASHONLY|Rotation=90.000|XOffset=0mm|YOffset=0mm|HoleType=Round|Shape=RoundedRectangle|*
%AMROUNDEDRECTD19*
21,1,1.0000,0.9000,0,0,90.0*
21,1,0.5000,1.4000,0,0,90.0*
1,1,0.5000,0.4500,0.2500*
1,1,0.5000,0.4500,-0.2500*
1,1,0.5000,-0.4500,-0.2500*
1,1,0.5000,-0.4500,0.2500*
%
%ADD19ROUNDEDRECTD19*%
%ADD20R,1.0500X1.3000*%
G04:AMPARAMS|DCode=21|XSize=0.85mm|YSize=0.85mm|CornerRadius=0.2125mm|HoleSize=0mm|Usage=FLASHONLY|Rotation=90.000|XOffset=0mm|YOffset=0mm|HoleType=Round|Shape=RoundedRectangle|*
%AMROUNDEDRECTD21*
21,1,0.8500,0.4250,0,0,90.0*
21,1,0.4250,0.8500,0,0,90.0*
1,1,0.4250,0.2125,0.2125*
1,1,0.4250,0.2125,-0.2125*
1,1,0.4250,-0.2125,-0.2125*
1,1,0.4250,-0.2125,0.2125*
%
%ADD21ROUNDEDRECTD21*%
G36*
X161900Y485850D02*
X145600D01*
Y502150D01*
X161900D01*
Y485850D01*
D02*
G37*
G36*
Y508850D02*
X145600D01*
Y525150D01*
X161900D01*
Y508850D01*
D02*
G37*
G36*
X184900Y485850D02*
X168600D01*
Y502150D01*
X184900D01*
Y485850D01*
D02*
G37*
G36*
Y508850D02*
X168600D01*
Y525150D01*
X184900D01*
Y508850D01*
D02*
G37*
D15*
X291000Y466923D02*
D03*
Y452923D02*
D03*
Y490000D02*
D03*
Y504000D02*
D03*
X234000Y483083D02*
D03*
Y497083D02*
D03*
X159000Y433000D02*
D03*
Y447000D02*
D03*
X107000D02*
D03*
Y433000D02*
D03*
X216000Y482500D02*
D03*
Y496500D02*
D03*
D16*
X218150Y528250D02*
D03*
X235350D02*
D03*
D17*
X143250Y476000D02*
D03*
X147250D02*
D03*
X151250D02*
D03*
X155250D02*
D03*
X159250D02*
D03*
X163250D02*
D03*
X167250D02*
D03*
X171250D02*
D03*
X175250D02*
D03*
X179250D02*
D03*
X183250D02*
D03*
X187250D02*
D03*
X151250Y535000D02*
D03*
X159250D02*
D03*
X163250D02*
D03*
X167250D02*
D03*
X171250D02*
D03*
X155250D02*
D03*
X147250D02*
D03*
X143250D02*
D03*
X175250D02*
D03*
X179250D02*
D03*
X183250D02*
D03*
X187250D02*
D03*
D18*
X194750Y523500D02*
D03*
Y511500D02*
D03*
Y515500D02*
D03*
Y519500D02*
D03*
Y527500D02*
D03*
Y507500D02*
D03*
Y483500D02*
D03*
Y487500D02*
D03*
Y491500D02*
D03*
Y495500D02*
D03*
Y499500D02*
D03*
Y503500D02*
D03*
X135750D02*
D03*
Y483500D02*
D03*
Y487500D02*
D03*
Y491500D02*
D03*
Y495500D02*
D03*
Y499500D02*
D03*
Y507500D02*
D03*
Y511500D02*
D03*
Y515500D02*
D03*
Y519500D02*
D03*
Y523500D02*
D03*
Y527500D02*
D03*
D19*
X252000Y488750D02*
D03*
X274000Y498250D02*
D03*
Y479250D02*
D03*
D20*
X143000Y451250D02*
D03*
X124500D02*
D03*
Y428250D02*
D03*
X143000D02*
D03*
D21*
X165500Y410000D02*
D03*
X151500D02*
D03*
X151250Y391000D02*
D03*
X165250D02*
D03*
X245750Y512000D02*
D03*
X231750D02*
D03*
X146000Y552499D02*
D03*
X132000D02*
D03*
M02*
