G04*
G04 #@! TF.GenerationSoftware,Altium Limited,Altium Designer,23.3.1 (30)*
G04*
G04 Layer_Physical_Order=1*
G04 Layer_Color=255*
%FSLAX44Y44*%
%MOMM*%
G71*
G04*
G04 #@! TF.SameCoordinates,AFC9A265-922B-4258-BEE4-7106DEA6A0D1*
G04*
G04*
G04 #@! TF.FilePolarity,Positive*
G04*
G01*
G75*
%ADD10C,0.3000*%
%ADD11C,0.2500*%
%ADD12C,0.2000*%
%ADD14C,0.1656*%
G04:AMPARAMS|DCode=15|XSize=0.85mm|YSize=0.85mm|CornerRadius=0.2125mm|HoleSize=0mm|Usage=FLASHONLY|Rotation=0.000|XOffset=0mm|YOffset=0mm|HoleType=Round|Shape=RoundedRectangle|*
%AMROUNDEDRECTD15*
21,1,0.8500,0.4250,0,0,0.0*
21,1,0.4250,0.8500,0,0,0.0*
1,1,0.4250,0.2125,-0.2125*
1,1,0.4250,-0.2125,-0.2125*
1,1,0.4250,-0.2125,0.2125*
1,1,0.4250,0.2125,0.2125*
%
%ADD15ROUNDEDRECTD15*%
%ADD16R,1.3000X1.0500*%
G04:AMPARAMS|DCode=17|XSize=1.5mm|YSize=0.25mm|CornerRadius=0.0625mm|HoleSize=0mm|Usage=FLASHONLY|Rotation=90.000|XOffset=0mm|YOffset=0mm|HoleType=Round|Shape=RoundedRectangle|*
%AMROUNDEDRECTD17*
21,1,1.5000,0.1250,0,0,90.0*
21,1,1.3750,0.2500,0,0,90.0*
1,1,0.1250,0.0625,0.6875*
1,1,0.1250,0.0625,-0.6875*
1,1,0.1250,-0.0625,-0.6875*
1,1,0.1250,-0.0625,0.6875*
%
%ADD17ROUNDEDRECTD17*%
G04:AMPARAMS|DCode=18|XSize=0.25mm|YSize=1.5mm|CornerRadius=0.0625mm|HoleSize=0mm|Usage=FLASHONLY|Rotation=90.000|XOffset=0mm|YOffset=0mm|HoleType=Round|Shape=RoundedRectangle|*
%AMROUNDEDRECTD18*
21,1,0.2500,1.3750,0,0,90.0*
21,1,0.1250,1.5000,0,0,90.0*
1,1,0.1250,0.6875,0.0625*
1,1,0.1250,0.6875,-0.0625*
1,1,0.1250,-0.6875,-0.0625*
1,1,0.1250,-0.6875,0.0625*
%
%ADD18ROUNDEDRECTD18*%
%ADD32C,1.0000*%
%ADD33R,2.0000X1.7000*%
%ADD34O,2.0000X1.7000*%
%ADD35R,1.7000X2.0000*%
%ADD36C,1.3000*%
G04:AMPARAMS|DCode=37|XSize=1.3mm|YSize=1.3mm|CornerRadius=0.325mm|HoleSize=0mm|Usage=FLASHONLY|Rotation=90.000|XOffset=0mm|YOffset=0mm|HoleType=Round|Shape=RoundedRectangle|*
%AMROUNDEDRECTD37*
21,1,1.3000,0.6500,0,0,90.0*
21,1,0.6500,1.3000,0,0,90.0*
1,1,0.6500,0.3250,0.3250*
1,1,0.6500,0.3250,-0.3250*
1,1,0.6500,-0.3250,-0.3250*
1,1,0.6500,-0.3250,0.3250*
%
%ADD37ROUNDEDRECTD37*%
%ADD38C,1.6000*%
G04:AMPARAMS|DCode=39|XSize=1.6mm|YSize=1.6mm|CornerRadius=0.4mm|HoleSize=0mm|Usage=FLASHONLY|Rotation=90.000|XOffset=0mm|YOffset=0mm|HoleType=Round|Shape=RoundedRectangle|*
%AMROUNDEDRECTD39*
21,1,1.6000,0.8000,0,0,90.0*
21,1,0.8000,1.6000,0,0,90.0*
1,1,0.8000,0.4000,0.4000*
1,1,0.8000,0.4000,-0.4000*
1,1,0.8000,-0.4000,-0.4000*
1,1,0.8000,-0.4000,0.4000*
%
%ADD39ROUNDEDRECTD39*%
%ADD40C,0.7000*%
G36*
X297451Y514549D02*
X297451Y154750D01*
X251750D01*
Y332953D01*
X254273Y335477D01*
X255047Y336634D01*
X255319Y338000D01*
Y401022D01*
X267273Y412977D01*
X268047Y414134D01*
X268319Y415500D01*
Y452500D01*
X268047Y453866D01*
X267273Y455023D01*
X255023Y467273D01*
X253866Y468047D01*
X252500Y468319D01*
X226478D01*
X221069Y473728D01*
Y476787D01*
X221875Y477449D01*
X223125D01*
X224149Y477652D01*
X225000Y478221D01*
X225851Y477652D01*
X226875Y477449D01*
X228125D01*
X229149Y477652D01*
X230000Y478221D01*
X230851Y477652D01*
X231875Y477449D01*
X233125D01*
X234149Y477652D01*
X235000Y478221D01*
X235851Y477652D01*
X236875Y477449D01*
X238125D01*
X239149Y477652D01*
X240018Y478232D01*
X240598Y479101D01*
X240801Y480125D01*
Y493875D01*
X240598Y494899D01*
X240018Y495768D01*
X239149Y496348D01*
X238125Y496551D01*
X236875D01*
X235851Y496348D01*
X235000Y495779D01*
X234149Y496348D01*
X233125Y496551D01*
X231875D01*
X230851Y496348D01*
X230000Y495779D01*
X229149Y496348D01*
X228125Y496551D01*
X226875D01*
X225851Y496348D01*
X225000Y495779D01*
X224149Y496348D01*
X223125Y496551D01*
X221875D01*
X221069Y497213D01*
Y505041D01*
X222163Y506134D01*
X223000Y508156D01*
Y510344D01*
X222163Y512365D01*
X220616Y513913D01*
X218594Y514750D01*
X216406D01*
X214384Y513913D01*
X212837Y512365D01*
X212000Y510344D01*
Y508156D01*
X212837Y506134D01*
X213931Y505040D01*
Y497213D01*
X213125Y496551D01*
X211875D01*
X210851Y496348D01*
X210000Y495779D01*
X209149Y496348D01*
X208125Y496551D01*
X206875D01*
X205851Y496348D01*
X205000Y495779D01*
X204149Y496348D01*
X203500Y496477D01*
Y487000D01*
Y477193D01*
X204441Y476436D01*
Y468800D01*
X204441Y468800D01*
X204674Y467630D01*
X205337Y466637D01*
X214301Y457673D01*
X213815Y456500D01*
X209500D01*
Y449250D01*
Y442000D01*
X216941D01*
Y438000D01*
X200000D01*
Y436059D01*
X191145D01*
X191011Y436735D01*
X190099Y438099D01*
X188734Y439011D01*
X187125Y439331D01*
X182875D01*
X181266Y439011D01*
X179901Y438099D01*
X178989Y436735D01*
X178669Y435125D01*
Y430875D01*
X178989Y429266D01*
X179901Y427901D01*
X181266Y426989D01*
X182875Y426669D01*
X187125D01*
X188734Y426989D01*
X190099Y427901D01*
X191011Y429266D01*
X191145Y429941D01*
X200000D01*
Y423500D01*
X217000D01*
Y427691D01*
X217000Y427691D01*
X218171Y427924D01*
X219163Y428587D01*
X221730Y431154D01*
X223000Y430628D01*
Y423500D01*
X230500D01*
Y430750D01*
Y438000D01*
X223059D01*
Y442000D01*
X240000D01*
Y443941D01*
X248855D01*
X248989Y443265D01*
X249901Y441901D01*
X251266Y440989D01*
X252875Y440669D01*
X257125D01*
X258734Y440989D01*
X259911Y441776D01*
X260648Y441563D01*
X261181Y441235D01*
Y438765D01*
X260648Y438437D01*
X259911Y438224D01*
X258734Y439011D01*
X257125Y439331D01*
X256000D01*
Y433000D01*
Y426669D01*
X257125D01*
X258734Y426989D01*
X259911Y427776D01*
X260648Y427563D01*
X261181Y427235D01*
Y416978D01*
X250272Y406069D01*
X166978D01*
X141331Y431716D01*
Y435125D01*
X141011Y436735D01*
X140099Y438099D01*
X138735Y439011D01*
X137125Y439331D01*
X132875D01*
X131265Y439011D01*
X129901Y438099D01*
X128989Y436735D01*
X128669Y435125D01*
Y430995D01*
X126745D01*
X121982Y426232D01*
X120809Y426718D01*
Y439233D01*
X125517Y443941D01*
X128855D01*
X128989Y443265D01*
X129901Y441901D01*
X131265Y440989D01*
X132875Y440669D01*
X137125D01*
X138735Y440989D01*
X140099Y441901D01*
X141011Y443265D01*
X141145Y443941D01*
X153855D01*
X153989Y443265D01*
X154901Y441901D01*
X156265Y440989D01*
X157875Y440669D01*
X162125D01*
X163734Y440989D01*
X165099Y441901D01*
X166011Y443265D01*
X166331Y444875D01*
Y449125D01*
X166011Y450734D01*
X165099Y452099D01*
X163734Y453011D01*
X163059Y453145D01*
Y454733D01*
X169517Y461191D01*
X182000D01*
X182000Y461191D01*
X183171Y461424D01*
X184163Y462087D01*
X194663Y472587D01*
X194663Y472587D01*
X195326Y473579D01*
X195559Y474750D01*
X195559Y474750D01*
Y476436D01*
X196500Y477193D01*
Y487000D01*
Y496477D01*
X195851Y496348D01*
X195000Y495779D01*
X194149Y496348D01*
X193125Y496551D01*
X191875D01*
X190851Y496348D01*
X190000Y495779D01*
X189149Y496348D01*
X188125Y496551D01*
X186875D01*
X185851Y496348D01*
X185000Y495779D01*
X184149Y496348D01*
X183125Y496551D01*
X181875D01*
X180851Y496348D01*
X179982Y495768D01*
X179402Y494899D01*
X179199Y493875D01*
Y480125D01*
X179402Y479101D01*
X179982Y478232D01*
X180851Y477652D01*
X181875Y477449D01*
X183125D01*
X184149Y477652D01*
X185000Y478221D01*
X185851Y477652D01*
X186875Y477449D01*
X188125D01*
X188769Y476446D01*
X188820Y475396D01*
X180733Y467309D01*
X168250D01*
X168250Y467309D01*
X167080Y467076D01*
X166087Y466413D01*
X166087Y466413D01*
X157837Y458163D01*
X157174Y457170D01*
X156941Y456000D01*
X156941Y456000D01*
Y453145D01*
X156265Y453011D01*
X154901Y452099D01*
X153989Y450734D01*
X153855Y450059D01*
X141145D01*
X141011Y450734D01*
X140099Y452099D01*
X138735Y453011D01*
X137125Y453331D01*
X132875D01*
X131265Y453011D01*
X129901Y452099D01*
X128989Y450734D01*
X128855Y450059D01*
X124250D01*
X124250Y450059D01*
X123080Y449826D01*
X122087Y449163D01*
X122087Y449163D01*
X115587Y442663D01*
X114924Y441670D01*
X114691Y440500D01*
X114691Y440500D01*
Y418941D01*
X85669Y389919D01*
X85317Y389918D01*
X84294Y390310D01*
X83719Y392460D01*
X82402Y394740D01*
X80540Y396602D01*
X78260Y397919D01*
X75717Y398600D01*
X75400D01*
Y388600D01*
Y378600D01*
X75717D01*
X78260Y379282D01*
X80540Y380598D01*
X82402Y382460D01*
X83719Y384740D01*
X83944Y385581D01*
X85214Y385414D01*
Y366386D01*
X83944Y366219D01*
X83719Y367060D01*
X82402Y369340D01*
X80540Y371202D01*
X78260Y372519D01*
X75717Y373200D01*
X73084D01*
X70540Y372519D01*
X68260Y371202D01*
X66398Y369340D01*
X65082Y367060D01*
X64400Y364516D01*
Y361884D01*
X65082Y359340D01*
X66398Y357060D01*
X68260Y355198D01*
X70540Y353881D01*
X73084Y353200D01*
X75717D01*
X78260Y353881D01*
X80540Y355198D01*
X82402Y357060D01*
X83719Y359340D01*
X83944Y360181D01*
X85214Y360014D01*
Y340986D01*
X83944Y340819D01*
X83719Y341660D01*
X82402Y343940D01*
X80540Y345802D01*
X78260Y347118D01*
X75717Y347800D01*
X75400D01*
Y337800D01*
Y327800D01*
X75717D01*
X78260Y328481D01*
X80540Y329798D01*
X82402Y331660D01*
X83719Y333940D01*
X83944Y334781D01*
X85214Y334614D01*
Y315586D01*
X83944Y315419D01*
X83719Y316260D01*
X82402Y318540D01*
X80540Y320402D01*
X78260Y321718D01*
X75717Y322400D01*
X73084D01*
X70540Y321718D01*
X68260Y320402D01*
X66398Y318540D01*
X65082Y316260D01*
X64400Y313717D01*
Y311084D01*
X65082Y308540D01*
X66398Y306260D01*
X68260Y304398D01*
X70540Y303081D01*
X73084Y302400D01*
X75717D01*
X76929Y302725D01*
X77586Y301586D01*
X72969Y296969D01*
X70540Y296318D01*
X68260Y295002D01*
X66398Y293140D01*
X66156Y292722D01*
X57244D01*
X57002Y293140D01*
X55140Y295002D01*
X52860Y296318D01*
X50317Y297000D01*
X47684D01*
X45140Y296318D01*
X42860Y295002D01*
X41429Y293571D01*
X10049Y324951D01*
Y424549D01*
X31465Y445965D01*
X32581Y444848D01*
X34519Y443729D01*
X36681Y443150D01*
X38919D01*
X41081Y443729D01*
X43019Y444848D01*
X44602Y446431D01*
X45721Y448369D01*
X46300Y450531D01*
Y452769D01*
X45721Y454931D01*
X44602Y456869D01*
X43485Y457985D01*
X51465Y465965D01*
X52581Y464848D01*
X54519Y463729D01*
X56681Y463150D01*
X58919D01*
X61081Y463729D01*
X63019Y464848D01*
X64602Y466431D01*
X65721Y468369D01*
X66300Y470531D01*
Y472769D01*
X65721Y474931D01*
X64602Y476869D01*
X63485Y477985D01*
X84191Y498691D01*
X86750D01*
X86750Y498691D01*
X87921Y498924D01*
X88913Y499587D01*
X101495Y512169D01*
X105125D01*
X106735Y512489D01*
X108099Y513401D01*
X109011Y514766D01*
X109331Y516375D01*
Y520005D01*
X132687Y543361D01*
X157255D01*
X157449Y543125D01*
Y541875D01*
X157652Y540851D01*
X158221Y540000D01*
X157652Y539149D01*
X157523Y538500D01*
X167000D01*
X176477D01*
X176348Y539149D01*
X175779Y540000D01*
X176348Y540851D01*
X176551Y541875D01*
Y543125D01*
X176745Y543361D01*
X243255D01*
X243449Y543125D01*
Y541875D01*
X243652Y540851D01*
X244221Y540000D01*
X243652Y539149D01*
X243449Y538125D01*
Y536875D01*
X243652Y535851D01*
X244221Y535000D01*
X243652Y534149D01*
X243449Y533125D01*
Y531875D01*
X243652Y530851D01*
X244221Y530000D01*
X243652Y529149D01*
X243449Y528125D01*
Y526875D01*
X243652Y525851D01*
X244221Y525000D01*
X243652Y524149D01*
X243449Y523125D01*
Y521875D01*
X243652Y520851D01*
X244221Y520000D01*
X243652Y519149D01*
X243449Y518125D01*
Y516875D01*
X243652Y515851D01*
X244221Y515000D01*
X243652Y514149D01*
X243449Y513125D01*
Y511875D01*
X243652Y510851D01*
X244221Y510000D01*
X243652Y509149D01*
X243523Y508500D01*
X253000D01*
X262477D01*
X262348Y509149D01*
X261779Y510000D01*
X262348Y510851D01*
X262551Y511875D01*
Y513125D01*
X262348Y514149D01*
X261779Y515000D01*
X262348Y515851D01*
X262551Y516875D01*
Y518125D01*
X262348Y519149D01*
X261779Y520000D01*
X262348Y520851D01*
X262551Y521875D01*
Y523125D01*
X262348Y524149D01*
X261779Y525000D01*
X262348Y525851D01*
X262551Y526875D01*
Y528125D01*
X262348Y529149D01*
X261779Y530000D01*
X262348Y530851D01*
X262551Y531875D01*
Y533125D01*
X262348Y534149D01*
X261779Y535000D01*
X262348Y535851D01*
X262551Y536875D01*
Y538125D01*
X262348Y539149D01*
X261779Y540000D01*
X262348Y540851D01*
X262551Y541875D01*
Y543125D01*
X262745Y543361D01*
X268639D01*
X297451Y514549D01*
D02*
G37*
G36*
X176621Y655304D02*
X130819Y660841D01*
X117049Y683963D01*
X134471Y712805D01*
X136477Y708876D01*
X149641Y716497D01*
X152066Y710088D01*
X154721Y712109D01*
X158936Y707202D01*
X162920Y714014D01*
X174553Y711676D01*
X194905Y691065D01*
X195771Y675996D01*
X176621Y655304D01*
D02*
G37*
G36*
X120075Y743991D02*
X121104Y736678D01*
X125324Y737272D01*
X124295Y744585D01*
X120075Y743991D01*
D02*
G37*
G36*
X148784Y758153D02*
X149258Y751458D01*
X152924Y751717D01*
X152451Y758412D01*
X148784Y758153D01*
D02*
G37*
G36*
X165139Y755704D02*
X166521Y749637D01*
X170807Y750613D01*
X169424Y756680D01*
X165139Y755704D01*
D02*
G37*
G36*
X194591Y760354D02*
X190851Y755976D01*
X193391Y753806D01*
X197131Y758185D01*
X194591Y760354D01*
D02*
G37*
%LPC*%
G36*
X176477Y536500D02*
X167000D01*
X157523D01*
X157652Y535851D01*
X158221Y535000D01*
X157652Y534149D01*
X157449Y533125D01*
Y531875D01*
X157652Y530851D01*
X158221Y530000D01*
X157652Y529149D01*
X157449Y528125D01*
Y526875D01*
X156365Y525814D01*
X155715D01*
X154366Y527163D01*
X152344Y528000D01*
X150156D01*
X148134Y527163D01*
X146587Y525616D01*
X145750Y523594D01*
Y521406D01*
X146587Y519384D01*
X148134Y517837D01*
X150156Y517000D01*
X152344D01*
X154366Y517837D01*
X155715Y519186D01*
X156365D01*
X157449Y518125D01*
Y516875D01*
X157652Y515851D01*
X158221Y515000D01*
X157652Y514149D01*
X157449Y513125D01*
Y511875D01*
X157652Y510851D01*
X158221Y510000D01*
X157652Y509149D01*
X157449Y508125D01*
Y506875D01*
X157652Y505851D01*
X158221Y505000D01*
X157652Y504149D01*
X157449Y503125D01*
Y501875D01*
X157652Y500851D01*
X158232Y499982D01*
X159101Y499402D01*
X160125Y499199D01*
X173875D01*
X174899Y499402D01*
X175767Y499982D01*
X176348Y500851D01*
X176551Y501875D01*
Y503125D01*
X176542Y503171D01*
X177564Y504441D01*
X193755D01*
X193755Y504441D01*
X194926Y504674D01*
X195918Y505337D01*
X201852Y511271D01*
X201909Y511247D01*
X204097D01*
X206118Y512085D01*
X207665Y513632D01*
X208503Y515653D01*
Y517841D01*
X207665Y519863D01*
X206997Y520531D01*
X207225Y521677D01*
X208772Y523224D01*
X209610Y525246D01*
Y527434D01*
X208772Y529455D01*
X207225Y531002D01*
X205203Y531839D01*
X203015D01*
X200994Y531002D01*
X199447Y529455D01*
X198610Y527434D01*
Y525246D01*
X198633Y525189D01*
X189003Y515559D01*
X177564D01*
X176542Y516829D01*
X176551Y516875D01*
Y518125D01*
X176348Y519149D01*
X175779Y520000D01*
X176348Y520851D01*
X176551Y521875D01*
Y523125D01*
X176348Y524149D01*
X175779Y525000D01*
X176348Y525851D01*
X176551Y526875D01*
Y528125D01*
X176348Y529149D01*
X175779Y530000D01*
X176348Y530851D01*
X176551Y531875D01*
Y533125D01*
X176348Y534149D01*
X175779Y535000D01*
X176348Y535851D01*
X176477Y536500D01*
D02*
G37*
G36*
X141500Y523500D02*
X120500D01*
Y499500D01*
X141500D01*
Y523500D01*
D02*
G37*
G36*
X262477Y506500D02*
X253000D01*
X243523D01*
X243652Y505851D01*
X244221Y505000D01*
X243652Y504149D01*
X243449Y503125D01*
Y501875D01*
X243652Y500851D01*
X244233Y499982D01*
X245101Y499402D01*
X246125Y499199D01*
X259875D01*
X260899Y499402D01*
X261768Y499982D01*
X262348Y500851D01*
X262551Y501875D01*
Y503125D01*
X262348Y504149D01*
X261779Y505000D01*
X262348Y505851D01*
X262477Y506500D01*
D02*
G37*
G36*
X198500Y496477D02*
Y487000D01*
Y477523D01*
X199149Y477652D01*
X200000Y478221D01*
X200851Y477652D01*
X201500Y477523D01*
Y487000D01*
Y496477D01*
X200851Y496348D01*
X200000Y495779D01*
X199149Y496348D01*
X198500Y496477D01*
D02*
G37*
G36*
X58919Y460150D02*
X58800D01*
Y452650D01*
X66300D01*
Y452769D01*
X65721Y454931D01*
X64602Y456869D01*
X63019Y458452D01*
X61081Y459571D01*
X58919Y460150D01*
D02*
G37*
G36*
X56800D02*
X56681D01*
X54519Y459571D01*
X52581Y458452D01*
X50998Y456869D01*
X49879Y454931D01*
X49300Y452769D01*
Y452650D01*
X56800D01*
Y460150D01*
D02*
G37*
G36*
X207500Y456500D02*
X200000D01*
Y450250D01*
X207500D01*
Y456500D01*
D02*
G37*
G36*
X187125Y453331D02*
X186000D01*
Y448000D01*
X191331D01*
Y449125D01*
X191011Y450734D01*
X190099Y452099D01*
X188734Y453011D01*
X187125Y453331D01*
D02*
G37*
G36*
X184000D02*
X182875D01*
X181266Y453011D01*
X179901Y452099D01*
X178989Y450734D01*
X178669Y449125D01*
Y448000D01*
X184000D01*
Y453331D01*
D02*
G37*
G36*
X66300Y450650D02*
X58800D01*
Y443150D01*
X58919D01*
X61081Y443729D01*
X63019Y444848D01*
X64602Y446431D01*
X65721Y448369D01*
X66300Y450531D01*
Y450650D01*
D02*
G37*
G36*
X56800D02*
X49300D01*
Y450531D01*
X49879Y448369D01*
X50998Y446431D01*
X52581Y444848D01*
X54519Y443729D01*
X56681Y443150D01*
X56800D01*
Y450650D01*
D02*
G37*
G36*
X207500Y448250D02*
X200000D01*
Y442000D01*
X207500D01*
Y448250D01*
D02*
G37*
G36*
X191331Y446000D02*
X186000D01*
Y440669D01*
X187125D01*
X188734Y440989D01*
X190099Y441901D01*
X191011Y443265D01*
X191331Y444875D01*
Y446000D01*
D02*
G37*
G36*
X184000D02*
X178669D01*
Y444875D01*
X178989Y443265D01*
X179901Y441901D01*
X181266Y440989D01*
X182875Y440669D01*
X184000D01*
Y446000D01*
D02*
G37*
G36*
X162125Y439331D02*
X161000D01*
Y434000D01*
X166331D01*
Y435125D01*
X166011Y436735D01*
X165099Y438099D01*
X163734Y439011D01*
X162125Y439331D01*
D02*
G37*
G36*
X254000D02*
X252875D01*
X251266Y439011D01*
X249901Y438099D01*
X248989Y436735D01*
X248669Y435125D01*
Y434000D01*
X254000D01*
Y439331D01*
D02*
G37*
G36*
X159000D02*
X157875D01*
X156265Y439011D01*
X154901Y438099D01*
X153989Y436735D01*
X153669Y435125D01*
Y434000D01*
X159000D01*
Y439331D01*
D02*
G37*
G36*
X41050Y440253D02*
X38800D01*
Y432650D01*
X46403D01*
Y434900D01*
X45995Y436948D01*
X44835Y438685D01*
X43098Y439845D01*
X41050Y440253D01*
D02*
G37*
G36*
X36800D02*
X34550D01*
X32502Y439845D01*
X30765Y438685D01*
X29605Y436948D01*
X29197Y434900D01*
Y432650D01*
X36800D01*
Y440253D01*
D02*
G37*
G36*
X240000Y438000D02*
X232500D01*
Y431750D01*
X240000D01*
Y438000D01*
D02*
G37*
G36*
X254000Y432000D02*
X248669D01*
Y430875D01*
X248989Y429266D01*
X249901Y427901D01*
X251266Y426989D01*
X252875Y426669D01*
X254000D01*
Y432000D01*
D02*
G37*
G36*
X166331D02*
X161000D01*
Y426669D01*
X162125D01*
X163734Y426989D01*
X165099Y427901D01*
X166011Y429266D01*
X166331Y430875D01*
Y432000D01*
D02*
G37*
G36*
X159000D02*
X153669D01*
Y430875D01*
X153989Y429266D01*
X154901Y427901D01*
X156265Y426989D01*
X157875Y426669D01*
X159000D01*
Y432000D01*
D02*
G37*
G36*
X240000Y429750D02*
X232500D01*
Y423500D01*
X240000D01*
Y429750D01*
D02*
G37*
G36*
X58919Y440150D02*
X56681D01*
X54519Y439571D01*
X52581Y438452D01*
X50998Y436869D01*
X49879Y434931D01*
X49300Y432769D01*
Y430531D01*
X49879Y428369D01*
X50998Y426431D01*
X52581Y424848D01*
X54519Y423729D01*
X56681Y423150D01*
X58919D01*
X61081Y423729D01*
X63019Y424848D01*
X64602Y426431D01*
X65721Y428369D01*
X66300Y430531D01*
Y432769D01*
X65721Y434931D01*
X64602Y436869D01*
X63019Y438452D01*
X61081Y439571D01*
X58919Y440150D01*
D02*
G37*
G36*
X46403Y430650D02*
X38800D01*
Y423047D01*
X41050D01*
X43098Y423455D01*
X44835Y424615D01*
X45995Y426352D01*
X46403Y428400D01*
Y430650D01*
D02*
G37*
G36*
X36800D02*
X29197D01*
Y428400D01*
X29605Y426352D01*
X30765Y424615D01*
X32502Y423455D01*
X34550Y423047D01*
X36800D01*
Y430650D01*
D02*
G37*
G36*
X280985Y420000D02*
X279015D01*
X277083Y419616D01*
X275263Y418862D01*
X273625Y417767D01*
X272232Y416375D01*
X271138Y414737D01*
X270384Y412917D01*
X270000Y410985D01*
Y409015D01*
X270384Y407083D01*
X271138Y405263D01*
X272232Y403625D01*
X273625Y402233D01*
X275263Y401138D01*
X277083Y400384D01*
X279015Y400000D01*
X280985D01*
X282917Y400384D01*
X284737Y401138D01*
X286375Y402233D01*
X287768Y403625D01*
X288862Y405263D01*
X289616Y407083D01*
X290000Y409015D01*
Y410985D01*
X289616Y412917D01*
X288862Y414737D01*
X287768Y416375D01*
X286375Y417767D01*
X284737Y418862D01*
X282917Y419616D01*
X280985Y420000D01*
D02*
G37*
G36*
X73400Y398600D02*
X73084D01*
X70540Y397919D01*
X68260Y396602D01*
X66398Y394740D01*
X65082Y392460D01*
X64400Y389916D01*
Y389600D01*
X73400D01*
Y398600D01*
D02*
G37*
G36*
Y387600D02*
X64400D01*
Y387284D01*
X65082Y384740D01*
X66398Y382460D01*
X68260Y380598D01*
X70540Y379282D01*
X73084Y378600D01*
X73400D01*
Y387600D01*
D02*
G37*
G36*
X50317Y398600D02*
X47684D01*
X45140Y397919D01*
X42860Y396602D01*
X40998Y394740D01*
X39681Y392460D01*
X39000Y389916D01*
Y387284D01*
X39681Y384740D01*
X40998Y382460D01*
X42860Y380598D01*
X45140Y379282D01*
X47684Y378600D01*
X50317D01*
X52860Y379282D01*
X55140Y380598D01*
X57002Y382460D01*
X58319Y384740D01*
X59000Y387284D01*
Y389916D01*
X58319Y392460D01*
X57002Y394740D01*
X55140Y396602D01*
X52860Y397919D01*
X50317Y398600D01*
D02*
G37*
G36*
Y373200D02*
X47684D01*
X45140Y372519D01*
X42860Y371202D01*
X40998Y369340D01*
X39681Y367060D01*
X39000Y364516D01*
Y361884D01*
X39681Y359340D01*
X40998Y357060D01*
X42860Y355198D01*
X45140Y353881D01*
X47684Y353200D01*
X50317D01*
X52860Y353881D01*
X55140Y355198D01*
X57002Y357060D01*
X58319Y359340D01*
X59000Y361884D01*
Y364516D01*
X58319Y367060D01*
X57002Y369340D01*
X55140Y371202D01*
X52860Y372519D01*
X50317Y373200D01*
D02*
G37*
G36*
X73400Y347800D02*
X73084D01*
X70540Y347118D01*
X68260Y345802D01*
X66398Y343940D01*
X65082Y341660D01*
X64400Y339117D01*
Y338800D01*
X73400D01*
Y347800D01*
D02*
G37*
G36*
Y336800D02*
X64400D01*
Y336483D01*
X65082Y333940D01*
X66398Y331660D01*
X68260Y329798D01*
X70540Y328481D01*
X73084Y327800D01*
X73400D01*
Y336800D01*
D02*
G37*
G36*
X50317Y347800D02*
X47684D01*
X45140Y347118D01*
X42860Y345802D01*
X40998Y343940D01*
X39681Y341660D01*
X39000Y339117D01*
Y336483D01*
X39681Y333940D01*
X40998Y331660D01*
X42860Y329798D01*
X45140Y328481D01*
X47684Y327800D01*
X50317D01*
X52860Y328481D01*
X55140Y329798D01*
X57002Y331660D01*
X58319Y333940D01*
X59000Y336483D01*
Y339117D01*
X58319Y341660D01*
X57002Y343940D01*
X55140Y345802D01*
X52860Y347118D01*
X50317Y347800D01*
D02*
G37*
G36*
Y322400D02*
X47684D01*
X45140Y321718D01*
X42860Y320402D01*
X40998Y318540D01*
X39681Y316260D01*
X39000Y313717D01*
Y311084D01*
X39681Y308540D01*
X40998Y306260D01*
X42860Y304398D01*
X45140Y303081D01*
X47684Y302400D01*
X50317D01*
X52860Y303081D01*
X55140Y304398D01*
X57002Y306260D01*
X58319Y308540D01*
X59000Y311084D01*
Y313717D01*
X58319Y316260D01*
X57002Y318540D01*
X55140Y320402D01*
X52860Y321718D01*
X50317Y322400D01*
D02*
G37*
G36*
X286750Y230150D02*
X262750D01*
Y209150D01*
X286750D01*
Y230150D01*
D02*
G37*
G36*
X276250Y204841D02*
X273250D01*
X270509Y204480D01*
X267955Y203422D01*
X265761Y201739D01*
X264078Y199545D01*
X263020Y196991D01*
X262659Y194250D01*
X263020Y191509D01*
X264078Y188955D01*
X265761Y186761D01*
X267955Y185078D01*
X270509Y184020D01*
X273250Y183659D01*
X276250D01*
X278991Y184020D01*
X281545Y185078D01*
X283739Y186761D01*
X285422Y188955D01*
X286480Y191509D01*
X286841Y194250D01*
X286480Y196991D01*
X285422Y199545D01*
X283739Y201739D01*
X281545Y203422D01*
X278991Y204480D01*
X276250Y204841D01*
D02*
G37*
G36*
Y179441D02*
X275750D01*
Y169850D01*
X286709D01*
X286480Y171591D01*
X285422Y174145D01*
X283739Y176339D01*
X281545Y178022D01*
X278991Y179080D01*
X276250Y179441D01*
D02*
G37*
G36*
X273750D02*
X273250D01*
X270509Y179080D01*
X267955Y178022D01*
X265761Y176339D01*
X264078Y174145D01*
X263020Y171591D01*
X262791Y169850D01*
X273750D01*
Y179441D01*
D02*
G37*
G36*
X286709Y167850D02*
X275750D01*
Y158259D01*
X276250D01*
X278991Y158620D01*
X281545Y159678D01*
X283739Y161361D01*
X285422Y163555D01*
X286480Y166109D01*
X286709Y167850D01*
D02*
G37*
G36*
X273750D02*
X262791D01*
X263020Y166109D01*
X264078Y163555D01*
X265761Y161361D01*
X267955Y159678D01*
X270509Y158620D01*
X273250Y158259D01*
X273750D01*
Y167850D01*
D02*
G37*
%LPD*%
D10*
X264750Y415500D02*
Y452500D01*
X225000Y464750D02*
X252500D01*
X264750Y452500D01*
X217500Y472250D02*
X225000Y464750D01*
X217500Y509250D02*
X217500Y509250D01*
Y487000D02*
Y509250D01*
X64000Y198250D02*
X112000D01*
X51150Y185400D02*
X64000Y198250D01*
X112000D02*
X251750Y338000D01*
X49000Y185400D02*
X51150D01*
X165500Y402500D02*
X251750D01*
X135000Y433000D02*
X165500Y402500D01*
X251750Y338000D02*
Y402500D01*
X264750Y415500D01*
X217500Y472250D02*
Y487000D01*
D11*
X222500Y573000D02*
Y595750D01*
X222000Y596250D02*
X222500Y595750D01*
X231250Y610250D02*
X248000Y593500D01*
X222000Y610250D02*
X231250D01*
X215500Y537500D02*
X248000Y570000D01*
Y593500D01*
X204750Y537500D02*
X215500D01*
X151250Y522500D02*
X166875D01*
D12*
X190270Y512500D02*
X204109Y526339D01*
X193755Y507500D02*
X203003Y516747D01*
X167000Y512500D02*
X190270D01*
X91500Y532500D02*
X103000D01*
X113500Y548500D02*
X159750Y594750D01*
X103500Y548500D02*
X113500D01*
X159750Y594750D02*
X207000D01*
X92500Y548500D02*
X103500D01*
X65500Y521500D02*
X92500Y548500D01*
X45250Y521500D02*
X65500D01*
X103625Y573797D02*
X103750Y573923D01*
X103500Y562500D02*
X103625Y562625D01*
Y573797D01*
X143750Y547500D02*
X167000D01*
X32500Y183250D02*
X42000Y173750D01*
X102250Y260000D02*
Y382250D01*
X117750Y397750D01*
X40750Y249000D02*
X91250D01*
X102250Y260000D01*
X32500Y183250D02*
Y240750D01*
X40750Y249000D01*
X42000Y173750D02*
X62750D01*
X166875Y522625D02*
X167000Y522500D01*
X229750Y460000D02*
X231500Y458250D01*
X221250Y460000D02*
X229750D01*
X212500Y468750D02*
X221250Y460000D01*
X231500Y449250D02*
Y458250D01*
X207500Y468800D02*
X220000Y456300D01*
X212500Y468750D02*
Y487000D01*
X207500Y468800D02*
Y487000D01*
X220000Y433750D02*
Y456300D01*
X167000Y507500D02*
X193755D01*
X62750Y173750D02*
X74400Y185400D01*
X117750Y397750D02*
Y440500D01*
X124250Y447000D01*
X135000D01*
X160000D01*
Y456000D01*
X168250Y464250D01*
X182000D01*
X192500Y474750D02*
Y487000D01*
X182000Y464250D02*
X192500Y474750D01*
X206250Y433000D02*
X208500Y430750D01*
X185000Y433000D02*
X206250D01*
X233750Y447000D02*
X255000D01*
X231500Y449250D02*
X233750Y447000D01*
X217000Y430750D02*
X220000Y433750D01*
X208500Y430750D02*
X217000D01*
X43333Y519560D02*
Y519583D01*
X45250Y521500D01*
X38400Y511650D02*
Y514627D01*
X43333Y519560D01*
X207000Y594750D02*
X217500Y584250D01*
Y573000D02*
Y584250D01*
X38400Y491650D02*
X48500Y501750D01*
X86750D01*
X132500Y547500D01*
X143750D01*
D14*
X174553Y711676D02*
X194905Y691065D01*
X171896Y718602D02*
X174553Y711676D01*
X173006Y718720D02*
X178443Y728922D01*
X166148Y733587D02*
X171003Y737956D01*
X172306Y717534D02*
X173006Y718720D01*
X173711Y732941D02*
X178443Y728922D01*
X166148Y733587D02*
X171896Y718602D01*
X194905Y691065D02*
X195771Y675996D01*
X157738Y695724D02*
X162330Y698957D01*
X160676Y702701D02*
X166961Y709973D01*
X160676Y702701D02*
X162330Y698957D01*
X158936Y707202D02*
X162920Y714014D01*
X166961Y709973D01*
X161361Y732028D02*
X162920Y714014D01*
X161361Y732028D02*
X166615Y738840D01*
X122646Y737087D02*
X124468Y722732D01*
X180041Y740401D02*
X188669D01*
X165824Y745942D02*
X166615Y738840D01*
X168318Y750046D02*
X171003Y737956D01*
X173711Y732941D02*
X192258Y754799D01*
X140432Y722675D02*
X141121Y734678D01*
X151028Y751635D02*
X152123Y731162D01*
X147100Y727005D02*
X152123Y731162D01*
X188669Y740401D02*
X203129Y755328D01*
X136249Y738166D02*
X136952Y749076D01*
X136249Y738166D02*
X141121Y734678D01*
X151484Y743112D02*
X155472Y745942D01*
X147100Y727005D02*
X149641Y716497D01*
X154783Y763909D02*
X155472Y745942D01*
X124468Y722732D02*
X129549Y722444D01*
X117049Y683963D02*
X140432Y722675D01*
X136477Y708876D02*
X149641Y716497D01*
X152066Y710088D01*
X129549Y722444D02*
X136477Y708876D01*
X152066Y710088D02*
X154721Y712109D01*
X158936Y707202D01*
X117049Y683963D02*
X130819Y660841D01*
X176621Y655304D02*
X195771Y675996D01*
X130819Y660841D02*
X176621Y655304D01*
D15*
X103500Y562500D02*
D03*
Y548500D02*
D03*
X103000Y518500D02*
D03*
Y532500D02*
D03*
X222000Y610250D02*
D03*
Y596250D02*
D03*
X135000Y447000D02*
D03*
Y433000D02*
D03*
X160000Y447000D02*
D03*
Y433000D02*
D03*
X255000D02*
D03*
Y447000D02*
D03*
X185000Y433000D02*
D03*
Y447000D02*
D03*
D16*
X231500Y449250D02*
D03*
Y430750D02*
D03*
X208500D02*
D03*
Y449250D02*
D03*
D17*
X182500Y487000D02*
D03*
X187500D02*
D03*
X192500D02*
D03*
X197500D02*
D03*
X202500D02*
D03*
X207500D02*
D03*
X212500D02*
D03*
X217500D02*
D03*
X222500D02*
D03*
X227500D02*
D03*
X232500D02*
D03*
X237500D02*
D03*
Y573000D02*
D03*
X232500D02*
D03*
X227500D02*
D03*
X222500D02*
D03*
X217500D02*
D03*
X212500D02*
D03*
X207500D02*
D03*
X202500D02*
D03*
X197500D02*
D03*
X192500D02*
D03*
X187500D02*
D03*
X182500D02*
D03*
D18*
X253000Y502500D02*
D03*
Y507500D02*
D03*
Y512500D02*
D03*
Y517500D02*
D03*
Y522500D02*
D03*
Y527500D02*
D03*
Y532500D02*
D03*
Y537500D02*
D03*
Y542500D02*
D03*
Y547500D02*
D03*
Y552500D02*
D03*
Y557500D02*
D03*
X167000D02*
D03*
Y552500D02*
D03*
Y547500D02*
D03*
Y542500D02*
D03*
Y537500D02*
D03*
Y532500D02*
D03*
Y527500D02*
D03*
Y522500D02*
D03*
Y517500D02*
D03*
Y512500D02*
D03*
Y507500D02*
D03*
Y502500D02*
D03*
D32*
X280000Y410000D02*
D03*
X28250Y670500D02*
D03*
X210000Y20000D02*
D03*
D33*
X274750Y219650D02*
D03*
D34*
Y194250D02*
D03*
Y168850D02*
D03*
D35*
X168000Y301750D02*
D03*
X135750Y375500D02*
D03*
X131000Y511500D02*
D03*
D36*
X57800Y611650D02*
D03*
X37800D02*
D03*
X57800Y591650D02*
D03*
X37800D02*
D03*
X57800Y571650D02*
D03*
X37800D02*
D03*
X57800Y551650D02*
D03*
X37800D02*
D03*
X57800Y531650D02*
D03*
X37800D02*
D03*
X57800Y511650D02*
D03*
X37800D02*
D03*
X57800Y491650D02*
D03*
X37800D02*
D03*
X57800Y471650D02*
D03*
X37800D02*
D03*
X57800Y451650D02*
D03*
X37800D02*
D03*
X57800Y431650D02*
D03*
D37*
X37800D02*
D03*
D38*
X74400Y160000D02*
D03*
X49000Y185400D02*
D03*
X74400D02*
D03*
X49000Y210800D02*
D03*
X74400D02*
D03*
X49000Y236200D02*
D03*
X74400D02*
D03*
X49000Y261600D02*
D03*
X74400D02*
D03*
X49000Y287000D02*
D03*
X74400D02*
D03*
X49000Y312400D02*
D03*
X74400D02*
D03*
X49000Y337800D02*
D03*
X74400D02*
D03*
X49000Y363200D02*
D03*
X74400D02*
D03*
X49000Y388600D02*
D03*
X74400D02*
D03*
D39*
X49000Y160000D02*
D03*
D40*
X176000Y473000D02*
D03*
X229750Y473250D02*
D03*
X258500Y242750D02*
D03*
X292212Y271204D02*
D03*
X263750Y386000D02*
D03*
X290500Y450750D02*
D03*
X270250Y531250D02*
D03*
X238500Y506250D02*
D03*
X217500Y509250D02*
D03*
X204109Y526339D02*
D03*
X203003Y516747D02*
D03*
X91500Y532500D02*
D03*
X103750Y573923D02*
D03*
X15000Y327358D02*
D03*
X14250Y409858D02*
D03*
X199000Y470000D02*
D03*
X246099Y418501D02*
D03*
X170750Y418750D02*
D03*
X151250Y522500D02*
D03*
X37000Y398750D02*
D03*
X90000Y421500D02*
D03*
X77000Y436750D02*
D03*
X105500Y464250D02*
D03*
X86250Y468250D02*
D03*
X126250Y493250D02*
D03*
X114000Y510250D02*
D03*
X151000Y510750D02*
D03*
X150750Y532500D02*
D03*
X204750Y537500D02*
D03*
X197500Y501500D02*
D03*
M02*
