M48
;Layer_Color=9474304
;FILE_FORMAT=4:4
METRIC,LZ
;TYPE=PLATED
T1F00S00C0.3000
T2F00S00C0.9000
T3F00S00C1.0000
T4F00S00C1.1000
T5F00S00C3.5000
%
T01
X002585Y0024275
X00292212Y00271204
X0026375Y00386
X00246099Y00418501
X0022975Y0047325
X00199Y0047
X00176Y00473
X001975Y005015
X00203003Y00516747
X00204109Y00526339
X0020475Y005375
X002175Y0050925
X002385Y0050625
X0027025Y0053125
X002905Y0045075
X0017075Y0041875
X00151Y0051075
X0015125Y005225
X0015075Y005325
X00114Y0051025
X0012625Y0049325
X001055Y0046425
X0008625Y0046825
X00077Y0043675
X0009Y004215
X00037Y0039875
X0001425Y00409858
X00015Y00327358
X000915Y005325
X0010375Y00573923
T02
X000378Y0043165
Y0045165
Y0047165
Y0049165
Y0051165
Y0053165
Y0055165
Y0057165
Y0059165
Y0061165
X000578
Y0059165
Y0057165
Y0055165
Y0053165
Y0051165
Y0049165
Y0047165
Y0045165
Y0043165
T03
X00049Y0016
X000744
Y001854
X00049
Y002108
X000744
Y002362
X00049
Y002616
X000744
Y00287
X00049
Y003124
X000744
Y003378
X00049
Y003632
X000744
Y003886
X00049
T04
X0027475Y0016885
Y0019425
Y0021965
X00168Y0030175
X0013575Y003755
X00131Y005115
T05
X000475Y0004
X0026
X000475Y0073
X0026
M30
