G04*
G04 #@! TF.GenerationSoftware,Altium Limited,Altium Designer,23.3.1 (30)*
G04*
G04 Layer_Color=8388736*
%FSLAX44Y44*%
%MOMM*%
G71*
G04*
G04 #@! TF.SameCoordinates,3F57623D-7EA3-4023-A88F-E5603923C6E2*
G04*
G04*
G04 #@! TF.FilePolarity,Negative*
G04*
G01*
G75*
G04:AMPARAMS|DCode=20|XSize=0.95mm|YSize=0.95mm|CornerRadius=0.2625mm|HoleSize=0mm|Usage=FLASHONLY|Rotation=270.000|XOffset=0mm|YOffset=0mm|HoleType=Round|Shape=RoundedRectangle|*
%AMROUNDEDRECTD20*
21,1,0.9500,0.4250,0,0,270.0*
21,1,0.4250,0.9500,0,0,270.0*
1,1,0.5250,-0.2125,-0.2125*
1,1,0.5250,-0.2125,0.2125*
1,1,0.5250,0.2125,0.2125*
1,1,0.5250,0.2125,-0.2125*
%
%ADD20ROUNDEDRECTD20*%
%ADD21C,2.0000*%
%ADD22C,0.3500*%
%ADD23R,4.8000X4.8000*%
G04:AMPARAMS|DCode=24|XSize=0.95mm|YSize=0.95mm|CornerRadius=0.2625mm|HoleSize=0mm|Usage=FLASHONLY|Rotation=180.000|XOffset=0mm|YOffset=0mm|HoleType=Round|Shape=RoundedRectangle|*
%AMROUNDEDRECTD24*
21,1,0.9500,0.4250,0,0,180.0*
21,1,0.4250,0.9500,0,0,180.0*
1,1,0.5250,-0.2125,0.2125*
1,1,0.5250,0.2125,0.2125*
1,1,0.5250,0.2125,-0.2125*
1,1,0.5250,-0.2125,-0.2125*
%
%ADD24ROUNDEDRECTD24*%
G04:AMPARAMS|DCode=25|XSize=1.1mm|YSize=1.5mm|CornerRadius=0.3mm|HoleSize=0mm|Usage=FLASHONLY|Rotation=0.000|XOffset=0mm|YOffset=0mm|HoleType=Round|Shape=RoundedRectangle|*
%AMROUNDEDRECTD25*
21,1,1.1000,0.9000,0,0,0.0*
21,1,0.5000,1.5000,0,0,0.0*
1,1,0.6000,0.2500,-0.4500*
1,1,0.6000,-0.2500,-0.4500*
1,1,0.6000,-0.2500,0.4500*
1,1,0.6000,0.2500,0.4500*
%
%ADD25ROUNDEDRECTD25*%
G04:AMPARAMS|DCode=26|XSize=1.8mm|YSize=2.1mm|CornerRadius=0.475mm|HoleSize=0mm|Usage=FLASHONLY|Rotation=90.000|XOffset=0mm|YOffset=0mm|HoleType=Round|Shape=RoundedRectangle|*
%AMROUNDEDRECTD26*
21,1,1.8000,1.1500,0,0,90.0*
21,1,0.8500,2.1000,0,0,90.0*
1,1,0.9500,0.5750,0.4250*
1,1,0.9500,0.5750,-0.4250*
1,1,0.9500,-0.5750,-0.4250*
1,1,0.9500,-0.5750,0.4250*
%
%ADD26ROUNDEDRECTD26*%
%ADD27C,0.1000*%
%ADD28C,1.4000*%
G04:AMPARAMS|DCode=29|XSize=1.4mm|YSize=1.4mm|CornerRadius=0.375mm|HoleSize=0mm|Usage=FLASHONLY|Rotation=90.000|XOffset=0mm|YOffset=0mm|HoleType=Round|Shape=RoundedRectangle|*
%AMROUNDEDRECTD29*
21,1,1.4000,0.6500,0,0,90.0*
21,1,0.6500,1.4000,0,0,90.0*
1,1,0.7500,0.3250,0.3250*
1,1,0.7500,0.3250,-0.3250*
1,1,0.7500,-0.3250,-0.3250*
1,1,0.7500,-0.3250,0.3250*
%
%ADD29ROUNDEDRECTD29*%
%ADD30C,1.7000*%
G04:AMPARAMS|DCode=31|XSize=1.7mm|YSize=1.7mm|CornerRadius=0.45mm|HoleSize=0mm|Usage=FLASHONLY|Rotation=90.000|XOffset=0mm|YOffset=0mm|HoleType=Round|Shape=RoundedRectangle|*
%AMROUNDEDRECTD31*
21,1,1.7000,0.8000,0,0,90.0*
21,1,0.8000,1.7000,0,0,90.0*
1,1,0.9000,0.4000,0.4000*
1,1,0.9000,0.4000,-0.4000*
1,1,0.9000,-0.4000,-0.4000*
1,1,0.9000,-0.4000,0.4000*
%
%ADD31ROUNDEDRECTD31*%
G36*
X142069Y680497D02*
X143566Y698167D01*
X149377Y694717D01*
X149153Y691880D01*
X148052D01*
X148291Y694438D01*
X145943Y694658D01*
X145513Y690078D01*
X147862Y689858D01*
X148049Y691856D01*
X149152D01*
X148465Y683119D01*
X142069Y680497D01*
D02*
G37*
G36*
X165120Y679162D02*
X166226Y694635D01*
X172664Y699302D01*
X172171Y693059D01*
X171296D01*
X171525Y695504D01*
X169177Y695724D01*
X168748Y691145D01*
X171096Y690925D01*
X171294Y693034D01*
X172169D01*
X171319Y682278D01*
X165120Y679162D01*
D02*
G37*
G36*
X154738Y690922D02*
X152581Y693474D01*
X156692Y696949D01*
X158849Y694398D01*
X154738Y690922D01*
D02*
G37*
G36*
X121104Y736678D02*
X120075Y743991D01*
X124295Y744585D01*
X125324Y737272D01*
X121104Y736678D01*
D02*
G37*
G36*
X149258Y751458D02*
X148784Y758153D01*
X152451Y758412D01*
X152924Y751717D01*
X149258Y751458D01*
D02*
G37*
G36*
X166521Y749637D02*
X165139Y755704D01*
X169424Y756680D01*
X170807Y750613D01*
X166521Y749637D01*
D02*
G37*
G36*
X193391Y753806D02*
X190851Y755976D01*
X194591Y760354D01*
X197131Y758185D01*
X193391Y753806D01*
D02*
G37*
D20*
X109000Y161000D02*
D03*
X123000D02*
D03*
X129500Y350500D02*
D03*
X143500D02*
D03*
X123000Y186000D02*
D03*
X109000D02*
D03*
X157000Y488750D02*
D03*
X143000Y488750D02*
D03*
D21*
X282000Y439250D02*
D03*
X28250Y670500D02*
D03*
X210000Y20000D02*
D03*
D22*
X131500Y472000D02*
D03*
X136500D02*
D03*
X141500D02*
D03*
X146500D02*
D03*
X151500D02*
D03*
X156500D02*
D03*
X161500D02*
D03*
X124000Y477000D02*
D03*
X129000D02*
D03*
X134000D02*
D03*
X139000D02*
D03*
X144000D02*
D03*
X149000D02*
D03*
X154000D02*
D03*
X159000D02*
D03*
X164000D02*
D03*
X169000D02*
D03*
X171500Y472000D02*
D03*
X174000Y477000D02*
D03*
X179000D02*
D03*
Y469500D02*
D03*
Y464500D02*
D03*
X184000Y462000D02*
D03*
X179000Y454500D02*
D03*
Y449500D02*
D03*
Y444500D02*
D03*
Y439500D02*
D03*
X184000Y457000D02*
D03*
Y452000D02*
D03*
Y447000D02*
D03*
Y442000D02*
D03*
Y437000D02*
D03*
X179000Y434500D02*
D03*
X184000Y432000D02*
D03*
X179000Y429500D02*
D03*
Y424500D02*
D03*
X184000Y422000D02*
D03*
X119000Y417000D02*
D03*
X136500D02*
D03*
X141500D02*
D03*
X146500D02*
D03*
X151500D02*
D03*
X156500D02*
D03*
X161500D02*
D03*
X166500D02*
D03*
X171500D02*
D03*
X176500D02*
D03*
X124000Y412000D02*
D03*
X129000D02*
D03*
X134000D02*
D03*
X139000D02*
D03*
X144000D02*
D03*
X149000D02*
D03*
X154000D02*
D03*
X159000D02*
D03*
X124000Y464500D02*
D03*
X119000Y462000D02*
D03*
X124000Y459500D02*
D03*
X119000Y457000D02*
D03*
X124000Y454500D02*
D03*
X119000Y452000D02*
D03*
X124000Y449500D02*
D03*
X119000Y447000D02*
D03*
Y442000D02*
D03*
Y437000D02*
D03*
X124000Y434500D02*
D03*
Y429500D02*
D03*
X119000Y427000D02*
D03*
X124000Y424500D02*
D03*
X184000Y417000D02*
D03*
X119000Y472000D02*
D03*
Y467000D02*
D03*
X164000Y412000D02*
D03*
D23*
X151500Y444500D02*
D03*
D24*
X180000Y402000D02*
D03*
Y388000D02*
D03*
X195000D02*
D03*
Y402000D02*
D03*
X196500Y420250D02*
D03*
Y434250D02*
D03*
D25*
X130000Y368750D02*
D03*
X149000D02*
D03*
X139500Y390750D02*
D03*
D26*
X260000Y550000D02*
D03*
Y230000D02*
D03*
Y390000D02*
D03*
Y470000D02*
D03*
Y310000D02*
D03*
D27*
Y730000D02*
D03*
Y40000D02*
D03*
X47500Y730000D02*
D03*
Y40000D02*
D03*
D28*
X37800Y471650D02*
D03*
X57800Y451650D02*
D03*
Y611650D02*
D03*
X37800D02*
D03*
X57800Y591650D02*
D03*
X37800D02*
D03*
X57800Y571650D02*
D03*
X37800D02*
D03*
X57800Y551650D02*
D03*
X37800D02*
D03*
X57800Y531650D02*
D03*
X37800D02*
D03*
X57800Y511650D02*
D03*
X37800D02*
D03*
X57800Y491650D02*
D03*
X37800D02*
D03*
X57800Y471650D02*
D03*
X37800Y451650D02*
D03*
X57800Y431650D02*
D03*
D29*
X37800D02*
D03*
D30*
X74400Y160000D02*
D03*
X49000Y185400D02*
D03*
X74400D02*
D03*
X49000Y210800D02*
D03*
X74400D02*
D03*
X49000Y236200D02*
D03*
X74400D02*
D03*
X49000Y261600D02*
D03*
X74400D02*
D03*
X49000Y287000D02*
D03*
X74400D02*
D03*
X49000Y312400D02*
D03*
X74400D02*
D03*
X49000Y337800D02*
D03*
X74400D02*
D03*
X49000Y363200D02*
D03*
X74400D02*
D03*
X49000Y388600D02*
D03*
X74400D02*
D03*
D31*
X49000Y160000D02*
D03*
M02*
