M48
;Layer_Color=9474304
;FILE_FORMAT=4:4
METRIC,LZ
;TYPE=PLATED
T1F00S00C0.3000
T2F00S00C0.9000
T3F00S00C1.0000
T4F00S00C1.1000
T5F00S00C3.5000
%
T01
X0003025Y001575
X0015375Y0035425
X001515Y0038975
X001695Y0040275
X0017125Y0041125
X001695Y004265
Y004385
Y004505
Y004625
X001575
X001455
Y004505
X001575
Y004385
X001455
Y004265
X001575
X001965Y0044325
X00211963Y00385161
X002085Y00371
X001765
X00166125Y0048875
X001335Y004625
Y004505
Y004385
Y004265
X0010475Y0042125
X001085Y004455
X0007275Y004535
X0007125Y0047875
X000715Y0042525
X00052Y0040975
X00116Y003965
X0012975Y0039525
X0011675Y0036825
X0002725Y0032125
X000275Y0058125
T02
X000378Y0043165
Y0045165
Y0047165
Y0049165
Y0051165
Y0053165
Y0055165
Y0057165
Y0059165
Y0061165
X000578
Y0059165
Y0057165
Y0055165
Y0053165
Y0051165
Y0049165
Y0047165
Y0045165
Y0043165
T03
X00049Y0016
X000744
Y001854
X00049
Y002108
X000744
Y002362
X00049
Y002616
X000744
Y00287
X00049
Y003124
X000744
Y003378
X00049
Y003632
X000744
Y003886
X00049
T04
X0026Y0023
Y0031
Y0039
Y0047
Y0055
T05
X000475Y0004
X0026
X000475Y0073
X0026
M30
