G04*
G04 #@! TF.GenerationSoftware,Altium Limited,Altium Designer,23.3.1 (30)*
G04*
G04 Layer_Physical_Order=1*
G04 Layer_Color=255*
%FSLAX44Y44*%
%MOMM*%
G71*
G04*
G04 #@! TF.SameCoordinates,3F57623D-7EA3-4023-A88F-E5603923C6E2*
G04*
G04*
G04 #@! TF.FilePolarity,Positive*
G04*
G01*
G75*
%ADD10C,0.2000*%
%ADD14C,0.1656*%
G04:AMPARAMS|DCode=16|XSize=0.85mm|YSize=0.85mm|CornerRadius=0.2125mm|HoleSize=0mm|Usage=FLASHONLY|Rotation=270.000|XOffset=0mm|YOffset=0mm|HoleType=Round|Shape=RoundedRectangle|*
%AMROUNDEDRECTD16*
21,1,0.8500,0.4250,0,0,270.0*
21,1,0.4250,0.8500,0,0,270.0*
1,1,0.4250,-0.2125,-0.2125*
1,1,0.4250,-0.2125,0.2125*
1,1,0.4250,0.2125,0.2125*
1,1,0.4250,0.2125,-0.2125*
%
%ADD16ROUNDEDRECTD16*%
%ADD17C,0.2500*%
G04:AMPARAMS|DCode=18|XSize=0.85mm|YSize=0.85mm|CornerRadius=0.2125mm|HoleSize=0mm|Usage=FLASHONLY|Rotation=180.000|XOffset=0mm|YOffset=0mm|HoleType=Round|Shape=RoundedRectangle|*
%AMROUNDEDRECTD18*
21,1,0.8500,0.4250,0,0,180.0*
21,1,0.4250,0.8500,0,0,180.0*
1,1,0.4250,-0.2125,0.2125*
1,1,0.4250,0.2125,0.2125*
1,1,0.4250,0.2125,-0.2125*
1,1,0.4250,-0.2125,-0.2125*
%
%ADD18ROUNDEDRECTD18*%
G04:AMPARAMS|DCode=19|XSize=1mm|YSize=1.4mm|CornerRadius=0.25mm|HoleSize=0mm|Usage=FLASHONLY|Rotation=0.000|XOffset=0mm|YOffset=0mm|HoleType=Round|Shape=RoundedRectangle|*
%AMROUNDEDRECTD19*
21,1,1.0000,0.9000,0,0,0.0*
21,1,0.5000,1.4000,0,0,0.0*
1,1,0.5000,0.2500,-0.4500*
1,1,0.5000,-0.2500,-0.4500*
1,1,0.5000,-0.2500,0.4500*
1,1,0.5000,0.2500,0.4500*
%
%ADD19ROUNDEDRECTD19*%
%ADD32C,1.0000*%
%ADD33R,4.7000X4.7000*%
%ADD34C,0.3000*%
%ADD35C,0.1500*%
G04:AMPARAMS|DCode=36|XSize=1.7mm|YSize=2mm|CornerRadius=0.425mm|HoleSize=0mm|Usage=FLASHONLY|Rotation=90.000|XOffset=0mm|YOffset=0mm|HoleType=Round|Shape=RoundedRectangle|*
%AMROUNDEDRECTD36*
21,1,1.7000,1.1500,0,0,90.0*
21,1,0.8500,2.0000,0,0,90.0*
1,1,0.8500,0.5750,0.4250*
1,1,0.8500,0.5750,-0.4250*
1,1,0.8500,-0.5750,-0.4250*
1,1,0.8500,-0.5750,0.4250*
%
%ADD36ROUNDEDRECTD36*%
%ADD37C,1.3000*%
G04:AMPARAMS|DCode=38|XSize=1.3mm|YSize=1.3mm|CornerRadius=0.325mm|HoleSize=0mm|Usage=FLASHONLY|Rotation=90.000|XOffset=0mm|YOffset=0mm|HoleType=Round|Shape=RoundedRectangle|*
%AMROUNDEDRECTD38*
21,1,1.3000,0.6500,0,0,90.0*
21,1,0.6500,1.3000,0,0,90.0*
1,1,0.6500,0.3250,0.3250*
1,1,0.6500,0.3250,-0.3250*
1,1,0.6500,-0.3250,-0.3250*
1,1,0.6500,-0.3250,0.3250*
%
%ADD38ROUNDEDRECTD38*%
%ADD39C,1.6000*%
G04:AMPARAMS|DCode=40|XSize=1.6mm|YSize=1.6mm|CornerRadius=0.4mm|HoleSize=0mm|Usage=FLASHONLY|Rotation=90.000|XOffset=0mm|YOffset=0mm|HoleType=Round|Shape=RoundedRectangle|*
%AMROUNDEDRECTD40*
21,1,1.6000,0.8000,0,0,90.0*
21,1,0.8000,1.6000,0,0,90.0*
1,1,0.8000,0.4000,0.4000*
1,1,0.8000,0.4000,-0.4000*
1,1,0.8000,-0.4000,-0.4000*
1,1,0.8000,-0.4000,0.4000*
%
%ADD40ROUNDEDRECTD40*%
%ADD41C,0.6000*%
G36*
X152066Y710088D02*
X154721Y712109D01*
X158936Y707202D01*
X162920Y714014D01*
X174553Y711676D01*
X194905Y691065D01*
X195771Y675996D01*
X176621Y655304D01*
X130819Y660841D01*
X117049Y683963D01*
X134471Y712805D01*
X136477Y708876D01*
X149641Y716497D01*
X152066Y710088D01*
D02*
G37*
G36*
X58800Y583150D02*
X58919D01*
X60230Y583501D01*
X61500Y582572D01*
Y580728D01*
X60230Y579799D01*
X58919Y580150D01*
X56681D01*
X54519Y579571D01*
X52581Y578452D01*
X50998Y576869D01*
X49879Y574931D01*
X49300Y572769D01*
Y570531D01*
X49879Y568369D01*
X50998Y566431D01*
X52581Y564848D01*
X54519Y563729D01*
X56681Y563150D01*
X58919D01*
X60230Y563501D01*
X61500Y562572D01*
Y560728D01*
X60230Y559799D01*
X58919Y560150D01*
X56681D01*
X54519Y559571D01*
X52581Y558452D01*
X50998Y556869D01*
X49879Y554931D01*
X49300Y552769D01*
Y550531D01*
X49879Y548369D01*
X50998Y546431D01*
X52581Y544848D01*
X54519Y543729D01*
X56681Y543150D01*
X58919D01*
X60230Y543501D01*
X61500Y542572D01*
Y540728D01*
X60230Y539799D01*
X58919Y540150D01*
X58800D01*
Y531650D01*
Y523150D01*
X58919D01*
X60230Y523501D01*
X61500Y522572D01*
Y520728D01*
X60230Y519799D01*
X58919Y520150D01*
X56681D01*
X54519Y519571D01*
X52581Y518452D01*
X50998Y516869D01*
X49879Y514931D01*
X49300Y512769D01*
Y510531D01*
X49879Y508369D01*
X50540Y507224D01*
X49807Y505954D01*
X47461D01*
X45474Y507942D01*
X45721Y508369D01*
X46300Y510531D01*
Y512769D01*
X45721Y514931D01*
X44602Y516869D01*
X43019Y518452D01*
X41081Y519571D01*
X38919Y520150D01*
X36681D01*
X34519Y519571D01*
X32581Y518452D01*
X30998Y516869D01*
X29879Y514931D01*
X29300Y512769D01*
Y510531D01*
X29879Y508369D01*
X30998Y506431D01*
X32581Y504848D01*
X34519Y503729D01*
X36681Y503150D01*
X38919D01*
X41081Y503729D01*
X41509Y503976D01*
X43835Y501650D01*
X41509Y499324D01*
X41081Y499571D01*
X38919Y500150D01*
X36681D01*
X34519Y499571D01*
X32581Y498452D01*
X30998Y496869D01*
X29879Y494931D01*
X29300Y492769D01*
Y490531D01*
X29879Y488369D01*
X30998Y486431D01*
X32581Y484848D01*
X34519Y483729D01*
X36681Y483150D01*
X38919D01*
X41081Y483729D01*
X43019Y484848D01*
X44602Y486431D01*
X45721Y488369D01*
X46300Y490531D01*
Y492769D01*
X45721Y494931D01*
X45474Y495359D01*
X47461Y497346D01*
X49807D01*
X50540Y496076D01*
X49879Y494931D01*
X49300Y492769D01*
Y492650D01*
X57800D01*
Y491650D01*
X58800D01*
Y483150D01*
X58919D01*
X61081Y483729D01*
X63019Y484848D01*
X64602Y486431D01*
X65721Y488369D01*
X66062Y489642D01*
X67478Y490022D01*
X106750Y450750D01*
X116000D01*
X116245Y450159D01*
X116904Y449500D01*
X116245Y448841D01*
X115750Y447646D01*
Y446353D01*
X116245Y445159D01*
X116904Y444500D01*
X116245Y443841D01*
X115750Y442646D01*
Y441353D01*
X116245Y440159D01*
X116904Y439500D01*
X116245Y438841D01*
X115750Y437646D01*
Y436353D01*
X116245Y435159D01*
X117159Y434245D01*
X118354Y433750D01*
X119646D01*
X121111Y432982D01*
X121245Y432659D01*
X121904Y432000D01*
X121245Y431341D01*
X121111Y431018D01*
X119646Y430250D01*
X118354D01*
X117159Y429755D01*
X116245Y428841D01*
X115750Y427646D01*
Y426354D01*
X116245Y425159D01*
X117159Y424245D01*
X118354Y423750D01*
X119646D01*
X121111Y422982D01*
X121245Y422659D01*
X122159Y421745D01*
X123354Y421250D01*
X124647D01*
X124730Y421285D01*
X126000Y420436D01*
Y419000D01*
X132436D01*
X133285Y417730D01*
X133250Y417646D01*
Y416353D01*
X133572Y415577D01*
X133354Y415250D01*
X132159Y414755D01*
X131500Y414096D01*
X130841Y414755D01*
X129647Y415250D01*
X128354D01*
X127159Y414755D01*
X126500Y414096D01*
X125841Y414755D01*
X124647Y415250D01*
X123354D01*
X123129Y415157D01*
X122157Y416129D01*
X122250Y416353D01*
Y417646D01*
X121755Y418841D01*
X120841Y419755D01*
X119646Y420250D01*
X118354D01*
X117159Y419755D01*
X116245Y418841D01*
X115750Y417646D01*
Y416353D01*
X116245Y415159D01*
X117159Y414245D01*
X118354Y413750D01*
X119646D01*
X119871Y413843D01*
X120843Y412871D01*
X120750Y412646D01*
Y411353D01*
X121245Y410159D01*
X122159Y409245D01*
X122747Y409001D01*
X123118Y407577D01*
X121227Y405685D01*
X120453Y404528D01*
X120181Y403162D01*
Y389250D01*
X120453Y387884D01*
X121227Y386727D01*
X128942Y379011D01*
X128456Y377838D01*
X127500D01*
X125744Y377489D01*
X124256Y376494D01*
X123261Y375006D01*
X122912Y373250D01*
Y364250D01*
X123065Y363482D01*
X122259Y362500D01*
X105797D01*
X90273Y378023D01*
X89116Y378797D01*
X87750Y379069D01*
X80431D01*
X80091Y380339D01*
X80540Y380598D01*
X82402Y382460D01*
X83719Y384740D01*
X84400Y387284D01*
Y387600D01*
X74400D01*
X64400D01*
Y387284D01*
X65082Y384740D01*
X66398Y382460D01*
X68260Y380598D01*
X68709Y380339D01*
X68369Y379069D01*
X63578D01*
X58168Y384479D01*
X58319Y384740D01*
X59000Y387284D01*
Y389916D01*
X58319Y392460D01*
X57002Y394740D01*
X55140Y396602D01*
X52860Y397919D01*
X50317Y398600D01*
X47684D01*
X45140Y397919D01*
X42860Y396602D01*
X40998Y394740D01*
X39681Y392460D01*
X39000Y389916D01*
Y387284D01*
X39681Y384740D01*
X40998Y382460D01*
X42860Y380598D01*
X45140Y379282D01*
X47684Y378600D01*
X50317D01*
X52860Y379282D01*
X53121Y379432D01*
X59577Y372977D01*
X60734Y372203D01*
X62100Y371931D01*
X67193D01*
X67719Y370661D01*
X66398Y369340D01*
X65082Y367060D01*
X64400Y364516D01*
Y361884D01*
X65082Y359340D01*
X66398Y357060D01*
X68260Y355198D01*
X70540Y353881D01*
X73084Y353200D01*
X75717D01*
X77730Y353740D01*
X79000Y352971D01*
Y348030D01*
X77730Y347261D01*
X75717Y347800D01*
X75400D01*
Y337800D01*
Y327800D01*
X75717D01*
X77730Y328340D01*
X79000Y327570D01*
Y322630D01*
X77730Y321861D01*
X75717Y322400D01*
X73084D01*
X70540Y321718D01*
X68260Y320402D01*
X66398Y318540D01*
X65082Y316260D01*
X64400Y313717D01*
Y311084D01*
X65082Y308540D01*
X66398Y306260D01*
X68260Y304398D01*
X70540Y303081D01*
X73084Y302400D01*
X75717D01*
X77730Y302939D01*
X79000Y302171D01*
Y297229D01*
X77730Y296460D01*
X75717Y297000D01*
X73084D01*
X70540Y296318D01*
X68260Y295002D01*
X66398Y293140D01*
X66089Y292604D01*
X64819Y292944D01*
Y300150D01*
X64547Y301516D01*
X63773Y302673D01*
X58168Y308279D01*
X58319Y308540D01*
X59000Y311084D01*
Y313717D01*
X58319Y316260D01*
X57002Y318540D01*
X55140Y320402D01*
X52860Y321718D01*
X50317Y322400D01*
X47684D01*
X45140Y321718D01*
X42860Y320402D01*
X40998Y318540D01*
X39681Y316260D01*
X39000Y313717D01*
Y311084D01*
X39681Y308540D01*
X40998Y306260D01*
X42860Y304398D01*
X45140Y303081D01*
X47684Y302400D01*
X50317D01*
X52860Y303081D01*
X53121Y303232D01*
X57681Y298672D01*
Y294257D01*
X56411Y293731D01*
X55140Y295002D01*
X52860Y296318D01*
X50317Y297000D01*
X47684D01*
X45140Y296318D01*
X42860Y295002D01*
X40998Y293140D01*
X39681Y290860D01*
X39000Y288316D01*
Y285683D01*
X39681Y283140D01*
X40998Y280860D01*
X42860Y278998D01*
X45140Y277682D01*
X47684Y277000D01*
X50317D01*
X52860Y277682D01*
X55140Y278998D01*
X56411Y280269D01*
X56746Y280264D01*
X57765Y279827D01*
X57953Y278884D01*
X58727Y277727D01*
X63977Y272477D01*
X65134Y271703D01*
X66500Y271432D01*
X68889D01*
X69229Y270161D01*
X68260Y269602D01*
X66398Y267740D01*
X65082Y265460D01*
X64400Y262917D01*
Y262600D01*
X74400D01*
Y261600D01*
X75400D01*
Y251600D01*
X75717D01*
X77730Y252139D01*
X79000Y251371D01*
Y246430D01*
X77730Y245660D01*
X75717Y246200D01*
X73084D01*
X70540Y245518D01*
X68260Y244202D01*
X66839Y242781D01*
X65569Y243307D01*
Y248600D01*
X65297Y249966D01*
X64523Y251123D01*
X58168Y257479D01*
X58319Y257740D01*
X59000Y260284D01*
Y262917D01*
X58319Y265460D01*
X57002Y267740D01*
X55140Y269602D01*
X52860Y270919D01*
X50317Y271600D01*
X47684D01*
X45140Y270919D01*
X42860Y269602D01*
X40998Y267740D01*
X39681Y265460D01*
X39000Y262917D01*
Y260284D01*
X39681Y257740D01*
X40998Y255460D01*
X42860Y253598D01*
X45140Y252281D01*
X47684Y251600D01*
X50317D01*
X52860Y252281D01*
X53121Y252432D01*
X58431Y247122D01*
Y242404D01*
X57161Y242064D01*
X57002Y242340D01*
X55140Y244202D01*
X52860Y245518D01*
X50317Y246200D01*
X47684D01*
X45140Y245518D01*
X42860Y244202D01*
X40998Y242340D01*
X39681Y240060D01*
X39000Y237516D01*
Y234883D01*
X39681Y232340D01*
X40998Y230060D01*
X42860Y228198D01*
X45140Y226882D01*
X47684Y226200D01*
X50317D01*
X52860Y226882D01*
X55140Y228198D01*
X57002Y230060D01*
X57161Y230336D01*
X58431Y229996D01*
Y217004D01*
X57161Y216664D01*
X57002Y216940D01*
X55140Y218802D01*
X52860Y220119D01*
X50317Y220800D01*
X47684D01*
X45140Y220119D01*
X42860Y218802D01*
X40998Y216940D01*
X39681Y214660D01*
X39000Y212117D01*
Y209484D01*
X39681Y206940D01*
X40998Y204660D01*
X42860Y202798D01*
X45140Y201481D01*
X47684Y200800D01*
X50317D01*
X52860Y201481D01*
X55140Y202798D01*
X57002Y204660D01*
X57161Y204936D01*
X58431Y204596D01*
Y191604D01*
X57161Y191264D01*
X57002Y191540D01*
X55140Y193402D01*
X52860Y194718D01*
X50317Y195400D01*
X47684D01*
X45140Y194718D01*
X42860Y193402D01*
X40998Y191540D01*
X39681Y189260D01*
X39000Y186716D01*
Y184083D01*
X39681Y181540D01*
X40998Y179260D01*
X42860Y177398D01*
X45140Y176082D01*
X47684Y175400D01*
X50317D01*
X52860Y176082D01*
X55140Y177398D01*
X57002Y179260D01*
X57211Y179623D01*
X58550Y179402D01*
X58703Y178634D01*
X59477Y177477D01*
X68340Y168613D01*
X68260Y168002D01*
X66398Y166140D01*
X65082Y163860D01*
X64400Y161317D01*
Y161000D01*
X74400D01*
Y160000D01*
X75400D01*
Y150000D01*
X75717D01*
X77730Y150540D01*
X79000Y149770D01*
Y148250D01*
X21500D01*
Y589500D01*
X29576D01*
X29879Y588369D01*
X30998Y586431D01*
X32581Y584848D01*
X34519Y583729D01*
X36681Y583150D01*
X38919D01*
X41081Y583729D01*
X43019Y584848D01*
X44602Y586431D01*
X45721Y588369D01*
X46024Y589500D01*
X49576D01*
X49879Y588369D01*
X50998Y586431D01*
X52581Y584848D01*
X54519Y583729D01*
X56681Y583150D01*
X56800D01*
Y591650D01*
X58800D01*
Y583150D01*
D02*
G37*
G36*
X267685Y482315D02*
X267637Y481467D01*
X266388Y480495D01*
X265750Y480622D01*
X261000D01*
Y470000D01*
Y459378D01*
X265750D01*
X267230Y459672D01*
X268500Y458660D01*
Y436000D01*
X291750Y412750D01*
X291750Y289000D01*
X273250Y270500D01*
X208500Y270500D01*
X137000Y199000D01*
Y159750D01*
X129250Y152000D01*
X115266D01*
Y158551D01*
X115331Y158875D01*
Y163125D01*
X115266Y163449D01*
Y183551D01*
X115331Y183875D01*
Y188125D01*
X115266Y188449D01*
Y218016D01*
X185500Y288250D01*
X263000D01*
X276750Y302000D01*
Y407000D01*
X230500Y453250D01*
X199500Y453250D01*
X193000Y459750D01*
Y470750D01*
X207375Y485125D01*
X232375Y485125D01*
X264875D01*
X267685Y482315D01*
D02*
G37*
G36*
X157159Y409245D02*
X158354Y408750D01*
X159647D01*
X160841Y409245D01*
X161500Y409904D01*
X162159Y409245D01*
X163354Y408750D01*
X164646D01*
X165841Y409245D01*
X166743Y409065D01*
X167011Y408418D01*
X168418Y407011D01*
X170255Y406250D01*
X172245D01*
X173021Y406572D01*
X173603Y406069D01*
X173960Y405586D01*
X173669Y404125D01*
Y399875D01*
X173989Y398265D01*
X174901Y396901D01*
X176266Y395989D01*
X177875Y395669D01*
X182125D01*
X183734Y395989D01*
X185099Y396901D01*
X186011Y398265D01*
X186331Y399875D01*
Y404125D01*
X186011Y405734D01*
X185099Y407099D01*
X184535Y407476D01*
X184921Y408746D01*
X190079D01*
X190465Y407476D01*
X189901Y407099D01*
X188989Y405734D01*
X188669Y404125D01*
Y399875D01*
X188989Y398265D01*
X189901Y396901D01*
X191266Y395989D01*
X192875Y395669D01*
X197125D01*
X198734Y395989D01*
X200099Y396901D01*
X201011Y398265D01*
X201331Y399875D01*
Y402373D01*
X202601Y402899D01*
X207006Y398494D01*
X215250Y390250D01*
Y372500D01*
X205250Y362500D01*
X175297D01*
X155273Y382523D01*
X154116Y383297D01*
X152750Y383569D01*
X147032D01*
X146307Y384839D01*
X146588Y386250D01*
Y395250D01*
X146239Y397006D01*
X145244Y398494D01*
X144979Y398671D01*
X145365Y399941D01*
X148733D01*
X163837Y384837D01*
X163837Y384837D01*
X164830Y384174D01*
X166000Y383941D01*
X174206D01*
X174901Y382901D01*
X176266Y381989D01*
X177875Y381669D01*
X182125D01*
X183734Y381989D01*
X185099Y382901D01*
X186011Y384266D01*
X186331Y385875D01*
Y390125D01*
X186011Y391735D01*
X185099Y393099D01*
X183734Y394011D01*
X182125Y394331D01*
X177875D01*
X176266Y394011D01*
X174901Y393099D01*
X173989Y391735D01*
X173669Y390125D01*
Y390059D01*
X167267D01*
X152163Y405163D01*
X151171Y405826D01*
X150000Y406059D01*
X150000Y406059D01*
X143000D01*
X141830Y405826D01*
X140837Y405163D01*
X137837Y402163D01*
X137174Y401171D01*
X136941Y400000D01*
X135798Y399599D01*
X135244Y399489D01*
X133756Y398494D01*
X132761Y397006D01*
X132412Y395250D01*
Y387431D01*
X131142Y386905D01*
X127319Y390728D01*
Y401684D01*
X131523Y405889D01*
X132297Y407046D01*
X132438Y407755D01*
X133203Y408587D01*
X133796Y408750D01*
X134647D01*
X135841Y409245D01*
X136500Y409904D01*
X137159Y409245D01*
X138354Y408750D01*
X139647D01*
X140841Y409245D01*
X141500Y409904D01*
X142159Y409245D01*
X143354Y408750D01*
X144646D01*
X145841Y409245D01*
X146500Y409904D01*
X147159Y409245D01*
X148354Y408750D01*
X149647D01*
X150841Y409245D01*
X151500Y409904D01*
X152159Y409245D01*
X153354Y408750D01*
X154647D01*
X155841Y409245D01*
X156500Y409904D01*
X157159Y409245D01*
D02*
G37*
G36*
X120075Y743991D02*
X121104Y736678D01*
X125324Y737272D01*
X124295Y744585D01*
X120075Y743991D01*
D02*
G37*
G36*
X148784Y758153D02*
X149258Y751458D01*
X152924Y751717D01*
X152451Y758412D01*
X148784Y758153D01*
D02*
G37*
G36*
X165139Y755704D02*
X166521Y749637D01*
X170807Y750613D01*
X169424Y756680D01*
X165139Y755704D01*
D02*
G37*
G36*
X194591Y760354D02*
X190851Y755976D01*
X193391Y753806D01*
X197131Y758185D01*
X194591Y760354D01*
D02*
G37*
%LPC*%
G36*
X38919Y580150D02*
X36681D01*
X34519Y579571D01*
X32581Y578452D01*
X30998Y576869D01*
X29879Y574931D01*
X29300Y572769D01*
Y570531D01*
X29879Y568369D01*
X30998Y566431D01*
X32581Y564848D01*
X34519Y563729D01*
X36681Y563150D01*
X38919D01*
X41081Y563729D01*
X43019Y564848D01*
X44602Y566431D01*
X45721Y568369D01*
X46300Y570531D01*
Y572769D01*
X45721Y574931D01*
X44602Y576869D01*
X43019Y578452D01*
X41081Y579571D01*
X38919Y580150D01*
D02*
G37*
G36*
Y560150D02*
X36681D01*
X34519Y559571D01*
X32581Y558452D01*
X30998Y556869D01*
X29879Y554931D01*
X29300Y552769D01*
Y550531D01*
X29879Y548369D01*
X30998Y546431D01*
X32581Y544848D01*
X34519Y543729D01*
X36681Y543150D01*
X38919D01*
X41081Y543729D01*
X43019Y544848D01*
X44602Y546431D01*
X45721Y548369D01*
X46300Y550531D01*
Y552769D01*
X45721Y554931D01*
X44602Y556869D01*
X43019Y558452D01*
X41081Y559571D01*
X38919Y560150D01*
D02*
G37*
G36*
X56800Y540150D02*
X56681D01*
X54519Y539571D01*
X52581Y538452D01*
X50998Y536869D01*
X49879Y534931D01*
X49300Y532769D01*
Y532650D01*
X56800D01*
Y540150D01*
D02*
G37*
G36*
Y530650D02*
X49300D01*
Y530531D01*
X49879Y528369D01*
X50998Y526431D01*
X52581Y524848D01*
X54519Y523729D01*
X56681Y523150D01*
X56800D01*
Y530650D01*
D02*
G37*
G36*
X38919Y540150D02*
X36681D01*
X34519Y539571D01*
X32581Y538452D01*
X30998Y536869D01*
X29879Y534931D01*
X29300Y532769D01*
Y530531D01*
X29879Y528369D01*
X30998Y526431D01*
X32581Y524848D01*
X34519Y523729D01*
X36681Y523150D01*
X38919D01*
X41081Y523729D01*
X43019Y524848D01*
X44602Y526431D01*
X45721Y528369D01*
X46300Y530531D01*
Y532769D01*
X45721Y534931D01*
X44602Y536869D01*
X43019Y538452D01*
X41081Y539571D01*
X38919Y540150D01*
D02*
G37*
G36*
X56800Y490650D02*
X49300D01*
Y490531D01*
X49879Y488369D01*
X50998Y486431D01*
X52581Y484848D01*
X54519Y483729D01*
X56681Y483150D01*
X56800D01*
Y490650D01*
D02*
G37*
G36*
X38919Y480150D02*
X38800D01*
Y472650D01*
X46300D01*
Y472769D01*
X45721Y474931D01*
X44602Y476869D01*
X43019Y478452D01*
X41081Y479571D01*
X38919Y480150D01*
D02*
G37*
G36*
X36800D02*
X36681D01*
X34519Y479571D01*
X32581Y478452D01*
X30998Y476869D01*
X29879Y474931D01*
X29300Y472769D01*
Y472650D01*
X36800D01*
Y480150D01*
D02*
G37*
G36*
X58919D02*
X56681D01*
X54519Y479571D01*
X52581Y478452D01*
X50998Y476869D01*
X49879Y474931D01*
X49300Y472769D01*
Y470531D01*
X49879Y468369D01*
X50998Y466431D01*
X52581Y464848D01*
X54519Y463729D01*
X56681Y463150D01*
X58919D01*
X61081Y463729D01*
X63019Y464848D01*
X64602Y466431D01*
X65721Y468369D01*
X66300Y470531D01*
Y472769D01*
X65721Y474931D01*
X64602Y476869D01*
X63019Y478452D01*
X61081Y479571D01*
X58919Y480150D01*
D02*
G37*
G36*
X46300Y470650D02*
X38800D01*
Y463150D01*
X38919D01*
X41081Y463729D01*
X43019Y464848D01*
X44602Y466431D01*
X45721Y468369D01*
X46300Y470531D01*
Y470650D01*
D02*
G37*
G36*
X36800D02*
X29300D01*
Y470531D01*
X29879Y468369D01*
X30998Y466431D01*
X32581Y464848D01*
X34519Y463729D01*
X36681Y463150D01*
X36800D01*
Y470650D01*
D02*
G37*
G36*
X58919Y460150D02*
X58800D01*
Y452650D01*
X66300D01*
Y452769D01*
X65721Y454931D01*
X64602Y456869D01*
X63019Y458452D01*
X61081Y459571D01*
X58919Y460150D01*
D02*
G37*
G36*
X56800D02*
X56681D01*
X54519Y459571D01*
X52581Y458452D01*
X50998Y456869D01*
X49879Y454931D01*
X49300Y452769D01*
Y452650D01*
X56800D01*
Y460150D01*
D02*
G37*
G36*
X66300Y450650D02*
X58800D01*
Y443150D01*
X58919D01*
X61081Y443729D01*
X63019Y444848D01*
X64602Y446431D01*
X65721Y448369D01*
X66300Y450531D01*
Y450650D01*
D02*
G37*
G36*
X56800D02*
X49300D01*
Y450531D01*
X49879Y448369D01*
X50998Y446431D01*
X52581Y444848D01*
X54519Y443729D01*
X56681Y443150D01*
X56800D01*
Y450650D01*
D02*
G37*
G36*
X38919Y460150D02*
X36681D01*
X34519Y459571D01*
X32581Y458452D01*
X30998Y456869D01*
X29879Y454931D01*
X29300Y452769D01*
Y450531D01*
X29879Y448369D01*
X30998Y446431D01*
X32581Y444848D01*
X34519Y443729D01*
X36681Y443150D01*
X38919D01*
X41081Y443729D01*
X43019Y444848D01*
X44602Y446431D01*
X45721Y448369D01*
X46300Y450531D01*
Y452769D01*
X45721Y454931D01*
X44602Y456869D01*
X43019Y458452D01*
X41081Y459571D01*
X38919Y460150D01*
D02*
G37*
G36*
X41050Y440253D02*
X38800D01*
Y432650D01*
X46403D01*
Y434900D01*
X45995Y436948D01*
X44835Y438685D01*
X43098Y439845D01*
X41050Y440253D01*
D02*
G37*
G36*
X36800D02*
X34550D01*
X32502Y439845D01*
X30765Y438685D01*
X29605Y436948D01*
X29197Y434900D01*
Y432650D01*
X36800D01*
Y440253D01*
D02*
G37*
G36*
X58919Y440150D02*
X56681D01*
X54519Y439571D01*
X52581Y438452D01*
X50998Y436869D01*
X49879Y434931D01*
X49300Y432769D01*
Y430531D01*
X49879Y428369D01*
X50998Y426431D01*
X52581Y424848D01*
X54519Y423729D01*
X56681Y423150D01*
X58919D01*
X61081Y423729D01*
X63019Y424848D01*
X64602Y426431D01*
X65721Y428369D01*
X66300Y430531D01*
Y432769D01*
X65721Y434931D01*
X64602Y436869D01*
X63019Y438452D01*
X61081Y439571D01*
X58919Y440150D01*
D02*
G37*
G36*
X46403Y430650D02*
X38800D01*
Y423047D01*
X41050D01*
X43098Y423455D01*
X44835Y424615D01*
X45995Y426352D01*
X46403Y428400D01*
Y430650D01*
D02*
G37*
G36*
X36800D02*
X29197D01*
Y428400D01*
X29605Y426352D01*
X30765Y424615D01*
X32502Y423455D01*
X34550Y423047D01*
X36800D01*
Y430650D01*
D02*
G37*
G36*
X75717Y398600D02*
X75400D01*
Y389600D01*
X84400D01*
Y389916D01*
X83719Y392460D01*
X82402Y394740D01*
X80540Y396602D01*
X78260Y397919D01*
X75717Y398600D01*
D02*
G37*
G36*
X73400D02*
X73084D01*
X70540Y397919D01*
X68260Y396602D01*
X66398Y394740D01*
X65082Y392460D01*
X64400Y389916D01*
Y389600D01*
X73400D01*
Y398600D01*
D02*
G37*
G36*
X50317Y373200D02*
X47684D01*
X45140Y372519D01*
X42860Y371202D01*
X40998Y369340D01*
X39681Y367060D01*
X39000Y364516D01*
Y361884D01*
X39681Y359340D01*
X40998Y357060D01*
X42860Y355198D01*
X45140Y353881D01*
X47684Y353200D01*
X50317D01*
X52860Y353881D01*
X55140Y355198D01*
X57002Y357060D01*
X58319Y359340D01*
X59000Y361884D01*
Y364516D01*
X58319Y367060D01*
X57002Y369340D01*
X55140Y371202D01*
X52860Y372519D01*
X50317Y373200D01*
D02*
G37*
G36*
X73400Y347800D02*
X73084D01*
X70540Y347118D01*
X68260Y345802D01*
X66398Y343940D01*
X65082Y341660D01*
X64400Y339117D01*
Y338800D01*
X73400D01*
Y347800D01*
D02*
G37*
G36*
Y336800D02*
X64400D01*
Y336483D01*
X65082Y333940D01*
X66398Y331660D01*
X68260Y329798D01*
X70540Y328481D01*
X73084Y327800D01*
X73400D01*
Y336800D01*
D02*
G37*
G36*
X50317Y347800D02*
X47684D01*
X45140Y347118D01*
X42860Y345802D01*
X40998Y343940D01*
X39681Y341660D01*
X39000Y339117D01*
Y336483D01*
X39681Y333940D01*
X40998Y331660D01*
X42860Y329798D01*
X45140Y328481D01*
X47684Y327800D01*
X50317D01*
X52860Y328481D01*
X55140Y329798D01*
X57002Y331660D01*
X58319Y333940D01*
X59000Y336483D01*
Y339117D01*
X58319Y341660D01*
X57002Y343940D01*
X55140Y345802D01*
X52860Y347118D01*
X50317Y347800D01*
D02*
G37*
G36*
X73400Y260600D02*
X64400D01*
Y260284D01*
X65082Y257740D01*
X66398Y255460D01*
X68260Y253598D01*
X70540Y252281D01*
X73084Y251600D01*
X73400D01*
Y260600D01*
D02*
G37*
G36*
Y159000D02*
X64400D01*
Y158684D01*
X65082Y156140D01*
X66398Y153860D01*
X68260Y151998D01*
X70540Y150681D01*
X73084Y150000D01*
X73400D01*
Y159000D01*
D02*
G37*
G36*
X53000Y170117D02*
X45000D01*
X42659Y169652D01*
X40674Y168326D01*
X39348Y166341D01*
X38883Y164000D01*
Y156000D01*
X39348Y153659D01*
X40674Y151674D01*
X42659Y150348D01*
X45000Y149882D01*
X53000D01*
X55341Y150348D01*
X57326Y151674D01*
X58652Y153659D01*
X59117Y156000D01*
Y164000D01*
X58652Y166341D01*
X57326Y168326D01*
X55341Y169652D01*
X53000Y170117D01*
D02*
G37*
G36*
X259000Y480622D02*
X254250D01*
X251811Y480137D01*
X249744Y478756D01*
X248363Y476689D01*
X247878Y474250D01*
Y471000D01*
X259000D01*
Y480622D01*
D02*
G37*
G36*
Y469000D02*
X247878D01*
Y465750D01*
X248363Y463311D01*
X249744Y461244D01*
X251811Y459863D01*
X254250Y459378D01*
X259000D01*
Y469000D01*
D02*
G37*
G36*
X125125Y192331D02*
X124000D01*
Y187000D01*
X129331D01*
Y188125D01*
X129011Y189734D01*
X128099Y191099D01*
X126735Y192011D01*
X125125Y192331D01*
D02*
G37*
G36*
X122000D02*
X120875D01*
X119265Y192011D01*
X117901Y191099D01*
X116989Y189734D01*
X116669Y188125D01*
Y187000D01*
X122000D01*
Y192331D01*
D02*
G37*
G36*
X129331Y185000D02*
X124000D01*
Y179669D01*
X125125D01*
X126735Y179989D01*
X128099Y180901D01*
X129011Y182265D01*
X129331Y183875D01*
Y185000D01*
D02*
G37*
G36*
X122000D02*
X116669D01*
Y183875D01*
X116989Y182265D01*
X117901Y180901D01*
X119265Y179989D01*
X120875Y179669D01*
X122000D01*
Y185000D01*
D02*
G37*
G36*
X125125Y167331D02*
X124000D01*
Y162000D01*
X129331D01*
Y163125D01*
X129011Y164734D01*
X128099Y166099D01*
X126735Y167011D01*
X125125Y167331D01*
D02*
G37*
G36*
X122000D02*
X120875D01*
X119265Y167011D01*
X117901Y166099D01*
X116989Y164734D01*
X116669Y163125D01*
Y162000D01*
X122000D01*
Y167331D01*
D02*
G37*
G36*
X129331Y160000D02*
X124000D01*
Y154669D01*
X125125D01*
X126735Y154989D01*
X128099Y155901D01*
X129011Y157266D01*
X129331Y158875D01*
Y160000D01*
D02*
G37*
G36*
X122000D02*
X116669D01*
Y158875D01*
X116989Y157266D01*
X117901Y155901D01*
X119265Y154989D01*
X120875Y154669D01*
X122000D01*
Y160000D01*
D02*
G37*
G36*
X197125Y394331D02*
X196000D01*
Y389000D01*
X201331D01*
Y390125D01*
X201011Y391735D01*
X200099Y393099D01*
X198734Y394011D01*
X197125Y394331D01*
D02*
G37*
G36*
X194000D02*
X192875D01*
X191266Y394011D01*
X189901Y393099D01*
X188989Y391735D01*
X188669Y390125D01*
Y389000D01*
X194000D01*
Y394331D01*
D02*
G37*
G36*
X201331Y387000D02*
X196000D01*
Y381669D01*
X197125D01*
X198734Y381989D01*
X200099Y382901D01*
X201011Y384266D01*
X201331Y385875D01*
Y387000D01*
D02*
G37*
G36*
X194000D02*
X188669D01*
Y385875D01*
X188989Y384266D01*
X189901Y382901D01*
X191266Y381989D01*
X192875Y381669D01*
X194000D01*
Y387000D01*
D02*
G37*
%LPD*%
D10*
X195000Y411804D02*
X200196D01*
X180445D02*
X195000D01*
Y402000D02*
Y411804D01*
X222000Y390000D02*
X260000D01*
X200196Y411804D02*
X222000Y390000D01*
X180445Y411804D02*
Y418445D01*
Y405164D02*
Y411804D01*
Y418445D02*
X184000Y422000D01*
X180445Y405164D02*
X180750Y404859D01*
Y404250D02*
Y404859D01*
X150000Y403000D02*
X166000Y387000D01*
X181566D01*
X124000Y429500D02*
X136500D01*
X184000Y462000D02*
X195000D01*
X139250Y390750D02*
Y391000D01*
X144960Y486000D02*
X145374Y485586D01*
Y483626D02*
X149000Y480000D01*
Y477000D02*
Y480000D01*
X143000Y486000D02*
X144960D01*
X145374Y483626D02*
Y485586D01*
X129000Y408412D02*
Y412000D01*
X124000Y477000D02*
Y482000D01*
X143000Y403000D02*
X150000D01*
X140000Y400000D02*
X143000Y403000D01*
X139500Y390750D02*
X140000Y391250D01*
Y400000D01*
X184000Y417000D02*
X187250D01*
X139250Y391000D02*
X139500Y390750D01*
X157000Y488750D02*
X166125D01*
X196500Y434250D02*
Y443250D01*
X171404Y416904D02*
X171500Y417000D01*
X171404Y411404D02*
Y416904D01*
X171250Y411250D02*
X171404Y411404D01*
X166500Y422418D02*
X169500Y425418D01*
X166500Y417000D02*
Y422418D01*
X169500Y425418D02*
Y426500D01*
X136500Y429500D02*
X151500Y444500D01*
D14*
X174553Y711676D02*
X194905Y691065D01*
X171896Y718602D02*
X174553Y711676D01*
X173006Y718720D02*
X178443Y728922D01*
X166148Y733587D02*
X171003Y737956D01*
X172306Y717534D02*
X173006Y718720D01*
X173711Y732941D02*
X178443Y728922D01*
X166148Y733587D02*
X171896Y718602D01*
X194905Y691065D02*
X195771Y675996D01*
X157738Y695724D02*
X162330Y698957D01*
X160676Y702701D02*
X166961Y709973D01*
X160676Y702701D02*
X162330Y698957D01*
X158936Y707202D02*
X162920Y714014D01*
X166961Y709973D01*
X161361Y732028D02*
X162920Y714014D01*
X161361Y732028D02*
X166615Y738840D01*
X122646Y737087D02*
X124468Y722732D01*
X180041Y740401D02*
X188669D01*
X165824Y745942D02*
X166615Y738840D01*
X168318Y750046D02*
X171003Y737956D01*
X173711Y732941D02*
X192258Y754799D01*
X140432Y722675D02*
X141121Y734678D01*
X151028Y751635D02*
X152123Y731162D01*
X147100Y727005D02*
X152123Y731162D01*
X188669Y740401D02*
X203129Y755328D01*
X136249Y738166D02*
X136952Y749076D01*
X136249Y738166D02*
X141121Y734678D01*
X151484Y743112D02*
X155472Y745942D01*
X147100Y727005D02*
X149641Y716497D01*
X154783Y763909D02*
X155472Y745942D01*
X124468Y722732D02*
X129549Y722444D01*
X117049Y683963D02*
X140432Y722675D01*
X136477Y708876D02*
X149641Y716497D01*
X152066Y710088D01*
X129549Y722444D02*
X136477Y708876D01*
X152066Y710088D02*
X154721Y712109D01*
X158936Y707202D01*
X117049Y683963D02*
X130819Y660841D01*
X176621Y655304D02*
X195771Y675996D01*
X130819Y660841D02*
X176621Y655304D01*
D16*
X109000Y161000D02*
D03*
X123000D02*
D03*
X129500Y350500D02*
D03*
X143500D02*
D03*
X123000Y186000D02*
D03*
X109000D02*
D03*
X157000Y488750D02*
D03*
X143000Y488750D02*
D03*
D17*
X131500Y472000D02*
D03*
X136500D02*
D03*
X141500D02*
D03*
X146500D02*
D03*
X151500D02*
D03*
X156500D02*
D03*
X161500D02*
D03*
X124000Y477000D02*
D03*
X129000D02*
D03*
X134000D02*
D03*
X139000D02*
D03*
X144000D02*
D03*
X149000D02*
D03*
X154000D02*
D03*
X159000D02*
D03*
X164000D02*
D03*
X169000D02*
D03*
X171500Y472000D02*
D03*
X174000Y477000D02*
D03*
X179000D02*
D03*
Y469500D02*
D03*
Y464500D02*
D03*
X184000Y462000D02*
D03*
X179000Y454500D02*
D03*
Y449500D02*
D03*
Y444500D02*
D03*
Y439500D02*
D03*
X184000Y457000D02*
D03*
Y452000D02*
D03*
Y447000D02*
D03*
Y442000D02*
D03*
Y437000D02*
D03*
X179000Y434500D02*
D03*
X184000Y432000D02*
D03*
X179000Y429500D02*
D03*
Y424500D02*
D03*
X184000Y422000D02*
D03*
X119000Y417000D02*
D03*
X136500D02*
D03*
X141500D02*
D03*
X146500D02*
D03*
X151500D02*
D03*
X156500D02*
D03*
X161500D02*
D03*
X166500D02*
D03*
X171500D02*
D03*
X176500D02*
D03*
X124000Y412000D02*
D03*
X129000D02*
D03*
X134000D02*
D03*
X139000D02*
D03*
X144000D02*
D03*
X149000D02*
D03*
X154000D02*
D03*
X159000D02*
D03*
X124000Y464500D02*
D03*
X119000Y462000D02*
D03*
X124000Y459500D02*
D03*
X119000Y457000D02*
D03*
X124000Y454500D02*
D03*
X119000Y452000D02*
D03*
X124000Y449500D02*
D03*
X119000Y447000D02*
D03*
Y442000D02*
D03*
Y437000D02*
D03*
X124000Y434500D02*
D03*
Y429500D02*
D03*
X119000Y427000D02*
D03*
X124000Y424500D02*
D03*
X184000Y417000D02*
D03*
X119000Y472000D02*
D03*
Y467000D02*
D03*
X164000Y412000D02*
D03*
D18*
X180000Y402000D02*
D03*
Y388000D02*
D03*
X195000D02*
D03*
Y402000D02*
D03*
X196500Y420250D02*
D03*
Y434250D02*
D03*
D19*
X130000Y368750D02*
D03*
X149000D02*
D03*
X139500Y390750D02*
D03*
D32*
X282000Y439250D02*
D03*
X28250Y670500D02*
D03*
X210000Y20000D02*
D03*
D33*
X151500Y444500D02*
D03*
D34*
X219000Y470000D02*
Y474500D01*
X145000Y499250D02*
X194250D01*
X219000Y474500D01*
X112750Y329750D02*
Y350500D01*
X132500Y310000D02*
X260000D01*
X112750Y329750D02*
X132500Y310000D01*
X62100Y375500D02*
X87750D01*
X112750Y350500D02*
X129500D01*
X87750Y375500D02*
X112750Y350500D01*
X153250Y354250D02*
X153250D01*
X149000Y358500D02*
X153250Y354250D01*
X153250D02*
X153750D01*
X195000Y462000D02*
X203000Y470000D01*
X219000D01*
X283250Y362000D02*
Y410750D01*
X174750Y358000D02*
X279250D01*
X283250Y362000D01*
X133000Y380000D02*
X152750D01*
X174750Y358000D01*
X123750Y389250D02*
Y403162D01*
Y389250D02*
X133000Y380000D01*
X123750Y403162D02*
X129000Y408412D01*
X260000Y434000D02*
X283250Y410750D01*
X49000Y388600D02*
X62100Y375500D01*
X129500Y350500D02*
Y368250D01*
X130000Y368750D01*
X61250Y280250D02*
Y300150D01*
X66500Y275000D02*
X79250D01*
X61250Y280250D02*
X66500Y275000D01*
X49000Y312400D02*
X61250Y300150D01*
X79250Y275000D02*
X89500Y264750D01*
Y192250D02*
Y264750D01*
Y192250D02*
X95750Y186000D01*
X109000D01*
X49000Y261600D02*
X62000Y248600D01*
Y180000D02*
Y248600D01*
Y180000D02*
X71250Y170750D01*
X101000Y161000D02*
X109000D01*
X71250Y170750D02*
X91250D01*
X101000Y161000D01*
X260000Y434000D02*
Y470000D01*
X219000Y430000D02*
Y470000D01*
X260000D01*
X209250Y420250D02*
X219000Y430000D01*
X196500Y420250D02*
X209250D01*
X196422Y420172D02*
X196500Y420250D01*
X130750Y488750D02*
X143000D01*
X124000Y482000D02*
X130750Y488750D01*
X187250Y417000D02*
X190422Y420172D01*
X196422D01*
X149000Y358500D02*
Y368750D01*
X143500Y350500D02*
X143750Y350250D01*
X149250D01*
X153250Y354250D01*
X143000Y497250D02*
X145000Y499250D01*
X143000Y488750D02*
Y497250D01*
D35*
X119000Y467000D02*
X122750Y470750D01*
X62500Y500150D02*
X90650Y472000D01*
X119000D01*
X37800Y511650D02*
X46300Y503150D01*
X38400Y511650D02*
Y511650D01*
X37800Y491650D02*
X46300Y500150D01*
X62500D01*
X64600Y503150D02*
X92250Y475500D01*
X46300Y503150D02*
X64600D01*
X120096Y475500D02*
X122750Y472846D01*
Y470750D02*
Y472846D01*
X92250Y475500D02*
X120096D01*
D36*
X260000Y550000D02*
D03*
Y230000D02*
D03*
Y390000D02*
D03*
Y470000D02*
D03*
Y310000D02*
D03*
D37*
X37800Y471650D02*
D03*
X57800Y451650D02*
D03*
Y611650D02*
D03*
X37800D02*
D03*
X57800Y591650D02*
D03*
X37800D02*
D03*
X57800Y571650D02*
D03*
X37800D02*
D03*
X57800Y551650D02*
D03*
X37800D02*
D03*
X57800Y531650D02*
D03*
X37800D02*
D03*
X57800Y511650D02*
D03*
X37800D02*
D03*
X57800Y491650D02*
D03*
X37800D02*
D03*
X57800Y471650D02*
D03*
X37800Y451650D02*
D03*
X57800Y431650D02*
D03*
D38*
X37800D02*
D03*
D39*
X74400Y160000D02*
D03*
X49000Y185400D02*
D03*
X74400D02*
D03*
X49000Y210800D02*
D03*
X74400D02*
D03*
X49000Y236200D02*
D03*
X74400D02*
D03*
X49000Y261600D02*
D03*
X74400D02*
D03*
X49000Y287000D02*
D03*
X74400D02*
D03*
X49000Y312400D02*
D03*
X74400D02*
D03*
X49000Y337800D02*
D03*
X74400D02*
D03*
X49000Y363200D02*
D03*
X74400D02*
D03*
X49000Y388600D02*
D03*
X74400D02*
D03*
D40*
X49000Y160000D02*
D03*
D41*
X169500Y462500D02*
D03*
X157500D02*
D03*
X145500D02*
D03*
X133500D02*
D03*
Y450500D02*
D03*
X145500D02*
D03*
X157500D02*
D03*
X169500D02*
D03*
Y438500D02*
D03*
X157500D02*
D03*
X145500D02*
D03*
X133500D02*
D03*
Y426500D02*
D03*
X145500D02*
D03*
X157500D02*
D03*
X169500D02*
D03*
X27250Y321250D02*
D03*
X30250Y157500D02*
D03*
X27500Y581250D02*
D03*
X211963Y385161D02*
D03*
X208500Y371000D02*
D03*
X176500D02*
D03*
X151500Y389750D02*
D03*
X71250Y478750D02*
D03*
X72750Y453500D02*
D03*
X108500Y445500D02*
D03*
X71500Y425250D02*
D03*
X52000Y409750D02*
D03*
X104750Y421250D02*
D03*
X116750Y368250D02*
D03*
X116000Y396500D02*
D03*
X129750Y395250D02*
D03*
X169500Y402750D02*
D03*
X153750Y354250D02*
D03*
X166125Y488750D02*
D03*
X196500Y443250D02*
D03*
X171250Y411250D02*
D03*
M02*
