G04*
G04 #@! TF.GenerationSoftware,Altium Limited,Altium Designer,23.3.1 (30)*
G04*
G04 Layer_Color=8421504*
%FSLAX44Y44*%
%MOMM*%
G71*
G04*
G04 #@! TF.SameCoordinates,3F57623D-7EA3-4023-A88F-E5603923C6E2*
G04*
G04*
G04 #@! TF.FilePolarity,Positive*
G04*
G01*
G75*
G04:AMPARAMS|DCode=16|XSize=0.85mm|YSize=0.85mm|CornerRadius=0.2125mm|HoleSize=0mm|Usage=FLASHONLY|Rotation=270.000|XOffset=0mm|YOffset=0mm|HoleType=Round|Shape=RoundedRectangle|*
%AMROUNDEDRECTD16*
21,1,0.8500,0.4250,0,0,270.0*
21,1,0.4250,0.8500,0,0,270.0*
1,1,0.4250,-0.2125,-0.2125*
1,1,0.4250,-0.2125,0.2125*
1,1,0.4250,0.2125,0.2125*
1,1,0.4250,0.2125,-0.2125*
%
%ADD16ROUNDEDRECTD16*%
%ADD17C,0.2500*%
G04:AMPARAMS|DCode=18|XSize=0.85mm|YSize=0.85mm|CornerRadius=0.2125mm|HoleSize=0mm|Usage=FLASHONLY|Rotation=180.000|XOffset=0mm|YOffset=0mm|HoleType=Round|Shape=RoundedRectangle|*
%AMROUNDEDRECTD18*
21,1,0.8500,0.4250,0,0,180.0*
21,1,0.4250,0.8500,0,0,180.0*
1,1,0.4250,-0.2125,0.2125*
1,1,0.4250,0.2125,0.2125*
1,1,0.4250,0.2125,-0.2125*
1,1,0.4250,-0.2125,-0.2125*
%
%ADD18ROUNDEDRECTD18*%
G04:AMPARAMS|DCode=19|XSize=1mm|YSize=1.4mm|CornerRadius=0.25mm|HoleSize=0mm|Usage=FLASHONLY|Rotation=0.000|XOffset=0mm|YOffset=0mm|HoleType=Round|Shape=RoundedRectangle|*
%AMROUNDEDRECTD19*
21,1,1.0000,0.9000,0,0,0.0*
21,1,0.5000,1.4000,0,0,0.0*
1,1,0.5000,0.2500,-0.4500*
1,1,0.5000,-0.2500,-0.4500*
1,1,0.5000,-0.2500,0.4500*
1,1,0.5000,0.2500,0.4500*
%
%ADD19ROUNDEDRECTD19*%
G36*
X130750Y440950D02*
X147950D01*
Y423750D01*
X130750D01*
Y440950D01*
D02*
G37*
G36*
Y465250D02*
X147950D01*
Y448050D01*
X130750D01*
Y465250D01*
D02*
G37*
G36*
X155050Y440950D02*
X172250D01*
Y423750D01*
X155050D01*
Y440950D01*
D02*
G37*
G36*
Y465250D02*
X172250D01*
Y448050D01*
X155050D01*
Y465250D01*
D02*
G37*
D16*
X109000Y161000D02*
D03*
X123000D02*
D03*
X129500Y350500D02*
D03*
X143500D02*
D03*
X123000Y186000D02*
D03*
X109000D02*
D03*
X157000Y488750D02*
D03*
X143000Y488750D02*
D03*
D17*
X131500Y472000D02*
D03*
X136500D02*
D03*
X141500D02*
D03*
X146500D02*
D03*
X151500D02*
D03*
X156500D02*
D03*
X161500D02*
D03*
X124000Y477000D02*
D03*
X129000D02*
D03*
X134000D02*
D03*
X139000D02*
D03*
X144000D02*
D03*
X149000D02*
D03*
X154000D02*
D03*
X159000D02*
D03*
X164000D02*
D03*
X169000D02*
D03*
X171500Y472000D02*
D03*
X174000Y477000D02*
D03*
X179000D02*
D03*
Y469500D02*
D03*
Y464500D02*
D03*
X184000Y462000D02*
D03*
X179000Y454500D02*
D03*
Y449500D02*
D03*
Y444500D02*
D03*
Y439500D02*
D03*
X184000Y457000D02*
D03*
Y452000D02*
D03*
Y447000D02*
D03*
Y442000D02*
D03*
Y437000D02*
D03*
X179000Y434500D02*
D03*
X184000Y432000D02*
D03*
X179000Y429500D02*
D03*
Y424500D02*
D03*
X184000Y422000D02*
D03*
X119000Y417000D02*
D03*
X136500D02*
D03*
X141500D02*
D03*
X146500D02*
D03*
X151500D02*
D03*
X156500D02*
D03*
X161500D02*
D03*
X166500D02*
D03*
X171500D02*
D03*
X176500D02*
D03*
X124000Y412000D02*
D03*
X129000D02*
D03*
X134000D02*
D03*
X139000D02*
D03*
X144000D02*
D03*
X149000D02*
D03*
X154000D02*
D03*
X159000D02*
D03*
X124000Y464500D02*
D03*
X119000Y462000D02*
D03*
X124000Y459500D02*
D03*
X119000Y457000D02*
D03*
X124000Y454500D02*
D03*
X119000Y452000D02*
D03*
X124000Y449500D02*
D03*
X119000Y447000D02*
D03*
Y442000D02*
D03*
Y437000D02*
D03*
X124000Y434500D02*
D03*
Y429500D02*
D03*
X119000Y427000D02*
D03*
X124000Y424500D02*
D03*
X184000Y417000D02*
D03*
X119000Y472000D02*
D03*
Y467000D02*
D03*
X164000Y412000D02*
D03*
D18*
X180000Y402000D02*
D03*
Y388000D02*
D03*
X195000D02*
D03*
Y402000D02*
D03*
X196500Y420250D02*
D03*
Y434250D02*
D03*
D19*
X130000Y368750D02*
D03*
X149000D02*
D03*
X139500Y390750D02*
D03*
M02*
