G04*
G04 #@! TF.GenerationSoftware,Altium Limited,Altium Designer,23.3.1 (30)*
G04*
G04 Layer_Physical_Order=2*
G04 Layer_Color=16711680*
%FSLAX44Y44*%
%MOMM*%
G71*
G04*
G04 #@! TF.SameCoordinates,41E75030-AC82-498C-80ED-DFD746C42E25*
G04*
G04*
G04 #@! TF.FilePolarity,Positive*
G04*
G01*
G75*
%ADD10C,0.2000*%
G04:AMPARAMS|DCode=27|XSize=1.7mm|YSize=2mm|CornerRadius=0.425mm|HoleSize=0mm|Usage=FLASHONLY|Rotation=90.000|XOffset=0mm|YOffset=0mm|HoleType=Round|Shape=RoundedRectangle|*
%AMROUNDEDRECTD27*
21,1,1.7000,1.1500,0,0,90.0*
21,1,0.8500,2.0000,0,0,90.0*
1,1,0.8500,0.5750,0.4250*
1,1,0.8500,0.5750,-0.4250*
1,1,0.8500,-0.5750,-0.4250*
1,1,0.8500,-0.5750,0.4250*
%
%ADD27ROUNDEDRECTD27*%
%ADD28C,1.3000*%
G04:AMPARAMS|DCode=29|XSize=1.3mm|YSize=1.3mm|CornerRadius=0.325mm|HoleSize=0mm|Usage=FLASHONLY|Rotation=90.000|XOffset=0mm|YOffset=0mm|HoleType=Round|Shape=RoundedRectangle|*
%AMROUNDEDRECTD29*
21,1,1.3000,0.6500,0,0,90.0*
21,1,0.6500,1.3000,0,0,90.0*
1,1,0.6500,0.3250,0.3250*
1,1,0.6500,0.3250,-0.3250*
1,1,0.6500,-0.3250,-0.3250*
1,1,0.6500,-0.3250,0.3250*
%
%ADD29ROUNDEDRECTD29*%
%ADD30C,1.6000*%
G04:AMPARAMS|DCode=31|XSize=1.6mm|YSize=1.6mm|CornerRadius=0.4mm|HoleSize=0mm|Usage=FLASHONLY|Rotation=90.000|XOffset=0mm|YOffset=0mm|HoleType=Round|Shape=RoundedRectangle|*
%AMROUNDEDRECTD31*
21,1,1.6000,0.8000,0,0,90.0*
21,1,0.8000,1.6000,0,0,90.0*
1,1,0.8000,0.4000,0.4000*
1,1,0.8000,0.4000,-0.4000*
1,1,0.8000,-0.4000,-0.4000*
1,1,0.8000,-0.4000,0.4000*
%
%ADD31ROUNDEDRECTD31*%
%ADD32C,0.7000*%
G36*
X42499Y767451D02*
X42500Y767451D01*
X265000Y767451D01*
X265000Y767451D01*
X266239Y767376D01*
X269873Y767090D01*
X270181Y767049D01*
X275035Y765884D01*
X279743Y763934D01*
X283999Y761326D01*
X284245Y761136D01*
X287749Y758144D01*
X288144Y757749D01*
X291136Y754246D01*
X291326Y753998D01*
X293934Y749743D01*
X295884Y745035D01*
X297049Y740181D01*
X297090Y739873D01*
X297451Y735280D01*
Y735000D01*
X297451Y735000D01*
X297451Y35000D01*
X297451Y34999D01*
Y34721D01*
X297090Y30127D01*
X297049Y29819D01*
X295884Y24965D01*
X293934Y20257D01*
X291325Y16001D01*
X291137Y15755D01*
X288144Y12251D01*
X287749Y11856D01*
X284244Y8863D01*
X283999Y8675D01*
X279743Y6066D01*
X275035Y4116D01*
X270180Y2951D01*
X269875Y2911D01*
X266258Y2626D01*
X265000Y2549D01*
X265000Y2549D01*
X263764Y2549D01*
X42501Y2549D01*
X42500Y2549D01*
X42500Y2549D01*
X42499Y2549D01*
X42221D01*
X37626Y2910D01*
X37320Y2951D01*
X32465Y4116D01*
X27757Y6066D01*
X23501Y8675D01*
X23256Y8863D01*
X19750Y11857D01*
X19357Y12250D01*
X16363Y15756D01*
X16175Y16001D01*
X13566Y20257D01*
X11616Y24965D01*
X10451Y29820D01*
X10410Y30125D01*
X10125Y33750D01*
X10049Y35000D01*
X10049Y35000D01*
X10049Y36248D01*
Y735000D01*
X10049Y735000D01*
X10124Y736239D01*
X10410Y739874D01*
X10451Y740181D01*
X11616Y745035D01*
X13566Y749743D01*
X16175Y753999D01*
X16363Y754245D01*
X19356Y757749D01*
X19751Y758144D01*
X23256Y761137D01*
X23501Y761325D01*
X27757Y763934D01*
X32465Y765884D01*
X37319Y767049D01*
X37627Y767090D01*
X42220Y767451D01*
X42499D01*
D02*
G37*
%LPC*%
G36*
X261970Y750000D02*
X258030D01*
X254166Y749231D01*
X250526Y747724D01*
X247251Y745535D01*
X244465Y742749D01*
X242276Y739473D01*
X240769Y735834D01*
X240000Y731970D01*
Y728030D01*
X240769Y724166D01*
X242276Y720526D01*
X244465Y717251D01*
X247251Y714465D01*
X250526Y712276D01*
X254166Y710769D01*
X258030Y710000D01*
X261970D01*
X265834Y710769D01*
X269473Y712276D01*
X272749Y714465D01*
X275535Y717251D01*
X277724Y720526D01*
X279231Y724166D01*
X280000Y728030D01*
Y731970D01*
X279231Y735834D01*
X277724Y739473D01*
X275535Y742749D01*
X272749Y745535D01*
X269473Y747724D01*
X265834Y749231D01*
X261970Y750000D01*
D02*
G37*
G36*
X49470D02*
X45530D01*
X41666Y749231D01*
X38026Y747724D01*
X34751Y745535D01*
X31965Y742749D01*
X29776Y739473D01*
X28269Y735834D01*
X27500Y731970D01*
Y728030D01*
X28269Y724166D01*
X29776Y720526D01*
X31965Y717251D01*
X34751Y714465D01*
X38026Y712276D01*
X41666Y710769D01*
X45530Y710000D01*
X49470D01*
X53334Y710769D01*
X56974Y712276D01*
X60249Y714465D01*
X63035Y717251D01*
X65224Y720526D01*
X66731Y724166D01*
X67500Y728030D01*
Y731970D01*
X66731Y735834D01*
X65224Y739473D01*
X63035Y742749D01*
X60249Y745535D01*
X56974Y747724D01*
X53334Y749231D01*
X49470Y750000D01*
D02*
G37*
G36*
X58919Y620150D02*
X56681D01*
X54519Y619571D01*
X52581Y618452D01*
X50998Y616869D01*
X49879Y614931D01*
X49300Y612769D01*
Y610531D01*
X49879Y608369D01*
X50998Y606431D01*
X52581Y604848D01*
X54519Y603729D01*
X56681Y603150D01*
X58919D01*
X61081Y603729D01*
X63019Y604848D01*
X64602Y606431D01*
X65721Y608369D01*
X66300Y610531D01*
Y612769D01*
X65721Y614931D01*
X64602Y616869D01*
X63019Y618452D01*
X61081Y619571D01*
X58919Y620150D01*
D02*
G37*
G36*
X38919D02*
X36681D01*
X34519Y619571D01*
X32581Y618452D01*
X30998Y616869D01*
X29879Y614931D01*
X29300Y612769D01*
Y610531D01*
X29879Y608369D01*
X30998Y606431D01*
X32581Y604848D01*
X34519Y603729D01*
X36681Y603150D01*
X38919D01*
X41081Y603729D01*
X43019Y604848D01*
X44602Y606431D01*
X45721Y608369D01*
X46300Y610531D01*
Y612769D01*
X45721Y614931D01*
X44602Y616869D01*
X43019Y618452D01*
X41081Y619571D01*
X38919Y620150D01*
D02*
G37*
G36*
X205750Y606622D02*
X201000D01*
Y597000D01*
X212122D01*
Y600250D01*
X211637Y602689D01*
X210256Y604756D01*
X208189Y606137D01*
X205750Y606622D01*
D02*
G37*
G36*
X199000D02*
X194250D01*
X191811Y606137D01*
X189744Y604756D01*
X188363Y602689D01*
X187878Y600250D01*
Y597000D01*
X199000D01*
Y606622D01*
D02*
G37*
G36*
X58919Y600150D02*
X58800D01*
Y592650D01*
X66300D01*
Y592769D01*
X65721Y594931D01*
X64602Y596869D01*
X63019Y598452D01*
X61081Y599571D01*
X58919Y600150D01*
D02*
G37*
G36*
X56800D02*
X56681D01*
X54519Y599571D01*
X52581Y598452D01*
X50998Y596869D01*
X49879Y594931D01*
X49300Y592769D01*
Y592650D01*
X56800D01*
Y600150D01*
D02*
G37*
G36*
X212122Y595000D02*
X201000D01*
Y585378D01*
X205750D01*
X208189Y585863D01*
X210256Y587244D01*
X211637Y589311D01*
X212122Y591750D01*
Y595000D01*
D02*
G37*
G36*
X199000D02*
X187878D01*
Y591750D01*
X188363Y589311D01*
X189744Y587244D01*
X191811Y585863D01*
X194250Y585378D01*
X199000D01*
Y595000D01*
D02*
G37*
G36*
X66300Y590650D02*
X58800D01*
Y583150D01*
X58919D01*
X61081Y583729D01*
X63019Y584848D01*
X64602Y586431D01*
X65721Y588369D01*
X66300Y590531D01*
Y590650D01*
D02*
G37*
G36*
X56800D02*
X49300D01*
Y590531D01*
X49879Y588369D01*
X50998Y586431D01*
X52581Y584848D01*
X54519Y583729D01*
X56681Y583150D01*
X56800D01*
Y590650D01*
D02*
G37*
G36*
X38919Y600150D02*
X36681D01*
X34519Y599571D01*
X32581Y598452D01*
X30998Y596869D01*
X29879Y594931D01*
X29300Y592769D01*
Y590531D01*
X29879Y588369D01*
X30998Y586431D01*
X32581Y584848D01*
X34519Y583729D01*
X36681Y583150D01*
X38919D01*
X41081Y583729D01*
X43019Y584848D01*
X44602Y586431D01*
X45721Y588369D01*
X46300Y590531D01*
Y592769D01*
X45721Y594931D01*
X44602Y596869D01*
X43019Y598452D01*
X41081Y599571D01*
X38919Y600150D01*
D02*
G37*
G36*
X199094Y581500D02*
X196906D01*
X194884Y580663D01*
X193337Y579115D01*
X192500Y577094D01*
Y575318D01*
X191891Y574709D01*
X65780D01*
X65721Y574931D01*
X64602Y576869D01*
X63019Y578452D01*
X61081Y579571D01*
X58919Y580150D01*
X56681D01*
X54519Y579571D01*
X52581Y578452D01*
X50998Y576869D01*
X49879Y574931D01*
X49300Y572769D01*
Y570531D01*
X49879Y568369D01*
X50998Y566431D01*
X52581Y564848D01*
X54519Y563729D01*
X56681Y563150D01*
X58919D01*
X61081Y563729D01*
X63019Y564848D01*
X64602Y566431D01*
X65721Y568369D01*
X65780Y568591D01*
X193158D01*
X193158Y568591D01*
X194328Y568824D01*
X195320Y569487D01*
X196501Y570668D01*
X196906Y570500D01*
X199094D01*
X201115Y571337D01*
X202663Y572884D01*
X203500Y574906D01*
Y577094D01*
X202663Y579115D01*
X201115Y580663D01*
X199094Y581500D01*
D02*
G37*
G36*
X38919Y580150D02*
X36681D01*
X34519Y579571D01*
X32581Y578452D01*
X30998Y576869D01*
X29879Y574931D01*
X29300Y572769D01*
Y570531D01*
X29879Y568369D01*
X30998Y566431D01*
X32581Y564848D01*
X34519Y563729D01*
X36681Y563150D01*
X38919D01*
X41081Y563729D01*
X43019Y564848D01*
X44602Y566431D01*
X45721Y568369D01*
X46300Y570531D01*
Y572769D01*
X45721Y574931D01*
X44602Y576869D01*
X43019Y578452D01*
X41081Y579571D01*
X38919Y580150D01*
D02*
G37*
G36*
X199094Y563500D02*
X196906D01*
X194884Y562663D01*
X193337Y561115D01*
X192500Y559094D01*
Y556906D01*
X192523Y556849D01*
X190383Y554709D01*
X65780D01*
X65721Y554931D01*
X64602Y556869D01*
X63019Y558452D01*
X61081Y559571D01*
X58919Y560150D01*
X56681D01*
X54519Y559571D01*
X52581Y558452D01*
X50998Y556869D01*
X49879Y554931D01*
X49300Y552769D01*
Y550531D01*
X49879Y548369D01*
X50998Y546431D01*
X52581Y544848D01*
X54519Y543729D01*
X56681Y543150D01*
X58919D01*
X61081Y543729D01*
X63019Y544848D01*
X64602Y546431D01*
X65721Y548369D01*
X65780Y548591D01*
X191650D01*
X191650Y548591D01*
X192820Y548824D01*
X193813Y549487D01*
X196849Y552523D01*
X196906Y552500D01*
X199094D01*
X201115Y553337D01*
X202663Y554884D01*
X203500Y556906D01*
Y559094D01*
X202663Y561115D01*
X201115Y562663D01*
X199094Y563500D01*
D02*
G37*
G36*
X38919Y560150D02*
X36681D01*
X34519Y559571D01*
X32581Y558452D01*
X30998Y556869D01*
X29879Y554931D01*
X29300Y552769D01*
Y550531D01*
X29879Y548369D01*
X30998Y546431D01*
X32581Y544848D01*
X34519Y543729D01*
X36681Y543150D01*
X38919D01*
X41081Y543729D01*
X43019Y544848D01*
X44602Y546431D01*
X45721Y548369D01*
X46300Y550531D01*
Y552769D01*
X45721Y554931D01*
X44602Y556869D01*
X43019Y558452D01*
X41081Y559571D01*
X38919Y560150D01*
D02*
G37*
G36*
X58919Y540150D02*
X58800D01*
Y532650D01*
X66300D01*
Y532769D01*
X65721Y534931D01*
X64602Y536869D01*
X63019Y538452D01*
X61081Y539571D01*
X58919Y540150D01*
D02*
G37*
G36*
X56800D02*
X56681D01*
X54519Y539571D01*
X52581Y538452D01*
X50998Y536869D01*
X49879Y534931D01*
X49300Y532769D01*
Y532650D01*
X56800D01*
Y540150D01*
D02*
G37*
G36*
X66300Y530650D02*
X58800D01*
Y523150D01*
X58919D01*
X61081Y523729D01*
X63019Y524848D01*
X64602Y526431D01*
X65721Y528369D01*
X66300Y530531D01*
Y530650D01*
D02*
G37*
G36*
X56800D02*
X49300D01*
Y530531D01*
X49879Y528369D01*
X50998Y526431D01*
X52581Y524848D01*
X54519Y523729D01*
X56681Y523150D01*
X56800D01*
Y530650D01*
D02*
G37*
G36*
X38919Y540150D02*
X36681D01*
X34519Y539571D01*
X32581Y538452D01*
X30998Y536869D01*
X29879Y534931D01*
X29300Y532769D01*
Y530531D01*
X29879Y528369D01*
X30998Y526431D01*
X32581Y524848D01*
X34519Y523729D01*
X36681Y523150D01*
X38919D01*
X41081Y523729D01*
X43019Y524848D01*
X44602Y526431D01*
X45721Y528369D01*
X46300Y530531D01*
Y532769D01*
X45721Y534931D01*
X44602Y536869D01*
X43019Y538452D01*
X41081Y539571D01*
X38919Y540150D01*
D02*
G37*
G36*
X199094Y527500D02*
X196906D01*
X194884Y526663D01*
X193337Y525116D01*
X192500Y523094D01*
Y520906D01*
X192523Y520849D01*
X186383Y514709D01*
X65780D01*
X65721Y514931D01*
X64602Y516869D01*
X63019Y518452D01*
X61081Y519571D01*
X58919Y520150D01*
X56681D01*
X54519Y519571D01*
X52581Y518452D01*
X50998Y516869D01*
X49879Y514931D01*
X49300Y512769D01*
Y510531D01*
X49879Y508369D01*
X50998Y506431D01*
X52581Y504848D01*
X54519Y503729D01*
X56681Y503150D01*
X58919D01*
X61081Y503729D01*
X63019Y504848D01*
X64602Y506431D01*
X65721Y508369D01*
X65780Y508591D01*
X178899D01*
X179504Y507321D01*
X174880Y501615D01*
X174712Y501296D01*
X174532Y500982D01*
X174527Y500944D01*
X174509Y500911D01*
X174476Y500551D01*
X174430Y500192D01*
X174440Y500156D01*
X174436Y500119D01*
X174543Y499773D01*
X174638Y499425D01*
X175046Y498603D01*
X175054Y498592D01*
X175058Y498579D01*
X175469Y497777D01*
X175476Y497768D01*
X175480Y497756D01*
X175895Y496970D01*
X175901Y496961D01*
X175905Y496951D01*
X176301Y496218D01*
X176337Y496131D01*
X176346Y496066D01*
X175820Y494681D01*
X175734Y494618D01*
X175526Y494533D01*
X174588Y494162D01*
X173772Y493860D01*
X173179Y493671D01*
X172891Y493611D01*
X172550Y493593D01*
X172222Y493599D01*
X171897Y493624D01*
X171539Y493656D01*
X171493Y493651D01*
X171447Y493662D01*
X171058Y493679D01*
X170973Y493666D01*
X170889Y493680D01*
X170438Y493662D01*
X170349Y493641D01*
X170258Y493647D01*
X169704Y493576D01*
X169632Y493552D01*
X169557Y493551D01*
X168857Y493409D01*
X168811Y493389D01*
X168760Y493386D01*
X168239Y493253D01*
X168202Y493235D01*
X168161Y493232D01*
X167692Y493092D01*
X167656Y493073D01*
X167616Y493068D01*
X167184Y492920D01*
X167154Y492903D01*
X167119Y492897D01*
X166710Y492742D01*
X166681Y492724D01*
X166648Y492717D01*
X166204Y492532D01*
X163130Y495665D01*
X164060Y499490D01*
X164065Y499626D01*
X164106Y499757D01*
X164167Y500331D01*
X164164Y500361D01*
X164172Y500391D01*
X164128Y500756D01*
X164095Y501123D01*
X164081Y501150D01*
X164077Y501180D01*
X163933Y501619D01*
X163906Y501668D01*
X163896Y501724D01*
X163711Y502013D01*
X163543Y502312D01*
X163498Y502347D01*
X163468Y502395D01*
X163176Y502700D01*
X162855Y502924D01*
X162537Y503150D01*
X162153Y503322D01*
X161829Y503396D01*
X161511Y503491D01*
X161092Y503531D01*
X160770Y503498D01*
X160446Y503489D01*
X160047Y503398D01*
X159699Y503242D01*
X159347Y503092D01*
X159025Y502871D01*
X158967Y502810D01*
X158892Y502771D01*
X158690Y502527D01*
X158469Y502301D01*
X158438Y502223D01*
X158384Y502158D01*
X158195Y501808D01*
X158121Y501566D01*
X158012Y501336D01*
X156337Y494675D01*
X156327Y494476D01*
X156278Y494282D01*
X156308Y494082D01*
X156298Y493880D01*
X156365Y493692D01*
X156393Y493495D01*
X156497Y493321D01*
X156565Y493131D01*
X156699Y492983D01*
X156801Y492812D01*
X160928Y488237D01*
X160179Y487136D01*
X160131Y487023D01*
X160054Y486928D01*
X159465Y485790D01*
X159425Y485654D01*
X159352Y485531D01*
X158943Y484373D01*
X158921Y484224D01*
X158864Y484084D01*
X158630Y482880D01*
X158630Y482737D01*
X158595Y482598D01*
X158528Y481322D01*
X158546Y481199D01*
X158530Y481075D01*
X158620Y479770D01*
X152751Y477947D01*
X152530Y477827D01*
X152294Y477740D01*
X152184Y477638D01*
X152052Y477567D01*
X151894Y477371D01*
X151709Y477201D01*
X151646Y477065D01*
X151551Y476948D01*
X151480Y476707D01*
X151374Y476479D01*
X149751Y469772D01*
X149742Y469548D01*
X149694Y469329D01*
X149687Y468929D01*
X149700Y468856D01*
X149690Y468782D01*
X149771Y468466D01*
X149829Y468146D01*
X149869Y468083D01*
X149887Y468011D01*
X150043Y467686D01*
X150053Y467672D01*
X150058Y467655D01*
X150292Y467354D01*
X150520Y467049D01*
X150535Y467040D01*
X150546Y467026D01*
X150820Y466788D01*
X151116Y466619D01*
X151402Y466434D01*
X151749Y466296D01*
X152059Y466238D01*
X152364Y466156D01*
X152739Y466130D01*
X153082Y466174D01*
X153427Y466200D01*
X153784Y466300D01*
X153797Y466307D01*
X153813Y466308D01*
X154152Y466486D01*
X154493Y466659D01*
X154503Y466671D01*
X154517Y466678D01*
X154810Y466915D01*
X154846Y466958D01*
X154894Y466987D01*
X155100Y467262D01*
X155320Y467527D01*
X155336Y467580D01*
X155370Y467625D01*
X155554Y468012D01*
X155606Y468218D01*
X155695Y468410D01*
X156629Y472280D01*
X157007Y472379D01*
X157979Y472626D01*
X159003Y472881D01*
X160009Y473129D01*
X160938Y473354D01*
X161037Y473377D01*
X161556Y472725D01*
X161583Y472701D01*
X161601Y472670D01*
X162150Y472026D01*
X162201Y471986D01*
X162236Y471932D01*
X162775Y471373D01*
X162846Y471324D01*
X162899Y471256D01*
X163475Y470751D01*
X163554Y470706D01*
X163615Y470640D01*
X164272Y470159D01*
X164342Y470126D01*
X164399Y470073D01*
X165184Y469585D01*
X165236Y469565D01*
X165278Y469529D01*
X166236Y469002D01*
X166270Y468992D01*
X166297Y468970D01*
X166919Y468655D01*
X167105Y468546D01*
X167183Y468375D01*
X167216Y468329D01*
X167232Y468274D01*
X167458Y467841D01*
X167510Y467776D01*
X167540Y467698D01*
X167910Y467110D01*
X167953Y467064D01*
X167979Y467008D01*
X168196Y466704D01*
X168289Y466471D01*
X168299Y466416D01*
X168141Y465325D01*
X167924Y465007D01*
X167309Y464601D01*
X167304Y464597D01*
X167298Y464594D01*
X166497Y464058D01*
X166490Y464051D01*
X166481Y464047D01*
X165686Y463504D01*
X165676Y463495D01*
X165664Y463489D01*
X164886Y462943D01*
X164666Y462713D01*
X164429Y462500D01*
X164393Y462426D01*
X164336Y462367D01*
X164221Y462071D01*
X164083Y461784D01*
X164079Y461702D01*
X164049Y461625D01*
X164056Y461307D01*
X164039Y460989D01*
X165233Y452508D01*
X165280Y452373D01*
X165292Y452230D01*
X165451Y451678D01*
X165465Y451650D01*
X165469Y451620D01*
X165647Y451297D01*
X165816Y450970D01*
X165839Y450951D01*
X165854Y450924D01*
X166181Y450537D01*
X166186Y450533D01*
X166190Y450527D01*
X166499Y450284D01*
X166803Y450041D01*
X166810Y450039D01*
X166815Y450035D01*
X167249Y449815D01*
X167601Y449717D01*
X167950Y449607D01*
X168429Y449554D01*
X168786Y449585D01*
X169144Y449603D01*
X169604Y449717D01*
X169604D01*
X169605Y449717D01*
X169607Y449718D01*
X169962Y449885D01*
X170325Y450056D01*
X170710Y450340D01*
X170742Y450375D01*
X170784Y450397D01*
X171009Y450668D01*
X171246Y450928D01*
X171262Y450973D01*
X171292Y451009D01*
X171539Y451463D01*
X171548Y451494D01*
X171568Y451520D01*
X171665Y451873D01*
X171774Y452223D01*
X171771Y452256D01*
X171780Y452287D01*
X171825Y452912D01*
X171803Y453093D01*
X171819Y453275D01*
X171166Y459438D01*
X174138Y461216D01*
X174678Y460835D01*
X174721Y460816D01*
X174754Y460784D01*
X175764Y460138D01*
X175799Y460124D01*
X175827Y460099D01*
X176913Y459458D01*
X176946Y459446D01*
X176973Y459424D01*
X178080Y458819D01*
X178118Y458808D01*
X178149Y458784D01*
X179221Y458250D01*
X179269Y458237D01*
X179310Y458209D01*
X179522Y458116D01*
X176802Y447579D01*
X176796Y447472D01*
X176759Y447371D01*
X176774Y447078D01*
X176757Y446785D01*
X176793Y446683D01*
X176798Y446576D01*
X176923Y446311D01*
X177020Y446034D01*
X177091Y445953D01*
X177137Y445857D01*
X177354Y445659D01*
X177550Y445440D01*
X177646Y445394D01*
X177726Y445322D01*
X186129Y440271D01*
X186280Y440217D01*
X186415Y440128D01*
X186774Y439983D01*
X186998Y439941D01*
X187211Y439861D01*
X187385Y439867D01*
X187556Y439835D01*
X187779Y439881D01*
X188006Y439889D01*
X188345Y439969D01*
X188426Y440006D01*
X188515Y440017D01*
X188786Y440170D01*
X189069Y440299D01*
X189130Y440364D01*
X189208Y440409D01*
X189501Y440661D01*
X189705Y440921D01*
X189925Y441167D01*
X190146Y441540D01*
X190235Y441793D01*
X190357Y442033D01*
X190479Y442473D01*
X190499Y442754D01*
X190553Y443030D01*
X190550Y443486D01*
X190480Y443831D01*
X190424Y444179D01*
X190271Y444597D01*
X190246Y444636D01*
X190237Y444682D01*
X190039Y444975D01*
X189855Y445275D01*
X189817Y445303D01*
X189791Y445341D01*
X189460Y445668D01*
X189267Y445796D01*
X189098Y445954D01*
X184029Y449083D01*
X185622Y455028D01*
X186181Y456149D01*
X187209Y455927D01*
X187233Y455927D01*
X187255Y455918D01*
X188253Y455726D01*
X188280Y455727D01*
X188305Y455717D01*
X188466Y455691D01*
X188666Y455634D01*
X189468Y455053D01*
X189669Y454550D01*
X189745Y454353D01*
X189783Y454146D01*
X189886Y453986D01*
X189955Y453807D01*
X190100Y453654D01*
X190214Y453477D01*
X198211Y445219D01*
X197698Y443261D01*
X197685Y443047D01*
X197633Y442840D01*
X197611Y442369D01*
X197624Y442281D01*
X197610Y442194D01*
X197683Y441890D01*
X197729Y441583D01*
X197775Y441506D01*
X197796Y441420D01*
X197965Y441052D01*
X197987Y441021D01*
X197997Y440985D01*
X198220Y440701D01*
X198433Y440408D01*
X198465Y440388D01*
X198487Y440359D01*
X198794Y440095D01*
X199084Y439932D01*
X199361Y439750D01*
X199750Y439593D01*
X200020Y439542D01*
X200281Y439458D01*
X200697Y439410D01*
X200979Y439434D01*
X201261Y439424D01*
X201650Y439488D01*
X201995Y439618D01*
X202343Y439737D01*
X202650Y439915D01*
X202750Y440003D01*
X202868Y440062D01*
X203045Y440264D01*
X203247Y440442D01*
X203305Y440561D01*
X203393Y440660D01*
X203562Y440955D01*
X203649Y441210D01*
X203767Y441452D01*
X204991Y446082D01*
X205006Y446335D01*
X205058Y446584D01*
X205031Y446729D01*
X205040Y446876D01*
X204957Y447116D01*
X204910Y447366D01*
X204829Y447489D01*
X204781Y447628D01*
X204613Y447819D01*
X204474Y448031D01*
X198009Y454617D01*
X198044Y454853D01*
X198539Y455890D01*
X199998Y456260D01*
X200062Y456291D01*
X200133Y456300D01*
X202065Y456935D01*
X202140Y456977D01*
X202225Y456995D01*
X204265Y457860D01*
X204350Y457918D01*
X204447Y457949D01*
X206528Y459086D01*
X206618Y459162D01*
X206726Y459211D01*
X208778Y460662D01*
X208870Y460759D01*
X208985Y460829D01*
X210940Y462635D01*
X211048Y462784D01*
X211185Y462907D01*
X211864Y463809D01*
X211868Y463817D01*
X211875Y463823D01*
X212613Y464805D01*
X212688Y464960D01*
X212795Y465095D01*
X213812Y467065D01*
X213861Y467236D01*
X213947Y467393D01*
X214582Y469431D01*
X214600Y469602D01*
X214656Y469765D01*
X214939Y471866D01*
X214929Y472022D01*
X214957Y472176D01*
X214917Y474337D01*
X214889Y474468D01*
X214895Y474602D01*
X214563Y476819D01*
X214525Y476923D01*
X214519Y477034D01*
X213923Y479303D01*
X213884Y479384D01*
X213871Y479473D01*
X213041Y481790D01*
X212959Y481927D01*
X212911Y482079D01*
X212183Y483415D01*
X212128Y483481D01*
X212095Y483561D01*
X211280Y484798D01*
X211225Y484854D01*
X211189Y484925D01*
X210302Y486070D01*
X210249Y486117D01*
X210214Y486177D01*
X209270Y487238D01*
X209221Y487275D01*
X209186Y487326D01*
X208202Y488308D01*
X208158Y488338D01*
X208126Y488380D01*
X207544Y488904D01*
X207795Y490253D01*
X207827Y490298D01*
X216395Y492633D01*
X216622Y492746D01*
X216863Y492826D01*
X216975Y492922D01*
X217107Y492988D01*
X217274Y493180D01*
X217465Y493345D01*
X217532Y493477D01*
X217629Y493589D01*
X217710Y493829D01*
X217824Y494055D01*
X219132Y498767D01*
X219154Y499049D01*
X219207Y499327D01*
X219204Y499685D01*
X219174Y499831D01*
X219181Y499979D01*
X219095Y500217D01*
X219044Y500464D01*
X218960Y500587D01*
X218909Y500727D01*
X218722Y501037D01*
X218461Y501322D01*
X218205Y501609D01*
X217884Y501851D01*
X217626Y501976D01*
X217385Y502128D01*
X216982Y502282D01*
X216721Y502327D01*
X216467Y502405D01*
X216034Y502451D01*
X215727Y502423D01*
X215419Y502422D01*
X215007Y502340D01*
X214998Y502336D01*
X214989Y502336D01*
X214632Y502183D01*
X214273Y502034D01*
X214266Y502027D01*
X214257Y502023D01*
X213919Y501792D01*
X213855Y501726D01*
X213774Y501683D01*
X213579Y501444D01*
X213363Y501223D01*
X213329Y501138D01*
X213271Y501067D01*
X213057Y500667D01*
X212993Y500452D01*
X212892Y500252D01*
X212380Y498400D01*
X212124Y498327D01*
X210588Y497896D01*
X208944Y497435D01*
X208943Y497434D01*
X208941Y497434D01*
X207250Y496957D01*
X207247Y496955D01*
X207243Y496955D01*
X205569Y496475D01*
X205564Y496473D01*
X205558Y496472D01*
X203962Y496006D01*
X203953Y496001D01*
X203944Y496000D01*
X202489Y495560D01*
X202475Y495553D01*
X202460Y495552D01*
X201208Y495153D01*
X200997Y495036D01*
X200769Y494953D01*
X200652Y494845D01*
X200512Y494768D01*
X200361Y494579D01*
X200183Y494416D01*
X199887Y494155D01*
X198733Y494227D01*
X198571Y494299D01*
X198554Y494303D01*
X198538Y494314D01*
X197539Y494742D01*
X197514Y494747D01*
X197493Y494761D01*
X196503Y495157D01*
X196710Y496410D01*
X198233Y502092D01*
X203755Y502111D01*
X203942Y502149D01*
X204132Y502147D01*
X204609Y502239D01*
X204636Y502250D01*
X204665Y502251D01*
X205004Y502399D01*
X205346Y502538D01*
X205367Y502559D01*
X205393Y502571D01*
X205733Y502808D01*
X205744Y502820D01*
X205759Y502827D01*
X206019Y503107D01*
X206283Y503383D01*
X206289Y503398D01*
X206300Y503410D01*
X206506Y503744D01*
X206632Y504083D01*
X206770Y504418D01*
X206845Y504799D01*
X206845Y505137D01*
X206864Y505474D01*
X206812Y505853D01*
X206693Y506195D01*
X206586Y506542D01*
X206409Y506869D01*
X206386Y506897D01*
X206374Y506932D01*
X206133Y507203D01*
X205902Y507482D01*
X205869Y507499D01*
X205845Y507526D01*
X205547Y507752D01*
X205474Y507787D01*
X205415Y507843D01*
X205118Y507959D01*
X204831Y508098D01*
X204750Y508103D01*
X204674Y508132D01*
X204258Y508206D01*
X204062Y508202D01*
X203869Y508237D01*
X194527Y508088D01*
X194419Y508065D01*
X194309Y508073D01*
X194033Y507982D01*
X193749Y507920D01*
X193658Y507858D01*
X193554Y507823D01*
X193333Y507633D01*
X193094Y507468D01*
X193035Y507375D01*
X192951Y507304D01*
X192821Y507044D01*
X192663Y506799D01*
X192643Y506691D01*
X192594Y506593D01*
X190170Y497833D01*
X189742Y496647D01*
X189172Y496699D01*
X189133Y496695D01*
X189095Y496704D01*
X188526Y496734D01*
X188494Y496729D01*
X188463Y496736D01*
X187892Y496748D01*
X187868Y496744D01*
X187843Y496749D01*
X187269Y496747D01*
X187253Y496743D01*
X187236Y496746D01*
X186656Y496735D01*
X186652Y496734D01*
X186648Y496735D01*
X186163Y496724D01*
X185632Y496712D01*
X185629Y496711D01*
X185625Y496712D01*
X185065Y496697D01*
X185059Y496696D01*
X185053Y496697D01*
X184481Y496679D01*
X184471Y496677D01*
X184462Y496678D01*
X183894Y496655D01*
X183880Y496652D01*
X183867Y496654D01*
X183566Y496637D01*
X181859Y499496D01*
X185410Y504342D01*
X185462Y504455D01*
X185544Y504551D01*
X185874Y505141D01*
X185880Y505160D01*
X185893Y505175D01*
X186003Y505537D01*
X186120Y505897D01*
X186118Y505917D01*
X186124Y505936D01*
X186177Y506469D01*
X186170Y506540D01*
X186186Y506610D01*
X186131Y506934D01*
X186099Y507261D01*
X186065Y507324D01*
X186067Y507416D01*
X186706Y508460D01*
X186745Y508489D01*
X186907Y508591D01*
X187650D01*
X187650Y508591D01*
X188821Y508824D01*
X189813Y509487D01*
X196849Y516524D01*
X196906Y516500D01*
X199094D01*
X201115Y517337D01*
X202663Y518885D01*
X203500Y520906D01*
Y523094D01*
X202663Y525116D01*
X201115Y526663D01*
X199094Y527500D01*
D02*
G37*
G36*
X38919Y520150D02*
X36681D01*
X34519Y519571D01*
X32581Y518452D01*
X30998Y516869D01*
X29879Y514931D01*
X29300Y512769D01*
Y510531D01*
X29879Y508369D01*
X30998Y506431D01*
X32581Y504848D01*
X34519Y503729D01*
X36681Y503150D01*
X38919D01*
X41081Y503729D01*
X43019Y504848D01*
X44602Y506431D01*
X45721Y508369D01*
X46300Y510531D01*
Y512769D01*
X45721Y514931D01*
X44602Y516869D01*
X43019Y518452D01*
X41081Y519571D01*
X38919Y520150D01*
D02*
G37*
G36*
X58919Y500150D02*
X58800D01*
Y492650D01*
X66300D01*
Y492769D01*
X65721Y494931D01*
X64602Y496869D01*
X63019Y498452D01*
X61081Y499571D01*
X58919Y500150D01*
D02*
G37*
G36*
X56800D02*
X56681D01*
X54519Y499571D01*
X52581Y498452D01*
X50998Y496869D01*
X49879Y494931D01*
X49300Y492769D01*
Y492650D01*
X56800D01*
Y500150D01*
D02*
G37*
G36*
X66300Y490650D02*
X58800D01*
Y483150D01*
X58919D01*
X61081Y483729D01*
X63019Y484848D01*
X64602Y486431D01*
X65721Y488369D01*
X66300Y490531D01*
Y490650D01*
D02*
G37*
G36*
X56800D02*
X49300D01*
Y490531D01*
X49879Y488369D01*
X50998Y486431D01*
X52581Y484848D01*
X54519Y483729D01*
X56681Y483150D01*
X56800D01*
Y490650D01*
D02*
G37*
G36*
X38919Y500150D02*
X36681D01*
X34519Y499571D01*
X32581Y498452D01*
X30998Y496869D01*
X29879Y494931D01*
X29300Y492769D01*
Y490531D01*
X29879Y488369D01*
X30998Y486431D01*
X32581Y484848D01*
X34519Y483729D01*
X36681Y483150D01*
X38919D01*
X41081Y483729D01*
X43019Y484848D01*
X44602Y486431D01*
X45721Y488369D01*
X46300Y490531D01*
Y492769D01*
X45721Y494931D01*
X44602Y496869D01*
X43019Y498452D01*
X41081Y499571D01*
X38919Y500150D01*
D02*
G37*
G36*
Y480150D02*
X38800D01*
Y472650D01*
X46300D01*
Y472769D01*
X45721Y474931D01*
X44602Y476869D01*
X43019Y478452D01*
X41081Y479571D01*
X38919Y480150D01*
D02*
G37*
G36*
X36800D02*
X36681D01*
X34519Y479571D01*
X32581Y478452D01*
X30998Y476869D01*
X29879Y474931D01*
X29300Y472769D01*
Y472650D01*
X36800D01*
Y480150D01*
D02*
G37*
G36*
X58919D02*
X56681D01*
X54519Y479571D01*
X52581Y478452D01*
X50998Y476869D01*
X49879Y474931D01*
X49300Y472769D01*
Y470531D01*
X49879Y468369D01*
X50998Y466431D01*
X52581Y464848D01*
X54519Y463729D01*
X56681Y463150D01*
X58919D01*
X61081Y463729D01*
X63019Y464848D01*
X64602Y466431D01*
X65721Y468369D01*
X66300Y470531D01*
Y472769D01*
X65721Y474931D01*
X64602Y476869D01*
X63019Y478452D01*
X61081Y479571D01*
X58919Y480150D01*
D02*
G37*
G36*
X46300Y470650D02*
X38800D01*
Y463150D01*
X38919D01*
X41081Y463729D01*
X43019Y464848D01*
X44602Y466431D01*
X45721Y468369D01*
X46300Y470531D01*
Y470650D01*
D02*
G37*
G36*
X36800D02*
X29300D01*
Y470531D01*
X29879Y468369D01*
X30998Y466431D01*
X32581Y464848D01*
X34519Y463729D01*
X36681Y463150D01*
X36800D01*
Y470650D01*
D02*
G37*
G36*
X58919Y460150D02*
X58800D01*
Y452650D01*
X66300D01*
Y452769D01*
X65721Y454931D01*
X64602Y456869D01*
X63019Y458452D01*
X61081Y459571D01*
X58919Y460150D01*
D02*
G37*
G36*
X56800D02*
X56681D01*
X54519Y459571D01*
X52581Y458452D01*
X50998Y456869D01*
X49879Y454931D01*
X49300Y452769D01*
Y452650D01*
X56800D01*
Y460150D01*
D02*
G37*
G36*
X66300Y450650D02*
X58800D01*
Y443150D01*
X58919D01*
X61081Y443729D01*
X63019Y444848D01*
X64602Y446431D01*
X65721Y448369D01*
X66300Y450531D01*
Y450650D01*
D02*
G37*
G36*
X56800D02*
X49300D01*
Y450531D01*
X49879Y448369D01*
X50998Y446431D01*
X52581Y444848D01*
X54519Y443729D01*
X56681Y443150D01*
X56800D01*
Y450650D01*
D02*
G37*
G36*
X38919Y460150D02*
X36681D01*
X34519Y459571D01*
X32581Y458452D01*
X30998Y456869D01*
X29879Y454931D01*
X29300Y452769D01*
Y450531D01*
X29879Y448369D01*
X30998Y446431D01*
X32581Y444848D01*
X34519Y443729D01*
X36681Y443150D01*
X38919D01*
X41081Y443729D01*
X43019Y444848D01*
X44602Y446431D01*
X45721Y448369D01*
X46300Y450531D01*
Y452769D01*
X45721Y454931D01*
X44602Y456869D01*
X43019Y458452D01*
X41081Y459571D01*
X38919Y460150D01*
D02*
G37*
G36*
X41050Y440253D02*
X38800D01*
Y432650D01*
X46403D01*
Y434900D01*
X45995Y436948D01*
X44835Y438685D01*
X43098Y439845D01*
X41050Y440253D01*
D02*
G37*
G36*
X36800D02*
X34550D01*
X32502Y439845D01*
X30765Y438685D01*
X29605Y436948D01*
X29197Y434900D01*
Y432650D01*
X36800D01*
Y440253D01*
D02*
G37*
G36*
X167750Y435622D02*
X163000D01*
Y426000D01*
X174123D01*
Y429250D01*
X173637Y431689D01*
X172256Y433756D01*
X170189Y435137D01*
X167750Y435622D01*
D02*
G37*
G36*
X161000D02*
X156250D01*
X153811Y435137D01*
X151744Y433756D01*
X150363Y431689D01*
X149878Y429250D01*
Y426000D01*
X161000D01*
Y435622D01*
D02*
G37*
G36*
X58919Y440150D02*
X56681D01*
X54519Y439571D01*
X52581Y438452D01*
X50998Y436869D01*
X49879Y434931D01*
X49300Y432769D01*
Y430531D01*
X49879Y428369D01*
X50998Y426431D01*
X52581Y424848D01*
X54519Y423729D01*
X56681Y423150D01*
X58919D01*
X61081Y423729D01*
X63019Y424848D01*
X64602Y426431D01*
X65721Y428369D01*
X66300Y430531D01*
Y432769D01*
X65721Y434931D01*
X64602Y436869D01*
X63019Y438452D01*
X61081Y439571D01*
X58919Y440150D01*
D02*
G37*
G36*
X46403Y430650D02*
X38800D01*
Y423047D01*
X41050D01*
X43098Y423455D01*
X44835Y424615D01*
X45995Y426352D01*
X46403Y428400D01*
Y430650D01*
D02*
G37*
G36*
X36800D02*
X29197D01*
Y428400D01*
X29605Y426352D01*
X30765Y424615D01*
X32502Y423455D01*
X34550Y423047D01*
X36800D01*
Y430650D01*
D02*
G37*
G36*
X285750Y435622D02*
X274250D01*
X271811Y435137D01*
X269744Y433756D01*
X268363Y431689D01*
X267878Y429250D01*
Y420750D01*
X268363Y418311D01*
X269744Y416244D01*
X271811Y414863D01*
X274250Y414378D01*
X285750D01*
X288189Y414863D01*
X290256Y416244D01*
X291637Y418311D01*
X292122Y420750D01*
Y429250D01*
X291637Y431689D01*
X290256Y433756D01*
X288189Y435137D01*
X285750Y435622D01*
D02*
G37*
G36*
X174123Y424000D02*
X163000D01*
Y414378D01*
X167750D01*
X170189Y414863D01*
X172256Y416244D01*
X173637Y418311D01*
X174123Y420750D01*
Y424000D01*
D02*
G37*
G36*
X161000D02*
X149878D01*
Y420750D01*
X150363Y418311D01*
X151744Y416244D01*
X153811Y414863D01*
X156250Y414378D01*
X161000D01*
Y424000D01*
D02*
G37*
G36*
X75717Y398600D02*
X75400D01*
Y389600D01*
X84400D01*
Y389916D01*
X83719Y392460D01*
X82402Y394740D01*
X80540Y396602D01*
X78260Y397919D01*
X75717Y398600D01*
D02*
G37*
G36*
X73400D02*
X73084D01*
X70540Y397919D01*
X68260Y396602D01*
X66398Y394740D01*
X65082Y392460D01*
X64400Y389916D01*
Y389600D01*
X73400D01*
Y398600D01*
D02*
G37*
G36*
X84400Y387600D02*
X75400D01*
Y378600D01*
X75717D01*
X78260Y379282D01*
X80540Y380598D01*
X82402Y382460D01*
X83719Y384740D01*
X84400Y387284D01*
Y387600D01*
D02*
G37*
G36*
X73400D02*
X64400D01*
Y387284D01*
X65082Y384740D01*
X66398Y382460D01*
X68260Y380598D01*
X70540Y379282D01*
X73084Y378600D01*
X73400D01*
Y387600D01*
D02*
G37*
G36*
X50317Y398600D02*
X47684D01*
X45140Y397919D01*
X42860Y396602D01*
X40998Y394740D01*
X39681Y392460D01*
X39000Y389916D01*
Y387284D01*
X39681Y384740D01*
X40998Y382460D01*
X42860Y380598D01*
X45140Y379282D01*
X47684Y378600D01*
X50317D01*
X52860Y379282D01*
X55140Y380598D01*
X57002Y382460D01*
X58319Y384740D01*
X59000Y387284D01*
Y389916D01*
X58319Y392460D01*
X57002Y394740D01*
X55140Y396602D01*
X52860Y397919D01*
X50317Y398600D01*
D02*
G37*
G36*
X75717Y373200D02*
X73084D01*
X70540Y372519D01*
X68260Y371202D01*
X66398Y369340D01*
X65082Y367060D01*
X64400Y364516D01*
Y361884D01*
X65082Y359340D01*
X66398Y357060D01*
X68260Y355198D01*
X70540Y353881D01*
X73084Y353200D01*
X75717D01*
X78260Y353881D01*
X80540Y355198D01*
X82402Y357060D01*
X83719Y359340D01*
X84400Y361884D01*
Y364516D01*
X83719Y367060D01*
X82402Y369340D01*
X80540Y371202D01*
X78260Y372519D01*
X75717Y373200D01*
D02*
G37*
G36*
X50317D02*
X47684D01*
X45140Y372519D01*
X42860Y371202D01*
X40998Y369340D01*
X39681Y367060D01*
X39000Y364516D01*
Y361884D01*
X39681Y359340D01*
X40998Y357060D01*
X42860Y355198D01*
X45140Y353881D01*
X47684Y353200D01*
X50317D01*
X52860Y353881D01*
X55140Y355198D01*
X57002Y357060D01*
X58319Y359340D01*
X59000Y361884D01*
Y364516D01*
X58319Y367060D01*
X57002Y369340D01*
X55140Y371202D01*
X52860Y372519D01*
X50317Y373200D01*
D02*
G37*
G36*
X75717Y347800D02*
X75400D01*
Y338800D01*
X84400D01*
Y339117D01*
X83719Y341660D01*
X82402Y343940D01*
X80540Y345802D01*
X78260Y347118D01*
X75717Y347800D01*
D02*
G37*
G36*
X73400D02*
X73084D01*
X70540Y347118D01*
X68260Y345802D01*
X66398Y343940D01*
X65082Y341660D01*
X64400Y339117D01*
Y338800D01*
X73400D01*
Y347800D01*
D02*
G37*
G36*
X84400Y336800D02*
X75400D01*
Y327800D01*
X75717D01*
X78260Y328481D01*
X80540Y329798D01*
X82402Y331660D01*
X83719Y333940D01*
X84400Y336483D01*
Y336800D01*
D02*
G37*
G36*
X73400D02*
X64400D01*
Y336483D01*
X65082Y333940D01*
X66398Y331660D01*
X68260Y329798D01*
X70540Y328481D01*
X73084Y327800D01*
X73400D01*
Y336800D01*
D02*
G37*
G36*
X50317Y347800D02*
X47684D01*
X45140Y347118D01*
X42860Y345802D01*
X40998Y343940D01*
X39681Y341660D01*
X39000Y339117D01*
Y336483D01*
X39681Y333940D01*
X40998Y331660D01*
X42860Y329798D01*
X45140Y328481D01*
X47684Y327800D01*
X50317D01*
X52860Y328481D01*
X55140Y329798D01*
X57002Y331660D01*
X58319Y333940D01*
X59000Y336483D01*
Y339117D01*
X58319Y341660D01*
X57002Y343940D01*
X55140Y345802D01*
X52860Y347118D01*
X50317Y347800D01*
D02*
G37*
G36*
X75717Y322400D02*
X73084D01*
X70540Y321718D01*
X68260Y320402D01*
X66398Y318540D01*
X65082Y316260D01*
X64400Y313717D01*
Y311084D01*
X65082Y308540D01*
X66398Y306260D01*
X68260Y304398D01*
X70540Y303081D01*
X73084Y302400D01*
X75717D01*
X78260Y303081D01*
X80540Y304398D01*
X82402Y306260D01*
X83719Y308540D01*
X84400Y311084D01*
Y313717D01*
X83719Y316260D01*
X82402Y318540D01*
X80540Y320402D01*
X78260Y321718D01*
X75717Y322400D01*
D02*
G37*
G36*
X50317D02*
X47684D01*
X45140Y321718D01*
X42860Y320402D01*
X40998Y318540D01*
X39681Y316260D01*
X39000Y313717D01*
Y311084D01*
X39681Y308540D01*
X40998Y306260D01*
X42860Y304398D01*
X45140Y303081D01*
X47684Y302400D01*
X50317D01*
X52860Y303081D01*
X55140Y304398D01*
X57002Y306260D01*
X58319Y308540D01*
X59000Y311084D01*
Y313717D01*
X58319Y316260D01*
X57002Y318540D01*
X55140Y320402D01*
X52860Y321718D01*
X50317Y322400D01*
D02*
G37*
G36*
X75717Y297000D02*
X73084D01*
X70540Y296318D01*
X68260Y295002D01*
X66398Y293140D01*
X65082Y290860D01*
X64400Y288316D01*
Y285683D01*
X65082Y283140D01*
X66398Y280860D01*
X68260Y278998D01*
X70540Y277682D01*
X73084Y277000D01*
X75717D01*
X78260Y277682D01*
X80540Y278998D01*
X82402Y280860D01*
X83719Y283140D01*
X84400Y285683D01*
Y288316D01*
X83719Y290860D01*
X82402Y293140D01*
X80540Y295002D01*
X78260Y296318D01*
X75717Y297000D01*
D02*
G37*
G36*
X50317D02*
X47684D01*
X45140Y296318D01*
X42860Y295002D01*
X40998Y293140D01*
X39681Y290860D01*
X39000Y288316D01*
Y285683D01*
X39681Y283140D01*
X40998Y280860D01*
X42860Y278998D01*
X45140Y277682D01*
X47684Y277000D01*
X50317D01*
X52860Y277682D01*
X55140Y278998D01*
X57002Y280860D01*
X58319Y283140D01*
X59000Y285683D01*
Y288316D01*
X58319Y290860D01*
X57002Y293140D01*
X55140Y295002D01*
X52860Y296318D01*
X50317Y297000D01*
D02*
G37*
G36*
X75717Y271600D02*
X75400D01*
Y262600D01*
X84400D01*
Y262917D01*
X83719Y265460D01*
X82402Y267740D01*
X80540Y269602D01*
X78260Y270919D01*
X75717Y271600D01*
D02*
G37*
G36*
X73400D02*
X73084D01*
X70540Y270919D01*
X68260Y269602D01*
X66398Y267740D01*
X65082Y265460D01*
X64400Y262917D01*
Y262600D01*
X73400D01*
Y271600D01*
D02*
G37*
G36*
X84400Y260600D02*
X75400D01*
Y251600D01*
X75717D01*
X78260Y252281D01*
X80540Y253598D01*
X82402Y255460D01*
X83719Y257740D01*
X84400Y260284D01*
Y260600D01*
D02*
G37*
G36*
X73400D02*
X64400D01*
Y260284D01*
X65082Y257740D01*
X66398Y255460D01*
X68260Y253598D01*
X70540Y252281D01*
X73084Y251600D01*
X73400D01*
Y260600D01*
D02*
G37*
G36*
X50317Y271600D02*
X47684D01*
X45140Y270919D01*
X42860Y269602D01*
X40998Y267740D01*
X39681Y265460D01*
X39000Y262917D01*
Y260284D01*
X39681Y257740D01*
X40998Y255460D01*
X42860Y253598D01*
X45140Y252281D01*
X47684Y251600D01*
X50317D01*
X52860Y252281D01*
X55140Y253598D01*
X57002Y255460D01*
X58319Y257740D01*
X59000Y260284D01*
Y262917D01*
X58319Y265460D01*
X57002Y267740D01*
X55140Y269602D01*
X52860Y270919D01*
X50317Y271600D01*
D02*
G37*
G36*
X75717Y246200D02*
X73084D01*
X70540Y245518D01*
X68260Y244202D01*
X66398Y242340D01*
X65082Y240060D01*
X64400Y237516D01*
Y234883D01*
X65082Y232340D01*
X66398Y230060D01*
X68260Y228198D01*
X70540Y226882D01*
X73084Y226200D01*
X75717D01*
X78260Y226882D01*
X80540Y228198D01*
X82402Y230060D01*
X83719Y232340D01*
X84400Y234883D01*
Y237516D01*
X83719Y240060D01*
X82402Y242340D01*
X80540Y244202D01*
X78260Y245518D01*
X75717Y246200D01*
D02*
G37*
G36*
X50317D02*
X47684D01*
X45140Y245518D01*
X42860Y244202D01*
X40998Y242340D01*
X39681Y240060D01*
X39000Y237516D01*
Y234883D01*
X39681Y232340D01*
X40998Y230060D01*
X42860Y228198D01*
X45140Y226882D01*
X47684Y226200D01*
X50317D01*
X52860Y226882D01*
X55140Y228198D01*
X57002Y230060D01*
X58319Y232340D01*
X59000Y234883D01*
Y237516D01*
X58319Y240060D01*
X57002Y242340D01*
X55140Y244202D01*
X52860Y245518D01*
X50317Y246200D01*
D02*
G37*
G36*
X75717Y220800D02*
X75400D01*
Y211800D01*
X84400D01*
Y212117D01*
X83719Y214660D01*
X82402Y216940D01*
X80540Y218802D01*
X78260Y220119D01*
X75717Y220800D01*
D02*
G37*
G36*
X73400D02*
X73084D01*
X70540Y220119D01*
X68260Y218802D01*
X66398Y216940D01*
X65082Y214660D01*
X64400Y212117D01*
Y211800D01*
X73400D01*
Y220800D01*
D02*
G37*
G36*
X84400Y209800D02*
X75400D01*
Y200800D01*
X75717D01*
X78260Y201481D01*
X80540Y202798D01*
X82402Y204660D01*
X83719Y206940D01*
X84400Y209484D01*
Y209800D01*
D02*
G37*
G36*
X73400D02*
X64400D01*
Y209484D01*
X65082Y206940D01*
X66398Y204660D01*
X68260Y202798D01*
X70540Y201481D01*
X73084Y200800D01*
X73400D01*
Y209800D01*
D02*
G37*
G36*
X50317Y220800D02*
X47684D01*
X45140Y220119D01*
X42860Y218802D01*
X40998Y216940D01*
X39681Y214660D01*
X39000Y212117D01*
Y209484D01*
X39681Y206940D01*
X40998Y204660D01*
X42860Y202798D01*
X45140Y201481D01*
X47684Y200800D01*
X50317D01*
X52860Y201481D01*
X55140Y202798D01*
X57002Y204660D01*
X58319Y206940D01*
X59000Y209484D01*
Y212117D01*
X58319Y214660D01*
X57002Y216940D01*
X55140Y218802D01*
X52860Y220119D01*
X50317Y220800D01*
D02*
G37*
G36*
X75717Y195400D02*
X73084D01*
X70540Y194718D01*
X68260Y193402D01*
X66398Y191540D01*
X65082Y189260D01*
X64400Y186716D01*
Y184083D01*
X65082Y181540D01*
X66398Y179260D01*
X68260Y177398D01*
X70540Y176082D01*
X73084Y175400D01*
X75717D01*
X78260Y176082D01*
X80540Y177398D01*
X82402Y179260D01*
X83719Y181540D01*
X84400Y184083D01*
Y186716D01*
X83719Y189260D01*
X82402Y191540D01*
X80540Y193402D01*
X78260Y194718D01*
X75717Y195400D01*
D02*
G37*
G36*
X50317D02*
X47684D01*
X45140Y194718D01*
X42860Y193402D01*
X40998Y191540D01*
X39681Y189260D01*
X39000Y186716D01*
Y184083D01*
X39681Y181540D01*
X40998Y179260D01*
X42860Y177398D01*
X45140Y176082D01*
X47684Y175400D01*
X50317D01*
X52860Y176082D01*
X55140Y177398D01*
X57002Y179260D01*
X58319Y181540D01*
X59000Y184083D01*
Y186716D01*
X58319Y189260D01*
X57002Y191540D01*
X55140Y193402D01*
X52860Y194718D01*
X50317Y195400D01*
D02*
G37*
G36*
X75717Y170000D02*
X75400D01*
Y161000D01*
X84400D01*
Y161317D01*
X83719Y163860D01*
X82402Y166140D01*
X80540Y168002D01*
X78260Y169319D01*
X75717Y170000D01*
D02*
G37*
G36*
X73400D02*
X73084D01*
X70540Y169319D01*
X68260Y168002D01*
X66398Y166140D01*
X65082Y163860D01*
X64400Y161317D01*
Y161000D01*
X73400D01*
Y170000D01*
D02*
G37*
G36*
X84400Y159000D02*
X75400D01*
Y150000D01*
X75717D01*
X78260Y150681D01*
X80540Y151998D01*
X82402Y153860D01*
X83719Y156140D01*
X84400Y158684D01*
Y159000D01*
D02*
G37*
G36*
X73400D02*
X64400D01*
Y158684D01*
X65082Y156140D01*
X66398Y153860D01*
X68260Y151998D01*
X70540Y150681D01*
X73084Y150000D01*
X73400D01*
Y159000D01*
D02*
G37*
G36*
X53000Y170117D02*
X45000D01*
X42659Y169652D01*
X40674Y168326D01*
X39348Y166341D01*
X38883Y164000D01*
Y156000D01*
X39348Y153659D01*
X40674Y151674D01*
X42659Y150348D01*
X45000Y149882D01*
X53000D01*
X55341Y150348D01*
X57326Y151674D01*
X58652Y153659D01*
X59117Y156000D01*
Y164000D01*
X58652Y166341D01*
X57326Y168326D01*
X55341Y169652D01*
X53000Y170117D01*
D02*
G37*
G36*
X155750Y110622D02*
X151000D01*
Y101000D01*
X162122D01*
Y104250D01*
X161637Y106689D01*
X160256Y108756D01*
X158189Y110137D01*
X155750Y110622D01*
D02*
G37*
G36*
X149000D02*
X144250D01*
X141811Y110137D01*
X139744Y108756D01*
X138363Y106689D01*
X137878Y104250D01*
Y101000D01*
X149000D01*
Y110622D01*
D02*
G37*
G36*
X162122Y99000D02*
X151000D01*
Y89378D01*
X155750D01*
X158189Y89863D01*
X160256Y91244D01*
X161637Y93311D01*
X162122Y95750D01*
Y99000D01*
D02*
G37*
G36*
X149000D02*
X137878D01*
Y95750D01*
X138363Y93311D01*
X139744Y91244D01*
X141811Y89863D01*
X144250Y89378D01*
X149000D01*
Y99000D01*
D02*
G37*
G36*
X261970Y60000D02*
X258030D01*
X254166Y59231D01*
X250526Y57724D01*
X247251Y55535D01*
X244465Y52749D01*
X242276Y49474D01*
X240769Y45834D01*
X240000Y41970D01*
Y38030D01*
X240769Y34166D01*
X242276Y30526D01*
X244465Y27251D01*
X247251Y24465D01*
X250526Y22276D01*
X254166Y20769D01*
X258030Y20000D01*
X261970D01*
X265834Y20769D01*
X269473Y22276D01*
X272749Y24465D01*
X275535Y27251D01*
X277724Y30526D01*
X279231Y34166D01*
X280000Y38030D01*
Y41970D01*
X279231Y45834D01*
X277724Y49474D01*
X275535Y52749D01*
X272749Y55535D01*
X269473Y57724D01*
X265834Y59231D01*
X261970Y60000D01*
D02*
G37*
G36*
X49470D02*
X45530D01*
X41666Y59231D01*
X38026Y57724D01*
X34751Y55535D01*
X31965Y52749D01*
X29776Y49474D01*
X28269Y45834D01*
X27500Y41970D01*
Y38030D01*
X28269Y34166D01*
X29776Y30526D01*
X31965Y27251D01*
X34751Y24465D01*
X38026Y22276D01*
X41666Y20769D01*
X45530Y20000D01*
X49470D01*
X53334Y20769D01*
X56974Y22276D01*
X60249Y24465D01*
X63035Y27251D01*
X65224Y30526D01*
X66731Y34166D01*
X67500Y38030D01*
Y41970D01*
X66731Y45834D01*
X65224Y49474D01*
X63035Y52749D01*
X60249Y55535D01*
X56974Y57724D01*
X53334Y59231D01*
X49470Y60000D01*
D02*
G37*
%LPD*%
G36*
X183645Y507436D02*
X183979Y507113D01*
X184147Y506669D01*
X184095Y506137D01*
X183765Y505547D01*
X179416Y499611D01*
X182466Y494503D01*
X182921Y494550D01*
X183430Y494588D01*
X183977Y494618D01*
X184545Y494641D01*
X185117Y494659D01*
X185678Y494673D01*
X186209Y494685D01*
X186695Y494696D01*
X187276Y494707D01*
X187850Y494709D01*
X188420Y494697D01*
X188989Y494668D01*
X189559Y494616D01*
X190133Y494539D01*
X190715Y494431D01*
X191305Y494289D01*
X194559Y506049D01*
X203902Y506198D01*
X204318Y506125D01*
X204615Y505900D01*
X204792Y505573D01*
X204844Y505194D01*
X204769Y504813D01*
X204564Y504479D01*
X204224Y504241D01*
X203748Y504150D01*
X196667Y504126D01*
X193919Y493873D01*
X194797Y493605D01*
X195746Y493263D01*
X196736Y492868D01*
X197736Y492439D01*
X198716Y491999D01*
X199647Y491566D01*
X200498Y491163D01*
X201240Y490810D01*
X201827Y493210D01*
X203079Y493609D01*
X204534Y494048D01*
X206130Y494515D01*
X207805Y494994D01*
X209495Y495472D01*
X211139Y495933D01*
X212675Y496364D01*
X214039Y496750D01*
X214858Y499709D01*
X215071Y500109D01*
X215409Y500340D01*
X215820Y500423D01*
X216253Y500377D01*
X216656Y500223D01*
X216977Y499981D01*
X217165Y499671D01*
X217168Y499313D01*
X215859Y494601D01*
X204171Y491415D01*
X203713Y489404D01*
X204730Y488618D01*
X205751Y487774D01*
X206762Y486864D01*
X207747Y485882D01*
X208690Y484822D01*
X209577Y483676D01*
X210392Y482439D01*
X211121Y481103D01*
X211951Y478786D01*
X212546Y476516D01*
X212879Y474299D01*
X212918Y472138D01*
X212635Y470037D01*
X212000Y468000D01*
X210983Y466031D01*
X210245Y465049D01*
X207349Y465825D01*
X209847Y469336D01*
X207715Y469966D01*
X208294Y472128D01*
X210496Y471538D01*
X210510Y473187D01*
X210452Y474655D01*
X210300Y475989D01*
X210037Y477238D01*
X209640Y478452D01*
X209092Y479678D01*
X208372Y480966D01*
X207461Y482364D01*
X205533Y484643D01*
X203126Y486678D01*
X200347Y488440D01*
X197310Y489902D01*
X194125Y491034D01*
X190901Y491807D01*
X187750Y492193D01*
X184783Y492163D01*
X183083Y491957D01*
X181536Y491682D01*
X180129Y491351D01*
X178848Y490978D01*
X177680Y490573D01*
X176614Y490151D01*
X175635Y489724D01*
X174730Y489303D01*
X172752Y481652D01*
X208279Y472132D01*
X207699Y469970D01*
X207125Y470140D01*
X202514Y471436D01*
X196677Y473049D01*
X190273Y474801D01*
X183964Y476514D01*
X178412Y478012D01*
X174276Y479118D01*
X172220Y479653D01*
X172021Y478914D01*
X171776Y478002D01*
X171500Y476969D01*
X171210Y475872D01*
X170923Y474764D01*
X170804Y474294D01*
X168604Y474884D01*
X172422Y489131D01*
X170742Y489075D01*
X169201Y488807D01*
X167806Y488325D01*
X166565Y487627D01*
X165484Y486711D01*
X164573Y485574D01*
X163839Y484215D01*
X163290Y482631D01*
X163057Y481202D01*
X163103Y479758D01*
X163408Y478342D01*
X163952Y476996D01*
X164716Y475762D01*
X165683Y474684D01*
X166831Y473803D01*
X168143Y473162D01*
X168600Y474868D01*
X170800Y474279D01*
X170654Y473699D01*
X170419Y472732D01*
X170236Y471916D01*
X174107Y467104D01*
X179087Y463467D01*
X184776Y461060D01*
X190773Y459936D01*
X196679Y460148D01*
X202093Y461750D01*
X206616Y464795D01*
X207339Y465812D01*
X210235Y465035D01*
X209556Y464133D01*
X207601Y462327D01*
X205549Y460876D01*
X203469Y459738D01*
X201428Y458872D01*
X199496Y458237D01*
X197740Y457791D01*
X196229Y457492D01*
X195030Y457300D01*
X194531Y455249D01*
X203019Y446603D01*
X201796Y441973D01*
X201626Y441679D01*
X201319Y441500D01*
X200930Y441436D01*
X200513Y441484D01*
X200124Y441641D01*
X199817Y441905D01*
X199648Y442273D01*
X199670Y442743D01*
X200475Y445813D01*
X191679Y454896D01*
X192224Y457308D01*
X191398Y457358D01*
X190521Y457446D01*
X189599Y457570D01*
X188637Y457729D01*
X187640Y457920D01*
X186612Y458142D01*
X185559Y458393D01*
X184487Y458670D01*
X181667Y448145D01*
X188027Y444218D01*
X188357Y443891D01*
X188511Y443474D01*
X188514Y443019D01*
X188392Y442579D01*
X188171Y442206D01*
X187878Y441954D01*
X187538Y441874D01*
X187179Y442019D01*
X178776Y447069D01*
X181946Y459350D01*
X181111Y459645D01*
X180129Y460076D01*
X179057Y460609D01*
X177950Y461214D01*
X176863Y461855D01*
X175853Y462502D01*
X174975Y463121D01*
X174284Y463680D01*
X169001Y460518D01*
X169791Y453060D01*
X169746Y452435D01*
X169499Y451981D01*
X169114Y451697D01*
X168651Y451581D01*
X168172Y451634D01*
X167738Y451854D01*
X167411Y452241D01*
X167252Y452793D01*
X166058Y461274D01*
X166836Y461820D01*
X167631Y462363D01*
X168432Y462899D01*
X169230Y463425D01*
X170013Y463939D01*
X170772Y464436D01*
X171498Y464913D01*
X172178Y465368D01*
X171515Y466012D01*
X170855Y466690D01*
X170534Y467046D01*
X170222Y467415D01*
X169922Y467797D01*
X169636Y468196D01*
X169266Y468784D01*
X169040Y469217D01*
X168897Y469534D01*
X168773Y469775D01*
X168605Y469981D01*
X168333Y470192D01*
X167892Y470448D01*
X167220Y470788D01*
X166262Y471316D01*
X165476Y471805D01*
X164818Y472286D01*
X164242Y472790D01*
X163702Y473349D01*
X163153Y473993D01*
X162548Y474753D01*
X161844Y475661D01*
X161254Y475525D01*
X160460Y475336D01*
X159524Y475109D01*
X158510Y474860D01*
X157480Y474603D01*
X156499Y474353D01*
X155628Y474126D01*
X154931Y473937D01*
X153713Y468889D01*
X153528Y468501D01*
X153235Y468264D01*
X152878Y468164D01*
X152504Y468190D01*
X152157Y468328D01*
X151882Y468567D01*
X151726Y468892D01*
X151733Y469293D01*
X153356Y475999D01*
X160908Y478346D01*
X160659Y479842D01*
X160564Y481215D01*
X160631Y482490D01*
X160865Y483694D01*
X161275Y484852D01*
X161865Y485989D01*
X162642Y487132D01*
X163613Y488305D01*
X158315Y494178D01*
X159989Y500839D01*
X160178Y501189D01*
X160501Y501410D01*
X160900Y501501D01*
X161319Y501461D01*
X161703Y501289D01*
X161995Y500984D01*
X162139Y500546D01*
X162078Y499972D01*
X160881Y495046D01*
X165717Y490116D01*
X166621Y490496D01*
X167433Y490835D01*
X167842Y490990D01*
X168274Y491138D01*
X168743Y491277D01*
X169265Y491410D01*
X169964Y491553D01*
X170518Y491624D01*
X170969Y491642D01*
X171358Y491625D01*
X171729Y491592D01*
X172124Y491562D01*
X172584Y491553D01*
X173153Y491583D01*
X173696Y491695D01*
X174436Y491931D01*
X175317Y492257D01*
X176284Y492640D01*
X177278Y493043D01*
X178243Y493434D01*
X179123Y493778D01*
X179860Y494039D01*
X179414Y494826D01*
X178975Y495603D01*
X178543Y496374D01*
X178118Y497145D01*
X177698Y497921D01*
X177283Y498708D01*
X176872Y499509D01*
X176464Y500331D01*
X181790Y506903D01*
X182219Y507373D01*
X182709Y507598D01*
X183203Y507608D01*
X183645Y507436D01*
D02*
G37*
G36*
X169023Y486676D02*
X169442Y486364D01*
X169728Y485923D01*
X169857Y485415D01*
X169874Y485203D01*
X169537Y484459D01*
X169037Y484142D01*
X168438Y484039D01*
X167915Y484161D01*
X167495Y484455D01*
X167205Y484867D01*
X167073Y485345D01*
X167126Y485837D01*
X167321Y486169D01*
X168044Y486683D01*
X168500Y486792D01*
X169023Y486676D01*
D02*
G37*
G36*
X167104Y479760D02*
X167548Y479478D01*
X167875Y479063D01*
X168051Y478576D01*
X167976Y478099D01*
X167827Y477631D01*
X167362Y477298D01*
X166780Y477169D01*
X166250Y477262D01*
X165804Y477527D01*
X165476Y477913D01*
X165298Y478372D01*
X165370Y478831D01*
X165522Y479304D01*
X165988Y479678D01*
X166573Y479847D01*
X167104Y479760D01*
D02*
G37*
D10*
X197508Y576000D02*
X198000D01*
X57800Y571650D02*
X193158D01*
X197508Y576000D01*
X191650Y551650D02*
X198000Y558000D01*
X57800Y551650D02*
X191650D01*
X187650Y511650D02*
X198000Y522000D01*
X57800Y511650D02*
X187650D01*
D27*
X200000Y596000D02*
D03*
X150000Y100000D02*
D03*
X162000Y425000D02*
D03*
X280000D02*
D03*
D28*
X37800Y471650D02*
D03*
X57800Y451650D02*
D03*
Y611650D02*
D03*
X37800D02*
D03*
X57800Y591650D02*
D03*
X37800D02*
D03*
X57800Y571650D02*
D03*
X37800D02*
D03*
X57800Y551650D02*
D03*
X37800D02*
D03*
X57800Y531650D02*
D03*
X37800D02*
D03*
X57800Y511650D02*
D03*
X37800D02*
D03*
X57800Y491650D02*
D03*
X37800D02*
D03*
X57800Y471650D02*
D03*
X37800Y451650D02*
D03*
X57800Y431650D02*
D03*
D29*
X37800D02*
D03*
D30*
X74400Y160000D02*
D03*
X49000Y185400D02*
D03*
X74400D02*
D03*
X49000Y210800D02*
D03*
X74400D02*
D03*
X49000Y236200D02*
D03*
X74400D02*
D03*
X49000Y261600D02*
D03*
X74400D02*
D03*
X49000Y287000D02*
D03*
X74400D02*
D03*
X49000Y312400D02*
D03*
X74400D02*
D03*
X49000Y337800D02*
D03*
X74400D02*
D03*
X49000Y363200D02*
D03*
X74400D02*
D03*
X49000Y388600D02*
D03*
X74400D02*
D03*
D31*
X49000Y160000D02*
D03*
D32*
X177000Y361750D02*
D03*
X257500Y213000D02*
D03*
X254750Y374750D02*
D03*
X257250Y321250D02*
D03*
X258000Y79500D02*
D03*
X255250Y468000D02*
D03*
X254750Y594000D02*
D03*
Y539750D02*
D03*
X255000Y504000D02*
D03*
X139000Y449500D02*
D03*
X198000Y522000D02*
D03*
Y558000D02*
D03*
Y576000D02*
D03*
M02*
