G04*
G04 #@! TF.GenerationSoftware,Altium Limited,Altium Designer,23.3.1 (30)*
G04*
G04 Layer_Color=8421504*
%FSLAX44Y44*%
%MOMM*%
G71*
G04*
G04 #@! TF.SameCoordinates,DF4BE222-8F2C-4444-88BE-FDE14E9DB007*
G04*
G04*
G04 #@! TF.FilePolarity,Positive*
G04*
G01*
G75*
%ADD14R,1.2000X0.2500*%
%ADD15R,0.2500X1.2000*%
G04:AMPARAMS|DCode=16|XSize=0.85mm|YSize=0.85mm|CornerRadius=0.2125mm|HoleSize=0mm|Usage=FLASHONLY|Rotation=0.000|XOffset=0mm|YOffset=0mm|HoleType=Round|Shape=RoundedRectangle|*
%AMROUNDEDRECTD16*
21,1,0.8500,0.4250,0,0,0.0*
21,1,0.4250,0.8500,0,0,0.0*
1,1,0.4250,0.2125,-0.2125*
1,1,0.4250,-0.2125,-0.2125*
1,1,0.4250,-0.2125,0.2125*
1,1,0.4250,0.2125,0.2125*
%
%ADD16ROUNDEDRECTD16*%
G04:AMPARAMS|DCode=17|XSize=0.85mm|YSize=0.85mm|CornerRadius=0.2125mm|HoleSize=0mm|Usage=FLASHONLY|Rotation=90.000|XOffset=0mm|YOffset=0mm|HoleType=Round|Shape=RoundedRectangle|*
%AMROUNDEDRECTD17*
21,1,0.8500,0.4250,0,0,90.0*
21,1,0.4250,0.8500,0,0,90.0*
1,1,0.4250,0.2125,0.2125*
1,1,0.4250,0.2125,-0.2125*
1,1,0.4250,-0.2125,-0.2125*
1,1,0.4250,-0.2125,0.2125*
%
%ADD17ROUNDEDRECTD17*%
D14*
X260500Y552500D02*
D03*
Y547500D02*
D03*
Y542500D02*
D03*
Y537500D02*
D03*
Y532500D02*
D03*
Y527500D02*
D03*
Y522500D02*
D03*
Y517500D02*
D03*
Y512500D02*
D03*
Y507500D02*
D03*
Y502500D02*
D03*
Y497500D02*
D03*
Y492500D02*
D03*
Y487500D02*
D03*
Y482500D02*
D03*
Y477500D02*
D03*
Y472500D02*
D03*
Y467500D02*
D03*
Y462500D02*
D03*
Y457500D02*
D03*
Y452500D02*
D03*
Y447500D02*
D03*
Y442500D02*
D03*
Y437500D02*
D03*
Y432500D02*
D03*
X105500D02*
D03*
Y437500D02*
D03*
Y442500D02*
D03*
Y447500D02*
D03*
Y452500D02*
D03*
Y457500D02*
D03*
Y462500D02*
D03*
Y467500D02*
D03*
Y472500D02*
D03*
Y477500D02*
D03*
Y482500D02*
D03*
Y487500D02*
D03*
Y492500D02*
D03*
Y497500D02*
D03*
Y502500D02*
D03*
Y507500D02*
D03*
Y512500D02*
D03*
Y517500D02*
D03*
Y522500D02*
D03*
Y527500D02*
D03*
Y532500D02*
D03*
Y537500D02*
D03*
Y542500D02*
D03*
Y547500D02*
D03*
Y552500D02*
D03*
D15*
X243000Y415000D02*
D03*
X238000D02*
D03*
X233000D02*
D03*
X228000D02*
D03*
X223000D02*
D03*
X218000D02*
D03*
X213000D02*
D03*
X208000D02*
D03*
X203000D02*
D03*
X198000D02*
D03*
X193000D02*
D03*
X188000D02*
D03*
X183000D02*
D03*
X178000D02*
D03*
X173000D02*
D03*
X168000D02*
D03*
X163000D02*
D03*
X158000D02*
D03*
X153000D02*
D03*
X148000D02*
D03*
X143000D02*
D03*
X138000D02*
D03*
X133000D02*
D03*
X128000D02*
D03*
X123000D02*
D03*
Y570000D02*
D03*
X128000D02*
D03*
X133000D02*
D03*
X138000D02*
D03*
X143000D02*
D03*
X148000D02*
D03*
X153000D02*
D03*
X158000D02*
D03*
X163000D02*
D03*
X168000D02*
D03*
X173000D02*
D03*
X178000D02*
D03*
X183000D02*
D03*
X188000D02*
D03*
X193000D02*
D03*
X198000D02*
D03*
X203000D02*
D03*
X208000D02*
D03*
X213000D02*
D03*
X218000D02*
D03*
X223000D02*
D03*
X228000D02*
D03*
X233000D02*
D03*
X238000D02*
D03*
X243000D02*
D03*
D16*
X82000Y505000D02*
D03*
Y491000D02*
D03*
Y462000D02*
D03*
Y476000D02*
D03*
X279375Y547375D02*
D03*
Y533375D02*
D03*
D17*
X114000Y600000D02*
D03*
X128000D02*
D03*
X290000Y440000D02*
D03*
X276000D02*
D03*
Y428000D02*
D03*
X290000D02*
D03*
X115000Y361000D02*
D03*
X129000D02*
D03*
X128000Y386000D02*
D03*
X114000D02*
D03*
X89000Y535000D02*
D03*
X75000D02*
D03*
X198000Y586000D02*
D03*
X184000D02*
D03*
X114000Y399000D02*
D03*
X128000D02*
D03*
X89000Y521000D02*
D03*
X75000D02*
D03*
M02*
